<?xml version="1.0" encoding="utf-8" standalone="no"?>
<!DOCTYPE svg PUBLIC "-//W3C//DTD SVG 1.1//EN"
  "http://www.w3.org/Graphics/SVG/1.1/DTD/svg11.dtd">
<svg xmlns:xlink="http://www.w3.org/1999/xlink" width="237.113019pt" height="208.71pt" viewBox="0 0 237.113019 208.71" xmlns="http://www.w3.org/2000/svg" version="1.1">
 <metadata>
  <rdf:RDF xmlns:dc="http://purl.org/dc/elements/1.1/" xmlns:cc="http://creativecommons.org/ns#" xmlns:rdf="http://www.w3.org/1999/02/22-rdf-syntax-ns#">
   <cc:Work>
    <dc:type rdf:resource="http://purl.org/dc/dcmitype/StillImage"/>
    <dc:date>2023-03-23T14:50:50.479618</dc:date>
    <dc:format>image/svg+xml</dc:format>
    <dc:creator>
     <cc:Agent>
      <dc:title>Matplotlib v3.5.2, https://matplotlib.org/</dc:title>
     </cc:Agent>
    </dc:creator>
   </cc:Work>
  </rdf:RDF>
 </metadata>
 <defs>
  <style type="text/css">*{stroke-linejoin: round; stroke-linecap: butt}</style>
 </defs>
 <g id="figure_1">
  <g id="patch_1">
   <path d="M 0 208.71 
L 237.113019 208.71 
L 237.113019 0 
L 0 0 
L 0 208.71 
z
" style="fill: none"/>
  </g>
  <g id="axes_1">
   <g id="patch_2">
    <path d="M 102.236509 66.105 
C 103.250573 66.105 104.224141 65.701735 104.941193 64.984683 
C 105.658244 64.267632 106.061509 63.294064 106.061509 62.28 
C 106.061509 61.265936 105.658244 60.292368 104.941193 59.575317 
C 104.224141 58.858265 103.250573 58.455 102.236509 58.455 
" clip-path="url(#p3044e59414)" style="fill: none; stroke: #000000; stroke-width: 2; stroke-linejoin: miter"/>
   </g>
   <g id="patch_3">
    <path d="M 102.236509 73.755 
C 103.250573 73.755 104.224141 73.351735 104.941193 72.634683 
C 105.658244 71.917632 106.061509 70.944064 106.061509 69.93 
C 106.061509 68.915936 105.658244 67.942368 104.941193 67.225317 
C 104.224141 66.508265 103.250573 66.105 102.236509 66.105 
" clip-path="url(#p3044e59414)" style="fill: none; stroke: #000000; stroke-width: 2; stroke-linejoin: miter"/>
   </g>
   <g id="patch_4">
    <path d="M 102.236509 81.405 
C 103.250573 81.405 104.224141 81.001735 104.941193 80.284683 
C 105.658244 79.567632 106.061509 78.594064 106.061509 77.58 
C 106.061509 76.565936 105.658244 75.592368 104.941193 74.875317 
C 104.224141 74.158265 103.250573 73.755 102.236509 73.755 
" clip-path="url(#p3044e59414)" style="fill: none; stroke: #000000; stroke-width: 2; stroke-linejoin: miter"/>
   </g>
   <g id="patch_5">
    <path d="M 102.236509 89.055 
C 103.250573 89.055 104.224141 88.651735 104.941193 87.934683 
C 105.658244 87.217632 106.061509 86.244064 106.061509 85.23 
C 106.061509 84.215936 105.658244 83.242368 104.941193 82.525317 
C 104.224141 81.808265 103.250573 81.405 102.236509 81.405 
" clip-path="url(#p3044e59414)" style="fill: none; stroke: #000000; stroke-width: 2; stroke-linejoin: miter"/>
   </g>
   <g id="patch_6">
    <path d="M 67.09066 183.513535 
C 66.583628 182.635329 65.747607 181.993827 64.768096 181.731368 
C 63.788585 181.468909 62.743818 181.606455 61.865613 182.113487 
C 60.987408 182.620519 60.345906 183.456541 60.083447 184.436052 
C 59.820988 185.415562 59.958534 186.460329 60.465566 187.338535 
" clip-path="url(#p3044e59414)" style="fill: none; stroke: #000000; stroke-width: 2; stroke-linejoin: miter"/>
   </g>
   <g id="patch_7">
    <path d="M 73.715755 179.688535 
C 73.208723 178.810329 72.372701 178.168827 71.39319 177.906368 
C 70.41368 177.643909 69.368913 177.781455 68.490708 178.288487 
C 67.612502 178.795519 66.971 179.631541 66.708541 180.611052 
C 66.446082 181.590562 66.583628 182.635329 67.09066 183.513535 
" clip-path="url(#p3044e59414)" style="fill: none; stroke: #000000; stroke-width: 2; stroke-linejoin: miter"/>
   </g>
   <g id="patch_8">
    <path d="M 80.340849 175.863535 
C 79.833817 174.985329 78.997795 174.343827 78.018285 174.081368 
C 77.038774 173.818909 75.994007 173.956455 75.115802 174.463487 
C 74.237597 174.970519 73.596095 175.806541 73.333636 176.786052 
C 73.071177 177.765562 73.208723 178.810329 73.715755 179.688535 
" clip-path="url(#p3044e59414)" style="fill: none; stroke: #000000; stroke-width: 2; stroke-linejoin: miter"/>
   </g>
   <g id="patch_9">
    <path d="M 86.965943 172.038535 
C 86.458911 171.160329 85.62289 170.518827 84.643379 170.256368 
C 83.663868 169.993909 82.619101 170.131455 81.740896 170.638487 
C 80.862691 171.145519 80.221189 171.981541 79.95873 172.961052 
C 79.696271 173.940562 79.833817 174.985329 80.340849 175.863535 
" clip-path="url(#p3044e59414)" style="fill: none; stroke: #000000; stroke-width: 2; stroke-linejoin: miter"/>
   </g>
   <g id="line2d_1">
    <path d="M 224.558019 196.155 
L 198.057641 180.855 
" clip-path="url(#p3044e59414)" style="fill: none; stroke: #000000; stroke-width: 2; stroke-linecap: round"/>
   </g>
   <g id="line2d_2">
    <path d="M 118.556509 134.955 
L 145.056887 150.255 
" clip-path="url(#p3044e59414)" style="fill: none; stroke: #000000; stroke-width: 2; stroke-linecap: round"/>
   </g>
   <g id="line2d_3">
    <path d="M 191.937641 191.455151 
L 204.177641 170.254849 
" clip-path="url(#p3044e59414)" style="fill: none; stroke: #000000; stroke-width: 2; stroke-linecap: round"/>
   </g>
   <g id="line2d_4">
    <path d="M 138.936887 160.855151 
L 151.176887 139.654849 
" clip-path="url(#p3044e59414)" style="fill: none; stroke: #000000; stroke-width: 2; stroke-linecap: round"/>
   </g>
   <g id="line2d_5">
    <path d="M 191.937641 191.455151 
L 167.822298 177.532151 
M 163.997298 184.157245 
L 171.647298 170.907057 
M 159.22723 181.403245 
L 166.87723 168.153057 
M 163.05223 174.778151 
L 138.936887 160.855151 
" clip-path="url(#p3044e59414)" style="fill: none; stroke: #000000; stroke-width: 2; stroke-linecap: round"/>
   </g>
   <g id="line2d_6">
    <path d="M 204.177641 170.254849 
L 177.677264 154.954849 
M 180.477358 165.404943 
L 174.87717 144.504755 
M 167.22717 157.754943 
L 188.127358 152.154755 
M 177.677264 154.954849 
L 151.176887 139.654849 
" clip-path="url(#p3044e59414)" style="fill: none; stroke: #000000; stroke-width: 2; stroke-linecap: round"/>
   </g>
   <g id="line2d_7">
    <path d="M 118.556509 12.555 
L 118.556509 43.155 
" clip-path="url(#p3044e59414)" style="fill: none; stroke: #000000; stroke-width: 2; stroke-linecap: round"/>
   </g>
   <g id="line2d_8">
    <path d="M 118.556509 134.955 
L 118.556509 104.355 
" clip-path="url(#p3044e59414)" style="fill: none; stroke: #000000; stroke-width: 2; stroke-linecap: round"/>
   </g>
   <g id="line2d_9">
    <path d="M 134.876509 43.155 
L 102.236509 43.155 
" clip-path="url(#p3044e59414)" style="fill: none; stroke: #000000; stroke-width: 2; stroke-linecap: round"/>
   </g>
   <g id="line2d_10">
    <path d="M 134.876509 104.355 
L 102.236509 104.355 
" clip-path="url(#p3044e59414)" style="fill: none; stroke: #000000; stroke-width: 2; stroke-linecap: round"/>
   </g>
   <g id="line2d_11">
    <path d="M 118.556509 43.155 
L 118.556509 71.001 
M 126.206509 71.001 
L 110.906509 71.001 
M 126.206509 76.509 
L 110.906509 76.509 
M 118.556509 76.509 
L 118.556509 104.355 
" clip-path="url(#p3044e59414)" style="fill: none; stroke: #000000; stroke-width: 2; stroke-linecap: round"/>
   </g>
   <g id="line2d_12">
    <path d="M 134.876509 43.155 
L 134.876509 73.755 
M 142.526509 66.105 
L 127.226509 81.405 
M 142.526509 81.405 
L 127.226509 66.105 
M 134.876509 73.755 
L 134.876509 104.355 
" clip-path="url(#p3044e59414)" style="fill: none; stroke: #000000; stroke-width: 2; stroke-linecap: round"/>
   </g>
   <g id="line2d_13">
    <path d="M 102.236509 43.155 
L 102.236509 58.455 
M 102.236509 89.055 
L 102.236509 104.355 
" clip-path="url(#p3044e59414)" style="fill: none; stroke: #000000; stroke-width: 2; stroke-linecap: round"/>
   </g>
   <g id="line2d_14">
    <path d="M 12.555 196.155 
L 39.055377 180.855 
" clip-path="url(#p3044e59414)" style="fill: none; stroke: #000000; stroke-width: 2; stroke-linecap: round"/>
   </g>
   <g id="line2d_15">
    <path d="M 118.556509 134.955 
L 92.056132 150.255 
" clip-path="url(#p3044e59414)" style="fill: none; stroke: #000000; stroke-width: 2; stroke-linecap: round"/>
   </g>
   <g id="line2d_16">
    <path d="M 30.895377 166.721465 
L 47.215377 194.988535 
" clip-path="url(#p3044e59414)" style="fill: none; stroke: #000000; stroke-width: 2; stroke-linecap: round"/>
   </g>
   <g id="line2d_17">
    <path d="M 83.896132 136.121465 
L 100.216132 164.388535 
" clip-path="url(#p3044e59414)" style="fill: none; stroke: #000000; stroke-width: 2; stroke-linecap: round"/>
   </g>
   <g id="line2d_18">
    <path d="M 39.055377 180.855 
L 63.170721 166.932 
M 59.345721 160.306906 
L 66.995721 173.557094 
M 64.115789 157.552906 
L 71.765789 170.803094 
M 67.940789 164.178 
L 92.056132 150.255 
" clip-path="url(#p3044e59414)" style="fill: none; stroke: #000000; stroke-width: 2; stroke-linecap: round"/>
   </g>
   <g id="line2d_19">
    <path d="M 30.895377 166.721465 
L 57.395755 151.421465 
M 46.94566 148.621371 
L 67.845849 154.22156 
M 60.195849 140.971371 
L 54.59566 161.87156 
M 57.395755 151.421465 
L 83.896132 136.121465 
" clip-path="url(#p3044e59414)" style="fill: none; stroke: #000000; stroke-width: 2; stroke-linecap: round"/>
   </g>
   <g id="line2d_20">
    <path d="M 47.215377 194.988535 
L 60.465566 187.338535 
M 86.965943 172.038535 
L 100.216132 164.388535 
" clip-path="url(#p3044e59414)" style="fill: none; stroke: #000000; stroke-width: 2; stroke-linecap: round"/>
   </g>
   <g id="patch_10">
    <path d="M 224.558019 198.45 
C 225.16666 198.45 225.750455 198.208184 226.180829 197.77781 
C 226.611203 197.347436 226.853019 196.763641 226.853019 196.155 
C 226.853019 195.546359 226.611203 194.962564 226.180829 194.53219 
C 225.750455 194.101816 225.16666 193.86 224.558019 193.86 
C 223.949378 193.86 223.365583 194.101816 222.935209 194.53219 
C 222.504835 194.962564 222.263019 195.546359 222.263019 196.155 
C 222.263019 196.763641 222.504835 197.347436 222.935209 197.77781 
C 223.365583 198.208184 223.949378 198.45 224.558019 198.45 
z
" clip-path="url(#p3044e59414)" style="stroke: #000000; stroke-width: 2; stroke-linejoin: miter"/>
   </g>
   <g id="patch_11">
    <path d="M 118.556509 137.25 
C 119.165151 137.25 119.748945 137.008184 120.179319 136.57781 
C 120.609694 136.147436 120.851509 135.563641 120.851509 134.955 
C 120.851509 134.346359 120.609694 133.762564 120.179319 133.33219 
C 119.748945 132.901816 119.165151 132.66 118.556509 132.66 
C 117.947868 132.66 117.364074 132.901816 116.933699 133.33219 
C 116.503325 133.762564 116.261509 134.346359 116.261509 134.955 
C 116.261509 135.563641 116.503325 136.147436 116.933699 136.57781 
C 117.364074 137.008184 117.947868 137.25 118.556509 137.25 
z
" clip-path="url(#p3044e59414)" style="stroke: #000000; stroke-width: 2; stroke-linejoin: miter"/>
   </g>
   <g id="patch_12">
    <path d="M 118.556509 14.85 
C 119.165151 14.85 119.748945 14.608184 120.179319 14.17781 
C 120.609694 13.747436 120.851509 13.163641 120.851509 12.555 
C 120.851509 11.946359 120.609694 11.362564 120.179319 10.93219 
C 119.748945 10.501816 119.165151 10.26 118.556509 10.26 
C 117.947868 10.26 117.364074 10.501816 116.933699 10.93219 
C 116.503325 11.362564 116.261509 11.946359 116.261509 12.555 
C 116.261509 13.163641 116.503325 13.747436 116.933699 14.17781 
C 117.364074 14.608184 117.947868 14.85 118.556509 14.85 
z
" clip-path="url(#p3044e59414)" style="stroke: #000000; stroke-width: 2; stroke-linejoin: miter"/>
   </g>
   <g id="patch_13">
    <path d="M 12.555 198.45 
C 13.163641 198.45 13.747436 198.208184 14.17781 197.77781 
C 14.608184 197.347436 14.85 196.763641 14.85 196.155 
C 14.85 195.546359 14.608184 194.962564 14.17781 194.53219 
C 13.747436 194.101816 13.163641 193.86 12.555 193.86 
C 11.946359 193.86 11.362564 194.101816 10.93219 194.53219 
C 10.501816 194.962564 10.26 195.546359 10.26 196.155 
C 10.26 196.763641 10.501816 197.347436 10.93219 197.77781 
C 11.362564 198.208184 11.946359 198.45 12.555 198.45 
z
" clip-path="url(#p3044e59414)" style="stroke: #000000; stroke-width: 2; stroke-linejoin: miter"/>
   </g>
  </g>
 </g>
 <defs>
  <clipPath id="p3044e59414">
   <rect x="7.2" y="7.2" width="222.713019" height="194.31"/>
  </clipPath>
 </defs>
</svg>
