<?xml version="1.0" encoding="utf-8" standalone="no"?>
<!DOCTYPE svg PUBLIC "-//W3C//DTD SVG 1.1//EN"
  "http://www.w3.org/Graphics/SVG/1.1/DTD/svg11.dtd">
<svg xmlns:xlink="http://www.w3.org/1999/xlink" width="237.113019pt" height="208.71pt" viewBox="0 0 237.113019 208.71" xmlns="http://www.w3.org/2000/svg" version="1.1">
 <metadata>
  <rdf:RDF xmlns:dc="http://purl.org/dc/elements/1.1/" xmlns:cc="http://creativecommons.org/ns#" xmlns:rdf="http://www.w3.org/1999/02/22-rdf-syntax-ns#">
   <cc:Work>
    <dc:type rdf:resource="http://purl.org/dc/dcmitype/StillImage"/>
    <dc:date>2023-03-23T14:41:32.892799</dc:date>
    <dc:format>image/svg+xml</dc:format>
    <dc:creator>
     <cc:Agent>
      <dc:title>Matplotlib v3.5.2, https://matplotlib.org/</dc:title>
     </cc:Agent>
    </dc:creator>
   </cc:Work>
  </rdf:RDF>
 </metadata>
 <defs>
  <style type="text/css">*{stroke-linejoin: round; stroke-linecap: butt}</style>
 </defs>
 <g id="figure_1">
  <g id="patch_1">
   <path d="M 0 208.71 
L 237.113019 208.71 
L 237.113019 0 
L 0 0 
L 0 208.71 
z
" style="fill: none"/>
  </g>
  <g id="axes_1">
   <g id="patch_2">
    <path d="M 65.05066 179.980151 
C 64.543628 179.101946 63.707607 178.460444 62.728096 178.197985 
C 61.748585 177.935526 60.703818 178.073072 59.825613 178.580104 
C 58.947408 179.087136 58.305906 179.923157 58.043447 180.902668 
C 57.780988 181.882179 57.918534 182.926946 58.425566 183.805151 
" clip-path="url(#p3038695de5)" style="fill: none; stroke: #000000; stroke-width: 2; stroke-linejoin: miter"/>
   </g>
   <g id="patch_3">
    <path d="M 71.675755 176.155151 
C 71.168723 175.276946 70.332701 174.635444 69.35319 174.372985 
C 68.37368 174.110526 67.328913 174.248072 66.450708 174.755104 
C 65.572502 175.262136 64.931 176.098157 64.668541 177.077668 
C 64.406082 178.057179 64.543628 179.101946 65.05066 179.980151 
" clip-path="url(#p3038695de5)" style="fill: none; stroke: #000000; stroke-width: 2; stroke-linejoin: miter"/>
   </g>
   <g id="patch_4">
    <path d="M 78.300849 172.330151 
C 77.793817 171.451946 76.957795 170.810444 75.978285 170.547985 
C 74.998774 170.285526 73.954007 170.423072 73.075802 170.930104 
C 72.197597 171.437136 71.556095 172.273157 71.293636 173.252668 
C 71.031177 174.232179 71.168723 175.276946 71.675755 176.155151 
" clip-path="url(#p3038695de5)" style="fill: none; stroke: #000000; stroke-width: 2; stroke-linejoin: miter"/>
   </g>
   <g id="patch_5">
    <path d="M 84.925943 168.505151 
C 84.418911 167.626946 83.58289 166.985444 82.603379 166.722985 
C 81.623868 166.460526 80.579101 166.598072 79.700896 167.105104 
C 78.822691 167.612136 78.181189 168.448157 77.91873 169.427668 
C 77.656271 170.407179 77.793817 171.451946 78.300849 172.330151 
" clip-path="url(#p3038695de5)" style="fill: none; stroke: #000000; stroke-width: 2; stroke-linejoin: miter"/>
   </g>
   <g id="line2d_1">
    <path d="M 224.558019 196.155 
L 198.057641 180.855 
" clip-path="url(#p3038695de5)" style="fill: none; stroke: #000000; stroke-width: 2; stroke-linecap: round"/>
   </g>
   <g id="line2d_2">
    <path d="M 118.556509 134.955 
L 145.056887 150.255 
" clip-path="url(#p3038695de5)" style="fill: none; stroke: #000000; stroke-width: 2; stroke-linecap: round"/>
   </g>
   <g id="line2d_3">
    <path d="M 191.937641 191.455151 
L 204.177641 170.254849 
" clip-path="url(#p3038695de5)" style="fill: none; stroke: #000000; stroke-width: 2; stroke-linecap: round"/>
   </g>
   <g id="line2d_4">
    <path d="M 138.936887 160.855151 
L 151.176887 139.654849 
" clip-path="url(#p3038695de5)" style="fill: none; stroke: #000000; stroke-width: 2; stroke-linecap: round"/>
   </g>
   <g id="line2d_5">
    <path d="M 191.937641 191.455151 
L 167.822298 177.532151 
M 163.997298 184.157245 
L 171.647298 170.907057 
M 159.22723 181.403245 
L 166.87723 168.153057 
M 163.05223 174.778151 
L 138.936887 160.855151 
" clip-path="url(#p3038695de5)" style="fill: none; stroke: #000000; stroke-width: 2; stroke-linecap: round"/>
   </g>
   <g id="line2d_6">
    <path d="M 204.177641 170.254849 
L 177.677264 154.954849 
M 180.477358 165.404943 
L 174.87717 144.504755 
M 167.22717 157.754943 
L 188.127358 152.154755 
M 177.677264 154.954849 
L 151.176887 139.654849 
" clip-path="url(#p3038695de5)" style="fill: none; stroke: #000000; stroke-width: 2; stroke-linecap: round"/>
   </g>
   <g id="line2d_7">
    <path d="M 118.556509 12.555 
L 118.556509 43.155 
" clip-path="url(#p3038695de5)" style="fill: none; stroke: #000000; stroke-width: 2; stroke-linecap: round"/>
   </g>
   <g id="line2d_8">
    <path d="M 118.556509 134.955 
L 118.556509 104.355 
" clip-path="url(#p3038695de5)" style="fill: none; stroke: #000000; stroke-width: 2; stroke-linecap: round"/>
   </g>
   <g id="line2d_9">
    <path d="M 130.796509 43.155 
L 106.316509 43.155 
" clip-path="url(#p3038695de5)" style="fill: none; stroke: #000000; stroke-width: 2; stroke-linecap: round"/>
   </g>
   <g id="line2d_10">
    <path d="M 130.796509 104.355 
L 106.316509 104.355 
" clip-path="url(#p3038695de5)" style="fill: none; stroke: #000000; stroke-width: 2; stroke-linecap: round"/>
   </g>
   <g id="line2d_11">
    <path d="M 130.796509 43.155 
L 130.796509 71.001 
M 138.446509 71.001 
L 123.146509 71.001 
M 138.446509 76.509 
L 123.146509 76.509 
M 130.796509 76.509 
L 130.796509 104.355 
" clip-path="url(#p3038695de5)" style="fill: none; stroke: #000000; stroke-width: 2; stroke-linecap: round"/>
   </g>
   <g id="line2d_12">
    <path d="M 106.316509 43.155 
L 106.316509 73.755 
M 113.966509 66.105 
L 98.666509 81.405 
M 113.966509 81.405 
L 98.666509 66.105 
M 106.316509 73.755 
L 106.316509 104.355 
" clip-path="url(#p3038695de5)" style="fill: none; stroke: #000000; stroke-width: 2; stroke-linecap: round"/>
   </g>
   <g id="line2d_13">
    <path d="M 12.555 196.155 
L 39.055377 180.855 
" clip-path="url(#p3038695de5)" style="fill: none; stroke: #000000; stroke-width: 2; stroke-linecap: round"/>
   </g>
   <g id="line2d_14">
    <path d="M 118.556509 134.955 
L 92.056132 150.255 
" clip-path="url(#p3038695de5)" style="fill: none; stroke: #000000; stroke-width: 2; stroke-linecap: round"/>
   </g>
   <g id="line2d_15">
    <path d="M 32.935377 170.254849 
L 45.175377 191.455151 
" clip-path="url(#p3038695de5)" style="fill: none; stroke: #000000; stroke-width: 2; stroke-linecap: round"/>
   </g>
   <g id="line2d_16">
    <path d="M 85.936132 139.654849 
L 98.176132 160.855151 
" clip-path="url(#p3038695de5)" style="fill: none; stroke: #000000; stroke-width: 2; stroke-linecap: round"/>
   </g>
   <g id="line2d_17">
    <path d="M 32.935377 170.254849 
L 57.050721 156.331849 
M 53.225721 149.706755 
L 60.875721 162.956943 
M 57.995789 146.952755 
L 65.645789 160.202943 
M 61.820789 153.577849 
L 85.936132 139.654849 
" clip-path="url(#p3038695de5)" style="fill: none; stroke: #000000; stroke-width: 2; stroke-linecap: round"/>
   </g>
   <g id="line2d_18">
    <path d="M 45.175377 191.455151 
L 58.425566 183.805151 
M 84.925943 168.505151 
L 98.176132 160.855151 
" clip-path="url(#p3038695de5)" style="fill: none; stroke: #000000; stroke-width: 2; stroke-linecap: round"/>
   </g>
   <g id="patch_6">
    <path d="M 224.558019 198.45 
C 225.16666 198.45 225.750455 198.208184 226.180829 197.77781 
C 226.611203 197.347436 226.853019 196.763641 226.853019 196.155 
C 226.853019 195.546359 226.611203 194.962564 226.180829 194.53219 
C 225.750455 194.101816 225.16666 193.86 224.558019 193.86 
C 223.949378 193.86 223.365583 194.101816 222.935209 194.53219 
C 222.504835 194.962564 222.263019 195.546359 222.263019 196.155 
C 222.263019 196.763641 222.504835 197.347436 222.935209 197.77781 
C 223.365583 198.208184 223.949378 198.45 224.558019 198.45 
z
" clip-path="url(#p3038695de5)" style="stroke: #000000; stroke-width: 2; stroke-linejoin: miter"/>
   </g>
   <g id="patch_7">
    <path d="M 118.556509 137.25 
C 119.165151 137.25 119.748945 137.008184 120.179319 136.57781 
C 120.609694 136.147436 120.851509 135.563641 120.851509 134.955 
C 120.851509 134.346359 120.609694 133.762564 120.179319 133.33219 
C 119.748945 132.901816 119.165151 132.66 118.556509 132.66 
C 117.947868 132.66 117.364074 132.901816 116.933699 133.33219 
C 116.503325 133.762564 116.261509 134.346359 116.261509 134.955 
C 116.261509 135.563641 116.503325 136.147436 116.933699 136.57781 
C 117.364074 137.008184 117.947868 137.25 118.556509 137.25 
z
" clip-path="url(#p3038695de5)" style="stroke: #000000; stroke-width: 2; stroke-linejoin: miter"/>
   </g>
   <g id="patch_8">
    <path d="M 118.556509 14.85 
C 119.165151 14.85 119.748945 14.608184 120.179319 14.17781 
C 120.609694 13.747436 120.851509 13.163641 120.851509 12.555 
C 120.851509 11.946359 120.609694 11.362564 120.179319 10.93219 
C 119.748945 10.501816 119.165151 10.26 118.556509 10.26 
C 117.947868 10.26 117.364074 10.501816 116.933699 10.93219 
C 116.503325 11.362564 116.261509 11.946359 116.261509 12.555 
C 116.261509 13.163641 116.503325 13.747436 116.933699 14.17781 
C 117.364074 14.608184 117.947868 14.85 118.556509 14.85 
z
" clip-path="url(#p3038695de5)" style="stroke: #000000; stroke-width: 2; stroke-linejoin: miter"/>
   </g>
   <g id="patch_9">
    <path d="M 12.555 198.45 
C 13.163641 198.45 13.747436 198.208184 14.17781 197.77781 
C 14.608184 197.347436 14.85 196.763641 14.85 196.155 
C 14.85 195.546359 14.608184 194.962564 14.17781 194.53219 
C 13.747436 194.101816 13.163641 193.86 12.555 193.86 
C 11.946359 193.86 11.362564 194.101816 10.93219 194.53219 
C 10.501816 194.962564 10.26 195.546359 10.26 196.155 
C 10.26 196.763641 10.501816 197.347436 10.93219 197.77781 
C 11.362564 198.208184 11.946359 198.45 12.555 198.45 
z
" clip-path="url(#p3038695de5)" style="stroke: #000000; stroke-width: 2; stroke-linejoin: miter"/>
   </g>
  </g>
 </g>
 <defs>
  <clipPath id="p3038695de5">
   <rect x="7.2" y="7.2" width="222.713019" height="194.31"/>
  </clipPath>
 </defs>
</svg>
