<?xml version="1.0" encoding="utf-8" standalone="no"?>
<!DOCTYPE svg PUBLIC "-//W3C//DTD SVG 1.1//EN"
  "http://www.w3.org/Graphics/SVG/1.1/DTD/svg11.dtd">
<svg xmlns:xlink="http://www.w3.org/1999/xlink" width="237.113019pt" height="208.71pt" viewBox="0 0 237.113019 208.71" xmlns="http://www.w3.org/2000/svg" version="1.1">
 <metadata>
  <rdf:RDF xmlns:dc="http://purl.org/dc/elements/1.1/" xmlns:cc="http://creativecommons.org/ns#" xmlns:rdf="http://www.w3.org/1999/02/22-rdf-syntax-ns#">
   <cc:Work>
    <dc:type rdf:resource="http://purl.org/dc/dcmitype/StillImage"/>
    <dc:date>2023-03-23T14:46:05.520445</dc:date>
    <dc:format>image/svg+xml</dc:format>
    <dc:creator>
     <cc:Agent>
      <dc:title>Matplotlib v3.5.2, https://matplotlib.org/</dc:title>
     </cc:Agent>
    </dc:creator>
   </cc:Work>
  </rdf:RDF>
 </metadata>
 <defs>
  <style type="text/css">*{stroke-linejoin: round; stroke-linecap: butt}</style>
 </defs>
 <g id="figure_1">
  <g id="patch_1">
   <path d="M 0 208.71 
L 237.113019 208.71 
L 237.113019 0 
L 0 0 
L 0 208.71 
z
" style="fill: none"/>
  </g>
  <g id="axes_1">
   <g id="patch_2">
    <path d="M 178.182358 169.38 
C 177.675326 170.258205 177.53778 171.302972 177.800239 172.282483 
C 178.062698 173.261993 178.7042 174.098015 179.582406 174.605047 
C 180.460611 175.112079 181.505378 175.249625 182.484888 174.987166 
C 183.464399 174.724707 184.300421 174.083205 184.807453 173.205 
" clip-path="url(#p695b3d3aa4)" style="fill: none; stroke: #000000; stroke-width: 2; stroke-linejoin: miter"/>
   </g>
   <g id="patch_3">
    <path d="M 171.557264 165.555 
C 171.050232 166.433205 170.912686 167.477972 171.175145 168.457483 
C 171.437604 169.436993 172.079106 170.273015 172.957311 170.780047 
C 173.835516 171.287079 174.880284 171.424625 175.859794 171.162166 
C 176.839305 170.899707 177.675326 170.258205 178.182358 169.38 
" clip-path="url(#p695b3d3aa4)" style="fill: none; stroke: #000000; stroke-width: 2; stroke-linejoin: miter"/>
   </g>
   <g id="patch_4">
    <path d="M 164.93217 161.73 
C 164.425138 162.608205 164.287592 163.652972 164.550051 164.632483 
C 164.81251 165.611993 165.454012 166.448015 166.332217 166.955047 
C 167.210422 167.462079 168.255189 167.599625 169.2347 167.337166 
C 170.21421 167.074707 171.050232 166.433205 171.557264 165.555 
" clip-path="url(#p695b3d3aa4)" style="fill: none; stroke: #000000; stroke-width: 2; stroke-linejoin: miter"/>
   </g>
   <g id="patch_5">
    <path d="M 158.307075 157.905 
C 157.800043 158.783205 157.662497 159.827972 157.924956 160.807483 
C 158.187415 161.786993 158.828917 162.623015 159.707123 163.130047 
C 160.585328 163.637079 161.630095 163.774625 162.609605 163.512166 
C 163.589116 163.249707 164.425138 162.608205 164.93217 161.73 
" clip-path="url(#p695b3d3aa4)" style="fill: none; stroke: #000000; stroke-width: 2; stroke-linejoin: miter"/>
   </g>
   <g id="patch_6">
    <path d="M 67.09066 183.513535 
C 66.583628 182.635329 65.747607 181.993827 64.768096 181.731368 
C 63.788585 181.468909 62.743818 181.606455 61.865613 182.113487 
C 60.987408 182.620519 60.345906 183.456541 60.083447 184.436052 
C 59.820988 185.415562 59.958534 186.460329 60.465566 187.338535 
" clip-path="url(#p695b3d3aa4)" style="fill: none; stroke: #000000; stroke-width: 2; stroke-linejoin: miter"/>
   </g>
   <g id="patch_7">
    <path d="M 73.715755 179.688535 
C 73.208723 178.810329 72.372701 178.168827 71.39319 177.906368 
C 70.41368 177.643909 69.368913 177.781455 68.490708 178.288487 
C 67.612502 178.795519 66.971 179.631541 66.708541 180.611052 
C 66.446082 181.590562 66.583628 182.635329 67.09066 183.513535 
" clip-path="url(#p695b3d3aa4)" style="fill: none; stroke: #000000; stroke-width: 2; stroke-linejoin: miter"/>
   </g>
   <g id="patch_8">
    <path d="M 80.340849 175.863535 
C 79.833817 174.985329 78.997795 174.343827 78.018285 174.081368 
C 77.038774 173.818909 75.994007 173.956455 75.115802 174.463487 
C 74.237597 174.970519 73.596095 175.806541 73.333636 176.786052 
C 73.071177 177.765562 73.208723 178.810329 73.715755 179.688535 
" clip-path="url(#p695b3d3aa4)" style="fill: none; stroke: #000000; stroke-width: 2; stroke-linejoin: miter"/>
   </g>
   <g id="patch_9">
    <path d="M 86.965943 172.038535 
C 86.458911 171.160329 85.62289 170.518827 84.643379 170.256368 
C 83.663868 169.993909 82.619101 170.131455 81.740896 170.638487 
C 80.862691 171.145519 80.221189 171.981541 79.95873 172.961052 
C 79.696271 173.940562 79.833817 174.985329 80.340849 175.863535 
" clip-path="url(#p695b3d3aa4)" style="fill: none; stroke: #000000; stroke-width: 2; stroke-linejoin: miter"/>
   </g>
   <g id="line2d_1">
    <path d="M 224.558019 196.155 
L 184.807453 173.205 
M 158.307075 157.905 
L 118.556509 134.955 
" clip-path="url(#p695b3d3aa4)" style="fill: none; stroke: #000000; stroke-width: 2; stroke-linecap: round"/>
   </g>
   <g id="line2d_2">
    <path d="M 118.556509 12.555 
L 118.556509 43.155 
" clip-path="url(#p695b3d3aa4)" style="fill: none; stroke: #000000; stroke-width: 2; stroke-linecap: round"/>
   </g>
   <g id="line2d_3">
    <path d="M 118.556509 134.955 
L 118.556509 104.355 
" clip-path="url(#p695b3d3aa4)" style="fill: none; stroke: #000000; stroke-width: 2; stroke-linecap: round"/>
   </g>
   <g id="line2d_4">
    <path d="M 130.796509 43.155 
L 106.316509 43.155 
" clip-path="url(#p695b3d3aa4)" style="fill: none; stroke: #000000; stroke-width: 2; stroke-linecap: round"/>
   </g>
   <g id="line2d_5">
    <path d="M 130.796509 104.355 
L 106.316509 104.355 
" clip-path="url(#p695b3d3aa4)" style="fill: none; stroke: #000000; stroke-width: 2; stroke-linecap: round"/>
   </g>
   <g id="line2d_6">
    <path d="M 130.796509 43.155 
L 130.796509 71.001 
M 138.446509 71.001 
L 123.146509 71.001 
M 138.446509 76.509 
L 123.146509 76.509 
M 130.796509 76.509 
L 130.796509 104.355 
" clip-path="url(#p695b3d3aa4)" style="fill: none; stroke: #000000; stroke-width: 2; stroke-linecap: round"/>
   </g>
   <g id="line2d_7">
    <path d="M 106.316509 43.155 
L 106.316509 73.755 
M 113.966509 66.105 
L 98.666509 81.405 
M 113.966509 81.405 
L 98.666509 66.105 
M 106.316509 73.755 
L 106.316509 104.355 
" clip-path="url(#p695b3d3aa4)" style="fill: none; stroke: #000000; stroke-width: 2; stroke-linecap: round"/>
   </g>
   <g id="line2d_8">
    <path d="M 12.555 196.155 
L 39.055377 180.855 
" clip-path="url(#p695b3d3aa4)" style="fill: none; stroke: #000000; stroke-width: 2; stroke-linecap: round"/>
   </g>
   <g id="line2d_9">
    <path d="M 118.556509 134.955 
L 92.056132 150.255 
" clip-path="url(#p695b3d3aa4)" style="fill: none; stroke: #000000; stroke-width: 2; stroke-linecap: round"/>
   </g>
   <g id="line2d_10">
    <path d="M 30.895377 166.721465 
L 47.215377 194.988535 
" clip-path="url(#p695b3d3aa4)" style="fill: none; stroke: #000000; stroke-width: 2; stroke-linecap: round"/>
   </g>
   <g id="line2d_11">
    <path d="M 83.896132 136.121465 
L 100.216132 164.388535 
" clip-path="url(#p695b3d3aa4)" style="fill: none; stroke: #000000; stroke-width: 2; stroke-linecap: round"/>
   </g>
   <g id="line2d_12">
    <path d="M 39.055377 180.855 
L 63.170721 166.932 
M 59.345721 160.306906 
L 66.995721 173.557094 
M 64.115789 157.552906 
L 71.765789 170.803094 
M 67.940789 164.178 
L 92.056132 150.255 
" clip-path="url(#p695b3d3aa4)" style="fill: none; stroke: #000000; stroke-width: 2; stroke-linecap: round"/>
   </g>
   <g id="line2d_13">
    <path d="M 30.895377 166.721465 
L 57.395755 151.421465 
M 46.94566 148.621371 
L 67.845849 154.22156 
M 60.195849 140.971371 
L 54.59566 161.87156 
M 57.395755 151.421465 
L 83.896132 136.121465 
" clip-path="url(#p695b3d3aa4)" style="fill: none; stroke: #000000; stroke-width: 2; stroke-linecap: round"/>
   </g>
   <g id="line2d_14">
    <path d="M 47.215377 194.988535 
L 60.465566 187.338535 
M 86.965943 172.038535 
L 100.216132 164.388535 
" clip-path="url(#p695b3d3aa4)" style="fill: none; stroke: #000000; stroke-width: 2; stroke-linecap: round"/>
   </g>
   <g id="patch_10">
    <path d="M 224.558019 198.45 
C 225.16666 198.45 225.750455 198.208184 226.180829 197.77781 
C 226.611203 197.347436 226.853019 196.763641 226.853019 196.155 
C 226.853019 195.546359 226.611203 194.962564 226.180829 194.53219 
C 225.750455 194.101816 225.16666 193.86 224.558019 193.86 
C 223.949378 193.86 223.365583 194.101816 222.935209 194.53219 
C 222.504835 194.962564 222.263019 195.546359 222.263019 196.155 
C 222.263019 196.763641 222.504835 197.347436 222.935209 197.77781 
C 223.365583 198.208184 223.949378 198.45 224.558019 198.45 
z
" clip-path="url(#p695b3d3aa4)" style="stroke: #000000; stroke-width: 2; stroke-linejoin: miter"/>
   </g>
   <g id="patch_11">
    <path d="M 118.556509 137.25 
C 119.165151 137.25 119.748945 137.008184 120.179319 136.57781 
C 120.609694 136.147436 120.851509 135.563641 120.851509 134.955 
C 120.851509 134.346359 120.609694 133.762564 120.179319 133.33219 
C 119.748945 132.901816 119.165151 132.66 118.556509 132.66 
C 117.947868 132.66 117.364074 132.901816 116.933699 133.33219 
C 116.503325 133.762564 116.261509 134.346359 116.261509 134.955 
C 116.261509 135.563641 116.503325 136.147436 116.933699 136.57781 
C 117.364074 137.008184 117.947868 137.25 118.556509 137.25 
z
" clip-path="url(#p695b3d3aa4)" style="stroke: #000000; stroke-width: 2; stroke-linejoin: miter"/>
   </g>
   <g id="patch_12">
    <path d="M 118.556509 14.85 
C 119.165151 14.85 119.748945 14.608184 120.179319 14.17781 
C 120.609694 13.747436 120.851509 13.163641 120.851509 12.555 
C 120.851509 11.946359 120.609694 11.362564 120.179319 10.93219 
C 119.748945 10.501816 119.165151 10.26 118.556509 10.26 
C 117.947868 10.26 117.364074 10.501816 116.933699 10.93219 
C 116.503325 11.362564 116.261509 11.946359 116.261509 12.555 
C 116.261509 13.163641 116.503325 13.747436 116.933699 14.17781 
C 117.364074 14.608184 117.947868 14.85 118.556509 14.85 
z
" clip-path="url(#p695b3d3aa4)" style="stroke: #000000; stroke-width: 2; stroke-linejoin: miter"/>
   </g>
   <g id="patch_13">
    <path d="M 12.555 198.45 
C 13.163641 198.45 13.747436 198.208184 14.17781 197.77781 
C 14.608184 197.347436 14.85 196.763641 14.85 196.155 
C 14.85 195.546359 14.608184 194.962564 14.17781 194.53219 
C 13.747436 194.101816 13.163641 193.86 12.555 193.86 
C 11.946359 193.86 11.362564 194.101816 10.93219 194.53219 
C 10.501816 194.962564 10.26 195.546359 10.26 196.155 
C 10.26 196.763641 10.501816 197.347436 10.93219 197.77781 
C 11.362564 198.208184 11.946359 198.45 12.555 198.45 
z
" clip-path="url(#p695b3d3aa4)" style="stroke: #000000; stroke-width: 2; stroke-linejoin: miter"/>
   </g>
  </g>
 </g>
 <defs>
  <clipPath id="p695b3d3aa4">
   <rect x="7.2" y="7.2" width="222.713019" height="194.31"/>
  </clipPath>
 </defs>
</svg>
