<?xml version="1.0" encoding="utf-8" standalone="no"?>
<!DOCTYPE svg PUBLIC "-//W3C//DTD SVG 1.1//EN"
  "http://www.w3.org/Graphics/SVG/1.1/DTD/svg11.dtd">
<svg xmlns:xlink="http://www.w3.org/1999/xlink" width="284.75961pt" height="284.75961pt" viewBox="0 0 284.75961 284.75961" xmlns="http://www.w3.org/2000/svg" version="1.1">
 <metadata>
  <rdf:RDF xmlns:dc="http://purl.org/dc/elements/1.1/" xmlns:cc="http://creativecommons.org/ns#" xmlns:rdf="http://www.w3.org/1999/02/22-rdf-syntax-ns#">
   <cc:Work>
    <dc:type rdf:resource="http://purl.org/dc/dcmitype/StillImage"/>
    <dc:date>2023-03-23T14:40:48.727015</dc:date>
    <dc:format>image/svg+xml</dc:format>
    <dc:creator>
     <cc:Agent>
      <dc:title>Matplotlib v3.5.2, https://matplotlib.org/</dc:title>
     </cc:Agent>
    </dc:creator>
   </cc:Work>
  </rdf:RDF>
 </metadata>
 <defs>
  <style type="text/css">*{stroke-linejoin: round; stroke-linecap: butt}</style>
 </defs>
 <g id="figure_1">
  <g id="patch_1">
   <path d="M 0 284.75961 
L 284.75961 284.75961 
L 284.75961 0 
L 0 0 
L 0 284.75961 
z
" style="fill: none"/>
  </g>
  <g id="axes_1">
   <g id="patch_2">
    <path d="M 61.239302 223.520308 
C 61.956353 224.23736 62.929921 224.640625 63.943985 224.640625 
C 64.958049 224.640625 65.931617 224.23736 66.648669 223.520308 
C 67.36572 222.803257 67.768985 221.829689 67.768985 220.815625 
C 67.768985 219.801561 67.36572 218.827993 66.648669 218.110941 
" clip-path="url(#p05bf5aa4c0)" style="fill: none; stroke: #000000; stroke-width: 2; stroke-linejoin: miter"/>
   </g>
   <g id="patch_3">
    <path d="M 55.829935 228.929675 
C 56.546987 229.646727 57.520554 230.049992 58.534618 230.049992 
C 59.548682 230.049992 60.52225 229.646727 61.239302 228.929675 
C 61.956353 228.212624 62.359618 227.239056 62.359618 226.224992 
C 62.359618 225.210928 61.956353 224.23736 61.239302 223.520308 
" clip-path="url(#p05bf5aa4c0)" style="fill: none; stroke: #000000; stroke-width: 2; stroke-linejoin: miter"/>
   </g>
   <g id="patch_4">
    <path d="M 50.420568 234.339042 
C 51.13762 235.056093 52.111188 235.459358 53.125252 235.459358 
C 54.139316 235.459358 55.112883 235.056093 55.829935 234.339042 
C 56.546987 233.62199 56.950252 232.648422 56.950252 231.634358 
C 56.950252 230.620294 56.546987 229.646727 55.829935 228.929675 
" clip-path="url(#p05bf5aa4c0)" style="fill: none; stroke: #000000; stroke-width: 2; stroke-linejoin: miter"/>
   </g>
   <g id="patch_5">
    <path d="M 45.011201 239.748409 
C 45.728253 240.46546 46.701821 240.868725 47.715885 240.868725 
C 48.729949 240.868725 49.703517 240.46546 50.420568 239.748409 
C 51.13762 239.031357 51.540885 238.057789 51.540885 237.043725 
C 51.540885 236.029661 51.13762 235.056093 50.420568 234.339042 
" clip-path="url(#p05bf5aa4c0)" style="fill: none; stroke: #000000; stroke-width: 2; stroke-linejoin: miter"/>
   </g>
   <g id="line2d_1">
    <path d="M 99.10487 185.65474 
L 66.648669 218.110941 
M 45.011201 239.748409 
L 12.555 272.20461 
" clip-path="url(#p05bf5aa4c0)" style="fill: none; stroke: #000000; stroke-width: 2; stroke-linecap: round"/>
   </g>
   <g id="line2d_2">
    <path d="M 99.10487 185.65474 
L 142.379805 142.379805 
M 131.561071 142.379805 
L 153.198539 142.379805 
M 142.379805 131.561071 
L 142.379805 153.198539 
M 142.379805 142.379805 
L 185.65474 99.10487 
" clip-path="url(#p05bf5aa4c0)" style="fill: none; stroke: #000000; stroke-width: 2; stroke-linecap: round"/>
   </g>
   <g id="line2d_3">
    <path d="M 272.20461 12.555 
L 250.567143 34.192468 
" clip-path="url(#p05bf5aa4c0)" style="fill: none; stroke: #000000; stroke-width: 2; stroke-linecap: round"/>
   </g>
   <g id="line2d_4">
    <path d="M 185.65474 99.10487 
L 207.292208 77.467403 
" clip-path="url(#p05bf5aa4c0)" style="fill: none; stroke: #000000; stroke-width: 2; stroke-linecap: round"/>
   </g>
   <g id="line2d_5">
    <path d="M 259.22213 42.847455 
L 241.912156 25.537481 
" clip-path="url(#p05bf5aa4c0)" style="fill: none; stroke: #000000; stroke-width: 2; stroke-linecap: round"/>
   </g>
   <g id="line2d_6">
    <path d="M 215.947195 86.12239 
L 198.637221 68.812416 
" clip-path="url(#p05bf5aa4c0)" style="fill: none; stroke: #000000; stroke-width: 2; stroke-linecap: round"/>
   </g>
   <g id="line2d_7">
    <path d="M 259.22213 42.847455 
L 239.532034 62.53755 
M 244.941401 67.946917 
L 234.122667 57.128183 
M 241.046657 71.841661 
L 230.227923 61.022927 
M 235.63729 66.432294 
L 215.947195 86.12239 
" clip-path="url(#p05bf5aa4c0)" style="fill: none; stroke: #000000; stroke-width: 2; stroke-linecap: round"/>
   </g>
   <g id="line2d_8">
    <path d="M 241.912156 25.537481 
L 220.274688 47.174948 
M 231.093422 47.174948 
L 209.455954 47.174948 
M 220.274688 57.993682 
L 220.274688 36.356214 
M 220.274688 47.174948 
L 198.637221 68.812416 
" clip-path="url(#p05bf5aa4c0)" style="fill: none; stroke: #000000; stroke-width: 2; stroke-linecap: round"/>
   </g>
   <g id="patch_6">
    <path d="M 99.10487 187.94974 
C 99.713511 187.94974 100.297306 187.707924 100.72768 187.27755 
C 101.158054 186.847176 101.39987 186.263381 101.39987 185.65474 
C 101.39987 185.046099 101.158054 184.462304 100.72768 184.03193 
C 100.297306 183.601556 99.713511 183.35974 99.10487 183.35974 
C 98.496229 183.35974 97.912434 183.601556 97.48206 184.03193 
C 97.051686 184.462304 96.80987 185.046099 96.80987 185.65474 
C 96.80987 186.263381 97.051686 186.847176 97.48206 187.27755 
C 97.912434 187.707924 98.496229 187.94974 99.10487 187.94974 
z
" clip-path="url(#p05bf5aa4c0)" style="stroke: #000000; stroke-width: 2; stroke-linejoin: miter"/>
   </g>
   <g id="patch_7">
    <path d="M 12.555 274.49961 
C 13.163641 274.49961 13.747436 274.257794 14.17781 273.82742 
C 14.608184 273.397046 14.85 272.813251 14.85 272.20461 
C 14.85 271.595969 14.608184 271.012174 14.17781 270.5818 
C 13.747436 270.151426 13.163641 269.90961 12.555 269.90961 
C 11.946359 269.90961 11.362564 270.151426 10.93219 270.5818 
C 10.501816 271.012174 10.26 271.595969 10.26 272.20461 
C 10.26 272.813251 10.501816 273.397046 10.93219 273.82742 
C 11.362564 274.257794 11.946359 274.49961 12.555 274.49961 
z
" clip-path="url(#p05bf5aa4c0)" style="stroke: #000000; stroke-width: 2; stroke-linejoin: miter"/>
   </g>
   <g id="patch_8">
    <path d="M 185.65474 101.39987 
C 186.263381 101.39987 186.847176 101.158054 187.27755 100.72768 
C 187.707924 100.297306 187.94974 99.713511 187.94974 99.10487 
C 187.94974 98.496229 187.707924 97.912434 187.27755 97.48206 
C 186.847176 97.051686 186.263381 96.80987 185.65474 96.80987 
C 185.046099 96.80987 184.462304 97.051686 184.03193 97.48206 
C 183.601556 97.912434 183.35974 98.496229 183.35974 99.10487 
C 183.35974 99.713511 183.601556 100.297306 184.03193 100.72768 
C 184.462304 101.158054 185.046099 101.39987 185.65474 101.39987 
z
" clip-path="url(#p05bf5aa4c0)" style="stroke: #000000; stroke-width: 2; stroke-linejoin: miter"/>
   </g>
   <g id="patch_9">
    <path d="M 272.20461 14.85 
C 272.813251 14.85 273.397046 14.608184 273.82742 14.17781 
C 274.257794 13.747436 274.49961 13.163641 274.49961 12.555 
C 274.49961 11.946359 274.257794 11.362564 273.82742 10.93219 
C 273.397046 10.501816 272.813251 10.26 272.20461 10.26 
C 271.595969 10.26 271.012174 10.501816 270.5818 10.93219 
C 270.151426 11.362564 269.90961 11.946359 269.90961 12.555 
C 269.90961 13.163641 270.151426 13.747436 270.5818 14.17781 
C 271.012174 14.608184 271.595969 14.85 272.20461 14.85 
z
" clip-path="url(#p05bf5aa4c0)" style="stroke: #000000; stroke-width: 2; stroke-linejoin: miter"/>
   </g>
  </g>
 </g>
 <defs>
  <clipPath id="p05bf5aa4c0">
   <rect x="7.2" y="7.2" width="270.35961" height="270.35961"/>
  </clipPath>
 </defs>
</svg>
