<?xml version="1.0" encoding="utf-8" standalone="no"?>
<!DOCTYPE svg PUBLIC "-//W3C//DTD SVG 1.1//EN"
  "http://www.w3.org/Graphics/SVG/1.1/DTD/svg11.dtd">
<svg xmlns:xlink="http://www.w3.org/1999/xlink" width="284.75961pt" height="284.75961pt" viewBox="0 0 284.75961 284.75961" xmlns="http://www.w3.org/2000/svg" version="1.1">
 <metadata>
  <rdf:RDF xmlns:dc="http://purl.org/dc/elements/1.1/" xmlns:cc="http://creativecommons.org/ns#" xmlns:rdf="http://www.w3.org/1999/02/22-rdf-syntax-ns#">
   <cc:Work>
    <dc:type rdf:resource="http://purl.org/dc/dcmitype/StillImage"/>
    <dc:date>2023-03-23T14:46:31.074430</dc:date>
    <dc:format>image/svg+xml</dc:format>
    <dc:creator>
     <cc:Agent>
      <dc:title>Matplotlib v3.5.2, https://matplotlib.org/</dc:title>
     </cc:Agent>
    </dc:creator>
   </cc:Work>
  </rdf:RDF>
 </metadata>
 <defs>
  <style type="text/css">*{stroke-linejoin: round; stroke-linecap: butt}</style>
 </defs>
 <g id="figure_1">
  <g id="patch_1">
   <path d="M 0 284.75961 
L 284.75961 284.75961 
L 284.75961 0 
L 0 0 
L 0 284.75961 
z
" style="fill: none"/>
  </g>
  <g id="axes_1">
   <g id="patch_2">
    <path d="M 52.584315 214.865321 
C 53.301366 215.582373 54.274934 215.985638 55.288998 215.985638 
C 56.303062 215.985638 57.27663 215.582373 57.993682 214.865321 
C 58.710733 214.14827 59.113998 213.174702 59.113998 212.160638 
C 59.113998 211.146574 58.710733 210.173006 57.993682 209.455954 
" clip-path="url(#pf74f00245a)" style="fill: none; stroke: #000000; stroke-width: 2; stroke-linejoin: miter"/>
   </g>
   <g id="patch_3">
    <path d="M 47.174948 220.274688 
C 47.892 220.99174 48.865567 221.395005 49.879631 221.395005 
C 50.893695 221.395005 51.867263 220.99174 52.584315 220.274688 
C 53.301366 219.557637 53.704631 218.584069 53.704631 217.570005 
C 53.704631 216.555941 53.301366 215.582373 52.584315 214.865321 
" clip-path="url(#pf74f00245a)" style="fill: none; stroke: #000000; stroke-width: 2; stroke-linejoin: miter"/>
   </g>
   <g id="patch_4">
    <path d="M 41.765581 225.684055 
C 42.482633 226.401106 43.456201 226.804371 44.470265 226.804371 
C 45.484329 226.804371 46.457896 226.401106 47.174948 225.684055 
C 47.892 224.967003 48.295265 223.993435 48.295265 222.979371 
C 48.295265 221.965307 47.892 220.99174 47.174948 220.274688 
" clip-path="url(#pf74f00245a)" style="fill: none; stroke: #000000; stroke-width: 2; stroke-linejoin: miter"/>
   </g>
   <g id="patch_5">
    <path d="M 36.356214 231.093422 
C 37.073266 231.810473 38.046834 232.213738 39.060898 232.213738 
C 40.074962 232.213738 41.04853 231.810473 41.765581 231.093422 
C 42.482633 230.37637 42.885898 229.402802 42.885898 228.388738 
C 42.885898 227.374674 42.482633 226.401106 41.765581 225.684055 
" clip-path="url(#pf74f00245a)" style="fill: none; stroke: #000000; stroke-width: 2; stroke-linejoin: miter"/>
   </g>
   <g id="patch_6">
    <path d="M 222.799059 38.880585 
C 223.516111 39.597637 224.489679 40.000902 225.503743 40.000902 
C 226.517807 40.000902 227.491375 39.597637 228.208426 38.880585 
C 228.925478 38.163534 229.328743 37.189966 229.328743 36.175902 
C 229.328743 35.161838 228.925478 34.18827 228.208426 33.471219 
" clip-path="url(#pf74f00245a)" style="fill: none; stroke: #000000; stroke-width: 2; stroke-linejoin: miter"/>
   </g>
   <g id="patch_7">
    <path d="M 217.389692 44.289952 
C 218.106744 45.007004 219.080312 45.410269 220.094376 45.410269 
C 221.10844 45.410269 222.082008 45.007004 222.799059 44.289952 
C 223.516111 43.572901 223.919376 42.599333 223.919376 41.585269 
C 223.919376 40.571205 223.516111 39.597637 222.799059 38.880585 
" clip-path="url(#pf74f00245a)" style="fill: none; stroke: #000000; stroke-width: 2; stroke-linejoin: miter"/>
   </g>
   <g id="patch_8">
    <path d="M 211.980325 49.699319 
C 212.697377 50.416371 213.670945 50.819636 214.685009 50.819636 
C 215.699073 50.819636 216.672641 50.416371 217.389692 49.699319 
C 218.106744 48.982268 218.510009 48.0087 218.510009 46.994636 
C 218.510009 45.980572 218.106744 45.007004 217.389692 44.289952 
" clip-path="url(#pf74f00245a)" style="fill: none; stroke: #000000; stroke-width: 2; stroke-linejoin: miter"/>
   </g>
   <g id="patch_9">
    <path d="M 206.570959 55.108686 
C 207.28801 55.825738 208.261578 56.229003 209.275642 56.229003 
C 210.289706 56.229003 211.263274 55.825738 211.980325 55.108686 
C 212.697377 54.391635 213.100642 53.418067 213.100642 52.404003 
C 213.100642 51.389939 212.697377 50.416371 211.980325 49.699319 
" clip-path="url(#pf74f00245a)" style="fill: none; stroke: #000000; stroke-width: 2; stroke-linejoin: miter"/>
   </g>
   <g id="line2d_1">
    <path d="M 99.10487 185.65474 
L 77.467403 207.292208 
" clip-path="url(#pf74f00245a)" style="fill: none; stroke: #000000; stroke-width: 2; stroke-linecap: round"/>
   </g>
   <g id="line2d_2">
    <path d="M 12.555 272.20461 
L 34.192468 250.567143 
" clip-path="url(#pf74f00245a)" style="fill: none; stroke: #000000; stroke-width: 2; stroke-linecap: round"/>
   </g>
   <g id="line2d_3">
    <path d="M 86.12239 215.947195 
L 68.812416 198.637221 
" clip-path="url(#pf74f00245a)" style="fill: none; stroke: #000000; stroke-width: 2; stroke-linecap: round"/>
   </g>
   <g id="line2d_4">
    <path d="M 42.847455 259.22213 
L 25.537481 241.912156 
" clip-path="url(#pf74f00245a)" style="fill: none; stroke: #000000; stroke-width: 2; stroke-linecap: round"/>
   </g>
   <g id="line2d_5">
    <path d="M 86.12239 215.947195 
L 66.432294 235.63729 
M 71.841661 241.046657 
L 61.022927 230.227923 
M 67.946917 244.941401 
L 57.128183 234.122667 
M 62.53755 239.532034 
L 42.847455 259.22213 
" clip-path="url(#pf74f00245a)" style="fill: none; stroke: #000000; stroke-width: 2; stroke-linecap: round"/>
   </g>
   <g id="line2d_6">
    <path d="M 68.812416 198.637221 
L 57.993682 209.455954 
M 36.356214 231.093422 
L 25.537481 241.912156 
" clip-path="url(#pf74f00245a)" style="fill: none; stroke: #000000; stroke-width: 2; stroke-linecap: round"/>
   </g>
   <g id="line2d_7">
    <path d="M 99.10487 185.65474 
L 140.432433 144.327177 
M 135.023066 138.91781 
L 145.8418 149.736544 
M 138.91781 135.023066 
L 149.736544 145.8418 
M 144.327177 140.432433 
L 185.65474 99.10487 
" clip-path="url(#pf74f00245a)" style="fill: none; stroke: #000000; stroke-width: 2; stroke-linecap: round"/>
   </g>
   <g id="line2d_8">
    <path d="M 272.20461 12.555 
L 250.567143 34.192468 
" clip-path="url(#pf74f00245a)" style="fill: none; stroke: #000000; stroke-width: 2; stroke-linecap: round"/>
   </g>
   <g id="line2d_9">
    <path d="M 185.65474 99.10487 
L 207.292208 77.467403 
" clip-path="url(#pf74f00245a)" style="fill: none; stroke: #000000; stroke-width: 2; stroke-linecap: round"/>
   </g>
   <g id="line2d_10">
    <path d="M 262.107125 45.73245 
L 239.02716 22.652485 
" clip-path="url(#pf74f00245a)" style="fill: none; stroke: #000000; stroke-width: 2; stroke-linecap: round"/>
   </g>
   <g id="line2d_11">
    <path d="M 218.83219 89.007385 
L 195.752225 65.92742 
" clip-path="url(#pf74f00245a)" style="fill: none; stroke: #000000; stroke-width: 2; stroke-linecap: round"/>
   </g>
   <g id="line2d_12">
    <path d="M 250.567143 34.192468 
L 230.877047 53.882563 
M 236.286414 59.29193 
L 225.46768 48.473196 
M 232.39167 63.186674 
L 221.572936 52.36794 
M 226.982303 57.777307 
L 207.292208 77.467403 
" clip-path="url(#pf74f00245a)" style="fill: none; stroke: #000000; stroke-width: 2; stroke-linecap: round"/>
   </g>
   <g id="line2d_13">
    <path d="M 262.107125 45.73245 
L 240.469658 67.369918 
M 251.288391 67.369918 
L 229.650924 67.369918 
M 240.469658 78.188651 
L 240.469658 56.551184 
M 240.469658 67.369918 
L 218.83219 89.007385 
" clip-path="url(#pf74f00245a)" style="fill: none; stroke: #000000; stroke-width: 2; stroke-linecap: round"/>
   </g>
   <g id="line2d_14">
    <path d="M 239.02716 22.652485 
L 228.208426 33.471219 
M 206.570959 55.108686 
L 195.752225 65.92742 
" clip-path="url(#pf74f00245a)" style="fill: none; stroke: #000000; stroke-width: 2; stroke-linecap: round"/>
   </g>
   <g id="patch_10">
    <path d="M 99.10487 187.94974 
C 99.713511 187.94974 100.297306 187.707924 100.72768 187.27755 
C 101.158054 186.847176 101.39987 186.263381 101.39987 185.65474 
C 101.39987 185.046099 101.158054 184.462304 100.72768 184.03193 
C 100.297306 183.601556 99.713511 183.35974 99.10487 183.35974 
C 98.496229 183.35974 97.912434 183.601556 97.48206 184.03193 
C 97.051686 184.462304 96.80987 185.046099 96.80987 185.65474 
C 96.80987 186.263381 97.051686 186.847176 97.48206 187.27755 
C 97.912434 187.707924 98.496229 187.94974 99.10487 187.94974 
z
" clip-path="url(#pf74f00245a)" style="stroke: #000000; stroke-width: 2; stroke-linejoin: miter"/>
   </g>
   <g id="patch_11">
    <path d="M 12.555 274.49961 
C 13.163641 274.49961 13.747436 274.257794 14.17781 273.82742 
C 14.608184 273.397046 14.85 272.813251 14.85 272.20461 
C 14.85 271.595969 14.608184 271.012174 14.17781 270.5818 
C 13.747436 270.151426 13.163641 269.90961 12.555 269.90961 
C 11.946359 269.90961 11.362564 270.151426 10.93219 270.5818 
C 10.501816 271.012174 10.26 271.595969 10.26 272.20461 
C 10.26 272.813251 10.501816 273.397046 10.93219 273.82742 
C 11.362564 274.257794 11.946359 274.49961 12.555 274.49961 
z
" clip-path="url(#pf74f00245a)" style="stroke: #000000; stroke-width: 2; stroke-linejoin: miter"/>
   </g>
   <g id="patch_12">
    <path d="M 185.65474 101.39987 
C 186.263381 101.39987 186.847176 101.158054 187.27755 100.72768 
C 187.707924 100.297306 187.94974 99.713511 187.94974 99.10487 
C 187.94974 98.496229 187.707924 97.912434 187.27755 97.48206 
C 186.847176 97.051686 186.263381 96.80987 185.65474 96.80987 
C 185.046099 96.80987 184.462304 97.051686 184.03193 97.48206 
C 183.601556 97.912434 183.35974 98.496229 183.35974 99.10487 
C 183.35974 99.713511 183.601556 100.297306 184.03193 100.72768 
C 184.462304 101.158054 185.046099 101.39987 185.65474 101.39987 
z
" clip-path="url(#pf74f00245a)" style="stroke: #000000; stroke-width: 2; stroke-linejoin: miter"/>
   </g>
   <g id="patch_13">
    <path d="M 272.20461 14.85 
C 272.813251 14.85 273.397046 14.608184 273.82742 14.17781 
C 274.257794 13.747436 274.49961 13.163641 274.49961 12.555 
C 274.49961 11.946359 274.257794 11.362564 273.82742 10.93219 
C 273.397046 10.501816 272.813251 10.26 272.20461 10.26 
C 271.595969 10.26 271.012174 10.501816 270.5818 10.93219 
C 270.151426 11.362564 269.90961 11.946359 269.90961 12.555 
C 269.90961 13.163641 270.151426 13.747436 270.5818 14.17781 
C 271.012174 14.608184 271.595969 14.85 272.20461 14.85 
z
" clip-path="url(#pf74f00245a)" style="stroke: #000000; stroke-width: 2; stroke-linejoin: miter"/>
   </g>
  </g>
 </g>
 <defs>
  <clipPath id="pf74f00245a">
   <rect x="7.2" y="7.2" width="270.35961" height="270.35961"/>
  </clipPath>
 </defs>
</svg>
