<?xml version="1.0" encoding="utf-8" standalone="no"?>
<!DOCTYPE svg PUBLIC "-//W3C//DTD SVG 1.1//EN"
  "http://www.w3.org/Graphics/SVG/1.1/DTD/svg11.dtd">
<svg xmlns:xlink="http://www.w3.org/1999/xlink" width="284.75961pt" height="284.75961pt" viewBox="0 0 284.75961 284.75961" xmlns="http://www.w3.org/2000/svg" version="1.1">
 <metadata>
  <rdf:RDF xmlns:dc="http://purl.org/dc/elements/1.1/" xmlns:cc="http://creativecommons.org/ns#" xmlns:rdf="http://www.w3.org/1999/02/22-rdf-syntax-ns#">
   <cc:Work>
    <dc:type rdf:resource="http://purl.org/dc/dcmitype/StillImage"/>
    <dc:date>2023-03-23T14:44:23.619488</dc:date>
    <dc:format>image/svg+xml</dc:format>
    <dc:creator>
     <cc:Agent>
      <dc:title>Matplotlib v3.5.2, https://matplotlib.org/</dc:title>
     </cc:Agent>
    </dc:creator>
   </cc:Work>
  </rdf:RDF>
 </metadata>
 <defs>
  <style type="text/css">*{stroke-linejoin: round; stroke-linecap: butt}</style>
 </defs>
 <g id="figure_1">
  <g id="patch_1">
   <path d="M 0 284.75961 
L 284.75961 284.75961 
L 284.75961 0 
L 0 0 
L 0 284.75961 
z
" style="fill: none"/>
  </g>
  <g id="axes_1">
   <g id="patch_2">
    <path d="M 61.239302 223.520308 
C 61.956353 224.23736 62.929921 224.640625 63.943985 224.640625 
C 64.958049 224.640625 65.931617 224.23736 66.648669 223.520308 
C 67.36572 222.803257 67.768985 221.829689 67.768985 220.815625 
C 67.768985 219.801561 67.36572 218.827993 66.648669 218.110941 
" clip-path="url(#p656d78ff88)" style="fill: none; stroke: #000000; stroke-width: 2; stroke-linejoin: miter"/>
   </g>
   <g id="patch_3">
    <path d="M 55.829935 228.929675 
C 56.546987 229.646727 57.520554 230.049992 58.534618 230.049992 
C 59.548682 230.049992 60.52225 229.646727 61.239302 228.929675 
C 61.956353 228.212624 62.359618 227.239056 62.359618 226.224992 
C 62.359618 225.210928 61.956353 224.23736 61.239302 223.520308 
" clip-path="url(#p656d78ff88)" style="fill: none; stroke: #000000; stroke-width: 2; stroke-linejoin: miter"/>
   </g>
   <g id="patch_4">
    <path d="M 50.420568 234.339042 
C 51.13762 235.056093 52.111188 235.459358 53.125252 235.459358 
C 54.139316 235.459358 55.112883 235.056093 55.829935 234.339042 
C 56.546987 233.62199 56.950252 232.648422 56.950252 231.634358 
C 56.950252 230.620294 56.546987 229.646727 55.829935 228.929675 
" clip-path="url(#p656d78ff88)" style="fill: none; stroke: #000000; stroke-width: 2; stroke-linejoin: miter"/>
   </g>
   <g id="patch_5">
    <path d="M 45.011201 239.748409 
C 45.728253 240.46546 46.701821 240.868725 47.715885 240.868725 
C 48.729949 240.868725 49.703517 240.46546 50.420568 239.748409 
C 51.13762 239.031357 51.540885 238.057789 51.540885 237.043725 
C 51.540885 236.029661 51.13762 235.056093 50.420568 234.339042 
" clip-path="url(#p656d78ff88)" style="fill: none; stroke: #000000; stroke-width: 2; stroke-linejoin: miter"/>
   </g>
   <g id="patch_6">
    <path d="M 145.625425 156.444159 
C 144.908374 155.727107 143.934806 155.323842 142.920742 155.323842 
C 141.906678 155.323842 140.93311 155.727107 140.216058 156.444159 
C 139.499007 157.16121 139.095742 158.134778 139.095742 159.148842 
C 139.095742 160.162906 139.499007 161.136474 140.216058 161.853526 
" clip-path="url(#p656d78ff88)" style="fill: none; stroke: #000000; stroke-width: 2; stroke-linejoin: miter"/>
   </g>
   <g id="patch_7">
    <path d="M 151.034792 151.034792 
C 150.31774 150.31774 149.344173 149.914475 148.330109 149.914475 
C 147.316045 149.914475 146.342477 150.31774 145.625425 151.034792 
C 144.908374 151.751844 144.505109 152.725411 144.505109 153.739475 
C 144.505109 154.753539 144.908374 155.727107 145.625425 156.444159 
" clip-path="url(#p656d78ff88)" style="fill: none; stroke: #000000; stroke-width: 2; stroke-linejoin: miter"/>
   </g>
   <g id="patch_8">
    <path d="M 156.444159 145.625425 
C 155.727107 144.908374 154.753539 144.505109 153.739475 144.505109 
C 152.725411 144.505109 151.751844 144.908374 151.034792 145.625425 
C 150.31774 146.342477 149.914475 147.316045 149.914475 148.330109 
C 149.914475 149.344173 150.31774 150.31774 151.034792 151.034792 
" clip-path="url(#p656d78ff88)" style="fill: none; stroke: #000000; stroke-width: 2; stroke-linejoin: miter"/>
   </g>
   <g id="patch_9">
    <path d="M 161.853526 140.216058 
C 161.136474 139.499007 160.162906 139.095742 159.148842 139.095742 
C 158.134778 139.095742 157.16121 139.499007 156.444159 140.216058 
C 155.727107 140.93311 155.323842 141.906678 155.323842 142.920742 
C 155.323842 143.934806 155.727107 144.908374 156.444159 145.625425 
" clip-path="url(#p656d78ff88)" style="fill: none; stroke: #000000; stroke-width: 2; stroke-linejoin: miter"/>
   </g>
   <g id="patch_10">
    <path d="M 225.684055 41.765581 
C 226.401106 42.482633 227.374674 42.885898 228.388738 42.885898 
C 229.402802 42.885898 230.37637 42.482633 231.093422 41.765581 
C 231.810473 41.04853 232.213738 40.074962 232.213738 39.060898 
C 232.213738 38.046834 231.810473 37.073266 231.093422 36.356214 
" clip-path="url(#p656d78ff88)" style="fill: none; stroke: #000000; stroke-width: 2; stroke-linejoin: miter"/>
   </g>
   <g id="patch_11">
    <path d="M 220.274688 47.174948 
C 220.99174 47.892 221.965307 48.295265 222.979371 48.295265 
C 223.993435 48.295265 224.967003 47.892 225.684055 47.174948 
C 226.401106 46.457896 226.804371 45.484329 226.804371 44.470265 
C 226.804371 43.456201 226.401106 42.482633 225.684055 41.765581 
" clip-path="url(#p656d78ff88)" style="fill: none; stroke: #000000; stroke-width: 2; stroke-linejoin: miter"/>
   </g>
   <g id="patch_12">
    <path d="M 214.865321 52.584315 
C 215.582373 53.301366 216.555941 53.704631 217.570005 53.704631 
C 218.584069 53.704631 219.557637 53.301366 220.274688 52.584315 
C 220.99174 51.867263 221.395005 50.893695 221.395005 49.879631 
C 221.395005 48.865567 220.99174 47.892 220.274688 47.174948 
" clip-path="url(#p656d78ff88)" style="fill: none; stroke: #000000; stroke-width: 2; stroke-linejoin: miter"/>
   </g>
   <g id="patch_13">
    <path d="M 209.455954 57.993682 
C 210.173006 58.710733 211.146574 59.113998 212.160638 59.113998 
C 213.174702 59.113998 214.14827 58.710733 214.865321 57.993682 
C 215.582373 57.27663 215.985638 56.303062 215.985638 55.288998 
C 215.985638 54.274934 215.582373 53.301366 214.865321 52.584315 
" clip-path="url(#p656d78ff88)" style="fill: none; stroke: #000000; stroke-width: 2; stroke-linejoin: miter"/>
   </g>
   <g id="line2d_1">
    <path d="M 99.10487 185.65474 
L 66.648669 218.110941 
M 45.011201 239.748409 
L 12.555 272.20461 
" clip-path="url(#p656d78ff88)" style="fill: none; stroke: #000000; stroke-width: 2; stroke-linecap: round"/>
   </g>
   <g id="line2d_2">
    <path d="M 99.10487 185.65474 
L 120.742338 164.017273 
" clip-path="url(#p656d78ff88)" style="fill: none; stroke: #000000; stroke-width: 2; stroke-linecap: round"/>
   </g>
   <g id="line2d_3">
    <path d="M 185.65474 99.10487 
L 164.017273 120.742338 
" clip-path="url(#p656d78ff88)" style="fill: none; stroke: #000000; stroke-width: 2; stroke-linecap: round"/>
   </g>
   <g id="line2d_4">
    <path d="M 112.087351 155.362286 
L 129.397325 172.67226 
" clip-path="url(#p656d78ff88)" style="fill: none; stroke: #000000; stroke-width: 2; stroke-linecap: round"/>
   </g>
   <g id="line2d_5">
    <path d="M 155.362286 112.087351 
L 172.67226 129.397325 
" clip-path="url(#p656d78ff88)" style="fill: none; stroke: #000000; stroke-width: 2; stroke-linecap: round"/>
   </g>
   <g id="line2d_6">
    <path d="M 112.087351 155.362286 
L 133.724818 133.724818 
M 122.906084 133.724818 
L 144.543552 133.724818 
M 133.724818 122.906084 
L 133.724818 144.543552 
M 133.724818 133.724818 
L 155.362286 112.087351 
" clip-path="url(#p656d78ff88)" style="fill: none; stroke: #000000; stroke-width: 2; stroke-linecap: round"/>
   </g>
   <g id="line2d_7">
    <path d="M 129.397325 172.67226 
L 140.216058 161.853526 
M 161.853526 140.216058 
L 172.67226 129.397325 
" clip-path="url(#p656d78ff88)" style="fill: none; stroke: #000000; stroke-width: 2; stroke-linecap: round"/>
   </g>
   <g id="line2d_8">
    <path d="M 272.20461 12.555 
L 250.567143 34.192468 
" clip-path="url(#p656d78ff88)" style="fill: none; stroke: #000000; stroke-width: 2; stroke-linecap: round"/>
   </g>
   <g id="line2d_9">
    <path d="M 185.65474 99.10487 
L 207.292208 77.467403 
" clip-path="url(#p656d78ff88)" style="fill: none; stroke: #000000; stroke-width: 2; stroke-linecap: round"/>
   </g>
   <g id="line2d_10">
    <path d="M 259.22213 42.847455 
L 241.912156 25.537481 
" clip-path="url(#p656d78ff88)" style="fill: none; stroke: #000000; stroke-width: 2; stroke-linecap: round"/>
   </g>
   <g id="line2d_11">
    <path d="M 215.947195 86.12239 
L 198.637221 68.812416 
" clip-path="url(#p656d78ff88)" style="fill: none; stroke: #000000; stroke-width: 2; stroke-linecap: round"/>
   </g>
   <g id="line2d_12">
    <path d="M 259.22213 42.847455 
L 237.584662 64.484922 
M 248.403396 64.484922 
L 226.765928 64.484922 
M 237.584662 75.303656 
L 237.584662 53.666188 
M 237.584662 64.484922 
L 215.947195 86.12239 
" clip-path="url(#p656d78ff88)" style="fill: none; stroke: #000000; stroke-width: 2; stroke-linecap: round"/>
   </g>
   <g id="line2d_13">
    <path d="M 241.912156 25.537481 
L 231.093422 36.356214 
M 209.455954 57.993682 
L 198.637221 68.812416 
" clip-path="url(#p656d78ff88)" style="fill: none; stroke: #000000; stroke-width: 2; stroke-linecap: round"/>
   </g>
   <g id="patch_14">
    <path d="M 99.10487 187.94974 
C 99.713511 187.94974 100.297306 187.707924 100.72768 187.27755 
C 101.158054 186.847176 101.39987 186.263381 101.39987 185.65474 
C 101.39987 185.046099 101.158054 184.462304 100.72768 184.03193 
C 100.297306 183.601556 99.713511 183.35974 99.10487 183.35974 
C 98.496229 183.35974 97.912434 183.601556 97.48206 184.03193 
C 97.051686 184.462304 96.80987 185.046099 96.80987 185.65474 
C 96.80987 186.263381 97.051686 186.847176 97.48206 187.27755 
C 97.912434 187.707924 98.496229 187.94974 99.10487 187.94974 
z
" clip-path="url(#p656d78ff88)" style="stroke: #000000; stroke-width: 2; stroke-linejoin: miter"/>
   </g>
   <g id="patch_15">
    <path d="M 12.555 274.49961 
C 13.163641 274.49961 13.747436 274.257794 14.17781 273.82742 
C 14.608184 273.397046 14.85 272.813251 14.85 272.20461 
C 14.85 271.595969 14.608184 271.012174 14.17781 270.5818 
C 13.747436 270.151426 13.163641 269.90961 12.555 269.90961 
C 11.946359 269.90961 11.362564 270.151426 10.93219 270.5818 
C 10.501816 271.012174 10.26 271.595969 10.26 272.20461 
C 10.26 272.813251 10.501816 273.397046 10.93219 273.82742 
C 11.362564 274.257794 11.946359 274.49961 12.555 274.49961 
z
" clip-path="url(#p656d78ff88)" style="stroke: #000000; stroke-width: 2; stroke-linejoin: miter"/>
   </g>
   <g id="patch_16">
    <path d="M 185.65474 101.39987 
C 186.263381 101.39987 186.847176 101.158054 187.27755 100.72768 
C 187.707924 100.297306 187.94974 99.713511 187.94974 99.10487 
C 187.94974 98.496229 187.707924 97.912434 187.27755 97.48206 
C 186.847176 97.051686 186.263381 96.80987 185.65474 96.80987 
C 185.046099 96.80987 184.462304 97.051686 184.03193 97.48206 
C 183.601556 97.912434 183.35974 98.496229 183.35974 99.10487 
C 183.35974 99.713511 183.601556 100.297306 184.03193 100.72768 
C 184.462304 101.158054 185.046099 101.39987 185.65474 101.39987 
z
" clip-path="url(#p656d78ff88)" style="stroke: #000000; stroke-width: 2; stroke-linejoin: miter"/>
   </g>
   <g id="patch_17">
    <path d="M 272.20461 14.85 
C 272.813251 14.85 273.397046 14.608184 273.82742 14.17781 
C 274.257794 13.747436 274.49961 13.163641 274.49961 12.555 
C 274.49961 11.946359 274.257794 11.362564 273.82742 10.93219 
C 273.397046 10.501816 272.813251 10.26 272.20461 10.26 
C 271.595969 10.26 271.012174 10.501816 270.5818 10.93219 
C 270.151426 11.362564 269.90961 11.946359 269.90961 12.555 
C 269.90961 13.163641 270.151426 13.747436 270.5818 14.17781 
C 271.012174 14.608184 271.595969 14.85 272.20461 14.85 
z
" clip-path="url(#p656d78ff88)" style="stroke: #000000; stroke-width: 2; stroke-linejoin: miter"/>
   </g>
  </g>
 </g>
 <defs>
  <clipPath id="p656d78ff88">
   <rect x="7.2" y="7.2" width="270.35961" height="270.35961"/>
  </clipPath>
 </defs>
</svg>
