<?xml version="1.0" encoding="utf-8" standalone="no"?>
<!DOCTYPE svg PUBLIC "-//W3C//DTD SVG 1.1//EN"
  "http://www.w3.org/Graphics/SVG/1.1/DTD/svg11.dtd">
<svg xmlns:xlink="http://www.w3.org/1999/xlink" width="284.75961pt" height="284.75961pt" viewBox="0 0 284.75961 284.75961" xmlns="http://www.w3.org/2000/svg" version="1.1">
 <metadata>
  <rdf:RDF xmlns:dc="http://purl.org/dc/elements/1.1/" xmlns:cc="http://creativecommons.org/ns#" xmlns:rdf="http://www.w3.org/1999/02/22-rdf-syntax-ns#">
   <cc:Work>
    <dc:type rdf:resource="http://purl.org/dc/dcmitype/StillImage"/>
    <dc:date>2023-03-23T14:45:52.581513</dc:date>
    <dc:format>image/svg+xml</dc:format>
    <dc:creator>
     <cc:Agent>
      <dc:title>Matplotlib v3.5.2, https://matplotlib.org/</dc:title>
     </cc:Agent>
    </dc:creator>
   </cc:Work>
  </rdf:RDF>
 </metadata>
 <defs>
  <style type="text/css">*{stroke-linejoin: round; stroke-linecap: butt}</style>
 </defs>
 <g id="figure_1">
  <g id="patch_1">
   <path d="M 0 284.75961 
L 284.75961 284.75961 
L 284.75961 0 
L 0 0 
L 0 284.75961 
z
" style="fill: none"/>
  </g>
  <g id="axes_1">
   <g id="patch_2">
    <path d="M 148.510421 159.329155 
C 147.793369 158.612103 146.819801 158.208838 145.805737 158.208838 
C 144.791673 158.208838 143.818105 158.612103 143.101054 159.329155 
C 142.384002 160.046206 141.980737 161.019774 141.980737 162.033838 
C 141.980737 163.047902 142.384002 164.02147 143.101054 164.738521 
" clip-path="url(#p832e60bd26)" style="fill: none; stroke: #000000; stroke-width: 2; stroke-linejoin: miter"/>
   </g>
   <g id="patch_3">
    <path d="M 153.919788 153.919788 
C 153.202736 153.202736 152.229168 152.799471 151.215104 152.799471 
C 150.20104 152.799471 149.227472 153.202736 148.510421 153.919788 
C 147.793369 154.636839 147.390104 155.610407 147.390104 156.624471 
C 147.390104 157.638535 147.793369 158.612103 148.510421 159.329155 
" clip-path="url(#p832e60bd26)" style="fill: none; stroke: #000000; stroke-width: 2; stroke-linejoin: miter"/>
   </g>
   <g id="patch_4">
    <path d="M 159.329155 148.510421 
C 158.612103 147.793369 157.638535 147.390104 156.624471 147.390104 
C 155.610407 147.390104 154.636839 147.793369 153.919788 148.510421 
C 153.202736 149.227472 152.799471 150.20104 152.799471 151.215104 
C 152.799471 152.229168 153.202736 153.202736 153.919788 153.919788 
" clip-path="url(#p832e60bd26)" style="fill: none; stroke: #000000; stroke-width: 2; stroke-linejoin: miter"/>
   </g>
   <g id="patch_5">
    <path d="M 164.738521 143.101054 
C 164.02147 142.384002 163.047902 141.980737 162.033838 141.980737 
C 161.019774 141.980737 160.046206 142.384002 159.329155 143.101054 
C 158.612103 143.818105 158.208838 144.791673 158.208838 145.805737 
C 158.208838 146.819801 158.612103 147.793369 159.329155 148.510421 
" clip-path="url(#p832e60bd26)" style="fill: none; stroke: #000000; stroke-width: 2; stroke-linejoin: miter"/>
   </g>
   <g id="patch_6">
    <path d="M 234.339042 50.420568 
C 235.056093 51.13762 236.029661 51.540885 237.043725 51.540885 
C 238.057789 51.540885 239.031357 51.13762 239.748409 50.420568 
C 240.46546 49.703517 240.868725 48.729949 240.868725 47.715885 
C 240.868725 46.701821 240.46546 45.728253 239.748409 45.011201 
" clip-path="url(#p832e60bd26)" style="fill: none; stroke: #000000; stroke-width: 2; stroke-linejoin: miter"/>
   </g>
   <g id="patch_7">
    <path d="M 228.929675 55.829935 
C 229.646727 56.546987 230.620294 56.950252 231.634358 56.950252 
C 232.648422 56.950252 233.62199 56.546987 234.339042 55.829935 
C 235.056093 55.112883 235.459358 54.139316 235.459358 53.125252 
C 235.459358 52.111188 235.056093 51.13762 234.339042 50.420568 
" clip-path="url(#p832e60bd26)" style="fill: none; stroke: #000000; stroke-width: 2; stroke-linejoin: miter"/>
   </g>
   <g id="patch_8">
    <path d="M 223.520308 61.239302 
C 224.23736 61.956353 225.210928 62.359618 226.224992 62.359618 
C 227.239056 62.359618 228.212624 61.956353 228.929675 61.239302 
C 229.646727 60.52225 230.049992 59.548682 230.049992 58.534618 
C 230.049992 57.520554 229.646727 56.546987 228.929675 55.829935 
" clip-path="url(#p832e60bd26)" style="fill: none; stroke: #000000; stroke-width: 2; stroke-linejoin: miter"/>
   </g>
   <g id="patch_9">
    <path d="M 218.110941 66.648669 
C 218.827993 67.36572 219.801561 67.768985 220.815625 67.768985 
C 221.829689 67.768985 222.803257 67.36572 223.520308 66.648669 
C 224.23736 65.931617 224.640625 64.958049 224.640625 63.943985 
C 224.640625 62.929921 224.23736 61.956353 223.520308 61.239302 
" clip-path="url(#p832e60bd26)" style="fill: none; stroke: #000000; stroke-width: 2; stroke-linejoin: miter"/>
   </g>
   <g id="line2d_1">
    <path d="M 99.10487 185.65474 
L 55.829935 228.929675 
M 66.648669 228.929675 
L 45.011201 228.929675 
M 55.829935 239.748409 
L 55.829935 218.110941 
M 55.829935 228.929675 
L 12.555 272.20461 
" clip-path="url(#p832e60bd26)" style="fill: none; stroke: #000000; stroke-width: 2; stroke-linecap: round"/>
   </g>
   <g id="line2d_2">
    <path d="M 99.10487 185.65474 
L 120.742338 164.017273 
" clip-path="url(#p832e60bd26)" style="fill: none; stroke: #000000; stroke-width: 2; stroke-linecap: round"/>
   </g>
   <g id="line2d_3">
    <path d="M 185.65474 99.10487 
L 164.017273 120.742338 
" clip-path="url(#p832e60bd26)" style="fill: none; stroke: #000000; stroke-width: 2; stroke-linecap: round"/>
   </g>
   <g id="line2d_4">
    <path d="M 109.202355 152.47729 
L 132.28232 175.557255 
" clip-path="url(#p832e60bd26)" style="fill: none; stroke: #000000; stroke-width: 2; stroke-linecap: round"/>
   </g>
   <g id="line2d_5">
    <path d="M 152.47729 109.202355 
L 175.557255 132.28232 
" clip-path="url(#p832e60bd26)" style="fill: none; stroke: #000000; stroke-width: 2; stroke-linecap: round"/>
   </g>
   <g id="line2d_6">
    <path d="M 120.742338 164.017273 
L 140.432433 144.327177 
M 135.023066 138.91781 
L 145.8418 149.736544 
M 138.91781 135.023066 
L 149.736544 145.8418 
M 144.327177 140.432433 
L 164.017273 120.742338 
" clip-path="url(#p832e60bd26)" style="fill: none; stroke: #000000; stroke-width: 2; stroke-linecap: round"/>
   </g>
   <g id="line2d_7">
    <path d="M 109.202355 152.47729 
L 130.839822 130.839822 
M 120.021089 130.839822 
L 141.658556 130.839822 
M 130.839822 120.021089 
L 130.839822 141.658556 
M 130.839822 130.839822 
L 152.47729 109.202355 
" clip-path="url(#p832e60bd26)" style="fill: none; stroke: #000000; stroke-width: 2; stroke-linecap: round"/>
   </g>
   <g id="line2d_8">
    <path d="M 132.28232 175.557255 
L 143.101054 164.738521 
M 164.738521 143.101054 
L 175.557255 132.28232 
" clip-path="url(#p832e60bd26)" style="fill: none; stroke: #000000; stroke-width: 2; stroke-linecap: round"/>
   </g>
   <g id="line2d_9">
    <path d="M 272.20461 12.555 
L 239.748409 45.011201 
M 218.110941 66.648669 
L 185.65474 99.10487 
" clip-path="url(#p832e60bd26)" style="fill: none; stroke: #000000; stroke-width: 2; stroke-linecap: round"/>
   </g>
   <g id="patch_10">
    <path d="M 99.10487 187.94974 
C 99.713511 187.94974 100.297306 187.707924 100.72768 187.27755 
C 101.158054 186.847176 101.39987 186.263381 101.39987 185.65474 
C 101.39987 185.046099 101.158054 184.462304 100.72768 184.03193 
C 100.297306 183.601556 99.713511 183.35974 99.10487 183.35974 
C 98.496229 183.35974 97.912434 183.601556 97.48206 184.03193 
C 97.051686 184.462304 96.80987 185.046099 96.80987 185.65474 
C 96.80987 186.263381 97.051686 186.847176 97.48206 187.27755 
C 97.912434 187.707924 98.496229 187.94974 99.10487 187.94974 
z
" clip-path="url(#p832e60bd26)" style="stroke: #000000; stroke-width: 2; stroke-linejoin: miter"/>
   </g>
   <g id="patch_11">
    <path d="M 12.555 274.49961 
C 13.163641 274.49961 13.747436 274.257794 14.17781 273.82742 
C 14.608184 273.397046 14.85 272.813251 14.85 272.20461 
C 14.85 271.595969 14.608184 271.012174 14.17781 270.5818 
C 13.747436 270.151426 13.163641 269.90961 12.555 269.90961 
C 11.946359 269.90961 11.362564 270.151426 10.93219 270.5818 
C 10.501816 271.012174 10.26 271.595969 10.26 272.20461 
C 10.26 272.813251 10.501816 273.397046 10.93219 273.82742 
C 11.362564 274.257794 11.946359 274.49961 12.555 274.49961 
z
" clip-path="url(#p832e60bd26)" style="stroke: #000000; stroke-width: 2; stroke-linejoin: miter"/>
   </g>
   <g id="patch_12">
    <path d="M 185.65474 101.39987 
C 186.263381 101.39987 186.847176 101.158054 187.27755 100.72768 
C 187.707924 100.297306 187.94974 99.713511 187.94974 99.10487 
C 187.94974 98.496229 187.707924 97.912434 187.27755 97.48206 
C 186.847176 97.051686 186.263381 96.80987 185.65474 96.80987 
C 185.046099 96.80987 184.462304 97.051686 184.03193 97.48206 
C 183.601556 97.912434 183.35974 98.496229 183.35974 99.10487 
C 183.35974 99.713511 183.601556 100.297306 184.03193 100.72768 
C 184.462304 101.158054 185.046099 101.39987 185.65474 101.39987 
z
" clip-path="url(#p832e60bd26)" style="stroke: #000000; stroke-width: 2; stroke-linejoin: miter"/>
   </g>
   <g id="patch_13">
    <path d="M 272.20461 14.85 
C 272.813251 14.85 273.397046 14.608184 273.82742 14.17781 
C 274.257794 13.747436 274.49961 13.163641 274.49961 12.555 
C 274.49961 11.946359 274.257794 11.362564 273.82742 10.93219 
C 273.397046 10.501816 272.813251 10.26 272.20461 10.26 
C 271.595969 10.26 271.012174 10.501816 270.5818 10.93219 
C 270.151426 11.362564 269.90961 11.946359 269.90961 12.555 
C 269.90961 13.163641 270.151426 13.747436 270.5818 14.17781 
C 271.012174 14.608184 271.595969 14.85 272.20461 14.85 
z
" clip-path="url(#p832e60bd26)" style="stroke: #000000; stroke-width: 2; stroke-linejoin: miter"/>
   </g>
  </g>
 </g>
 <defs>
  <clipPath id="p832e60bd26">
   <rect x="7.2" y="7.2" width="270.35961" height="270.35961"/>
  </clipPath>
 </defs>
</svg>
