<?xml version="1.0" encoding="utf-8" standalone="no"?>
<!DOCTYPE svg PUBLIC "-//W3C//DTD SVG 1.1//EN"
  "http://www.w3.org/Graphics/SVG/1.1/DTD/svg11.dtd">
<svg xmlns:xlink="http://www.w3.org/1999/xlink" width="147.51pt" height="271.106509pt" viewBox="0 0 147.51 271.106509" xmlns="http://www.w3.org/2000/svg" version="1.1">
 <metadata>
  <rdf:RDF xmlns:dc="http://purl.org/dc/elements/1.1/" xmlns:cc="http://creativecommons.org/ns#" xmlns:rdf="http://www.w3.org/1999/02/22-rdf-syntax-ns#">
   <cc:Work>
    <dc:type rdf:resource="http://purl.org/dc/dcmitype/StillImage"/>
    <dc:date>2023-03-23T14:42:42.793499</dc:date>
    <dc:format>image/svg+xml</dc:format>
    <dc:creator>
     <cc:Agent>
      <dc:title>Matplotlib v3.5.2, https://matplotlib.org/</dc:title>
     </cc:Agent>
    </dc:creator>
   </cc:Work>
  </rdf:RDF>
 </metadata>
 <defs>
  <style type="text/css">*{stroke-linejoin: round; stroke-linecap: butt}</style>
 </defs>
 <g id="figure_1">
  <g id="patch_1">
   <path d="M 0 271.106509 
L 147.51 271.106509 
L 147.51 0 
L 0 0 
L 0 271.106509 
z
" style="fill: none"/>
  </g>
  <g id="axes_1">
   <g id="patch_2">
    <path d="M 39.33 76.52566 
C 40.208205 76.018628 40.849707 75.182607 41.112166 74.203096 
C 41.374625 73.223585 41.237079 72.178818 40.730047 71.300613 
C 40.223015 70.422408 39.386993 69.780906 38.407483 69.518447 
C 37.427972 69.255988 36.383205 69.393534 35.505 69.900566 
" clip-path="url(#p103423e46a)" style="fill: none; stroke: #000000; stroke-width: 2; stroke-linejoin: miter"/>
   </g>
   <g id="patch_3">
    <path d="M 43.155 83.150755 
C 44.033205 82.643723 44.674707 81.807701 44.937166 80.82819 
C 45.199625 79.84868 45.062079 78.803913 44.555047 77.925708 
C 44.048015 77.047502 43.211993 76.406 42.232483 76.143541 
C 41.252972 75.881082 40.208205 76.018628 39.33 76.52566 
" clip-path="url(#p103423e46a)" style="fill: none; stroke: #000000; stroke-width: 2; stroke-linejoin: miter"/>
   </g>
   <g id="patch_4">
    <path d="M 46.98 89.775849 
C 47.858205 89.268817 48.499707 88.432795 48.762166 87.453285 
C 49.024625 86.473774 48.887079 85.429007 48.380047 84.550802 
C 47.873015 83.672597 47.036993 83.031095 46.057483 82.768636 
C 45.077972 82.506177 44.033205 82.643723 43.155 83.150755 
" clip-path="url(#p103423e46a)" style="fill: none; stroke: #000000; stroke-width: 2; stroke-linejoin: miter"/>
   </g>
   <g id="patch_5">
    <path d="M 50.805 96.400943 
C 51.683205 95.893911 52.324707 95.05789 52.587166 94.078379 
C 52.849625 93.098868 52.712079 92.054101 52.205047 91.175896 
C 51.698015 90.297691 50.861993 89.656189 49.882483 89.39373 
C 48.902972 89.131271 47.858205 89.268817 46.98 89.775849 
" clip-path="url(#p103423e46a)" style="fill: none; stroke: #000000; stroke-width: 2; stroke-linejoin: miter"/>
   </g>
   <g id="patch_6">
    <path d="M 108.18 76.52566 
C 109.058205 77.032692 110.102972 77.170239 111.082483 76.907779 
C 112.061993 76.64532 112.898015 76.003818 113.405047 75.125613 
C 113.912079 74.247408 114.049625 73.202641 113.787166 72.22313 
C 113.524707 71.24362 112.883205 70.407598 112.005 69.900566 
" clip-path="url(#p103423e46a)" style="fill: none; stroke: #000000; stroke-width: 2; stroke-linejoin: miter"/>
   </g>
   <g id="patch_7">
    <path d="M 104.355 83.150755 
C 105.233205 83.657787 106.277972 83.795333 107.257483 83.532874 
C 108.236993 83.270415 109.073015 82.628913 109.580047 81.750708 
C 110.087079 80.872502 110.224625 79.827735 109.962166 78.848225 
C 109.699707 77.868714 109.058205 77.032692 108.18 76.52566 
" clip-path="url(#p103423e46a)" style="fill: none; stroke: #000000; stroke-width: 2; stroke-linejoin: miter"/>
   </g>
   <g id="patch_8">
    <path d="M 100.53 89.775849 
C 101.408205 90.282881 102.452972 90.420427 103.432483 90.157968 
C 104.411993 89.895509 105.248015 89.254007 105.755047 88.375802 
C 106.262079 87.497597 106.399625 86.45283 106.137166 85.473319 
C 105.874707 84.493808 105.233205 83.657787 104.355 83.150755 
" clip-path="url(#p103423e46a)" style="fill: none; stroke: #000000; stroke-width: 2; stroke-linejoin: miter"/>
   </g>
   <g id="patch_9">
    <path d="M 96.705 96.400943 
C 97.583205 96.907975 98.627972 97.045522 99.607483 96.783063 
C 100.586993 96.520603 101.423015 95.879101 101.930047 95.000896 
C 102.437079 94.122691 102.574625 93.077924 102.312166 92.098413 
C 102.049707 91.118903 101.408205 90.282881 100.53 89.775849 
" clip-path="url(#p103423e46a)" style="fill: none; stroke: #000000; stroke-width: 2; stroke-linejoin: miter"/>
   </g>
   <g id="patch_10">
    <path d="M 85.995 205.001509 
C 84.980936 205.001509 84.007368 205.404774 83.290317 206.121826 
C 82.573265 206.838878 82.17 207.812445 82.17 208.826509 
C 82.17 209.840573 82.573265 210.814141 83.290317 211.531193 
C 84.007368 212.248244 84.980936 212.651509 85.995 212.651509 
" clip-path="url(#p103423e46a)" style="fill: none; stroke: #000000; stroke-width: 2; stroke-linejoin: miter"/>
   </g>
   <g id="patch_11">
    <path d="M 85.995 197.351509 
C 84.980936 197.351509 84.007368 197.754774 83.290317 198.471826 
C 82.573265 199.188878 82.17 200.162445 82.17 201.176509 
C 82.17 202.190573 82.573265 203.164141 83.290317 203.881193 
C 84.007368 204.598244 84.980936 205.001509 85.995 205.001509 
" clip-path="url(#p103423e46a)" style="fill: none; stroke: #000000; stroke-width: 2; stroke-linejoin: miter"/>
   </g>
   <g id="patch_12">
    <path d="M 85.995 189.701509 
C 84.980936 189.701509 84.007368 190.104774 83.290317 190.821826 
C 82.573265 191.538878 82.17 192.512445 82.17 193.526509 
C 82.17 194.540573 82.573265 195.514141 83.290317 196.231193 
C 84.007368 196.948244 84.980936 197.351509 85.995 197.351509 
" clip-path="url(#p103423e46a)" style="fill: none; stroke: #000000; stroke-width: 2; stroke-linejoin: miter"/>
   </g>
   <g id="patch_13">
    <path d="M 85.995 182.051509 
C 84.980936 182.051509 84.007368 182.454774 83.290317 183.171826 
C 82.573265 183.888878 82.17 184.862445 82.17 185.876509 
C 82.17 186.890573 82.573265 187.864141 83.290317 188.581193 
C 84.007368 189.298244 84.980936 189.701509 85.995 189.701509 
" clip-path="url(#p103423e46a)" style="fill: none; stroke: #000000; stroke-width: 2; stroke-linejoin: miter"/>
   </g>
   <g id="line2d_1">
    <path d="M 12.555 30.15 
L 43.155 30.15 
" clip-path="url(#p103423e46a)" style="fill: none; stroke: #000000; stroke-width: 2; stroke-linecap: round"/>
   </g>
   <g id="line2d_2">
    <path d="M 134.955 30.15 
L 104.355 30.15 
" clip-path="url(#p103423e46a)" style="fill: none; stroke: #000000; stroke-width: 2; stroke-linecap: round"/>
   </g>
   <g id="line2d_3">
    <path d="M 43.155 17.91 
L 43.155 42.39 
" clip-path="url(#p103423e46a)" style="fill: none; stroke: #000000; stroke-width: 2; stroke-linecap: round"/>
   </g>
   <g id="line2d_4">
    <path d="M 104.355 17.91 
L 104.355 42.39 
" clip-path="url(#p103423e46a)" style="fill: none; stroke: #000000; stroke-width: 2; stroke-linecap: round"/>
   </g>
   <g id="line2d_5">
    <path d="M 43.155 17.91 
L 71.001 17.91 
M 71.001 10.26 
L 71.001 25.56 
M 76.509 10.26 
L 76.509 25.56 
M 76.509 17.91 
L 104.355 17.91 
" clip-path="url(#p103423e46a)" style="fill: none; stroke: #000000; stroke-width: 2; stroke-linecap: round"/>
   </g>
   <g id="line2d_6">
    <path d="M 43.155 42.39 
L 73.755 42.39 
M 66.105 34.74 
L 81.405 50.04 
M 81.405 34.74 
L 66.105 50.04 
M 73.755 42.39 
L 104.355 42.39 
" clip-path="url(#p103423e46a)" style="fill: none; stroke: #000000; stroke-width: 2; stroke-linecap: round"/>
   </g>
   <g id="line2d_7">
    <path d="M 12.555 30.15 
L 35.505 69.900566 
M 50.805 96.400943 
L 73.755 136.151509 
" clip-path="url(#p103423e46a)" style="fill: none; stroke: #000000; stroke-width: 2; stroke-linecap: round"/>
   </g>
   <g id="line2d_8">
    <path d="M 134.955 30.15 
L 112.005 69.900566 
M 96.705 96.400943 
L 73.755 136.151509 
" clip-path="url(#p103423e46a)" style="fill: none; stroke: #000000; stroke-width: 2; stroke-linecap: round"/>
   </g>
   <g id="line2d_9">
    <path d="M 73.755 258.551509 
L 73.755 227.951509 
" clip-path="url(#p103423e46a)" style="fill: none; stroke: #000000; stroke-width: 2; stroke-linecap: round"/>
   </g>
   <g id="line2d_10">
    <path d="M 73.755 136.151509 
L 73.755 166.751509 
" clip-path="url(#p103423e46a)" style="fill: none; stroke: #000000; stroke-width: 2; stroke-linecap: round"/>
   </g>
   <g id="line2d_11">
    <path d="M 61.515 227.951509 
L 85.995 227.951509 
" clip-path="url(#p103423e46a)" style="fill: none; stroke: #000000; stroke-width: 2; stroke-linecap: round"/>
   </g>
   <g id="line2d_12">
    <path d="M 61.515 166.751509 
L 85.995 166.751509 
" clip-path="url(#p103423e46a)" style="fill: none; stroke: #000000; stroke-width: 2; stroke-linecap: round"/>
   </g>
   <g id="line2d_13">
    <path d="M 61.515 227.951509 
L 61.515 197.351509 
M 53.865 205.001509 
L 69.165 189.701509 
M 53.865 189.701509 
L 69.165 205.001509 
M 61.515 197.351509 
L 61.515 166.751509 
" clip-path="url(#p103423e46a)" style="fill: none; stroke: #000000; stroke-width: 2; stroke-linecap: round"/>
   </g>
   <g id="line2d_14">
    <path d="M 85.995 227.951509 
L 85.995 212.651509 
M 85.995 182.051509 
L 85.995 166.751509 
" clip-path="url(#p103423e46a)" style="fill: none; stroke: #000000; stroke-width: 2; stroke-linecap: round"/>
   </g>
   <g id="patch_14">
    <path d="M 12.555 32.445 
C 13.163641 32.445 13.747436 32.203184 14.17781 31.77281 
C 14.608184 31.342436 14.85 30.758641 14.85 30.15 
C 14.85 29.541359 14.608184 28.957564 14.17781 28.52719 
C 13.747436 28.096816 13.163641 27.855 12.555 27.855 
C 11.946359 27.855 11.362564 28.096816 10.93219 28.52719 
C 10.501816 28.957564 10.26 29.541359 10.26 30.15 
C 10.26 30.758641 10.501816 31.342436 10.93219 31.77281 
C 11.362564 32.203184 11.946359 32.445 12.555 32.445 
z
" clip-path="url(#p103423e46a)" style="stroke: #000000; stroke-width: 2; stroke-linejoin: miter"/>
   </g>
   <g id="patch_15">
    <path d="M 134.955 32.445 
C 135.563641 32.445 136.147436 32.203184 136.57781 31.77281 
C 137.008184 31.342436 137.25 30.758641 137.25 30.15 
C 137.25 29.541359 137.008184 28.957564 136.57781 28.52719 
C 136.147436 28.096816 135.563641 27.855 134.955 27.855 
C 134.346359 27.855 133.762564 28.096816 133.33219 28.52719 
C 132.901816 28.957564 132.66 29.541359 132.66 30.15 
C 132.66 30.758641 132.901816 31.342436 133.33219 31.77281 
C 133.762564 32.203184 134.346359 32.445 134.955 32.445 
z
" clip-path="url(#p103423e46a)" style="stroke: #000000; stroke-width: 2; stroke-linejoin: miter"/>
   </g>
   <g id="patch_16">
    <path d="M 73.755 138.446509 
C 74.363641 138.446509 74.947436 138.204694 75.37781 137.774319 
C 75.808184 137.343945 76.05 136.760151 76.05 136.151509 
C 76.05 135.542868 75.808184 134.959074 75.37781 134.528699 
C 74.947436 134.098325 74.363641 133.856509 73.755 133.856509 
C 73.146359 133.856509 72.562564 134.098325 72.13219 134.528699 
C 71.701816 134.959074 71.46 135.542868 71.46 136.151509 
C 71.46 136.760151 71.701816 137.343945 72.13219 137.774319 
C 72.562564 138.204694 73.146359 138.446509 73.755 138.446509 
z
" clip-path="url(#p103423e46a)" style="stroke: #000000; stroke-width: 2; stroke-linejoin: miter"/>
   </g>
   <g id="patch_17">
    <path d="M 73.755 260.846509 
C 74.363641 260.846509 74.947436 260.604694 75.37781 260.174319 
C 75.808184 259.743945 76.05 259.160151 76.05 258.551509 
C 76.05 257.942868 75.808184 257.359074 75.37781 256.928699 
C 74.947436 256.498325 74.363641 256.256509 73.755 256.256509 
C 73.146359 256.256509 72.562564 256.498325 72.13219 256.928699 
C 71.701816 257.359074 71.46 257.942868 71.46 258.551509 
C 71.46 259.160151 71.701816 259.743945 72.13219 260.174319 
C 72.562564 260.604694 73.146359 260.846509 73.755 260.846509 
z
" clip-path="url(#p103423e46a)" style="stroke: #000000; stroke-width: 2; stroke-linejoin: miter"/>
   </g>
  </g>
 </g>
 <defs>
  <clipPath id="p103423e46a">
   <rect x="7.2" y="7.2" width="133.11" height="256.706509"/>
  </clipPath>
 </defs>
</svg>
