<?xml version="1.0" encoding="utf-8" standalone="no"?>
<!DOCTYPE svg PUBLIC "-//W3C//DTD SVG 1.1//EN"
  "http://www.w3.org/Graphics/SVG/1.1/DTD/svg11.dtd">
<svg xmlns:xlink="http://www.w3.org/1999/xlink" width="147.51pt" height="255.04149pt" viewBox="0 0 147.51 255.04149" xmlns="http://www.w3.org/2000/svg" version="1.1">
 <metadata>
  <rdf:RDF xmlns:dc="http://purl.org/dc/elements/1.1/" xmlns:cc="http://creativecommons.org/ns#" xmlns:rdf="http://www.w3.org/1999/02/22-rdf-syntax-ns#">
   <cc:Work>
    <dc:type rdf:resource="http://purl.org/dc/dcmitype/StillImage"/>
    <dc:date>2023-03-23T14:40:48.967400</dc:date>
    <dc:format>image/svg+xml</dc:format>
    <dc:creator>
     <cc:Agent>
      <dc:title>Matplotlib v3.5.2, https://matplotlib.org/</dc:title>
     </cc:Agent>
    </dc:creator>
   </cc:Work>
  </rdf:RDF>
 </metadata>
 <defs>
  <style type="text/css">*{stroke-linejoin: round; stroke-linecap: butt}</style>
 </defs>
 <g id="figure_1">
  <g id="patch_1">
   <path d="M 0 255.04149 
L 147.51 255.04149 
L 147.51 0 
L 0 0 
L 0 255.04149 
z
" style="fill: none"/>
  </g>
  <g id="axes_1">
   <g id="patch_2">
    <path d="M 66.105 14.084981 
C 66.105 13.070917 65.701735 12.097349 64.984683 11.380298 
C 64.267632 10.663246 63.294064 10.259981 62.28 10.259981 
C 61.265936 10.259981 60.292368 10.663246 59.575317 11.380298 
C 58.858265 12.097349 58.455 13.070917 58.455 14.084981 
" clip-path="url(#p2f089f7852)" style="fill: none; stroke: #000000; stroke-width: 2; stroke-linejoin: miter"/>
   </g>
   <g id="patch_3">
    <path d="M 73.755 14.084981 
C 73.755 13.070917 73.351735 12.097349 72.634683 11.380298 
C 71.917632 10.663246 70.944064 10.259981 69.93 10.259981 
C 68.915936 10.259981 67.942368 10.663246 67.225317 11.380298 
C 66.508265 12.097349 66.105 13.070917 66.105 14.084981 
" clip-path="url(#p2f089f7852)" style="fill: none; stroke: #000000; stroke-width: 2; stroke-linejoin: miter"/>
   </g>
   <g id="patch_4">
    <path d="M 81.405 14.084981 
C 81.405 13.070917 81.001735 12.097349 80.284683 11.380298 
C 79.567632 10.663246 78.594064 10.259981 77.58 10.259981 
C 76.565936 10.259981 75.592368 10.663246 74.875317 11.380298 
C 74.158265 12.097349 73.755 13.070917 73.755 14.084981 
" clip-path="url(#p2f089f7852)" style="fill: none; stroke: #000000; stroke-width: 2; stroke-linejoin: miter"/>
   </g>
   <g id="patch_5">
    <path d="M 89.055 14.084981 
C 89.055 13.070917 88.651735 12.097349 87.934683 11.380298 
C 87.217632 10.663246 86.244064 10.259981 85.23 10.259981 
C 84.215936 10.259981 83.242368 10.663246 82.525317 11.380298 
C 81.808265 12.097349 81.405 13.070917 81.405 14.084981 
" clip-path="url(#p2f089f7852)" style="fill: none; stroke: #000000; stroke-width: 2; stroke-linejoin: miter"/>
   </g>
   <g id="line2d_1">
    <path d="M 12.555 14.084981 
L 58.455 14.084981 
M 89.055 14.084981 
L 134.955 14.084981 
" clip-path="url(#p2f089f7852)" style="fill: none; stroke: #000000; stroke-width: 2; stroke-linecap: round"/>
   </g>
   <g id="line2d_2">
    <path d="M 12.555 14.084981 
L 41.778 64.700702 
M 48.403094 60.875702 
L 35.152906 68.525702 
M 51.157094 65.64577 
L 37.906906 73.29577 
M 44.532 69.47077 
L 73.755 120.08649 
" clip-path="url(#p2f089f7852)" style="fill: none; stroke: #000000; stroke-width: 2; stroke-linecap: round"/>
   </g>
   <g id="line2d_3">
    <path d="M 134.955 14.084981 
L 119.655 40.585358 
" clip-path="url(#p2f089f7852)" style="fill: none; stroke: #000000; stroke-width: 2; stroke-linecap: round"/>
   </g>
   <g id="line2d_4">
    <path d="M 73.755 120.08649 
L 89.055 93.586113 
" clip-path="url(#p2f089f7852)" style="fill: none; stroke: #000000; stroke-width: 2; stroke-linecap: round"/>
   </g>
   <g id="line2d_5">
    <path d="M 130.255151 46.705358 
L 109.054849 34.465358 
" clip-path="url(#p2f089f7852)" style="fill: none; stroke: #000000; stroke-width: 2; stroke-linecap: round"/>
   </g>
   <g id="line2d_6">
    <path d="M 99.655151 99.706113 
L 78.454849 87.466113 
" clip-path="url(#p2f089f7852)" style="fill: none; stroke: #000000; stroke-width: 2; stroke-linecap: round"/>
   </g>
   <g id="line2d_7">
    <path d="M 130.255151 46.705358 
L 116.332151 70.820702 
M 122.957245 74.645702 
L 109.707057 66.995702 
M 120.203245 79.41577 
L 106.953057 71.76577 
M 113.578151 75.59077 
L 99.655151 99.706113 
" clip-path="url(#p2f089f7852)" style="fill: none; stroke: #000000; stroke-width: 2; stroke-linecap: round"/>
   </g>
   <g id="line2d_8">
    <path d="M 109.054849 34.465358 
L 93.754849 60.965736 
M 104.204943 58.165641 
L 83.304755 63.76583 
M 96.554943 71.41583 
L 90.954755 50.515641 
M 93.754849 60.965736 
L 78.454849 87.466113 
" clip-path="url(#p2f089f7852)" style="fill: none; stroke: #000000; stroke-width: 2; stroke-linecap: round"/>
   </g>
   <g id="line2d_9">
    <path d="M 73.755 242.48649 
L 73.755 181.28649 
M 66.105 188.93649 
L 81.405 173.63649 
M 66.105 173.63649 
L 81.405 188.93649 
M 73.755 181.28649 
L 73.755 120.08649 
" clip-path="url(#p2f089f7852)" style="fill: none; stroke: #000000; stroke-width: 2; stroke-linecap: round"/>
   </g>
   <g id="patch_6">
    <path d="M 12.555 16.379981 
C 13.163641 16.379981 13.747436 16.138165 14.17781 15.707791 
C 14.608184 15.277417 14.85 14.693622 14.85 14.084981 
C 14.85 13.47634 14.608184 12.892545 14.17781 12.462171 
C 13.747436 12.031797 13.163641 11.789981 12.555 11.789981 
C 11.946359 11.789981 11.362564 12.031797 10.93219 12.462171 
C 10.501816 12.892545 10.26 13.47634 10.26 14.084981 
C 10.26 14.693622 10.501816 15.277417 10.93219 15.707791 
C 11.362564 16.138165 11.946359 16.379981 12.555 16.379981 
z
" clip-path="url(#p2f089f7852)" style="stroke: #000000; stroke-width: 2; stroke-linejoin: miter"/>
   </g>
   <g id="patch_7">
    <path d="M 134.955 16.379981 
C 135.563641 16.379981 136.147436 16.138165 136.57781 15.707791 
C 137.008184 15.277417 137.25 14.693622 137.25 14.084981 
C 137.25 13.47634 137.008184 12.892545 136.57781 12.462171 
C 136.147436 12.031797 135.563641 11.789981 134.955 11.789981 
C 134.346359 11.789981 133.762564 12.031797 133.33219 12.462171 
C 132.901816 12.892545 132.66 13.47634 132.66 14.084981 
C 132.66 14.693622 132.901816 15.277417 133.33219 15.707791 
C 133.762564 16.138165 134.346359 16.379981 134.955 16.379981 
z
" clip-path="url(#p2f089f7852)" style="stroke: #000000; stroke-width: 2; stroke-linejoin: miter"/>
   </g>
   <g id="patch_8">
    <path d="M 73.755 122.38149 
C 74.363641 122.38149 74.947436 122.139675 75.37781 121.709301 
C 75.808184 121.278926 76.05 120.695132 76.05 120.08649 
C 76.05 119.477849 75.808184 118.894055 75.37781 118.46368 
C 74.947436 118.033306 74.363641 117.79149 73.755 117.79149 
C 73.146359 117.79149 72.562564 118.033306 72.13219 118.46368 
C 71.701816 118.894055 71.46 119.477849 71.46 120.08649 
C 71.46 120.695132 71.701816 121.278926 72.13219 121.709301 
C 72.562564 122.139675 73.146359 122.38149 73.755 122.38149 
z
" clip-path="url(#p2f089f7852)" style="stroke: #000000; stroke-width: 2; stroke-linejoin: miter"/>
   </g>
   <g id="patch_9">
    <path d="M 73.755 244.78149 
C 74.363641 244.78149 74.947436 244.539675 75.37781 244.109301 
C 75.808184 243.678926 76.05 243.095132 76.05 242.48649 
C 76.05 241.877849 75.808184 241.294055 75.37781 240.86368 
C 74.947436 240.433306 74.363641 240.19149 73.755 240.19149 
C 73.146359 240.19149 72.562564 240.433306 72.13219 240.86368 
C 71.701816 241.294055 71.46 241.877849 71.46 242.48649 
C 71.46 243.095132 71.701816 243.678926 72.13219 244.109301 
C 72.562564 244.539675 73.146359 244.78149 73.755 244.78149 
z
" clip-path="url(#p2f089f7852)" style="stroke: #000000; stroke-width: 2; stroke-linejoin: miter"/>
   </g>
  </g>
 </g>
 <defs>
  <clipPath id="p2f089f7852">
   <rect x="7.2" y="7.2" width="133.11" height="240.64149"/>
  </clipPath>
 </defs>
</svg>
