<?xml version="1.0" encoding="utf-8" standalone="no"?>
<!DOCTYPE svg PUBLIC "-//W3C//DTD SVG 1.1//EN"
  "http://www.w3.org/Graphics/SVG/1.1/DTD/svg11.dtd">
<svg xmlns:xlink="http://www.w3.org/1999/xlink" width="147.51pt" height="275.186509pt" viewBox="0 0 147.51 275.186509" xmlns="http://www.w3.org/2000/svg" version="1.1">
 <metadata>
  <rdf:RDF xmlns:dc="http://purl.org/dc/elements/1.1/" xmlns:cc="http://creativecommons.org/ns#" xmlns:rdf="http://www.w3.org/1999/02/22-rdf-syntax-ns#">
   <cc:Work>
    <dc:type rdf:resource="http://purl.org/dc/dcmitype/StillImage"/>
    <dc:date>2023-03-23T14:50:09.041594</dc:date>
    <dc:format>image/svg+xml</dc:format>
    <dc:creator>
     <cc:Agent>
      <dc:title>Matplotlib v3.5.2, https://matplotlib.org/</dc:title>
     </cc:Agent>
    </dc:creator>
   </cc:Work>
  </rdf:RDF>
 </metadata>
 <defs>
  <style type="text/css">*{stroke-linejoin: round; stroke-linecap: butt}</style>
 </defs>
 <g id="figure_1">
  <g id="patch_1">
   <path d="M 0 275.186509 
L 147.51 275.186509 
L 147.51 0 
L 0 0 
L 0 275.186509 
z
" style="fill: none"/>
  </g>
  <g id="axes_1">
   <g id="patch_2">
    <path d="M 66.105 50.55 
C 66.105 49.535936 65.701735 48.562368 64.984683 47.845317 
C 64.267632 47.128265 63.294064 46.725 62.28 46.725 
C 61.265936 46.725 60.292368 47.128265 59.575317 47.845317 
C 58.858265 48.562368 58.455 49.535936 58.455 50.55 
" clip-path="url(#p5c212b768c)" style="fill: none; stroke: #000000; stroke-width: 2; stroke-linejoin: miter"/>
   </g>
   <g id="patch_3">
    <path d="M 73.755 50.55 
C 73.755 49.535936 73.351735 48.562368 72.634683 47.845317 
C 71.917632 47.128265 70.944064 46.725 69.93 46.725 
C 68.915936 46.725 67.942368 47.128265 67.225317 47.845317 
C 66.508265 48.562368 66.105 49.535936 66.105 50.55 
" clip-path="url(#p5c212b768c)" style="fill: none; stroke: #000000; stroke-width: 2; stroke-linejoin: miter"/>
   </g>
   <g id="patch_4">
    <path d="M 81.405 50.55 
C 81.405 49.535936 81.001735 48.562368 80.284683 47.845317 
C 79.567632 47.128265 78.594064 46.725 77.58 46.725 
C 76.565936 46.725 75.592368 47.128265 74.875317 47.845317 
C 74.158265 48.562368 73.755 49.535936 73.755 50.55 
" clip-path="url(#p5c212b768c)" style="fill: none; stroke: #000000; stroke-width: 2; stroke-linejoin: miter"/>
   </g>
   <g id="patch_5">
    <path d="M 89.055 50.55 
C 89.055 49.535936 88.651735 48.562368 87.934683 47.845317 
C 87.217632 47.128265 86.244064 46.725 85.23 46.725 
C 84.215936 46.725 83.242368 47.128265 82.525317 47.845317 
C 81.808265 48.562368 81.405 49.535936 81.405 50.55 
" clip-path="url(#p5c212b768c)" style="fill: none; stroke: #000000; stroke-width: 2; stroke-linejoin: miter"/>
   </g>
   <g id="patch_6">
    <path d="M 28.729849 86.72566 
C 29.608054 86.218628 30.249556 85.382607 30.512015 84.403096 
C 30.774474 83.423585 30.636928 82.378818 30.129896 81.500613 
C 29.622864 80.622408 28.786843 79.980906 27.807332 79.718447 
C 26.827821 79.455988 25.783054 79.593534 24.904849 80.100566 
" clip-path="url(#p5c212b768c)" style="fill: none; stroke: #000000; stroke-width: 2; stroke-linejoin: miter"/>
   </g>
   <g id="patch_7">
    <path d="M 32.554849 93.350755 
C 33.433054 92.843723 34.074556 92.007701 34.337015 91.02819 
C 34.599474 90.04868 34.461928 89.003913 33.954896 88.125708 
C 33.447864 87.247502 32.611843 86.606 31.632332 86.343541 
C 30.652821 86.081082 29.608054 86.218628 28.729849 86.72566 
" clip-path="url(#p5c212b768c)" style="fill: none; stroke: #000000; stroke-width: 2; stroke-linejoin: miter"/>
   </g>
   <g id="patch_8">
    <path d="M 36.379849 99.975849 
C 37.258054 99.468817 37.899556 98.632795 38.162015 97.653285 
C 38.424474 96.673774 38.286928 95.629007 37.779896 94.750802 
C 37.272864 93.872597 36.436843 93.231095 35.457332 92.968636 
C 34.477821 92.706177 33.433054 92.843723 32.554849 93.350755 
" clip-path="url(#p5c212b768c)" style="fill: none; stroke: #000000; stroke-width: 2; stroke-linejoin: miter"/>
   </g>
   <g id="patch_9">
    <path d="M 40.204849 106.600943 
C 41.083054 106.093911 41.724556 105.25789 41.987015 104.278379 
C 42.249474 103.298868 42.111928 102.254101 41.604896 101.375896 
C 41.097864 100.497691 40.261843 99.856189 39.282332 99.59373 
C 38.302821 99.331271 37.258054 99.468817 36.379849 99.975849 
" clip-path="url(#p5c212b768c)" style="fill: none; stroke: #000000; stroke-width: 2; stroke-linejoin: miter"/>
   </g>
   <g id="patch_10">
    <path d="M 97.579849 74.48566 
C 98.458054 74.992692 99.502821 75.130239 100.482332 74.867779 
C 101.461843 74.60532 102.297864 73.963818 102.804896 73.085613 
C 103.311928 72.207408 103.449474 71.162641 103.187015 70.18313 
C 102.924556 69.20362 102.283054 68.367598 101.404849 67.860566 
" clip-path="url(#p5c212b768c)" style="fill: none; stroke: #000000; stroke-width: 2; stroke-linejoin: miter"/>
   </g>
   <g id="patch_11">
    <path d="M 93.754849 81.110755 
C 94.633054 81.617787 95.677821 81.755333 96.657332 81.492874 
C 97.636843 81.230415 98.472864 80.588913 98.979896 79.710708 
C 99.486928 78.832502 99.624474 77.787735 99.362015 76.808225 
C 99.099556 75.828714 98.458054 74.992692 97.579849 74.48566 
" clip-path="url(#p5c212b768c)" style="fill: none; stroke: #000000; stroke-width: 2; stroke-linejoin: miter"/>
   </g>
   <g id="patch_12">
    <path d="M 89.929849 87.735849 
C 90.808054 88.242881 91.852821 88.380427 92.832332 88.117968 
C 93.811843 87.855509 94.647864 87.214007 95.154896 86.335802 
C 95.661928 85.457597 95.799474 84.41283 95.537015 83.433319 
C 95.274556 82.453808 94.633054 81.617787 93.754849 81.110755 
" clip-path="url(#p5c212b768c)" style="fill: none; stroke: #000000; stroke-width: 2; stroke-linejoin: miter"/>
   </g>
   <g id="patch_13">
    <path d="M 86.104849 94.360943 
C 86.983054 94.867975 88.027821 95.005522 89.007332 94.743063 
C 89.986843 94.480603 90.822864 93.839101 91.329896 92.960896 
C 91.836928 92.082691 91.974474 91.037924 91.712015 90.058413 
C 91.449556 89.078903 90.808054 88.242881 89.929849 87.735849 
" clip-path="url(#p5c212b768c)" style="fill: none; stroke: #000000; stroke-width: 2; stroke-linejoin: miter"/>
   </g>
   <g id="patch_14">
    <path d="M 85.995 209.081509 
C 84.980936 209.081509 84.007368 209.484774 83.290317 210.201826 
C 82.573265 210.918878 82.17 211.892445 82.17 212.906509 
C 82.17 213.920573 82.573265 214.894141 83.290317 215.611193 
C 84.007368 216.328244 84.980936 216.731509 85.995 216.731509 
" clip-path="url(#p5c212b768c)" style="fill: none; stroke: #000000; stroke-width: 2; stroke-linejoin: miter"/>
   </g>
   <g id="patch_15">
    <path d="M 85.995 201.431509 
C 84.980936 201.431509 84.007368 201.834774 83.290317 202.551826 
C 82.573265 203.268878 82.17 204.242445 82.17 205.256509 
C 82.17 206.270573 82.573265 207.244141 83.290317 207.961193 
C 84.007368 208.678244 84.980936 209.081509 85.995 209.081509 
" clip-path="url(#p5c212b768c)" style="fill: none; stroke: #000000; stroke-width: 2; stroke-linejoin: miter"/>
   </g>
   <g id="patch_16">
    <path d="M 85.995 193.781509 
C 84.980936 193.781509 84.007368 194.184774 83.290317 194.901826 
C 82.573265 195.618878 82.17 196.592445 82.17 197.606509 
C 82.17 198.620573 82.573265 199.594141 83.290317 200.311193 
C 84.007368 201.028244 84.980936 201.431509 85.995 201.431509 
" clip-path="url(#p5c212b768c)" style="fill: none; stroke: #000000; stroke-width: 2; stroke-linejoin: miter"/>
   </g>
   <g id="patch_17">
    <path d="M 85.995 186.131509 
C 84.980936 186.131509 84.007368 186.534774 83.290317 187.251826 
C 82.573265 187.968878 82.17 188.942445 82.17 189.956509 
C 82.17 190.970573 82.573265 191.944141 83.290317 192.661193 
C 84.007368 193.378244 84.980936 193.781509 85.995 193.781509 
" clip-path="url(#p5c212b768c)" style="fill: none; stroke: #000000; stroke-width: 2; stroke-linejoin: miter"/>
   </g>
   <g id="line2d_1">
    <path d="M 12.555 34.23 
L 43.155 34.23 
" clip-path="url(#p5c212b768c)" style="fill: none; stroke: #000000; stroke-width: 2; stroke-linecap: round"/>
   </g>
   <g id="line2d_2">
    <path d="M 134.955 34.23 
L 104.355 34.23 
" clip-path="url(#p5c212b768c)" style="fill: none; stroke: #000000; stroke-width: 2; stroke-linecap: round"/>
   </g>
   <g id="line2d_3">
    <path d="M 43.155 17.91 
L 43.155 50.55 
" clip-path="url(#p5c212b768c)" style="fill: none; stroke: #000000; stroke-width: 2; stroke-linecap: round"/>
   </g>
   <g id="line2d_4">
    <path d="M 104.355 17.91 
L 104.355 50.55 
" clip-path="url(#p5c212b768c)" style="fill: none; stroke: #000000; stroke-width: 2; stroke-linecap: round"/>
   </g>
   <g id="line2d_5">
    <path d="M 43.155 34.23 
L 71.001 34.23 
M 71.001 26.58 
L 71.001 41.88 
M 76.509 26.58 
L 76.509 41.88 
M 76.509 34.23 
L 104.355 34.23 
" clip-path="url(#p5c212b768c)" style="fill: none; stroke: #000000; stroke-width: 2; stroke-linecap: round"/>
   </g>
   <g id="line2d_6">
    <path d="M 43.155 17.91 
L 73.755 17.91 
M 66.105 10.26 
L 81.405 25.56 
M 81.405 10.26 
L 66.105 25.56 
M 73.755 17.91 
L 104.355 17.91 
" clip-path="url(#p5c212b768c)" style="fill: none; stroke: #000000; stroke-width: 2; stroke-linecap: round"/>
   </g>
   <g id="line2d_7">
    <path d="M 43.155 50.55 
L 58.455 50.55 
M 89.055 50.55 
L 104.355 50.55 
" clip-path="url(#p5c212b768c)" style="fill: none; stroke: #000000; stroke-width: 2; stroke-linecap: round"/>
   </g>
   <g id="line2d_8">
    <path d="M 12.555 34.23 
L 27.855 60.730377 
" clip-path="url(#p5c212b768c)" style="fill: none; stroke: #000000; stroke-width: 2; stroke-linecap: round"/>
   </g>
   <g id="line2d_9">
    <path d="M 73.755 140.231509 
L 58.455 113.731132 
" clip-path="url(#p5c212b768c)" style="fill: none; stroke: #000000; stroke-width: 2; stroke-linecap: round"/>
   </g>
   <g id="line2d_10">
    <path d="M 38.455151 54.610377 
L 17.254849 66.850377 
" clip-path="url(#p5c212b768c)" style="fill: none; stroke: #000000; stroke-width: 2; stroke-linecap: round"/>
   </g>
   <g id="line2d_11">
    <path d="M 69.055151 107.611132 
L 47.854849 119.851132 
" clip-path="url(#p5c212b768c)" style="fill: none; stroke: #000000; stroke-width: 2; stroke-linecap: round"/>
   </g>
   <g id="line2d_12">
    <path d="M 38.455151 54.610377 
L 52.378151 78.725721 
M 59.003245 74.900721 
L 45.753057 82.550721 
M 61.757245 79.670789 
L 48.507057 87.320789 
M 55.132151 83.495789 
L 69.055151 107.611132 
" clip-path="url(#p5c212b768c)" style="fill: none; stroke: #000000; stroke-width: 2; stroke-linecap: round"/>
   </g>
   <g id="line2d_13">
    <path d="M 17.254849 66.850377 
L 24.904849 80.100566 
M 40.204849 106.600943 
L 47.854849 119.851132 
" clip-path="url(#p5c212b768c)" style="fill: none; stroke: #000000; stroke-width: 2; stroke-linecap: round"/>
   </g>
   <g id="line2d_14">
    <path d="M 134.955 34.23 
L 119.655 60.730377 
" clip-path="url(#p5c212b768c)" style="fill: none; stroke: #000000; stroke-width: 2; stroke-linecap: round"/>
   </g>
   <g id="line2d_15">
    <path d="M 73.755 140.231509 
L 89.055 113.731132 
" clip-path="url(#p5c212b768c)" style="fill: none; stroke: #000000; stroke-width: 2; stroke-linecap: round"/>
   </g>
   <g id="line2d_16">
    <path d="M 130.255151 66.850377 
L 109.054849 54.610377 
" clip-path="url(#p5c212b768c)" style="fill: none; stroke: #000000; stroke-width: 2; stroke-linecap: round"/>
   </g>
   <g id="line2d_17">
    <path d="M 99.655151 119.851132 
L 78.454849 107.611132 
" clip-path="url(#p5c212b768c)" style="fill: none; stroke: #000000; stroke-width: 2; stroke-linecap: round"/>
   </g>
   <g id="line2d_18">
    <path d="M 130.255151 66.850377 
L 114.955151 93.350755 
M 125.405245 90.55066 
L 104.505057 96.150849 
M 117.755245 103.800849 
L 112.155057 82.90066 
M 114.955151 93.350755 
L 99.655151 119.851132 
" clip-path="url(#p5c212b768c)" style="fill: none; stroke: #000000; stroke-width: 2; stroke-linecap: round"/>
   </g>
   <g id="line2d_19">
    <path d="M 109.054849 54.610377 
L 101.404849 67.860566 
M 86.104849 94.360943 
L 78.454849 107.611132 
" clip-path="url(#p5c212b768c)" style="fill: none; stroke: #000000; stroke-width: 2; stroke-linecap: round"/>
   </g>
   <g id="line2d_20">
    <path d="M 73.755 262.631509 
L 73.755 232.031509 
" clip-path="url(#p5c212b768c)" style="fill: none; stroke: #000000; stroke-width: 2; stroke-linecap: round"/>
   </g>
   <g id="line2d_21">
    <path d="M 73.755 140.231509 
L 73.755 170.831509 
" clip-path="url(#p5c212b768c)" style="fill: none; stroke: #000000; stroke-width: 2; stroke-linecap: round"/>
   </g>
   <g id="line2d_22">
    <path d="M 61.515 232.031509 
L 85.995 232.031509 
" clip-path="url(#p5c212b768c)" style="fill: none; stroke: #000000; stroke-width: 2; stroke-linecap: round"/>
   </g>
   <g id="line2d_23">
    <path d="M 61.515 170.831509 
L 85.995 170.831509 
" clip-path="url(#p5c212b768c)" style="fill: none; stroke: #000000; stroke-width: 2; stroke-linecap: round"/>
   </g>
   <g id="line2d_24">
    <path d="M 61.515 232.031509 
L 61.515 201.431509 
M 53.865 209.081509 
L 69.165 193.781509 
M 53.865 193.781509 
L 69.165 209.081509 
M 61.515 201.431509 
L 61.515 170.831509 
" clip-path="url(#p5c212b768c)" style="fill: none; stroke: #000000; stroke-width: 2; stroke-linecap: round"/>
   </g>
   <g id="line2d_25">
    <path d="M 85.995 232.031509 
L 85.995 216.731509 
M 85.995 186.131509 
L 85.995 170.831509 
" clip-path="url(#p5c212b768c)" style="fill: none; stroke: #000000; stroke-width: 2; stroke-linecap: round"/>
   </g>
   <g id="patch_18">
    <path d="M 12.555 36.525 
C 13.163641 36.525 13.747436 36.283184 14.17781 35.85281 
C 14.608184 35.422436 14.85 34.838641 14.85 34.23 
C 14.85 33.621359 14.608184 33.037564 14.17781 32.60719 
C 13.747436 32.176816 13.163641 31.935 12.555 31.935 
C 11.946359 31.935 11.362564 32.176816 10.93219 32.60719 
C 10.501816 33.037564 10.26 33.621359 10.26 34.23 
C 10.26 34.838641 10.501816 35.422436 10.93219 35.85281 
C 11.362564 36.283184 11.946359 36.525 12.555 36.525 
z
" clip-path="url(#p5c212b768c)" style="stroke: #000000; stroke-width: 2; stroke-linejoin: miter"/>
   </g>
   <g id="patch_19">
    <path d="M 134.955 36.525 
C 135.563641 36.525 136.147436 36.283184 136.57781 35.85281 
C 137.008184 35.422436 137.25 34.838641 137.25 34.23 
C 137.25 33.621359 137.008184 33.037564 136.57781 32.60719 
C 136.147436 32.176816 135.563641 31.935 134.955 31.935 
C 134.346359 31.935 133.762564 32.176816 133.33219 32.60719 
C 132.901816 33.037564 132.66 33.621359 132.66 34.23 
C 132.66 34.838641 132.901816 35.422436 133.33219 35.85281 
C 133.762564 36.283184 134.346359 36.525 134.955 36.525 
z
" clip-path="url(#p5c212b768c)" style="stroke: #000000; stroke-width: 2; stroke-linejoin: miter"/>
   </g>
   <g id="patch_20">
    <path d="M 73.755 142.526509 
C 74.363641 142.526509 74.947436 142.284694 75.37781 141.854319 
C 75.808184 141.423945 76.05 140.840151 76.05 140.231509 
C 76.05 139.622868 75.808184 139.039074 75.37781 138.608699 
C 74.947436 138.178325 74.363641 137.936509 73.755 137.936509 
C 73.146359 137.936509 72.562564 138.178325 72.13219 138.608699 
C 71.701816 139.039074 71.46 139.622868 71.46 140.231509 
C 71.46 140.840151 71.701816 141.423945 72.13219 141.854319 
C 72.562564 142.284694 73.146359 142.526509 73.755 142.526509 
z
" clip-path="url(#p5c212b768c)" style="stroke: #000000; stroke-width: 2; stroke-linejoin: miter"/>
   </g>
   <g id="patch_21">
    <path d="M 73.755 264.926509 
C 74.363641 264.926509 74.947436 264.684694 75.37781 264.254319 
C 75.808184 263.823945 76.05 263.240151 76.05 262.631509 
C 76.05 262.022868 75.808184 261.439074 75.37781 261.008699 
C 74.947436 260.578325 74.363641 260.336509 73.755 260.336509 
C 73.146359 260.336509 72.562564 260.578325 72.13219 261.008699 
C 71.701816 261.439074 71.46 262.022868 71.46 262.631509 
C 71.46 263.240151 71.701816 263.823945 72.13219 264.254319 
C 72.562564 264.684694 73.146359 264.926509 73.755 264.926509 
z
" clip-path="url(#p5c212b768c)" style="stroke: #000000; stroke-width: 2; stroke-linejoin: miter"/>
   </g>
  </g>
 </g>
 <defs>
  <clipPath id="p5c212b768c">
   <rect x="7.2" y="7.2" width="133.11" height="260.786509"/>
  </clipPath>
 </defs>
</svg>
