<?xml version="1.0" encoding="utf-8" standalone="no"?>
<!DOCTYPE svg PUBLIC "-//W3C//DTD SVG 1.1//EN"
  "http://www.w3.org/Graphics/SVG/1.1/DTD/svg11.dtd">
<svg xmlns:xlink="http://www.w3.org/1999/xlink" width="147.51pt" height="275.186509pt" viewBox="0 0 147.51 275.186509" xmlns="http://www.w3.org/2000/svg" version="1.1">
 <metadata>
  <rdf:RDF xmlns:dc="http://purl.org/dc/elements/1.1/" xmlns:cc="http://creativecommons.org/ns#" xmlns:rdf="http://www.w3.org/1999/02/22-rdf-syntax-ns#">
   <cc:Work>
    <dc:type rdf:resource="http://purl.org/dc/dcmitype/StillImage"/>
    <dc:date>2023-03-23T14:50:43.795632</dc:date>
    <dc:format>image/svg+xml</dc:format>
    <dc:creator>
     <cc:Agent>
      <dc:title>Matplotlib v3.5.2, https://matplotlib.org/</dc:title>
     </cc:Agent>
    </dc:creator>
   </cc:Work>
  </rdf:RDF>
 </metadata>
 <defs>
  <style type="text/css">*{stroke-linejoin: round; stroke-linecap: butt}</style>
 </defs>
 <g id="figure_1">
  <g id="patch_1">
   <path d="M 0 275.186509 
L 147.51 275.186509 
L 147.51 0 
L 0 0 
L 0 275.186509 
z
" style="fill: none"/>
  </g>
  <g id="axes_1">
   <g id="patch_2">
    <path d="M 66.105 50.55 
C 66.105 49.535936 65.701735 48.562368 64.984683 47.845317 
C 64.267632 47.128265 63.294064 46.725 62.28 46.725 
C 61.265936 46.725 60.292368 47.128265 59.575317 47.845317 
C 58.858265 48.562368 58.455 49.535936 58.455 50.55 
" clip-path="url(#pc37ca4f195)" style="fill: none; stroke: #000000; stroke-width: 2; stroke-linejoin: miter"/>
   </g>
   <g id="patch_3">
    <path d="M 73.755 50.55 
C 73.755 49.535936 73.351735 48.562368 72.634683 47.845317 
C 71.917632 47.128265 70.944064 46.725 69.93 46.725 
C 68.915936 46.725 67.942368 47.128265 67.225317 47.845317 
C 66.508265 48.562368 66.105 49.535936 66.105 50.55 
" clip-path="url(#pc37ca4f195)" style="fill: none; stroke: #000000; stroke-width: 2; stroke-linejoin: miter"/>
   </g>
   <g id="patch_4">
    <path d="M 81.405 50.55 
C 81.405 49.535936 81.001735 48.562368 80.284683 47.845317 
C 79.567632 47.128265 78.594064 46.725 77.58 46.725 
C 76.565936 46.725 75.592368 47.128265 74.875317 47.845317 
C 74.158265 48.562368 73.755 49.535936 73.755 50.55 
" clip-path="url(#pc37ca4f195)" style="fill: none; stroke: #000000; stroke-width: 2; stroke-linejoin: miter"/>
   </g>
   <g id="patch_5">
    <path d="M 89.055 50.55 
C 89.055 49.535936 88.651735 48.562368 87.934683 47.845317 
C 87.217632 47.128265 86.244064 46.725 85.23 46.725 
C 84.215936 46.725 83.242368 47.128265 82.525317 47.845317 
C 81.808265 48.562368 81.405 49.535936 81.405 50.55 
" clip-path="url(#pc37ca4f195)" style="fill: none; stroke: #000000; stroke-width: 2; stroke-linejoin: miter"/>
   </g>
   <g id="patch_6">
    <path d="M 39.33 80.60566 
C 40.208205 80.098628 40.849707 79.262607 41.112166 78.283096 
C 41.374625 77.303585 41.237079 76.258818 40.730047 75.380613 
C 40.223015 74.502408 39.386993 73.860906 38.407483 73.598447 
C 37.427972 73.335988 36.383205 73.473534 35.505 73.980566 
" clip-path="url(#pc37ca4f195)" style="fill: none; stroke: #000000; stroke-width: 2; stroke-linejoin: miter"/>
   </g>
   <g id="patch_7">
    <path d="M 43.155 87.230755 
C 44.033205 86.723723 44.674707 85.887701 44.937166 84.90819 
C 45.199625 83.92868 45.062079 82.883913 44.555047 82.005708 
C 44.048015 81.127502 43.211993 80.486 42.232483 80.223541 
C 41.252972 79.961082 40.208205 80.098628 39.33 80.60566 
" clip-path="url(#pc37ca4f195)" style="fill: none; stroke: #000000; stroke-width: 2; stroke-linejoin: miter"/>
   </g>
   <g id="patch_8">
    <path d="M 46.98 93.855849 
C 47.858205 93.348817 48.499707 92.512795 48.762166 91.533285 
C 49.024625 90.553774 48.887079 89.509007 48.380047 88.630802 
C 47.873015 87.752597 47.036993 87.111095 46.057483 86.848636 
C 45.077972 86.586177 44.033205 86.723723 43.155 87.230755 
" clip-path="url(#pc37ca4f195)" style="fill: none; stroke: #000000; stroke-width: 2; stroke-linejoin: miter"/>
   </g>
   <g id="patch_9">
    <path d="M 50.805 100.480943 
C 51.683205 99.973911 52.324707 99.13789 52.587166 98.158379 
C 52.849625 97.178868 52.712079 96.134101 52.205047 95.255896 
C 51.698015 94.377691 50.861993 93.736189 49.882483 93.47373 
C 48.902972 93.211271 47.858205 93.348817 46.98 93.855849 
" clip-path="url(#pc37ca4f195)" style="fill: none; stroke: #000000; stroke-width: 2; stroke-linejoin: miter"/>
   </g>
   <g id="patch_10">
    <path d="M 94.046465 72.44566 
C 94.924671 72.952692 95.969438 73.090239 96.948948 72.827779 
C 97.928459 72.56532 98.764481 71.923818 99.271513 71.045613 
C 99.778545 70.167408 99.916091 69.122641 99.653632 68.14313 
C 99.391173 67.16362 98.749671 66.327598 97.871465 65.820566 
" clip-path="url(#pc37ca4f195)" style="fill: none; stroke: #000000; stroke-width: 2; stroke-linejoin: miter"/>
   </g>
   <g id="patch_11">
    <path d="M 90.221465 79.070755 
C 91.099671 79.577787 92.144438 79.715333 93.123948 79.452874 
C 94.103459 79.190415 94.939481 78.548913 95.446513 77.670708 
C 95.953545 76.792502 96.091091 75.747735 95.828632 74.768225 
C 95.566173 73.788714 94.924671 72.952692 94.046465 72.44566 
" clip-path="url(#pc37ca4f195)" style="fill: none; stroke: #000000; stroke-width: 2; stroke-linejoin: miter"/>
   </g>
   <g id="patch_12">
    <path d="M 86.396465 85.695849 
C 87.274671 86.202881 88.319438 86.340427 89.298948 86.077968 
C 90.278459 85.815509 91.114481 85.174007 91.621513 84.295802 
C 92.128545 83.417597 92.266091 82.37283 92.003632 81.393319 
C 91.741173 80.413808 91.099671 79.577787 90.221465 79.070755 
" clip-path="url(#pc37ca4f195)" style="fill: none; stroke: #000000; stroke-width: 2; stroke-linejoin: miter"/>
   </g>
   <g id="patch_13">
    <path d="M 82.571465 92.320943 
C 83.449671 92.827975 84.494438 92.965522 85.473948 92.703063 
C 86.453459 92.440603 87.289481 91.799101 87.796513 90.920896 
C 88.303545 90.042691 88.441091 88.997924 88.178632 88.018413 
C 87.916173 87.038903 87.274671 86.202881 86.396465 85.695849 
" clip-path="url(#pc37ca4f195)" style="fill: none; stroke: #000000; stroke-width: 2; stroke-linejoin: miter"/>
   </g>
   <g id="line2d_1">
    <path d="M 12.555 34.23 
L 43.155 34.23 
" clip-path="url(#pc37ca4f195)" style="fill: none; stroke: #000000; stroke-width: 2; stroke-linecap: round"/>
   </g>
   <g id="line2d_2">
    <path d="M 134.955 34.23 
L 104.355 34.23 
" clip-path="url(#pc37ca4f195)" style="fill: none; stroke: #000000; stroke-width: 2; stroke-linecap: round"/>
   </g>
   <g id="line2d_3">
    <path d="M 43.155 17.91 
L 43.155 50.55 
" clip-path="url(#pc37ca4f195)" style="fill: none; stroke: #000000; stroke-width: 2; stroke-linecap: round"/>
   </g>
   <g id="line2d_4">
    <path d="M 104.355 17.91 
L 104.355 50.55 
" clip-path="url(#pc37ca4f195)" style="fill: none; stroke: #000000; stroke-width: 2; stroke-linecap: round"/>
   </g>
   <g id="line2d_5">
    <path d="M 43.155 34.23 
L 71.001 34.23 
M 71.001 26.58 
L 71.001 41.88 
M 76.509 26.58 
L 76.509 41.88 
M 76.509 34.23 
L 104.355 34.23 
" clip-path="url(#pc37ca4f195)" style="fill: none; stroke: #000000; stroke-width: 2; stroke-linecap: round"/>
   </g>
   <g id="line2d_6">
    <path d="M 43.155 17.91 
L 73.755 17.91 
M 66.105 10.26 
L 81.405 25.56 
M 81.405 10.26 
L 66.105 25.56 
M 73.755 17.91 
L 104.355 17.91 
" clip-path="url(#pc37ca4f195)" style="fill: none; stroke: #000000; stroke-width: 2; stroke-linecap: round"/>
   </g>
   <g id="line2d_7">
    <path d="M 43.155 50.55 
L 58.455 50.55 
M 89.055 50.55 
L 104.355 50.55 
" clip-path="url(#pc37ca4f195)" style="fill: none; stroke: #000000; stroke-width: 2; stroke-linecap: round"/>
   </g>
   <g id="line2d_8">
    <path d="M 12.555 34.23 
L 35.505 73.980566 
M 50.805 100.480943 
L 73.755 140.231509 
" clip-path="url(#pc37ca4f195)" style="fill: none; stroke: #000000; stroke-width: 2; stroke-linecap: round"/>
   </g>
   <g id="line2d_9">
    <path d="M 134.955 34.23 
L 119.655 60.730377 
" clip-path="url(#pc37ca4f195)" style="fill: none; stroke: #000000; stroke-width: 2; stroke-linecap: round"/>
   </g>
   <g id="line2d_10">
    <path d="M 73.755 140.231509 
L 89.055 113.731132 
" clip-path="url(#pc37ca4f195)" style="fill: none; stroke: #000000; stroke-width: 2; stroke-linecap: round"/>
   </g>
   <g id="line2d_11">
    <path d="M 133.788535 68.890377 
L 105.521465 52.570377 
" clip-path="url(#pc37ca4f195)" style="fill: none; stroke: #000000; stroke-width: 2; stroke-linecap: round"/>
   </g>
   <g id="line2d_12">
    <path d="M 103.188535 121.891132 
L 74.921465 105.571132 
" clip-path="url(#pc37ca4f195)" style="fill: none; stroke: #000000; stroke-width: 2; stroke-linecap: round"/>
   </g>
   <g id="line2d_13">
    <path d="M 119.655 60.730377 
L 105.732 84.845721 
M 112.357094 88.670721 
L 99.106906 81.020721 
M 109.603094 93.440789 
L 96.352906 85.790789 
M 102.978 89.615789 
L 89.055 113.731132 
" clip-path="url(#pc37ca4f195)" style="fill: none; stroke: #000000; stroke-width: 2; stroke-linecap: round"/>
   </g>
   <g id="line2d_14">
    <path d="M 133.788535 68.890377 
L 118.488535 95.390755 
M 128.938629 92.59066 
L 108.03844 98.190849 
M 121.288629 105.840849 
L 115.68844 84.94066 
M 118.488535 95.390755 
L 103.188535 121.891132 
" clip-path="url(#pc37ca4f195)" style="fill: none; stroke: #000000; stroke-width: 2; stroke-linecap: round"/>
   </g>
   <g id="line2d_15">
    <path d="M 105.521465 52.570377 
L 97.871465 65.820566 
M 82.571465 92.320943 
L 74.921465 105.571132 
" clip-path="url(#pc37ca4f195)" style="fill: none; stroke: #000000; stroke-width: 2; stroke-linecap: round"/>
   </g>
   <g id="line2d_16">
    <path d="M 73.755 262.631509 
L 73.755 201.431509 
M 66.105 209.081509 
L 81.405 193.781509 
M 66.105 193.781509 
L 81.405 209.081509 
M 73.755 201.431509 
L 73.755 140.231509 
" clip-path="url(#pc37ca4f195)" style="fill: none; stroke: #000000; stroke-width: 2; stroke-linecap: round"/>
   </g>
   <g id="patch_14">
    <path d="M 12.555 36.525 
C 13.163641 36.525 13.747436 36.283184 14.17781 35.85281 
C 14.608184 35.422436 14.85 34.838641 14.85 34.23 
C 14.85 33.621359 14.608184 33.037564 14.17781 32.60719 
C 13.747436 32.176816 13.163641 31.935 12.555 31.935 
C 11.946359 31.935 11.362564 32.176816 10.93219 32.60719 
C 10.501816 33.037564 10.26 33.621359 10.26 34.23 
C 10.26 34.838641 10.501816 35.422436 10.93219 35.85281 
C 11.362564 36.283184 11.946359 36.525 12.555 36.525 
z
" clip-path="url(#pc37ca4f195)" style="stroke: #000000; stroke-width: 2; stroke-linejoin: miter"/>
   </g>
   <g id="patch_15">
    <path d="M 134.955 36.525 
C 135.563641 36.525 136.147436 36.283184 136.57781 35.85281 
C 137.008184 35.422436 137.25 34.838641 137.25 34.23 
C 137.25 33.621359 137.008184 33.037564 136.57781 32.60719 
C 136.147436 32.176816 135.563641 31.935 134.955 31.935 
C 134.346359 31.935 133.762564 32.176816 133.33219 32.60719 
C 132.901816 33.037564 132.66 33.621359 132.66 34.23 
C 132.66 34.838641 132.901816 35.422436 133.33219 35.85281 
C 133.762564 36.283184 134.346359 36.525 134.955 36.525 
z
" clip-path="url(#pc37ca4f195)" style="stroke: #000000; stroke-width: 2; stroke-linejoin: miter"/>
   </g>
   <g id="patch_16">
    <path d="M 73.755 142.526509 
C 74.363641 142.526509 74.947436 142.284694 75.37781 141.854319 
C 75.808184 141.423945 76.05 140.840151 76.05 140.231509 
C 76.05 139.622868 75.808184 139.039074 75.37781 138.608699 
C 74.947436 138.178325 74.363641 137.936509 73.755 137.936509 
C 73.146359 137.936509 72.562564 138.178325 72.13219 138.608699 
C 71.701816 139.039074 71.46 139.622868 71.46 140.231509 
C 71.46 140.840151 71.701816 141.423945 72.13219 141.854319 
C 72.562564 142.284694 73.146359 142.526509 73.755 142.526509 
z
" clip-path="url(#pc37ca4f195)" style="stroke: #000000; stroke-width: 2; stroke-linejoin: miter"/>
   </g>
   <g id="patch_17">
    <path d="M 73.755 264.926509 
C 74.363641 264.926509 74.947436 264.684694 75.37781 264.254319 
C 75.808184 263.823945 76.05 263.240151 76.05 262.631509 
C 76.05 262.022868 75.808184 261.439074 75.37781 261.008699 
C 74.947436 260.578325 74.363641 260.336509 73.755 260.336509 
C 73.146359 260.336509 72.562564 260.578325 72.13219 261.008699 
C 71.701816 261.439074 71.46 262.022868 71.46 262.631509 
C 71.46 263.240151 71.701816 263.823945 72.13219 264.254319 
C 72.562564 264.684694 73.146359 264.926509 73.755 264.926509 
z
" clip-path="url(#pc37ca4f195)" style="stroke: #000000; stroke-width: 2; stroke-linejoin: miter"/>
   </g>
  </g>
 </g>
 <defs>
  <clipPath id="pc37ca4f195">
   <rect x="7.2" y="7.2" width="133.11" height="260.786509"/>
  </clipPath>
 </defs>
</svg>
