<?xml version="1.0" encoding="utf-8" standalone="no"?>
<!DOCTYPE svg PUBLIC "-//W3C//DTD SVG 1.1//EN"
  "http://www.w3.org/Graphics/SVG/1.1/DTD/svg11.dtd">
<svg xmlns:xlink="http://www.w3.org/1999/xlink" width="147.51pt" height="258.866509pt" viewBox="0 0 147.51 258.866509" xmlns="http://www.w3.org/2000/svg" version="1.1">
 <metadata>
  <rdf:RDF xmlns:dc="http://purl.org/dc/elements/1.1/" xmlns:cc="http://creativecommons.org/ns#" xmlns:rdf="http://www.w3.org/1999/02/22-rdf-syntax-ns#">
   <cc:Work>
    <dc:type rdf:resource="http://purl.org/dc/dcmitype/StillImage"/>
    <dc:date>2023-03-23T14:51:46.087773</dc:date>
    <dc:format>image/svg+xml</dc:format>
    <dc:creator>
     <cc:Agent>
      <dc:title>Matplotlib v3.5.2, https://matplotlib.org/</dc:title>
     </cc:Agent>
    </dc:creator>
   </cc:Work>
  </rdf:RDF>
 </metadata>
 <defs>
  <style type="text/css">*{stroke-linejoin: round; stroke-linecap: butt}</style>
 </defs>
 <g id="figure_1">
  <g id="patch_1">
   <path d="M 0 258.866509 
L 147.51 258.866509 
L 147.51 0 
L 0 0 
L 0 258.866509 
z
" style="fill: none"/>
  </g>
  <g id="axes_1">
   <g id="patch_2">
    <path d="M 28.729849 70.40566 
C 29.608054 69.898628 30.249556 69.062607 30.512015 68.083096 
C 30.774474 67.103585 30.636928 66.058818 30.129896 65.180613 
C 29.622864 64.302408 28.786843 63.660906 27.807332 63.398447 
C 26.827821 63.135988 25.783054 63.273534 24.904849 63.780566 
" clip-path="url(#paaafdb0f67)" style="fill: none; stroke: #000000; stroke-width: 2; stroke-linejoin: miter"/>
   </g>
   <g id="patch_3">
    <path d="M 32.554849 77.030755 
C 33.433054 76.523723 34.074556 75.687701 34.337015 74.70819 
C 34.599474 73.72868 34.461928 72.683913 33.954896 71.805708 
C 33.447864 70.927502 32.611843 70.286 31.632332 70.023541 
C 30.652821 69.761082 29.608054 69.898628 28.729849 70.40566 
" clip-path="url(#paaafdb0f67)" style="fill: none; stroke: #000000; stroke-width: 2; stroke-linejoin: miter"/>
   </g>
   <g id="patch_4">
    <path d="M 36.379849 83.655849 
C 37.258054 83.148817 37.899556 82.312795 38.162015 81.333285 
C 38.424474 80.353774 38.286928 79.309007 37.779896 78.430802 
C 37.272864 77.552597 36.436843 76.911095 35.457332 76.648636 
C 34.477821 76.386177 33.433054 76.523723 32.554849 77.030755 
" clip-path="url(#paaafdb0f67)" style="fill: none; stroke: #000000; stroke-width: 2; stroke-linejoin: miter"/>
   </g>
   <g id="patch_5">
    <path d="M 40.204849 90.280943 
C 41.083054 89.773911 41.724556 88.93789 41.987015 87.958379 
C 42.249474 86.978868 42.111928 85.934101 41.604896 85.055896 
C 41.097864 84.177691 40.261843 83.536189 39.282332 83.27373 
C 38.302821 83.011271 37.258054 83.148817 36.379849 83.655849 
" clip-path="url(#paaafdb0f67)" style="fill: none; stroke: #000000; stroke-width: 2; stroke-linejoin: miter"/>
   </g>
   <g id="patch_6">
    <path d="M 94.046465 56.12566 
C 94.924671 56.632692 95.969438 56.770239 96.948948 56.507779 
C 97.928459 56.24532 98.764481 55.603818 99.271513 54.725613 
C 99.778545 53.847408 99.916091 52.802641 99.653632 51.82313 
C 99.391173 50.84362 98.749671 50.007598 97.871465 49.500566 
" clip-path="url(#paaafdb0f67)" style="fill: none; stroke: #000000; stroke-width: 2; stroke-linejoin: miter"/>
   </g>
   <g id="patch_7">
    <path d="M 90.221465 62.750755 
C 91.099671 63.257787 92.144438 63.395333 93.123948 63.132874 
C 94.103459 62.870415 94.939481 62.228913 95.446513 61.350708 
C 95.953545 60.472502 96.091091 59.427735 95.828632 58.448225 
C 95.566173 57.468714 94.924671 56.632692 94.046465 56.12566 
" clip-path="url(#paaafdb0f67)" style="fill: none; stroke: #000000; stroke-width: 2; stroke-linejoin: miter"/>
   </g>
   <g id="patch_8">
    <path d="M 86.396465 69.375849 
C 87.274671 69.882881 88.319438 70.020427 89.298948 69.757968 
C 90.278459 69.495509 91.114481 68.854007 91.621513 67.975802 
C 92.128545 67.097597 92.266091 66.05283 92.003632 65.073319 
C 91.741173 64.093808 91.099671 63.257787 90.221465 62.750755 
" clip-path="url(#paaafdb0f67)" style="fill: none; stroke: #000000; stroke-width: 2; stroke-linejoin: miter"/>
   </g>
   <g id="patch_9">
    <path d="M 82.571465 76.000943 
C 83.449671 76.507975 84.494438 76.645522 85.473948 76.383063 
C 86.453459 76.120603 87.289481 75.479101 87.796513 74.600896 
C 88.303545 73.722691 88.441091 72.677924 88.178632 71.698413 
C 87.916173 70.718903 87.274671 69.882881 86.396465 69.375849 
" clip-path="url(#paaafdb0f67)" style="fill: none; stroke: #000000; stroke-width: 2; stroke-linejoin: miter"/>
   </g>
   <g id="patch_10">
    <path d="M 90.075 192.761509 
C 89.060936 192.761509 88.087368 193.164774 87.370317 193.881826 
C 86.653265 194.598878 86.25 195.572445 86.25 196.586509 
C 86.25 197.600573 86.653265 198.574141 87.370317 199.291193 
C 88.087368 200.008244 89.060936 200.411509 90.075 200.411509 
" clip-path="url(#paaafdb0f67)" style="fill: none; stroke: #000000; stroke-width: 2; stroke-linejoin: miter"/>
   </g>
   <g id="patch_11">
    <path d="M 90.075 185.111509 
C 89.060936 185.111509 88.087368 185.514774 87.370317 186.231826 
C 86.653265 186.948878 86.25 187.922445 86.25 188.936509 
C 86.25 189.950573 86.653265 190.924141 87.370317 191.641193 
C 88.087368 192.358244 89.060936 192.761509 90.075 192.761509 
" clip-path="url(#paaafdb0f67)" style="fill: none; stroke: #000000; stroke-width: 2; stroke-linejoin: miter"/>
   </g>
   <g id="patch_12">
    <path d="M 90.075 177.461509 
C 89.060936 177.461509 88.087368 177.864774 87.370317 178.581826 
C 86.653265 179.298878 86.25 180.272445 86.25 181.286509 
C 86.25 182.300573 86.653265 183.274141 87.370317 183.991193 
C 88.087368 184.708244 89.060936 185.111509 90.075 185.111509 
" clip-path="url(#paaafdb0f67)" style="fill: none; stroke: #000000; stroke-width: 2; stroke-linejoin: miter"/>
   </g>
   <g id="patch_13">
    <path d="M 90.075 169.811509 
C 89.060936 169.811509 88.087368 170.214774 87.370317 170.931826 
C 86.653265 171.648878 86.25 172.622445 86.25 173.636509 
C 86.25 174.650573 86.653265 175.624141 87.370317 176.341193 
C 88.087368 177.058244 89.060936 177.461509 90.075 177.461509 
" clip-path="url(#paaafdb0f67)" style="fill: none; stroke: #000000; stroke-width: 2; stroke-linejoin: miter"/>
   </g>
   <g id="line2d_1">
    <path d="M 12.555 17.91 
L 71.001 17.91 
M 71.001 10.26 
L 71.001 25.56 
M 76.509 10.26 
L 76.509 25.56 
M 76.509 17.91 
L 134.955 17.91 
" clip-path="url(#paaafdb0f67)" style="fill: none; stroke: #000000; stroke-width: 2; stroke-linecap: round"/>
   </g>
   <g id="line2d_2">
    <path d="M 12.555 17.91 
L 27.855 44.410377 
" clip-path="url(#paaafdb0f67)" style="fill: none; stroke: #000000; stroke-width: 2; stroke-linecap: round"/>
   </g>
   <g id="line2d_3">
    <path d="M 73.755 123.911509 
L 58.455 97.411132 
" clip-path="url(#paaafdb0f67)" style="fill: none; stroke: #000000; stroke-width: 2; stroke-linecap: round"/>
   </g>
   <g id="line2d_4">
    <path d="M 38.455151 38.290377 
L 17.254849 50.530377 
" clip-path="url(#paaafdb0f67)" style="fill: none; stroke: #000000; stroke-width: 2; stroke-linecap: round"/>
   </g>
   <g id="line2d_5">
    <path d="M 69.055151 91.291132 
L 47.854849 103.531132 
" clip-path="url(#paaafdb0f67)" style="fill: none; stroke: #000000; stroke-width: 2; stroke-linecap: round"/>
   </g>
   <g id="line2d_6">
    <path d="M 38.455151 38.290377 
L 53.755151 64.790755 
M 56.555245 54.34066 
L 50.955057 75.240849 
M 64.205245 67.590849 
L 43.305057 61.99066 
M 53.755151 64.790755 
L 69.055151 91.291132 
" clip-path="url(#paaafdb0f67)" style="fill: none; stroke: #000000; stroke-width: 2; stroke-linecap: round"/>
   </g>
   <g id="line2d_7">
    <path d="M 17.254849 50.530377 
L 24.904849 63.780566 
M 40.204849 90.280943 
L 47.854849 103.531132 
" clip-path="url(#paaafdb0f67)" style="fill: none; stroke: #000000; stroke-width: 2; stroke-linecap: round"/>
   </g>
   <g id="line2d_8">
    <path d="M 134.955 17.91 
L 119.655 44.410377 
" clip-path="url(#paaafdb0f67)" style="fill: none; stroke: #000000; stroke-width: 2; stroke-linecap: round"/>
   </g>
   <g id="line2d_9">
    <path d="M 73.755 123.911509 
L 89.055 97.411132 
" clip-path="url(#paaafdb0f67)" style="fill: none; stroke: #000000; stroke-width: 2; stroke-linecap: round"/>
   </g>
   <g id="line2d_10">
    <path d="M 133.788535 52.570377 
L 105.521465 36.250377 
" clip-path="url(#paaafdb0f67)" style="fill: none; stroke: #000000; stroke-width: 2; stroke-linecap: round"/>
   </g>
   <g id="line2d_11">
    <path d="M 103.188535 105.571132 
L 74.921465 89.251132 
" clip-path="url(#paaafdb0f67)" style="fill: none; stroke: #000000; stroke-width: 2; stroke-linecap: round"/>
   </g>
   <g id="line2d_12">
    <path d="M 119.655 44.410377 
L 105.732 68.525721 
M 112.357094 72.350721 
L 99.106906 64.700721 
M 109.603094 77.120789 
L 96.352906 69.470789 
M 102.978 73.295789 
L 89.055 97.411132 
" clip-path="url(#paaafdb0f67)" style="fill: none; stroke: #000000; stroke-width: 2; stroke-linecap: round"/>
   </g>
   <g id="line2d_13">
    <path d="M 133.788535 52.570377 
L 118.488535 79.070755 
M 128.938629 76.27066 
L 108.03844 81.870849 
M 121.288629 89.520849 
L 115.68844 68.62066 
M 118.488535 79.070755 
L 103.188535 105.571132 
" clip-path="url(#paaafdb0f67)" style="fill: none; stroke: #000000; stroke-width: 2; stroke-linecap: round"/>
   </g>
   <g id="line2d_14">
    <path d="M 105.521465 36.250377 
L 97.871465 49.500566 
M 82.571465 76.000943 
L 74.921465 89.251132 
" clip-path="url(#paaafdb0f67)" style="fill: none; stroke: #000000; stroke-width: 2; stroke-linecap: round"/>
   </g>
   <g id="line2d_15">
    <path d="M 73.755 246.311509 
L 73.755 215.711509 
" clip-path="url(#paaafdb0f67)" style="fill: none; stroke: #000000; stroke-width: 2; stroke-linecap: round"/>
   </g>
   <g id="line2d_16">
    <path d="M 73.755 123.911509 
L 73.755 154.511509 
" clip-path="url(#paaafdb0f67)" style="fill: none; stroke: #000000; stroke-width: 2; stroke-linecap: round"/>
   </g>
   <g id="line2d_17">
    <path d="M 57.435 215.711509 
L 90.075 215.711509 
" clip-path="url(#paaafdb0f67)" style="fill: none; stroke: #000000; stroke-width: 2; stroke-linecap: round"/>
   </g>
   <g id="line2d_18">
    <path d="M 57.435 154.511509 
L 90.075 154.511509 
" clip-path="url(#paaafdb0f67)" style="fill: none; stroke: #000000; stroke-width: 2; stroke-linecap: round"/>
   </g>
   <g id="line2d_19">
    <path d="M 73.755 215.711509 
L 73.755 187.865509 
M 66.105 187.865509 
L 81.405 187.865509 
M 66.105 182.357509 
L 81.405 182.357509 
M 73.755 182.357509 
L 73.755 154.511509 
" clip-path="url(#paaafdb0f67)" style="fill: none; stroke: #000000; stroke-width: 2; stroke-linecap: round"/>
   </g>
   <g id="line2d_20">
    <path d="M 57.435 215.711509 
L 57.435 185.111509 
M 49.785 192.761509 
L 65.085 177.461509 
M 49.785 177.461509 
L 65.085 192.761509 
M 57.435 185.111509 
L 57.435 154.511509 
" clip-path="url(#paaafdb0f67)" style="fill: none; stroke: #000000; stroke-width: 2; stroke-linecap: round"/>
   </g>
   <g id="line2d_21">
    <path d="M 90.075 215.711509 
L 90.075 200.411509 
M 90.075 169.811509 
L 90.075 154.511509 
" clip-path="url(#paaafdb0f67)" style="fill: none; stroke: #000000; stroke-width: 2; stroke-linecap: round"/>
   </g>
   <g id="patch_14">
    <path d="M 12.555 20.205 
C 13.163641 20.205 13.747436 19.963184 14.17781 19.53281 
C 14.608184 19.102436 14.85 18.518641 14.85 17.91 
C 14.85 17.301359 14.608184 16.717564 14.17781 16.28719 
C 13.747436 15.856816 13.163641 15.615 12.555 15.615 
C 11.946359 15.615 11.362564 15.856816 10.93219 16.28719 
C 10.501816 16.717564 10.26 17.301359 10.26 17.91 
C 10.26 18.518641 10.501816 19.102436 10.93219 19.53281 
C 11.362564 19.963184 11.946359 20.205 12.555 20.205 
z
" clip-path="url(#paaafdb0f67)" style="stroke: #000000; stroke-width: 2; stroke-linejoin: miter"/>
   </g>
   <g id="patch_15">
    <path d="M 134.955 20.205 
C 135.563641 20.205 136.147436 19.963184 136.57781 19.53281 
C 137.008184 19.102436 137.25 18.518641 137.25 17.91 
C 137.25 17.301359 137.008184 16.717564 136.57781 16.28719 
C 136.147436 15.856816 135.563641 15.615 134.955 15.615 
C 134.346359 15.615 133.762564 15.856816 133.33219 16.28719 
C 132.901816 16.717564 132.66 17.301359 132.66 17.91 
C 132.66 18.518641 132.901816 19.102436 133.33219 19.53281 
C 133.762564 19.963184 134.346359 20.205 134.955 20.205 
z
" clip-path="url(#paaafdb0f67)" style="stroke: #000000; stroke-width: 2; stroke-linejoin: miter"/>
   </g>
   <g id="patch_16">
    <path d="M 73.755 126.206509 
C 74.363641 126.206509 74.947436 125.964694 75.37781 125.534319 
C 75.808184 125.103945 76.05 124.520151 76.05 123.911509 
C 76.05 123.302868 75.808184 122.719074 75.37781 122.288699 
C 74.947436 121.858325 74.363641 121.616509 73.755 121.616509 
C 73.146359 121.616509 72.562564 121.858325 72.13219 122.288699 
C 71.701816 122.719074 71.46 123.302868 71.46 123.911509 
C 71.46 124.520151 71.701816 125.103945 72.13219 125.534319 
C 72.562564 125.964694 73.146359 126.206509 73.755 126.206509 
z
" clip-path="url(#paaafdb0f67)" style="stroke: #000000; stroke-width: 2; stroke-linejoin: miter"/>
   </g>
   <g id="patch_17">
    <path d="M 73.755 248.606509 
C 74.363641 248.606509 74.947436 248.364694 75.37781 247.934319 
C 75.808184 247.503945 76.05 246.920151 76.05 246.311509 
C 76.05 245.702868 75.808184 245.119074 75.37781 244.688699 
C 74.947436 244.258325 74.363641 244.016509 73.755 244.016509 
C 73.146359 244.016509 72.562564 244.258325 72.13219 244.688699 
C 71.701816 245.119074 71.46 245.702868 71.46 246.311509 
C 71.46 246.920151 71.701816 247.503945 72.13219 247.934319 
C 72.562564 248.364694 73.146359 248.606509 73.755 248.606509 
z
" clip-path="url(#paaafdb0f67)" style="stroke: #000000; stroke-width: 2; stroke-linejoin: miter"/>
   </g>
  </g>
 </g>
 <defs>
  <clipPath id="paaafdb0f67">
   <rect x="7.2" y="7.2" width="133.11" height="244.466509"/>
  </clipPath>
 </defs>
</svg>
