<?xml version="1.0" encoding="utf-8" standalone="no"?>
<!DOCTYPE svg PUBLIC "-//W3C//DTD SVG 1.1//EN"
  "http://www.w3.org/Graphics/SVG/1.1/DTD/svg11.dtd">
<svg xmlns:xlink="http://www.w3.org/1999/xlink" width="147.51pt" height="255.04149pt" viewBox="0 0 147.51 255.04149" xmlns="http://www.w3.org/2000/svg" version="1.1">
 <metadata>
  <rdf:RDF xmlns:dc="http://purl.org/dc/elements/1.1/" xmlns:cc="http://creativecommons.org/ns#" xmlns:rdf="http://www.w3.org/1999/02/22-rdf-syntax-ns#">
   <cc:Work>
    <dc:type rdf:resource="http://purl.org/dc/dcmitype/StillImage"/>
    <dc:date>2023-03-23T14:47:56.107661</dc:date>
    <dc:format>image/svg+xml</dc:format>
    <dc:creator>
     <cc:Agent>
      <dc:title>Matplotlib v3.5.2, https://matplotlib.org/</dc:title>
     </cc:Agent>
    </dc:creator>
   </cc:Work>
  </rdf:RDF>
 </metadata>
 <defs>
  <style type="text/css">*{stroke-linejoin: round; stroke-linecap: butt}</style>
 </defs>
 <g id="figure_1">
  <g id="patch_1">
   <path d="M 0 255.04149 
L 147.51 255.04149 
L 147.51 0 
L 0 0 
L 0 255.04149 
z
" style="fill: none"/>
  </g>
  <g id="axes_1">
   <g id="patch_2">
    <path d="M 66.105 14.084981 
C 66.105 13.070917 65.701735 12.097349 64.984683 11.380298 
C 64.267632 10.663246 63.294064 10.259981 62.28 10.259981 
C 61.265936 10.259981 60.292368 10.663246 59.575317 11.380298 
C 58.858265 12.097349 58.455 13.070917 58.455 14.084981 
" clip-path="url(#p60410dcab9)" style="fill: none; stroke: #000000; stroke-width: 2; stroke-linejoin: miter"/>
   </g>
   <g id="patch_3">
    <path d="M 73.755 14.084981 
C 73.755 13.070917 73.351735 12.097349 72.634683 11.380298 
C 71.917632 10.663246 70.944064 10.259981 69.93 10.259981 
C 68.915936 10.259981 67.942368 10.663246 67.225317 11.380298 
C 66.508265 12.097349 66.105 13.070917 66.105 14.084981 
" clip-path="url(#p60410dcab9)" style="fill: none; stroke: #000000; stroke-width: 2; stroke-linejoin: miter"/>
   </g>
   <g id="patch_4">
    <path d="M 81.405 14.084981 
C 81.405 13.070917 81.001735 12.097349 80.284683 11.380298 
C 79.567632 10.663246 78.594064 10.259981 77.58 10.259981 
C 76.565936 10.259981 75.592368 10.663246 74.875317 11.380298 
C 74.158265 12.097349 73.755 13.070917 73.755 14.084981 
" clip-path="url(#p60410dcab9)" style="fill: none; stroke: #000000; stroke-width: 2; stroke-linejoin: miter"/>
   </g>
   <g id="patch_5">
    <path d="M 89.055 14.084981 
C 89.055 13.070917 88.651735 12.097349 87.934683 11.380298 
C 87.217632 10.663246 86.244064 10.259981 85.23 10.259981 
C 84.215936 10.259981 83.242368 10.663246 82.525317 11.380298 
C 81.808265 12.097349 81.405 13.070917 81.405 14.084981 
" clip-path="url(#p60410dcab9)" style="fill: none; stroke: #000000; stroke-width: 2; stroke-linejoin: miter"/>
   </g>
   <g id="patch_6">
    <path d="M 97.579849 54.340641 
C 98.458054 54.847673 99.502821 54.98522 100.482332 54.722761 
C 101.461843 54.460301 102.297864 53.818799 102.804896 52.940594 
C 103.311928 52.062389 103.449474 51.017622 103.187015 50.038111 
C 102.924556 49.058601 102.283054 48.222579 101.404849 47.715547 
" clip-path="url(#p60410dcab9)" style="fill: none; stroke: #000000; stroke-width: 2; stroke-linejoin: miter"/>
   </g>
   <g id="patch_7">
    <path d="M 93.754849 60.965736 
C 94.633054 61.472768 95.677821 61.610314 96.657332 61.347855 
C 97.636843 61.085396 98.472864 60.443894 98.979896 59.565689 
C 99.486928 58.687483 99.624474 57.642716 99.362015 56.663206 
C 99.099556 55.683695 98.458054 54.847673 97.579849 54.340641 
" clip-path="url(#p60410dcab9)" style="fill: none; stroke: #000000; stroke-width: 2; stroke-linejoin: miter"/>
   </g>
   <g id="patch_8">
    <path d="M 89.929849 67.59083 
C 90.808054 68.097862 91.852821 68.235408 92.832332 67.972949 
C 93.811843 67.71049 94.647864 67.068988 95.154896 66.190783 
C 95.661928 65.312578 95.799474 64.267811 95.537015 63.2883 
C 95.274556 62.308789 94.633054 61.472768 93.754849 60.965736 
" clip-path="url(#p60410dcab9)" style="fill: none; stroke: #000000; stroke-width: 2; stroke-linejoin: miter"/>
   </g>
   <g id="patch_9">
    <path d="M 86.104849 74.215924 
C 86.983054 74.722956 88.027821 74.860503 89.007332 74.598044 
C 89.986843 74.335584 90.822864 73.694082 91.329896 72.815877 
C 91.836928 71.937672 91.974474 70.892905 91.712015 69.913394 
C 91.449556 68.933884 90.808054 68.097862 89.929849 67.59083 
" clip-path="url(#p60410dcab9)" style="fill: none; stroke: #000000; stroke-width: 2; stroke-linejoin: miter"/>
   </g>
   <g id="patch_10">
    <path d="M 90.075 188.93649 
C 89.060936 188.93649 88.087368 189.339755 87.370317 190.056807 
C 86.653265 190.773859 86.25 191.747426 86.25 192.76149 
C 86.25 193.775554 86.653265 194.749122 87.370317 195.466174 
C 88.087368 196.183225 89.060936 196.58649 90.075 196.58649 
" clip-path="url(#p60410dcab9)" style="fill: none; stroke: #000000; stroke-width: 2; stroke-linejoin: miter"/>
   </g>
   <g id="patch_11">
    <path d="M 90.075 181.28649 
C 89.060936 181.28649 88.087368 181.689755 87.370317 182.406807 
C 86.653265 183.123859 86.25 184.097426 86.25 185.11149 
C 86.25 186.125554 86.653265 187.099122 87.370317 187.816174 
C 88.087368 188.533225 89.060936 188.93649 90.075 188.93649 
" clip-path="url(#p60410dcab9)" style="fill: none; stroke: #000000; stroke-width: 2; stroke-linejoin: miter"/>
   </g>
   <g id="patch_12">
    <path d="M 90.075 173.63649 
C 89.060936 173.63649 88.087368 174.039755 87.370317 174.756807 
C 86.653265 175.473859 86.25 176.447426 86.25 177.46149 
C 86.25 178.475554 86.653265 179.449122 87.370317 180.166174 
C 88.087368 180.883225 89.060936 181.28649 90.075 181.28649 
" clip-path="url(#p60410dcab9)" style="fill: none; stroke: #000000; stroke-width: 2; stroke-linejoin: miter"/>
   </g>
   <g id="patch_13">
    <path d="M 90.075 165.98649 
C 89.060936 165.98649 88.087368 166.389755 87.370317 167.106807 
C 86.653265 167.823859 86.25 168.797426 86.25 169.81149 
C 86.25 170.825554 86.653265 171.799122 87.370317 172.516174 
C 88.087368 173.233225 89.060936 173.63649 90.075 173.63649 
" clip-path="url(#p60410dcab9)" style="fill: none; stroke: #000000; stroke-width: 2; stroke-linejoin: miter"/>
   </g>
   <g id="line2d_1">
    <path d="M 12.555 14.084981 
L 58.455 14.084981 
M 89.055 14.084981 
L 134.955 14.084981 
" clip-path="url(#p60410dcab9)" style="fill: none; stroke: #000000; stroke-width: 2; stroke-linecap: round"/>
   </g>
   <g id="line2d_2">
    <path d="M 12.555 14.084981 
L 41.778 64.700702 
M 48.403094 60.875702 
L 35.152906 68.525702 
M 51.157094 65.64577 
L 37.906906 73.29577 
M 44.532 69.47077 
L 73.755 120.08649 
" clip-path="url(#p60410dcab9)" style="fill: none; stroke: #000000; stroke-width: 2; stroke-linecap: round"/>
   </g>
   <g id="line2d_3">
    <path d="M 134.955 14.084981 
L 119.655 40.585358 
" clip-path="url(#p60410dcab9)" style="fill: none; stroke: #000000; stroke-width: 2; stroke-linecap: round"/>
   </g>
   <g id="line2d_4">
    <path d="M 73.755 120.08649 
L 89.055 93.586113 
" clip-path="url(#p60410dcab9)" style="fill: none; stroke: #000000; stroke-width: 2; stroke-linecap: round"/>
   </g>
   <g id="line2d_5">
    <path d="M 130.255151 46.705358 
L 109.054849 34.465358 
" clip-path="url(#p60410dcab9)" style="fill: none; stroke: #000000; stroke-width: 2; stroke-linecap: round"/>
   </g>
   <g id="line2d_6">
    <path d="M 99.655151 99.706113 
L 78.454849 87.466113 
" clip-path="url(#p60410dcab9)" style="fill: none; stroke: #000000; stroke-width: 2; stroke-linecap: round"/>
   </g>
   <g id="line2d_7">
    <path d="M 130.255151 46.705358 
L 114.955151 73.205736 
M 125.405245 70.405641 
L 104.505057 76.00583 
M 117.755245 83.65583 
L 112.155057 62.755641 
M 114.955151 73.205736 
L 99.655151 99.706113 
" clip-path="url(#p60410dcab9)" style="fill: none; stroke: #000000; stroke-width: 2; stroke-linecap: round"/>
   </g>
   <g id="line2d_8">
    <path d="M 109.054849 34.465358 
L 101.404849 47.715547 
M 86.104849 74.215924 
L 78.454849 87.466113 
" clip-path="url(#p60410dcab9)" style="fill: none; stroke: #000000; stroke-width: 2; stroke-linecap: round"/>
   </g>
   <g id="line2d_9">
    <path d="M 73.755 242.48649 
L 73.755 211.88649 
" clip-path="url(#p60410dcab9)" style="fill: none; stroke: #000000; stroke-width: 2; stroke-linecap: round"/>
   </g>
   <g id="line2d_10">
    <path d="M 73.755 120.08649 
L 73.755 150.68649 
" clip-path="url(#p60410dcab9)" style="fill: none; stroke: #000000; stroke-width: 2; stroke-linecap: round"/>
   </g>
   <g id="line2d_11">
    <path d="M 57.435 211.88649 
L 90.075 211.88649 
" clip-path="url(#p60410dcab9)" style="fill: none; stroke: #000000; stroke-width: 2; stroke-linecap: round"/>
   </g>
   <g id="line2d_12">
    <path d="M 57.435 150.68649 
L 90.075 150.68649 
" clip-path="url(#p60410dcab9)" style="fill: none; stroke: #000000; stroke-width: 2; stroke-linecap: round"/>
   </g>
   <g id="line2d_13">
    <path d="M 73.755 211.88649 
L 73.755 184.04049 
M 66.105 184.04049 
L 81.405 184.04049 
M 66.105 178.53249 
L 81.405 178.53249 
M 73.755 178.53249 
L 73.755 150.68649 
" clip-path="url(#p60410dcab9)" style="fill: none; stroke: #000000; stroke-width: 2; stroke-linecap: round"/>
   </g>
   <g id="line2d_14">
    <path d="M 57.435 211.88649 
L 57.435 181.28649 
M 49.785 188.93649 
L 65.085 173.63649 
M 49.785 173.63649 
L 65.085 188.93649 
M 57.435 181.28649 
L 57.435 150.68649 
" clip-path="url(#p60410dcab9)" style="fill: none; stroke: #000000; stroke-width: 2; stroke-linecap: round"/>
   </g>
   <g id="line2d_15">
    <path d="M 90.075 211.88649 
L 90.075 196.58649 
M 90.075 165.98649 
L 90.075 150.68649 
" clip-path="url(#p60410dcab9)" style="fill: none; stroke: #000000; stroke-width: 2; stroke-linecap: round"/>
   </g>
   <g id="patch_14">
    <path d="M 12.555 16.379981 
C 13.163641 16.379981 13.747436 16.138165 14.17781 15.707791 
C 14.608184 15.277417 14.85 14.693622 14.85 14.084981 
C 14.85 13.47634 14.608184 12.892545 14.17781 12.462171 
C 13.747436 12.031797 13.163641 11.789981 12.555 11.789981 
C 11.946359 11.789981 11.362564 12.031797 10.93219 12.462171 
C 10.501816 12.892545 10.26 13.47634 10.26 14.084981 
C 10.26 14.693622 10.501816 15.277417 10.93219 15.707791 
C 11.362564 16.138165 11.946359 16.379981 12.555 16.379981 
z
" clip-path="url(#p60410dcab9)" style="stroke: #000000; stroke-width: 2; stroke-linejoin: miter"/>
   </g>
   <g id="patch_15">
    <path d="M 134.955 16.379981 
C 135.563641 16.379981 136.147436 16.138165 136.57781 15.707791 
C 137.008184 15.277417 137.25 14.693622 137.25 14.084981 
C 137.25 13.47634 137.008184 12.892545 136.57781 12.462171 
C 136.147436 12.031797 135.563641 11.789981 134.955 11.789981 
C 134.346359 11.789981 133.762564 12.031797 133.33219 12.462171 
C 132.901816 12.892545 132.66 13.47634 132.66 14.084981 
C 132.66 14.693622 132.901816 15.277417 133.33219 15.707791 
C 133.762564 16.138165 134.346359 16.379981 134.955 16.379981 
z
" clip-path="url(#p60410dcab9)" style="stroke: #000000; stroke-width: 2; stroke-linejoin: miter"/>
   </g>
   <g id="patch_16">
    <path d="M 73.755 122.38149 
C 74.363641 122.38149 74.947436 122.139675 75.37781 121.709301 
C 75.808184 121.278926 76.05 120.695132 76.05 120.08649 
C 76.05 119.477849 75.808184 118.894055 75.37781 118.46368 
C 74.947436 118.033306 74.363641 117.79149 73.755 117.79149 
C 73.146359 117.79149 72.562564 118.033306 72.13219 118.46368 
C 71.701816 118.894055 71.46 119.477849 71.46 120.08649 
C 71.46 120.695132 71.701816 121.278926 72.13219 121.709301 
C 72.562564 122.139675 73.146359 122.38149 73.755 122.38149 
z
" clip-path="url(#p60410dcab9)" style="stroke: #000000; stroke-width: 2; stroke-linejoin: miter"/>
   </g>
   <g id="patch_17">
    <path d="M 73.755 244.78149 
C 74.363641 244.78149 74.947436 244.539675 75.37781 244.109301 
C 75.808184 243.678926 76.05 243.095132 76.05 242.48649 
C 76.05 241.877849 75.808184 241.294055 75.37781 240.86368 
C 74.947436 240.433306 74.363641 240.19149 73.755 240.19149 
C 73.146359 240.19149 72.562564 240.433306 72.13219 240.86368 
C 71.701816 241.294055 71.46 241.877849 71.46 242.48649 
C 71.46 243.095132 71.701816 243.678926 72.13219 244.109301 
C 72.562564 244.539675 73.146359 244.78149 73.755 244.78149 
z
" clip-path="url(#p60410dcab9)" style="stroke: #000000; stroke-width: 2; stroke-linejoin: miter"/>
   </g>
  </g>
 </g>
 <defs>
  <clipPath id="p60410dcab9">
   <rect x="7.2" y="7.2" width="133.11" height="240.64149"/>
  </clipPath>
 </defs>
</svg>
