<?xml version="1.0" encoding="utf-8" standalone="no"?>
<!DOCTYPE svg PUBLIC "-//W3C//DTD SVG 1.1//EN"
  "http://www.w3.org/Graphics/SVG/1.1/DTD/svg11.dtd">
<svg xmlns:xlink="http://www.w3.org/1999/xlink" width="147.51pt" height="255.04149pt" viewBox="0 0 147.51 255.04149" xmlns="http://www.w3.org/2000/svg" version="1.1">
 <metadata>
  <rdf:RDF xmlns:dc="http://purl.org/dc/elements/1.1/" xmlns:cc="http://creativecommons.org/ns#" xmlns:rdf="http://www.w3.org/1999/02/22-rdf-syntax-ns#">
   <cc:Work>
    <dc:type rdf:resource="http://purl.org/dc/dcmitype/StillImage"/>
    <dc:date>2023-03-23T14:45:54.296509</dc:date>
    <dc:format>image/svg+xml</dc:format>
    <dc:creator>
     <cc:Agent>
      <dc:title>Matplotlib v3.5.2, https://matplotlib.org/</dc:title>
     </cc:Agent>
    </dc:creator>
   </cc:Work>
  </rdf:RDF>
 </metadata>
 <defs>
  <style type="text/css">*{stroke-linejoin: round; stroke-linecap: butt}</style>
 </defs>
 <g id="figure_1">
  <g id="patch_1">
   <path d="M 0 255.04149 
L 147.51 255.04149 
L 147.51 0 
L 0 0 
L 0 255.04149 
z
" style="fill: none"/>
  </g>
  <g id="axes_1">
   <g id="patch_2">
    <path d="M 66.105 14.084981 
C 66.105 13.070917 65.701735 12.097349 64.984683 11.380298 
C 64.267632 10.663246 63.294064 10.259981 62.28 10.259981 
C 61.265936 10.259981 60.292368 10.663246 59.575317 11.380298 
C 58.858265 12.097349 58.455 13.070917 58.455 14.084981 
" clip-path="url(#p4259bc95de)" style="fill: none; stroke: #000000; stroke-width: 2; stroke-linejoin: miter"/>
   </g>
   <g id="patch_3">
    <path d="M 73.755 14.084981 
C 73.755 13.070917 73.351735 12.097349 72.634683 11.380298 
C 71.917632 10.663246 70.944064 10.259981 69.93 10.259981 
C 68.915936 10.259981 67.942368 10.663246 67.225317 11.380298 
C 66.508265 12.097349 66.105 13.070917 66.105 14.084981 
" clip-path="url(#p4259bc95de)" style="fill: none; stroke: #000000; stroke-width: 2; stroke-linejoin: miter"/>
   </g>
   <g id="patch_4">
    <path d="M 81.405 14.084981 
C 81.405 13.070917 81.001735 12.097349 80.284683 11.380298 
C 79.567632 10.663246 78.594064 10.259981 77.58 10.259981 
C 76.565936 10.259981 75.592368 10.663246 74.875317 11.380298 
C 74.158265 12.097349 73.755 13.070917 73.755 14.084981 
" clip-path="url(#p4259bc95de)" style="fill: none; stroke: #000000; stroke-width: 2; stroke-linejoin: miter"/>
   </g>
   <g id="patch_5">
    <path d="M 89.055 14.084981 
C 89.055 13.070917 88.651735 12.097349 87.934683 11.380298 
C 87.217632 10.663246 86.244064 10.259981 85.23 10.259981 
C 84.215936 10.259981 83.242368 10.663246 82.525317 11.380298 
C 81.808265 12.097349 81.405 13.070917 81.405 14.084981 
" clip-path="url(#p4259bc95de)" style="fill: none; stroke: #000000; stroke-width: 2; stroke-linejoin: miter"/>
   </g>
   <g id="patch_6">
    <path d="M 94.046465 52.300641 
C 94.924671 52.807673 95.969438 52.94522 96.948948 52.682761 
C 97.928459 52.420301 98.764481 51.778799 99.271513 50.900594 
C 99.778545 50.022389 99.916091 48.977622 99.653632 47.998111 
C 99.391173 47.018601 98.749671 46.182579 97.871465 45.675547 
" clip-path="url(#p4259bc95de)" style="fill: none; stroke: #000000; stroke-width: 2; stroke-linejoin: miter"/>
   </g>
   <g id="patch_7">
    <path d="M 90.221465 58.925736 
C 91.099671 59.432768 92.144438 59.570314 93.123948 59.307855 
C 94.103459 59.045396 94.939481 58.403894 95.446513 57.525689 
C 95.953545 56.647483 96.091091 55.602716 95.828632 54.623206 
C 95.566173 53.643695 94.924671 52.807673 94.046465 52.300641 
" clip-path="url(#p4259bc95de)" style="fill: none; stroke: #000000; stroke-width: 2; stroke-linejoin: miter"/>
   </g>
   <g id="patch_8">
    <path d="M 86.396465 65.55083 
C 87.274671 66.057862 88.319438 66.195408 89.298948 65.932949 
C 90.278459 65.67049 91.114481 65.028988 91.621513 64.150783 
C 92.128545 63.272578 92.266091 62.227811 92.003632 61.2483 
C 91.741173 60.268789 91.099671 59.432768 90.221465 58.925736 
" clip-path="url(#p4259bc95de)" style="fill: none; stroke: #000000; stroke-width: 2; stroke-linejoin: miter"/>
   </g>
   <g id="patch_9">
    <path d="M 82.571465 72.175924 
C 83.449671 72.682956 84.494438 72.820503 85.473948 72.558044 
C 86.453459 72.295584 87.289481 71.654082 87.796513 70.775877 
C 88.303545 69.897672 88.441091 68.852905 88.178632 67.873394 
C 87.916173 66.893884 87.274671 66.057862 86.396465 65.55083 
" clip-path="url(#p4259bc95de)" style="fill: none; stroke: #000000; stroke-width: 2; stroke-linejoin: miter"/>
   </g>
   <g id="line2d_1">
    <path d="M 12.555 14.084981 
L 58.455 14.084981 
M 89.055 14.084981 
L 134.955 14.084981 
" clip-path="url(#p4259bc95de)" style="fill: none; stroke: #000000; stroke-width: 2; stroke-linecap: round"/>
   </g>
   <g id="line2d_2">
    <path d="M 12.555 14.084981 
L 43.155 67.085736 
M 45.955094 56.635641 
L 40.354906 77.53583 
M 53.605094 69.88583 
L 32.704906 64.285641 
M 43.155 67.085736 
L 73.755 120.08649 
" clip-path="url(#p4259bc95de)" style="fill: none; stroke: #000000; stroke-width: 2; stroke-linecap: round"/>
   </g>
   <g id="line2d_3">
    <path d="M 134.955 14.084981 
L 119.655 40.585358 
" clip-path="url(#p4259bc95de)" style="fill: none; stroke: #000000; stroke-width: 2; stroke-linecap: round"/>
   </g>
   <g id="line2d_4">
    <path d="M 73.755 120.08649 
L 89.055 93.586113 
" clip-path="url(#p4259bc95de)" style="fill: none; stroke: #000000; stroke-width: 2; stroke-linecap: round"/>
   </g>
   <g id="line2d_5">
    <path d="M 133.788535 48.745358 
L 105.521465 32.425358 
" clip-path="url(#p4259bc95de)" style="fill: none; stroke: #000000; stroke-width: 2; stroke-linecap: round"/>
   </g>
   <g id="line2d_6">
    <path d="M 103.188535 101.746113 
L 74.921465 85.426113 
" clip-path="url(#p4259bc95de)" style="fill: none; stroke: #000000; stroke-width: 2; stroke-linecap: round"/>
   </g>
   <g id="line2d_7">
    <path d="M 119.655 40.585358 
L 105.732 64.700702 
M 112.357094 68.525702 
L 99.106906 60.875702 
M 109.603094 73.29577 
L 96.352906 65.64577 
M 102.978 69.47077 
L 89.055 93.586113 
" clip-path="url(#p4259bc95de)" style="fill: none; stroke: #000000; stroke-width: 2; stroke-linecap: round"/>
   </g>
   <g id="line2d_8">
    <path d="M 133.788535 48.745358 
L 118.488535 75.245736 
M 128.938629 72.445641 
L 108.03844 78.04583 
M 121.288629 85.69583 
L 115.68844 64.795641 
M 118.488535 75.245736 
L 103.188535 101.746113 
" clip-path="url(#p4259bc95de)" style="fill: none; stroke: #000000; stroke-width: 2; stroke-linecap: round"/>
   </g>
   <g id="line2d_9">
    <path d="M 105.521465 32.425358 
L 97.871465 45.675547 
M 82.571465 72.175924 
L 74.921465 85.426113 
" clip-path="url(#p4259bc95de)" style="fill: none; stroke: #000000; stroke-width: 2; stroke-linecap: round"/>
   </g>
   <g id="line2d_10">
    <path d="M 73.755 242.48649 
L 73.755 181.28649 
M 66.105 188.93649 
L 81.405 173.63649 
M 66.105 173.63649 
L 81.405 188.93649 
M 73.755 181.28649 
L 73.755 120.08649 
" clip-path="url(#p4259bc95de)" style="fill: none; stroke: #000000; stroke-width: 2; stroke-linecap: round"/>
   </g>
   <g id="patch_10">
    <path d="M 12.555 16.379981 
C 13.163641 16.379981 13.747436 16.138165 14.17781 15.707791 
C 14.608184 15.277417 14.85 14.693622 14.85 14.084981 
C 14.85 13.47634 14.608184 12.892545 14.17781 12.462171 
C 13.747436 12.031797 13.163641 11.789981 12.555 11.789981 
C 11.946359 11.789981 11.362564 12.031797 10.93219 12.462171 
C 10.501816 12.892545 10.26 13.47634 10.26 14.084981 
C 10.26 14.693622 10.501816 15.277417 10.93219 15.707791 
C 11.362564 16.138165 11.946359 16.379981 12.555 16.379981 
z
" clip-path="url(#p4259bc95de)" style="stroke: #000000; stroke-width: 2; stroke-linejoin: miter"/>
   </g>
   <g id="patch_11">
    <path d="M 134.955 16.379981 
C 135.563641 16.379981 136.147436 16.138165 136.57781 15.707791 
C 137.008184 15.277417 137.25 14.693622 137.25 14.084981 
C 137.25 13.47634 137.008184 12.892545 136.57781 12.462171 
C 136.147436 12.031797 135.563641 11.789981 134.955 11.789981 
C 134.346359 11.789981 133.762564 12.031797 133.33219 12.462171 
C 132.901816 12.892545 132.66 13.47634 132.66 14.084981 
C 132.66 14.693622 132.901816 15.277417 133.33219 15.707791 
C 133.762564 16.138165 134.346359 16.379981 134.955 16.379981 
z
" clip-path="url(#p4259bc95de)" style="stroke: #000000; stroke-width: 2; stroke-linejoin: miter"/>
   </g>
   <g id="patch_12">
    <path d="M 73.755 122.38149 
C 74.363641 122.38149 74.947436 122.139675 75.37781 121.709301 
C 75.808184 121.278926 76.05 120.695132 76.05 120.08649 
C 76.05 119.477849 75.808184 118.894055 75.37781 118.46368 
C 74.947436 118.033306 74.363641 117.79149 73.755 117.79149 
C 73.146359 117.79149 72.562564 118.033306 72.13219 118.46368 
C 71.701816 118.894055 71.46 119.477849 71.46 120.08649 
C 71.46 120.695132 71.701816 121.278926 72.13219 121.709301 
C 72.562564 122.139675 73.146359 122.38149 73.755 122.38149 
z
" clip-path="url(#p4259bc95de)" style="stroke: #000000; stroke-width: 2; stroke-linejoin: miter"/>
   </g>
   <g id="patch_13">
    <path d="M 73.755 244.78149 
C 74.363641 244.78149 74.947436 244.539675 75.37781 244.109301 
C 75.808184 243.678926 76.05 243.095132 76.05 242.48649 
C 76.05 241.877849 75.808184 241.294055 75.37781 240.86368 
C 74.947436 240.433306 74.363641 240.19149 73.755 240.19149 
C 73.146359 240.19149 72.562564 240.433306 72.13219 240.86368 
C 71.701816 241.294055 71.46 241.877849 71.46 242.48649 
C 71.46 243.095132 71.701816 243.678926 72.13219 244.109301 
C 72.562564 244.539675 73.146359 244.78149 73.755 244.78149 
z
" clip-path="url(#p4259bc95de)" style="stroke: #000000; stroke-width: 2; stroke-linejoin: miter"/>
   </g>
  </g>
 </g>
 <defs>
  <clipPath id="p4259bc95de">
   <rect x="7.2" y="7.2" width="133.11" height="240.64149"/>
  </clipPath>
 </defs>
</svg>
