<?xml version="1.0" encoding="utf-8" standalone="no"?>
<!DOCTYPE svg PUBLIC "-//W3C//DTD SVG 1.1//EN"
  "http://www.w3.org/Graphics/SVG/1.1/DTD/svg11.dtd">
<svg xmlns:xlink="http://www.w3.org/1999/xlink" width="190.86pt" height="157.455pt" viewBox="0 0 190.86 157.455" xmlns="http://www.w3.org/2000/svg" version="1.1">
 <metadata>
  <rdf:RDF xmlns:dc="http://purl.org/dc/elements/1.1/" xmlns:cc="http://creativecommons.org/ns#" xmlns:rdf="http://www.w3.org/1999/02/22-rdf-syntax-ns#">
   <cc:Work>
    <dc:type rdf:resource="http://purl.org/dc/dcmitype/StillImage"/>
    <dc:date>2023-03-23T14:51:14.114714</dc:date>
    <dc:format>image/svg+xml</dc:format>
    <dc:creator>
     <cc:Agent>
      <dc:title>Matplotlib v3.5.2, https://matplotlib.org/</dc:title>
     </cc:Agent>
    </dc:creator>
   </cc:Work>
  </rdf:RDF>
 </metadata>
 <defs>
  <style type="text/css">*{stroke-linejoin: round; stroke-linecap: butt}</style>
 </defs>
 <g id="figure_1">
  <g id="patch_1">
   <path d="M 0 157.455 
L 190.86 157.455 
L 190.86 0 
L 0 0 
L 0 157.455 
z
" style="fill: none"/>
  </g>
  <g id="axes_1">
   <g id="patch_2">
    <path d="M 87.78 144.9 
C 87.78 143.885936 87.376735 142.912368 86.659683 142.195317 
C 85.942632 141.478265 84.969064 141.075 83.955 141.075 
C 82.940936 141.075 81.967368 141.478265 81.250317 142.195317 
C 80.533265 142.912368 80.13 143.885936 80.13 144.9 
" clip-path="url(#p224272cad5)" style="fill: none; stroke: #000000; stroke-width: 2; stroke-linejoin: miter"/>
   </g>
   <g id="patch_3">
    <path d="M 95.43 144.9 
C 95.43 143.885936 95.026735 142.912368 94.309683 142.195317 
C 93.592632 141.478265 92.619064 141.075 91.605 141.075 
C 90.590936 141.075 89.617368 141.478265 88.900317 142.195317 
C 88.183265 142.912368 87.78 143.885936 87.78 144.9 
" clip-path="url(#p224272cad5)" style="fill: none; stroke: #000000; stroke-width: 2; stroke-linejoin: miter"/>
   </g>
   <g id="patch_4">
    <path d="M 103.08 144.9 
C 103.08 143.885936 102.676735 142.912368 101.959683 142.195317 
C 101.242632 141.478265 100.269064 141.075 99.255 141.075 
C 98.240936 141.075 97.267368 141.478265 96.550317 142.195317 
C 95.833265 142.912368 95.43 143.885936 95.43 144.9 
" clip-path="url(#p224272cad5)" style="fill: none; stroke: #000000; stroke-width: 2; stroke-linejoin: miter"/>
   </g>
   <g id="patch_5">
    <path d="M 110.73 144.9 
C 110.73 143.885936 110.326735 142.912368 109.609683 142.195317 
C 108.892632 141.478265 107.919064 141.075 106.905 141.075 
C 105.890936 141.075 104.917368 141.478265 104.200317 142.195317 
C 103.483265 142.912368 103.08 143.885936 103.08 144.9 
" clip-path="url(#p224272cad5)" style="fill: none; stroke: #000000; stroke-width: 2; stroke-linejoin: miter"/>
   </g>
   <g id="patch_6">
    <path d="M 50.55 91.35 
C 49.535936 91.35 48.562368 91.753265 47.845317 92.470317 
C 47.128265 93.187368 46.725 94.160936 46.725 95.175 
C 46.725 96.189064 47.128265 97.162632 47.845317 97.879683 
C 48.562368 98.596735 49.535936 99 50.55 99 
" clip-path="url(#p224272cad5)" style="fill: none; stroke: #000000; stroke-width: 2; stroke-linejoin: miter"/>
   </g>
   <g id="patch_7">
    <path d="M 50.55 83.7 
C 49.535936 83.7 48.562368 84.103265 47.845317 84.820317 
C 47.128265 85.537368 46.725 86.510936 46.725 87.525 
C 46.725 88.539064 47.128265 89.512632 47.845317 90.229683 
C 48.562368 90.946735 49.535936 91.35 50.55 91.35 
" clip-path="url(#p224272cad5)" style="fill: none; stroke: #000000; stroke-width: 2; stroke-linejoin: miter"/>
   </g>
   <g id="patch_8">
    <path d="M 50.55 76.05 
C 49.535936 76.05 48.562368 76.453265 47.845317 77.170317 
C 47.128265 77.887368 46.725 78.860936 46.725 79.875 
C 46.725 80.889064 47.128265 81.862632 47.845317 82.579683 
C 48.562368 83.296735 49.535936 83.7 50.55 83.7 
" clip-path="url(#p224272cad5)" style="fill: none; stroke: #000000; stroke-width: 2; stroke-linejoin: miter"/>
   </g>
   <g id="patch_9">
    <path d="M 50.55 68.4 
C 49.535936 68.4 48.562368 68.803265 47.845317 69.520317 
C 47.128265 70.237368 46.725 71.210936 46.725 72.225 
C 46.725 73.239064 47.128265 74.212632 47.845317 74.929683 
C 48.562368 75.646735 49.535936 76.05 50.55 76.05 
" clip-path="url(#p224272cad5)" style="fill: none; stroke: #000000; stroke-width: 2; stroke-linejoin: miter"/>
   </g>
   <g id="patch_10">
    <path d="M 140.31 76.05 
C 141.324064 76.05 142.297632 75.646735 143.014683 74.929683 
C 143.731735 74.212632 144.135 73.239064 144.135 72.225 
C 144.135 71.210936 143.731735 70.237368 143.014683 69.520317 
C 142.297632 68.803265 141.324064 68.4 140.31 68.4 
" clip-path="url(#p224272cad5)" style="fill: none; stroke: #000000; stroke-width: 2; stroke-linejoin: miter"/>
   </g>
   <g id="patch_11">
    <path d="M 140.31 83.7 
C 141.324064 83.7 142.297632 83.296735 143.014683 82.579683 
C 143.731735 81.862632 144.135 80.889064 144.135 79.875 
C 144.135 78.860936 143.731735 77.887368 143.014683 77.170317 
C 142.297632 76.453265 141.324064 76.05 140.31 76.05 
" clip-path="url(#p224272cad5)" style="fill: none; stroke: #000000; stroke-width: 2; stroke-linejoin: miter"/>
   </g>
   <g id="patch_12">
    <path d="M 140.31 91.35 
C 141.324064 91.35 142.297632 90.946735 143.014683 90.229683 
C 143.731735 89.512632 144.135 88.539064 144.135 87.525 
C 144.135 86.510936 143.731735 85.537368 143.014683 84.820317 
C 142.297632 84.103265 141.324064 83.7 140.31 83.7 
" clip-path="url(#p224272cad5)" style="fill: none; stroke: #000000; stroke-width: 2; stroke-linejoin: miter"/>
   </g>
   <g id="patch_13">
    <path d="M 140.31 99 
C 141.324064 99 142.297632 98.596735 143.014683 97.879683 
C 143.731735 97.162632 144.135 96.189064 144.135 95.175 
C 144.135 94.160936 143.731735 93.187368 143.014683 92.470317 
C 142.297632 91.753265 141.324064 91.35 140.31 91.35 
" clip-path="url(#p224272cad5)" style="fill: none; stroke: #000000; stroke-width: 2; stroke-linejoin: miter"/>
   </g>
   <g id="patch_14">
    <path d="M 103.08 10.26 
C 103.08 11.274064 103.483265 12.247632 104.200317 12.964683 
C 104.917368 13.681735 105.890936 14.085 106.905 14.085 
C 107.919064 14.085 108.892632 13.681735 109.609683 12.964683 
C 110.326735 12.247632 110.73 11.274064 110.73 10.26 
" clip-path="url(#p224272cad5)" style="fill: none; stroke: #000000; stroke-width: 2; stroke-linejoin: miter"/>
   </g>
   <g id="patch_15">
    <path d="M 95.43 10.26 
C 95.43 11.274064 95.833265 12.247632 96.550317 12.964683 
C 97.267368 13.681735 98.240936 14.085 99.255 14.085 
C 100.269064 14.085 101.242632 13.681735 101.959683 12.964683 
C 102.676735 12.247632 103.08 11.274064 103.08 10.26 
" clip-path="url(#p224272cad5)" style="fill: none; stroke: #000000; stroke-width: 2; stroke-linejoin: miter"/>
   </g>
   <g id="patch_16">
    <path d="M 87.78 10.26 
C 87.78 11.274064 88.183265 12.247632 88.900317 12.964683 
C 89.617368 13.681735 90.590936 14.085 91.605 14.085 
C 92.619064 14.085 93.592632 13.681735 94.309683 12.964683 
C 95.026735 12.247632 95.43 11.274064 95.43 10.26 
" clip-path="url(#p224272cad5)" style="fill: none; stroke: #000000; stroke-width: 2; stroke-linejoin: miter"/>
   </g>
   <g id="patch_17">
    <path d="M 80.13 10.26 
C 80.13 11.274064 80.533265 12.247632 81.250317 12.964683 
C 81.967368 13.681735 82.940936 14.085 83.955 14.085 
C 84.969064 14.085 85.942632 13.681735 86.659683 12.964683 
C 87.376735 12.247632 87.78 11.274064 87.78 10.26 
" clip-path="url(#p224272cad5)" style="fill: none; stroke: #000000; stroke-width: 2; stroke-linejoin: miter"/>
   </g>
   <g id="line2d_1">
    <path d="M 34.23 144.9 
L 80.13 144.9 
M 110.73 144.9 
L 156.63 144.9 
" clip-path="url(#p224272cad5)" style="fill: none; stroke: #000000; stroke-width: 2; stroke-linecap: round"/>
   </g>
   <g id="line2d_2">
    <path d="M 34.23 144.9 
L 34.23 114.3 
" clip-path="url(#p224272cad5)" style="fill: none; stroke: #000000; stroke-width: 2; stroke-linecap: round"/>
   </g>
   <g id="line2d_3">
    <path d="M 34.23 22.5 
L 34.23 53.1 
" clip-path="url(#p224272cad5)" style="fill: none; stroke: #000000; stroke-width: 2; stroke-linecap: round"/>
   </g>
   <g id="line2d_4">
    <path d="M 17.91 114.3 
L 50.55 114.3 
" clip-path="url(#p224272cad5)" style="fill: none; stroke: #000000; stroke-width: 2; stroke-linecap: round"/>
   </g>
   <g id="line2d_5">
    <path d="M 17.91 53.1 
L 50.55 53.1 
" clip-path="url(#p224272cad5)" style="fill: none; stroke: #000000; stroke-width: 2; stroke-linecap: round"/>
   </g>
   <g id="line2d_6">
    <path d="M 34.23 114.3 
L 34.23 86.454 
M 26.58 86.454 
L 41.88 86.454 
M 26.58 80.946 
L 41.88 80.946 
M 34.23 80.946 
L 34.23 53.1 
" clip-path="url(#p224272cad5)" style="fill: none; stroke: #000000; stroke-width: 2; stroke-linecap: round"/>
   </g>
   <g id="line2d_7">
    <path d="M 17.91 114.3 
L 17.91 83.7 
M 10.26 91.35 
L 25.56 76.05 
M 10.26 76.05 
L 25.56 91.35 
M 17.91 83.7 
L 17.91 53.1 
" clip-path="url(#p224272cad5)" style="fill: none; stroke: #000000; stroke-width: 2; stroke-linecap: round"/>
   </g>
   <g id="line2d_8">
    <path d="M 50.55 114.3 
L 50.55 99 
M 50.55 68.4 
L 50.55 53.1 
" clip-path="url(#p224272cad5)" style="fill: none; stroke: #000000; stroke-width: 2; stroke-linecap: round"/>
   </g>
   <g id="line2d_9">
    <path d="M 156.63 22.5 
L 156.63 53.1 
" clip-path="url(#p224272cad5)" style="fill: none; stroke: #000000; stroke-width: 2; stroke-linecap: round"/>
   </g>
   <g id="line2d_10">
    <path d="M 156.63 144.9 
L 156.63 114.3 
" clip-path="url(#p224272cad5)" style="fill: none; stroke: #000000; stroke-width: 2; stroke-linecap: round"/>
   </g>
   <g id="line2d_11">
    <path d="M 172.95 53.1 
L 140.31 53.1 
" clip-path="url(#p224272cad5)" style="fill: none; stroke: #000000; stroke-width: 2; stroke-linecap: round"/>
   </g>
   <g id="line2d_12">
    <path d="M 172.95 114.3 
L 140.31 114.3 
" clip-path="url(#p224272cad5)" style="fill: none; stroke: #000000; stroke-width: 2; stroke-linecap: round"/>
   </g>
   <g id="line2d_13">
    <path d="M 156.63 53.1 
L 156.63 80.946 
M 164.28 80.946 
L 148.98 80.946 
M 164.28 86.454 
L 148.98 86.454 
M 156.63 86.454 
L 156.63 114.3 
" clip-path="url(#p224272cad5)" style="fill: none; stroke: #000000; stroke-width: 2; stroke-linecap: round"/>
   </g>
   <g id="line2d_14">
    <path d="M 172.95 53.1 
L 172.95 83.7 
M 180.6 76.05 
L 165.3 91.35 
M 180.6 91.35 
L 165.3 76.05 
M 172.95 83.7 
L 172.95 114.3 
" clip-path="url(#p224272cad5)" style="fill: none; stroke: #000000; stroke-width: 2; stroke-linecap: round"/>
   </g>
   <g id="line2d_15">
    <path d="M 140.31 53.1 
L 140.31 68.4 
M 140.31 99 
L 140.31 114.3 
" clip-path="url(#p224272cad5)" style="fill: none; stroke: #000000; stroke-width: 2; stroke-linecap: round"/>
   </g>
   <g id="line2d_16">
    <path d="M 156.63 22.5 
L 126.03 22.5 
" clip-path="url(#p224272cad5)" style="fill: none; stroke: #000000; stroke-width: 2; stroke-linecap: round"/>
   </g>
   <g id="line2d_17">
    <path d="M 34.23 22.5 
L 64.83 22.5 
" clip-path="url(#p224272cad5)" style="fill: none; stroke: #000000; stroke-width: 2; stroke-linecap: round"/>
   </g>
   <g id="line2d_18">
    <path d="M 126.03 34.74 
L 126.03 10.26 
" clip-path="url(#p224272cad5)" style="fill: none; stroke: #000000; stroke-width: 2; stroke-linecap: round"/>
   </g>
   <g id="line2d_19">
    <path d="M 64.83 34.74 
L 64.83 10.26 
" clip-path="url(#p224272cad5)" style="fill: none; stroke: #000000; stroke-width: 2; stroke-linecap: round"/>
   </g>
   <g id="line2d_20">
    <path d="M 126.03 34.74 
L 98.184 34.74 
M 98.184 42.39 
L 98.184 27.09 
M 92.676 42.39 
L 92.676 27.09 
M 92.676 34.74 
L 64.83 34.74 
" clip-path="url(#p224272cad5)" style="fill: none; stroke: #000000; stroke-width: 2; stroke-linecap: round"/>
   </g>
   <g id="line2d_21">
    <path d="M 126.03 10.26 
L 110.73 10.26 
M 80.13 10.26 
L 64.83 10.26 
" clip-path="url(#p224272cad5)" style="fill: none; stroke: #000000; stroke-width: 2; stroke-linecap: round"/>
   </g>
   <g id="patch_18">
    <path d="M 34.23 147.195 
C 34.838641 147.195 35.422436 146.953184 35.85281 146.52281 
C 36.283184 146.092436 36.525 145.508641 36.525 144.9 
C 36.525 144.291359 36.283184 143.707564 35.85281 143.27719 
C 35.422436 142.846816 34.838641 142.605 34.23 142.605 
C 33.621359 142.605 33.037564 142.846816 32.60719 143.27719 
C 32.176816 143.707564 31.935 144.291359 31.935 144.9 
C 31.935 145.508641 32.176816 146.092436 32.60719 146.52281 
C 33.037564 146.953184 33.621359 147.195 34.23 147.195 
z
" clip-path="url(#p224272cad5)" style="stroke: #000000; stroke-width: 2; stroke-linejoin: miter"/>
   </g>
   <g id="patch_19">
    <path d="M 156.63 147.195 
C 157.238641 147.195 157.822436 146.953184 158.25281 146.52281 
C 158.683184 146.092436 158.925 145.508641 158.925 144.9 
C 158.925 144.291359 158.683184 143.707564 158.25281 143.27719 
C 157.822436 142.846816 157.238641 142.605 156.63 142.605 
C 156.021359 142.605 155.437564 142.846816 155.00719 143.27719 
C 154.576816 143.707564 154.335 144.291359 154.335 144.9 
C 154.335 145.508641 154.576816 146.092436 155.00719 146.52281 
C 155.437564 146.953184 156.021359 147.195 156.63 147.195 
z
" clip-path="url(#p224272cad5)" style="stroke: #000000; stroke-width: 2; stroke-linejoin: miter"/>
   </g>
   <g id="patch_20">
    <path d="M 34.23 24.795 
C 34.838641 24.795 35.422436 24.553184 35.85281 24.12281 
C 36.283184 23.692436 36.525 23.108641 36.525 22.5 
C 36.525 21.891359 36.283184 21.307564 35.85281 20.87719 
C 35.422436 20.446816 34.838641 20.205 34.23 20.205 
C 33.621359 20.205 33.037564 20.446816 32.60719 20.87719 
C 32.176816 21.307564 31.935 21.891359 31.935 22.5 
C 31.935 23.108641 32.176816 23.692436 32.60719 24.12281 
C 33.037564 24.553184 33.621359 24.795 34.23 24.795 
z
" clip-path="url(#p224272cad5)" style="stroke: #000000; stroke-width: 2; stroke-linejoin: miter"/>
   </g>
   <g id="patch_21">
    <path d="M 156.63 24.795 
C 157.238641 24.795 157.822436 24.553184 158.25281 24.12281 
C 158.683184 23.692436 158.925 23.108641 158.925 22.5 
C 158.925 21.891359 158.683184 21.307564 158.25281 20.87719 
C 157.822436 20.446816 157.238641 20.205 156.63 20.205 
C 156.021359 20.205 155.437564 20.446816 155.00719 20.87719 
C 154.576816 21.307564 154.335 21.891359 154.335 22.5 
C 154.335 23.108641 154.576816 23.692436 155.00719 24.12281 
C 155.437564 24.553184 156.021359 24.795 156.63 24.795 
z
" clip-path="url(#p224272cad5)" style="stroke: #000000; stroke-width: 2; stroke-linejoin: miter"/>
   </g>
  </g>
 </g>
 <defs>
  <clipPath id="p224272cad5">
   <rect x="7.2" y="7.2" width="176.46" height="143.055"/>
  </clipPath>
 </defs>
</svg>
