<?xml version="1.0" encoding="utf-8" standalone="no"?>
<!DOCTYPE svg PUBLIC "-//W3C//DTD SVG 1.1//EN"
  "http://www.w3.org/Graphics/SVG/1.1/DTD/svg11.dtd">
<svg xmlns:xlink="http://www.w3.org/1999/xlink" width="166.634981pt" height="158.22pt" viewBox="0 0 166.634981 158.22" xmlns="http://www.w3.org/2000/svg" version="1.1">
 <metadata>
  <rdf:RDF xmlns:dc="http://purl.org/dc/elements/1.1/" xmlns:cc="http://creativecommons.org/ns#" xmlns:rdf="http://www.w3.org/1999/02/22-rdf-syntax-ns#">
   <cc:Work>
    <dc:type rdf:resource="http://purl.org/dc/dcmitype/StillImage"/>
    <dc:date>2023-03-23T14:42:23.524145</dc:date>
    <dc:format>image/svg+xml</dc:format>
    <dc:creator>
     <cc:Agent>
      <dc:title>Matplotlib v3.5.2, https://matplotlib.org/</dc:title>
     </cc:Agent>
    </dc:creator>
   </cc:Work>
  </rdf:RDF>
 </metadata>
 <defs>
  <style type="text/css">*{stroke-linejoin: round; stroke-linecap: butt}</style>
 </defs>
 <g id="figure_1">
  <g id="patch_1">
   <path d="M -0 158.22 
L 166.634981 158.22 
L 166.634981 0 
L -0 0 
L -0 158.22 
z
" style="fill: none"/>
  </g>
  <g id="axes_1">
   <g id="patch_2">
    <path d="M 14.084981 86.76 
C 13.070917 86.76 12.097349 87.163265 11.380298 87.880317 
C 10.663246 88.597368 10.259981 89.570936 10.259981 90.585 
C 10.259981 91.599064 10.663246 92.572632 11.380298 93.289683 
C 12.097349 94.006735 13.070917 94.41 14.084981 94.41 
" clip-path="url(#pd14d8207b5)" style="fill: none; stroke: #000000; stroke-width: 2; stroke-linejoin: miter"/>
   </g>
   <g id="patch_3">
    <path d="M 14.084981 79.11 
C 13.070917 79.11 12.097349 79.513265 11.380298 80.230317 
C 10.663246 80.947368 10.259981 81.920936 10.259981 82.935 
C 10.259981 83.949064 10.663246 84.922632 11.380298 85.639683 
C 12.097349 86.356735 13.070917 86.76 14.084981 86.76 
" clip-path="url(#pd14d8207b5)" style="fill: none; stroke: #000000; stroke-width: 2; stroke-linejoin: miter"/>
   </g>
   <g id="patch_4">
    <path d="M 14.084981 71.46 
C 13.070917 71.46 12.097349 71.863265 11.380298 72.580317 
C 10.663246 73.297368 10.259981 74.270936 10.259981 75.285 
C 10.259981 76.299064 10.663246 77.272632 11.380298 77.989683 
C 12.097349 78.706735 13.070917 79.11 14.084981 79.11 
" clip-path="url(#pd14d8207b5)" style="fill: none; stroke: #000000; stroke-width: 2; stroke-linejoin: miter"/>
   </g>
   <g id="patch_5">
    <path d="M 14.084981 63.81 
C 13.070917 63.81 12.097349 64.213265 11.380298 64.930317 
C 10.663246 65.647368 10.259981 66.620936 10.259981 67.635 
C 10.259981 68.649064 10.663246 69.622632 11.380298 70.339683 
C 12.097349 71.056735 13.070917 71.46 14.084981 71.46 
" clip-path="url(#pd14d8207b5)" style="fill: none; stroke: #000000; stroke-width: 2; stroke-linejoin: miter"/>
   </g>
   <g id="patch_6">
    <path d="M 124.244981 71.46 
C 125.259045 71.46 126.232613 71.056735 126.949664 70.339683 
C 127.666716 69.622632 128.069981 68.649064 128.069981 67.635 
C 128.069981 66.620936 127.666716 65.647368 126.949664 64.930317 
C 126.232613 64.213265 125.259045 63.81 124.244981 63.81 
" clip-path="url(#pd14d8207b5)" style="fill: none; stroke: #000000; stroke-width: 2; stroke-linejoin: miter"/>
   </g>
   <g id="patch_7">
    <path d="M 124.244981 79.11 
C 125.259045 79.11 126.232613 78.706735 126.949664 77.989683 
C 127.666716 77.272632 128.069981 76.299064 128.069981 75.285 
C 128.069981 74.270936 127.666716 73.297368 126.949664 72.580317 
C 126.232613 71.863265 125.259045 71.46 124.244981 71.46 
" clip-path="url(#pd14d8207b5)" style="fill: none; stroke: #000000; stroke-width: 2; stroke-linejoin: miter"/>
   </g>
   <g id="patch_8">
    <path d="M 124.244981 86.76 
C 125.259045 86.76 126.232613 86.356735 126.949664 85.639683 
C 127.666716 84.922632 128.069981 83.949064 128.069981 82.935 
C 128.069981 81.920936 127.666716 80.947368 126.949664 80.230317 
C 126.232613 79.513265 125.259045 79.11 124.244981 79.11 
" clip-path="url(#pd14d8207b5)" style="fill: none; stroke: #000000; stroke-width: 2; stroke-linejoin: miter"/>
   </g>
   <g id="patch_9">
    <path d="M 124.244981 94.41 
C 125.259045 94.41 126.232613 94.006735 126.949664 93.289683 
C 127.666716 92.572632 128.069981 91.599064 128.069981 90.585 
C 128.069981 89.570936 127.666716 88.597368 126.949664 87.880317 
C 126.232613 87.163265 125.259045 86.76 124.244981 86.76 
" clip-path="url(#pd14d8207b5)" style="fill: none; stroke: #000000; stroke-width: 2; stroke-linejoin: miter"/>
   </g>
   <g id="line2d_1">
    <path d="M 14.084981 140.31 
L 72.530981 140.31 
M 72.530981 132.66 
L 72.530981 147.96 
M 78.038981 132.66 
L 78.038981 147.96 
M 78.038981 140.31 
L 136.484981 140.31 
" clip-path="url(#pd14d8207b5)" style="fill: none; stroke: #000000; stroke-width: 2; stroke-linecap: round"/>
   </g>
   <g id="line2d_2">
    <path d="M 14.084981 140.31 
L 14.084981 94.41 
M 14.084981 63.81 
L 14.084981 17.91 
" clip-path="url(#pd14d8207b5)" style="fill: none; stroke: #000000; stroke-width: 2; stroke-linecap: round"/>
   </g>
   <g id="line2d_3">
    <path d="M 136.484981 17.91 
L 136.484981 48.51 
" clip-path="url(#pd14d8207b5)" style="fill: none; stroke: #000000; stroke-width: 2; stroke-linecap: round"/>
   </g>
   <g id="line2d_4">
    <path d="M 136.484981 140.31 
L 136.484981 109.71 
" clip-path="url(#pd14d8207b5)" style="fill: none; stroke: #000000; stroke-width: 2; stroke-linecap: round"/>
   </g>
   <g id="line2d_5">
    <path d="M 148.724981 48.51 
L 124.244981 48.51 
" clip-path="url(#pd14d8207b5)" style="fill: none; stroke: #000000; stroke-width: 2; stroke-linecap: round"/>
   </g>
   <g id="line2d_6">
    <path d="M 148.724981 109.71 
L 124.244981 109.71 
" clip-path="url(#pd14d8207b5)" style="fill: none; stroke: #000000; stroke-width: 2; stroke-linecap: round"/>
   </g>
   <g id="line2d_7">
    <path d="M 148.724981 48.51 
L 148.724981 79.11 
M 156.374981 71.46 
L 141.074981 86.76 
M 156.374981 86.76 
L 141.074981 71.46 
M 148.724981 79.11 
L 148.724981 109.71 
" clip-path="url(#pd14d8207b5)" style="fill: none; stroke: #000000; stroke-width: 2; stroke-linecap: round"/>
   </g>
   <g id="line2d_8">
    <path d="M 124.244981 48.51 
L 124.244981 63.81 
M 124.244981 94.41 
L 124.244981 109.71 
" clip-path="url(#pd14d8207b5)" style="fill: none; stroke: #000000; stroke-width: 2; stroke-linecap: round"/>
   </g>
   <g id="line2d_9">
    <path d="M 136.484981 17.91 
L 78.038981 17.91 
M 78.038981 25.56 
L 78.038981 10.26 
M 72.530981 25.56 
L 72.530981 10.26 
M 72.530981 17.91 
L 14.084981 17.91 
" clip-path="url(#pd14d8207b5)" style="fill: none; stroke: #000000; stroke-width: 2; stroke-linecap: round"/>
   </g>
   <g id="patch_10">
    <path d="M 14.084981 142.605 
C 14.693622 142.605 15.277417 142.363184 15.707791 141.93281 
C 16.138165 141.502436 16.379981 140.918641 16.379981 140.31 
C 16.379981 139.701359 16.138165 139.117564 15.707791 138.68719 
C 15.277417 138.256816 14.693622 138.015 14.084981 138.015 
C 13.47634 138.015 12.892545 138.256816 12.462171 138.68719 
C 12.031797 139.117564 11.789981 139.701359 11.789981 140.31 
C 11.789981 140.918641 12.031797 141.502436 12.462171 141.93281 
C 12.892545 142.363184 13.47634 142.605 14.084981 142.605 
z
" clip-path="url(#pd14d8207b5)" style="stroke: #000000; stroke-width: 2; stroke-linejoin: miter"/>
   </g>
   <g id="patch_11">
    <path d="M 136.484981 142.605 
C 137.093622 142.605 137.677417 142.363184 138.107791 141.93281 
C 138.538165 141.502436 138.779981 140.918641 138.779981 140.31 
C 138.779981 139.701359 138.538165 139.117564 138.107791 138.68719 
C 137.677417 138.256816 137.093622 138.015 136.484981 138.015 
C 135.87634 138.015 135.292545 138.256816 134.862171 138.68719 
C 134.431797 139.117564 134.189981 139.701359 134.189981 140.31 
C 134.189981 140.918641 134.431797 141.502436 134.862171 141.93281 
C 135.292545 142.363184 135.87634 142.605 136.484981 142.605 
z
" clip-path="url(#pd14d8207b5)" style="stroke: #000000; stroke-width: 2; stroke-linejoin: miter"/>
   </g>
   <g id="patch_12">
    <path d="M 14.084981 20.205 
C 14.693622 20.205 15.277417 19.963184 15.707791 19.53281 
C 16.138165 19.102436 16.379981 18.518641 16.379981 17.91 
C 16.379981 17.301359 16.138165 16.717564 15.707791 16.28719 
C 15.277417 15.856816 14.693622 15.615 14.084981 15.615 
C 13.47634 15.615 12.892545 15.856816 12.462171 16.28719 
C 12.031797 16.717564 11.789981 17.301359 11.789981 17.91 
C 11.789981 18.518641 12.031797 19.102436 12.462171 19.53281 
C 12.892545 19.963184 13.47634 20.205 14.084981 20.205 
z
" clip-path="url(#pd14d8207b5)" style="stroke: #000000; stroke-width: 2; stroke-linejoin: miter"/>
   </g>
   <g id="patch_13">
    <path d="M 136.484981 20.205 
C 137.093622 20.205 137.677417 19.963184 138.107791 19.53281 
C 138.538165 19.102436 138.779981 18.518641 138.779981 17.91 
C 138.779981 17.301359 138.538165 16.717564 138.107791 16.28719 
C 137.677417 15.856816 137.093622 15.615 136.484981 15.615 
C 135.87634 15.615 135.292545 15.856816 134.862171 16.28719 
C 134.431797 16.717564 134.189981 17.301359 134.189981 17.91 
C 134.189981 18.518641 134.431797 19.102436 134.862171 19.53281 
C 135.292545 19.963184 135.87634 20.205 136.484981 20.205 
z
" clip-path="url(#pd14d8207b5)" style="stroke: #000000; stroke-width: 2; stroke-linejoin: miter"/>
   </g>
  </g>
 </g>
 <defs>
  <clipPath id="pd14d8207b5">
   <rect x="7.2" y="7.2" width="152.234981" height="143.82"/>
  </clipPath>
 </defs>
</svg>
