<?xml version="1.0" encoding="utf-8" standalone="no"?>
<!DOCTYPE svg PUBLIC "-//W3C//DTD SVG 1.1//EN"
  "http://www.w3.org/Graphics/SVG/1.1/DTD/svg11.dtd">
<svg xmlns:xlink="http://www.w3.org/1999/xlink" width="182.7pt" height="170.46pt" viewBox="0 0 182.7 170.46" xmlns="http://www.w3.org/2000/svg" version="1.1">
 <metadata>
  <rdf:RDF xmlns:dc="http://purl.org/dc/elements/1.1/" xmlns:cc="http://creativecommons.org/ns#" xmlns:rdf="http://www.w3.org/1999/02/22-rdf-syntax-ns#">
   <cc:Work>
    <dc:type rdf:resource="http://purl.org/dc/dcmitype/StillImage"/>
    <dc:date>2023-03-23T14:41:04.293535</dc:date>
    <dc:format>image/svg+xml</dc:format>
    <dc:creator>
     <cc:Agent>
      <dc:title>Matplotlib v3.5.2, https://matplotlib.org/</dc:title>
     </cc:Agent>
    </dc:creator>
   </cc:Work>
  </rdf:RDF>
 </metadata>
 <defs>
  <style type="text/css">*{stroke-linejoin: round; stroke-linecap: butt}</style>
 </defs>
 <g id="figure_1">
  <g id="patch_1">
   <path d="M 0 170.46 
L 182.7 170.46 
L 182.7 0 
L 0 0 
L 0 170.46 
z
" style="fill: none"/>
  </g>
  <g id="axes_1">
   <g id="line2d_1">
    <path d="M 30.15 152.55 
L 88.596 152.55 
M 88.596 144.9 
L 88.596 160.2 
M 94.104 144.9 
L 94.104 160.2 
M 94.104 152.55 
L 152.55 152.55 
" clip-path="url(#p23915e57f9)" style="fill: none; stroke: #000000; stroke-width: 2; stroke-linecap: round"/>
   </g>
   <g id="line2d_2">
    <path d="M 30.15 152.55 
L 30.15 121.95 
" clip-path="url(#p23915e57f9)" style="fill: none; stroke: #000000; stroke-width: 2; stroke-linecap: round"/>
   </g>
   <g id="line2d_3">
    <path d="M 30.15 30.15 
L 30.15 60.75 
" clip-path="url(#p23915e57f9)" style="fill: none; stroke: #000000; stroke-width: 2; stroke-linecap: round"/>
   </g>
   <g id="line2d_4">
    <path d="M 17.91 121.95 
L 42.39 121.95 
" clip-path="url(#p23915e57f9)" style="fill: none; stroke: #000000; stroke-width: 2; stroke-linecap: round"/>
   </g>
   <g id="line2d_5">
    <path d="M 17.91 60.75 
L 42.39 60.75 
" clip-path="url(#p23915e57f9)" style="fill: none; stroke: #000000; stroke-width: 2; stroke-linecap: round"/>
   </g>
   <g id="line2d_6">
    <path d="M 17.91 121.95 
L 17.91 94.104 
M 10.26 94.104 
L 25.56 94.104 
M 10.26 88.596 
L 25.56 88.596 
M 17.91 88.596 
L 17.91 60.75 
" clip-path="url(#p23915e57f9)" style="fill: none; stroke: #000000; stroke-width: 2; stroke-linecap: round"/>
   </g>
   <g id="line2d_7">
    <path d="M 42.39 121.95 
L 42.39 91.35 
M 34.74 99 
L 50.04 83.7 
M 34.74 83.7 
L 50.04 99 
M 42.39 91.35 
L 42.39 60.75 
" clip-path="url(#p23915e57f9)" style="fill: none; stroke: #000000; stroke-width: 2; stroke-linecap: round"/>
   </g>
   <g id="line2d_8">
    <path d="M 152.55 30.15 
L 152.55 60.75 
" clip-path="url(#p23915e57f9)" style="fill: none; stroke: #000000; stroke-width: 2; stroke-linecap: round"/>
   </g>
   <g id="line2d_9">
    <path d="M 152.55 152.55 
L 152.55 121.95 
" clip-path="url(#p23915e57f9)" style="fill: none; stroke: #000000; stroke-width: 2; stroke-linecap: round"/>
   </g>
   <g id="line2d_10">
    <path d="M 164.79 60.75 
L 140.31 60.75 
" clip-path="url(#p23915e57f9)" style="fill: none; stroke: #000000; stroke-width: 2; stroke-linecap: round"/>
   </g>
   <g id="line2d_11">
    <path d="M 164.79 121.95 
L 140.31 121.95 
" clip-path="url(#p23915e57f9)" style="fill: none; stroke: #000000; stroke-width: 2; stroke-linecap: round"/>
   </g>
   <g id="line2d_12">
    <path d="M 164.79 60.75 
L 164.79 88.596 
M 172.44 88.596 
L 157.14 88.596 
M 172.44 94.104 
L 157.14 94.104 
M 164.79 94.104 
L 164.79 121.95 
" clip-path="url(#p23915e57f9)" style="fill: none; stroke: #000000; stroke-width: 2; stroke-linecap: round"/>
   </g>
   <g id="line2d_13">
    <path d="M 140.31 60.75 
L 140.31 91.35 
M 147.96 83.7 
L 132.66 99 
M 147.96 99 
L 132.66 83.7 
M 140.31 91.35 
L 140.31 121.95 
" clip-path="url(#p23915e57f9)" style="fill: none; stroke: #000000; stroke-width: 2; stroke-linecap: round"/>
   </g>
   <g id="line2d_14">
    <path d="M 152.55 30.15 
L 121.95 30.15 
" clip-path="url(#p23915e57f9)" style="fill: none; stroke: #000000; stroke-width: 2; stroke-linecap: round"/>
   </g>
   <g id="line2d_15">
    <path d="M 30.15 30.15 
L 60.75 30.15 
" clip-path="url(#p23915e57f9)" style="fill: none; stroke: #000000; stroke-width: 2; stroke-linecap: round"/>
   </g>
   <g id="line2d_16">
    <path d="M 121.95 42.39 
L 121.95 17.91 
" clip-path="url(#p23915e57f9)" style="fill: none; stroke: #000000; stroke-width: 2; stroke-linecap: round"/>
   </g>
   <g id="line2d_17">
    <path d="M 60.75 42.39 
L 60.75 17.91 
" clip-path="url(#p23915e57f9)" style="fill: none; stroke: #000000; stroke-width: 2; stroke-linecap: round"/>
   </g>
   <g id="line2d_18">
    <path d="M 121.95 42.39 
L 94.104 42.39 
M 94.104 50.04 
L 94.104 34.74 
M 88.596 50.04 
L 88.596 34.74 
M 88.596 42.39 
L 60.75 42.39 
" clip-path="url(#p23915e57f9)" style="fill: none; stroke: #000000; stroke-width: 2; stroke-linecap: round"/>
   </g>
   <g id="line2d_19">
    <path d="M 121.95 17.91 
L 91.35 17.91 
M 99 25.56 
L 83.7 10.26 
M 83.7 25.56 
L 99 10.26 
M 91.35 17.91 
L 60.75 17.91 
" clip-path="url(#p23915e57f9)" style="fill: none; stroke: #000000; stroke-width: 2; stroke-linecap: round"/>
   </g>
   <g id="patch_2">
    <path d="M 30.15 154.845 
C 30.758641 154.845 31.342436 154.603184 31.77281 154.17281 
C 32.203184 153.742436 32.445 153.158641 32.445 152.55 
C 32.445 151.941359 32.203184 151.357564 31.77281 150.92719 
C 31.342436 150.496816 30.758641 150.255 30.15 150.255 
C 29.541359 150.255 28.957564 150.496816 28.52719 150.92719 
C 28.096816 151.357564 27.855 151.941359 27.855 152.55 
C 27.855 153.158641 28.096816 153.742436 28.52719 154.17281 
C 28.957564 154.603184 29.541359 154.845 30.15 154.845 
z
" clip-path="url(#p23915e57f9)" style="stroke: #000000; stroke-width: 2; stroke-linejoin: miter"/>
   </g>
   <g id="patch_3">
    <path d="M 152.55 154.845 
C 153.158641 154.845 153.742436 154.603184 154.17281 154.17281 
C 154.603184 153.742436 154.845 153.158641 154.845 152.55 
C 154.845 151.941359 154.603184 151.357564 154.17281 150.92719 
C 153.742436 150.496816 153.158641 150.255 152.55 150.255 
C 151.941359 150.255 151.357564 150.496816 150.92719 150.92719 
C 150.496816 151.357564 150.255 151.941359 150.255 152.55 
C 150.255 153.158641 150.496816 153.742436 150.92719 154.17281 
C 151.357564 154.603184 151.941359 154.845 152.55 154.845 
z
" clip-path="url(#p23915e57f9)" style="stroke: #000000; stroke-width: 2; stroke-linejoin: miter"/>
   </g>
   <g id="patch_4">
    <path d="M 30.15 32.445 
C 30.758641 32.445 31.342436 32.203184 31.77281 31.77281 
C 32.203184 31.342436 32.445 30.758641 32.445 30.15 
C 32.445 29.541359 32.203184 28.957564 31.77281 28.52719 
C 31.342436 28.096816 30.758641 27.855 30.15 27.855 
C 29.541359 27.855 28.957564 28.096816 28.52719 28.52719 
C 28.096816 28.957564 27.855 29.541359 27.855 30.15 
C 27.855 30.758641 28.096816 31.342436 28.52719 31.77281 
C 28.957564 32.203184 29.541359 32.445 30.15 32.445 
z
" clip-path="url(#p23915e57f9)" style="stroke: #000000; stroke-width: 2; stroke-linejoin: miter"/>
   </g>
   <g id="patch_5">
    <path d="M 152.55 32.445 
C 153.158641 32.445 153.742436 32.203184 154.17281 31.77281 
C 154.603184 31.342436 154.845 30.758641 154.845 30.15 
C 154.845 29.541359 154.603184 28.957564 154.17281 28.52719 
C 153.742436 28.096816 153.158641 27.855 152.55 27.855 
C 151.941359 27.855 151.357564 28.096816 150.92719 28.52719 
C 150.496816 28.957564 150.255 29.541359 150.255 30.15 
C 150.255 30.758641 150.496816 31.342436 150.92719 31.77281 
C 151.357564 32.203184 151.941359 32.445 152.55 32.445 
z
" clip-path="url(#p23915e57f9)" style="stroke: #000000; stroke-width: 2; stroke-linejoin: miter"/>
   </g>
  </g>
 </g>
 <defs>
  <clipPath id="p23915e57f9">
   <rect x="7.2" y="7.2" width="168.3" height="156.06"/>
  </clipPath>
 </defs>
</svg>
