<?xml version="1.0" encoding="utf-8" standalone="no"?>
<!DOCTYPE svg PUBLIC "-//W3C//DTD SVG 1.1//EN"
  "http://www.w3.org/Graphics/SVG/1.1/DTD/svg11.dtd">
<svg xmlns:xlink="http://www.w3.org/1999/xlink" width="158.22pt" height="158.22pt" viewBox="0 0 158.22 158.22" xmlns="http://www.w3.org/2000/svg" version="1.1">
 <metadata>
  <rdf:RDF xmlns:dc="http://purl.org/dc/elements/1.1/" xmlns:cc="http://creativecommons.org/ns#" xmlns:rdf="http://www.w3.org/1999/02/22-rdf-syntax-ns#">
   <cc:Work>
    <dc:type rdf:resource="http://purl.org/dc/dcmitype/StillImage"/>
    <dc:date>2023-03-23T14:40:41.004586</dc:date>
    <dc:format>image/svg+xml</dc:format>
    <dc:creator>
     <cc:Agent>
      <dc:title>Matplotlib v3.5.2, https://matplotlib.org/</dc:title>
     </cc:Agent>
    </dc:creator>
   </cc:Work>
  </rdf:RDF>
 </metadata>
 <defs>
  <style type="text/css">*{stroke-linejoin: round; stroke-linecap: butt}</style>
 </defs>
 <g id="figure_1">
  <g id="patch_1">
   <path d="M 0 158.22 
L 158.22 158.22 
L 158.22 0 
L 0 0 
L 0 158.22 
z
" style="fill: none"/>
  </g>
  <g id="axes_1">
   <g id="line2d_1">
    <path d="M 17.91 140.31 
L 76.356 140.31 
M 76.356 132.66 
L 76.356 147.96 
M 81.864 132.66 
L 81.864 147.96 
M 81.864 140.31 
L 140.31 140.31 
" clip-path="url(#p17e0dc8404)" style="fill: none; stroke: #000000; stroke-width: 2; stroke-linecap: round"/>
   </g>
   <g id="line2d_2">
    <path d="M 17.91 140.31 
L 17.91 79.11 
M 10.26 86.76 
L 25.56 71.46 
M 10.26 71.46 
L 25.56 86.76 
M 17.91 79.11 
L 17.91 17.91 
" clip-path="url(#p17e0dc8404)" style="fill: none; stroke: #000000; stroke-width: 2; stroke-linecap: round"/>
   </g>
   <g id="line2d_3">
    <path d="M 140.31 17.91 
L 140.31 79.11 
M 147.96 71.46 
L 132.66 86.76 
M 147.96 86.76 
L 132.66 71.46 
M 140.31 79.11 
L 140.31 140.31 
" clip-path="url(#p17e0dc8404)" style="fill: none; stroke: #000000; stroke-width: 2; stroke-linecap: round"/>
   </g>
   <g id="line2d_4">
    <path d="M 140.31 17.91 
L 81.864 17.91 
M 81.864 25.56 
L 81.864 10.26 
M 76.356 25.56 
L 76.356 10.26 
M 76.356 17.91 
L 17.91 17.91 
" clip-path="url(#p17e0dc8404)" style="fill: none; stroke: #000000; stroke-width: 2; stroke-linecap: round"/>
   </g>
   <g id="patch_2">
    <path d="M 17.91 142.605 
C 18.518641 142.605 19.102436 142.363184 19.53281 141.93281 
C 19.963184 141.502436 20.205 140.918641 20.205 140.31 
C 20.205 139.701359 19.963184 139.117564 19.53281 138.68719 
C 19.102436 138.256816 18.518641 138.015 17.91 138.015 
C 17.301359 138.015 16.717564 138.256816 16.28719 138.68719 
C 15.856816 139.117564 15.615 139.701359 15.615 140.31 
C 15.615 140.918641 15.856816 141.502436 16.28719 141.93281 
C 16.717564 142.363184 17.301359 142.605 17.91 142.605 
z
" clip-path="url(#p17e0dc8404)" style="stroke: #000000; stroke-width: 2; stroke-linejoin: miter"/>
   </g>
   <g id="patch_3">
    <path d="M 140.31 142.605 
C 140.918641 142.605 141.502436 142.363184 141.93281 141.93281 
C 142.363184 141.502436 142.605 140.918641 142.605 140.31 
C 142.605 139.701359 142.363184 139.117564 141.93281 138.68719 
C 141.502436 138.256816 140.918641 138.015 140.31 138.015 
C 139.701359 138.015 139.117564 138.256816 138.68719 138.68719 
C 138.256816 139.117564 138.015 139.701359 138.015 140.31 
C 138.015 140.918641 138.256816 141.502436 138.68719 141.93281 
C 139.117564 142.363184 139.701359 142.605 140.31 142.605 
z
" clip-path="url(#p17e0dc8404)" style="stroke: #000000; stroke-width: 2; stroke-linejoin: miter"/>
   </g>
   <g id="patch_4">
    <path d="M 17.91 20.205 
C 18.518641 20.205 19.102436 19.963184 19.53281 19.53281 
C 19.963184 19.102436 20.205 18.518641 20.205 17.91 
C 20.205 17.301359 19.963184 16.717564 19.53281 16.28719 
C 19.102436 15.856816 18.518641 15.615 17.91 15.615 
C 17.301359 15.615 16.717564 15.856816 16.28719 16.28719 
C 15.856816 16.717564 15.615 17.301359 15.615 17.91 
C 15.615 18.518641 15.856816 19.102436 16.28719 19.53281 
C 16.717564 19.963184 17.301359 20.205 17.91 20.205 
z
" clip-path="url(#p17e0dc8404)" style="stroke: #000000; stroke-width: 2; stroke-linejoin: miter"/>
   </g>
   <g id="patch_5">
    <path d="M 140.31 20.205 
C 140.918641 20.205 141.502436 19.963184 141.93281 19.53281 
C 142.363184 19.102436 142.605 18.518641 142.605 17.91 
C 142.605 17.301359 142.363184 16.717564 141.93281 16.28719 
C 141.502436 15.856816 140.918641 15.615 140.31 15.615 
C 139.701359 15.615 139.117564 15.856816 138.68719 16.28719 
C 138.256816 16.717564 138.015 17.301359 138.015 17.91 
C 138.015 18.518641 138.256816 19.102436 138.68719 19.53281 
C 139.117564 19.963184 139.701359 20.205 140.31 20.205 
z
" clip-path="url(#p17e0dc8404)" style="stroke: #000000; stroke-width: 2; stroke-linejoin: miter"/>
   </g>
  </g>
 </g>
 <defs>
  <clipPath id="p17e0dc8404">
   <rect x="7.2" y="7.2" width="143.82" height="143.82"/>
  </clipPath>
 </defs>
</svg>
