<?xml version="1.0" encoding="utf-8" standalone="no"?>
<!DOCTYPE svg PUBLIC "-//W3C//DTD SVG 1.1//EN"
  "http://www.w3.org/Graphics/SVG/1.1/DTD/svg11.dtd">
<svg xmlns:xlink="http://www.w3.org/1999/xlink" width="170.46pt" height="162.81pt" viewBox="0 0 170.46 162.81" xmlns="http://www.w3.org/2000/svg" version="1.1">
 <metadata>
  <rdf:RDF xmlns:dc="http://purl.org/dc/elements/1.1/" xmlns:cc="http://creativecommons.org/ns#" xmlns:rdf="http://www.w3.org/1999/02/22-rdf-syntax-ns#">
   <cc:Work>
    <dc:type rdf:resource="http://purl.org/dc/dcmitype/StillImage"/>
    <dc:date>2023-03-23T14:41:46.991897</dc:date>
    <dc:format>image/svg+xml</dc:format>
    <dc:creator>
     <cc:Agent>
      <dc:title>Matplotlib v3.5.2, https://matplotlib.org/</dc:title>
     </cc:Agent>
    </dc:creator>
   </cc:Work>
  </rdf:RDF>
 </metadata>
 <defs>
  <style type="text/css">*{stroke-linejoin: round; stroke-linecap: butt}</style>
 </defs>
 <g id="figure_1">
  <g id="patch_1">
   <path d="M 0 162.81 
L 170.46 162.81 
L 170.46 0 
L 0 0 
L 0 162.81 
z
" style="fill: none"/>
  </g>
  <g id="axes_1">
   <g id="patch_2">
    <path d="M 128.07 76.05 
C 129.084064 76.05 130.057632 75.646735 130.774683 74.929683 
C 131.491735 74.212632 131.895 73.239064 131.895 72.225 
C 131.895 71.210936 131.491735 70.237368 130.774683 69.520317 
C 130.057632 68.803265 129.084064 68.4 128.07 68.4 
" clip-path="url(#p6a011fa3b7)" style="fill: none; stroke: #000000; stroke-width: 2; stroke-linejoin: miter"/>
   </g>
   <g id="patch_3">
    <path d="M 128.07 83.7 
C 129.084064 83.7 130.057632 83.296735 130.774683 82.579683 
C 131.491735 81.862632 131.895 80.889064 131.895 79.875 
C 131.895 78.860936 131.491735 77.887368 130.774683 77.170317 
C 130.057632 76.453265 129.084064 76.05 128.07 76.05 
" clip-path="url(#p6a011fa3b7)" style="fill: none; stroke: #000000; stroke-width: 2; stroke-linejoin: miter"/>
   </g>
   <g id="patch_4">
    <path d="M 128.07 91.35 
C 129.084064 91.35 130.057632 90.946735 130.774683 90.229683 
C 131.491735 89.512632 131.895 88.539064 131.895 87.525 
C 131.895 86.510936 131.491735 85.537368 130.774683 84.820317 
C 130.057632 84.103265 129.084064 83.7 128.07 83.7 
" clip-path="url(#p6a011fa3b7)" style="fill: none; stroke: #000000; stroke-width: 2; stroke-linejoin: miter"/>
   </g>
   <g id="patch_5">
    <path d="M 128.07 99 
C 129.084064 99 130.057632 98.596735 130.774683 97.879683 
C 131.491735 97.162632 131.895 96.189064 131.895 95.175 
C 131.895 94.160936 131.491735 93.187368 130.774683 92.470317 
C 130.057632 91.753265 129.084064 91.35 128.07 91.35 
" clip-path="url(#p6a011fa3b7)" style="fill: none; stroke: #000000; stroke-width: 2; stroke-linejoin: miter"/>
   </g>
   <g id="patch_6">
    <path d="M 86.76 10.26 
C 86.76 11.274064 87.163265 12.247632 87.880317 12.964683 
C 88.597368 13.681735 89.570936 14.085 90.585 14.085 
C 91.599064 14.085 92.572632 13.681735 93.289683 12.964683 
C 94.006735 12.247632 94.41 11.274064 94.41 10.26 
" clip-path="url(#p6a011fa3b7)" style="fill: none; stroke: #000000; stroke-width: 2; stroke-linejoin: miter"/>
   </g>
   <g id="patch_7">
    <path d="M 79.11 10.26 
C 79.11 11.274064 79.513265 12.247632 80.230317 12.964683 
C 80.947368 13.681735 81.920936 14.085 82.935 14.085 
C 83.949064 14.085 84.922632 13.681735 85.639683 12.964683 
C 86.356735 12.247632 86.76 11.274064 86.76 10.26 
" clip-path="url(#p6a011fa3b7)" style="fill: none; stroke: #000000; stroke-width: 2; stroke-linejoin: miter"/>
   </g>
   <g id="patch_8">
    <path d="M 71.46 10.26 
C 71.46 11.274064 71.863265 12.247632 72.580317 12.964683 
C 73.297368 13.681735 74.270936 14.085 75.285 14.085 
C 76.299064 14.085 77.272632 13.681735 77.989683 12.964683 
C 78.706735 12.247632 79.11 11.274064 79.11 10.26 
" clip-path="url(#p6a011fa3b7)" style="fill: none; stroke: #000000; stroke-width: 2; stroke-linejoin: miter"/>
   </g>
   <g id="patch_9">
    <path d="M 63.81 10.26 
C 63.81 11.274064 64.213265 12.247632 64.930317 12.964683 
C 65.647368 13.681735 66.620936 14.085 67.635 14.085 
C 68.649064 14.085 69.622632 13.681735 70.339683 12.964683 
C 71.056735 12.247632 71.46 11.274064 71.46 10.26 
" clip-path="url(#p6a011fa3b7)" style="fill: none; stroke: #000000; stroke-width: 2; stroke-linejoin: miter"/>
   </g>
   <g id="line2d_1">
    <path d="M 17.91 144.9 
L 79.11 144.9 
M 71.46 137.25 
L 86.76 152.55 
M 86.76 137.25 
L 71.46 152.55 
M 79.11 144.9 
L 140.31 144.9 
" clip-path="url(#p6a011fa3b7)" style="fill: none; stroke: #000000; stroke-width: 2; stroke-linecap: round"/>
   </g>
   <g id="line2d_2">
    <path d="M 17.91 144.9 
L 17.91 83.7 
M 10.26 91.35 
L 25.56 76.05 
M 10.26 76.05 
L 25.56 91.35 
M 17.91 83.7 
L 17.91 22.5 
" clip-path="url(#p6a011fa3b7)" style="fill: none; stroke: #000000; stroke-width: 2; stroke-linecap: round"/>
   </g>
   <g id="line2d_3">
    <path d="M 140.31 22.5 
L 140.31 53.1 
" clip-path="url(#p6a011fa3b7)" style="fill: none; stroke: #000000; stroke-width: 2; stroke-linecap: round"/>
   </g>
   <g id="line2d_4">
    <path d="M 140.31 144.9 
L 140.31 114.3 
" clip-path="url(#p6a011fa3b7)" style="fill: none; stroke: #000000; stroke-width: 2; stroke-linecap: round"/>
   </g>
   <g id="line2d_5">
    <path d="M 152.55 53.1 
L 128.07 53.1 
" clip-path="url(#p6a011fa3b7)" style="fill: none; stroke: #000000; stroke-width: 2; stroke-linecap: round"/>
   </g>
   <g id="line2d_6">
    <path d="M 152.55 114.3 
L 128.07 114.3 
" clip-path="url(#p6a011fa3b7)" style="fill: none; stroke: #000000; stroke-width: 2; stroke-linecap: round"/>
   </g>
   <g id="line2d_7">
    <path d="M 152.55 53.1 
L 152.55 80.946 
M 160.2 80.946 
L 144.9 80.946 
M 160.2 86.454 
L 144.9 86.454 
M 152.55 86.454 
L 152.55 114.3 
" clip-path="url(#p6a011fa3b7)" style="fill: none; stroke: #000000; stroke-width: 2; stroke-linecap: round"/>
   </g>
   <g id="line2d_8">
    <path d="M 128.07 53.1 
L 128.07 68.4 
M 128.07 99 
L 128.07 114.3 
" clip-path="url(#p6a011fa3b7)" style="fill: none; stroke: #000000; stroke-width: 2; stroke-linecap: round"/>
   </g>
   <g id="line2d_9">
    <path d="M 140.31 22.5 
L 109.71 22.5 
" clip-path="url(#p6a011fa3b7)" style="fill: none; stroke: #000000; stroke-width: 2; stroke-linecap: round"/>
   </g>
   <g id="line2d_10">
    <path d="M 17.91 22.5 
L 48.51 22.5 
" clip-path="url(#p6a011fa3b7)" style="fill: none; stroke: #000000; stroke-width: 2; stroke-linecap: round"/>
   </g>
   <g id="line2d_11">
    <path d="M 109.71 34.74 
L 109.71 10.26 
" clip-path="url(#p6a011fa3b7)" style="fill: none; stroke: #000000; stroke-width: 2; stroke-linecap: round"/>
   </g>
   <g id="line2d_12">
    <path d="M 48.51 34.74 
L 48.51 10.26 
" clip-path="url(#p6a011fa3b7)" style="fill: none; stroke: #000000; stroke-width: 2; stroke-linecap: round"/>
   </g>
   <g id="line2d_13">
    <path d="M 109.71 34.74 
L 81.864 34.74 
M 81.864 42.39 
L 81.864 27.09 
M 76.356 42.39 
L 76.356 27.09 
M 76.356 34.74 
L 48.51 34.74 
" clip-path="url(#p6a011fa3b7)" style="fill: none; stroke: #000000; stroke-width: 2; stroke-linecap: round"/>
   </g>
   <g id="line2d_14">
    <path d="M 109.71 10.26 
L 94.41 10.26 
M 63.81 10.26 
L 48.51 10.26 
" clip-path="url(#p6a011fa3b7)" style="fill: none; stroke: #000000; stroke-width: 2; stroke-linecap: round"/>
   </g>
   <g id="patch_10">
    <path d="M 17.91 147.195 
C 18.518641 147.195 19.102436 146.953184 19.53281 146.52281 
C 19.963184 146.092436 20.205 145.508641 20.205 144.9 
C 20.205 144.291359 19.963184 143.707564 19.53281 143.27719 
C 19.102436 142.846816 18.518641 142.605 17.91 142.605 
C 17.301359 142.605 16.717564 142.846816 16.28719 143.27719 
C 15.856816 143.707564 15.615 144.291359 15.615 144.9 
C 15.615 145.508641 15.856816 146.092436 16.28719 146.52281 
C 16.717564 146.953184 17.301359 147.195 17.91 147.195 
z
" clip-path="url(#p6a011fa3b7)" style="stroke: #000000; stroke-width: 2; stroke-linejoin: miter"/>
   </g>
   <g id="patch_11">
    <path d="M 140.31 147.195 
C 140.918641 147.195 141.502436 146.953184 141.93281 146.52281 
C 142.363184 146.092436 142.605 145.508641 142.605 144.9 
C 142.605 144.291359 142.363184 143.707564 141.93281 143.27719 
C 141.502436 142.846816 140.918641 142.605 140.31 142.605 
C 139.701359 142.605 139.117564 142.846816 138.68719 143.27719 
C 138.256816 143.707564 138.015 144.291359 138.015 144.9 
C 138.015 145.508641 138.256816 146.092436 138.68719 146.52281 
C 139.117564 146.953184 139.701359 147.195 140.31 147.195 
z
" clip-path="url(#p6a011fa3b7)" style="stroke: #000000; stroke-width: 2; stroke-linejoin: miter"/>
   </g>
   <g id="patch_12">
    <path d="M 17.91 24.795 
C 18.518641 24.795 19.102436 24.553184 19.53281 24.12281 
C 19.963184 23.692436 20.205 23.108641 20.205 22.5 
C 20.205 21.891359 19.963184 21.307564 19.53281 20.87719 
C 19.102436 20.446816 18.518641 20.205 17.91 20.205 
C 17.301359 20.205 16.717564 20.446816 16.28719 20.87719 
C 15.856816 21.307564 15.615 21.891359 15.615 22.5 
C 15.615 23.108641 15.856816 23.692436 16.28719 24.12281 
C 16.717564 24.553184 17.301359 24.795 17.91 24.795 
z
" clip-path="url(#p6a011fa3b7)" style="stroke: #000000; stroke-width: 2; stroke-linejoin: miter"/>
   </g>
   <g id="patch_13">
    <path d="M 140.31 24.795 
C 140.918641 24.795 141.502436 24.553184 141.93281 24.12281 
C 142.363184 23.692436 142.605 23.108641 142.605 22.5 
C 142.605 21.891359 142.363184 21.307564 141.93281 20.87719 
C 141.502436 20.446816 140.918641 20.205 140.31 20.205 
C 139.701359 20.205 139.117564 20.446816 138.68719 20.87719 
C 138.256816 21.307564 138.015 21.891359 138.015 22.5 
C 138.015 23.108641 138.256816 23.692436 138.68719 24.12281 
C 139.117564 24.553184 139.701359 24.795 140.31 24.795 
z
" clip-path="url(#p6a011fa3b7)" style="stroke: #000000; stroke-width: 2; stroke-linejoin: miter"/>
   </g>
  </g>
 </g>
 <defs>
  <clipPath id="p6a011fa3b7">
   <rect x="7.2" y="7.2" width="156.06" height="148.41"/>
  </clipPath>
 </defs>
</svg>
