<?xml version="1.0" encoding="utf-8" standalone="no"?>
<!DOCTYPE svg PUBLIC "-//W3C//DTD SVG 1.1//EN"
  "http://www.w3.org/Graphics/SVG/1.1/DTD/svg11.dtd">
<svg xmlns:xlink="http://www.w3.org/1999/xlink" width="190.86pt" height="158.22pt" viewBox="0 0 190.86 158.22" xmlns="http://www.w3.org/2000/svg" version="1.1">
 <metadata>
  <rdf:RDF xmlns:dc="http://purl.org/dc/elements/1.1/" xmlns:cc="http://creativecommons.org/ns#" xmlns:rdf="http://www.w3.org/1999/02/22-rdf-syntax-ns#">
   <cc:Work>
    <dc:type rdf:resource="http://purl.org/dc/dcmitype/StillImage"/>
    <dc:date>2023-03-23T14:50:39.055008</dc:date>
    <dc:format>image/svg+xml</dc:format>
    <dc:creator>
     <cc:Agent>
      <dc:title>Matplotlib v3.5.2, https://matplotlib.org/</dc:title>
     </cc:Agent>
    </dc:creator>
   </cc:Work>
  </rdf:RDF>
 </metadata>
 <defs>
  <style type="text/css">*{stroke-linejoin: round; stroke-linecap: butt}</style>
 </defs>
 <g id="figure_1">
  <g id="patch_1">
   <path d="M 0 158.22 
L 190.86 158.22 
L 190.86 0 
L 0 0 
L 0 158.22 
z
" style="fill: none"/>
  </g>
  <g id="axes_1">
   <g id="patch_2">
    <path d="M 50.55 86.76 
C 49.535936 86.76 48.562368 87.163265 47.845317 87.880317 
C 47.128265 88.597368 46.725 89.570936 46.725 90.585 
C 46.725 91.599064 47.128265 92.572632 47.845317 93.289683 
C 48.562368 94.006735 49.535936 94.41 50.55 94.41 
" clip-path="url(#p9a432d2e6a)" style="fill: none; stroke: #000000; stroke-width: 2; stroke-linejoin: miter"/>
   </g>
   <g id="patch_3">
    <path d="M 50.55 79.11 
C 49.535936 79.11 48.562368 79.513265 47.845317 80.230317 
C 47.128265 80.947368 46.725 81.920936 46.725 82.935 
C 46.725 83.949064 47.128265 84.922632 47.845317 85.639683 
C 48.562368 86.356735 49.535936 86.76 50.55 86.76 
" clip-path="url(#p9a432d2e6a)" style="fill: none; stroke: #000000; stroke-width: 2; stroke-linejoin: miter"/>
   </g>
   <g id="patch_4">
    <path d="M 50.55 71.46 
C 49.535936 71.46 48.562368 71.863265 47.845317 72.580317 
C 47.128265 73.297368 46.725 74.270936 46.725 75.285 
C 46.725 76.299064 47.128265 77.272632 47.845317 77.989683 
C 48.562368 78.706735 49.535936 79.11 50.55 79.11 
" clip-path="url(#p9a432d2e6a)" style="fill: none; stroke: #000000; stroke-width: 2; stroke-linejoin: miter"/>
   </g>
   <g id="patch_5">
    <path d="M 50.55 63.81 
C 49.535936 63.81 48.562368 64.213265 47.845317 64.930317 
C 47.128265 65.647368 46.725 66.620936 46.725 67.635 
C 46.725 68.649064 47.128265 69.622632 47.845317 70.339683 
C 48.562368 71.056735 49.535936 71.46 50.55 71.46 
" clip-path="url(#p9a432d2e6a)" style="fill: none; stroke: #000000; stroke-width: 2; stroke-linejoin: miter"/>
   </g>
   <g id="patch_6">
    <path d="M 140.31 71.46 
C 141.324064 71.46 142.297632 71.056735 143.014683 70.339683 
C 143.731735 69.622632 144.135 68.649064 144.135 67.635 
C 144.135 66.620936 143.731735 65.647368 143.014683 64.930317 
C 142.297632 64.213265 141.324064 63.81 140.31 63.81 
" clip-path="url(#p9a432d2e6a)" style="fill: none; stroke: #000000; stroke-width: 2; stroke-linejoin: miter"/>
   </g>
   <g id="patch_7">
    <path d="M 140.31 79.11 
C 141.324064 79.11 142.297632 78.706735 143.014683 77.989683 
C 143.731735 77.272632 144.135 76.299064 144.135 75.285 
C 144.135 74.270936 143.731735 73.297368 143.014683 72.580317 
C 142.297632 71.863265 141.324064 71.46 140.31 71.46 
" clip-path="url(#p9a432d2e6a)" style="fill: none; stroke: #000000; stroke-width: 2; stroke-linejoin: miter"/>
   </g>
   <g id="patch_8">
    <path d="M 140.31 86.76 
C 141.324064 86.76 142.297632 86.356735 143.014683 85.639683 
C 143.731735 84.922632 144.135 83.949064 144.135 82.935 
C 144.135 81.920936 143.731735 80.947368 143.014683 80.230317 
C 142.297632 79.513265 141.324064 79.11 140.31 79.11 
" clip-path="url(#p9a432d2e6a)" style="fill: none; stroke: #000000; stroke-width: 2; stroke-linejoin: miter"/>
   </g>
   <g id="patch_9">
    <path d="M 140.31 94.41 
C 141.324064 94.41 142.297632 94.006735 143.014683 93.289683 
C 143.731735 92.572632 144.135 91.599064 144.135 90.585 
C 144.135 89.570936 143.731735 88.597368 143.014683 87.880317 
C 142.297632 87.163265 141.324064 86.76 140.31 86.76 
" clip-path="url(#p9a432d2e6a)" style="fill: none; stroke: #000000; stroke-width: 2; stroke-linejoin: miter"/>
   </g>
   <g id="line2d_1">
    <path d="M 34.23 140.31 
L 92.676 140.31 
M 92.676 132.66 
L 92.676 147.96 
M 98.184 132.66 
L 98.184 147.96 
M 98.184 140.31 
L 156.63 140.31 
" clip-path="url(#p9a432d2e6a)" style="fill: none; stroke: #000000; stroke-width: 2; stroke-linecap: round"/>
   </g>
   <g id="line2d_2">
    <path d="M 34.23 140.31 
L 34.23 109.71 
" clip-path="url(#p9a432d2e6a)" style="fill: none; stroke: #000000; stroke-width: 2; stroke-linecap: round"/>
   </g>
   <g id="line2d_3">
    <path d="M 34.23 17.91 
L 34.23 48.51 
" clip-path="url(#p9a432d2e6a)" style="fill: none; stroke: #000000; stroke-width: 2; stroke-linecap: round"/>
   </g>
   <g id="line2d_4">
    <path d="M 17.91 109.71 
L 50.55 109.71 
" clip-path="url(#p9a432d2e6a)" style="fill: none; stroke: #000000; stroke-width: 2; stroke-linecap: round"/>
   </g>
   <g id="line2d_5">
    <path d="M 17.91 48.51 
L 50.55 48.51 
" clip-path="url(#p9a432d2e6a)" style="fill: none; stroke: #000000; stroke-width: 2; stroke-linecap: round"/>
   </g>
   <g id="line2d_6">
    <path d="M 34.23 109.71 
L 34.23 81.864 
M 26.58 81.864 
L 41.88 81.864 
M 26.58 76.356 
L 41.88 76.356 
M 34.23 76.356 
L 34.23 48.51 
" clip-path="url(#p9a432d2e6a)" style="fill: none; stroke: #000000; stroke-width: 2; stroke-linecap: round"/>
   </g>
   <g id="line2d_7">
    <path d="M 17.91 109.71 
L 17.91 79.11 
M 10.26 86.76 
L 25.56 71.46 
M 10.26 71.46 
L 25.56 86.76 
M 17.91 79.11 
L 17.91 48.51 
" clip-path="url(#p9a432d2e6a)" style="fill: none; stroke: #000000; stroke-width: 2; stroke-linecap: round"/>
   </g>
   <g id="line2d_8">
    <path d="M 50.55 109.71 
L 50.55 94.41 
M 50.55 63.81 
L 50.55 48.51 
" clip-path="url(#p9a432d2e6a)" style="fill: none; stroke: #000000; stroke-width: 2; stroke-linecap: round"/>
   </g>
   <g id="line2d_9">
    <path d="M 156.63 17.91 
L 156.63 48.51 
" clip-path="url(#p9a432d2e6a)" style="fill: none; stroke: #000000; stroke-width: 2; stroke-linecap: round"/>
   </g>
   <g id="line2d_10">
    <path d="M 156.63 140.31 
L 156.63 109.71 
" clip-path="url(#p9a432d2e6a)" style="fill: none; stroke: #000000; stroke-width: 2; stroke-linecap: round"/>
   </g>
   <g id="line2d_11">
    <path d="M 172.95 48.51 
L 140.31 48.51 
" clip-path="url(#p9a432d2e6a)" style="fill: none; stroke: #000000; stroke-width: 2; stroke-linecap: round"/>
   </g>
   <g id="line2d_12">
    <path d="M 172.95 109.71 
L 140.31 109.71 
" clip-path="url(#p9a432d2e6a)" style="fill: none; stroke: #000000; stroke-width: 2; stroke-linecap: round"/>
   </g>
   <g id="line2d_13">
    <path d="M 156.63 48.51 
L 156.63 76.356 
M 164.28 76.356 
L 148.98 76.356 
M 164.28 81.864 
L 148.98 81.864 
M 156.63 81.864 
L 156.63 109.71 
" clip-path="url(#p9a432d2e6a)" style="fill: none; stroke: #000000; stroke-width: 2; stroke-linecap: round"/>
   </g>
   <g id="line2d_14">
    <path d="M 172.95 48.51 
L 172.95 79.11 
M 180.6 71.46 
L 165.3 86.76 
M 180.6 86.76 
L 165.3 71.46 
M 172.95 79.11 
L 172.95 109.71 
" clip-path="url(#p9a432d2e6a)" style="fill: none; stroke: #000000; stroke-width: 2; stroke-linecap: round"/>
   </g>
   <g id="line2d_15">
    <path d="M 140.31 48.51 
L 140.31 63.81 
M 140.31 94.41 
L 140.31 109.71 
" clip-path="url(#p9a432d2e6a)" style="fill: none; stroke: #000000; stroke-width: 2; stroke-linecap: round"/>
   </g>
   <g id="line2d_16">
    <path d="M 156.63 17.91 
L 98.184 17.91 
M 98.184 25.56 
L 98.184 10.26 
M 92.676 25.56 
L 92.676 10.26 
M 92.676 17.91 
L 34.23 17.91 
" clip-path="url(#p9a432d2e6a)" style="fill: none; stroke: #000000; stroke-width: 2; stroke-linecap: round"/>
   </g>
   <g id="patch_10">
    <path d="M 34.23 142.605 
C 34.838641 142.605 35.422436 142.363184 35.85281 141.93281 
C 36.283184 141.502436 36.525 140.918641 36.525 140.31 
C 36.525 139.701359 36.283184 139.117564 35.85281 138.68719 
C 35.422436 138.256816 34.838641 138.015 34.23 138.015 
C 33.621359 138.015 33.037564 138.256816 32.60719 138.68719 
C 32.176816 139.117564 31.935 139.701359 31.935 140.31 
C 31.935 140.918641 32.176816 141.502436 32.60719 141.93281 
C 33.037564 142.363184 33.621359 142.605 34.23 142.605 
z
" clip-path="url(#p9a432d2e6a)" style="stroke: #000000; stroke-width: 2; stroke-linejoin: miter"/>
   </g>
   <g id="patch_11">
    <path d="M 156.63 142.605 
C 157.238641 142.605 157.822436 142.363184 158.25281 141.93281 
C 158.683184 141.502436 158.925 140.918641 158.925 140.31 
C 158.925 139.701359 158.683184 139.117564 158.25281 138.68719 
C 157.822436 138.256816 157.238641 138.015 156.63 138.015 
C 156.021359 138.015 155.437564 138.256816 155.00719 138.68719 
C 154.576816 139.117564 154.335 139.701359 154.335 140.31 
C 154.335 140.918641 154.576816 141.502436 155.00719 141.93281 
C 155.437564 142.363184 156.021359 142.605 156.63 142.605 
z
" clip-path="url(#p9a432d2e6a)" style="stroke: #000000; stroke-width: 2; stroke-linejoin: miter"/>
   </g>
   <g id="patch_12">
    <path d="M 34.23 20.205 
C 34.838641 20.205 35.422436 19.963184 35.85281 19.53281 
C 36.283184 19.102436 36.525 18.518641 36.525 17.91 
C 36.525 17.301359 36.283184 16.717564 35.85281 16.28719 
C 35.422436 15.856816 34.838641 15.615 34.23 15.615 
C 33.621359 15.615 33.037564 15.856816 32.60719 16.28719 
C 32.176816 16.717564 31.935 17.301359 31.935 17.91 
C 31.935 18.518641 32.176816 19.102436 32.60719 19.53281 
C 33.037564 19.963184 33.621359 20.205 34.23 20.205 
z
" clip-path="url(#p9a432d2e6a)" style="stroke: #000000; stroke-width: 2; stroke-linejoin: miter"/>
   </g>
   <g id="patch_13">
    <path d="M 156.63 20.205 
C 157.238641 20.205 157.822436 19.963184 158.25281 19.53281 
C 158.683184 19.102436 158.925 18.518641 158.925 17.91 
C 158.925 17.301359 158.683184 16.717564 158.25281 16.28719 
C 157.822436 15.856816 157.238641 15.615 156.63 15.615 
C 156.021359 15.615 155.437564 15.856816 155.00719 16.28719 
C 154.576816 16.717564 154.335 17.301359 154.335 17.91 
C 154.335 18.518641 154.576816 19.102436 155.00719 19.53281 
C 155.437564 19.963184 156.021359 20.205 156.63 20.205 
z
" clip-path="url(#p9a432d2e6a)" style="stroke: #000000; stroke-width: 2; stroke-linejoin: miter"/>
   </g>
  </g>
 </g>
 <defs>
  <clipPath id="p9a432d2e6a">
   <rect x="7.2" y="7.2" width="176.46" height="143.82"/>
  </clipPath>
 </defs>
</svg>
