<?xml version="1.0" encoding="utf-8" standalone="no"?>
<!DOCTYPE svg PUBLIC "-//W3C//DTD SVG 1.1//EN"
  "http://www.w3.org/Graphics/SVG/1.1/DTD/svg11.dtd">
<svg xmlns:xlink="http://www.w3.org/1999/xlink" width="150.569962pt" height="166.89pt" viewBox="0 0 150.569962 166.89" xmlns="http://www.w3.org/2000/svg" version="1.1">
 <metadata>
  <rdf:RDF xmlns:dc="http://purl.org/dc/elements/1.1/" xmlns:cc="http://creativecommons.org/ns#" xmlns:rdf="http://www.w3.org/1999/02/22-rdf-syntax-ns#">
   <cc:Work>
    <dc:type rdf:resource="http://purl.org/dc/dcmitype/StillImage"/>
    <dc:date>2023-03-23T14:45:56.608352</dc:date>
    <dc:format>image/svg+xml</dc:format>
    <dc:creator>
     <cc:Agent>
      <dc:title>Matplotlib v3.5.2, https://matplotlib.org/</dc:title>
     </cc:Agent>
    </dc:creator>
   </cc:Work>
  </rdf:RDF>
 </metadata>
 <defs>
  <style type="text/css">*{stroke-linejoin: round; stroke-linecap: butt}</style>
 </defs>
 <g id="figure_1">
  <g id="patch_1">
   <path d="M 0 166.89 
L 150.569962 166.89 
L 150.569962 0 
L 0 0 
L 0 166.89 
z
" style="fill: none"/>
  </g>
  <g id="axes_1">
   <g id="patch_2">
    <path d="M 14.084981 95.43 
C 13.070917 95.43 12.097349 95.833265 11.380298 96.550317 
C 10.663246 97.267368 10.259981 98.240936 10.259981 99.255 
C 10.259981 100.269064 10.663246 101.242632 11.380298 101.959683 
C 12.097349 102.676735 13.070917 103.08 14.084981 103.08 
" clip-path="url(#pf5d70216d3)" style="fill: none; stroke: #000000; stroke-width: 2; stroke-linejoin: miter"/>
   </g>
   <g id="patch_3">
    <path d="M 14.084981 87.78 
C 13.070917 87.78 12.097349 88.183265 11.380298 88.900317 
C 10.663246 89.617368 10.259981 90.590936 10.259981 91.605 
C 10.259981 92.619064 10.663246 93.592632 11.380298 94.309683 
C 12.097349 95.026735 13.070917 95.43 14.084981 95.43 
" clip-path="url(#pf5d70216d3)" style="fill: none; stroke: #000000; stroke-width: 2; stroke-linejoin: miter"/>
   </g>
   <g id="patch_4">
    <path d="M 14.084981 80.13 
C 13.070917 80.13 12.097349 80.533265 11.380298 81.250317 
C 10.663246 81.967368 10.259981 82.940936 10.259981 83.955 
C 10.259981 84.969064 10.663246 85.942632 11.380298 86.659683 
C 12.097349 87.376735 13.070917 87.78 14.084981 87.78 
" clip-path="url(#pf5d70216d3)" style="fill: none; stroke: #000000; stroke-width: 2; stroke-linejoin: miter"/>
   </g>
   <g id="patch_5">
    <path d="M 14.084981 72.48 
C 13.070917 72.48 12.097349 72.883265 11.380298 73.600317 
C 10.663246 74.317368 10.259981 75.290936 10.259981 76.305 
C 10.259981 77.319064 10.663246 78.292632 11.380298 79.009683 
C 12.097349 79.726735 13.070917 80.13 14.084981 80.13 
" clip-path="url(#pf5d70216d3)" style="fill: none; stroke: #000000; stroke-width: 2; stroke-linejoin: miter"/>
   </g>
   <g id="patch_6">
    <path d="M 136.484981 80.13 
C 137.499045 80.13 138.472613 79.726735 139.189664 79.009683 
C 139.906716 78.292632 140.309981 77.319064 140.309981 76.305 
C 140.309981 75.290936 139.906716 74.317368 139.189664 73.600317 
C 138.472613 72.883265 137.499045 72.48 136.484981 72.48 
" clip-path="url(#pf5d70216d3)" style="fill: none; stroke: #000000; stroke-width: 2; stroke-linejoin: miter"/>
   </g>
   <g id="patch_7">
    <path d="M 136.484981 87.78 
C 137.499045 87.78 138.472613 87.376735 139.189664 86.659683 
C 139.906716 85.942632 140.309981 84.969064 140.309981 83.955 
C 140.309981 82.940936 139.906716 81.967368 139.189664 81.250317 
C 138.472613 80.533265 137.499045 80.13 136.484981 80.13 
" clip-path="url(#pf5d70216d3)" style="fill: none; stroke: #000000; stroke-width: 2; stroke-linejoin: miter"/>
   </g>
   <g id="patch_8">
    <path d="M 136.484981 95.43 
C 137.499045 95.43 138.472613 95.026735 139.189664 94.309683 
C 139.906716 93.592632 140.309981 92.619064 140.309981 91.605 
C 140.309981 90.590936 139.906716 89.617368 139.189664 88.900317 
C 138.472613 88.183265 137.499045 87.78 136.484981 87.78 
" clip-path="url(#pf5d70216d3)" style="fill: none; stroke: #000000; stroke-width: 2; stroke-linejoin: miter"/>
   </g>
   <g id="patch_9">
    <path d="M 136.484981 103.08 
C 137.499045 103.08 138.472613 102.676735 139.189664 101.959683 
C 139.906716 101.242632 140.309981 100.269064 140.309981 99.255 
C 140.309981 98.240936 139.906716 97.267368 139.189664 96.550317 
C 138.472613 95.833265 137.499045 95.43 136.484981 95.43 
" clip-path="url(#pf5d70216d3)" style="fill: none; stroke: #000000; stroke-width: 2; stroke-linejoin: miter"/>
   </g>
   <g id="patch_10">
    <path d="M 82.934981 10.26 
C 82.934981 11.274064 83.338246 12.247632 84.055298 12.964683 
C 84.772349 13.681735 85.745917 14.085 86.759981 14.085 
C 87.774045 14.085 88.747613 13.681735 89.464664 12.964683 
C 90.181716 12.247632 90.584981 11.274064 90.584981 10.26 
" clip-path="url(#pf5d70216d3)" style="fill: none; stroke: #000000; stroke-width: 2; stroke-linejoin: miter"/>
   </g>
   <g id="patch_11">
    <path d="M 75.284981 10.26 
C 75.284981 11.274064 75.688246 12.247632 76.405298 12.964683 
C 77.122349 13.681735 78.095917 14.085 79.109981 14.085 
C 80.124045 14.085 81.097613 13.681735 81.814664 12.964683 
C 82.531716 12.247632 82.934981 11.274064 82.934981 10.26 
" clip-path="url(#pf5d70216d3)" style="fill: none; stroke: #000000; stroke-width: 2; stroke-linejoin: miter"/>
   </g>
   <g id="patch_12">
    <path d="M 67.634981 10.26 
C 67.634981 11.274064 68.038246 12.247632 68.755298 12.964683 
C 69.472349 13.681735 70.445917 14.085 71.459981 14.085 
C 72.474045 14.085 73.447613 13.681735 74.164664 12.964683 
C 74.881716 12.247632 75.284981 11.274064 75.284981 10.26 
" clip-path="url(#pf5d70216d3)" style="fill: none; stroke: #000000; stroke-width: 2; stroke-linejoin: miter"/>
   </g>
   <g id="patch_13">
    <path d="M 59.984981 10.26 
C 59.984981 11.274064 60.388246 12.247632 61.105298 12.964683 
C 61.822349 13.681735 62.795917 14.085 63.809981 14.085 
C 64.824045 14.085 65.797613 13.681735 66.514664 12.964683 
C 67.231716 12.247632 67.634981 11.274064 67.634981 10.26 
" clip-path="url(#pf5d70216d3)" style="fill: none; stroke: #000000; stroke-width: 2; stroke-linejoin: miter"/>
   </g>
   <g id="line2d_1">
    <path d="M 14.084981 148.98 
L 72.530981 148.98 
M 72.530981 141.33 
L 72.530981 156.63 
M 78.038981 141.33 
L 78.038981 156.63 
M 78.038981 148.98 
L 136.484981 148.98 
" clip-path="url(#pf5d70216d3)" style="fill: none; stroke: #000000; stroke-width: 2; stroke-linecap: round"/>
   </g>
   <g id="line2d_2">
    <path d="M 14.084981 148.98 
L 14.084981 103.08 
M 14.084981 72.48 
L 14.084981 26.58 
" clip-path="url(#pf5d70216d3)" style="fill: none; stroke: #000000; stroke-width: 2; stroke-linecap: round"/>
   </g>
   <g id="line2d_3">
    <path d="M 136.484981 26.58 
L 136.484981 72.48 
M 136.484981 103.08 
L 136.484981 148.98 
" clip-path="url(#pf5d70216d3)" style="fill: none; stroke: #000000; stroke-width: 2; stroke-linecap: round"/>
   </g>
   <g id="line2d_4">
    <path d="M 136.484981 26.58 
L 105.884981 26.58 
" clip-path="url(#pf5d70216d3)" style="fill: none; stroke: #000000; stroke-width: 2; stroke-linecap: round"/>
   </g>
   <g id="line2d_5">
    <path d="M 14.084981 26.58 
L 44.684981 26.58 
" clip-path="url(#pf5d70216d3)" style="fill: none; stroke: #000000; stroke-width: 2; stroke-linecap: round"/>
   </g>
   <g id="line2d_6">
    <path d="M 105.884981 42.9 
L 105.884981 10.26 
" clip-path="url(#pf5d70216d3)" style="fill: none; stroke: #000000; stroke-width: 2; stroke-linecap: round"/>
   </g>
   <g id="line2d_7">
    <path d="M 44.684981 42.9 
L 44.684981 10.26 
" clip-path="url(#pf5d70216d3)" style="fill: none; stroke: #000000; stroke-width: 2; stroke-linecap: round"/>
   </g>
   <g id="line2d_8">
    <path d="M 105.884981 26.58 
L 78.038981 26.58 
M 78.038981 34.23 
L 78.038981 18.93 
M 72.530981 34.23 
L 72.530981 18.93 
M 72.530981 26.58 
L 44.684981 26.58 
" clip-path="url(#pf5d70216d3)" style="fill: none; stroke: #000000; stroke-width: 2; stroke-linecap: round"/>
   </g>
   <g id="line2d_9">
    <path d="M 105.884981 42.9 
L 75.284981 42.9 
M 82.934981 50.55 
L 67.634981 35.25 
M 67.634981 50.55 
L 82.934981 35.25 
M 75.284981 42.9 
L 44.684981 42.9 
" clip-path="url(#pf5d70216d3)" style="fill: none; stroke: #000000; stroke-width: 2; stroke-linecap: round"/>
   </g>
   <g id="line2d_10">
    <path d="M 105.884981 10.26 
L 90.584981 10.26 
M 59.984981 10.26 
L 44.684981 10.26 
" clip-path="url(#pf5d70216d3)" style="fill: none; stroke: #000000; stroke-width: 2; stroke-linecap: round"/>
   </g>
   <g id="patch_14">
    <path d="M 14.084981 151.275 
C 14.693622 151.275 15.277417 151.033184 15.707791 150.60281 
C 16.138165 150.172436 16.379981 149.588641 16.379981 148.98 
C 16.379981 148.371359 16.138165 147.787564 15.707791 147.35719 
C 15.277417 146.926816 14.693622 146.685 14.084981 146.685 
C 13.47634 146.685 12.892545 146.926816 12.462171 147.35719 
C 12.031797 147.787564 11.789981 148.371359 11.789981 148.98 
C 11.789981 149.588641 12.031797 150.172436 12.462171 150.60281 
C 12.892545 151.033184 13.47634 151.275 14.084981 151.275 
z
" clip-path="url(#pf5d70216d3)" style="stroke: #000000; stroke-width: 2; stroke-linejoin: miter"/>
   </g>
   <g id="patch_15">
    <path d="M 136.484981 151.275 
C 137.093622 151.275 137.677417 151.033184 138.107791 150.60281 
C 138.538165 150.172436 138.779981 149.588641 138.779981 148.98 
C 138.779981 148.371359 138.538165 147.787564 138.107791 147.35719 
C 137.677417 146.926816 137.093622 146.685 136.484981 146.685 
C 135.87634 146.685 135.292545 146.926816 134.862171 147.35719 
C 134.431797 147.787564 134.189981 148.371359 134.189981 148.98 
C 134.189981 149.588641 134.431797 150.172436 134.862171 150.60281 
C 135.292545 151.033184 135.87634 151.275 136.484981 151.275 
z
" clip-path="url(#pf5d70216d3)" style="stroke: #000000; stroke-width: 2; stroke-linejoin: miter"/>
   </g>
   <g id="patch_16">
    <path d="M 14.084981 28.875 
C 14.693622 28.875 15.277417 28.633184 15.707791 28.20281 
C 16.138165 27.772436 16.379981 27.188641 16.379981 26.58 
C 16.379981 25.971359 16.138165 25.387564 15.707791 24.95719 
C 15.277417 24.526816 14.693622 24.285 14.084981 24.285 
C 13.47634 24.285 12.892545 24.526816 12.462171 24.95719 
C 12.031797 25.387564 11.789981 25.971359 11.789981 26.58 
C 11.789981 27.188641 12.031797 27.772436 12.462171 28.20281 
C 12.892545 28.633184 13.47634 28.875 14.084981 28.875 
z
" clip-path="url(#pf5d70216d3)" style="stroke: #000000; stroke-width: 2; stroke-linejoin: miter"/>
   </g>
   <g id="patch_17">
    <path d="M 136.484981 28.875 
C 137.093622 28.875 137.677417 28.633184 138.107791 28.20281 
C 138.538165 27.772436 138.779981 27.188641 138.779981 26.58 
C 138.779981 25.971359 138.538165 25.387564 138.107791 24.95719 
C 137.677417 24.526816 137.093622 24.285 136.484981 24.285 
C 135.87634 24.285 135.292545 24.526816 134.862171 24.95719 
C 134.431797 25.387564 134.189981 25.971359 134.189981 26.58 
C 134.189981 27.188641 134.431797 27.772436 134.862171 28.20281 
C 135.292545 28.633184 135.87634 28.875 136.484981 28.875 
z
" clip-path="url(#pf5d70216d3)" style="stroke: #000000; stroke-width: 2; stroke-linejoin: miter"/>
   </g>
  </g>
 </g>
 <defs>
  <clipPath id="pf5d70216d3">
   <rect x="7.2" y="7.2" width="136.169962" height="152.49"/>
  </clipPath>
 </defs>
</svg>
