<?xml version="1.0" encoding="utf-8" standalone="no"?>
<!DOCTYPE svg PUBLIC "-//W3C//DTD SVG 1.1//EN"
  "http://www.w3.org/Graphics/SVG/1.1/DTD/svg11.dtd">
<svg xmlns:xlink="http://www.w3.org/1999/xlink" width="186.78pt" height="152.865pt" viewBox="0 0 186.78 152.865" xmlns="http://www.w3.org/2000/svg" version="1.1">
 <metadata>
  <rdf:RDF xmlns:dc="http://purl.org/dc/elements/1.1/" xmlns:cc="http://creativecommons.org/ns#" xmlns:rdf="http://www.w3.org/1999/02/22-rdf-syntax-ns#">
   <cc:Work>
    <dc:type rdf:resource="http://purl.org/dc/dcmitype/StillImage"/>
    <dc:date>2023-03-23T14:46:36.945639</dc:date>
    <dc:format>image/svg+xml</dc:format>
    <dc:creator>
     <cc:Agent>
      <dc:title>Matplotlib v3.5.2, https://matplotlib.org/</dc:title>
     </cc:Agent>
    </dc:creator>
   </cc:Work>
  </rdf:RDF>
 </metadata>
 <defs>
  <style type="text/css">*{stroke-linejoin: round; stroke-linecap: butt}</style>
 </defs>
 <g id="figure_1">
  <g id="patch_1">
   <path d="M 0 152.865 
L 186.78 152.865 
L 186.78 0 
L 0 0 
L 0 152.865 
z
" style="fill: none"/>
  </g>
  <g id="axes_1">
   <g id="patch_2">
    <path d="M 42.39 81.405 
C 41.375936 81.405 40.402368 81.808265 39.685317 82.525317 
C 38.968265 83.242368 38.565 84.215936 38.565 85.23 
C 38.565 86.244064 38.968265 87.217632 39.685317 87.934683 
C 40.402368 88.651735 41.375936 89.055 42.39 89.055 
" clip-path="url(#p737cedfbce)" style="fill: none; stroke: #000000; stroke-width: 2; stroke-linejoin: miter"/>
   </g>
   <g id="patch_3">
    <path d="M 42.39 73.755 
C 41.375936 73.755 40.402368 74.158265 39.685317 74.875317 
C 38.968265 75.592368 38.565 76.565936 38.565 77.58 
C 38.565 78.594064 38.968265 79.567632 39.685317 80.284683 
C 40.402368 81.001735 41.375936 81.405 42.39 81.405 
" clip-path="url(#p737cedfbce)" style="fill: none; stroke: #000000; stroke-width: 2; stroke-linejoin: miter"/>
   </g>
   <g id="patch_4">
    <path d="M 42.39 66.105 
C 41.375936 66.105 40.402368 66.508265 39.685317 67.225317 
C 38.968265 67.942368 38.565 68.915936 38.565 69.93 
C 38.565 70.944064 38.968265 71.917632 39.685317 72.634683 
C 40.402368 73.351735 41.375936 73.755 42.39 73.755 
" clip-path="url(#p737cedfbce)" style="fill: none; stroke: #000000; stroke-width: 2; stroke-linejoin: miter"/>
   </g>
   <g id="patch_5">
    <path d="M 42.39 58.455 
C 41.375936 58.455 40.402368 58.858265 39.685317 59.575317 
C 38.968265 60.292368 38.565 61.265936 38.565 62.28 
C 38.565 63.294064 38.968265 64.267632 39.685317 64.984683 
C 40.402368 65.701735 41.375936 66.105 42.39 66.105 
" clip-path="url(#p737cedfbce)" style="fill: none; stroke: #000000; stroke-width: 2; stroke-linejoin: miter"/>
   </g>
   <g id="patch_6">
    <path d="M 136.23 66.105 
C 137.244064 66.105 138.217632 65.701735 138.934683 64.984683 
C 139.651735 64.267632 140.055 63.294064 140.055 62.28 
C 140.055 61.265936 139.651735 60.292368 138.934683 59.575317 
C 138.217632 58.858265 137.244064 58.455 136.23 58.455 
" clip-path="url(#p737cedfbce)" style="fill: none; stroke: #000000; stroke-width: 2; stroke-linejoin: miter"/>
   </g>
   <g id="patch_7">
    <path d="M 136.23 73.755 
C 137.244064 73.755 138.217632 73.351735 138.934683 72.634683 
C 139.651735 71.917632 140.055 70.944064 140.055 69.93 
C 140.055 68.915936 139.651735 67.942368 138.934683 67.225317 
C 138.217632 66.508265 137.244064 66.105 136.23 66.105 
" clip-path="url(#p737cedfbce)" style="fill: none; stroke: #000000; stroke-width: 2; stroke-linejoin: miter"/>
   </g>
   <g id="patch_8">
    <path d="M 136.23 81.405 
C 137.244064 81.405 138.217632 81.001735 138.934683 80.284683 
C 139.651735 79.567632 140.055 78.594064 140.055 77.58 
C 140.055 76.565936 139.651735 75.592368 138.934683 74.875317 
C 138.217632 74.158265 137.244064 73.755 136.23 73.755 
" clip-path="url(#p737cedfbce)" style="fill: none; stroke: #000000; stroke-width: 2; stroke-linejoin: miter"/>
   </g>
   <g id="patch_9">
    <path d="M 136.23 89.055 
C 137.244064 89.055 138.217632 88.651735 138.934683 87.934683 
C 139.651735 87.217632 140.055 86.244064 140.055 85.23 
C 140.055 84.215936 139.651735 83.242368 138.934683 82.525317 
C 138.217632 81.808265 137.244064 81.405 136.23 81.405 
" clip-path="url(#p737cedfbce)" style="fill: none; stroke: #000000; stroke-width: 2; stroke-linejoin: miter"/>
   </g>
   <g id="patch_10">
    <path d="M 99 12.555 
C 99 13.569064 99.403265 14.542632 100.120317 15.259683 
C 100.837368 15.976735 101.810936 16.38 102.825 16.38 
C 103.839064 16.38 104.812632 15.976735 105.529683 15.259683 
C 106.246735 14.542632 106.65 13.569064 106.65 12.555 
" clip-path="url(#p737cedfbce)" style="fill: none; stroke: #000000; stroke-width: 2; stroke-linejoin: miter"/>
   </g>
   <g id="patch_11">
    <path d="M 91.35 12.555 
C 91.35 13.569064 91.753265 14.542632 92.470317 15.259683 
C 93.187368 15.976735 94.160936 16.38 95.175 16.38 
C 96.189064 16.38 97.162632 15.976735 97.879683 15.259683 
C 98.596735 14.542632 99 13.569064 99 12.555 
" clip-path="url(#p737cedfbce)" style="fill: none; stroke: #000000; stroke-width: 2; stroke-linejoin: miter"/>
   </g>
   <g id="patch_12">
    <path d="M 83.7 12.555 
C 83.7 13.569064 84.103265 14.542632 84.820317 15.259683 
C 85.537368 15.976735 86.510936 16.38 87.525 16.38 
C 88.539064 16.38 89.512632 15.976735 90.229683 15.259683 
C 90.946735 14.542632 91.35 13.569064 91.35 12.555 
" clip-path="url(#p737cedfbce)" style="fill: none; stroke: #000000; stroke-width: 2; stroke-linejoin: miter"/>
   </g>
   <g id="patch_13">
    <path d="M 76.05 12.555 
C 76.05 13.569064 76.453265 14.542632 77.170317 15.259683 
C 77.887368 15.976735 78.860936 16.38 79.875 16.38 
C 80.889064 16.38 81.862632 15.976735 82.579683 15.259683 
C 83.296735 14.542632 83.7 13.569064 83.7 12.555 
" clip-path="url(#p737cedfbce)" style="fill: none; stroke: #000000; stroke-width: 2; stroke-linejoin: miter"/>
   </g>
   <g id="line2d_1">
    <path d="M 30.15 134.955 
L 88.596 134.955 
M 88.596 127.305 
L 88.596 142.605 
M 94.104 127.305 
L 94.104 142.605 
M 94.104 134.955 
L 152.55 134.955 
" clip-path="url(#p737cedfbce)" style="fill: none; stroke: #000000; stroke-width: 2; stroke-linecap: round"/>
   </g>
   <g id="line2d_2">
    <path d="M 30.15 134.955 
L 30.15 104.355 
" clip-path="url(#p737cedfbce)" style="fill: none; stroke: #000000; stroke-width: 2; stroke-linecap: round"/>
   </g>
   <g id="line2d_3">
    <path d="M 30.15 12.555 
L 30.15 43.155 
" clip-path="url(#p737cedfbce)" style="fill: none; stroke: #000000; stroke-width: 2; stroke-linecap: round"/>
   </g>
   <g id="line2d_4">
    <path d="M 17.91 104.355 
L 42.39 104.355 
" clip-path="url(#p737cedfbce)" style="fill: none; stroke: #000000; stroke-width: 2; stroke-linecap: round"/>
   </g>
   <g id="line2d_5">
    <path d="M 17.91 43.155 
L 42.39 43.155 
" clip-path="url(#p737cedfbce)" style="fill: none; stroke: #000000; stroke-width: 2; stroke-linecap: round"/>
   </g>
   <g id="line2d_6">
    <path d="M 17.91 104.355 
L 17.91 76.509 
M 10.26 76.509 
L 25.56 76.509 
M 10.26 71.001 
L 25.56 71.001 
M 17.91 71.001 
L 17.91 43.155 
" clip-path="url(#p737cedfbce)" style="fill: none; stroke: #000000; stroke-width: 2; stroke-linecap: round"/>
   </g>
   <g id="line2d_7">
    <path d="M 42.39 104.355 
L 42.39 89.055 
M 42.39 58.455 
L 42.39 43.155 
" clip-path="url(#p737cedfbce)" style="fill: none; stroke: #000000; stroke-width: 2; stroke-linecap: round"/>
   </g>
   <g id="line2d_8">
    <path d="M 152.55 12.555 
L 152.55 43.155 
" clip-path="url(#p737cedfbce)" style="fill: none; stroke: #000000; stroke-width: 2; stroke-linecap: round"/>
   </g>
   <g id="line2d_9">
    <path d="M 152.55 134.955 
L 152.55 104.355 
" clip-path="url(#p737cedfbce)" style="fill: none; stroke: #000000; stroke-width: 2; stroke-linecap: round"/>
   </g>
   <g id="line2d_10">
    <path d="M 168.87 43.155 
L 136.23 43.155 
" clip-path="url(#p737cedfbce)" style="fill: none; stroke: #000000; stroke-width: 2; stroke-linecap: round"/>
   </g>
   <g id="line2d_11">
    <path d="M 168.87 104.355 
L 136.23 104.355 
" clip-path="url(#p737cedfbce)" style="fill: none; stroke: #000000; stroke-width: 2; stroke-linecap: round"/>
   </g>
   <g id="line2d_12">
    <path d="M 152.55 43.155 
L 152.55 71.001 
M 160.2 71.001 
L 144.9 71.001 
M 160.2 76.509 
L 144.9 76.509 
M 152.55 76.509 
L 152.55 104.355 
" clip-path="url(#p737cedfbce)" style="fill: none; stroke: #000000; stroke-width: 2; stroke-linecap: round"/>
   </g>
   <g id="line2d_13">
    <path d="M 168.87 43.155 
L 168.87 73.755 
M 176.52 66.105 
L 161.22 81.405 
M 176.52 81.405 
L 161.22 66.105 
M 168.87 73.755 
L 168.87 104.355 
" clip-path="url(#p737cedfbce)" style="fill: none; stroke: #000000; stroke-width: 2; stroke-linecap: round"/>
   </g>
   <g id="line2d_14">
    <path d="M 136.23 43.155 
L 136.23 58.455 
M 136.23 89.055 
L 136.23 104.355 
" clip-path="url(#p737cedfbce)" style="fill: none; stroke: #000000; stroke-width: 2; stroke-linecap: round"/>
   </g>
   <g id="line2d_15">
    <path d="M 152.55 12.555 
L 106.65 12.555 
M 76.05 12.555 
L 30.15 12.555 
" clip-path="url(#p737cedfbce)" style="fill: none; stroke: #000000; stroke-width: 2; stroke-linecap: round"/>
   </g>
   <g id="patch_14">
    <path d="M 30.15 137.25 
C 30.758641 137.25 31.342436 137.008184 31.77281 136.57781 
C 32.203184 136.147436 32.445 135.563641 32.445 134.955 
C 32.445 134.346359 32.203184 133.762564 31.77281 133.33219 
C 31.342436 132.901816 30.758641 132.66 30.15 132.66 
C 29.541359 132.66 28.957564 132.901816 28.52719 133.33219 
C 28.096816 133.762564 27.855 134.346359 27.855 134.955 
C 27.855 135.563641 28.096816 136.147436 28.52719 136.57781 
C 28.957564 137.008184 29.541359 137.25 30.15 137.25 
z
" clip-path="url(#p737cedfbce)" style="stroke: #000000; stroke-width: 2; stroke-linejoin: miter"/>
   </g>
   <g id="patch_15">
    <path d="M 152.55 137.25 
C 153.158641 137.25 153.742436 137.008184 154.17281 136.57781 
C 154.603184 136.147436 154.845 135.563641 154.845 134.955 
C 154.845 134.346359 154.603184 133.762564 154.17281 133.33219 
C 153.742436 132.901816 153.158641 132.66 152.55 132.66 
C 151.941359 132.66 151.357564 132.901816 150.92719 133.33219 
C 150.496816 133.762564 150.255 134.346359 150.255 134.955 
C 150.255 135.563641 150.496816 136.147436 150.92719 136.57781 
C 151.357564 137.008184 151.941359 137.25 152.55 137.25 
z
" clip-path="url(#p737cedfbce)" style="stroke: #000000; stroke-width: 2; stroke-linejoin: miter"/>
   </g>
   <g id="patch_16">
    <path d="M 30.15 14.85 
C 30.758641 14.85 31.342436 14.608184 31.77281 14.17781 
C 32.203184 13.747436 32.445 13.163641 32.445 12.555 
C 32.445 11.946359 32.203184 11.362564 31.77281 10.93219 
C 31.342436 10.501816 30.758641 10.26 30.15 10.26 
C 29.541359 10.26 28.957564 10.501816 28.52719 10.93219 
C 28.096816 11.362564 27.855 11.946359 27.855 12.555 
C 27.855 13.163641 28.096816 13.747436 28.52719 14.17781 
C 28.957564 14.608184 29.541359 14.85 30.15 14.85 
z
" clip-path="url(#p737cedfbce)" style="stroke: #000000; stroke-width: 2; stroke-linejoin: miter"/>
   </g>
   <g id="patch_17">
    <path d="M 152.55 14.85 
C 153.158641 14.85 153.742436 14.608184 154.17281 14.17781 
C 154.603184 13.747436 154.845 13.163641 154.845 12.555 
C 154.845 11.946359 154.603184 11.362564 154.17281 10.93219 
C 153.742436 10.501816 153.158641 10.26 152.55 10.26 
C 151.941359 10.26 151.357564 10.501816 150.92719 10.93219 
C 150.496816 11.362564 150.255 11.946359 150.255 12.555 
C 150.255 13.163641 150.496816 13.747436 150.92719 14.17781 
C 151.357564 14.608184 151.941359 14.85 152.55 14.85 
z
" clip-path="url(#p737cedfbce)" style="stroke: #000000; stroke-width: 2; stroke-linejoin: miter"/>
   </g>
  </g>
 </g>
 <defs>
  <clipPath id="p737cedfbce">
   <rect x="7.2" y="7.2" width="172.38" height="138.465"/>
  </clipPath>
 </defs>
</svg>
