<?xml version="1.0" encoding="utf-8" standalone="no"?>
<!DOCTYPE svg PUBLIC "-//W3C//DTD SVG 1.1//EN"
  "http://www.w3.org/Graphics/SVG/1.1/DTD/svg11.dtd">
<svg xmlns:xlink="http://www.w3.org/1999/xlink" width="158.22pt" height="162.81pt" viewBox="0 0 158.22 162.81" xmlns="http://www.w3.org/2000/svg" version="1.1">
 <metadata>
  <rdf:RDF xmlns:dc="http://purl.org/dc/elements/1.1/" xmlns:cc="http://creativecommons.org/ns#" xmlns:rdf="http://www.w3.org/1999/02/22-rdf-syntax-ns#">
   <cc:Work>
    <dc:type rdf:resource="http://purl.org/dc/dcmitype/StillImage"/>
    <dc:date>2023-03-23T14:41:09.633026</dc:date>
    <dc:format>image/svg+xml</dc:format>
    <dc:creator>
     <cc:Agent>
      <dc:title>Matplotlib v3.5.2, https://matplotlib.org/</dc:title>
     </cc:Agent>
    </dc:creator>
   </cc:Work>
  </rdf:RDF>
 </metadata>
 <defs>
  <style type="text/css">*{stroke-linejoin: round; stroke-linecap: butt}</style>
 </defs>
 <g id="figure_1">
  <g id="patch_1">
   <path d="M 0 162.81 
L 158.22 162.81 
L 158.22 0 
L 0 0 
L 0 162.81 
z
" style="fill: none"/>
  </g>
  <g id="axes_1">
   <g id="patch_2">
    <path d="M 86.76 10.26 
C 86.76 11.274064 87.163265 12.247632 87.880317 12.964683 
C 88.597368 13.681735 89.570936 14.085 90.585 14.085 
C 91.599064 14.085 92.572632 13.681735 93.289683 12.964683 
C 94.006735 12.247632 94.41 11.274064 94.41 10.26 
" clip-path="url(#p80bb5b359b)" style="fill: none; stroke: #000000; stroke-width: 2; stroke-linejoin: miter"/>
   </g>
   <g id="patch_3">
    <path d="M 79.11 10.26 
C 79.11 11.274064 79.513265 12.247632 80.230317 12.964683 
C 80.947368 13.681735 81.920936 14.085 82.935 14.085 
C 83.949064 14.085 84.922632 13.681735 85.639683 12.964683 
C 86.356735 12.247632 86.76 11.274064 86.76 10.26 
" clip-path="url(#p80bb5b359b)" style="fill: none; stroke: #000000; stroke-width: 2; stroke-linejoin: miter"/>
   </g>
   <g id="patch_4">
    <path d="M 71.46 10.26 
C 71.46 11.274064 71.863265 12.247632 72.580317 12.964683 
C 73.297368 13.681735 74.270936 14.085 75.285 14.085 
C 76.299064 14.085 77.272632 13.681735 77.989683 12.964683 
C 78.706735 12.247632 79.11 11.274064 79.11 10.26 
" clip-path="url(#p80bb5b359b)" style="fill: none; stroke: #000000; stroke-width: 2; stroke-linejoin: miter"/>
   </g>
   <g id="patch_5">
    <path d="M 63.81 10.26 
C 63.81 11.274064 64.213265 12.247632 64.930317 12.964683 
C 65.647368 13.681735 66.620936 14.085 67.635 14.085 
C 68.649064 14.085 69.622632 13.681735 70.339683 12.964683 
C 71.056735 12.247632 71.46 11.274064 71.46 10.26 
" clip-path="url(#p80bb5b359b)" style="fill: none; stroke: #000000; stroke-width: 2; stroke-linejoin: miter"/>
   </g>
   <g id="line2d_1">
    <path d="M 17.91 144.9 
L 76.356 144.9 
M 76.356 137.25 
L 76.356 152.55 
M 81.864 137.25 
L 81.864 152.55 
M 81.864 144.9 
L 140.31 144.9 
" clip-path="url(#p80bb5b359b)" style="fill: none; stroke: #000000; stroke-width: 2; stroke-linecap: round"/>
   </g>
   <g id="line2d_2">
    <path d="M 17.91 144.9 
L 17.91 83.7 
M 10.26 91.35 
L 25.56 76.05 
M 10.26 76.05 
L 25.56 91.35 
M 17.91 83.7 
L 17.91 22.5 
" clip-path="url(#p80bb5b359b)" style="fill: none; stroke: #000000; stroke-width: 2; stroke-linecap: round"/>
   </g>
   <g id="line2d_3">
    <path d="M 140.31 22.5 
L 140.31 83.7 
M 147.96 76.05 
L 132.66 91.35 
M 147.96 91.35 
L 132.66 76.05 
M 140.31 83.7 
L 140.31 144.9 
" clip-path="url(#p80bb5b359b)" style="fill: none; stroke: #000000; stroke-width: 2; stroke-linecap: round"/>
   </g>
   <g id="line2d_4">
    <path d="M 140.31 22.5 
L 109.71 22.5 
" clip-path="url(#p80bb5b359b)" style="fill: none; stroke: #000000; stroke-width: 2; stroke-linecap: round"/>
   </g>
   <g id="line2d_5">
    <path d="M 17.91 22.5 
L 48.51 22.5 
" clip-path="url(#p80bb5b359b)" style="fill: none; stroke: #000000; stroke-width: 2; stroke-linecap: round"/>
   </g>
   <g id="line2d_6">
    <path d="M 109.71 34.74 
L 109.71 10.26 
" clip-path="url(#p80bb5b359b)" style="fill: none; stroke: #000000; stroke-width: 2; stroke-linecap: round"/>
   </g>
   <g id="line2d_7">
    <path d="M 48.51 34.74 
L 48.51 10.26 
" clip-path="url(#p80bb5b359b)" style="fill: none; stroke: #000000; stroke-width: 2; stroke-linecap: round"/>
   </g>
   <g id="line2d_8">
    <path d="M 109.71 34.74 
L 81.864 34.74 
M 81.864 42.39 
L 81.864 27.09 
M 76.356 42.39 
L 76.356 27.09 
M 76.356 34.74 
L 48.51 34.74 
" clip-path="url(#p80bb5b359b)" style="fill: none; stroke: #000000; stroke-width: 2; stroke-linecap: round"/>
   </g>
   <g id="line2d_9">
    <path d="M 109.71 10.26 
L 94.41 10.26 
M 63.81 10.26 
L 48.51 10.26 
" clip-path="url(#p80bb5b359b)" style="fill: none; stroke: #000000; stroke-width: 2; stroke-linecap: round"/>
   </g>
   <g id="patch_6">
    <path d="M 17.91 147.195 
C 18.518641 147.195 19.102436 146.953184 19.53281 146.52281 
C 19.963184 146.092436 20.205 145.508641 20.205 144.9 
C 20.205 144.291359 19.963184 143.707564 19.53281 143.27719 
C 19.102436 142.846816 18.518641 142.605 17.91 142.605 
C 17.301359 142.605 16.717564 142.846816 16.28719 143.27719 
C 15.856816 143.707564 15.615 144.291359 15.615 144.9 
C 15.615 145.508641 15.856816 146.092436 16.28719 146.52281 
C 16.717564 146.953184 17.301359 147.195 17.91 147.195 
z
" clip-path="url(#p80bb5b359b)" style="stroke: #000000; stroke-width: 2; stroke-linejoin: miter"/>
   </g>
   <g id="patch_7">
    <path d="M 140.31 147.195 
C 140.918641 147.195 141.502436 146.953184 141.93281 146.52281 
C 142.363184 146.092436 142.605 145.508641 142.605 144.9 
C 142.605 144.291359 142.363184 143.707564 141.93281 143.27719 
C 141.502436 142.846816 140.918641 142.605 140.31 142.605 
C 139.701359 142.605 139.117564 142.846816 138.68719 143.27719 
C 138.256816 143.707564 138.015 144.291359 138.015 144.9 
C 138.015 145.508641 138.256816 146.092436 138.68719 146.52281 
C 139.117564 146.953184 139.701359 147.195 140.31 147.195 
z
" clip-path="url(#p80bb5b359b)" style="stroke: #000000; stroke-width: 2; stroke-linejoin: miter"/>
   </g>
   <g id="patch_8">
    <path d="M 17.91 24.795 
C 18.518641 24.795 19.102436 24.553184 19.53281 24.12281 
C 19.963184 23.692436 20.205 23.108641 20.205 22.5 
C 20.205 21.891359 19.963184 21.307564 19.53281 20.87719 
C 19.102436 20.446816 18.518641 20.205 17.91 20.205 
C 17.301359 20.205 16.717564 20.446816 16.28719 20.87719 
C 15.856816 21.307564 15.615 21.891359 15.615 22.5 
C 15.615 23.108641 15.856816 23.692436 16.28719 24.12281 
C 16.717564 24.553184 17.301359 24.795 17.91 24.795 
z
" clip-path="url(#p80bb5b359b)" style="stroke: #000000; stroke-width: 2; stroke-linejoin: miter"/>
   </g>
   <g id="patch_9">
    <path d="M 140.31 24.795 
C 140.918641 24.795 141.502436 24.553184 141.93281 24.12281 
C 142.363184 23.692436 142.605 23.108641 142.605 22.5 
C 142.605 21.891359 142.363184 21.307564 141.93281 20.87719 
C 141.502436 20.446816 140.918641 20.205 140.31 20.205 
C 139.701359 20.205 139.117564 20.446816 138.68719 20.87719 
C 138.256816 21.307564 138.015 21.891359 138.015 22.5 
C 138.015 23.108641 138.256816 23.692436 138.68719 24.12281 
C 139.117564 24.553184 139.701359 24.795 140.31 24.795 
z
" clip-path="url(#p80bb5b359b)" style="stroke: #000000; stroke-width: 2; stroke-linejoin: miter"/>
   </g>
  </g>
 </g>
 <defs>
  <clipPath id="p80bb5b359b">
   <rect x="7.2" y="7.2" width="143.82" height="148.41"/>
  </clipPath>
 </defs>
</svg>
