<?xml version="1.0" encoding="utf-8" standalone="no"?>
<!DOCTYPE svg PUBLIC "-//W3C//DTD SVG 1.1//EN"
  "http://www.w3.org/Graphics/SVG/1.1/DTD/svg11.dtd">
<svg xmlns:xlink="http://www.w3.org/1999/xlink" width="190.86pt" height="161.535pt" viewBox="0 0 190.86 161.535" xmlns="http://www.w3.org/2000/svg" version="1.1">
 <metadata>
  <rdf:RDF xmlns:dc="http://purl.org/dc/elements/1.1/" xmlns:cc="http://creativecommons.org/ns#" xmlns:rdf="http://www.w3.org/1999/02/22-rdf-syntax-ns#">
   <cc:Work>
    <dc:type rdf:resource="http://purl.org/dc/dcmitype/StillImage"/>
    <dc:date>2023-03-23T14:52:51.204583</dc:date>
    <dc:format>image/svg+xml</dc:format>
    <dc:creator>
     <cc:Agent>
      <dc:title>Matplotlib v3.5.2, https://matplotlib.org/</dc:title>
     </cc:Agent>
    </dc:creator>
   </cc:Work>
  </rdf:RDF>
 </metadata>
 <defs>
  <style type="text/css">*{stroke-linejoin: round; stroke-linecap: butt}</style>
 </defs>
 <g id="figure_1">
  <g id="patch_1">
   <path d="M 0 161.535 
L 190.86 161.535 
L 190.86 0 
L 0 0 
L 0 161.535 
z
" style="fill: none"/>
  </g>
  <g id="axes_1">
   <g id="patch_2">
    <path d="M 87.78 148.98 
C 87.78 147.965936 87.376735 146.992368 86.659683 146.275317 
C 85.942632 145.558265 84.969064 145.155 83.955 145.155 
C 82.940936 145.155 81.967368 145.558265 81.250317 146.275317 
C 80.533265 146.992368 80.13 147.965936 80.13 148.98 
" clip-path="url(#pd44c2dfabe)" style="fill: none; stroke: #000000; stroke-width: 2; stroke-linejoin: miter"/>
   </g>
   <g id="patch_3">
    <path d="M 95.43 148.98 
C 95.43 147.965936 95.026735 146.992368 94.309683 146.275317 
C 93.592632 145.558265 92.619064 145.155 91.605 145.155 
C 90.590936 145.155 89.617368 145.558265 88.900317 146.275317 
C 88.183265 146.992368 87.78 147.965936 87.78 148.98 
" clip-path="url(#pd44c2dfabe)" style="fill: none; stroke: #000000; stroke-width: 2; stroke-linejoin: miter"/>
   </g>
   <g id="patch_4">
    <path d="M 103.08 148.98 
C 103.08 147.965936 102.676735 146.992368 101.959683 146.275317 
C 101.242632 145.558265 100.269064 145.155 99.255 145.155 
C 98.240936 145.155 97.267368 145.558265 96.550317 146.275317 
C 95.833265 146.992368 95.43 147.965936 95.43 148.98 
" clip-path="url(#pd44c2dfabe)" style="fill: none; stroke: #000000; stroke-width: 2; stroke-linejoin: miter"/>
   </g>
   <g id="patch_5">
    <path d="M 110.73 148.98 
C 110.73 147.965936 110.326735 146.992368 109.609683 146.275317 
C 108.892632 145.558265 107.919064 145.155 106.905 145.155 
C 105.890936 145.155 104.917368 145.558265 104.200317 146.275317 
C 103.483265 146.992368 103.08 147.965936 103.08 148.98 
" clip-path="url(#pd44c2dfabe)" style="fill: none; stroke: #000000; stroke-width: 2; stroke-linejoin: miter"/>
   </g>
   <g id="patch_6">
    <path d="M 50.55 95.43 
C 49.535936 95.43 48.562368 95.833265 47.845317 96.550317 
C 47.128265 97.267368 46.725 98.240936 46.725 99.255 
C 46.725 100.269064 47.128265 101.242632 47.845317 101.959683 
C 48.562368 102.676735 49.535936 103.08 50.55 103.08 
" clip-path="url(#pd44c2dfabe)" style="fill: none; stroke: #000000; stroke-width: 2; stroke-linejoin: miter"/>
   </g>
   <g id="patch_7">
    <path d="M 50.55 87.78 
C 49.535936 87.78 48.562368 88.183265 47.845317 88.900317 
C 47.128265 89.617368 46.725 90.590936 46.725 91.605 
C 46.725 92.619064 47.128265 93.592632 47.845317 94.309683 
C 48.562368 95.026735 49.535936 95.43 50.55 95.43 
" clip-path="url(#pd44c2dfabe)" style="fill: none; stroke: #000000; stroke-width: 2; stroke-linejoin: miter"/>
   </g>
   <g id="patch_8">
    <path d="M 50.55 80.13 
C 49.535936 80.13 48.562368 80.533265 47.845317 81.250317 
C 47.128265 81.967368 46.725 82.940936 46.725 83.955 
C 46.725 84.969064 47.128265 85.942632 47.845317 86.659683 
C 48.562368 87.376735 49.535936 87.78 50.55 87.78 
" clip-path="url(#pd44c2dfabe)" style="fill: none; stroke: #000000; stroke-width: 2; stroke-linejoin: miter"/>
   </g>
   <g id="patch_9">
    <path d="M 50.55 72.48 
C 49.535936 72.48 48.562368 72.883265 47.845317 73.600317 
C 47.128265 74.317368 46.725 75.290936 46.725 76.305 
C 46.725 77.319064 47.128265 78.292632 47.845317 79.009683 
C 48.562368 79.726735 49.535936 80.13 50.55 80.13 
" clip-path="url(#pd44c2dfabe)" style="fill: none; stroke: #000000; stroke-width: 2; stroke-linejoin: miter"/>
   </g>
   <g id="patch_10">
    <path d="M 140.31 80.13 
C 141.324064 80.13 142.297632 79.726735 143.014683 79.009683 
C 143.731735 78.292632 144.135 77.319064 144.135 76.305 
C 144.135 75.290936 143.731735 74.317368 143.014683 73.600317 
C 142.297632 72.883265 141.324064 72.48 140.31 72.48 
" clip-path="url(#pd44c2dfabe)" style="fill: none; stroke: #000000; stroke-width: 2; stroke-linejoin: miter"/>
   </g>
   <g id="patch_11">
    <path d="M 140.31 87.78 
C 141.324064 87.78 142.297632 87.376735 143.014683 86.659683 
C 143.731735 85.942632 144.135 84.969064 144.135 83.955 
C 144.135 82.940936 143.731735 81.967368 143.014683 81.250317 
C 142.297632 80.533265 141.324064 80.13 140.31 80.13 
" clip-path="url(#pd44c2dfabe)" style="fill: none; stroke: #000000; stroke-width: 2; stroke-linejoin: miter"/>
   </g>
   <g id="patch_12">
    <path d="M 140.31 95.43 
C 141.324064 95.43 142.297632 95.026735 143.014683 94.309683 
C 143.731735 93.592632 144.135 92.619064 144.135 91.605 
C 144.135 90.590936 143.731735 89.617368 143.014683 88.900317 
C 142.297632 88.183265 141.324064 87.78 140.31 87.78 
" clip-path="url(#pd44c2dfabe)" style="fill: none; stroke: #000000; stroke-width: 2; stroke-linejoin: miter"/>
   </g>
   <g id="patch_13">
    <path d="M 140.31 103.08 
C 141.324064 103.08 142.297632 102.676735 143.014683 101.959683 
C 143.731735 101.242632 144.135 100.269064 144.135 99.255 
C 144.135 98.240936 143.731735 97.267368 143.014683 96.550317 
C 142.297632 95.833265 141.324064 95.43 140.31 95.43 
" clip-path="url(#pd44c2dfabe)" style="fill: none; stroke: #000000; stroke-width: 2; stroke-linejoin: miter"/>
   </g>
   <g id="patch_14">
    <path d="M 103.08 10.26 
C 103.08 11.274064 103.483265 12.247632 104.200317 12.964683 
C 104.917368 13.681735 105.890936 14.085 106.905 14.085 
C 107.919064 14.085 108.892632 13.681735 109.609683 12.964683 
C 110.326735 12.247632 110.73 11.274064 110.73 10.26 
" clip-path="url(#pd44c2dfabe)" style="fill: none; stroke: #000000; stroke-width: 2; stroke-linejoin: miter"/>
   </g>
   <g id="patch_15">
    <path d="M 95.43 10.26 
C 95.43 11.274064 95.833265 12.247632 96.550317 12.964683 
C 97.267368 13.681735 98.240936 14.085 99.255 14.085 
C 100.269064 14.085 101.242632 13.681735 101.959683 12.964683 
C 102.676735 12.247632 103.08 11.274064 103.08 10.26 
" clip-path="url(#pd44c2dfabe)" style="fill: none; stroke: #000000; stroke-width: 2; stroke-linejoin: miter"/>
   </g>
   <g id="patch_16">
    <path d="M 87.78 10.26 
C 87.78 11.274064 88.183265 12.247632 88.900317 12.964683 
C 89.617368 13.681735 90.590936 14.085 91.605 14.085 
C 92.619064 14.085 93.592632 13.681735 94.309683 12.964683 
C 95.026735 12.247632 95.43 11.274064 95.43 10.26 
" clip-path="url(#pd44c2dfabe)" style="fill: none; stroke: #000000; stroke-width: 2; stroke-linejoin: miter"/>
   </g>
   <g id="patch_17">
    <path d="M 80.13 10.26 
C 80.13 11.274064 80.533265 12.247632 81.250317 12.964683 
C 81.967368 13.681735 82.940936 14.085 83.955 14.085 
C 84.969064 14.085 85.942632 13.681735 86.659683 12.964683 
C 87.376735 12.247632 87.78 11.274064 87.78 10.26 
" clip-path="url(#pd44c2dfabe)" style="fill: none; stroke: #000000; stroke-width: 2; stroke-linejoin: miter"/>
   </g>
   <g id="line2d_1">
    <path d="M 34.23 148.98 
L 80.13 148.98 
M 110.73 148.98 
L 156.63 148.98 
" clip-path="url(#pd44c2dfabe)" style="fill: none; stroke: #000000; stroke-width: 2; stroke-linecap: round"/>
   </g>
   <g id="line2d_2">
    <path d="M 34.23 148.98 
L 34.23 118.38 
" clip-path="url(#pd44c2dfabe)" style="fill: none; stroke: #000000; stroke-width: 2; stroke-linecap: round"/>
   </g>
   <g id="line2d_3">
    <path d="M 34.23 26.58 
L 34.23 57.18 
" clip-path="url(#pd44c2dfabe)" style="fill: none; stroke: #000000; stroke-width: 2; stroke-linecap: round"/>
   </g>
   <g id="line2d_4">
    <path d="M 17.91 118.38 
L 50.55 118.38 
" clip-path="url(#pd44c2dfabe)" style="fill: none; stroke: #000000; stroke-width: 2; stroke-linecap: round"/>
   </g>
   <g id="line2d_5">
    <path d="M 17.91 57.18 
L 50.55 57.18 
" clip-path="url(#pd44c2dfabe)" style="fill: none; stroke: #000000; stroke-width: 2; stroke-linecap: round"/>
   </g>
   <g id="line2d_6">
    <path d="M 34.23 118.38 
L 34.23 90.534 
M 26.58 90.534 
L 41.88 90.534 
M 26.58 85.026 
L 41.88 85.026 
M 34.23 85.026 
L 34.23 57.18 
" clip-path="url(#pd44c2dfabe)" style="fill: none; stroke: #000000; stroke-width: 2; stroke-linecap: round"/>
   </g>
   <g id="line2d_7">
    <path d="M 17.91 118.38 
L 17.91 87.78 
M 10.26 95.43 
L 25.56 80.13 
M 10.26 80.13 
L 25.56 95.43 
M 17.91 87.78 
L 17.91 57.18 
" clip-path="url(#pd44c2dfabe)" style="fill: none; stroke: #000000; stroke-width: 2; stroke-linecap: round"/>
   </g>
   <g id="line2d_8">
    <path d="M 50.55 118.38 
L 50.55 103.08 
M 50.55 72.48 
L 50.55 57.18 
" clip-path="url(#pd44c2dfabe)" style="fill: none; stroke: #000000; stroke-width: 2; stroke-linecap: round"/>
   </g>
   <g id="line2d_9">
    <path d="M 156.63 26.58 
L 156.63 57.18 
" clip-path="url(#pd44c2dfabe)" style="fill: none; stroke: #000000; stroke-width: 2; stroke-linecap: round"/>
   </g>
   <g id="line2d_10">
    <path d="M 156.63 148.98 
L 156.63 118.38 
" clip-path="url(#pd44c2dfabe)" style="fill: none; stroke: #000000; stroke-width: 2; stroke-linecap: round"/>
   </g>
   <g id="line2d_11">
    <path d="M 172.95 57.18 
L 140.31 57.18 
" clip-path="url(#pd44c2dfabe)" style="fill: none; stroke: #000000; stroke-width: 2; stroke-linecap: round"/>
   </g>
   <g id="line2d_12">
    <path d="M 172.95 118.38 
L 140.31 118.38 
" clip-path="url(#pd44c2dfabe)" style="fill: none; stroke: #000000; stroke-width: 2; stroke-linecap: round"/>
   </g>
   <g id="line2d_13">
    <path d="M 156.63 57.18 
L 156.63 85.026 
M 164.28 85.026 
L 148.98 85.026 
M 164.28 90.534 
L 148.98 90.534 
M 156.63 90.534 
L 156.63 118.38 
" clip-path="url(#pd44c2dfabe)" style="fill: none; stroke: #000000; stroke-width: 2; stroke-linecap: round"/>
   </g>
   <g id="line2d_14">
    <path d="M 172.95 57.18 
L 172.95 87.78 
M 180.6 80.13 
L 165.3 95.43 
M 180.6 95.43 
L 165.3 80.13 
M 172.95 87.78 
L 172.95 118.38 
" clip-path="url(#pd44c2dfabe)" style="fill: none; stroke: #000000; stroke-width: 2; stroke-linecap: round"/>
   </g>
   <g id="line2d_15">
    <path d="M 140.31 57.18 
L 140.31 72.48 
M 140.31 103.08 
L 140.31 118.38 
" clip-path="url(#pd44c2dfabe)" style="fill: none; stroke: #000000; stroke-width: 2; stroke-linecap: round"/>
   </g>
   <g id="line2d_16">
    <path d="M 156.63 26.58 
L 126.03 26.58 
" clip-path="url(#pd44c2dfabe)" style="fill: none; stroke: #000000; stroke-width: 2; stroke-linecap: round"/>
   </g>
   <g id="line2d_17">
    <path d="M 34.23 26.58 
L 64.83 26.58 
" clip-path="url(#pd44c2dfabe)" style="fill: none; stroke: #000000; stroke-width: 2; stroke-linecap: round"/>
   </g>
   <g id="line2d_18">
    <path d="M 126.03 42.9 
L 126.03 10.26 
" clip-path="url(#pd44c2dfabe)" style="fill: none; stroke: #000000; stroke-width: 2; stroke-linecap: round"/>
   </g>
   <g id="line2d_19">
    <path d="M 64.83 42.9 
L 64.83 10.26 
" clip-path="url(#pd44c2dfabe)" style="fill: none; stroke: #000000; stroke-width: 2; stroke-linecap: round"/>
   </g>
   <g id="line2d_20">
    <path d="M 126.03 26.58 
L 98.184 26.58 
M 98.184 34.23 
L 98.184 18.93 
M 92.676 34.23 
L 92.676 18.93 
M 92.676 26.58 
L 64.83 26.58 
" clip-path="url(#pd44c2dfabe)" style="fill: none; stroke: #000000; stroke-width: 2; stroke-linecap: round"/>
   </g>
   <g id="line2d_21">
    <path d="M 126.03 42.9 
L 95.43 42.9 
M 103.08 50.55 
L 87.78 35.25 
M 87.78 50.55 
L 103.08 35.25 
M 95.43 42.9 
L 64.83 42.9 
" clip-path="url(#pd44c2dfabe)" style="fill: none; stroke: #000000; stroke-width: 2; stroke-linecap: round"/>
   </g>
   <g id="line2d_22">
    <path d="M 126.03 10.26 
L 110.73 10.26 
M 80.13 10.26 
L 64.83 10.26 
" clip-path="url(#pd44c2dfabe)" style="fill: none; stroke: #000000; stroke-width: 2; stroke-linecap: round"/>
   </g>
   <g id="patch_18">
    <path d="M 34.23 151.275 
C 34.838641 151.275 35.422436 151.033184 35.85281 150.60281 
C 36.283184 150.172436 36.525 149.588641 36.525 148.98 
C 36.525 148.371359 36.283184 147.787564 35.85281 147.35719 
C 35.422436 146.926816 34.838641 146.685 34.23 146.685 
C 33.621359 146.685 33.037564 146.926816 32.60719 147.35719 
C 32.176816 147.787564 31.935 148.371359 31.935 148.98 
C 31.935 149.588641 32.176816 150.172436 32.60719 150.60281 
C 33.037564 151.033184 33.621359 151.275 34.23 151.275 
z
" clip-path="url(#pd44c2dfabe)" style="stroke: #000000; stroke-width: 2; stroke-linejoin: miter"/>
   </g>
   <g id="patch_19">
    <path d="M 156.63 151.275 
C 157.238641 151.275 157.822436 151.033184 158.25281 150.60281 
C 158.683184 150.172436 158.925 149.588641 158.925 148.98 
C 158.925 148.371359 158.683184 147.787564 158.25281 147.35719 
C 157.822436 146.926816 157.238641 146.685 156.63 146.685 
C 156.021359 146.685 155.437564 146.926816 155.00719 147.35719 
C 154.576816 147.787564 154.335 148.371359 154.335 148.98 
C 154.335 149.588641 154.576816 150.172436 155.00719 150.60281 
C 155.437564 151.033184 156.021359 151.275 156.63 151.275 
z
" clip-path="url(#pd44c2dfabe)" style="stroke: #000000; stroke-width: 2; stroke-linejoin: miter"/>
   </g>
   <g id="patch_20">
    <path d="M 34.23 28.875 
C 34.838641 28.875 35.422436 28.633184 35.85281 28.20281 
C 36.283184 27.772436 36.525 27.188641 36.525 26.58 
C 36.525 25.971359 36.283184 25.387564 35.85281 24.95719 
C 35.422436 24.526816 34.838641 24.285 34.23 24.285 
C 33.621359 24.285 33.037564 24.526816 32.60719 24.95719 
C 32.176816 25.387564 31.935 25.971359 31.935 26.58 
C 31.935 27.188641 32.176816 27.772436 32.60719 28.20281 
C 33.037564 28.633184 33.621359 28.875 34.23 28.875 
z
" clip-path="url(#pd44c2dfabe)" style="stroke: #000000; stroke-width: 2; stroke-linejoin: miter"/>
   </g>
   <g id="patch_21">
    <path d="M 156.63 28.875 
C 157.238641 28.875 157.822436 28.633184 158.25281 28.20281 
C 158.683184 27.772436 158.925 27.188641 158.925 26.58 
C 158.925 25.971359 158.683184 25.387564 158.25281 24.95719 
C 157.822436 24.526816 157.238641 24.285 156.63 24.285 
C 156.021359 24.285 155.437564 24.526816 155.00719 24.95719 
C 154.576816 25.387564 154.335 25.971359 154.335 26.58 
C 154.335 27.188641 154.576816 27.772436 155.00719 28.20281 
C 155.437564 28.633184 156.021359 28.875 156.63 28.875 
z
" clip-path="url(#pd44c2dfabe)" style="stroke: #000000; stroke-width: 2; stroke-linejoin: miter"/>
   </g>
  </g>
 </g>
 <defs>
  <clipPath id="pd44c2dfabe">
   <rect x="7.2" y="7.2" width="176.46" height="147.135"/>
  </clipPath>
 </defs>
</svg>
