<?xml version="1.0" encoding="utf-8" standalone="no"?>
<!DOCTYPE svg PUBLIC "-//W3C//DTD SVG 1.1//EN"
  "http://www.w3.org/Graphics/SVG/1.1/DTD/svg11.dtd">
<svg xmlns:xlink="http://www.w3.org/1999/xlink" width="170.714981pt" height="162.81pt" viewBox="0 0 170.714981 162.81" xmlns="http://www.w3.org/2000/svg" version="1.1">
 <metadata>
  <rdf:RDF xmlns:dc="http://purl.org/dc/elements/1.1/" xmlns:cc="http://creativecommons.org/ns#" xmlns:rdf="http://www.w3.org/1999/02/22-rdf-syntax-ns#">
   <cc:Work>
    <dc:type rdf:resource="http://purl.org/dc/dcmitype/StillImage"/>
    <dc:date>2023-03-23T14:47:56.633157</dc:date>
    <dc:format>image/svg+xml</dc:format>
    <dc:creator>
     <cc:Agent>
      <dc:title>Matplotlib v3.5.2, https://matplotlib.org/</dc:title>
     </cc:Agent>
    </dc:creator>
   </cc:Work>
  </rdf:RDF>
 </metadata>
 <defs>
  <style type="text/css">*{stroke-linejoin: round; stroke-linecap: butt}</style>
 </defs>
 <g id="figure_1">
  <g id="patch_1">
   <path d="M 0 162.81 
L 170.714981 162.81 
L 170.714981 0 
L 0 0 
L 0 162.81 
z
" style="fill: none"/>
  </g>
  <g id="axes_1">
   <g id="patch_2">
    <path d="M 14.084981 91.35 
C 13.070917 91.35 12.097349 91.753265 11.380298 92.470317 
C 10.663246 93.187368 10.259981 94.160936 10.259981 95.175 
C 10.259981 96.189064 10.663246 97.162632 11.380298 97.879683 
C 12.097349 98.596735 13.070917 99 14.084981 99 
" clip-path="url(#p3c16218f35)" style="fill: none; stroke: #000000; stroke-width: 2; stroke-linejoin: miter"/>
   </g>
   <g id="patch_3">
    <path d="M 14.084981 83.7 
C 13.070917 83.7 12.097349 84.103265 11.380298 84.820317 
C 10.663246 85.537368 10.259981 86.510936 10.259981 87.525 
C 10.259981 88.539064 10.663246 89.512632 11.380298 90.229683 
C 12.097349 90.946735 13.070917 91.35 14.084981 91.35 
" clip-path="url(#p3c16218f35)" style="fill: none; stroke: #000000; stroke-width: 2; stroke-linejoin: miter"/>
   </g>
   <g id="patch_4">
    <path d="M 14.084981 76.05 
C 13.070917 76.05 12.097349 76.453265 11.380298 77.170317 
C 10.663246 77.887368 10.259981 78.860936 10.259981 79.875 
C 10.259981 80.889064 10.663246 81.862632 11.380298 82.579683 
C 12.097349 83.296735 13.070917 83.7 14.084981 83.7 
" clip-path="url(#p3c16218f35)" style="fill: none; stroke: #000000; stroke-width: 2; stroke-linejoin: miter"/>
   </g>
   <g id="patch_5">
    <path d="M 14.084981 68.4 
C 13.070917 68.4 12.097349 68.803265 11.380298 69.520317 
C 10.663246 70.237368 10.259981 71.210936 10.259981 72.225 
C 10.259981 73.239064 10.663246 74.212632 11.380298 74.929683 
C 12.097349 75.646735 13.070917 76.05 14.084981 76.05 
" clip-path="url(#p3c16218f35)" style="fill: none; stroke: #000000; stroke-width: 2; stroke-linejoin: miter"/>
   </g>
   <g id="patch_6">
    <path d="M 120.164981 76.05 
C 121.179045 76.05 122.152613 75.646735 122.869664 74.929683 
C 123.586716 74.212632 123.989981 73.239064 123.989981 72.225 
C 123.989981 71.210936 123.586716 70.237368 122.869664 69.520317 
C 122.152613 68.803265 121.179045 68.4 120.164981 68.4 
" clip-path="url(#p3c16218f35)" style="fill: none; stroke: #000000; stroke-width: 2; stroke-linejoin: miter"/>
   </g>
   <g id="patch_7">
    <path d="M 120.164981 83.7 
C 121.179045 83.7 122.152613 83.296735 122.869664 82.579683 
C 123.586716 81.862632 123.989981 80.889064 123.989981 79.875 
C 123.989981 78.860936 123.586716 77.887368 122.869664 77.170317 
C 122.152613 76.453265 121.179045 76.05 120.164981 76.05 
" clip-path="url(#p3c16218f35)" style="fill: none; stroke: #000000; stroke-width: 2; stroke-linejoin: miter"/>
   </g>
   <g id="patch_8">
    <path d="M 120.164981 91.35 
C 121.179045 91.35 122.152613 90.946735 122.869664 90.229683 
C 123.586716 89.512632 123.989981 88.539064 123.989981 87.525 
C 123.989981 86.510936 123.586716 85.537368 122.869664 84.820317 
C 122.152613 84.103265 121.179045 83.7 120.164981 83.7 
" clip-path="url(#p3c16218f35)" style="fill: none; stroke: #000000; stroke-width: 2; stroke-linejoin: miter"/>
   </g>
   <g id="patch_9">
    <path d="M 120.164981 99 
C 121.179045 99 122.152613 98.596735 122.869664 97.879683 
C 123.586716 97.162632 123.989981 96.189064 123.989981 95.175 
C 123.989981 94.160936 123.586716 93.187368 122.869664 92.470317 
C 122.152613 91.753265 121.179045 91.35 120.164981 91.35 
" clip-path="url(#p3c16218f35)" style="fill: none; stroke: #000000; stroke-width: 2; stroke-linejoin: miter"/>
   </g>
   <g id="patch_10">
    <path d="M 82.934981 10.26 
C 82.934981 11.274064 83.338246 12.247632 84.055298 12.964683 
C 84.772349 13.681735 85.745917 14.085 86.759981 14.085 
C 87.774045 14.085 88.747613 13.681735 89.464664 12.964683 
C 90.181716 12.247632 90.584981 11.274064 90.584981 10.26 
" clip-path="url(#p3c16218f35)" style="fill: none; stroke: #000000; stroke-width: 2; stroke-linejoin: miter"/>
   </g>
   <g id="patch_11">
    <path d="M 75.284981 10.26 
C 75.284981 11.274064 75.688246 12.247632 76.405298 12.964683 
C 77.122349 13.681735 78.095917 14.085 79.109981 14.085 
C 80.124045 14.085 81.097613 13.681735 81.814664 12.964683 
C 82.531716 12.247632 82.934981 11.274064 82.934981 10.26 
" clip-path="url(#p3c16218f35)" style="fill: none; stroke: #000000; stroke-width: 2; stroke-linejoin: miter"/>
   </g>
   <g id="patch_12">
    <path d="M 67.634981 10.26 
C 67.634981 11.274064 68.038246 12.247632 68.755298 12.964683 
C 69.472349 13.681735 70.445917 14.085 71.459981 14.085 
C 72.474045 14.085 73.447613 13.681735 74.164664 12.964683 
C 74.881716 12.247632 75.284981 11.274064 75.284981 10.26 
" clip-path="url(#p3c16218f35)" style="fill: none; stroke: #000000; stroke-width: 2; stroke-linejoin: miter"/>
   </g>
   <g id="patch_13">
    <path d="M 59.984981 10.26 
C 59.984981 11.274064 60.388246 12.247632 61.105298 12.964683 
C 61.822349 13.681735 62.795917 14.085 63.809981 14.085 
C 64.824045 14.085 65.797613 13.681735 66.514664 12.964683 
C 67.231716 12.247632 67.634981 11.274064 67.634981 10.26 
" clip-path="url(#p3c16218f35)" style="fill: none; stroke: #000000; stroke-width: 2; stroke-linejoin: miter"/>
   </g>
   <g id="line2d_1">
    <path d="M 14.084981 144.9 
L 72.530981 144.9 
M 72.530981 137.25 
L 72.530981 152.55 
M 78.038981 137.25 
L 78.038981 152.55 
M 78.038981 144.9 
L 136.484981 144.9 
" clip-path="url(#p3c16218f35)" style="fill: none; stroke: #000000; stroke-width: 2; stroke-linecap: round"/>
   </g>
   <g id="line2d_2">
    <path d="M 14.084981 144.9 
L 14.084981 99 
M 14.084981 68.4 
L 14.084981 22.5 
" clip-path="url(#p3c16218f35)" style="fill: none; stroke: #000000; stroke-width: 2; stroke-linecap: round"/>
   </g>
   <g id="line2d_3">
    <path d="M 136.484981 22.5 
L 136.484981 53.1 
" clip-path="url(#p3c16218f35)" style="fill: none; stroke: #000000; stroke-width: 2; stroke-linecap: round"/>
   </g>
   <g id="line2d_4">
    <path d="M 136.484981 144.9 
L 136.484981 114.3 
" clip-path="url(#p3c16218f35)" style="fill: none; stroke: #000000; stroke-width: 2; stroke-linecap: round"/>
   </g>
   <g id="line2d_5">
    <path d="M 152.804981 53.1 
L 120.164981 53.1 
" clip-path="url(#p3c16218f35)" style="fill: none; stroke: #000000; stroke-width: 2; stroke-linecap: round"/>
   </g>
   <g id="line2d_6">
    <path d="M 152.804981 114.3 
L 120.164981 114.3 
" clip-path="url(#p3c16218f35)" style="fill: none; stroke: #000000; stroke-width: 2; stroke-linecap: round"/>
   </g>
   <g id="line2d_7">
    <path d="M 136.484981 53.1 
L 136.484981 80.946 
M 144.134981 80.946 
L 128.834981 80.946 
M 144.134981 86.454 
L 128.834981 86.454 
M 136.484981 86.454 
L 136.484981 114.3 
" clip-path="url(#p3c16218f35)" style="fill: none; stroke: #000000; stroke-width: 2; stroke-linecap: round"/>
   </g>
   <g id="line2d_8">
    <path d="M 152.804981 53.1 
L 152.804981 83.7 
M 160.454981 76.05 
L 145.154981 91.35 
M 160.454981 91.35 
L 145.154981 76.05 
M 152.804981 83.7 
L 152.804981 114.3 
" clip-path="url(#p3c16218f35)" style="fill: none; stroke: #000000; stroke-width: 2; stroke-linecap: round"/>
   </g>
   <g id="line2d_9">
    <path d="M 120.164981 53.1 
L 120.164981 68.4 
M 120.164981 99 
L 120.164981 114.3 
" clip-path="url(#p3c16218f35)" style="fill: none; stroke: #000000; stroke-width: 2; stroke-linecap: round"/>
   </g>
   <g id="line2d_10">
    <path d="M 136.484981 22.5 
L 105.884981 22.5 
" clip-path="url(#p3c16218f35)" style="fill: none; stroke: #000000; stroke-width: 2; stroke-linecap: round"/>
   </g>
   <g id="line2d_11">
    <path d="M 14.084981 22.5 
L 44.684981 22.5 
" clip-path="url(#p3c16218f35)" style="fill: none; stroke: #000000; stroke-width: 2; stroke-linecap: round"/>
   </g>
   <g id="line2d_12">
    <path d="M 105.884981 34.74 
L 105.884981 10.26 
" clip-path="url(#p3c16218f35)" style="fill: none; stroke: #000000; stroke-width: 2; stroke-linecap: round"/>
   </g>
   <g id="line2d_13">
    <path d="M 44.684981 34.74 
L 44.684981 10.26 
" clip-path="url(#p3c16218f35)" style="fill: none; stroke: #000000; stroke-width: 2; stroke-linecap: round"/>
   </g>
   <g id="line2d_14">
    <path d="M 105.884981 34.74 
L 75.284981 34.74 
M 82.934981 42.39 
L 67.634981 27.09 
M 67.634981 42.39 
L 82.934981 27.09 
M 75.284981 34.74 
L 44.684981 34.74 
" clip-path="url(#p3c16218f35)" style="fill: none; stroke: #000000; stroke-width: 2; stroke-linecap: round"/>
   </g>
   <g id="line2d_15">
    <path d="M 105.884981 10.26 
L 90.584981 10.26 
M 59.984981 10.26 
L 44.684981 10.26 
" clip-path="url(#p3c16218f35)" style="fill: none; stroke: #000000; stroke-width: 2; stroke-linecap: round"/>
   </g>
   <g id="patch_14">
    <path d="M 14.084981 147.195 
C 14.693622 147.195 15.277417 146.953184 15.707791 146.52281 
C 16.138165 146.092436 16.379981 145.508641 16.379981 144.9 
C 16.379981 144.291359 16.138165 143.707564 15.707791 143.27719 
C 15.277417 142.846816 14.693622 142.605 14.084981 142.605 
C 13.47634 142.605 12.892545 142.846816 12.462171 143.27719 
C 12.031797 143.707564 11.789981 144.291359 11.789981 144.9 
C 11.789981 145.508641 12.031797 146.092436 12.462171 146.52281 
C 12.892545 146.953184 13.47634 147.195 14.084981 147.195 
z
" clip-path="url(#p3c16218f35)" style="stroke: #000000; stroke-width: 2; stroke-linejoin: miter"/>
   </g>
   <g id="patch_15">
    <path d="M 136.484981 147.195 
C 137.093622 147.195 137.677417 146.953184 138.107791 146.52281 
C 138.538165 146.092436 138.779981 145.508641 138.779981 144.9 
C 138.779981 144.291359 138.538165 143.707564 138.107791 143.27719 
C 137.677417 142.846816 137.093622 142.605 136.484981 142.605 
C 135.87634 142.605 135.292545 142.846816 134.862171 143.27719 
C 134.431797 143.707564 134.189981 144.291359 134.189981 144.9 
C 134.189981 145.508641 134.431797 146.092436 134.862171 146.52281 
C 135.292545 146.953184 135.87634 147.195 136.484981 147.195 
z
" clip-path="url(#p3c16218f35)" style="stroke: #000000; stroke-width: 2; stroke-linejoin: miter"/>
   </g>
   <g id="patch_16">
    <path d="M 14.084981 24.795 
C 14.693622 24.795 15.277417 24.553184 15.707791 24.12281 
C 16.138165 23.692436 16.379981 23.108641 16.379981 22.5 
C 16.379981 21.891359 16.138165 21.307564 15.707791 20.87719 
C 15.277417 20.446816 14.693622 20.205 14.084981 20.205 
C 13.47634 20.205 12.892545 20.446816 12.462171 20.87719 
C 12.031797 21.307564 11.789981 21.891359 11.789981 22.5 
C 11.789981 23.108641 12.031797 23.692436 12.462171 24.12281 
C 12.892545 24.553184 13.47634 24.795 14.084981 24.795 
z
" clip-path="url(#p3c16218f35)" style="stroke: #000000; stroke-width: 2; stroke-linejoin: miter"/>
   </g>
   <g id="patch_17">
    <path d="M 136.484981 24.795 
C 137.093622 24.795 137.677417 24.553184 138.107791 24.12281 
C 138.538165 23.692436 138.779981 23.108641 138.779981 22.5 
C 138.779981 21.891359 138.538165 21.307564 138.107791 20.87719 
C 137.677417 20.446816 137.093622 20.205 136.484981 20.205 
C 135.87634 20.205 135.292545 20.446816 134.862171 20.87719 
C 134.431797 21.307564 134.189981 21.891359 134.189981 22.5 
C 134.189981 23.108641 134.431797 23.692436 134.862171 24.12281 
C 135.292545 24.553184 135.87634 24.795 136.484981 24.795 
z
" clip-path="url(#p3c16218f35)" style="stroke: #000000; stroke-width: 2; stroke-linejoin: miter"/>
   </g>
  </g>
 </g>
 <defs>
  <clipPath id="p3c16218f35">
   <rect x="7.2" y="7.2" width="156.314981" height="148.41"/>
  </clipPath>
 </defs>
</svg>
