<?xml version="1.0" encoding="utf-8" standalone="no"?>
<!DOCTYPE svg PUBLIC "-//W3C//DTD SVG 1.1//EN"
  "http://www.w3.org/Graphics/SVG/1.1/DTD/svg11.dtd">
<svg xmlns:xlink="http://www.w3.org/1999/xlink" width="170.714981pt" height="170.46pt" viewBox="0 0 170.714981 170.46" xmlns="http://www.w3.org/2000/svg" version="1.1">
 <metadata>
  <rdf:RDF xmlns:dc="http://purl.org/dc/elements/1.1/" xmlns:cc="http://creativecommons.org/ns#" xmlns:rdf="http://www.w3.org/1999/02/22-rdf-syntax-ns#">
   <cc:Work>
    <dc:type rdf:resource="http://purl.org/dc/dcmitype/StillImage"/>
    <dc:date>2023-03-23T14:46:06.450991</dc:date>
    <dc:format>image/svg+xml</dc:format>
    <dc:creator>
     <cc:Agent>
      <dc:title>Matplotlib v3.5.2, https://matplotlib.org/</dc:title>
     </cc:Agent>
    </dc:creator>
   </cc:Work>
  </rdf:RDF>
 </metadata>
 <defs>
  <style type="text/css">*{stroke-linejoin: round; stroke-linecap: butt}</style>
 </defs>
 <g id="figure_1">
  <g id="patch_1">
   <path d="M 0 170.46 
L 170.714981 170.46 
L 170.714981 0 
L 0 0 
L 0 170.46 
z
" style="fill: none"/>
  </g>
  <g id="axes_1">
   <g id="patch_2">
    <path d="M 14.084981 99 
C 13.070917 99 12.097349 99.403265 11.380298 100.120317 
C 10.663246 100.837368 10.259981 101.810936 10.259981 102.825 
C 10.259981 103.839064 10.663246 104.812632 11.380298 105.529683 
C 12.097349 106.246735 13.070917 106.65 14.084981 106.65 
" clip-path="url(#pa5133ab910)" style="fill: none; stroke: #000000; stroke-width: 2; stroke-linejoin: miter"/>
   </g>
   <g id="patch_3">
    <path d="M 14.084981 91.35 
C 13.070917 91.35 12.097349 91.753265 11.380298 92.470317 
C 10.663246 93.187368 10.259981 94.160936 10.259981 95.175 
C 10.259981 96.189064 10.663246 97.162632 11.380298 97.879683 
C 12.097349 98.596735 13.070917 99 14.084981 99 
" clip-path="url(#pa5133ab910)" style="fill: none; stroke: #000000; stroke-width: 2; stroke-linejoin: miter"/>
   </g>
   <g id="patch_4">
    <path d="M 14.084981 83.7 
C 13.070917 83.7 12.097349 84.103265 11.380298 84.820317 
C 10.663246 85.537368 10.259981 86.510936 10.259981 87.525 
C 10.259981 88.539064 10.663246 89.512632 11.380298 90.229683 
C 12.097349 90.946735 13.070917 91.35 14.084981 91.35 
" clip-path="url(#pa5133ab910)" style="fill: none; stroke: #000000; stroke-width: 2; stroke-linejoin: miter"/>
   </g>
   <g id="patch_5">
    <path d="M 14.084981 76.05 
C 13.070917 76.05 12.097349 76.453265 11.380298 77.170317 
C 10.663246 77.887368 10.259981 78.860936 10.259981 79.875 
C 10.259981 80.889064 10.663246 81.862632 11.380298 82.579683 
C 12.097349 83.296735 13.070917 83.7 14.084981 83.7 
" clip-path="url(#pa5133ab910)" style="fill: none; stroke: #000000; stroke-width: 2; stroke-linejoin: miter"/>
   </g>
   <g id="patch_6">
    <path d="M 120.164981 83.7 
C 121.179045 83.7 122.152613 83.296735 122.869664 82.579683 
C 123.586716 81.862632 123.989981 80.889064 123.989981 79.875 
C 123.989981 78.860936 123.586716 77.887368 122.869664 77.170317 
C 122.152613 76.453265 121.179045 76.05 120.164981 76.05 
" clip-path="url(#pa5133ab910)" style="fill: none; stroke: #000000; stroke-width: 2; stroke-linejoin: miter"/>
   </g>
   <g id="patch_7">
    <path d="M 120.164981 91.35 
C 121.179045 91.35 122.152613 90.946735 122.869664 90.229683 
C 123.586716 89.512632 123.989981 88.539064 123.989981 87.525 
C 123.989981 86.510936 123.586716 85.537368 122.869664 84.820317 
C 122.152613 84.103265 121.179045 83.7 120.164981 83.7 
" clip-path="url(#pa5133ab910)" style="fill: none; stroke: #000000; stroke-width: 2; stroke-linejoin: miter"/>
   </g>
   <g id="patch_8">
    <path d="M 120.164981 99 
C 121.179045 99 122.152613 98.596735 122.869664 97.879683 
C 123.586716 97.162632 123.989981 96.189064 123.989981 95.175 
C 123.989981 94.160936 123.586716 93.187368 122.869664 92.470317 
C 122.152613 91.753265 121.179045 91.35 120.164981 91.35 
" clip-path="url(#pa5133ab910)" style="fill: none; stroke: #000000; stroke-width: 2; stroke-linejoin: miter"/>
   </g>
   <g id="patch_9">
    <path d="M 120.164981 106.65 
C 121.179045 106.65 122.152613 106.246735 122.869664 105.529683 
C 123.586716 104.812632 123.989981 103.839064 123.989981 102.825 
C 123.989981 101.810936 123.586716 100.837368 122.869664 100.120317 
C 122.152613 99.403265 121.179045 99 120.164981 99 
" clip-path="url(#pa5133ab910)" style="fill: none; stroke: #000000; stroke-width: 2; stroke-linejoin: miter"/>
   </g>
   <g id="line2d_1">
    <path d="M 14.084981 152.55 
L 72.530981 152.55 
M 72.530981 144.9 
L 72.530981 160.2 
M 78.038981 144.9 
L 78.038981 160.2 
M 78.038981 152.55 
L 136.484981 152.55 
" clip-path="url(#pa5133ab910)" style="fill: none; stroke: #000000; stroke-width: 2; stroke-linecap: round"/>
   </g>
   <g id="line2d_2">
    <path d="M 14.084981 152.55 
L 14.084981 106.65 
M 14.084981 76.05 
L 14.084981 30.15 
" clip-path="url(#pa5133ab910)" style="fill: none; stroke: #000000; stroke-width: 2; stroke-linecap: round"/>
   </g>
   <g id="line2d_3">
    <path d="M 136.484981 30.15 
L 136.484981 60.75 
" clip-path="url(#pa5133ab910)" style="fill: none; stroke: #000000; stroke-width: 2; stroke-linecap: round"/>
   </g>
   <g id="line2d_4">
    <path d="M 136.484981 152.55 
L 136.484981 121.95 
" clip-path="url(#pa5133ab910)" style="fill: none; stroke: #000000; stroke-width: 2; stroke-linecap: round"/>
   </g>
   <g id="line2d_5">
    <path d="M 152.804981 60.75 
L 120.164981 60.75 
" clip-path="url(#pa5133ab910)" style="fill: none; stroke: #000000; stroke-width: 2; stroke-linecap: round"/>
   </g>
   <g id="line2d_6">
    <path d="M 152.804981 121.95 
L 120.164981 121.95 
" clip-path="url(#pa5133ab910)" style="fill: none; stroke: #000000; stroke-width: 2; stroke-linecap: round"/>
   </g>
   <g id="line2d_7">
    <path d="M 136.484981 60.75 
L 136.484981 88.596 
M 144.134981 88.596 
L 128.834981 88.596 
M 144.134981 94.104 
L 128.834981 94.104 
M 136.484981 94.104 
L 136.484981 121.95 
" clip-path="url(#pa5133ab910)" style="fill: none; stroke: #000000; stroke-width: 2; stroke-linecap: round"/>
   </g>
   <g id="line2d_8">
    <path d="M 152.804981 60.75 
L 152.804981 91.35 
M 160.454981 83.7 
L 145.154981 99 
M 160.454981 99 
L 145.154981 83.7 
M 152.804981 91.35 
L 152.804981 121.95 
" clip-path="url(#pa5133ab910)" style="fill: none; stroke: #000000; stroke-width: 2; stroke-linecap: round"/>
   </g>
   <g id="line2d_9">
    <path d="M 120.164981 60.75 
L 120.164981 76.05 
M 120.164981 106.65 
L 120.164981 121.95 
" clip-path="url(#pa5133ab910)" style="fill: none; stroke: #000000; stroke-width: 2; stroke-linecap: round"/>
   </g>
   <g id="line2d_10">
    <path d="M 136.484981 30.15 
L 105.884981 30.15 
" clip-path="url(#pa5133ab910)" style="fill: none; stroke: #000000; stroke-width: 2; stroke-linecap: round"/>
   </g>
   <g id="line2d_11">
    <path d="M 14.084981 30.15 
L 44.684981 30.15 
" clip-path="url(#pa5133ab910)" style="fill: none; stroke: #000000; stroke-width: 2; stroke-linecap: round"/>
   </g>
   <g id="line2d_12">
    <path d="M 105.884981 42.39 
L 105.884981 17.91 
" clip-path="url(#pa5133ab910)" style="fill: none; stroke: #000000; stroke-width: 2; stroke-linecap: round"/>
   </g>
   <g id="line2d_13">
    <path d="M 44.684981 42.39 
L 44.684981 17.91 
" clip-path="url(#pa5133ab910)" style="fill: none; stroke: #000000; stroke-width: 2; stroke-linecap: round"/>
   </g>
   <g id="line2d_14">
    <path d="M 105.884981 42.39 
L 78.038981 42.39 
M 78.038981 50.04 
L 78.038981 34.74 
M 72.530981 50.04 
L 72.530981 34.74 
M 72.530981 42.39 
L 44.684981 42.39 
" clip-path="url(#pa5133ab910)" style="fill: none; stroke: #000000; stroke-width: 2; stroke-linecap: round"/>
   </g>
   <g id="line2d_15">
    <path d="M 105.884981 17.91 
L 75.284981 17.91 
M 82.934981 25.56 
L 67.634981 10.26 
M 67.634981 25.56 
L 82.934981 10.26 
M 75.284981 17.91 
L 44.684981 17.91 
" clip-path="url(#pa5133ab910)" style="fill: none; stroke: #000000; stroke-width: 2; stroke-linecap: round"/>
   </g>
   <g id="patch_10">
    <path d="M 14.084981 154.845 
C 14.693622 154.845 15.277417 154.603184 15.707791 154.17281 
C 16.138165 153.742436 16.379981 153.158641 16.379981 152.55 
C 16.379981 151.941359 16.138165 151.357564 15.707791 150.92719 
C 15.277417 150.496816 14.693622 150.255 14.084981 150.255 
C 13.47634 150.255 12.892545 150.496816 12.462171 150.92719 
C 12.031797 151.357564 11.789981 151.941359 11.789981 152.55 
C 11.789981 153.158641 12.031797 153.742436 12.462171 154.17281 
C 12.892545 154.603184 13.47634 154.845 14.084981 154.845 
z
" clip-path="url(#pa5133ab910)" style="stroke: #000000; stroke-width: 2; stroke-linejoin: miter"/>
   </g>
   <g id="patch_11">
    <path d="M 136.484981 154.845 
C 137.093622 154.845 137.677417 154.603184 138.107791 154.17281 
C 138.538165 153.742436 138.779981 153.158641 138.779981 152.55 
C 138.779981 151.941359 138.538165 151.357564 138.107791 150.92719 
C 137.677417 150.496816 137.093622 150.255 136.484981 150.255 
C 135.87634 150.255 135.292545 150.496816 134.862171 150.92719 
C 134.431797 151.357564 134.189981 151.941359 134.189981 152.55 
C 134.189981 153.158641 134.431797 153.742436 134.862171 154.17281 
C 135.292545 154.603184 135.87634 154.845 136.484981 154.845 
z
" clip-path="url(#pa5133ab910)" style="stroke: #000000; stroke-width: 2; stroke-linejoin: miter"/>
   </g>
   <g id="patch_12">
    <path d="M 14.084981 32.445 
C 14.693622 32.445 15.277417 32.203184 15.707791 31.77281 
C 16.138165 31.342436 16.379981 30.758641 16.379981 30.15 
C 16.379981 29.541359 16.138165 28.957564 15.707791 28.52719 
C 15.277417 28.096816 14.693622 27.855 14.084981 27.855 
C 13.47634 27.855 12.892545 28.096816 12.462171 28.52719 
C 12.031797 28.957564 11.789981 29.541359 11.789981 30.15 
C 11.789981 30.758641 12.031797 31.342436 12.462171 31.77281 
C 12.892545 32.203184 13.47634 32.445 14.084981 32.445 
z
" clip-path="url(#pa5133ab910)" style="stroke: #000000; stroke-width: 2; stroke-linejoin: miter"/>
   </g>
   <g id="patch_13">
    <path d="M 136.484981 32.445 
C 137.093622 32.445 137.677417 32.203184 138.107791 31.77281 
C 138.538165 31.342436 138.779981 30.758641 138.779981 30.15 
C 138.779981 29.541359 138.538165 28.957564 138.107791 28.52719 
C 137.677417 28.096816 137.093622 27.855 136.484981 27.855 
C 135.87634 27.855 135.292545 28.096816 134.862171 28.52719 
C 134.431797 28.957564 134.189981 29.541359 134.189981 30.15 
C 134.189981 30.758641 134.431797 31.342436 134.862171 31.77281 
C 135.292545 32.203184 135.87634 32.445 136.484981 32.445 
z
" clip-path="url(#pa5133ab910)" style="stroke: #000000; stroke-width: 2; stroke-linejoin: miter"/>
   </g>
  </g>
 </g>
 <defs>
  <clipPath id="pa5133ab910">
   <rect x="7.2" y="7.2" width="156.314981" height="156.06"/>
  </clipPath>
 </defs>
</svg>
