<?xml version="1.0" encoding="utf-8" standalone="no"?>
<!DOCTYPE svg PUBLIC "-//W3C//DTD SVG 1.1//EN"
  "http://www.w3.org/Graphics/SVG/1.1/DTD/svg11.dtd">
<svg xmlns:xlink="http://www.w3.org/1999/xlink" width="186.78pt" height="171.48pt" viewBox="0 0 186.78 171.48" xmlns="http://www.w3.org/2000/svg" version="1.1">
 <metadata>
  <rdf:RDF xmlns:dc="http://purl.org/dc/elements/1.1/" xmlns:cc="http://creativecommons.org/ns#" xmlns:rdf="http://www.w3.org/1999/02/22-rdf-syntax-ns#">
   <cc:Work>
    <dc:type rdf:resource="http://purl.org/dc/dcmitype/StillImage"/>
    <dc:date>2023-03-23T14:51:34.305977</dc:date>
    <dc:format>image/svg+xml</dc:format>
    <dc:creator>
     <cc:Agent>
      <dc:title>Matplotlib v3.5.2, https://matplotlib.org/</dc:title>
     </cc:Agent>
    </dc:creator>
   </cc:Work>
  </rdf:RDF>
 </metadata>
 <defs>
  <style type="text/css">*{stroke-linejoin: round; stroke-linecap: butt}</style>
 </defs>
 <g id="figure_1">
  <g id="patch_1">
   <path d="M 0 171.48 
L 186.78 171.48 
L 186.78 0 
L 0 0 
L 0 171.48 
z
" style="fill: none"/>
  </g>
  <g id="axes_1">
   <g id="patch_2">
    <path d="M 83.7 161.22 
C 83.7 160.205936 83.296735 159.232368 82.579683 158.515317 
C 81.862632 157.798265 80.889064 157.395 79.875 157.395 
C 78.860936 157.395 77.887368 157.798265 77.170317 158.515317 
C 76.453265 159.232368 76.05 160.205936 76.05 161.22 
" clip-path="url(#pdf8417a76b)" style="fill: none; stroke: #000000; stroke-width: 2; stroke-linejoin: miter"/>
   </g>
   <g id="patch_3">
    <path d="M 91.35 161.22 
C 91.35 160.205936 90.946735 159.232368 90.229683 158.515317 
C 89.512632 157.798265 88.539064 157.395 87.525 157.395 
C 86.510936 157.395 85.537368 157.798265 84.820317 158.515317 
C 84.103265 159.232368 83.7 160.205936 83.7 161.22 
" clip-path="url(#pdf8417a76b)" style="fill: none; stroke: #000000; stroke-width: 2; stroke-linejoin: miter"/>
   </g>
   <g id="patch_4">
    <path d="M 99 161.22 
C 99 160.205936 98.596735 159.232368 97.879683 158.515317 
C 97.162632 157.798265 96.189064 157.395 95.175 157.395 
C 94.160936 157.395 93.187368 157.798265 92.470317 158.515317 
C 91.753265 159.232368 91.35 160.205936 91.35 161.22 
" clip-path="url(#pdf8417a76b)" style="fill: none; stroke: #000000; stroke-width: 2; stroke-linejoin: miter"/>
   </g>
   <g id="patch_5">
    <path d="M 106.65 161.22 
C 106.65 160.205936 106.246735 159.232368 105.529683 158.515317 
C 104.812632 157.798265 103.839064 157.395 102.825 157.395 
C 101.810936 157.395 100.837368 157.798265 100.120317 158.515317 
C 99.403265 159.232368 99 160.205936 99 161.22 
" clip-path="url(#pdf8417a76b)" style="fill: none; stroke: #000000; stroke-width: 2; stroke-linejoin: miter"/>
   </g>
   <g id="patch_6">
    <path d="M 42.39 95.43 
C 41.375936 95.43 40.402368 95.833265 39.685317 96.550317 
C 38.968265 97.267368 38.565 98.240936 38.565 99.255 
C 38.565 100.269064 38.968265 101.242632 39.685317 101.959683 
C 40.402368 102.676735 41.375936 103.08 42.39 103.08 
" clip-path="url(#pdf8417a76b)" style="fill: none; stroke: #000000; stroke-width: 2; stroke-linejoin: miter"/>
   </g>
   <g id="patch_7">
    <path d="M 42.39 87.78 
C 41.375936 87.78 40.402368 88.183265 39.685317 88.900317 
C 38.968265 89.617368 38.565 90.590936 38.565 91.605 
C 38.565 92.619064 38.968265 93.592632 39.685317 94.309683 
C 40.402368 95.026735 41.375936 95.43 42.39 95.43 
" clip-path="url(#pdf8417a76b)" style="fill: none; stroke: #000000; stroke-width: 2; stroke-linejoin: miter"/>
   </g>
   <g id="patch_8">
    <path d="M 42.39 80.13 
C 41.375936 80.13 40.402368 80.533265 39.685317 81.250317 
C 38.968265 81.967368 38.565 82.940936 38.565 83.955 
C 38.565 84.969064 38.968265 85.942632 39.685317 86.659683 
C 40.402368 87.376735 41.375936 87.78 42.39 87.78 
" clip-path="url(#pdf8417a76b)" style="fill: none; stroke: #000000; stroke-width: 2; stroke-linejoin: miter"/>
   </g>
   <g id="patch_9">
    <path d="M 42.39 72.48 
C 41.375936 72.48 40.402368 72.883265 39.685317 73.600317 
C 38.968265 74.317368 38.565 75.290936 38.565 76.305 
C 38.565 77.319064 38.968265 78.292632 39.685317 79.009683 
C 40.402368 79.726735 41.375936 80.13 42.39 80.13 
" clip-path="url(#pdf8417a76b)" style="fill: none; stroke: #000000; stroke-width: 2; stroke-linejoin: miter"/>
   </g>
   <g id="patch_10">
    <path d="M 136.23 80.13 
C 137.244064 80.13 138.217632 79.726735 138.934683 79.009683 
C 139.651735 78.292632 140.055 77.319064 140.055 76.305 
C 140.055 75.290936 139.651735 74.317368 138.934683 73.600317 
C 138.217632 72.883265 137.244064 72.48 136.23 72.48 
" clip-path="url(#pdf8417a76b)" style="fill: none; stroke: #000000; stroke-width: 2; stroke-linejoin: miter"/>
   </g>
   <g id="patch_11">
    <path d="M 136.23 87.78 
C 137.244064 87.78 138.217632 87.376735 138.934683 86.659683 
C 139.651735 85.942632 140.055 84.969064 140.055 83.955 
C 140.055 82.940936 139.651735 81.967368 138.934683 81.250317 
C 138.217632 80.533265 137.244064 80.13 136.23 80.13 
" clip-path="url(#pdf8417a76b)" style="fill: none; stroke: #000000; stroke-width: 2; stroke-linejoin: miter"/>
   </g>
   <g id="patch_12">
    <path d="M 136.23 95.43 
C 137.244064 95.43 138.217632 95.026735 138.934683 94.309683 
C 139.651735 93.592632 140.055 92.619064 140.055 91.605 
C 140.055 90.590936 139.651735 89.617368 138.934683 88.900317 
C 138.217632 88.183265 137.244064 87.78 136.23 87.78 
" clip-path="url(#pdf8417a76b)" style="fill: none; stroke: #000000; stroke-width: 2; stroke-linejoin: miter"/>
   </g>
   <g id="patch_13">
    <path d="M 136.23 103.08 
C 137.244064 103.08 138.217632 102.676735 138.934683 101.959683 
C 139.651735 101.242632 140.055 100.269064 140.055 99.255 
C 140.055 98.240936 139.651735 97.267368 138.934683 96.550317 
C 138.217632 95.833265 137.244064 95.43 136.23 95.43 
" clip-path="url(#pdf8417a76b)" style="fill: none; stroke: #000000; stroke-width: 2; stroke-linejoin: miter"/>
   </g>
   <g id="patch_14">
    <path d="M 99 10.26 
C 99 11.274064 99.403265 12.247632 100.120317 12.964683 
C 100.837368 13.681735 101.810936 14.085 102.825 14.085 
C 103.839064 14.085 104.812632 13.681735 105.529683 12.964683 
C 106.246735 12.247632 106.65 11.274064 106.65 10.26 
" clip-path="url(#pdf8417a76b)" style="fill: none; stroke: #000000; stroke-width: 2; stroke-linejoin: miter"/>
   </g>
   <g id="patch_15">
    <path d="M 91.35 10.26 
C 91.35 11.274064 91.753265 12.247632 92.470317 12.964683 
C 93.187368 13.681735 94.160936 14.085 95.175 14.085 
C 96.189064 14.085 97.162632 13.681735 97.879683 12.964683 
C 98.596735 12.247632 99 11.274064 99 10.26 
" clip-path="url(#pdf8417a76b)" style="fill: none; stroke: #000000; stroke-width: 2; stroke-linejoin: miter"/>
   </g>
   <g id="patch_16">
    <path d="M 83.7 10.26 
C 83.7 11.274064 84.103265 12.247632 84.820317 12.964683 
C 85.537368 13.681735 86.510936 14.085 87.525 14.085 
C 88.539064 14.085 89.512632 13.681735 90.229683 12.964683 
C 90.946735 12.247632 91.35 11.274064 91.35 10.26 
" clip-path="url(#pdf8417a76b)" style="fill: none; stroke: #000000; stroke-width: 2; stroke-linejoin: miter"/>
   </g>
   <g id="patch_17">
    <path d="M 76.05 10.26 
C 76.05 11.274064 76.453265 12.247632 77.170317 12.964683 
C 77.887368 13.681735 78.860936 14.085 79.875 14.085 
C 80.889064 14.085 81.862632 13.681735 82.579683 12.964683 
C 83.296735 12.247632 83.7 11.274064 83.7 10.26 
" clip-path="url(#pdf8417a76b)" style="fill: none; stroke: #000000; stroke-width: 2; stroke-linejoin: miter"/>
   </g>
   <g id="line2d_1">
    <path d="M 30.15 148.98 
L 60.75 148.98 
" clip-path="url(#pdf8417a76b)" style="fill: none; stroke: #000000; stroke-width: 2; stroke-linecap: round"/>
   </g>
   <g id="line2d_2">
    <path d="M 152.55 148.98 
L 121.95 148.98 
" clip-path="url(#pdf8417a76b)" style="fill: none; stroke: #000000; stroke-width: 2; stroke-linecap: round"/>
   </g>
   <g id="line2d_3">
    <path d="M 60.75 136.74 
L 60.75 161.22 
" clip-path="url(#pdf8417a76b)" style="fill: none; stroke: #000000; stroke-width: 2; stroke-linecap: round"/>
   </g>
   <g id="line2d_4">
    <path d="M 121.95 136.74 
L 121.95 161.22 
" clip-path="url(#pdf8417a76b)" style="fill: none; stroke: #000000; stroke-width: 2; stroke-linecap: round"/>
   </g>
   <g id="line2d_5">
    <path d="M 60.75 136.74 
L 88.596 136.74 
M 88.596 129.09 
L 88.596 144.39 
M 94.104 129.09 
L 94.104 144.39 
M 94.104 136.74 
L 121.95 136.74 
" clip-path="url(#pdf8417a76b)" style="fill: none; stroke: #000000; stroke-width: 2; stroke-linecap: round"/>
   </g>
   <g id="line2d_6">
    <path d="M 60.75 161.22 
L 76.05 161.22 
M 106.65 161.22 
L 121.95 161.22 
" clip-path="url(#pdf8417a76b)" style="fill: none; stroke: #000000; stroke-width: 2; stroke-linecap: round"/>
   </g>
   <g id="line2d_7">
    <path d="M 30.15 148.98 
L 30.15 118.38 
" clip-path="url(#pdf8417a76b)" style="fill: none; stroke: #000000; stroke-width: 2; stroke-linecap: round"/>
   </g>
   <g id="line2d_8">
    <path d="M 30.15 26.58 
L 30.15 57.18 
" clip-path="url(#pdf8417a76b)" style="fill: none; stroke: #000000; stroke-width: 2; stroke-linecap: round"/>
   </g>
   <g id="line2d_9">
    <path d="M 17.91 118.38 
L 42.39 118.38 
" clip-path="url(#pdf8417a76b)" style="fill: none; stroke: #000000; stroke-width: 2; stroke-linecap: round"/>
   </g>
   <g id="line2d_10">
    <path d="M 17.91 57.18 
L 42.39 57.18 
" clip-path="url(#pdf8417a76b)" style="fill: none; stroke: #000000; stroke-width: 2; stroke-linecap: round"/>
   </g>
   <g id="line2d_11">
    <path d="M 17.91 118.38 
L 17.91 90.534 
M 10.26 90.534 
L 25.56 90.534 
M 10.26 85.026 
L 25.56 85.026 
M 17.91 85.026 
L 17.91 57.18 
" clip-path="url(#pdf8417a76b)" style="fill: none; stroke: #000000; stroke-width: 2; stroke-linecap: round"/>
   </g>
   <g id="line2d_12">
    <path d="M 42.39 118.38 
L 42.39 103.08 
M 42.39 72.48 
L 42.39 57.18 
" clip-path="url(#pdf8417a76b)" style="fill: none; stroke: #000000; stroke-width: 2; stroke-linecap: round"/>
   </g>
   <g id="line2d_13">
    <path d="M 152.55 26.58 
L 152.55 57.18 
" clip-path="url(#pdf8417a76b)" style="fill: none; stroke: #000000; stroke-width: 2; stroke-linecap: round"/>
   </g>
   <g id="line2d_14">
    <path d="M 152.55 148.98 
L 152.55 118.38 
" clip-path="url(#pdf8417a76b)" style="fill: none; stroke: #000000; stroke-width: 2; stroke-linecap: round"/>
   </g>
   <g id="line2d_15">
    <path d="M 168.87 57.18 
L 136.23 57.18 
" clip-path="url(#pdf8417a76b)" style="fill: none; stroke: #000000; stroke-width: 2; stroke-linecap: round"/>
   </g>
   <g id="line2d_16">
    <path d="M 168.87 118.38 
L 136.23 118.38 
" clip-path="url(#pdf8417a76b)" style="fill: none; stroke: #000000; stroke-width: 2; stroke-linecap: round"/>
   </g>
   <g id="line2d_17">
    <path d="M 152.55 57.18 
L 152.55 85.026 
M 160.2 85.026 
L 144.9 85.026 
M 160.2 90.534 
L 144.9 90.534 
M 152.55 90.534 
L 152.55 118.38 
" clip-path="url(#pdf8417a76b)" style="fill: none; stroke: #000000; stroke-width: 2; stroke-linecap: round"/>
   </g>
   <g id="line2d_18">
    <path d="M 168.87 57.18 
L 168.87 87.78 
M 176.52 80.13 
L 161.22 95.43 
M 176.52 95.43 
L 161.22 80.13 
M 168.87 87.78 
L 168.87 118.38 
" clip-path="url(#pdf8417a76b)" style="fill: none; stroke: #000000; stroke-width: 2; stroke-linecap: round"/>
   </g>
   <g id="line2d_19">
    <path d="M 136.23 57.18 
L 136.23 72.48 
M 136.23 103.08 
L 136.23 118.38 
" clip-path="url(#pdf8417a76b)" style="fill: none; stroke: #000000; stroke-width: 2; stroke-linecap: round"/>
   </g>
   <g id="line2d_20">
    <path d="M 152.55 26.58 
L 121.95 26.58 
" clip-path="url(#pdf8417a76b)" style="fill: none; stroke: #000000; stroke-width: 2; stroke-linecap: round"/>
   </g>
   <g id="line2d_21">
    <path d="M 30.15 26.58 
L 60.75 26.58 
" clip-path="url(#pdf8417a76b)" style="fill: none; stroke: #000000; stroke-width: 2; stroke-linecap: round"/>
   </g>
   <g id="line2d_22">
    <path d="M 121.95 42.9 
L 121.95 10.26 
" clip-path="url(#pdf8417a76b)" style="fill: none; stroke: #000000; stroke-width: 2; stroke-linecap: round"/>
   </g>
   <g id="line2d_23">
    <path d="M 60.75 42.9 
L 60.75 10.26 
" clip-path="url(#pdf8417a76b)" style="fill: none; stroke: #000000; stroke-width: 2; stroke-linecap: round"/>
   </g>
   <g id="line2d_24">
    <path d="M 121.95 26.58 
L 94.104 26.58 
M 94.104 34.23 
L 94.104 18.93 
M 88.596 34.23 
L 88.596 18.93 
M 88.596 26.58 
L 60.75 26.58 
" clip-path="url(#pdf8417a76b)" style="fill: none; stroke: #000000; stroke-width: 2; stroke-linecap: round"/>
   </g>
   <g id="line2d_25">
    <path d="M 121.95 42.9 
L 91.35 42.9 
M 99 50.55 
L 83.7 35.25 
M 83.7 50.55 
L 99 35.25 
M 91.35 42.9 
L 60.75 42.9 
" clip-path="url(#pdf8417a76b)" style="fill: none; stroke: #000000; stroke-width: 2; stroke-linecap: round"/>
   </g>
   <g id="line2d_26">
    <path d="M 121.95 10.26 
L 106.65 10.26 
M 76.05 10.26 
L 60.75 10.26 
" clip-path="url(#pdf8417a76b)" style="fill: none; stroke: #000000; stroke-width: 2; stroke-linecap: round"/>
   </g>
   <g id="patch_18">
    <path d="M 30.15 151.275 
C 30.758641 151.275 31.342436 151.033184 31.77281 150.60281 
C 32.203184 150.172436 32.445 149.588641 32.445 148.98 
C 32.445 148.371359 32.203184 147.787564 31.77281 147.35719 
C 31.342436 146.926816 30.758641 146.685 30.15 146.685 
C 29.541359 146.685 28.957564 146.926816 28.52719 147.35719 
C 28.096816 147.787564 27.855 148.371359 27.855 148.98 
C 27.855 149.588641 28.096816 150.172436 28.52719 150.60281 
C 28.957564 151.033184 29.541359 151.275 30.15 151.275 
z
" clip-path="url(#pdf8417a76b)" style="stroke: #000000; stroke-width: 2; stroke-linejoin: miter"/>
   </g>
   <g id="patch_19">
    <path d="M 152.55 151.275 
C 153.158641 151.275 153.742436 151.033184 154.17281 150.60281 
C 154.603184 150.172436 154.845 149.588641 154.845 148.98 
C 154.845 148.371359 154.603184 147.787564 154.17281 147.35719 
C 153.742436 146.926816 153.158641 146.685 152.55 146.685 
C 151.941359 146.685 151.357564 146.926816 150.92719 147.35719 
C 150.496816 147.787564 150.255 148.371359 150.255 148.98 
C 150.255 149.588641 150.496816 150.172436 150.92719 150.60281 
C 151.357564 151.033184 151.941359 151.275 152.55 151.275 
z
" clip-path="url(#pdf8417a76b)" style="stroke: #000000; stroke-width: 2; stroke-linejoin: miter"/>
   </g>
   <g id="patch_20">
    <path d="M 30.15 28.875 
C 30.758641 28.875 31.342436 28.633184 31.77281 28.20281 
C 32.203184 27.772436 32.445 27.188641 32.445 26.58 
C 32.445 25.971359 32.203184 25.387564 31.77281 24.95719 
C 31.342436 24.526816 30.758641 24.285 30.15 24.285 
C 29.541359 24.285 28.957564 24.526816 28.52719 24.95719 
C 28.096816 25.387564 27.855 25.971359 27.855 26.58 
C 27.855 27.188641 28.096816 27.772436 28.52719 28.20281 
C 28.957564 28.633184 29.541359 28.875 30.15 28.875 
z
" clip-path="url(#pdf8417a76b)" style="stroke: #000000; stroke-width: 2; stroke-linejoin: miter"/>
   </g>
   <g id="patch_21">
    <path d="M 152.55 28.875 
C 153.158641 28.875 153.742436 28.633184 154.17281 28.20281 
C 154.603184 27.772436 154.845 27.188641 154.845 26.58 
C 154.845 25.971359 154.603184 25.387564 154.17281 24.95719 
C 153.742436 24.526816 153.158641 24.285 152.55 24.285 
C 151.941359 24.285 151.357564 24.526816 150.92719 24.95719 
C 150.496816 25.387564 150.255 25.971359 150.255 26.58 
C 150.255 27.188641 150.496816 27.772436 150.92719 28.20281 
C 151.357564 28.633184 151.941359 28.875 152.55 28.875 
z
" clip-path="url(#pdf8417a76b)" style="stroke: #000000; stroke-width: 2; stroke-linejoin: miter"/>
   </g>
  </g>
 </g>
 <defs>
  <clipPath id="pdf8417a76b">
   <rect x="7.2" y="7.2" width="172.38" height="157.08"/>
  </clipPath>
 </defs>
</svg>
