<?xml version="1.0" encoding="utf-8" standalone="no"?>
<!DOCTYPE svg PUBLIC "-//W3C//DTD SVG 1.1//EN"
  "http://www.w3.org/Graphics/SVG/1.1/DTD/svg11.dtd">
<svg xmlns:xlink="http://www.w3.org/1999/xlink" width="182.7pt" height="158.22pt" viewBox="0 0 182.7 158.22" xmlns="http://www.w3.org/2000/svg" version="1.1">
 <metadata>
  <rdf:RDF xmlns:dc="http://purl.org/dc/elements/1.1/" xmlns:cc="http://creativecommons.org/ns#" xmlns:rdf="http://www.w3.org/1999/02/22-rdf-syntax-ns#">
   <cc:Work>
    <dc:type rdf:resource="http://purl.org/dc/dcmitype/StillImage"/>
    <dc:date>2023-03-23T14:40:56.184057</dc:date>
    <dc:format>image/svg+xml</dc:format>
    <dc:creator>
     <cc:Agent>
      <dc:title>Matplotlib v3.5.2, https://matplotlib.org/</dc:title>
     </cc:Agent>
    </dc:creator>
   </cc:Work>
  </rdf:RDF>
 </metadata>
 <defs>
  <style type="text/css">*{stroke-linejoin: round; stroke-linecap: butt}</style>
 </defs>
 <g id="figure_1">
  <g id="patch_1">
   <path d="M -0 158.22 
L 182.7 158.22 
L 182.7 0 
L -0 0 
L -0 158.22 
z
" style="fill: none"/>
  </g>
  <g id="axes_1">
   <g id="line2d_1">
    <path d="M 30.15 140.31 
L 88.596 140.31 
M 88.596 132.66 
L 88.596 147.96 
M 94.104 132.66 
L 94.104 147.96 
M 94.104 140.31 
L 152.55 140.31 
" clip-path="url(#p10e3ccfa85)" style="fill: none; stroke: #000000; stroke-width: 2; stroke-linecap: round"/>
   </g>
   <g id="line2d_2">
    <path d="M 30.15 140.31 
L 30.15 109.71 
" clip-path="url(#p10e3ccfa85)" style="fill: none; stroke: #000000; stroke-width: 2; stroke-linecap: round"/>
   </g>
   <g id="line2d_3">
    <path d="M 30.15 17.91 
L 30.15 48.51 
" clip-path="url(#p10e3ccfa85)" style="fill: none; stroke: #000000; stroke-width: 2; stroke-linecap: round"/>
   </g>
   <g id="line2d_4">
    <path d="M 17.91 109.71 
L 42.39 109.71 
" clip-path="url(#p10e3ccfa85)" style="fill: none; stroke: #000000; stroke-width: 2; stroke-linecap: round"/>
   </g>
   <g id="line2d_5">
    <path d="M 17.91 48.51 
L 42.39 48.51 
" clip-path="url(#p10e3ccfa85)" style="fill: none; stroke: #000000; stroke-width: 2; stroke-linecap: round"/>
   </g>
   <g id="line2d_6">
    <path d="M 17.91 109.71 
L 17.91 81.864 
M 10.26 81.864 
L 25.56 81.864 
M 10.26 76.356 
L 25.56 76.356 
M 17.91 76.356 
L 17.91 48.51 
" clip-path="url(#p10e3ccfa85)" style="fill: none; stroke: #000000; stroke-width: 2; stroke-linecap: round"/>
   </g>
   <g id="line2d_7">
    <path d="M 42.39 109.71 
L 42.39 79.11 
M 34.74 86.76 
L 50.04 71.46 
M 34.74 71.46 
L 50.04 86.76 
M 42.39 79.11 
L 42.39 48.51 
" clip-path="url(#p10e3ccfa85)" style="fill: none; stroke: #000000; stroke-width: 2; stroke-linecap: round"/>
   </g>
   <g id="line2d_8">
    <path d="M 152.55 17.91 
L 152.55 48.51 
" clip-path="url(#p10e3ccfa85)" style="fill: none; stroke: #000000; stroke-width: 2; stroke-linecap: round"/>
   </g>
   <g id="line2d_9">
    <path d="M 152.55 140.31 
L 152.55 109.71 
" clip-path="url(#p10e3ccfa85)" style="fill: none; stroke: #000000; stroke-width: 2; stroke-linecap: round"/>
   </g>
   <g id="line2d_10">
    <path d="M 164.79 48.51 
L 140.31 48.51 
" clip-path="url(#p10e3ccfa85)" style="fill: none; stroke: #000000; stroke-width: 2; stroke-linecap: round"/>
   </g>
   <g id="line2d_11">
    <path d="M 164.79 109.71 
L 140.31 109.71 
" clip-path="url(#p10e3ccfa85)" style="fill: none; stroke: #000000; stroke-width: 2; stroke-linecap: round"/>
   </g>
   <g id="line2d_12">
    <path d="M 164.79 48.51 
L 164.79 76.356 
M 172.44 76.356 
L 157.14 76.356 
M 172.44 81.864 
L 157.14 81.864 
M 164.79 81.864 
L 164.79 109.71 
" clip-path="url(#p10e3ccfa85)" style="fill: none; stroke: #000000; stroke-width: 2; stroke-linecap: round"/>
   </g>
   <g id="line2d_13">
    <path d="M 140.31 48.51 
L 140.31 79.11 
M 147.96 71.46 
L 132.66 86.76 
M 147.96 86.76 
L 132.66 71.46 
M 140.31 79.11 
L 140.31 109.71 
" clip-path="url(#p10e3ccfa85)" style="fill: none; stroke: #000000; stroke-width: 2; stroke-linecap: round"/>
   </g>
   <g id="line2d_14">
    <path d="M 152.55 17.91 
L 94.104 17.91 
M 94.104 25.56 
L 94.104 10.26 
M 88.596 25.56 
L 88.596 10.26 
M 88.596 17.91 
L 30.15 17.91 
" clip-path="url(#p10e3ccfa85)" style="fill: none; stroke: #000000; stroke-width: 2; stroke-linecap: round"/>
   </g>
   <g id="patch_2">
    <path d="M 30.15 142.605 
C 30.758641 142.605 31.342436 142.363184 31.77281 141.93281 
C 32.203184 141.502436 32.445 140.918641 32.445 140.31 
C 32.445 139.701359 32.203184 139.117564 31.77281 138.68719 
C 31.342436 138.256816 30.758641 138.015 30.15 138.015 
C 29.541359 138.015 28.957564 138.256816 28.52719 138.68719 
C 28.096816 139.117564 27.855 139.701359 27.855 140.31 
C 27.855 140.918641 28.096816 141.502436 28.52719 141.93281 
C 28.957564 142.363184 29.541359 142.605 30.15 142.605 
z
" clip-path="url(#p10e3ccfa85)" style="stroke: #000000; stroke-width: 2; stroke-linejoin: miter"/>
   </g>
   <g id="patch_3">
    <path d="M 152.55 142.605 
C 153.158641 142.605 153.742436 142.363184 154.17281 141.93281 
C 154.603184 141.502436 154.845 140.918641 154.845 140.31 
C 154.845 139.701359 154.603184 139.117564 154.17281 138.68719 
C 153.742436 138.256816 153.158641 138.015 152.55 138.015 
C 151.941359 138.015 151.357564 138.256816 150.92719 138.68719 
C 150.496816 139.117564 150.255 139.701359 150.255 140.31 
C 150.255 140.918641 150.496816 141.502436 150.92719 141.93281 
C 151.357564 142.363184 151.941359 142.605 152.55 142.605 
z
" clip-path="url(#p10e3ccfa85)" style="stroke: #000000; stroke-width: 2; stroke-linejoin: miter"/>
   </g>
   <g id="patch_4">
    <path d="M 30.15 20.205 
C 30.758641 20.205 31.342436 19.963184 31.77281 19.53281 
C 32.203184 19.102436 32.445 18.518641 32.445 17.91 
C 32.445 17.301359 32.203184 16.717564 31.77281 16.28719 
C 31.342436 15.856816 30.758641 15.615 30.15 15.615 
C 29.541359 15.615 28.957564 15.856816 28.52719 16.28719 
C 28.096816 16.717564 27.855 17.301359 27.855 17.91 
C 27.855 18.518641 28.096816 19.102436 28.52719 19.53281 
C 28.957564 19.963184 29.541359 20.205 30.15 20.205 
z
" clip-path="url(#p10e3ccfa85)" style="stroke: #000000; stroke-width: 2; stroke-linejoin: miter"/>
   </g>
   <g id="patch_5">
    <path d="M 152.55 20.205 
C 153.158641 20.205 153.742436 19.963184 154.17281 19.53281 
C 154.603184 19.102436 154.845 18.518641 154.845 17.91 
C 154.845 17.301359 154.603184 16.717564 154.17281 16.28719 
C 153.742436 15.856816 153.158641 15.615 152.55 15.615 
C 151.941359 15.615 151.357564 15.856816 150.92719 16.28719 
C 150.496816 16.717564 150.255 17.301359 150.255 17.91 
C 150.255 18.518641 150.496816 19.102436 150.92719 19.53281 
C 151.357564 19.963184 151.941359 20.205 152.55 20.205 
z
" clip-path="url(#p10e3ccfa85)" style="stroke: #000000; stroke-width: 2; stroke-linejoin: miter"/>
   </g>
  </g>
 </g>
 <defs>
  <clipPath id="p10e3ccfa85">
   <rect x="7.2" y="7.2" width="168.3" height="143.82"/>
  </clipPath>
 </defs>
</svg>
