<?xml version="1.0" encoding="utf-8" standalone="no"?>
<!DOCTYPE svg PUBLIC "-//W3C//DTD SVG 1.1//EN"
  "http://www.w3.org/Graphics/SVG/1.1/DTD/svg11.dtd">
<svg xmlns:xlink="http://www.w3.org/1999/xlink" width="208.71pt" height="174.461509pt" viewBox="0 0 208.71 174.461509" xmlns="http://www.w3.org/2000/svg" version="1.1">
 <metadata>
  <rdf:RDF xmlns:dc="http://purl.org/dc/elements/1.1/" xmlns:cc="http://creativecommons.org/ns#" xmlns:rdf="http://www.w3.org/1999/02/22-rdf-syntax-ns#">
   <cc:Work>
    <dc:type rdf:resource="http://purl.org/dc/dcmitype/StillImage"/>
    <dc:date>2023-03-23T14:53:23.112781</dc:date>
    <dc:format>image/svg+xml</dc:format>
    <dc:creator>
     <cc:Agent>
      <dc:title>Matplotlib v3.5.2, https://matplotlib.org/</dc:title>
     </cc:Agent>
    </dc:creator>
   </cc:Work>
  </rdf:RDF>
 </metadata>
 <defs>
  <style type="text/css">*{stroke-linejoin: round; stroke-linecap: butt}</style>
 </defs>
 <g id="figure_1">
  <g id="patch_1">
   <path d="M 0 174.461509 
L 208.71 174.461509 
L 208.71 0 
L 0 0 
L 0 174.461509 
z
" style="fill: none"/>
  </g>
  <g id="axes_1">
   <g id="patch_2">
    <path d="M 66.105 50.55 
C 66.105 49.535936 65.701735 48.562368 64.984683 47.845317 
C 64.267632 47.128265 63.294064 46.725 62.28 46.725 
C 61.265936 46.725 60.292368 47.128265 59.575317 47.845317 
C 58.858265 48.562368 58.455 49.535936 58.455 50.55 
" clip-path="url(#p3ed7fe32d7)" style="fill: none; stroke: #000000; stroke-width: 2; stroke-linejoin: miter"/>
   </g>
   <g id="patch_3">
    <path d="M 73.755 50.55 
C 73.755 49.535936 73.351735 48.562368 72.634683 47.845317 
C 71.917632 47.128265 70.944064 46.725 69.93 46.725 
C 68.915936 46.725 67.942368 47.128265 67.225317 47.845317 
C 66.508265 48.562368 66.105 49.535936 66.105 50.55 
" clip-path="url(#p3ed7fe32d7)" style="fill: none; stroke: #000000; stroke-width: 2; stroke-linejoin: miter"/>
   </g>
   <g id="patch_4">
    <path d="M 81.405 50.55 
C 81.405 49.535936 81.001735 48.562368 80.284683 47.845317 
C 79.567632 47.128265 78.594064 46.725 77.58 46.725 
C 76.565936 46.725 75.592368 47.128265 74.875317 47.845317 
C 74.158265 48.562368 73.755 49.535936 73.755 50.55 
" clip-path="url(#p3ed7fe32d7)" style="fill: none; stroke: #000000; stroke-width: 2; stroke-linejoin: miter"/>
   </g>
   <g id="patch_5">
    <path d="M 89.055 50.55 
C 89.055 49.535936 88.651735 48.562368 87.934683 47.845317 
C 87.217632 47.128265 86.244064 46.725 85.23 46.725 
C 84.215936 46.725 83.242368 47.128265 82.525317 47.845317 
C 81.808265 48.562368 81.405 49.535936 81.405 50.55 
" clip-path="url(#p3ed7fe32d7)" style="fill: none; stroke: #000000; stroke-width: 2; stroke-linejoin: miter"/>
   </g>
   <g id="patch_6">
    <path d="M 25.196465 88.76566 
C 26.074671 88.258628 26.716173 87.422607 26.978632 86.443096 
C 27.241091 85.463585 27.103545 84.418818 26.596513 83.540613 
C 26.089481 82.662408 25.253459 82.020906 24.273948 81.758447 
C 23.294438 81.495988 22.249671 81.633534 21.371465 82.140566 
" clip-path="url(#p3ed7fe32d7)" style="fill: none; stroke: #000000; stroke-width: 2; stroke-linejoin: miter"/>
   </g>
   <g id="patch_7">
    <path d="M 29.021465 95.390755 
C 29.899671 94.883723 30.541173 94.047701 30.803632 93.06819 
C 31.066091 92.08868 30.928545 91.043913 30.421513 90.165708 
C 29.914481 89.287502 29.078459 88.646 28.098948 88.383541 
C 27.119438 88.121082 26.074671 88.258628 25.196465 88.76566 
" clip-path="url(#p3ed7fe32d7)" style="fill: none; stroke: #000000; stroke-width: 2; stroke-linejoin: miter"/>
   </g>
   <g id="patch_8">
    <path d="M 32.846465 102.015849 
C 33.724671 101.508817 34.366173 100.672795 34.628632 99.693285 
C 34.891091 98.713774 34.753545 97.669007 34.246513 96.790802 
C 33.739481 95.912597 32.903459 95.271095 31.923948 95.008636 
C 30.944438 94.746177 29.899671 94.883723 29.021465 95.390755 
" clip-path="url(#p3ed7fe32d7)" style="fill: none; stroke: #000000; stroke-width: 2; stroke-linejoin: miter"/>
   </g>
   <g id="patch_9">
    <path d="M 36.671465 108.640943 
C 37.549671 108.133911 38.191173 107.29789 38.453632 106.318379 
C 38.716091 105.338868 38.578545 104.294101 38.071513 103.415896 
C 37.564481 102.537691 36.728459 101.896189 35.748948 101.63373 
C 34.769438 101.371271 33.724671 101.508817 32.846465 102.015849 
" clip-path="url(#p3ed7fe32d7)" style="fill: none; stroke: #000000; stroke-width: 2; stroke-linejoin: miter"/>
   </g>
   <g id="patch_10">
    <path d="M 94.046465 72.44566 
C 94.924671 72.952692 95.969438 73.090239 96.948948 72.827779 
C 97.928459 72.56532 98.764481 71.923818 99.271513 71.045613 
C 99.778545 70.167408 99.916091 69.122641 99.653632 68.14313 
C 99.391173 67.16362 98.749671 66.327598 97.871465 65.820566 
" clip-path="url(#p3ed7fe32d7)" style="fill: none; stroke: #000000; stroke-width: 2; stroke-linejoin: miter"/>
   </g>
   <g id="patch_11">
    <path d="M 90.221465 79.070755 
C 91.099671 79.577787 92.144438 79.715333 93.123948 79.452874 
C 94.103459 79.190415 94.939481 78.548913 95.446513 77.670708 
C 95.953545 76.792502 96.091091 75.747735 95.828632 74.768225 
C 95.566173 73.788714 94.924671 72.952692 94.046465 72.44566 
" clip-path="url(#p3ed7fe32d7)" style="fill: none; stroke: #000000; stroke-width: 2; stroke-linejoin: miter"/>
   </g>
   <g id="patch_12">
    <path d="M 86.396465 85.695849 
C 87.274671 86.202881 88.319438 86.340427 89.298948 86.077968 
C 90.278459 85.815509 91.114481 85.174007 91.621513 84.295802 
C 92.128545 83.417597 92.266091 82.37283 92.003632 81.393319 
C 91.741173 80.413808 91.099671 79.577787 90.221465 79.070755 
" clip-path="url(#p3ed7fe32d7)" style="fill: none; stroke: #000000; stroke-width: 2; stroke-linejoin: miter"/>
   </g>
   <g id="patch_13">
    <path d="M 82.571465 92.320943 
C 83.449671 92.827975 84.494438 92.965522 85.473948 92.703063 
C 86.453459 92.440603 87.289481 91.799101 87.796513 90.920896 
C 88.303545 90.042691 88.441091 88.997924 88.178632 88.018413 
C 87.916173 87.038903 87.274671 86.202881 86.396465 85.695849 
" clip-path="url(#p3ed7fe32d7)" style="fill: none; stroke: #000000; stroke-width: 2; stroke-linejoin: miter"/>
   </g>
   <g id="patch_14">
    <path d="M 183.513535 85.695849 
C 182.635329 86.202881 181.993827 87.038903 181.731368 88.018413 
C 181.468909 88.997924 181.606455 90.042691 182.113487 90.920896 
C 182.620519 91.799101 183.456541 92.440603 184.436052 92.703063 
C 185.415562 92.965522 186.460329 92.827975 187.338535 92.320943 
" clip-path="url(#p3ed7fe32d7)" style="fill: none; stroke: #000000; stroke-width: 2; stroke-linejoin: miter"/>
   </g>
   <g id="patch_15">
    <path d="M 179.688535 79.070755 
C 178.810329 79.577787 178.168827 80.413808 177.906368 81.393319 
C 177.643909 82.37283 177.781455 83.417597 178.288487 84.295802 
C 178.795519 85.174007 179.631541 85.815509 180.611052 86.077968 
C 181.590562 86.340427 182.635329 86.202881 183.513535 85.695849 
" clip-path="url(#p3ed7fe32d7)" style="fill: none; stroke: #000000; stroke-width: 2; stroke-linejoin: miter"/>
   </g>
   <g id="patch_16">
    <path d="M 175.863535 72.44566 
C 174.985329 72.952692 174.343827 73.788714 174.081368 74.768225 
C 173.818909 75.747735 173.956455 76.792502 174.463487 77.670708 
C 174.970519 78.548913 175.806541 79.190415 176.786052 79.452874 
C 177.765562 79.715333 178.810329 79.577787 179.688535 79.070755 
" clip-path="url(#p3ed7fe32d7)" style="fill: none; stroke: #000000; stroke-width: 2; stroke-linejoin: miter"/>
   </g>
   <g id="patch_17">
    <path d="M 172.038535 65.820566 
C 171.160329 66.327598 170.518827 67.16362 170.256368 68.14313 
C 169.993909 69.122641 170.131455 70.167408 170.638487 71.045613 
C 171.145519 71.923818 171.981541 72.56532 172.961052 72.827779 
C 173.940562 73.090239 174.985329 72.952692 175.863535 72.44566 
" clip-path="url(#p3ed7fe32d7)" style="fill: none; stroke: #000000; stroke-width: 2; stroke-linejoin: miter"/>
   </g>
   <g id="patch_18">
    <path d="M 142.605 123.911509 
C 142.605 124.925573 143.008265 125.899141 143.725317 126.616193 
C 144.442368 127.333244 145.415936 127.736509 146.43 127.736509 
C 147.444064 127.736509 148.417632 127.333244 149.134683 126.616193 
C 149.851735 125.899141 150.255 124.925573 150.255 123.911509 
" clip-path="url(#p3ed7fe32d7)" style="fill: none; stroke: #000000; stroke-width: 2; stroke-linejoin: miter"/>
   </g>
   <g id="patch_19">
    <path d="M 134.955 123.911509 
C 134.955 124.925573 135.358265 125.899141 136.075317 126.616193 
C 136.792368 127.333244 137.765936 127.736509 138.78 127.736509 
C 139.794064 127.736509 140.767632 127.333244 141.484683 126.616193 
C 142.201735 125.899141 142.605 124.925573 142.605 123.911509 
" clip-path="url(#p3ed7fe32d7)" style="fill: none; stroke: #000000; stroke-width: 2; stroke-linejoin: miter"/>
   </g>
   <g id="patch_20">
    <path d="M 127.305 123.911509 
C 127.305 124.925573 127.708265 125.899141 128.425317 126.616193 
C 129.142368 127.333244 130.115936 127.736509 131.13 127.736509 
C 132.144064 127.736509 133.117632 127.333244 133.834683 126.616193 
C 134.551735 125.899141 134.955 124.925573 134.955 123.911509 
" clip-path="url(#p3ed7fe32d7)" style="fill: none; stroke: #000000; stroke-width: 2; stroke-linejoin: miter"/>
   </g>
   <g id="patch_21">
    <path d="M 119.655 123.911509 
C 119.655 124.925573 120.058265 125.899141 120.775317 126.616193 
C 121.492368 127.333244 122.465936 127.736509 123.48 127.736509 
C 124.494064 127.736509 125.467632 127.333244 126.184683 126.616193 
C 126.901735 125.899141 127.305 124.925573 127.305 123.911509 
" clip-path="url(#p3ed7fe32d7)" style="fill: none; stroke: #000000; stroke-width: 2; stroke-linejoin: miter"/>
   </g>
   <g id="line2d_1">
    <path d="M 12.555 34.23 
L 43.155 34.23 
" clip-path="url(#p3ed7fe32d7)" style="fill: none; stroke: #000000; stroke-width: 2; stroke-linecap: round"/>
   </g>
   <g id="line2d_2">
    <path d="M 134.955 34.23 
L 104.355 34.23 
" clip-path="url(#p3ed7fe32d7)" style="fill: none; stroke: #000000; stroke-width: 2; stroke-linecap: round"/>
   </g>
   <g id="line2d_3">
    <path d="M 43.155 17.91 
L 43.155 50.55 
" clip-path="url(#p3ed7fe32d7)" style="fill: none; stroke: #000000; stroke-width: 2; stroke-linecap: round"/>
   </g>
   <g id="line2d_4">
    <path d="M 104.355 17.91 
L 104.355 50.55 
" clip-path="url(#p3ed7fe32d7)" style="fill: none; stroke: #000000; stroke-width: 2; stroke-linecap: round"/>
   </g>
   <g id="line2d_5">
    <path d="M 43.155 34.23 
L 71.001 34.23 
M 71.001 26.58 
L 71.001 41.88 
M 76.509 26.58 
L 76.509 41.88 
M 76.509 34.23 
L 104.355 34.23 
" clip-path="url(#p3ed7fe32d7)" style="fill: none; stroke: #000000; stroke-width: 2; stroke-linecap: round"/>
   </g>
   <g id="line2d_6">
    <path d="M 43.155 17.91 
L 73.755 17.91 
M 66.105 10.26 
L 81.405 25.56 
M 81.405 10.26 
L 66.105 25.56 
M 73.755 17.91 
L 104.355 17.91 
" clip-path="url(#p3ed7fe32d7)" style="fill: none; stroke: #000000; stroke-width: 2; stroke-linecap: round"/>
   </g>
   <g id="line2d_7">
    <path d="M 43.155 50.55 
L 58.455 50.55 
M 89.055 50.55 
L 104.355 50.55 
" clip-path="url(#p3ed7fe32d7)" style="fill: none; stroke: #000000; stroke-width: 2; stroke-linecap: round"/>
   </g>
   <g id="line2d_8">
    <path d="M 12.555 34.23 
L 27.855 60.730377 
" clip-path="url(#p3ed7fe32d7)" style="fill: none; stroke: #000000; stroke-width: 2; stroke-linecap: round"/>
   </g>
   <g id="line2d_9">
    <path d="M 73.755 140.231509 
L 58.455 113.731132 
" clip-path="url(#p3ed7fe32d7)" style="fill: none; stroke: #000000; stroke-width: 2; stroke-linecap: round"/>
   </g>
   <g id="line2d_10">
    <path d="M 41.988535 52.570377 
L 13.721465 68.890377 
" clip-path="url(#p3ed7fe32d7)" style="fill: none; stroke: #000000; stroke-width: 2; stroke-linecap: round"/>
   </g>
   <g id="line2d_11">
    <path d="M 72.588535 105.571132 
L 44.321465 121.891132 
" clip-path="url(#p3ed7fe32d7)" style="fill: none; stroke: #000000; stroke-width: 2; stroke-linecap: round"/>
   </g>
   <g id="line2d_12">
    <path d="M 27.855 60.730377 
L 41.778 84.845721 
M 48.403094 81.020721 
L 35.152906 88.670721 
M 51.157094 85.790789 
L 37.906906 93.440789 
M 44.532 89.615789 
L 58.455 113.731132 
" clip-path="url(#p3ed7fe32d7)" style="fill: none; stroke: #000000; stroke-width: 2; stroke-linecap: round"/>
   </g>
   <g id="line2d_13">
    <path d="M 41.988535 52.570377 
L 57.288535 79.070755 
M 60.088629 68.62066 
L 54.48844 89.520849 
M 67.738629 81.870849 
L 46.83844 76.27066 
M 57.288535 79.070755 
L 72.588535 105.571132 
" clip-path="url(#p3ed7fe32d7)" style="fill: none; stroke: #000000; stroke-width: 2; stroke-linecap: round"/>
   </g>
   <g id="line2d_14">
    <path d="M 13.721465 68.890377 
L 21.371465 82.140566 
M 36.671465 108.640943 
L 44.321465 121.891132 
" clip-path="url(#p3ed7fe32d7)" style="fill: none; stroke: #000000; stroke-width: 2; stroke-linecap: round"/>
   </g>
   <g id="line2d_15">
    <path d="M 134.955 34.23 
L 119.655 60.730377 
" clip-path="url(#p3ed7fe32d7)" style="fill: none; stroke: #000000; stroke-width: 2; stroke-linecap: round"/>
   </g>
   <g id="line2d_16">
    <path d="M 73.755 140.231509 
L 89.055 113.731132 
" clip-path="url(#p3ed7fe32d7)" style="fill: none; stroke: #000000; stroke-width: 2; stroke-linecap: round"/>
   </g>
   <g id="line2d_17">
    <path d="M 133.788535 68.890377 
L 105.521465 52.570377 
" clip-path="url(#p3ed7fe32d7)" style="fill: none; stroke: #000000; stroke-width: 2; stroke-linecap: round"/>
   </g>
   <g id="line2d_18">
    <path d="M 103.188535 121.891132 
L 74.921465 105.571132 
" clip-path="url(#p3ed7fe32d7)" style="fill: none; stroke: #000000; stroke-width: 2; stroke-linecap: round"/>
   </g>
   <g id="line2d_19">
    <path d="M 119.655 60.730377 
L 105.732 84.845721 
M 112.357094 88.670721 
L 99.106906 81.020721 
M 109.603094 93.440789 
L 96.352906 85.790789 
M 102.978 89.615789 
L 89.055 113.731132 
" clip-path="url(#p3ed7fe32d7)" style="fill: none; stroke: #000000; stroke-width: 2; stroke-linecap: round"/>
   </g>
   <g id="line2d_20">
    <path d="M 133.788535 68.890377 
L 118.488535 95.390755 
M 128.938629 92.59066 
L 108.03844 98.190849 
M 121.288629 105.840849 
L 115.68844 84.94066 
M 118.488535 95.390755 
L 103.188535 121.891132 
" clip-path="url(#p3ed7fe32d7)" style="fill: none; stroke: #000000; stroke-width: 2; stroke-linecap: round"/>
   </g>
   <g id="line2d_21">
    <path d="M 105.521465 52.570377 
L 97.871465 65.820566 
M 82.571465 92.320943 
L 74.921465 105.571132 
" clip-path="url(#p3ed7fe32d7)" style="fill: none; stroke: #000000; stroke-width: 2; stroke-linecap: round"/>
   </g>
   <g id="line2d_22">
    <path d="M 196.155 140.231509 
L 180.855 113.731132 
" clip-path="url(#p3ed7fe32d7)" style="fill: none; stroke: #000000; stroke-width: 2; stroke-linecap: round"/>
   </g>
   <g id="line2d_23">
    <path d="M 134.955 34.23 
L 150.255 60.730377 
" clip-path="url(#p3ed7fe32d7)" style="fill: none; stroke: #000000; stroke-width: 2; stroke-linecap: round"/>
   </g>
   <g id="line2d_24">
    <path d="M 166.721465 121.891132 
L 194.988535 105.571132 
" clip-path="url(#p3ed7fe32d7)" style="fill: none; stroke: #000000; stroke-width: 2; stroke-linecap: round"/>
   </g>
   <g id="line2d_25">
    <path d="M 136.121465 68.890377 
L 164.388535 52.570377 
" clip-path="url(#p3ed7fe32d7)" style="fill: none; stroke: #000000; stroke-width: 2; stroke-linecap: round"/>
   </g>
   <g id="line2d_26">
    <path d="M 180.855 113.731132 
L 166.932 89.615789 
M 160.306906 93.440789 
L 173.557094 85.790789 
M 157.552906 88.670721 
L 170.803094 81.020721 
M 164.178 84.845721 
L 150.255 60.730377 
" clip-path="url(#p3ed7fe32d7)" style="fill: none; stroke: #000000; stroke-width: 2; stroke-linecap: round"/>
   </g>
   <g id="line2d_27">
    <path d="M 166.721465 121.891132 
L 151.421465 95.390755 
M 148.621371 105.840849 
L 154.22156 84.94066 
M 140.971371 92.59066 
L 161.87156 98.190849 
M 151.421465 95.390755 
L 136.121465 68.890377 
" clip-path="url(#p3ed7fe32d7)" style="fill: none; stroke: #000000; stroke-width: 2; stroke-linecap: round"/>
   </g>
   <g id="line2d_28">
    <path d="M 194.988535 105.571132 
L 187.338535 92.320943 
M 172.038535 65.820566 
L 164.388535 52.570377 
" clip-path="url(#p3ed7fe32d7)" style="fill: none; stroke: #000000; stroke-width: 2; stroke-linecap: round"/>
   </g>
   <g id="line2d_29">
    <path d="M 196.155 140.231509 
L 165.555 140.231509 
" clip-path="url(#p3ed7fe32d7)" style="fill: none; stroke: #000000; stroke-width: 2; stroke-linecap: round"/>
   </g>
   <g id="line2d_30">
    <path d="M 73.755 140.231509 
L 104.355 140.231509 
" clip-path="url(#p3ed7fe32d7)" style="fill: none; stroke: #000000; stroke-width: 2; stroke-linecap: round"/>
   </g>
   <g id="line2d_31">
    <path d="M 165.555 156.551509 
L 165.555 123.911509 
" clip-path="url(#p3ed7fe32d7)" style="fill: none; stroke: #000000; stroke-width: 2; stroke-linecap: round"/>
   </g>
   <g id="line2d_32">
    <path d="M 104.355 156.551509 
L 104.355 123.911509 
" clip-path="url(#p3ed7fe32d7)" style="fill: none; stroke: #000000; stroke-width: 2; stroke-linecap: round"/>
   </g>
   <g id="line2d_33">
    <path d="M 165.555 140.231509 
L 137.709 140.231509 
M 137.709 147.881509 
L 137.709 132.581509 
M 132.201 147.881509 
L 132.201 132.581509 
M 132.201 140.231509 
L 104.355 140.231509 
" clip-path="url(#p3ed7fe32d7)" style="fill: none; stroke: #000000; stroke-width: 2; stroke-linecap: round"/>
   </g>
   <g id="line2d_34">
    <path d="M 165.555 156.551509 
L 134.955 156.551509 
M 142.605 164.201509 
L 127.305 148.901509 
M 127.305 164.201509 
L 142.605 148.901509 
M 134.955 156.551509 
L 104.355 156.551509 
" clip-path="url(#p3ed7fe32d7)" style="fill: none; stroke: #000000; stroke-width: 2; stroke-linecap: round"/>
   </g>
   <g id="line2d_35">
    <path d="M 165.555 123.911509 
L 150.255 123.911509 
M 119.655 123.911509 
L 104.355 123.911509 
" clip-path="url(#p3ed7fe32d7)" style="fill: none; stroke: #000000; stroke-width: 2; stroke-linecap: round"/>
   </g>
   <g id="patch_22">
    <path d="M 12.555 36.525 
C 13.163641 36.525 13.747436 36.283184 14.17781 35.85281 
C 14.608184 35.422436 14.85 34.838641 14.85 34.23 
C 14.85 33.621359 14.608184 33.037564 14.17781 32.60719 
C 13.747436 32.176816 13.163641 31.935 12.555 31.935 
C 11.946359 31.935 11.362564 32.176816 10.93219 32.60719 
C 10.501816 33.037564 10.26 33.621359 10.26 34.23 
C 10.26 34.838641 10.501816 35.422436 10.93219 35.85281 
C 11.362564 36.283184 11.946359 36.525 12.555 36.525 
z
" clip-path="url(#p3ed7fe32d7)" style="stroke: #000000; stroke-width: 2; stroke-linejoin: miter"/>
   </g>
   <g id="patch_23">
    <path d="M 134.955 36.525 
C 135.563641 36.525 136.147436 36.283184 136.57781 35.85281 
C 137.008184 35.422436 137.25 34.838641 137.25 34.23 
C 137.25 33.621359 137.008184 33.037564 136.57781 32.60719 
C 136.147436 32.176816 135.563641 31.935 134.955 31.935 
C 134.346359 31.935 133.762564 32.176816 133.33219 32.60719 
C 132.901816 33.037564 132.66 33.621359 132.66 34.23 
C 132.66 34.838641 132.901816 35.422436 133.33219 35.85281 
C 133.762564 36.283184 134.346359 36.525 134.955 36.525 
z
" clip-path="url(#p3ed7fe32d7)" style="stroke: #000000; stroke-width: 2; stroke-linejoin: miter"/>
   </g>
   <g id="patch_24">
    <path d="M 73.755 142.526509 
C 74.363641 142.526509 74.947436 142.284694 75.37781 141.854319 
C 75.808184 141.423945 76.05 140.840151 76.05 140.231509 
C 76.05 139.622868 75.808184 139.039074 75.37781 138.608699 
C 74.947436 138.178325 74.363641 137.936509 73.755 137.936509 
C 73.146359 137.936509 72.562564 138.178325 72.13219 138.608699 
C 71.701816 139.039074 71.46 139.622868 71.46 140.231509 
C 71.46 140.840151 71.701816 141.423945 72.13219 141.854319 
C 72.562564 142.284694 73.146359 142.526509 73.755 142.526509 
z
" clip-path="url(#p3ed7fe32d7)" style="stroke: #000000; stroke-width: 2; stroke-linejoin: miter"/>
   </g>
   <g id="patch_25">
    <path d="M 196.155 142.526509 
C 196.763641 142.526509 197.347436 142.284694 197.77781 141.854319 
C 198.208184 141.423945 198.45 140.840151 198.45 140.231509 
C 198.45 139.622868 198.208184 139.039074 197.77781 138.608699 
C 197.347436 138.178325 196.763641 137.936509 196.155 137.936509 
C 195.546359 137.936509 194.962564 138.178325 194.53219 138.608699 
C 194.101816 139.039074 193.86 139.622868 193.86 140.231509 
C 193.86 140.840151 194.101816 141.423945 194.53219 141.854319 
C 194.962564 142.284694 195.546359 142.526509 196.155 142.526509 
z
" clip-path="url(#p3ed7fe32d7)" style="stroke: #000000; stroke-width: 2; stroke-linejoin: miter"/>
   </g>
  </g>
 </g>
 <defs>
  <clipPath id="p3ed7fe32d7">
   <rect x="7.2" y="7.2" width="194.31" height="160.061509"/>
  </clipPath>
 </defs>
</svg>
