<?xml version="1.0" encoding="utf-8" standalone="no"?>
<!DOCTYPE svg PUBLIC "-//W3C//DTD SVG 1.1//EN"
  "http://www.w3.org/Graphics/SVG/1.1/DTD/svg11.dtd">
<svg xmlns:xlink="http://www.w3.org/1999/xlink" width="208.71pt" height="150.23649pt" viewBox="0 0 208.71 150.23649" xmlns="http://www.w3.org/2000/svg" version="1.1">
 <metadata>
  <rdf:RDF xmlns:dc="http://purl.org/dc/elements/1.1/" xmlns:cc="http://creativecommons.org/ns#" xmlns:rdf="http://www.w3.org/1999/02/22-rdf-syntax-ns#">
   <cc:Work>
    <dc:type rdf:resource="http://purl.org/dc/dcmitype/StillImage"/>
    <dc:date>2023-03-23T14:42:01.288262</dc:date>
    <dc:format>image/svg+xml</dc:format>
    <dc:creator>
     <cc:Agent>
      <dc:title>Matplotlib v3.5.2, https://matplotlib.org/</dc:title>
     </cc:Agent>
    </dc:creator>
   </cc:Work>
  </rdf:RDF>
 </metadata>
 <defs>
  <style type="text/css">*{stroke-linejoin: round; stroke-linecap: butt}</style>
 </defs>
 <g id="figure_1">
  <g id="patch_1">
   <path d="M 0 150.23649 
L 208.71 150.23649 
L 208.71 0 
L 0 0 
L 0 150.23649 
z
" style="fill: none"/>
  </g>
  <g id="axes_1">
   <g id="patch_2">
    <path d="M 66.105 14.084981 
C 66.105 13.070917 65.701735 12.097349 64.984683 11.380298 
C 64.267632 10.663246 63.294064 10.259981 62.28 10.259981 
C 61.265936 10.259981 60.292368 10.663246 59.575317 11.380298 
C 58.858265 12.097349 58.455 13.070917 58.455 14.084981 
" clip-path="url(#p3b2b16876f)" style="fill: none; stroke: #000000; stroke-width: 2; stroke-linejoin: miter"/>
   </g>
   <g id="patch_3">
    <path d="M 73.755 14.084981 
C 73.755 13.070917 73.351735 12.097349 72.634683 11.380298 
C 71.917632 10.663246 70.944064 10.259981 69.93 10.259981 
C 68.915936 10.259981 67.942368 10.663246 67.225317 11.380298 
C 66.508265 12.097349 66.105 13.070917 66.105 14.084981 
" clip-path="url(#p3b2b16876f)" style="fill: none; stroke: #000000; stroke-width: 2; stroke-linejoin: miter"/>
   </g>
   <g id="patch_4">
    <path d="M 81.405 14.084981 
C 81.405 13.070917 81.001735 12.097349 80.284683 11.380298 
C 79.567632 10.663246 78.594064 10.259981 77.58 10.259981 
C 76.565936 10.259981 75.592368 10.663246 74.875317 11.380298 
C 74.158265 12.097349 73.755 13.070917 73.755 14.084981 
" clip-path="url(#p3b2b16876f)" style="fill: none; stroke: #000000; stroke-width: 2; stroke-linejoin: miter"/>
   </g>
   <g id="patch_5">
    <path d="M 89.055 14.084981 
C 89.055 13.070917 88.651735 12.097349 87.934683 11.380298 
C 87.217632 10.663246 86.244064 10.259981 85.23 10.259981 
C 84.215936 10.259981 83.242368 10.663246 82.525317 11.380298 
C 81.808265 12.097349 81.405 13.070917 81.405 14.084981 
" clip-path="url(#p3b2b16876f)" style="fill: none; stroke: #000000; stroke-width: 2; stroke-linejoin: miter"/>
   </g>
   <g id="patch_6">
    <path d="M 28.729849 66.580641 
C 29.608054 66.073609 30.249556 65.237588 30.512015 64.258077 
C 30.774474 63.278566 30.636928 62.233799 30.129896 61.355594 
C 29.622864 60.477389 28.786843 59.835887 27.807332 59.573428 
C 26.827821 59.310969 25.783054 59.448515 24.904849 59.955547 
" clip-path="url(#p3b2b16876f)" style="fill: none; stroke: #000000; stroke-width: 2; stroke-linejoin: miter"/>
   </g>
   <g id="patch_7">
    <path d="M 32.554849 73.205736 
C 33.433054 72.698704 34.074556 71.862682 34.337015 70.883171 
C 34.599474 69.903661 34.461928 68.858894 33.954896 67.980689 
C 33.447864 67.102483 32.611843 66.460981 31.632332 66.198522 
C 30.652821 65.936063 29.608054 66.073609 28.729849 66.580641 
" clip-path="url(#p3b2b16876f)" style="fill: none; stroke: #000000; stroke-width: 2; stroke-linejoin: miter"/>
   </g>
   <g id="patch_8">
    <path d="M 36.379849 79.83083 
C 37.258054 79.323798 37.899556 78.487776 38.162015 77.508266 
C 38.424474 76.528755 38.286928 75.483988 37.779896 74.605783 
C 37.272864 73.727578 36.436843 73.086076 35.457332 72.823617 
C 34.477821 72.561158 33.433054 72.698704 32.554849 73.205736 
" clip-path="url(#p3b2b16876f)" style="fill: none; stroke: #000000; stroke-width: 2; stroke-linejoin: miter"/>
   </g>
   <g id="patch_9">
    <path d="M 40.204849 86.455924 
C 41.083054 85.948892 41.724556 85.112871 41.987015 84.13336 
C 42.249474 83.15385 42.111928 82.109082 41.604896 81.230877 
C 41.097864 80.352672 40.261843 79.71117 39.282332 79.448711 
C 38.302821 79.186252 37.258054 79.323798 36.379849 79.83083 
" clip-path="url(#p3b2b16876f)" style="fill: none; stroke: #000000; stroke-width: 2; stroke-linejoin: miter"/>
   </g>
   <g id="patch_10">
    <path d="M 179.980151 67.59083 
C 179.101946 68.097862 178.460444 68.933884 178.197985 69.913394 
C 177.935526 70.892905 178.073072 71.937672 178.580104 72.815877 
C 179.087136 73.694082 179.923157 74.335584 180.902668 74.598044 
C 181.882179 74.860503 182.926946 74.722956 183.805151 74.215924 
" clip-path="url(#p3b2b16876f)" style="fill: none; stroke: #000000; stroke-width: 2; stroke-linejoin: miter"/>
   </g>
   <g id="patch_11">
    <path d="M 176.155151 60.965736 
C 175.276946 61.472768 174.635444 62.308789 174.372985 63.2883 
C 174.110526 64.267811 174.248072 65.312578 174.755104 66.190783 
C 175.262136 67.068988 176.098157 67.71049 177.077668 67.972949 
C 178.057179 68.235408 179.101946 68.097862 179.980151 67.59083 
" clip-path="url(#p3b2b16876f)" style="fill: none; stroke: #000000; stroke-width: 2; stroke-linejoin: miter"/>
   </g>
   <g id="patch_12">
    <path d="M 172.330151 54.340641 
C 171.451946 54.847673 170.810444 55.683695 170.547985 56.663206 
C 170.285526 57.642716 170.423072 58.687483 170.930104 59.565689 
C 171.437136 60.443894 172.273157 61.085396 173.252668 61.347855 
C 174.232179 61.610314 175.276946 61.472768 176.155151 60.965736 
" clip-path="url(#p3b2b16876f)" style="fill: none; stroke: #000000; stroke-width: 2; stroke-linejoin: miter"/>
   </g>
   <g id="patch_13">
    <path d="M 168.505151 47.715547 
C 167.626946 48.222579 166.985444 49.058601 166.722985 50.038111 
C 166.460526 51.017622 166.598072 52.062389 167.105104 52.940594 
C 167.612136 53.818799 168.448157 54.460301 169.427668 54.722761 
C 170.407179 54.98522 171.451946 54.847673 172.330151 54.340641 
" clip-path="url(#p3b2b16876f)" style="fill: none; stroke: #000000; stroke-width: 2; stroke-linejoin: miter"/>
   </g>
   <g id="line2d_1">
    <path d="M 12.555 14.084981 
L 58.455 14.084981 
M 89.055 14.084981 
L 134.955 14.084981 
" clip-path="url(#p3b2b16876f)" style="fill: none; stroke: #000000; stroke-width: 2; stroke-linecap: round"/>
   </g>
   <g id="line2d_2">
    <path d="M 12.555 14.084981 
L 27.855 40.585358 
" clip-path="url(#p3b2b16876f)" style="fill: none; stroke: #000000; stroke-width: 2; stroke-linecap: round"/>
   </g>
   <g id="line2d_3">
    <path d="M 73.755 120.08649 
L 58.455 93.586113 
" clip-path="url(#p3b2b16876f)" style="fill: none; stroke: #000000; stroke-width: 2; stroke-linecap: round"/>
   </g>
   <g id="line2d_4">
    <path d="M 38.455151 34.465358 
L 17.254849 46.705358 
" clip-path="url(#p3b2b16876f)" style="fill: none; stroke: #000000; stroke-width: 2; stroke-linecap: round"/>
   </g>
   <g id="line2d_5">
    <path d="M 69.055151 87.466113 
L 47.854849 99.706113 
" clip-path="url(#p3b2b16876f)" style="fill: none; stroke: #000000; stroke-width: 2; stroke-linecap: round"/>
   </g>
   <g id="line2d_6">
    <path d="M 38.455151 34.465358 
L 52.378151 58.580702 
M 59.003245 54.755702 
L 45.753057 62.405702 
M 61.757245 59.52577 
L 48.507057 67.17577 
M 55.132151 63.35077 
L 69.055151 87.466113 
" clip-path="url(#p3b2b16876f)" style="fill: none; stroke: #000000; stroke-width: 2; stroke-linecap: round"/>
   </g>
   <g id="line2d_7">
    <path d="M 17.254849 46.705358 
L 24.904849 59.955547 
M 40.204849 86.455924 
L 47.854849 99.706113 
" clip-path="url(#p3b2b16876f)" style="fill: none; stroke: #000000; stroke-width: 2; stroke-linecap: round"/>
   </g>
   <g id="line2d_8">
    <path d="M 134.955 14.084981 
L 104.355 67.085736 
M 114.805094 64.285641 
L 93.904906 69.88583 
M 107.155094 77.53583 
L 101.554906 56.635641 
M 104.355 67.085736 
L 73.755 120.08649 
" clip-path="url(#p3b2b16876f)" style="fill: none; stroke: #000000; stroke-width: 2; stroke-linecap: round"/>
   </g>
   <g id="line2d_9">
    <path d="M 196.155 120.08649 
L 180.855 93.586113 
" clip-path="url(#p3b2b16876f)" style="fill: none; stroke: #000000; stroke-width: 2; stroke-linecap: round"/>
   </g>
   <g id="line2d_10">
    <path d="M 134.955 14.084981 
L 150.255 40.585358 
" clip-path="url(#p3b2b16876f)" style="fill: none; stroke: #000000; stroke-width: 2; stroke-linecap: round"/>
   </g>
   <g id="line2d_11">
    <path d="M 170.254849 99.706113 
L 191.455151 87.466113 
" clip-path="url(#p3b2b16876f)" style="fill: none; stroke: #000000; stroke-width: 2; stroke-linecap: round"/>
   </g>
   <g id="line2d_12">
    <path d="M 139.654849 46.705358 
L 160.855151 34.465358 
" clip-path="url(#p3b2b16876f)" style="fill: none; stroke: #000000; stroke-width: 2; stroke-linecap: round"/>
   </g>
   <g id="line2d_13">
    <path d="M 170.254849 99.706113 
L 156.331849 75.59077 
M 149.706755 79.41577 
L 162.956943 71.76577 
M 146.952755 74.645702 
L 160.202943 66.995702 
M 153.577849 70.820702 
L 139.654849 46.705358 
" clip-path="url(#p3b2b16876f)" style="fill: none; stroke: #000000; stroke-width: 2; stroke-linecap: round"/>
   </g>
   <g id="line2d_14">
    <path d="M 191.455151 87.466113 
L 183.805151 74.215924 
M 168.505151 47.715547 
L 160.855151 34.465358 
" clip-path="url(#p3b2b16876f)" style="fill: none; stroke: #000000; stroke-width: 2; stroke-linecap: round"/>
   </g>
   <g id="line2d_15">
    <path d="M 196.155 120.08649 
L 165.555 120.08649 
" clip-path="url(#p3b2b16876f)" style="fill: none; stroke: #000000; stroke-width: 2; stroke-linecap: round"/>
   </g>
   <g id="line2d_16">
    <path d="M 73.755 120.08649 
L 104.355 120.08649 
" clip-path="url(#p3b2b16876f)" style="fill: none; stroke: #000000; stroke-width: 2; stroke-linecap: round"/>
   </g>
   <g id="line2d_17">
    <path d="M 165.555 132.32649 
L 165.555 107.84649 
" clip-path="url(#p3b2b16876f)" style="fill: none; stroke: #000000; stroke-width: 2; stroke-linecap: round"/>
   </g>
   <g id="line2d_18">
    <path d="M 104.355 132.32649 
L 104.355 107.84649 
" clip-path="url(#p3b2b16876f)" style="fill: none; stroke: #000000; stroke-width: 2; stroke-linecap: round"/>
   </g>
   <g id="line2d_19">
    <path d="M 165.555 132.32649 
L 137.709 132.32649 
M 137.709 139.97649 
L 137.709 124.67649 
M 132.201 139.97649 
L 132.201 124.67649 
M 132.201 132.32649 
L 104.355 132.32649 
" clip-path="url(#p3b2b16876f)" style="fill: none; stroke: #000000; stroke-width: 2; stroke-linecap: round"/>
   </g>
   <g id="line2d_20">
    <path d="M 165.555 107.84649 
L 134.955 107.84649 
M 142.605 115.49649 
L 127.305 100.19649 
M 127.305 115.49649 
L 142.605 100.19649 
M 134.955 107.84649 
L 104.355 107.84649 
" clip-path="url(#p3b2b16876f)" style="fill: none; stroke: #000000; stroke-width: 2; stroke-linecap: round"/>
   </g>
   <g id="patch_14">
    <path d="M 12.555 16.379981 
C 13.163641 16.379981 13.747436 16.138165 14.17781 15.707791 
C 14.608184 15.277417 14.85 14.693622 14.85 14.084981 
C 14.85 13.47634 14.608184 12.892545 14.17781 12.462171 
C 13.747436 12.031797 13.163641 11.789981 12.555 11.789981 
C 11.946359 11.789981 11.362564 12.031797 10.93219 12.462171 
C 10.501816 12.892545 10.26 13.47634 10.26 14.084981 
C 10.26 14.693622 10.501816 15.277417 10.93219 15.707791 
C 11.362564 16.138165 11.946359 16.379981 12.555 16.379981 
z
" clip-path="url(#p3b2b16876f)" style="stroke: #000000; stroke-width: 2; stroke-linejoin: miter"/>
   </g>
   <g id="patch_15">
    <path d="M 134.955 16.379981 
C 135.563641 16.379981 136.147436 16.138165 136.57781 15.707791 
C 137.008184 15.277417 137.25 14.693622 137.25 14.084981 
C 137.25 13.47634 137.008184 12.892545 136.57781 12.462171 
C 136.147436 12.031797 135.563641 11.789981 134.955 11.789981 
C 134.346359 11.789981 133.762564 12.031797 133.33219 12.462171 
C 132.901816 12.892545 132.66 13.47634 132.66 14.084981 
C 132.66 14.693622 132.901816 15.277417 133.33219 15.707791 
C 133.762564 16.138165 134.346359 16.379981 134.955 16.379981 
z
" clip-path="url(#p3b2b16876f)" style="stroke: #000000; stroke-width: 2; stroke-linejoin: miter"/>
   </g>
   <g id="patch_16">
    <path d="M 73.755 122.38149 
C 74.363641 122.38149 74.947436 122.139675 75.37781 121.709301 
C 75.808184 121.278926 76.05 120.695132 76.05 120.08649 
C 76.05 119.477849 75.808184 118.894055 75.37781 118.46368 
C 74.947436 118.033306 74.363641 117.79149 73.755 117.79149 
C 73.146359 117.79149 72.562564 118.033306 72.13219 118.46368 
C 71.701816 118.894055 71.46 119.477849 71.46 120.08649 
C 71.46 120.695132 71.701816 121.278926 72.13219 121.709301 
C 72.562564 122.139675 73.146359 122.38149 73.755 122.38149 
z
" clip-path="url(#p3b2b16876f)" style="stroke: #000000; stroke-width: 2; stroke-linejoin: miter"/>
   </g>
   <g id="patch_17">
    <path d="M 196.155 122.38149 
C 196.763641 122.38149 197.347436 122.139675 197.77781 121.709301 
C 198.208184 121.278926 198.45 120.695132 198.45 120.08649 
C 198.45 119.477849 198.208184 118.894055 197.77781 118.46368 
C 197.347436 118.033306 196.763641 117.79149 196.155 117.79149 
C 195.546359 117.79149 194.962564 118.033306 194.53219 118.46368 
C 194.101816 118.894055 193.86 119.477849 193.86 120.08649 
C 193.86 120.695132 194.101816 121.278926 194.53219 121.709301 
C 194.962564 122.139675 195.546359 122.38149 196.155 122.38149 
z
" clip-path="url(#p3b2b16876f)" style="stroke: #000000; stroke-width: 2; stroke-linejoin: miter"/>
   </g>
  </g>
 </g>
 <defs>
  <clipPath id="p3b2b16876f">
   <rect x="7.2" y="7.2" width="194.31" height="135.83649"/>
  </clipPath>
 </defs>
</svg>
