<?xml version="1.0" encoding="utf-8" standalone="no"?>
<!DOCTYPE svg PUBLIC "-//W3C//DTD SVG 1.1//EN"
  "http://www.w3.org/Graphics/SVG/1.1/DTD/svg11.dtd">
<svg xmlns:xlink="http://www.w3.org/1999/xlink" width="208.71pt" height="166.301509pt" viewBox="0 0 208.71 166.301509" xmlns="http://www.w3.org/2000/svg" version="1.1">
 <metadata>
  <rdf:RDF xmlns:dc="http://purl.org/dc/elements/1.1/" xmlns:cc="http://creativecommons.org/ns#" xmlns:rdf="http://www.w3.org/1999/02/22-rdf-syntax-ns#">
   <cc:Work>
    <dc:type rdf:resource="http://purl.org/dc/dcmitype/StillImage"/>
    <dc:date>2023-03-23T14:52:21.768636</dc:date>
    <dc:format>image/svg+xml</dc:format>
    <dc:creator>
     <cc:Agent>
      <dc:title>Matplotlib v3.5.2, https://matplotlib.org/</dc:title>
     </cc:Agent>
    </dc:creator>
   </cc:Work>
  </rdf:RDF>
 </metadata>
 <defs>
  <style type="text/css">*{stroke-linejoin: round; stroke-linecap: butt}</style>
 </defs>
 <g id="figure_1">
  <g id="patch_1">
   <path d="M 0 166.301509 
L 208.71 166.301509 
L 208.71 0 
L 0 0 
L 0 166.301509 
z
" style="fill: none"/>
  </g>
  <g id="axes_1">
   <g id="patch_2">
    <path d="M 25.196465 84.68566 
C 26.074671 84.178628 26.716173 83.342607 26.978632 82.363096 
C 27.241091 81.383585 27.103545 80.338818 26.596513 79.460613 
C 26.089481 78.582408 25.253459 77.940906 24.273948 77.678447 
C 23.294438 77.415988 22.249671 77.553534 21.371465 78.060566 
" clip-path="url(#p4209ba359e)" style="fill: none; stroke: #000000; stroke-width: 2; stroke-linejoin: miter"/>
   </g>
   <g id="patch_3">
    <path d="M 29.021465 91.310755 
C 29.899671 90.803723 30.541173 89.967701 30.803632 88.98819 
C 31.066091 88.00868 30.928545 86.963913 30.421513 86.085708 
C 29.914481 85.207502 29.078459 84.566 28.098948 84.303541 
C 27.119438 84.041082 26.074671 84.178628 25.196465 84.68566 
" clip-path="url(#p4209ba359e)" style="fill: none; stroke: #000000; stroke-width: 2; stroke-linejoin: miter"/>
   </g>
   <g id="patch_4">
    <path d="M 32.846465 97.935849 
C 33.724671 97.428817 34.366173 96.592795 34.628632 95.613285 
C 34.891091 94.633774 34.753545 93.589007 34.246513 92.710802 
C 33.739481 91.832597 32.903459 91.191095 31.923948 90.928636 
C 30.944438 90.666177 29.899671 90.803723 29.021465 91.310755 
" clip-path="url(#p4209ba359e)" style="fill: none; stroke: #000000; stroke-width: 2; stroke-linejoin: miter"/>
   </g>
   <g id="patch_5">
    <path d="M 36.671465 104.560943 
C 37.549671 104.053911 38.191173 103.21789 38.453632 102.238379 
C 38.716091 101.258868 38.578545 100.214101 38.071513 99.335896 
C 37.564481 98.457691 36.728459 97.816189 35.748948 97.55373 
C 34.769438 97.291271 33.724671 97.428817 32.846465 97.935849 
" clip-path="url(#p4209ba359e)" style="fill: none; stroke: #000000; stroke-width: 2; stroke-linejoin: miter"/>
   </g>
   <g id="patch_6">
    <path d="M 94.046465 68.36566 
C 94.924671 68.872692 95.969438 69.010239 96.948948 68.747779 
C 97.928459 68.48532 98.764481 67.843818 99.271513 66.965613 
C 99.778545 66.087408 99.916091 65.042641 99.653632 64.06313 
C 99.391173 63.08362 98.749671 62.247598 97.871465 61.740566 
" clip-path="url(#p4209ba359e)" style="fill: none; stroke: #000000; stroke-width: 2; stroke-linejoin: miter"/>
   </g>
   <g id="patch_7">
    <path d="M 90.221465 74.990755 
C 91.099671 75.497787 92.144438 75.635333 93.123948 75.372874 
C 94.103459 75.110415 94.939481 74.468913 95.446513 73.590708 
C 95.953545 72.712502 96.091091 71.667735 95.828632 70.688225 
C 95.566173 69.708714 94.924671 68.872692 94.046465 68.36566 
" clip-path="url(#p4209ba359e)" style="fill: none; stroke: #000000; stroke-width: 2; stroke-linejoin: miter"/>
   </g>
   <g id="patch_8">
    <path d="M 86.396465 81.615849 
C 87.274671 82.122881 88.319438 82.260427 89.298948 81.997968 
C 90.278459 81.735509 91.114481 81.094007 91.621513 80.215802 
C 92.128545 79.337597 92.266091 78.29283 92.003632 77.313319 
C 91.741173 76.333808 91.099671 75.497787 90.221465 74.990755 
" clip-path="url(#p4209ba359e)" style="fill: none; stroke: #000000; stroke-width: 2; stroke-linejoin: miter"/>
   </g>
   <g id="patch_9">
    <path d="M 82.571465 88.240943 
C 83.449671 88.747975 84.494438 88.885522 85.473948 88.623063 
C 86.453459 88.360603 87.289481 87.719101 87.796513 86.840896 
C 88.303545 85.962691 88.441091 84.917924 88.178632 83.938413 
C 87.916173 82.958903 87.274671 82.122881 86.396465 81.615849 
" clip-path="url(#p4209ba359e)" style="fill: none; stroke: #000000; stroke-width: 2; stroke-linejoin: miter"/>
   </g>
   <g id="patch_10">
    <path d="M 179.980151 83.655849 
C 179.101946 84.162881 178.460444 84.998903 178.197985 85.978413 
C 177.935526 86.957924 178.073072 88.002691 178.580104 88.880896 
C 179.087136 89.759101 179.923157 90.400603 180.902668 90.663063 
C 181.882179 90.925522 182.926946 90.787975 183.805151 90.280943 
" clip-path="url(#p4209ba359e)" style="fill: none; stroke: #000000; stroke-width: 2; stroke-linejoin: miter"/>
   </g>
   <g id="patch_11">
    <path d="M 176.155151 77.030755 
C 175.276946 77.537787 174.635444 78.373808 174.372985 79.353319 
C 174.110526 80.33283 174.248072 81.377597 174.755104 82.255802 
C 175.262136 83.134007 176.098157 83.775509 177.077668 84.037968 
C 178.057179 84.300427 179.101946 84.162881 179.980151 83.655849 
" clip-path="url(#p4209ba359e)" style="fill: none; stroke: #000000; stroke-width: 2; stroke-linejoin: miter"/>
   </g>
   <g id="patch_12">
    <path d="M 172.330151 70.40566 
C 171.451946 70.912692 170.810444 71.748714 170.547985 72.728225 
C 170.285526 73.707735 170.423072 74.752502 170.930104 75.630708 
C 171.437136 76.508913 172.273157 77.150415 173.252668 77.412874 
C 174.232179 77.675333 175.276946 77.537787 176.155151 77.030755 
" clip-path="url(#p4209ba359e)" style="fill: none; stroke: #000000; stroke-width: 2; stroke-linejoin: miter"/>
   </g>
   <g id="patch_13">
    <path d="M 168.505151 63.780566 
C 167.626946 64.287598 166.985444 65.12362 166.722985 66.10313 
C 166.460526 67.082641 166.598072 68.127408 167.105104 69.005613 
C 167.612136 69.883818 168.448157 70.52532 169.427668 70.787779 
C 170.407179 71.050239 171.451946 70.912692 172.330151 70.40566 
" clip-path="url(#p4209ba359e)" style="fill: none; stroke: #000000; stroke-width: 2; stroke-linejoin: miter"/>
   </g>
   <g id="patch_14">
    <path d="M 142.605 123.911509 
C 142.605 124.925573 143.008265 125.899141 143.725317 126.616193 
C 144.442368 127.333244 145.415936 127.736509 146.43 127.736509 
C 147.444064 127.736509 148.417632 127.333244 149.134683 126.616193 
C 149.851735 125.899141 150.255 124.925573 150.255 123.911509 
" clip-path="url(#p4209ba359e)" style="fill: none; stroke: #000000; stroke-width: 2; stroke-linejoin: miter"/>
   </g>
   <g id="patch_15">
    <path d="M 134.955 123.911509 
C 134.955 124.925573 135.358265 125.899141 136.075317 126.616193 
C 136.792368 127.333244 137.765936 127.736509 138.78 127.736509 
C 139.794064 127.736509 140.767632 127.333244 141.484683 126.616193 
C 142.201735 125.899141 142.605 124.925573 142.605 123.911509 
" clip-path="url(#p4209ba359e)" style="fill: none; stroke: #000000; stroke-width: 2; stroke-linejoin: miter"/>
   </g>
   <g id="patch_16">
    <path d="M 127.305 123.911509 
C 127.305 124.925573 127.708265 125.899141 128.425317 126.616193 
C 129.142368 127.333244 130.115936 127.736509 131.13 127.736509 
C 132.144064 127.736509 133.117632 127.333244 133.834683 126.616193 
C 134.551735 125.899141 134.955 124.925573 134.955 123.911509 
" clip-path="url(#p4209ba359e)" style="fill: none; stroke: #000000; stroke-width: 2; stroke-linejoin: miter"/>
   </g>
   <g id="patch_17">
    <path d="M 119.655 123.911509 
C 119.655 124.925573 120.058265 125.899141 120.775317 126.616193 
C 121.492368 127.333244 122.465936 127.736509 123.48 127.736509 
C 124.494064 127.736509 125.467632 127.333244 126.184683 126.616193 
C 126.901735 125.899141 127.305 124.925573 127.305 123.911509 
" clip-path="url(#p4209ba359e)" style="fill: none; stroke: #000000; stroke-width: 2; stroke-linejoin: miter"/>
   </g>
   <g id="line2d_1">
    <path d="M 12.555 30.15 
L 43.155 30.15 
" clip-path="url(#p4209ba359e)" style="fill: none; stroke: #000000; stroke-width: 2; stroke-linecap: round"/>
   </g>
   <g id="line2d_2">
    <path d="M 134.955 30.15 
L 104.355 30.15 
" clip-path="url(#p4209ba359e)" style="fill: none; stroke: #000000; stroke-width: 2; stroke-linecap: round"/>
   </g>
   <g id="line2d_3">
    <path d="M 43.155 17.91 
L 43.155 42.39 
" clip-path="url(#p4209ba359e)" style="fill: none; stroke: #000000; stroke-width: 2; stroke-linecap: round"/>
   </g>
   <g id="line2d_4">
    <path d="M 104.355 17.91 
L 104.355 42.39 
" clip-path="url(#p4209ba359e)" style="fill: none; stroke: #000000; stroke-width: 2; stroke-linecap: round"/>
   </g>
   <g id="line2d_5">
    <path d="M 43.155 17.91 
L 71.001 17.91 
M 71.001 10.26 
L 71.001 25.56 
M 76.509 10.26 
L 76.509 25.56 
M 76.509 17.91 
L 104.355 17.91 
" clip-path="url(#p4209ba359e)" style="fill: none; stroke: #000000; stroke-width: 2; stroke-linecap: round"/>
   </g>
   <g id="line2d_6">
    <path d="M 43.155 42.39 
L 73.755 42.39 
M 66.105 34.74 
L 81.405 50.04 
M 81.405 34.74 
L 66.105 50.04 
M 73.755 42.39 
L 104.355 42.39 
" clip-path="url(#p4209ba359e)" style="fill: none; stroke: #000000; stroke-width: 2; stroke-linecap: round"/>
   </g>
   <g id="line2d_7">
    <path d="M 12.555 30.15 
L 27.855 56.650377 
" clip-path="url(#p4209ba359e)" style="fill: none; stroke: #000000; stroke-width: 2; stroke-linecap: round"/>
   </g>
   <g id="line2d_8">
    <path d="M 73.755 136.151509 
L 58.455 109.651132 
" clip-path="url(#p4209ba359e)" style="fill: none; stroke: #000000; stroke-width: 2; stroke-linecap: round"/>
   </g>
   <g id="line2d_9">
    <path d="M 41.988535 48.490377 
L 13.721465 64.810377 
" clip-path="url(#p4209ba359e)" style="fill: none; stroke: #000000; stroke-width: 2; stroke-linecap: round"/>
   </g>
   <g id="line2d_10">
    <path d="M 72.588535 101.491132 
L 44.321465 117.811132 
" clip-path="url(#p4209ba359e)" style="fill: none; stroke: #000000; stroke-width: 2; stroke-linecap: round"/>
   </g>
   <g id="line2d_11">
    <path d="M 27.855 56.650377 
L 41.778 80.765721 
M 48.403094 76.940721 
L 35.152906 84.590721 
M 51.157094 81.710789 
L 37.906906 89.360789 
M 44.532 85.535789 
L 58.455 109.651132 
" clip-path="url(#p4209ba359e)" style="fill: none; stroke: #000000; stroke-width: 2; stroke-linecap: round"/>
   </g>
   <g id="line2d_12">
    <path d="M 41.988535 48.490377 
L 57.288535 74.990755 
M 60.088629 64.54066 
L 54.48844 85.440849 
M 67.738629 77.790849 
L 46.83844 72.19066 
M 57.288535 74.990755 
L 72.588535 101.491132 
" clip-path="url(#p4209ba359e)" style="fill: none; stroke: #000000; stroke-width: 2; stroke-linecap: round"/>
   </g>
   <g id="line2d_13">
    <path d="M 13.721465 64.810377 
L 21.371465 78.060566 
M 36.671465 104.560943 
L 44.321465 117.811132 
" clip-path="url(#p4209ba359e)" style="fill: none; stroke: #000000; stroke-width: 2; stroke-linecap: round"/>
   </g>
   <g id="line2d_14">
    <path d="M 134.955 30.15 
L 119.655 56.650377 
" clip-path="url(#p4209ba359e)" style="fill: none; stroke: #000000; stroke-width: 2; stroke-linecap: round"/>
   </g>
   <g id="line2d_15">
    <path d="M 73.755 136.151509 
L 89.055 109.651132 
" clip-path="url(#p4209ba359e)" style="fill: none; stroke: #000000; stroke-width: 2; stroke-linecap: round"/>
   </g>
   <g id="line2d_16">
    <path d="M 133.788535 64.810377 
L 105.521465 48.490377 
" clip-path="url(#p4209ba359e)" style="fill: none; stroke: #000000; stroke-width: 2; stroke-linecap: round"/>
   </g>
   <g id="line2d_17">
    <path d="M 103.188535 117.811132 
L 74.921465 101.491132 
" clip-path="url(#p4209ba359e)" style="fill: none; stroke: #000000; stroke-width: 2; stroke-linecap: round"/>
   </g>
   <g id="line2d_18">
    <path d="M 119.655 56.650377 
L 105.732 80.765721 
M 112.357094 84.590721 
L 99.106906 76.940721 
M 109.603094 89.360789 
L 96.352906 81.710789 
M 102.978 85.535789 
L 89.055 109.651132 
" clip-path="url(#p4209ba359e)" style="fill: none; stroke: #000000; stroke-width: 2; stroke-linecap: round"/>
   </g>
   <g id="line2d_19">
    <path d="M 133.788535 64.810377 
L 118.488535 91.310755 
M 128.938629 88.51066 
L 108.03844 94.110849 
M 121.288629 101.760849 
L 115.68844 80.86066 
M 118.488535 91.310755 
L 103.188535 117.811132 
" clip-path="url(#p4209ba359e)" style="fill: none; stroke: #000000; stroke-width: 2; stroke-linecap: round"/>
   </g>
   <g id="line2d_20">
    <path d="M 105.521465 48.490377 
L 97.871465 61.740566 
M 82.571465 88.240943 
L 74.921465 101.491132 
" clip-path="url(#p4209ba359e)" style="fill: none; stroke: #000000; stroke-width: 2; stroke-linecap: round"/>
   </g>
   <g id="line2d_21">
    <path d="M 196.155 136.151509 
L 180.855 109.651132 
" clip-path="url(#p4209ba359e)" style="fill: none; stroke: #000000; stroke-width: 2; stroke-linecap: round"/>
   </g>
   <g id="line2d_22">
    <path d="M 134.955 30.15 
L 150.255 56.650377 
" clip-path="url(#p4209ba359e)" style="fill: none; stroke: #000000; stroke-width: 2; stroke-linecap: round"/>
   </g>
   <g id="line2d_23">
    <path d="M 170.254849 115.771132 
L 191.455151 103.531132 
" clip-path="url(#p4209ba359e)" style="fill: none; stroke: #000000; stroke-width: 2; stroke-linecap: round"/>
   </g>
   <g id="line2d_24">
    <path d="M 139.654849 62.770377 
L 160.855151 50.530377 
" clip-path="url(#p4209ba359e)" style="fill: none; stroke: #000000; stroke-width: 2; stroke-linecap: round"/>
   </g>
   <g id="line2d_25">
    <path d="M 170.254849 115.771132 
L 156.331849 91.655789 
M 149.706755 95.480789 
L 162.956943 87.830789 
M 146.952755 90.710721 
L 160.202943 83.060721 
M 153.577849 86.885721 
L 139.654849 62.770377 
" clip-path="url(#p4209ba359e)" style="fill: none; stroke: #000000; stroke-width: 2; stroke-linecap: round"/>
   </g>
   <g id="line2d_26">
    <path d="M 191.455151 103.531132 
L 183.805151 90.280943 
M 168.505151 63.780566 
L 160.855151 50.530377 
" clip-path="url(#p4209ba359e)" style="fill: none; stroke: #000000; stroke-width: 2; stroke-linecap: round"/>
   </g>
   <g id="line2d_27">
    <path d="M 196.155 136.151509 
L 165.555 136.151509 
" clip-path="url(#p4209ba359e)" style="fill: none; stroke: #000000; stroke-width: 2; stroke-linecap: round"/>
   </g>
   <g id="line2d_28">
    <path d="M 73.755 136.151509 
L 104.355 136.151509 
" clip-path="url(#p4209ba359e)" style="fill: none; stroke: #000000; stroke-width: 2; stroke-linecap: round"/>
   </g>
   <g id="line2d_29">
    <path d="M 165.555 148.391509 
L 165.555 123.911509 
" clip-path="url(#p4209ba359e)" style="fill: none; stroke: #000000; stroke-width: 2; stroke-linecap: round"/>
   </g>
   <g id="line2d_30">
    <path d="M 104.355 148.391509 
L 104.355 123.911509 
" clip-path="url(#p4209ba359e)" style="fill: none; stroke: #000000; stroke-width: 2; stroke-linecap: round"/>
   </g>
   <g id="line2d_31">
    <path d="M 165.555 148.391509 
L 134.955 148.391509 
M 142.605 156.041509 
L 127.305 140.741509 
M 127.305 156.041509 
L 142.605 140.741509 
M 134.955 148.391509 
L 104.355 148.391509 
" clip-path="url(#p4209ba359e)" style="fill: none; stroke: #000000; stroke-width: 2; stroke-linecap: round"/>
   </g>
   <g id="line2d_32">
    <path d="M 165.555 123.911509 
L 150.255 123.911509 
M 119.655 123.911509 
L 104.355 123.911509 
" clip-path="url(#p4209ba359e)" style="fill: none; stroke: #000000; stroke-width: 2; stroke-linecap: round"/>
   </g>
   <g id="patch_18">
    <path d="M 12.555 32.445 
C 13.163641 32.445 13.747436 32.203184 14.17781 31.77281 
C 14.608184 31.342436 14.85 30.758641 14.85 30.15 
C 14.85 29.541359 14.608184 28.957564 14.17781 28.52719 
C 13.747436 28.096816 13.163641 27.855 12.555 27.855 
C 11.946359 27.855 11.362564 28.096816 10.93219 28.52719 
C 10.501816 28.957564 10.26 29.541359 10.26 30.15 
C 10.26 30.758641 10.501816 31.342436 10.93219 31.77281 
C 11.362564 32.203184 11.946359 32.445 12.555 32.445 
z
" clip-path="url(#p4209ba359e)" style="stroke: #000000; stroke-width: 2; stroke-linejoin: miter"/>
   </g>
   <g id="patch_19">
    <path d="M 134.955 32.445 
C 135.563641 32.445 136.147436 32.203184 136.57781 31.77281 
C 137.008184 31.342436 137.25 30.758641 137.25 30.15 
C 137.25 29.541359 137.008184 28.957564 136.57781 28.52719 
C 136.147436 28.096816 135.563641 27.855 134.955 27.855 
C 134.346359 27.855 133.762564 28.096816 133.33219 28.52719 
C 132.901816 28.957564 132.66 29.541359 132.66 30.15 
C 132.66 30.758641 132.901816 31.342436 133.33219 31.77281 
C 133.762564 32.203184 134.346359 32.445 134.955 32.445 
z
" clip-path="url(#p4209ba359e)" style="stroke: #000000; stroke-width: 2; stroke-linejoin: miter"/>
   </g>
   <g id="patch_20">
    <path d="M 73.755 138.446509 
C 74.363641 138.446509 74.947436 138.204694 75.37781 137.774319 
C 75.808184 137.343945 76.05 136.760151 76.05 136.151509 
C 76.05 135.542868 75.808184 134.959074 75.37781 134.528699 
C 74.947436 134.098325 74.363641 133.856509 73.755 133.856509 
C 73.146359 133.856509 72.562564 134.098325 72.13219 134.528699 
C 71.701816 134.959074 71.46 135.542868 71.46 136.151509 
C 71.46 136.760151 71.701816 137.343945 72.13219 137.774319 
C 72.562564 138.204694 73.146359 138.446509 73.755 138.446509 
z
" clip-path="url(#p4209ba359e)" style="stroke: #000000; stroke-width: 2; stroke-linejoin: miter"/>
   </g>
   <g id="patch_21">
    <path d="M 196.155 138.446509 
C 196.763641 138.446509 197.347436 138.204694 197.77781 137.774319 
C 198.208184 137.343945 198.45 136.760151 198.45 136.151509 
C 198.45 135.542868 198.208184 134.959074 197.77781 134.528699 
C 197.347436 134.098325 196.763641 133.856509 196.155 133.856509 
C 195.546359 133.856509 194.962564 134.098325 194.53219 134.528699 
C 194.101816 134.959074 193.86 135.542868 193.86 136.151509 
C 193.86 136.760151 194.101816 137.343945 194.53219 137.774319 
C 194.962564 138.204694 195.546359 138.446509 196.155 138.446509 
z
" clip-path="url(#p4209ba359e)" style="stroke: #000000; stroke-width: 2; stroke-linejoin: miter"/>
   </g>
  </g>
 </g>
 <defs>
  <clipPath id="p4209ba359e">
   <rect x="7.2" y="7.2" width="194.31" height="151.901509"/>
  </clipPath>
 </defs>
</svg>
