<?xml version="1.0" encoding="utf-8" standalone="no"?>
<!DOCTYPE svg PUBLIC "-//W3C//DTD SVG 1.1//EN"
  "http://www.w3.org/Graphics/SVG/1.1/DTD/svg11.dtd">
<svg xmlns:xlink="http://www.w3.org/1999/xlink" width="208.71pt" height="158.141509pt" viewBox="0 0 208.71 158.141509" xmlns="http://www.w3.org/2000/svg" version="1.1">
 <metadata>
  <rdf:RDF xmlns:dc="http://purl.org/dc/elements/1.1/" xmlns:cc="http://creativecommons.org/ns#" xmlns:rdf="http://www.w3.org/1999/02/22-rdf-syntax-ns#">
   <cc:Work>
    <dc:type rdf:resource="http://purl.org/dc/dcmitype/StillImage"/>
    <dc:date>2023-03-23T14:45:52.312383</dc:date>
    <dc:format>image/svg+xml</dc:format>
    <dc:creator>
     <cc:Agent>
      <dc:title>Matplotlib v3.5.2, https://matplotlib.org/</dc:title>
     </cc:Agent>
    </dc:creator>
   </cc:Work>
  </rdf:RDF>
 </metadata>
 <defs>
  <style type="text/css">*{stroke-linejoin: round; stroke-linecap: butt}</style>
 </defs>
 <g id="figure_1">
  <g id="patch_1">
   <path d="M 0 158.141509 
L 208.71 158.141509 
L 208.71 0 
L 0 0 
L 0 158.141509 
z
" style="fill: none"/>
  </g>
  <g id="axes_1">
   <g id="patch_2">
    <path d="M 39.33 64.28566 
C 40.208205 63.778628 40.849707 62.942607 41.112166 61.963096 
C 41.374625 60.983585 41.237079 59.938818 40.730047 59.060613 
C 40.223015 58.182408 39.386993 57.540906 38.407483 57.278447 
C 37.427972 57.015988 36.383205 57.153534 35.505 57.660566 
" clip-path="url(#p81332d50df)" style="fill: none; stroke: #000000; stroke-width: 2; stroke-linejoin: miter"/>
   </g>
   <g id="patch_3">
    <path d="M 43.155 70.910755 
C 44.033205 70.403723 44.674707 69.567701 44.937166 68.58819 
C 45.199625 67.60868 45.062079 66.563913 44.555047 65.685708 
C 44.048015 64.807502 43.211993 64.166 42.232483 63.903541 
C 41.252972 63.641082 40.208205 63.778628 39.33 64.28566 
" clip-path="url(#p81332d50df)" style="fill: none; stroke: #000000; stroke-width: 2; stroke-linejoin: miter"/>
   </g>
   <g id="patch_4">
    <path d="M 46.98 77.535849 
C 47.858205 77.028817 48.499707 76.192795 48.762166 75.213285 
C 49.024625 74.233774 48.887079 73.189007 48.380047 72.310802 
C 47.873015 71.432597 47.036993 70.791095 46.057483 70.528636 
C 45.077972 70.266177 44.033205 70.403723 43.155 70.910755 
" clip-path="url(#p81332d50df)" style="fill: none; stroke: #000000; stroke-width: 2; stroke-linejoin: miter"/>
   </g>
   <g id="patch_5">
    <path d="M 50.805 84.160943 
C 51.683205 83.653911 52.324707 82.81789 52.587166 81.838379 
C 52.849625 80.858868 52.712079 79.814101 52.205047 78.935896 
C 51.698015 78.057691 50.861993 77.416189 49.882483 77.15373 
C 48.902972 76.891271 47.858205 77.028817 46.98 77.535849 
" clip-path="url(#p81332d50df)" style="fill: none; stroke: #000000; stroke-width: 2; stroke-linejoin: miter"/>
   </g>
   <g id="patch_6">
    <path d="M 142.605 107.591509 
C 142.605 108.605573 143.008265 109.579141 143.725317 110.296193 
C 144.442368 111.013244 145.415936 111.416509 146.43 111.416509 
C 147.444064 111.416509 148.417632 111.013244 149.134683 110.296193 
C 149.851735 109.579141 150.255 108.605573 150.255 107.591509 
" clip-path="url(#p81332d50df)" style="fill: none; stroke: #000000; stroke-width: 2; stroke-linejoin: miter"/>
   </g>
   <g id="patch_7">
    <path d="M 134.955 107.591509 
C 134.955 108.605573 135.358265 109.579141 136.075317 110.296193 
C 136.792368 111.013244 137.765936 111.416509 138.78 111.416509 
C 139.794064 111.416509 140.767632 111.013244 141.484683 110.296193 
C 142.201735 109.579141 142.605 108.605573 142.605 107.591509 
" clip-path="url(#p81332d50df)" style="fill: none; stroke: #000000; stroke-width: 2; stroke-linejoin: miter"/>
   </g>
   <g id="patch_8">
    <path d="M 127.305 107.591509 
C 127.305 108.605573 127.708265 109.579141 128.425317 110.296193 
C 129.142368 111.013244 130.115936 111.416509 131.13 111.416509 
C 132.144064 111.416509 133.117632 111.013244 133.834683 110.296193 
C 134.551735 109.579141 134.955 108.605573 134.955 107.591509 
" clip-path="url(#p81332d50df)" style="fill: none; stroke: #000000; stroke-width: 2; stroke-linejoin: miter"/>
   </g>
   <g id="patch_9">
    <path d="M 119.655 107.591509 
C 119.655 108.605573 120.058265 109.579141 120.775317 110.296193 
C 121.492368 111.013244 122.465936 111.416509 123.48 111.416509 
C 124.494064 111.416509 125.467632 111.013244 126.184683 110.296193 
C 126.901735 109.579141 127.305 108.605573 127.305 107.591509 
" clip-path="url(#p81332d50df)" style="fill: none; stroke: #000000; stroke-width: 2; stroke-linejoin: miter"/>
   </g>
   <g id="line2d_1">
    <path d="M 12.555 17.91 
L 71.001 17.91 
M 71.001 10.26 
L 71.001 25.56 
M 76.509 10.26 
L 76.509 25.56 
M 76.509 17.91 
L 134.955 17.91 
" clip-path="url(#p81332d50df)" style="fill: none; stroke: #000000; stroke-width: 2; stroke-linecap: round"/>
   </g>
   <g id="line2d_2">
    <path d="M 12.555 17.91 
L 35.505 57.660566 
M 50.805 84.160943 
L 73.755 123.911509 
" clip-path="url(#p81332d50df)" style="fill: none; stroke: #000000; stroke-width: 2; stroke-linecap: round"/>
   </g>
   <g id="line2d_3">
    <path d="M 134.955 17.91 
L 105.732 68.525721 
M 112.357094 72.350721 
L 99.106906 64.700721 
M 109.603094 77.120789 
L 96.352906 69.470789 
M 102.978 73.295789 
L 73.755 123.911509 
" clip-path="url(#p81332d50df)" style="fill: none; stroke: #000000; stroke-width: 2; stroke-linecap: round"/>
   </g>
   <g id="line2d_4">
    <path d="M 196.155 123.911509 
L 166.932 73.295789 
M 160.306906 77.120789 
L 173.557094 69.470789 
M 157.552906 72.350721 
L 170.803094 64.700721 
M 164.178 68.525721 
L 134.955 17.91 
" clip-path="url(#p81332d50df)" style="fill: none; stroke: #000000; stroke-width: 2; stroke-linecap: round"/>
   </g>
   <g id="line2d_5">
    <path d="M 196.155 123.911509 
L 165.555 123.911509 
" clip-path="url(#p81332d50df)" style="fill: none; stroke: #000000; stroke-width: 2; stroke-linecap: round"/>
   </g>
   <g id="line2d_6">
    <path d="M 73.755 123.911509 
L 104.355 123.911509 
" clip-path="url(#p81332d50df)" style="fill: none; stroke: #000000; stroke-width: 2; stroke-linecap: round"/>
   </g>
   <g id="line2d_7">
    <path d="M 165.555 140.231509 
L 165.555 107.591509 
" clip-path="url(#p81332d50df)" style="fill: none; stroke: #000000; stroke-width: 2; stroke-linecap: round"/>
   </g>
   <g id="line2d_8">
    <path d="M 104.355 140.231509 
L 104.355 107.591509 
" clip-path="url(#p81332d50df)" style="fill: none; stroke: #000000; stroke-width: 2; stroke-linecap: round"/>
   </g>
   <g id="line2d_9">
    <path d="M 165.555 123.911509 
L 137.709 123.911509 
M 137.709 131.561509 
L 137.709 116.261509 
M 132.201 131.561509 
L 132.201 116.261509 
M 132.201 123.911509 
L 104.355 123.911509 
" clip-path="url(#p81332d50df)" style="fill: none; stroke: #000000; stroke-width: 2; stroke-linecap: round"/>
   </g>
   <g id="line2d_10">
    <path d="M 165.555 140.231509 
L 134.955 140.231509 
M 142.605 147.881509 
L 127.305 132.581509 
M 127.305 147.881509 
L 142.605 132.581509 
M 134.955 140.231509 
L 104.355 140.231509 
" clip-path="url(#p81332d50df)" style="fill: none; stroke: #000000; stroke-width: 2; stroke-linecap: round"/>
   </g>
   <g id="line2d_11">
    <path d="M 165.555 107.591509 
L 150.255 107.591509 
M 119.655 107.591509 
L 104.355 107.591509 
" clip-path="url(#p81332d50df)" style="fill: none; stroke: #000000; stroke-width: 2; stroke-linecap: round"/>
   </g>
   <g id="patch_10">
    <path d="M 12.555 20.205 
C 13.163641 20.205 13.747436 19.963184 14.17781 19.53281 
C 14.608184 19.102436 14.85 18.518641 14.85 17.91 
C 14.85 17.301359 14.608184 16.717564 14.17781 16.28719 
C 13.747436 15.856816 13.163641 15.615 12.555 15.615 
C 11.946359 15.615 11.362564 15.856816 10.93219 16.28719 
C 10.501816 16.717564 10.26 17.301359 10.26 17.91 
C 10.26 18.518641 10.501816 19.102436 10.93219 19.53281 
C 11.362564 19.963184 11.946359 20.205 12.555 20.205 
z
" clip-path="url(#p81332d50df)" style="stroke: #000000; stroke-width: 2; stroke-linejoin: miter"/>
   </g>
   <g id="patch_11">
    <path d="M 134.955 20.205 
C 135.563641 20.205 136.147436 19.963184 136.57781 19.53281 
C 137.008184 19.102436 137.25 18.518641 137.25 17.91 
C 137.25 17.301359 137.008184 16.717564 136.57781 16.28719 
C 136.147436 15.856816 135.563641 15.615 134.955 15.615 
C 134.346359 15.615 133.762564 15.856816 133.33219 16.28719 
C 132.901816 16.717564 132.66 17.301359 132.66 17.91 
C 132.66 18.518641 132.901816 19.102436 133.33219 19.53281 
C 133.762564 19.963184 134.346359 20.205 134.955 20.205 
z
" clip-path="url(#p81332d50df)" style="stroke: #000000; stroke-width: 2; stroke-linejoin: miter"/>
   </g>
   <g id="patch_12">
    <path d="M 73.755 126.206509 
C 74.363641 126.206509 74.947436 125.964694 75.37781 125.534319 
C 75.808184 125.103945 76.05 124.520151 76.05 123.911509 
C 76.05 123.302868 75.808184 122.719074 75.37781 122.288699 
C 74.947436 121.858325 74.363641 121.616509 73.755 121.616509 
C 73.146359 121.616509 72.562564 121.858325 72.13219 122.288699 
C 71.701816 122.719074 71.46 123.302868 71.46 123.911509 
C 71.46 124.520151 71.701816 125.103945 72.13219 125.534319 
C 72.562564 125.964694 73.146359 126.206509 73.755 126.206509 
z
" clip-path="url(#p81332d50df)" style="stroke: #000000; stroke-width: 2; stroke-linejoin: miter"/>
   </g>
   <g id="patch_13">
    <path d="M 196.155 126.206509 
C 196.763641 126.206509 197.347436 125.964694 197.77781 125.534319 
C 198.208184 125.103945 198.45 124.520151 198.45 123.911509 
C 198.45 123.302868 198.208184 122.719074 197.77781 122.288699 
C 197.347436 121.858325 196.763641 121.616509 196.155 121.616509 
C 195.546359 121.616509 194.962564 121.858325 194.53219 122.288699 
C 194.101816 122.719074 193.86 123.302868 193.86 123.911509 
C 193.86 124.520151 194.101816 125.103945 194.53219 125.534319 
C 194.962564 125.964694 195.546359 126.206509 196.155 126.206509 
z
" clip-path="url(#p81332d50df)" style="stroke: #000000; stroke-width: 2; stroke-linejoin: miter"/>
   </g>
  </g>
 </g>
 <defs>
  <clipPath id="p81332d50df">
   <rect x="7.2" y="7.2" width="194.31" height="143.741509"/>
  </clipPath>
 </defs>
</svg>
