<?xml version="1.0" encoding="utf-8" standalone="no"?>
<!DOCTYPE svg PUBLIC "-//W3C//DTD SVG 1.1//EN"
  "http://www.w3.org/Graphics/SVG/1.1/DTD/svg11.dtd">
<svg xmlns:xlink="http://www.w3.org/1999/xlink" width="208.71pt" height="154.061509pt" viewBox="0 0 208.71 154.061509" xmlns="http://www.w3.org/2000/svg" version="1.1">
 <metadata>
  <rdf:RDF xmlns:dc="http://purl.org/dc/elements/1.1/" xmlns:cc="http://creativecommons.org/ns#" xmlns:rdf="http://www.w3.org/1999/02/22-rdf-syntax-ns#">
   <cc:Work>
    <dc:type rdf:resource="http://purl.org/dc/dcmitype/StillImage"/>
    <dc:date>2023-03-23T14:43:30.766747</dc:date>
    <dc:format>image/svg+xml</dc:format>
    <dc:creator>
     <cc:Agent>
      <dc:title>Matplotlib v3.5.2, https://matplotlib.org/</dc:title>
     </cc:Agent>
    </dc:creator>
   </cc:Work>
  </rdf:RDF>
 </metadata>
 <defs>
  <style type="text/css">*{stroke-linejoin: round; stroke-linecap: butt}</style>
 </defs>
 <g id="figure_1">
  <g id="patch_1">
   <path d="M 0 154.061509 
L 208.71 154.061509 
L 208.71 0 
L 0 0 
L 0 154.061509 
z
" style="fill: none"/>
  </g>
  <g id="axes_1">
   <g id="patch_2">
    <path d="M 28.729849 70.40566 
C 29.608054 69.898628 30.249556 69.062607 30.512015 68.083096 
C 30.774474 67.103585 30.636928 66.058818 30.129896 65.180613 
C 29.622864 64.302408 28.786843 63.660906 27.807332 63.398447 
C 26.827821 63.135988 25.783054 63.273534 24.904849 63.780566 
" clip-path="url(#p43ef46d1be)" style="fill: none; stroke: #000000; stroke-width: 2; stroke-linejoin: miter"/>
   </g>
   <g id="patch_3">
    <path d="M 32.554849 77.030755 
C 33.433054 76.523723 34.074556 75.687701 34.337015 74.70819 
C 34.599474 73.72868 34.461928 72.683913 33.954896 71.805708 
C 33.447864 70.927502 32.611843 70.286 31.632332 70.023541 
C 30.652821 69.761082 29.608054 69.898628 28.729849 70.40566 
" clip-path="url(#p43ef46d1be)" style="fill: none; stroke: #000000; stroke-width: 2; stroke-linejoin: miter"/>
   </g>
   <g id="patch_4">
    <path d="M 36.379849 83.655849 
C 37.258054 83.148817 37.899556 82.312795 38.162015 81.333285 
C 38.424474 80.353774 38.286928 79.309007 37.779896 78.430802 
C 37.272864 77.552597 36.436843 76.911095 35.457332 76.648636 
C 34.477821 76.386177 33.433054 76.523723 32.554849 77.030755 
" clip-path="url(#p43ef46d1be)" style="fill: none; stroke: #000000; stroke-width: 2; stroke-linejoin: miter"/>
   </g>
   <g id="patch_5">
    <path d="M 40.204849 90.280943 
C 41.083054 89.773911 41.724556 88.93789 41.987015 87.958379 
C 42.249474 86.978868 42.111928 85.934101 41.604896 85.055896 
C 41.097864 84.177691 40.261843 83.536189 39.282332 83.27373 
C 38.302821 83.011271 37.258054 83.148817 36.379849 83.655849 
" clip-path="url(#p43ef46d1be)" style="fill: none; stroke: #000000; stroke-width: 2; stroke-linejoin: miter"/>
   </g>
   <g id="patch_6">
    <path d="M 169.38 77.535849 
C 168.501795 78.042881 167.860293 78.878903 167.597834 79.858413 
C 167.335375 80.837924 167.472921 81.882691 167.979953 82.760896 
C 168.486985 83.639101 169.323007 84.280603 170.302517 84.543063 
C 171.282028 84.805522 172.326795 84.667975 173.205 84.160943 
" clip-path="url(#p43ef46d1be)" style="fill: none; stroke: #000000; stroke-width: 2; stroke-linejoin: miter"/>
   </g>
   <g id="patch_7">
    <path d="M 165.555 70.910755 
C 164.676795 71.417787 164.035293 72.253808 163.772834 73.233319 
C 163.510375 74.21283 163.647921 75.257597 164.154953 76.135802 
C 164.661985 77.014007 165.498007 77.655509 166.477517 77.917968 
C 167.457028 78.180427 168.501795 78.042881 169.38 77.535849 
" clip-path="url(#p43ef46d1be)" style="fill: none; stroke: #000000; stroke-width: 2; stroke-linejoin: miter"/>
   </g>
   <g id="patch_8">
    <path d="M 161.73 64.28566 
C 160.851795 64.792692 160.210293 65.628714 159.947834 66.608225 
C 159.685375 67.587735 159.822921 68.632502 160.329953 69.510708 
C 160.836985 70.388913 161.673007 71.030415 162.652517 71.292874 
C 163.632028 71.555333 164.676795 71.417787 165.555 70.910755 
" clip-path="url(#p43ef46d1be)" style="fill: none; stroke: #000000; stroke-width: 2; stroke-linejoin: miter"/>
   </g>
   <g id="patch_9">
    <path d="M 157.905 57.660566 
C 157.026795 58.167598 156.385293 59.00362 156.122834 59.98313 
C 155.860375 60.962641 155.997921 62.007408 156.504953 62.885613 
C 157.011985 63.763818 157.848007 64.40532 158.827517 64.667779 
C 159.807028 64.930239 160.851795 64.792692 161.73 64.28566 
" clip-path="url(#p43ef46d1be)" style="fill: none; stroke: #000000; stroke-width: 2; stroke-linejoin: miter"/>
   </g>
   <g id="patch_10">
    <path d="M 142.605 111.671509 
C 142.605 112.685573 143.008265 113.659141 143.725317 114.376193 
C 144.442368 115.093244 145.415936 115.496509 146.43 115.496509 
C 147.444064 115.496509 148.417632 115.093244 149.134683 114.376193 
C 149.851735 113.659141 150.255 112.685573 150.255 111.671509 
" clip-path="url(#p43ef46d1be)" style="fill: none; stroke: #000000; stroke-width: 2; stroke-linejoin: miter"/>
   </g>
   <g id="patch_11">
    <path d="M 134.955 111.671509 
C 134.955 112.685573 135.358265 113.659141 136.075317 114.376193 
C 136.792368 115.093244 137.765936 115.496509 138.78 115.496509 
C 139.794064 115.496509 140.767632 115.093244 141.484683 114.376193 
C 142.201735 113.659141 142.605 112.685573 142.605 111.671509 
" clip-path="url(#p43ef46d1be)" style="fill: none; stroke: #000000; stroke-width: 2; stroke-linejoin: miter"/>
   </g>
   <g id="patch_12">
    <path d="M 127.305 111.671509 
C 127.305 112.685573 127.708265 113.659141 128.425317 114.376193 
C 129.142368 115.093244 130.115936 115.496509 131.13 115.496509 
C 132.144064 115.496509 133.117632 115.093244 133.834683 114.376193 
C 134.551735 113.659141 134.955 112.685573 134.955 111.671509 
" clip-path="url(#p43ef46d1be)" style="fill: none; stroke: #000000; stroke-width: 2; stroke-linejoin: miter"/>
   </g>
   <g id="patch_13">
    <path d="M 119.655 111.671509 
C 119.655 112.685573 120.058265 113.659141 120.775317 114.376193 
C 121.492368 115.093244 122.465936 115.496509 123.48 115.496509 
C 124.494064 115.496509 125.467632 115.093244 126.184683 114.376193 
C 126.901735 113.659141 127.305 112.685573 127.305 111.671509 
" clip-path="url(#p43ef46d1be)" style="fill: none; stroke: #000000; stroke-width: 2; stroke-linejoin: miter"/>
   </g>
   <g id="line2d_1">
    <path d="M 12.555 17.91 
L 73.755 17.91 
M 66.105 10.26 
L 81.405 25.56 
M 81.405 10.26 
L 66.105 25.56 
M 73.755 17.91 
L 134.955 17.91 
" clip-path="url(#p43ef46d1be)" style="fill: none; stroke: #000000; stroke-width: 2; stroke-linecap: round"/>
   </g>
   <g id="line2d_2">
    <path d="M 12.555 17.91 
L 27.855 44.410377 
" clip-path="url(#p43ef46d1be)" style="fill: none; stroke: #000000; stroke-width: 2; stroke-linecap: round"/>
   </g>
   <g id="line2d_3">
    <path d="M 73.755 123.911509 
L 58.455 97.411132 
" clip-path="url(#p43ef46d1be)" style="fill: none; stroke: #000000; stroke-width: 2; stroke-linecap: round"/>
   </g>
   <g id="line2d_4">
    <path d="M 38.455151 38.290377 
L 17.254849 50.530377 
" clip-path="url(#p43ef46d1be)" style="fill: none; stroke: #000000; stroke-width: 2; stroke-linecap: round"/>
   </g>
   <g id="line2d_5">
    <path d="M 69.055151 91.291132 
L 47.854849 103.531132 
" clip-path="url(#p43ef46d1be)" style="fill: none; stroke: #000000; stroke-width: 2; stroke-linecap: round"/>
   </g>
   <g id="line2d_6">
    <path d="M 38.455151 38.290377 
L 53.755151 64.790755 
M 56.555245 54.34066 
L 50.955057 75.240849 
M 64.205245 67.590849 
L 43.305057 61.99066 
M 53.755151 64.790755 
L 69.055151 91.291132 
" clip-path="url(#p43ef46d1be)" style="fill: none; stroke: #000000; stroke-width: 2; stroke-linecap: round"/>
   </g>
   <g id="line2d_7">
    <path d="M 17.254849 50.530377 
L 24.904849 63.780566 
M 40.204849 90.280943 
L 47.854849 103.531132 
" clip-path="url(#p43ef46d1be)" style="fill: none; stroke: #000000; stroke-width: 2; stroke-linecap: round"/>
   </g>
   <g id="line2d_8">
    <path d="M 134.955 17.91 
L 119.655 44.410377 
" clip-path="url(#p43ef46d1be)" style="fill: none; stroke: #000000; stroke-width: 2; stroke-linecap: round"/>
   </g>
   <g id="line2d_9">
    <path d="M 73.755 123.911509 
L 89.055 97.411132 
" clip-path="url(#p43ef46d1be)" style="fill: none; stroke: #000000; stroke-width: 2; stroke-linecap: round"/>
   </g>
   <g id="line2d_10">
    <path d="M 130.255151 50.530377 
L 109.054849 38.290377 
" clip-path="url(#p43ef46d1be)" style="fill: none; stroke: #000000; stroke-width: 2; stroke-linecap: round"/>
   </g>
   <g id="line2d_11">
    <path d="M 99.655151 103.531132 
L 78.454849 91.291132 
" clip-path="url(#p43ef46d1be)" style="fill: none; stroke: #000000; stroke-width: 2; stroke-linecap: round"/>
   </g>
   <g id="line2d_12">
    <path d="M 130.255151 50.530377 
L 116.332151 74.645721 
M 122.957245 78.470721 
L 109.707057 70.820721 
M 120.203245 83.240789 
L 106.953057 75.590789 
M 113.578151 79.415789 
L 99.655151 103.531132 
" clip-path="url(#p43ef46d1be)" style="fill: none; stroke: #000000; stroke-width: 2; stroke-linecap: round"/>
   </g>
   <g id="line2d_13">
    <path d="M 109.054849 38.290377 
L 93.754849 64.790755 
M 104.204943 61.99066 
L 83.304755 67.590849 
M 96.554943 75.240849 
L 90.954755 54.34066 
M 93.754849 64.790755 
L 78.454849 91.291132 
" clip-path="url(#p43ef46d1be)" style="fill: none; stroke: #000000; stroke-width: 2; stroke-linecap: round"/>
   </g>
   <g id="line2d_14">
    <path d="M 196.155 123.911509 
L 173.205 84.160943 
M 157.905 57.660566 
L 134.955 17.91 
" clip-path="url(#p43ef46d1be)" style="fill: none; stroke: #000000; stroke-width: 2; stroke-linecap: round"/>
   </g>
   <g id="line2d_15">
    <path d="M 196.155 123.911509 
L 165.555 123.911509 
" clip-path="url(#p43ef46d1be)" style="fill: none; stroke: #000000; stroke-width: 2; stroke-linecap: round"/>
   </g>
   <g id="line2d_16">
    <path d="M 73.755 123.911509 
L 104.355 123.911509 
" clip-path="url(#p43ef46d1be)" style="fill: none; stroke: #000000; stroke-width: 2; stroke-linecap: round"/>
   </g>
   <g id="line2d_17">
    <path d="M 165.555 136.151509 
L 165.555 111.671509 
" clip-path="url(#p43ef46d1be)" style="fill: none; stroke: #000000; stroke-width: 2; stroke-linecap: round"/>
   </g>
   <g id="line2d_18">
    <path d="M 104.355 136.151509 
L 104.355 111.671509 
" clip-path="url(#p43ef46d1be)" style="fill: none; stroke: #000000; stroke-width: 2; stroke-linecap: round"/>
   </g>
   <g id="line2d_19">
    <path d="M 165.555 136.151509 
L 137.709 136.151509 
M 137.709 143.801509 
L 137.709 128.501509 
M 132.201 143.801509 
L 132.201 128.501509 
M 132.201 136.151509 
L 104.355 136.151509 
" clip-path="url(#p43ef46d1be)" style="fill: none; stroke: #000000; stroke-width: 2; stroke-linecap: round"/>
   </g>
   <g id="line2d_20">
    <path d="M 165.555 111.671509 
L 150.255 111.671509 
M 119.655 111.671509 
L 104.355 111.671509 
" clip-path="url(#p43ef46d1be)" style="fill: none; stroke: #000000; stroke-width: 2; stroke-linecap: round"/>
   </g>
   <g id="patch_14">
    <path d="M 12.555 20.205 
C 13.163641 20.205 13.747436 19.963184 14.17781 19.53281 
C 14.608184 19.102436 14.85 18.518641 14.85 17.91 
C 14.85 17.301359 14.608184 16.717564 14.17781 16.28719 
C 13.747436 15.856816 13.163641 15.615 12.555 15.615 
C 11.946359 15.615 11.362564 15.856816 10.93219 16.28719 
C 10.501816 16.717564 10.26 17.301359 10.26 17.91 
C 10.26 18.518641 10.501816 19.102436 10.93219 19.53281 
C 11.362564 19.963184 11.946359 20.205 12.555 20.205 
z
" clip-path="url(#p43ef46d1be)" style="stroke: #000000; stroke-width: 2; stroke-linejoin: miter"/>
   </g>
   <g id="patch_15">
    <path d="M 134.955 20.205 
C 135.563641 20.205 136.147436 19.963184 136.57781 19.53281 
C 137.008184 19.102436 137.25 18.518641 137.25 17.91 
C 137.25 17.301359 137.008184 16.717564 136.57781 16.28719 
C 136.147436 15.856816 135.563641 15.615 134.955 15.615 
C 134.346359 15.615 133.762564 15.856816 133.33219 16.28719 
C 132.901816 16.717564 132.66 17.301359 132.66 17.91 
C 132.66 18.518641 132.901816 19.102436 133.33219 19.53281 
C 133.762564 19.963184 134.346359 20.205 134.955 20.205 
z
" clip-path="url(#p43ef46d1be)" style="stroke: #000000; stroke-width: 2; stroke-linejoin: miter"/>
   </g>
   <g id="patch_16">
    <path d="M 73.755 126.206509 
C 74.363641 126.206509 74.947436 125.964694 75.37781 125.534319 
C 75.808184 125.103945 76.05 124.520151 76.05 123.911509 
C 76.05 123.302868 75.808184 122.719074 75.37781 122.288699 
C 74.947436 121.858325 74.363641 121.616509 73.755 121.616509 
C 73.146359 121.616509 72.562564 121.858325 72.13219 122.288699 
C 71.701816 122.719074 71.46 123.302868 71.46 123.911509 
C 71.46 124.520151 71.701816 125.103945 72.13219 125.534319 
C 72.562564 125.964694 73.146359 126.206509 73.755 126.206509 
z
" clip-path="url(#p43ef46d1be)" style="stroke: #000000; stroke-width: 2; stroke-linejoin: miter"/>
   </g>
   <g id="patch_17">
    <path d="M 196.155 126.206509 
C 196.763641 126.206509 197.347436 125.964694 197.77781 125.534319 
C 198.208184 125.103945 198.45 124.520151 198.45 123.911509 
C 198.45 123.302868 198.208184 122.719074 197.77781 122.288699 
C 197.347436 121.858325 196.763641 121.616509 196.155 121.616509 
C 195.546359 121.616509 194.962564 121.858325 194.53219 122.288699 
C 194.101816 122.719074 193.86 123.302868 193.86 123.911509 
C 193.86 124.520151 194.101816 125.103945 194.53219 125.534319 
C 194.962564 125.964694 195.546359 126.206509 196.155 126.206509 
z
" clip-path="url(#p43ef46d1be)" style="stroke: #000000; stroke-width: 2; stroke-linejoin: miter"/>
   </g>
  </g>
 </g>
 <defs>
  <clipPath id="p43ef46d1be">
   <rect x="7.2" y="7.2" width="194.31" height="139.661509"/>
  </clipPath>
 </defs>
</svg>
