<?xml version="1.0" encoding="utf-8" standalone="no"?>
<!DOCTYPE svg PUBLIC "-//W3C//DTD SVG 1.1//EN"
  "http://www.w3.org/Graphics/SVG/1.1/DTD/svg11.dtd">
<svg xmlns:xlink="http://www.w3.org/1999/xlink" width="208.71pt" height="141.821509pt" viewBox="0 0 208.71 141.821509" xmlns="http://www.w3.org/2000/svg" version="1.1">
 <metadata>
  <rdf:RDF xmlns:dc="http://purl.org/dc/elements/1.1/" xmlns:cc="http://creativecommons.org/ns#" xmlns:rdf="http://www.w3.org/1999/02/22-rdf-syntax-ns#">
   <cc:Work>
    <dc:type rdf:resource="http://purl.org/dc/dcmitype/StillImage"/>
    <dc:date>2023-03-23T14:45:53.456018</dc:date>
    <dc:format>image/svg+xml</dc:format>
    <dc:creator>
     <cc:Agent>
      <dc:title>Matplotlib v3.5.2, https://matplotlib.org/</dc:title>
     </cc:Agent>
    </dc:creator>
   </cc:Work>
  </rdf:RDF>
 </metadata>
 <defs>
  <style type="text/css">*{stroke-linejoin: round; stroke-linecap: butt}</style>
 </defs>
 <g id="figure_1">
  <g id="patch_1">
   <path d="M 0 141.821509 
L 208.71 141.821509 
L 208.71 0 
L 0 0 
L 0 141.821509 
z
" style="fill: none"/>
  </g>
  <g id="axes_1">
   <g id="patch_2">
    <path d="M 94.046465 56.12566 
C 94.924671 56.632692 95.969438 56.770239 96.948948 56.507779 
C 97.928459 56.24532 98.764481 55.603818 99.271513 54.725613 
C 99.778545 53.847408 99.916091 52.802641 99.653632 51.82313 
C 99.391173 50.84362 98.749671 50.007598 97.871465 49.500566 
" clip-path="url(#p7d81cc680e)" style="fill: none; stroke: #000000; stroke-width: 2; stroke-linejoin: miter"/>
   </g>
   <g id="patch_3">
    <path d="M 90.221465 62.750755 
C 91.099671 63.257787 92.144438 63.395333 93.123948 63.132874 
C 94.103459 62.870415 94.939481 62.228913 95.446513 61.350708 
C 95.953545 60.472502 96.091091 59.427735 95.828632 58.448225 
C 95.566173 57.468714 94.924671 56.632692 94.046465 56.12566 
" clip-path="url(#p7d81cc680e)" style="fill: none; stroke: #000000; stroke-width: 2; stroke-linejoin: miter"/>
   </g>
   <g id="patch_4">
    <path d="M 86.396465 69.375849 
C 87.274671 69.882881 88.319438 70.020427 89.298948 69.757968 
C 90.278459 69.495509 91.114481 68.854007 91.621513 67.975802 
C 92.128545 67.097597 92.266091 66.05283 92.003632 65.073319 
C 91.741173 64.093808 91.099671 63.257787 90.221465 62.750755 
" clip-path="url(#p7d81cc680e)" style="fill: none; stroke: #000000; stroke-width: 2; stroke-linejoin: miter"/>
   </g>
   <g id="patch_5">
    <path d="M 82.571465 76.000943 
C 83.449671 76.507975 84.494438 76.645522 85.473948 76.383063 
C 86.453459 76.120603 87.289481 75.479101 87.796513 74.600896 
C 88.303545 73.722691 88.441091 72.677924 88.178632 71.698413 
C 87.916173 70.718903 87.274671 69.882881 86.396465 69.375849 
" clip-path="url(#p7d81cc680e)" style="fill: none; stroke: #000000; stroke-width: 2; stroke-linejoin: miter"/>
   </g>
   <g id="patch_6">
    <path d="M 169.38 77.535849 
C 168.501795 78.042881 167.860293 78.878903 167.597834 79.858413 
C 167.335375 80.837924 167.472921 81.882691 167.979953 82.760896 
C 168.486985 83.639101 169.323007 84.280603 170.302517 84.543063 
C 171.282028 84.805522 172.326795 84.667975 173.205 84.160943 
" clip-path="url(#p7d81cc680e)" style="fill: none; stroke: #000000; stroke-width: 2; stroke-linejoin: miter"/>
   </g>
   <g id="patch_7">
    <path d="M 165.555 70.910755 
C 164.676795 71.417787 164.035293 72.253808 163.772834 73.233319 
C 163.510375 74.21283 163.647921 75.257597 164.154953 76.135802 
C 164.661985 77.014007 165.498007 77.655509 166.477517 77.917968 
C 167.457028 78.180427 168.501795 78.042881 169.38 77.535849 
" clip-path="url(#p7d81cc680e)" style="fill: none; stroke: #000000; stroke-width: 2; stroke-linejoin: miter"/>
   </g>
   <g id="patch_8">
    <path d="M 161.73 64.28566 
C 160.851795 64.792692 160.210293 65.628714 159.947834 66.608225 
C 159.685375 67.587735 159.822921 68.632502 160.329953 69.510708 
C 160.836985 70.388913 161.673007 71.030415 162.652517 71.292874 
C 163.632028 71.555333 164.676795 71.417787 165.555 70.910755 
" clip-path="url(#p7d81cc680e)" style="fill: none; stroke: #000000; stroke-width: 2; stroke-linejoin: miter"/>
   </g>
   <g id="patch_9">
    <path d="M 157.905 57.660566 
C 157.026795 58.167598 156.385293 59.00362 156.122834 59.98313 
C 155.860375 60.962641 155.997921 62.007408 156.504953 62.885613 
C 157.011985 63.763818 157.848007 64.40532 158.827517 64.667779 
C 159.807028 64.930239 160.851795 64.792692 161.73 64.28566 
" clip-path="url(#p7d81cc680e)" style="fill: none; stroke: #000000; stroke-width: 2; stroke-linejoin: miter"/>
   </g>
   <g id="line2d_1">
    <path d="M 12.555 17.91 
L 71.001 17.91 
M 71.001 10.26 
L 71.001 25.56 
M 76.509 10.26 
L 76.509 25.56 
M 76.509 17.91 
L 134.955 17.91 
" clip-path="url(#p7d81cc680e)" style="fill: none; stroke: #000000; stroke-width: 2; stroke-linecap: round"/>
   </g>
   <g id="line2d_2">
    <path d="M 12.555 17.91 
L 43.155 70.910755 
M 45.955094 60.46066 
L 40.354906 81.360849 
M 53.605094 73.710849 
L 32.704906 68.11066 
M 43.155 70.910755 
L 73.755 123.911509 
" clip-path="url(#p7d81cc680e)" style="fill: none; stroke: #000000; stroke-width: 2; stroke-linecap: round"/>
   </g>
   <g id="line2d_3">
    <path d="M 134.955 17.91 
L 119.655 44.410377 
" clip-path="url(#p7d81cc680e)" style="fill: none; stroke: #000000; stroke-width: 2; stroke-linecap: round"/>
   </g>
   <g id="line2d_4">
    <path d="M 73.755 123.911509 
L 89.055 97.411132 
" clip-path="url(#p7d81cc680e)" style="fill: none; stroke: #000000; stroke-width: 2; stroke-linecap: round"/>
   </g>
   <g id="line2d_5">
    <path d="M 133.788535 52.570377 
L 105.521465 36.250377 
" clip-path="url(#p7d81cc680e)" style="fill: none; stroke: #000000; stroke-width: 2; stroke-linecap: round"/>
   </g>
   <g id="line2d_6">
    <path d="M 103.188535 105.571132 
L 74.921465 89.251132 
" clip-path="url(#p7d81cc680e)" style="fill: none; stroke: #000000; stroke-width: 2; stroke-linecap: round"/>
   </g>
   <g id="line2d_7">
    <path d="M 119.655 44.410377 
L 105.732 68.525721 
M 112.357094 72.350721 
L 99.106906 64.700721 
M 109.603094 77.120789 
L 96.352906 69.470789 
M 102.978 73.295789 
L 89.055 97.411132 
" clip-path="url(#p7d81cc680e)" style="fill: none; stroke: #000000; stroke-width: 2; stroke-linecap: round"/>
   </g>
   <g id="line2d_8">
    <path d="M 133.788535 52.570377 
L 118.488535 79.070755 
M 128.938629 76.27066 
L 108.03844 81.870849 
M 121.288629 89.520849 
L 115.68844 68.62066 
M 118.488535 79.070755 
L 103.188535 105.571132 
" clip-path="url(#p7d81cc680e)" style="fill: none; stroke: #000000; stroke-width: 2; stroke-linecap: round"/>
   </g>
   <g id="line2d_9">
    <path d="M 105.521465 36.250377 
L 97.871465 49.500566 
M 82.571465 76.000943 
L 74.921465 89.251132 
" clip-path="url(#p7d81cc680e)" style="fill: none; stroke: #000000; stroke-width: 2; stroke-linecap: round"/>
   </g>
   <g id="line2d_10">
    <path d="M 196.155 123.911509 
L 173.205 84.160943 
M 157.905 57.660566 
L 134.955 17.91 
" clip-path="url(#p7d81cc680e)" style="fill: none; stroke: #000000; stroke-width: 2; stroke-linecap: round"/>
   </g>
   <g id="line2d_11">
    <path d="M 196.155 123.911509 
L 137.709 123.911509 
M 137.709 131.561509 
L 137.709 116.261509 
M 132.201 131.561509 
L 132.201 116.261509 
M 132.201 123.911509 
L 73.755 123.911509 
" clip-path="url(#p7d81cc680e)" style="fill: none; stroke: #000000; stroke-width: 2; stroke-linecap: round"/>
   </g>
   <g id="patch_10">
    <path d="M 12.555 20.205 
C 13.163641 20.205 13.747436 19.963184 14.17781 19.53281 
C 14.608184 19.102436 14.85 18.518641 14.85 17.91 
C 14.85 17.301359 14.608184 16.717564 14.17781 16.28719 
C 13.747436 15.856816 13.163641 15.615 12.555 15.615 
C 11.946359 15.615 11.362564 15.856816 10.93219 16.28719 
C 10.501816 16.717564 10.26 17.301359 10.26 17.91 
C 10.26 18.518641 10.501816 19.102436 10.93219 19.53281 
C 11.362564 19.963184 11.946359 20.205 12.555 20.205 
z
" clip-path="url(#p7d81cc680e)" style="stroke: #000000; stroke-width: 2; stroke-linejoin: miter"/>
   </g>
   <g id="patch_11">
    <path d="M 134.955 20.205 
C 135.563641 20.205 136.147436 19.963184 136.57781 19.53281 
C 137.008184 19.102436 137.25 18.518641 137.25 17.91 
C 137.25 17.301359 137.008184 16.717564 136.57781 16.28719 
C 136.147436 15.856816 135.563641 15.615 134.955 15.615 
C 134.346359 15.615 133.762564 15.856816 133.33219 16.28719 
C 132.901816 16.717564 132.66 17.301359 132.66 17.91 
C 132.66 18.518641 132.901816 19.102436 133.33219 19.53281 
C 133.762564 19.963184 134.346359 20.205 134.955 20.205 
z
" clip-path="url(#p7d81cc680e)" style="stroke: #000000; stroke-width: 2; stroke-linejoin: miter"/>
   </g>
   <g id="patch_12">
    <path d="M 73.755 126.206509 
C 74.363641 126.206509 74.947436 125.964694 75.37781 125.534319 
C 75.808184 125.103945 76.05 124.520151 76.05 123.911509 
C 76.05 123.302868 75.808184 122.719074 75.37781 122.288699 
C 74.947436 121.858325 74.363641 121.616509 73.755 121.616509 
C 73.146359 121.616509 72.562564 121.858325 72.13219 122.288699 
C 71.701816 122.719074 71.46 123.302868 71.46 123.911509 
C 71.46 124.520151 71.701816 125.103945 72.13219 125.534319 
C 72.562564 125.964694 73.146359 126.206509 73.755 126.206509 
z
" clip-path="url(#p7d81cc680e)" style="stroke: #000000; stroke-width: 2; stroke-linejoin: miter"/>
   </g>
   <g id="patch_13">
    <path d="M 196.155 126.206509 
C 196.763641 126.206509 197.347436 125.964694 197.77781 125.534319 
C 198.208184 125.103945 198.45 124.520151 198.45 123.911509 
C 198.45 123.302868 198.208184 122.719074 197.77781 122.288699 
C 197.347436 121.858325 196.763641 121.616509 196.155 121.616509 
C 195.546359 121.616509 194.962564 121.858325 194.53219 122.288699 
C 194.101816 122.719074 193.86 123.302868 193.86 123.911509 
C 193.86 124.520151 194.101816 125.103945 194.53219 125.534319 
C 194.962564 125.964694 195.546359 126.206509 196.155 126.206509 
z
" clip-path="url(#p7d81cc680e)" style="stroke: #000000; stroke-width: 2; stroke-linejoin: miter"/>
   </g>
  </g>
 </g>
 <defs>
  <clipPath id="p7d81cc680e">
   <rect x="7.2" y="7.2" width="194.31" height="127.421509"/>
  </clipPath>
 </defs>
</svg>
