<?xml version="1.0" encoding="utf-8" standalone="no"?>
<!DOCTYPE svg PUBLIC "-//W3C//DTD SVG 1.1//EN"
  "http://www.w3.org/Graphics/SVG/1.1/DTD/svg11.dtd">
<svg xmlns:xlink="http://www.w3.org/1999/xlink" width="208.71pt" height="166.301509pt" viewBox="0 0 208.71 166.301509" xmlns="http://www.w3.org/2000/svg" version="1.1">
 <metadata>
  <rdf:RDF xmlns:dc="http://purl.org/dc/elements/1.1/" xmlns:cc="http://creativecommons.org/ns#" xmlns:rdf="http://www.w3.org/1999/02/22-rdf-syntax-ns#">
   <cc:Work>
    <dc:type rdf:resource="http://purl.org/dc/dcmitype/StillImage"/>
    <dc:date>2023-03-23T14:52:04.831190</dc:date>
    <dc:format>image/svg+xml</dc:format>
    <dc:creator>
     <cc:Agent>
      <dc:title>Matplotlib v3.5.2, https://matplotlib.org/</dc:title>
     </cc:Agent>
    </dc:creator>
   </cc:Work>
  </rdf:RDF>
 </metadata>
 <defs>
  <style type="text/css">*{stroke-linejoin: round; stroke-linecap: butt}</style>
 </defs>
 <g id="figure_1">
  <g id="patch_1">
   <path d="M 0 166.301509 
L 208.71 166.301509 
L 208.71 0 
L 0 0 
L 0 166.301509 
z
" style="fill: none"/>
  </g>
  <g id="axes_1">
   <g id="patch_2">
    <path d="M 25.196465 84.68566 
C 26.074671 84.178628 26.716173 83.342607 26.978632 82.363096 
C 27.241091 81.383585 27.103545 80.338818 26.596513 79.460613 
C 26.089481 78.582408 25.253459 77.940906 24.273948 77.678447 
C 23.294438 77.415988 22.249671 77.553534 21.371465 78.060566 
" clip-path="url(#pf0794cad2e)" style="fill: none; stroke: #000000; stroke-width: 2; stroke-linejoin: miter"/>
   </g>
   <g id="patch_3">
    <path d="M 29.021465 91.310755 
C 29.899671 90.803723 30.541173 89.967701 30.803632 88.98819 
C 31.066091 88.00868 30.928545 86.963913 30.421513 86.085708 
C 29.914481 85.207502 29.078459 84.566 28.098948 84.303541 
C 27.119438 84.041082 26.074671 84.178628 25.196465 84.68566 
" clip-path="url(#pf0794cad2e)" style="fill: none; stroke: #000000; stroke-width: 2; stroke-linejoin: miter"/>
   </g>
   <g id="patch_4">
    <path d="M 32.846465 97.935849 
C 33.724671 97.428817 34.366173 96.592795 34.628632 95.613285 
C 34.891091 94.633774 34.753545 93.589007 34.246513 92.710802 
C 33.739481 91.832597 32.903459 91.191095 31.923948 90.928636 
C 30.944438 90.666177 29.899671 90.803723 29.021465 91.310755 
" clip-path="url(#pf0794cad2e)" style="fill: none; stroke: #000000; stroke-width: 2; stroke-linejoin: miter"/>
   </g>
   <g id="patch_5">
    <path d="M 36.671465 104.560943 
C 37.549671 104.053911 38.191173 103.21789 38.453632 102.238379 
C 38.716091 101.258868 38.578545 100.214101 38.071513 99.335896 
C 37.564481 98.457691 36.728459 97.816189 35.748948 97.55373 
C 34.769438 97.291271 33.724671 97.428817 32.846465 97.935849 
" clip-path="url(#pf0794cad2e)" style="fill: none; stroke: #000000; stroke-width: 2; stroke-linejoin: miter"/>
   </g>
   <g id="patch_6">
    <path d="M 108.18 76.52566 
C 109.058205 77.032692 110.102972 77.170239 111.082483 76.907779 
C 112.061993 76.64532 112.898015 76.003818 113.405047 75.125613 
C 113.912079 74.247408 114.049625 73.202641 113.787166 72.22313 
C 113.524707 71.24362 112.883205 70.407598 112.005 69.900566 
" clip-path="url(#pf0794cad2e)" style="fill: none; stroke: #000000; stroke-width: 2; stroke-linejoin: miter"/>
   </g>
   <g id="patch_7">
    <path d="M 104.355 83.150755 
C 105.233205 83.657787 106.277972 83.795333 107.257483 83.532874 
C 108.236993 83.270415 109.073015 82.628913 109.580047 81.750708 
C 110.087079 80.872502 110.224625 79.827735 109.962166 78.848225 
C 109.699707 77.868714 109.058205 77.032692 108.18 76.52566 
" clip-path="url(#pf0794cad2e)" style="fill: none; stroke: #000000; stroke-width: 2; stroke-linejoin: miter"/>
   </g>
   <g id="patch_8">
    <path d="M 100.53 89.775849 
C 101.408205 90.282881 102.452972 90.420427 103.432483 90.157968 
C 104.411993 89.895509 105.248015 89.254007 105.755047 88.375802 
C 106.262079 87.497597 106.399625 86.45283 106.137166 85.473319 
C 105.874707 84.493808 105.233205 83.657787 104.355 83.150755 
" clip-path="url(#pf0794cad2e)" style="fill: none; stroke: #000000; stroke-width: 2; stroke-linejoin: miter"/>
   </g>
   <g id="patch_9">
    <path d="M 96.705 96.400943 
C 97.583205 96.907975 98.627972 97.045522 99.607483 96.783063 
C 100.586993 96.520603 101.423015 95.879101 101.930047 95.000896 
C 102.437079 94.122691 102.574625 93.077924 102.312166 92.098413 
C 102.049707 91.118903 101.408205 90.282881 100.53 89.775849 
" clip-path="url(#pf0794cad2e)" style="fill: none; stroke: #000000; stroke-width: 2; stroke-linejoin: miter"/>
   </g>
   <g id="patch_10">
    <path d="M 183.513535 81.615849 
C 182.635329 82.122881 181.993827 82.958903 181.731368 83.938413 
C 181.468909 84.917924 181.606455 85.962691 182.113487 86.840896 
C 182.620519 87.719101 183.456541 88.360603 184.436052 88.623063 
C 185.415562 88.885522 186.460329 88.747975 187.338535 88.240943 
" clip-path="url(#pf0794cad2e)" style="fill: none; stroke: #000000; stroke-width: 2; stroke-linejoin: miter"/>
   </g>
   <g id="patch_11">
    <path d="M 179.688535 74.990755 
C 178.810329 75.497787 178.168827 76.333808 177.906368 77.313319 
C 177.643909 78.29283 177.781455 79.337597 178.288487 80.215802 
C 178.795519 81.094007 179.631541 81.735509 180.611052 81.997968 
C 181.590562 82.260427 182.635329 82.122881 183.513535 81.615849 
" clip-path="url(#pf0794cad2e)" style="fill: none; stroke: #000000; stroke-width: 2; stroke-linejoin: miter"/>
   </g>
   <g id="patch_12">
    <path d="M 175.863535 68.36566 
C 174.985329 68.872692 174.343827 69.708714 174.081368 70.688225 
C 173.818909 71.667735 173.956455 72.712502 174.463487 73.590708 
C 174.970519 74.468913 175.806541 75.110415 176.786052 75.372874 
C 177.765562 75.635333 178.810329 75.497787 179.688535 74.990755 
" clip-path="url(#pf0794cad2e)" style="fill: none; stroke: #000000; stroke-width: 2; stroke-linejoin: miter"/>
   </g>
   <g id="patch_13">
    <path d="M 172.038535 61.740566 
C 171.160329 62.247598 170.518827 63.08362 170.256368 64.06313 
C 169.993909 65.042641 170.131455 66.087408 170.638487 66.965613 
C 171.145519 67.843818 171.981541 68.48532 172.961052 68.747779 
C 173.940562 69.010239 174.985329 68.872692 175.863535 68.36566 
" clip-path="url(#pf0794cad2e)" style="fill: none; stroke: #000000; stroke-width: 2; stroke-linejoin: miter"/>
   </g>
   <g id="patch_14">
    <path d="M 142.605 123.911509 
C 142.605 124.925573 143.008265 125.899141 143.725317 126.616193 
C 144.442368 127.333244 145.415936 127.736509 146.43 127.736509 
C 147.444064 127.736509 148.417632 127.333244 149.134683 126.616193 
C 149.851735 125.899141 150.255 124.925573 150.255 123.911509 
" clip-path="url(#pf0794cad2e)" style="fill: none; stroke: #000000; stroke-width: 2; stroke-linejoin: miter"/>
   </g>
   <g id="patch_15">
    <path d="M 134.955 123.911509 
C 134.955 124.925573 135.358265 125.899141 136.075317 126.616193 
C 136.792368 127.333244 137.765936 127.736509 138.78 127.736509 
C 139.794064 127.736509 140.767632 127.333244 141.484683 126.616193 
C 142.201735 125.899141 142.605 124.925573 142.605 123.911509 
" clip-path="url(#pf0794cad2e)" style="fill: none; stroke: #000000; stroke-width: 2; stroke-linejoin: miter"/>
   </g>
   <g id="patch_16">
    <path d="M 127.305 123.911509 
C 127.305 124.925573 127.708265 125.899141 128.425317 126.616193 
C 129.142368 127.333244 130.115936 127.736509 131.13 127.736509 
C 132.144064 127.736509 133.117632 127.333244 133.834683 126.616193 
C 134.551735 125.899141 134.955 124.925573 134.955 123.911509 
" clip-path="url(#pf0794cad2e)" style="fill: none; stroke: #000000; stroke-width: 2; stroke-linejoin: miter"/>
   </g>
   <g id="patch_17">
    <path d="M 119.655 123.911509 
C 119.655 124.925573 120.058265 125.899141 120.775317 126.616193 
C 121.492368 127.333244 122.465936 127.736509 123.48 127.736509 
C 124.494064 127.736509 125.467632 127.333244 126.184683 126.616193 
C 126.901735 125.899141 127.305 124.925573 127.305 123.911509 
" clip-path="url(#pf0794cad2e)" style="fill: none; stroke: #000000; stroke-width: 2; stroke-linejoin: miter"/>
   </g>
   <g id="line2d_1">
    <path d="M 12.555 30.15 
L 43.155 30.15 
" clip-path="url(#pf0794cad2e)" style="fill: none; stroke: #000000; stroke-width: 2; stroke-linecap: round"/>
   </g>
   <g id="line2d_2">
    <path d="M 134.955 30.15 
L 104.355 30.15 
" clip-path="url(#pf0794cad2e)" style="fill: none; stroke: #000000; stroke-width: 2; stroke-linecap: round"/>
   </g>
   <g id="line2d_3">
    <path d="M 43.155 17.91 
L 43.155 42.39 
" clip-path="url(#pf0794cad2e)" style="fill: none; stroke: #000000; stroke-width: 2; stroke-linecap: round"/>
   </g>
   <g id="line2d_4">
    <path d="M 104.355 17.91 
L 104.355 42.39 
" clip-path="url(#pf0794cad2e)" style="fill: none; stroke: #000000; stroke-width: 2; stroke-linecap: round"/>
   </g>
   <g id="line2d_5">
    <path d="M 43.155 17.91 
L 71.001 17.91 
M 71.001 10.26 
L 71.001 25.56 
M 76.509 10.26 
L 76.509 25.56 
M 76.509 17.91 
L 104.355 17.91 
" clip-path="url(#pf0794cad2e)" style="fill: none; stroke: #000000; stroke-width: 2; stroke-linecap: round"/>
   </g>
   <g id="line2d_6">
    <path d="M 43.155 42.39 
L 73.755 42.39 
M 66.105 34.74 
L 81.405 50.04 
M 81.405 34.74 
L 66.105 50.04 
M 73.755 42.39 
L 104.355 42.39 
" clip-path="url(#pf0794cad2e)" style="fill: none; stroke: #000000; stroke-width: 2; stroke-linecap: round"/>
   </g>
   <g id="line2d_7">
    <path d="M 12.555 30.15 
L 27.855 56.650377 
" clip-path="url(#pf0794cad2e)" style="fill: none; stroke: #000000; stroke-width: 2; stroke-linecap: round"/>
   </g>
   <g id="line2d_8">
    <path d="M 73.755 136.151509 
L 58.455 109.651132 
" clip-path="url(#pf0794cad2e)" style="fill: none; stroke: #000000; stroke-width: 2; stroke-linecap: round"/>
   </g>
   <g id="line2d_9">
    <path d="M 41.988535 48.490377 
L 13.721465 64.810377 
" clip-path="url(#pf0794cad2e)" style="fill: none; stroke: #000000; stroke-width: 2; stroke-linecap: round"/>
   </g>
   <g id="line2d_10">
    <path d="M 72.588535 101.491132 
L 44.321465 117.811132 
" clip-path="url(#pf0794cad2e)" style="fill: none; stroke: #000000; stroke-width: 2; stroke-linecap: round"/>
   </g>
   <g id="line2d_11">
    <path d="M 27.855 56.650377 
L 41.778 80.765721 
M 48.403094 76.940721 
L 35.152906 84.590721 
M 51.157094 81.710789 
L 37.906906 89.360789 
M 44.532 85.535789 
L 58.455 109.651132 
" clip-path="url(#pf0794cad2e)" style="fill: none; stroke: #000000; stroke-width: 2; stroke-linecap: round"/>
   </g>
   <g id="line2d_12">
    <path d="M 41.988535 48.490377 
L 57.288535 74.990755 
M 60.088629 64.54066 
L 54.48844 85.440849 
M 67.738629 77.790849 
L 46.83844 72.19066 
M 57.288535 74.990755 
L 72.588535 101.491132 
" clip-path="url(#pf0794cad2e)" style="fill: none; stroke: #000000; stroke-width: 2; stroke-linecap: round"/>
   </g>
   <g id="line2d_13">
    <path d="M 13.721465 64.810377 
L 21.371465 78.060566 
M 36.671465 104.560943 
L 44.321465 117.811132 
" clip-path="url(#pf0794cad2e)" style="fill: none; stroke: #000000; stroke-width: 2; stroke-linecap: round"/>
   </g>
   <g id="line2d_14">
    <path d="M 134.955 30.15 
L 112.005 69.900566 
M 96.705 96.400943 
L 73.755 136.151509 
" clip-path="url(#pf0794cad2e)" style="fill: none; stroke: #000000; stroke-width: 2; stroke-linecap: round"/>
   </g>
   <g id="line2d_15">
    <path d="M 196.155 136.151509 
L 180.855 109.651132 
" clip-path="url(#pf0794cad2e)" style="fill: none; stroke: #000000; stroke-width: 2; stroke-linecap: round"/>
   </g>
   <g id="line2d_16">
    <path d="M 134.955 30.15 
L 150.255 56.650377 
" clip-path="url(#pf0794cad2e)" style="fill: none; stroke: #000000; stroke-width: 2; stroke-linecap: round"/>
   </g>
   <g id="line2d_17">
    <path d="M 166.721465 117.811132 
L 194.988535 101.491132 
" clip-path="url(#pf0794cad2e)" style="fill: none; stroke: #000000; stroke-width: 2; stroke-linecap: round"/>
   </g>
   <g id="line2d_18">
    <path d="M 136.121465 64.810377 
L 164.388535 48.490377 
" clip-path="url(#pf0794cad2e)" style="fill: none; stroke: #000000; stroke-width: 2; stroke-linecap: round"/>
   </g>
   <g id="line2d_19">
    <path d="M 180.855 109.651132 
L 166.932 85.535789 
M 160.306906 89.360789 
L 173.557094 81.710789 
M 157.552906 84.590721 
L 170.803094 76.940721 
M 164.178 80.765721 
L 150.255 56.650377 
" clip-path="url(#pf0794cad2e)" style="fill: none; stroke: #000000; stroke-width: 2; stroke-linecap: round"/>
   </g>
   <g id="line2d_20">
    <path d="M 166.721465 117.811132 
L 151.421465 91.310755 
M 148.621371 101.760849 
L 154.22156 80.86066 
M 140.971371 88.51066 
L 161.87156 94.110849 
M 151.421465 91.310755 
L 136.121465 64.810377 
" clip-path="url(#pf0794cad2e)" style="fill: none; stroke: #000000; stroke-width: 2; stroke-linecap: round"/>
   </g>
   <g id="line2d_21">
    <path d="M 194.988535 101.491132 
L 187.338535 88.240943 
M 172.038535 61.740566 
L 164.388535 48.490377 
" clip-path="url(#pf0794cad2e)" style="fill: none; stroke: #000000; stroke-width: 2; stroke-linecap: round"/>
   </g>
   <g id="line2d_22">
    <path d="M 196.155 136.151509 
L 165.555 136.151509 
" clip-path="url(#pf0794cad2e)" style="fill: none; stroke: #000000; stroke-width: 2; stroke-linecap: round"/>
   </g>
   <g id="line2d_23">
    <path d="M 73.755 136.151509 
L 104.355 136.151509 
" clip-path="url(#pf0794cad2e)" style="fill: none; stroke: #000000; stroke-width: 2; stroke-linecap: round"/>
   </g>
   <g id="line2d_24">
    <path d="M 165.555 148.391509 
L 165.555 123.911509 
" clip-path="url(#pf0794cad2e)" style="fill: none; stroke: #000000; stroke-width: 2; stroke-linecap: round"/>
   </g>
   <g id="line2d_25">
    <path d="M 104.355 148.391509 
L 104.355 123.911509 
" clip-path="url(#pf0794cad2e)" style="fill: none; stroke: #000000; stroke-width: 2; stroke-linecap: round"/>
   </g>
   <g id="line2d_26">
    <path d="M 165.555 148.391509 
L 134.955 148.391509 
M 142.605 156.041509 
L 127.305 140.741509 
M 127.305 156.041509 
L 142.605 140.741509 
M 134.955 148.391509 
L 104.355 148.391509 
" clip-path="url(#pf0794cad2e)" style="fill: none; stroke: #000000; stroke-width: 2; stroke-linecap: round"/>
   </g>
   <g id="line2d_27">
    <path d="M 165.555 123.911509 
L 150.255 123.911509 
M 119.655 123.911509 
L 104.355 123.911509 
" clip-path="url(#pf0794cad2e)" style="fill: none; stroke: #000000; stroke-width: 2; stroke-linecap: round"/>
   </g>
   <g id="patch_18">
    <path d="M 12.555 32.445 
C 13.163641 32.445 13.747436 32.203184 14.17781 31.77281 
C 14.608184 31.342436 14.85 30.758641 14.85 30.15 
C 14.85 29.541359 14.608184 28.957564 14.17781 28.52719 
C 13.747436 28.096816 13.163641 27.855 12.555 27.855 
C 11.946359 27.855 11.362564 28.096816 10.93219 28.52719 
C 10.501816 28.957564 10.26 29.541359 10.26 30.15 
C 10.26 30.758641 10.501816 31.342436 10.93219 31.77281 
C 11.362564 32.203184 11.946359 32.445 12.555 32.445 
z
" clip-path="url(#pf0794cad2e)" style="stroke: #000000; stroke-width: 2; stroke-linejoin: miter"/>
   </g>
   <g id="patch_19">
    <path d="M 134.955 32.445 
C 135.563641 32.445 136.147436 32.203184 136.57781 31.77281 
C 137.008184 31.342436 137.25 30.758641 137.25 30.15 
C 137.25 29.541359 137.008184 28.957564 136.57781 28.52719 
C 136.147436 28.096816 135.563641 27.855 134.955 27.855 
C 134.346359 27.855 133.762564 28.096816 133.33219 28.52719 
C 132.901816 28.957564 132.66 29.541359 132.66 30.15 
C 132.66 30.758641 132.901816 31.342436 133.33219 31.77281 
C 133.762564 32.203184 134.346359 32.445 134.955 32.445 
z
" clip-path="url(#pf0794cad2e)" style="stroke: #000000; stroke-width: 2; stroke-linejoin: miter"/>
   </g>
   <g id="patch_20">
    <path d="M 73.755 138.446509 
C 74.363641 138.446509 74.947436 138.204694 75.37781 137.774319 
C 75.808184 137.343945 76.05 136.760151 76.05 136.151509 
C 76.05 135.542868 75.808184 134.959074 75.37781 134.528699 
C 74.947436 134.098325 74.363641 133.856509 73.755 133.856509 
C 73.146359 133.856509 72.562564 134.098325 72.13219 134.528699 
C 71.701816 134.959074 71.46 135.542868 71.46 136.151509 
C 71.46 136.760151 71.701816 137.343945 72.13219 137.774319 
C 72.562564 138.204694 73.146359 138.446509 73.755 138.446509 
z
" clip-path="url(#pf0794cad2e)" style="stroke: #000000; stroke-width: 2; stroke-linejoin: miter"/>
   </g>
   <g id="patch_21">
    <path d="M 196.155 138.446509 
C 196.763641 138.446509 197.347436 138.204694 197.77781 137.774319 
C 198.208184 137.343945 198.45 136.760151 198.45 136.151509 
C 198.45 135.542868 198.208184 134.959074 197.77781 134.528699 
C 197.347436 134.098325 196.763641 133.856509 196.155 133.856509 
C 195.546359 133.856509 194.962564 134.098325 194.53219 134.528699 
C 194.101816 134.959074 193.86 135.542868 193.86 136.151509 
C 193.86 136.760151 194.101816 137.343945 194.53219 137.774319 
C 194.962564 138.204694 195.546359 138.446509 196.155 138.446509 
z
" clip-path="url(#pf0794cad2e)" style="stroke: #000000; stroke-width: 2; stroke-linejoin: miter"/>
   </g>
  </g>
 </g>
 <defs>
  <clipPath id="pf0794cad2e">
   <rect x="7.2" y="7.2" width="194.31" height="151.901509"/>
  </clipPath>
 </defs>
</svg>
