<?xml version="1.0" encoding="utf-8" standalone="no"?>
<!DOCTYPE svg PUBLIC "-//W3C//DTD SVG 1.1//EN"
  "http://www.w3.org/Graphics/SVG/1.1/DTD/svg11.dtd">
<svg xmlns:xlink="http://www.w3.org/1999/xlink" width="208.71pt" height="170.381509pt" viewBox="0 0 208.71 170.381509" xmlns="http://www.w3.org/2000/svg" version="1.1">
 <metadata>
  <rdf:RDF xmlns:dc="http://purl.org/dc/elements/1.1/" xmlns:cc="http://creativecommons.org/ns#" xmlns:rdf="http://www.w3.org/1999/02/22-rdf-syntax-ns#">
   <cc:Work>
    <dc:type rdf:resource="http://purl.org/dc/dcmitype/StillImage"/>
    <dc:date>2023-03-23T14:52:57.555366</dc:date>
    <dc:format>image/svg+xml</dc:format>
    <dc:creator>
     <cc:Agent>
      <dc:title>Matplotlib v3.5.2, https://matplotlib.org/</dc:title>
     </cc:Agent>
    </dc:creator>
   </cc:Work>
  </rdf:RDF>
 </metadata>
 <defs>
  <style type="text/css">*{stroke-linejoin: round; stroke-linecap: butt}</style>
 </defs>
 <g id="figure_1">
  <g id="patch_1">
   <path d="M 0 170.381509 
L 208.71 170.381509 
L 208.71 0 
L 0 0 
L 0 170.381509 
z
" style="fill: none"/>
  </g>
  <g id="axes_1">
   <g id="patch_2">
    <path d="M 94.046465 68.36566 
C 94.924671 68.872692 95.969438 69.010239 96.948948 68.747779 
C 97.928459 68.48532 98.764481 67.843818 99.271513 66.965613 
C 99.778545 66.087408 99.916091 65.042641 99.653632 64.06313 
C 99.391173 63.08362 98.749671 62.247598 97.871465 61.740566 
" clip-path="url(#p067ea45c84)" style="fill: none; stroke: #000000; stroke-width: 2; stroke-linejoin: miter"/>
   </g>
   <g id="patch_3">
    <path d="M 90.221465 74.990755 
C 91.099671 75.497787 92.144438 75.635333 93.123948 75.372874 
C 94.103459 75.110415 94.939481 74.468913 95.446513 73.590708 
C 95.953545 72.712502 96.091091 71.667735 95.828632 70.688225 
C 95.566173 69.708714 94.924671 68.872692 94.046465 68.36566 
" clip-path="url(#p067ea45c84)" style="fill: none; stroke: #000000; stroke-width: 2; stroke-linejoin: miter"/>
   </g>
   <g id="patch_4">
    <path d="M 86.396465 81.615849 
C 87.274671 82.122881 88.319438 82.260427 89.298948 81.997968 
C 90.278459 81.735509 91.114481 81.094007 91.621513 80.215802 
C 92.128545 79.337597 92.266091 78.29283 92.003632 77.313319 
C 91.741173 76.333808 91.099671 75.497787 90.221465 74.990755 
" clip-path="url(#p067ea45c84)" style="fill: none; stroke: #000000; stroke-width: 2; stroke-linejoin: miter"/>
   </g>
   <g id="patch_5">
    <path d="M 82.571465 88.240943 
C 83.449671 88.747975 84.494438 88.885522 85.473948 88.623063 
C 86.453459 88.360603 87.289481 87.719101 87.796513 86.840896 
C 88.303545 85.962691 88.441091 84.917924 88.178632 83.938413 
C 87.916173 82.958903 87.274671 82.122881 86.396465 81.615849 
" clip-path="url(#p067ea45c84)" style="fill: none; stroke: #000000; stroke-width: 2; stroke-linejoin: miter"/>
   </g>
   <g id="patch_6">
    <path d="M 183.513535 81.615849 
C 182.635329 82.122881 181.993827 82.958903 181.731368 83.938413 
C 181.468909 84.917924 181.606455 85.962691 182.113487 86.840896 
C 182.620519 87.719101 183.456541 88.360603 184.436052 88.623063 
C 185.415562 88.885522 186.460329 88.747975 187.338535 88.240943 
" clip-path="url(#p067ea45c84)" style="fill: none; stroke: #000000; stroke-width: 2; stroke-linejoin: miter"/>
   </g>
   <g id="patch_7">
    <path d="M 179.688535 74.990755 
C 178.810329 75.497787 178.168827 76.333808 177.906368 77.313319 
C 177.643909 78.29283 177.781455 79.337597 178.288487 80.215802 
C 178.795519 81.094007 179.631541 81.735509 180.611052 81.997968 
C 181.590562 82.260427 182.635329 82.122881 183.513535 81.615849 
" clip-path="url(#p067ea45c84)" style="fill: none; stroke: #000000; stroke-width: 2; stroke-linejoin: miter"/>
   </g>
   <g id="patch_8">
    <path d="M 175.863535 68.36566 
C 174.985329 68.872692 174.343827 69.708714 174.081368 70.688225 
C 173.818909 71.667735 173.956455 72.712502 174.463487 73.590708 
C 174.970519 74.468913 175.806541 75.110415 176.786052 75.372874 
C 177.765562 75.635333 178.810329 75.497787 179.688535 74.990755 
" clip-path="url(#p067ea45c84)" style="fill: none; stroke: #000000; stroke-width: 2; stroke-linejoin: miter"/>
   </g>
   <g id="patch_9">
    <path d="M 172.038535 61.740566 
C 171.160329 62.247598 170.518827 63.08362 170.256368 64.06313 
C 169.993909 65.042641 170.131455 66.087408 170.638487 66.965613 
C 171.145519 67.843818 171.981541 68.48532 172.961052 68.747779 
C 173.940562 69.010239 174.985329 68.872692 175.863535 68.36566 
" clip-path="url(#p067ea45c84)" style="fill: none; stroke: #000000; stroke-width: 2; stroke-linejoin: miter"/>
   </g>
   <g id="patch_10">
    <path d="M 142.605 119.831509 
C 142.605 120.845573 143.008265 121.819141 143.725317 122.536193 
C 144.442368 123.253244 145.415936 123.656509 146.43 123.656509 
C 147.444064 123.656509 148.417632 123.253244 149.134683 122.536193 
C 149.851735 121.819141 150.255 120.845573 150.255 119.831509 
" clip-path="url(#p067ea45c84)" style="fill: none; stroke: #000000; stroke-width: 2; stroke-linejoin: miter"/>
   </g>
   <g id="patch_11">
    <path d="M 134.955 119.831509 
C 134.955 120.845573 135.358265 121.819141 136.075317 122.536193 
C 136.792368 123.253244 137.765936 123.656509 138.78 123.656509 
C 139.794064 123.656509 140.767632 123.253244 141.484683 122.536193 
C 142.201735 121.819141 142.605 120.845573 142.605 119.831509 
" clip-path="url(#p067ea45c84)" style="fill: none; stroke: #000000; stroke-width: 2; stroke-linejoin: miter"/>
   </g>
   <g id="patch_12">
    <path d="M 127.305 119.831509 
C 127.305 120.845573 127.708265 121.819141 128.425317 122.536193 
C 129.142368 123.253244 130.115936 123.656509 131.13 123.656509 
C 132.144064 123.656509 133.117632 123.253244 133.834683 122.536193 
C 134.551735 121.819141 134.955 120.845573 134.955 119.831509 
" clip-path="url(#p067ea45c84)" style="fill: none; stroke: #000000; stroke-width: 2; stroke-linejoin: miter"/>
   </g>
   <g id="patch_13">
    <path d="M 119.655 119.831509 
C 119.655 120.845573 120.058265 121.819141 120.775317 122.536193 
C 121.492368 123.253244 122.465936 123.656509 123.48 123.656509 
C 124.494064 123.656509 125.467632 123.253244 126.184683 122.536193 
C 126.901735 121.819141 127.305 120.845573 127.305 119.831509 
" clip-path="url(#p067ea45c84)" style="fill: none; stroke: #000000; stroke-width: 2; stroke-linejoin: miter"/>
   </g>
   <g id="line2d_1">
    <path d="M 12.555 30.15 
L 43.155 30.15 
" clip-path="url(#p067ea45c84)" style="fill: none; stroke: #000000; stroke-width: 2; stroke-linecap: round"/>
   </g>
   <g id="line2d_2">
    <path d="M 134.955 30.15 
L 104.355 30.15 
" clip-path="url(#p067ea45c84)" style="fill: none; stroke: #000000; stroke-width: 2; stroke-linecap: round"/>
   </g>
   <g id="line2d_3">
    <path d="M 43.155 17.91 
L 43.155 42.39 
" clip-path="url(#p067ea45c84)" style="fill: none; stroke: #000000; stroke-width: 2; stroke-linecap: round"/>
   </g>
   <g id="line2d_4">
    <path d="M 104.355 17.91 
L 104.355 42.39 
" clip-path="url(#p067ea45c84)" style="fill: none; stroke: #000000; stroke-width: 2; stroke-linecap: round"/>
   </g>
   <g id="line2d_5">
    <path d="M 43.155 17.91 
L 71.001 17.91 
M 71.001 10.26 
L 71.001 25.56 
M 76.509 10.26 
L 76.509 25.56 
M 76.509 17.91 
L 104.355 17.91 
" clip-path="url(#p067ea45c84)" style="fill: none; stroke: #000000; stroke-width: 2; stroke-linecap: round"/>
   </g>
   <g id="line2d_6">
    <path d="M 43.155 42.39 
L 73.755 42.39 
M 66.105 34.74 
L 81.405 50.04 
M 81.405 34.74 
L 66.105 50.04 
M 73.755 42.39 
L 104.355 42.39 
" clip-path="url(#p067ea45c84)" style="fill: none; stroke: #000000; stroke-width: 2; stroke-linecap: round"/>
   </g>
   <g id="line2d_7">
    <path d="M 12.555 30.15 
L 27.855 56.650377 
" clip-path="url(#p067ea45c84)" style="fill: none; stroke: #000000; stroke-width: 2; stroke-linecap: round"/>
   </g>
   <g id="line2d_8">
    <path d="M 73.755 136.151509 
L 58.455 109.651132 
" clip-path="url(#p067ea45c84)" style="fill: none; stroke: #000000; stroke-width: 2; stroke-linecap: round"/>
   </g>
   <g id="line2d_9">
    <path d="M 38.455151 50.530377 
L 17.254849 62.770377 
" clip-path="url(#p067ea45c84)" style="fill: none; stroke: #000000; stroke-width: 2; stroke-linecap: round"/>
   </g>
   <g id="line2d_10">
    <path d="M 69.055151 103.531132 
L 47.854849 115.771132 
" clip-path="url(#p067ea45c84)" style="fill: none; stroke: #000000; stroke-width: 2; stroke-linecap: round"/>
   </g>
   <g id="line2d_11">
    <path d="M 38.455151 50.530377 
L 52.378151 74.645721 
M 59.003245 70.820721 
L 45.753057 78.470721 
M 61.757245 75.590789 
L 48.507057 83.240789 
M 55.132151 79.415789 
L 69.055151 103.531132 
" clip-path="url(#p067ea45c84)" style="fill: none; stroke: #000000; stroke-width: 2; stroke-linecap: round"/>
   </g>
   <g id="line2d_12">
    <path d="M 17.254849 62.770377 
L 32.554849 89.270755 
M 35.354943 78.82066 
L 29.754755 99.720849 
M 43.004943 92.070849 
L 22.104755 86.47066 
M 32.554849 89.270755 
L 47.854849 115.771132 
" clip-path="url(#p067ea45c84)" style="fill: none; stroke: #000000; stroke-width: 2; stroke-linecap: round"/>
   </g>
   <g id="line2d_13">
    <path d="M 134.955 30.15 
L 119.655 56.650377 
" clip-path="url(#p067ea45c84)" style="fill: none; stroke: #000000; stroke-width: 2; stroke-linecap: round"/>
   </g>
   <g id="line2d_14">
    <path d="M 73.755 136.151509 
L 89.055 109.651132 
" clip-path="url(#p067ea45c84)" style="fill: none; stroke: #000000; stroke-width: 2; stroke-linecap: round"/>
   </g>
   <g id="line2d_15">
    <path d="M 133.788535 64.810377 
L 105.521465 48.490377 
" clip-path="url(#p067ea45c84)" style="fill: none; stroke: #000000; stroke-width: 2; stroke-linecap: round"/>
   </g>
   <g id="line2d_16">
    <path d="M 103.188535 117.811132 
L 74.921465 101.491132 
" clip-path="url(#p067ea45c84)" style="fill: none; stroke: #000000; stroke-width: 2; stroke-linecap: round"/>
   </g>
   <g id="line2d_17">
    <path d="M 119.655 56.650377 
L 105.732 80.765721 
M 112.357094 84.590721 
L 99.106906 76.940721 
M 109.603094 89.360789 
L 96.352906 81.710789 
M 102.978 85.535789 
L 89.055 109.651132 
" clip-path="url(#p067ea45c84)" style="fill: none; stroke: #000000; stroke-width: 2; stroke-linecap: round"/>
   </g>
   <g id="line2d_18">
    <path d="M 133.788535 64.810377 
L 118.488535 91.310755 
M 128.938629 88.51066 
L 108.03844 94.110849 
M 121.288629 101.760849 
L 115.68844 80.86066 
M 118.488535 91.310755 
L 103.188535 117.811132 
" clip-path="url(#p067ea45c84)" style="fill: none; stroke: #000000; stroke-width: 2; stroke-linecap: round"/>
   </g>
   <g id="line2d_19">
    <path d="M 105.521465 48.490377 
L 97.871465 61.740566 
M 82.571465 88.240943 
L 74.921465 101.491132 
" clip-path="url(#p067ea45c84)" style="fill: none; stroke: #000000; stroke-width: 2; stroke-linecap: round"/>
   </g>
   <g id="line2d_20">
    <path d="M 196.155 136.151509 
L 180.855 109.651132 
" clip-path="url(#p067ea45c84)" style="fill: none; stroke: #000000; stroke-width: 2; stroke-linecap: round"/>
   </g>
   <g id="line2d_21">
    <path d="M 134.955 30.15 
L 150.255 56.650377 
" clip-path="url(#p067ea45c84)" style="fill: none; stroke: #000000; stroke-width: 2; stroke-linecap: round"/>
   </g>
   <g id="line2d_22">
    <path d="M 166.721465 117.811132 
L 194.988535 101.491132 
" clip-path="url(#p067ea45c84)" style="fill: none; stroke: #000000; stroke-width: 2; stroke-linecap: round"/>
   </g>
   <g id="line2d_23">
    <path d="M 136.121465 64.810377 
L 164.388535 48.490377 
" clip-path="url(#p067ea45c84)" style="fill: none; stroke: #000000; stroke-width: 2; stroke-linecap: round"/>
   </g>
   <g id="line2d_24">
    <path d="M 180.855 109.651132 
L 166.932 85.535789 
M 160.306906 89.360789 
L 173.557094 81.710789 
M 157.552906 84.590721 
L 170.803094 76.940721 
M 164.178 80.765721 
L 150.255 56.650377 
" clip-path="url(#p067ea45c84)" style="fill: none; stroke: #000000; stroke-width: 2; stroke-linecap: round"/>
   </g>
   <g id="line2d_25">
    <path d="M 166.721465 117.811132 
L 151.421465 91.310755 
M 148.621371 101.760849 
L 154.22156 80.86066 
M 140.971371 88.51066 
L 161.87156 94.110849 
M 151.421465 91.310755 
L 136.121465 64.810377 
" clip-path="url(#p067ea45c84)" style="fill: none; stroke: #000000; stroke-width: 2; stroke-linecap: round"/>
   </g>
   <g id="line2d_26">
    <path d="M 194.988535 101.491132 
L 187.338535 88.240943 
M 172.038535 61.740566 
L 164.388535 48.490377 
" clip-path="url(#p067ea45c84)" style="fill: none; stroke: #000000; stroke-width: 2; stroke-linecap: round"/>
   </g>
   <g id="line2d_27">
    <path d="M 196.155 136.151509 
L 165.555 136.151509 
" clip-path="url(#p067ea45c84)" style="fill: none; stroke: #000000; stroke-width: 2; stroke-linecap: round"/>
   </g>
   <g id="line2d_28">
    <path d="M 73.755 136.151509 
L 104.355 136.151509 
" clip-path="url(#p067ea45c84)" style="fill: none; stroke: #000000; stroke-width: 2; stroke-linecap: round"/>
   </g>
   <g id="line2d_29">
    <path d="M 165.555 152.471509 
L 165.555 119.831509 
" clip-path="url(#p067ea45c84)" style="fill: none; stroke: #000000; stroke-width: 2; stroke-linecap: round"/>
   </g>
   <g id="line2d_30">
    <path d="M 104.355 152.471509 
L 104.355 119.831509 
" clip-path="url(#p067ea45c84)" style="fill: none; stroke: #000000; stroke-width: 2; stroke-linecap: round"/>
   </g>
   <g id="line2d_31">
    <path d="M 165.555 136.151509 
L 137.709 136.151509 
M 137.709 143.801509 
L 137.709 128.501509 
M 132.201 143.801509 
L 132.201 128.501509 
M 132.201 136.151509 
L 104.355 136.151509 
" clip-path="url(#p067ea45c84)" style="fill: none; stroke: #000000; stroke-width: 2; stroke-linecap: round"/>
   </g>
   <g id="line2d_32">
    <path d="M 165.555 152.471509 
L 134.955 152.471509 
M 142.605 160.121509 
L 127.305 144.821509 
M 127.305 160.121509 
L 142.605 144.821509 
M 134.955 152.471509 
L 104.355 152.471509 
" clip-path="url(#p067ea45c84)" style="fill: none; stroke: #000000; stroke-width: 2; stroke-linecap: round"/>
   </g>
   <g id="line2d_33">
    <path d="M 165.555 119.831509 
L 150.255 119.831509 
M 119.655 119.831509 
L 104.355 119.831509 
" clip-path="url(#p067ea45c84)" style="fill: none; stroke: #000000; stroke-width: 2; stroke-linecap: round"/>
   </g>
   <g id="patch_14">
    <path d="M 12.555 32.445 
C 13.163641 32.445 13.747436 32.203184 14.17781 31.77281 
C 14.608184 31.342436 14.85 30.758641 14.85 30.15 
C 14.85 29.541359 14.608184 28.957564 14.17781 28.52719 
C 13.747436 28.096816 13.163641 27.855 12.555 27.855 
C 11.946359 27.855 11.362564 28.096816 10.93219 28.52719 
C 10.501816 28.957564 10.26 29.541359 10.26 30.15 
C 10.26 30.758641 10.501816 31.342436 10.93219 31.77281 
C 11.362564 32.203184 11.946359 32.445 12.555 32.445 
z
" clip-path="url(#p067ea45c84)" style="stroke: #000000; stroke-width: 2; stroke-linejoin: miter"/>
   </g>
   <g id="patch_15">
    <path d="M 134.955 32.445 
C 135.563641 32.445 136.147436 32.203184 136.57781 31.77281 
C 137.008184 31.342436 137.25 30.758641 137.25 30.15 
C 137.25 29.541359 137.008184 28.957564 136.57781 28.52719 
C 136.147436 28.096816 135.563641 27.855 134.955 27.855 
C 134.346359 27.855 133.762564 28.096816 133.33219 28.52719 
C 132.901816 28.957564 132.66 29.541359 132.66 30.15 
C 132.66 30.758641 132.901816 31.342436 133.33219 31.77281 
C 133.762564 32.203184 134.346359 32.445 134.955 32.445 
z
" clip-path="url(#p067ea45c84)" style="stroke: #000000; stroke-width: 2; stroke-linejoin: miter"/>
   </g>
   <g id="patch_16">
    <path d="M 73.755 138.446509 
C 74.363641 138.446509 74.947436 138.204694 75.37781 137.774319 
C 75.808184 137.343945 76.05 136.760151 76.05 136.151509 
C 76.05 135.542868 75.808184 134.959074 75.37781 134.528699 
C 74.947436 134.098325 74.363641 133.856509 73.755 133.856509 
C 73.146359 133.856509 72.562564 134.098325 72.13219 134.528699 
C 71.701816 134.959074 71.46 135.542868 71.46 136.151509 
C 71.46 136.760151 71.701816 137.343945 72.13219 137.774319 
C 72.562564 138.204694 73.146359 138.446509 73.755 138.446509 
z
" clip-path="url(#p067ea45c84)" style="stroke: #000000; stroke-width: 2; stroke-linejoin: miter"/>
   </g>
   <g id="patch_17">
    <path d="M 196.155 138.446509 
C 196.763641 138.446509 197.347436 138.204694 197.77781 137.774319 
C 198.208184 137.343945 198.45 136.760151 198.45 136.151509 
C 198.45 135.542868 198.208184 134.959074 197.77781 134.528699 
C 197.347436 134.098325 196.763641 133.856509 196.155 133.856509 
C 195.546359 133.856509 194.962564 134.098325 194.53219 134.528699 
C 194.101816 134.959074 193.86 135.542868 193.86 136.151509 
C 193.86 136.760151 194.101816 137.343945 194.53219 137.774319 
C 194.962564 138.204694 195.546359 138.446509 196.155 138.446509 
z
" clip-path="url(#p067ea45c84)" style="stroke: #000000; stroke-width: 2; stroke-linejoin: miter"/>
   </g>
  </g>
 </g>
 <defs>
  <clipPath id="p067ea45c84">
   <rect x="7.2" y="7.2" width="194.31" height="155.981509"/>
  </clipPath>
 </defs>
</svg>
