<?xml version="1.0" encoding="utf-8" standalone="no"?>
<!DOCTYPE svg PUBLIC "-//W3C//DTD SVG 1.1//EN"
  "http://www.w3.org/Graphics/SVG/1.1/DTD/svg11.dtd">
<svg xmlns:xlink="http://www.w3.org/1999/xlink" width="208.71pt" height="150.23649pt" viewBox="0 0 208.71 150.23649" xmlns="http://www.w3.org/2000/svg" version="1.1">
 <metadata>
  <rdf:RDF xmlns:dc="http://purl.org/dc/elements/1.1/" xmlns:cc="http://creativecommons.org/ns#" xmlns:rdf="http://www.w3.org/1999/02/22-rdf-syntax-ns#">
   <cc:Work>
    <dc:type rdf:resource="http://purl.org/dc/dcmitype/StillImage"/>
    <dc:date>2023-03-23T14:51:37.586890</dc:date>
    <dc:format>image/svg+xml</dc:format>
    <dc:creator>
     <cc:Agent>
      <dc:title>Matplotlib v3.5.2, https://matplotlib.org/</dc:title>
     </cc:Agent>
    </dc:creator>
   </cc:Work>
  </rdf:RDF>
 </metadata>
 <defs>
  <style type="text/css">*{stroke-linejoin: round; stroke-linecap: butt}</style>
 </defs>
 <g id="figure_1">
  <g id="patch_1">
   <path d="M 0 150.23649 
L 208.71 150.23649 
L 208.71 0 
L 0 0 
L 0 150.23649 
z
" style="fill: none"/>
  </g>
  <g id="axes_1">
   <g id="patch_2">
    <path d="M 66.105 14.084981 
C 66.105 13.070917 65.701735 12.097349 64.984683 11.380298 
C 64.267632 10.663246 63.294064 10.259981 62.28 10.259981 
C 61.265936 10.259981 60.292368 10.663246 59.575317 11.380298 
C 58.858265 12.097349 58.455 13.070917 58.455 14.084981 
" clip-path="url(#p16893ae225)" style="fill: none; stroke: #000000; stroke-width: 2; stroke-linejoin: miter"/>
   </g>
   <g id="patch_3">
    <path d="M 73.755 14.084981 
C 73.755 13.070917 73.351735 12.097349 72.634683 11.380298 
C 71.917632 10.663246 70.944064 10.259981 69.93 10.259981 
C 68.915936 10.259981 67.942368 10.663246 67.225317 11.380298 
C 66.508265 12.097349 66.105 13.070917 66.105 14.084981 
" clip-path="url(#p16893ae225)" style="fill: none; stroke: #000000; stroke-width: 2; stroke-linejoin: miter"/>
   </g>
   <g id="patch_4">
    <path d="M 81.405 14.084981 
C 81.405 13.070917 81.001735 12.097349 80.284683 11.380298 
C 79.567632 10.663246 78.594064 10.259981 77.58 10.259981 
C 76.565936 10.259981 75.592368 10.663246 74.875317 11.380298 
C 74.158265 12.097349 73.755 13.070917 73.755 14.084981 
" clip-path="url(#p16893ae225)" style="fill: none; stroke: #000000; stroke-width: 2; stroke-linejoin: miter"/>
   </g>
   <g id="patch_5">
    <path d="M 89.055 14.084981 
C 89.055 13.070917 88.651735 12.097349 87.934683 11.380298 
C 87.217632 10.663246 86.244064 10.259981 85.23 10.259981 
C 84.215936 10.259981 83.242368 10.663246 82.525317 11.380298 
C 81.808265 12.097349 81.405 13.070917 81.405 14.084981 
" clip-path="url(#p16893ae225)" style="fill: none; stroke: #000000; stroke-width: 2; stroke-linejoin: miter"/>
   </g>
   <g id="patch_6">
    <path d="M 28.729849 66.580641 
C 29.608054 66.073609 30.249556 65.237588 30.512015 64.258077 
C 30.774474 63.278566 30.636928 62.233799 30.129896 61.355594 
C 29.622864 60.477389 28.786843 59.835887 27.807332 59.573428 
C 26.827821 59.310969 25.783054 59.448515 24.904849 59.955547 
" clip-path="url(#p16893ae225)" style="fill: none; stroke: #000000; stroke-width: 2; stroke-linejoin: miter"/>
   </g>
   <g id="patch_7">
    <path d="M 32.554849 73.205736 
C 33.433054 72.698704 34.074556 71.862682 34.337015 70.883171 
C 34.599474 69.903661 34.461928 68.858894 33.954896 67.980689 
C 33.447864 67.102483 32.611843 66.460981 31.632332 66.198522 
C 30.652821 65.936063 29.608054 66.073609 28.729849 66.580641 
" clip-path="url(#p16893ae225)" style="fill: none; stroke: #000000; stroke-width: 2; stroke-linejoin: miter"/>
   </g>
   <g id="patch_8">
    <path d="M 36.379849 79.83083 
C 37.258054 79.323798 37.899556 78.487776 38.162015 77.508266 
C 38.424474 76.528755 38.286928 75.483988 37.779896 74.605783 
C 37.272864 73.727578 36.436843 73.086076 35.457332 72.823617 
C 34.477821 72.561158 33.433054 72.698704 32.554849 73.205736 
" clip-path="url(#p16893ae225)" style="fill: none; stroke: #000000; stroke-width: 2; stroke-linejoin: miter"/>
   </g>
   <g id="patch_9">
    <path d="M 40.204849 86.455924 
C 41.083054 85.948892 41.724556 85.112871 41.987015 84.13336 
C 42.249474 83.15385 42.111928 82.109082 41.604896 81.230877 
C 41.097864 80.352672 40.261843 79.71117 39.282332 79.448711 
C 38.302821 79.186252 37.258054 79.323798 36.379849 79.83083 
" clip-path="url(#p16893ae225)" style="fill: none; stroke: #000000; stroke-width: 2; stroke-linejoin: miter"/>
   </g>
   <g id="patch_10">
    <path d="M 94.046465 52.300641 
C 94.924671 52.807673 95.969438 52.94522 96.948948 52.682761 
C 97.928459 52.420301 98.764481 51.778799 99.271513 50.900594 
C 99.778545 50.022389 99.916091 48.977622 99.653632 47.998111 
C 99.391173 47.018601 98.749671 46.182579 97.871465 45.675547 
" clip-path="url(#p16893ae225)" style="fill: none; stroke: #000000; stroke-width: 2; stroke-linejoin: miter"/>
   </g>
   <g id="patch_11">
    <path d="M 90.221465 58.925736 
C 91.099671 59.432768 92.144438 59.570314 93.123948 59.307855 
C 94.103459 59.045396 94.939481 58.403894 95.446513 57.525689 
C 95.953545 56.647483 96.091091 55.602716 95.828632 54.623206 
C 95.566173 53.643695 94.924671 52.807673 94.046465 52.300641 
" clip-path="url(#p16893ae225)" style="fill: none; stroke: #000000; stroke-width: 2; stroke-linejoin: miter"/>
   </g>
   <g id="patch_12">
    <path d="M 86.396465 65.55083 
C 87.274671 66.057862 88.319438 66.195408 89.298948 65.932949 
C 90.278459 65.67049 91.114481 65.028988 91.621513 64.150783 
C 92.128545 63.272578 92.266091 62.227811 92.003632 61.2483 
C 91.741173 60.268789 91.099671 59.432768 90.221465 58.925736 
" clip-path="url(#p16893ae225)" style="fill: none; stroke: #000000; stroke-width: 2; stroke-linejoin: miter"/>
   </g>
   <g id="patch_13">
    <path d="M 82.571465 72.175924 
C 83.449671 72.682956 84.494438 72.820503 85.473948 72.558044 
C 86.453459 72.295584 87.289481 71.654082 87.796513 70.775877 
C 88.303545 69.897672 88.441091 68.852905 88.178632 67.873394 
C 87.916173 66.893884 87.274671 66.057862 86.396465 65.55083 
" clip-path="url(#p16893ae225)" style="fill: none; stroke: #000000; stroke-width: 2; stroke-linejoin: miter"/>
   </g>
   <g id="patch_14">
    <path d="M 183.513535 65.55083 
C 182.635329 66.057862 181.993827 66.893884 181.731368 67.873394 
C 181.468909 68.852905 181.606455 69.897672 182.113487 70.775877 
C 182.620519 71.654082 183.456541 72.295584 184.436052 72.558044 
C 185.415562 72.820503 186.460329 72.682956 187.338535 72.175924 
" clip-path="url(#p16893ae225)" style="fill: none; stroke: #000000; stroke-width: 2; stroke-linejoin: miter"/>
   </g>
   <g id="patch_15">
    <path d="M 179.688535 58.925736 
C 178.810329 59.432768 178.168827 60.268789 177.906368 61.2483 
C 177.643909 62.227811 177.781455 63.272578 178.288487 64.150783 
C 178.795519 65.028988 179.631541 65.67049 180.611052 65.932949 
C 181.590562 66.195408 182.635329 66.057862 183.513535 65.55083 
" clip-path="url(#p16893ae225)" style="fill: none; stroke: #000000; stroke-width: 2; stroke-linejoin: miter"/>
   </g>
   <g id="patch_16">
    <path d="M 175.863535 52.300641 
C 174.985329 52.807673 174.343827 53.643695 174.081368 54.623206 
C 173.818909 55.602716 173.956455 56.647483 174.463487 57.525689 
C 174.970519 58.403894 175.806541 59.045396 176.786052 59.307855 
C 177.765562 59.570314 178.810329 59.432768 179.688535 58.925736 
" clip-path="url(#p16893ae225)" style="fill: none; stroke: #000000; stroke-width: 2; stroke-linejoin: miter"/>
   </g>
   <g id="patch_17">
    <path d="M 172.038535 45.675547 
C 171.160329 46.182579 170.518827 47.018601 170.256368 47.998111 
C 169.993909 48.977622 170.131455 50.022389 170.638487 50.900594 
C 171.145519 51.778799 171.981541 52.420301 172.961052 52.682761 
C 173.940562 52.94522 174.985329 52.807673 175.863535 52.300641 
" clip-path="url(#p16893ae225)" style="fill: none; stroke: #000000; stroke-width: 2; stroke-linejoin: miter"/>
   </g>
   <g id="patch_18">
    <path d="M 142.605 107.84649 
C 142.605 108.860554 143.008265 109.834122 143.725317 110.551174 
C 144.442368 111.268225 145.415936 111.67149 146.43 111.67149 
C 147.444064 111.67149 148.417632 111.268225 149.134683 110.551174 
C 149.851735 109.834122 150.255 108.860554 150.255 107.84649 
" clip-path="url(#p16893ae225)" style="fill: none; stroke: #000000; stroke-width: 2; stroke-linejoin: miter"/>
   </g>
   <g id="patch_19">
    <path d="M 134.955 107.84649 
C 134.955 108.860554 135.358265 109.834122 136.075317 110.551174 
C 136.792368 111.268225 137.765936 111.67149 138.78 111.67149 
C 139.794064 111.67149 140.767632 111.268225 141.484683 110.551174 
C 142.201735 109.834122 142.605 108.860554 142.605 107.84649 
" clip-path="url(#p16893ae225)" style="fill: none; stroke: #000000; stroke-width: 2; stroke-linejoin: miter"/>
   </g>
   <g id="patch_20">
    <path d="M 127.305 107.84649 
C 127.305 108.860554 127.708265 109.834122 128.425317 110.551174 
C 129.142368 111.268225 130.115936 111.67149 131.13 111.67149 
C 132.144064 111.67149 133.117632 111.268225 133.834683 110.551174 
C 134.551735 109.834122 134.955 108.860554 134.955 107.84649 
" clip-path="url(#p16893ae225)" style="fill: none; stroke: #000000; stroke-width: 2; stroke-linejoin: miter"/>
   </g>
   <g id="patch_21">
    <path d="M 119.655 107.84649 
C 119.655 108.860554 120.058265 109.834122 120.775317 110.551174 
C 121.492368 111.268225 122.465936 111.67149 123.48 111.67149 
C 124.494064 111.67149 125.467632 111.268225 126.184683 110.551174 
C 126.901735 109.834122 127.305 108.860554 127.305 107.84649 
" clip-path="url(#p16893ae225)" style="fill: none; stroke: #000000; stroke-width: 2; stroke-linejoin: miter"/>
   </g>
   <g id="line2d_1">
    <path d="M 12.555 14.084981 
L 58.455 14.084981 
M 89.055 14.084981 
L 134.955 14.084981 
" clip-path="url(#p16893ae225)" style="fill: none; stroke: #000000; stroke-width: 2; stroke-linecap: round"/>
   </g>
   <g id="line2d_2">
    <path d="M 12.555 14.084981 
L 27.855 40.585358 
" clip-path="url(#p16893ae225)" style="fill: none; stroke: #000000; stroke-width: 2; stroke-linecap: round"/>
   </g>
   <g id="line2d_3">
    <path d="M 73.755 120.08649 
L 58.455 93.586113 
" clip-path="url(#p16893ae225)" style="fill: none; stroke: #000000; stroke-width: 2; stroke-linecap: round"/>
   </g>
   <g id="line2d_4">
    <path d="M 38.455151 34.465358 
L 17.254849 46.705358 
" clip-path="url(#p16893ae225)" style="fill: none; stroke: #000000; stroke-width: 2; stroke-linecap: round"/>
   </g>
   <g id="line2d_5">
    <path d="M 69.055151 87.466113 
L 47.854849 99.706113 
" clip-path="url(#p16893ae225)" style="fill: none; stroke: #000000; stroke-width: 2; stroke-linecap: round"/>
   </g>
   <g id="line2d_6">
    <path d="M 38.455151 34.465358 
L 52.378151 58.580702 
M 59.003245 54.755702 
L 45.753057 62.405702 
M 61.757245 59.52577 
L 48.507057 67.17577 
M 55.132151 63.35077 
L 69.055151 87.466113 
" clip-path="url(#p16893ae225)" style="fill: none; stroke: #000000; stroke-width: 2; stroke-linecap: round"/>
   </g>
   <g id="line2d_7">
    <path d="M 17.254849 46.705358 
L 24.904849 59.955547 
M 40.204849 86.455924 
L 47.854849 99.706113 
" clip-path="url(#p16893ae225)" style="fill: none; stroke: #000000; stroke-width: 2; stroke-linecap: round"/>
   </g>
   <g id="line2d_8">
    <path d="M 134.955 14.084981 
L 119.655 40.585358 
" clip-path="url(#p16893ae225)" style="fill: none; stroke: #000000; stroke-width: 2; stroke-linecap: round"/>
   </g>
   <g id="line2d_9">
    <path d="M 73.755 120.08649 
L 89.055 93.586113 
" clip-path="url(#p16893ae225)" style="fill: none; stroke: #000000; stroke-width: 2; stroke-linecap: round"/>
   </g>
   <g id="line2d_10">
    <path d="M 133.788535 48.745358 
L 105.521465 32.425358 
" clip-path="url(#p16893ae225)" style="fill: none; stroke: #000000; stroke-width: 2; stroke-linecap: round"/>
   </g>
   <g id="line2d_11">
    <path d="M 103.188535 101.746113 
L 74.921465 85.426113 
" clip-path="url(#p16893ae225)" style="fill: none; stroke: #000000; stroke-width: 2; stroke-linecap: round"/>
   </g>
   <g id="line2d_12">
    <path d="M 119.655 40.585358 
L 105.732 64.700702 
M 112.357094 68.525702 
L 99.106906 60.875702 
M 109.603094 73.29577 
L 96.352906 65.64577 
M 102.978 69.47077 
L 89.055 93.586113 
" clip-path="url(#p16893ae225)" style="fill: none; stroke: #000000; stroke-width: 2; stroke-linecap: round"/>
   </g>
   <g id="line2d_13">
    <path d="M 133.788535 48.745358 
L 118.488535 75.245736 
M 128.938629 72.445641 
L 108.03844 78.04583 
M 121.288629 85.69583 
L 115.68844 64.795641 
M 118.488535 75.245736 
L 103.188535 101.746113 
" clip-path="url(#p16893ae225)" style="fill: none; stroke: #000000; stroke-width: 2; stroke-linecap: round"/>
   </g>
   <g id="line2d_14">
    <path d="M 105.521465 32.425358 
L 97.871465 45.675547 
M 82.571465 72.175924 
L 74.921465 85.426113 
" clip-path="url(#p16893ae225)" style="fill: none; stroke: #000000; stroke-width: 2; stroke-linecap: round"/>
   </g>
   <g id="line2d_15">
    <path d="M 196.155 120.08649 
L 180.855 93.586113 
" clip-path="url(#p16893ae225)" style="fill: none; stroke: #000000; stroke-width: 2; stroke-linecap: round"/>
   </g>
   <g id="line2d_16">
    <path d="M 134.955 14.084981 
L 150.255 40.585358 
" clip-path="url(#p16893ae225)" style="fill: none; stroke: #000000; stroke-width: 2; stroke-linecap: round"/>
   </g>
   <g id="line2d_17">
    <path d="M 166.721465 101.746113 
L 194.988535 85.426113 
" clip-path="url(#p16893ae225)" style="fill: none; stroke: #000000; stroke-width: 2; stroke-linecap: round"/>
   </g>
   <g id="line2d_18">
    <path d="M 136.121465 48.745358 
L 164.388535 32.425358 
" clip-path="url(#p16893ae225)" style="fill: none; stroke: #000000; stroke-width: 2; stroke-linecap: round"/>
   </g>
   <g id="line2d_19">
    <path d="M 180.855 93.586113 
L 166.932 69.47077 
M 160.306906 73.29577 
L 173.557094 65.64577 
M 157.552906 68.525702 
L 170.803094 60.875702 
M 164.178 64.700702 
L 150.255 40.585358 
" clip-path="url(#p16893ae225)" style="fill: none; stroke: #000000; stroke-width: 2; stroke-linecap: round"/>
   </g>
   <g id="line2d_20">
    <path d="M 166.721465 101.746113 
L 151.421465 75.245736 
M 148.621371 85.69583 
L 154.22156 64.795641 
M 140.971371 72.445641 
L 161.87156 78.04583 
M 151.421465 75.245736 
L 136.121465 48.745358 
" clip-path="url(#p16893ae225)" style="fill: none; stroke: #000000; stroke-width: 2; stroke-linecap: round"/>
   </g>
   <g id="line2d_21">
    <path d="M 194.988535 85.426113 
L 187.338535 72.175924 
M 172.038535 45.675547 
L 164.388535 32.425358 
" clip-path="url(#p16893ae225)" style="fill: none; stroke: #000000; stroke-width: 2; stroke-linecap: round"/>
   </g>
   <g id="line2d_22">
    <path d="M 196.155 120.08649 
L 165.555 120.08649 
" clip-path="url(#p16893ae225)" style="fill: none; stroke: #000000; stroke-width: 2; stroke-linecap: round"/>
   </g>
   <g id="line2d_23">
    <path d="M 73.755 120.08649 
L 104.355 120.08649 
" clip-path="url(#p16893ae225)" style="fill: none; stroke: #000000; stroke-width: 2; stroke-linecap: round"/>
   </g>
   <g id="line2d_24">
    <path d="M 165.555 132.32649 
L 165.555 107.84649 
" clip-path="url(#p16893ae225)" style="fill: none; stroke: #000000; stroke-width: 2; stroke-linecap: round"/>
   </g>
   <g id="line2d_25">
    <path d="M 104.355 132.32649 
L 104.355 107.84649 
" clip-path="url(#p16893ae225)" style="fill: none; stroke: #000000; stroke-width: 2; stroke-linecap: round"/>
   </g>
   <g id="line2d_26">
    <path d="M 165.555 132.32649 
L 137.709 132.32649 
M 137.709 139.97649 
L 137.709 124.67649 
M 132.201 139.97649 
L 132.201 124.67649 
M 132.201 132.32649 
L 104.355 132.32649 
" clip-path="url(#p16893ae225)" style="fill: none; stroke: #000000; stroke-width: 2; stroke-linecap: round"/>
   </g>
   <g id="line2d_27">
    <path d="M 165.555 107.84649 
L 150.255 107.84649 
M 119.655 107.84649 
L 104.355 107.84649 
" clip-path="url(#p16893ae225)" style="fill: none; stroke: #000000; stroke-width: 2; stroke-linecap: round"/>
   </g>
   <g id="patch_22">
    <path d="M 12.555 16.379981 
C 13.163641 16.379981 13.747436 16.138165 14.17781 15.707791 
C 14.608184 15.277417 14.85 14.693622 14.85 14.084981 
C 14.85 13.47634 14.608184 12.892545 14.17781 12.462171 
C 13.747436 12.031797 13.163641 11.789981 12.555 11.789981 
C 11.946359 11.789981 11.362564 12.031797 10.93219 12.462171 
C 10.501816 12.892545 10.26 13.47634 10.26 14.084981 
C 10.26 14.693622 10.501816 15.277417 10.93219 15.707791 
C 11.362564 16.138165 11.946359 16.379981 12.555 16.379981 
z
" clip-path="url(#p16893ae225)" style="stroke: #000000; stroke-width: 2; stroke-linejoin: miter"/>
   </g>
   <g id="patch_23">
    <path d="M 134.955 16.379981 
C 135.563641 16.379981 136.147436 16.138165 136.57781 15.707791 
C 137.008184 15.277417 137.25 14.693622 137.25 14.084981 
C 137.25 13.47634 137.008184 12.892545 136.57781 12.462171 
C 136.147436 12.031797 135.563641 11.789981 134.955 11.789981 
C 134.346359 11.789981 133.762564 12.031797 133.33219 12.462171 
C 132.901816 12.892545 132.66 13.47634 132.66 14.084981 
C 132.66 14.693622 132.901816 15.277417 133.33219 15.707791 
C 133.762564 16.138165 134.346359 16.379981 134.955 16.379981 
z
" clip-path="url(#p16893ae225)" style="stroke: #000000; stroke-width: 2; stroke-linejoin: miter"/>
   </g>
   <g id="patch_24">
    <path d="M 73.755 122.38149 
C 74.363641 122.38149 74.947436 122.139675 75.37781 121.709301 
C 75.808184 121.278926 76.05 120.695132 76.05 120.08649 
C 76.05 119.477849 75.808184 118.894055 75.37781 118.46368 
C 74.947436 118.033306 74.363641 117.79149 73.755 117.79149 
C 73.146359 117.79149 72.562564 118.033306 72.13219 118.46368 
C 71.701816 118.894055 71.46 119.477849 71.46 120.08649 
C 71.46 120.695132 71.701816 121.278926 72.13219 121.709301 
C 72.562564 122.139675 73.146359 122.38149 73.755 122.38149 
z
" clip-path="url(#p16893ae225)" style="stroke: #000000; stroke-width: 2; stroke-linejoin: miter"/>
   </g>
   <g id="patch_25">
    <path d="M 196.155 122.38149 
C 196.763641 122.38149 197.347436 122.139675 197.77781 121.709301 
C 198.208184 121.278926 198.45 120.695132 198.45 120.08649 
C 198.45 119.477849 198.208184 118.894055 197.77781 118.46368 
C 197.347436 118.033306 196.763641 117.79149 196.155 117.79149 
C 195.546359 117.79149 194.962564 118.033306 194.53219 118.46368 
C 194.101816 118.894055 193.86 119.477849 193.86 120.08649 
C 193.86 120.695132 194.101816 121.278926 194.53219 121.709301 
C 194.962564 122.139675 195.546359 122.38149 196.155 122.38149 
z
" clip-path="url(#p16893ae225)" style="stroke: #000000; stroke-width: 2; stroke-linejoin: miter"/>
   </g>
  </g>
 </g>
 <defs>
  <clipPath id="p16893ae225">
   <rect x="7.2" y="7.2" width="194.31" height="135.83649"/>
  </clipPath>
 </defs>
</svg>
