<?xml version="1.0" encoding="utf-8" standalone="no"?>
<!DOCTYPE svg PUBLIC "-//W3C//DTD SVG 1.1//EN"
  "http://www.w3.org/Graphics/SVG/1.1/DTD/svg11.dtd">
<svg xmlns:xlink="http://www.w3.org/1999/xlink" width="208.71pt" height="166.301509pt" viewBox="0 0 208.71 166.301509" xmlns="http://www.w3.org/2000/svg" version="1.1">
 <metadata>
  <rdf:RDF xmlns:dc="http://purl.org/dc/elements/1.1/" xmlns:cc="http://creativecommons.org/ns#" xmlns:rdf="http://www.w3.org/1999/02/22-rdf-syntax-ns#">
   <cc:Work>
    <dc:type rdf:resource="http://purl.org/dc/dcmitype/StillImage"/>
    <dc:date>2023-03-23T14:45:34.839714</dc:date>
    <dc:format>image/svg+xml</dc:format>
    <dc:creator>
     <cc:Agent>
      <dc:title>Matplotlib v3.5.2, https://matplotlib.org/</dc:title>
     </cc:Agent>
    </dc:creator>
   </cc:Work>
  </rdf:RDF>
 </metadata>
 <defs>
  <style type="text/css">*{stroke-linejoin: round; stroke-linecap: butt}</style>
 </defs>
 <g id="figure_1">
  <g id="patch_1">
   <path d="M 0 166.301509 
L 208.71 166.301509 
L 208.71 0 
L 0 0 
L 0 166.301509 
z
" style="fill: none"/>
  </g>
  <g id="axes_1">
   <g id="patch_2">
    <path d="M 28.729849 82.64566 
C 29.608054 82.138628 30.249556 81.302607 30.512015 80.323096 
C 30.774474 79.343585 30.636928 78.298818 30.129896 77.420613 
C 29.622864 76.542408 28.786843 75.900906 27.807332 75.638447 
C 26.827821 75.375988 25.783054 75.513534 24.904849 76.020566 
" clip-path="url(#p6dfbd40ba2)" style="fill: none; stroke: #000000; stroke-width: 2; stroke-linejoin: miter"/>
   </g>
   <g id="patch_3">
    <path d="M 32.554849 89.270755 
C 33.433054 88.763723 34.074556 87.927701 34.337015 86.94819 
C 34.599474 85.96868 34.461928 84.923913 33.954896 84.045708 
C 33.447864 83.167502 32.611843 82.526 31.632332 82.263541 
C 30.652821 82.001082 29.608054 82.138628 28.729849 82.64566 
" clip-path="url(#p6dfbd40ba2)" style="fill: none; stroke: #000000; stroke-width: 2; stroke-linejoin: miter"/>
   </g>
   <g id="patch_4">
    <path d="M 36.379849 95.895849 
C 37.258054 95.388817 37.899556 94.552795 38.162015 93.573285 
C 38.424474 92.593774 38.286928 91.549007 37.779896 90.670802 
C 37.272864 89.792597 36.436843 89.151095 35.457332 88.888636 
C 34.477821 88.626177 33.433054 88.763723 32.554849 89.270755 
" clip-path="url(#p6dfbd40ba2)" style="fill: none; stroke: #000000; stroke-width: 2; stroke-linejoin: miter"/>
   </g>
   <g id="patch_5">
    <path d="M 40.204849 102.520943 
C 41.083054 102.013911 41.724556 101.17789 41.987015 100.198379 
C 42.249474 99.218868 42.111928 98.174101 41.604896 97.295896 
C 41.097864 96.417691 40.261843 95.776189 39.282332 95.51373 
C 38.302821 95.251271 37.258054 95.388817 36.379849 95.895849 
" clip-path="url(#p6dfbd40ba2)" style="fill: none; stroke: #000000; stroke-width: 2; stroke-linejoin: miter"/>
   </g>
   <g id="patch_6">
    <path d="M 108.18 76.52566 
C 109.058205 77.032692 110.102972 77.170239 111.082483 76.907779 
C 112.061993 76.64532 112.898015 76.003818 113.405047 75.125613 
C 113.912079 74.247408 114.049625 73.202641 113.787166 72.22313 
C 113.524707 71.24362 112.883205 70.407598 112.005 69.900566 
" clip-path="url(#p6dfbd40ba2)" style="fill: none; stroke: #000000; stroke-width: 2; stroke-linejoin: miter"/>
   </g>
   <g id="patch_7">
    <path d="M 104.355 83.150755 
C 105.233205 83.657787 106.277972 83.795333 107.257483 83.532874 
C 108.236993 83.270415 109.073015 82.628913 109.580047 81.750708 
C 110.087079 80.872502 110.224625 79.827735 109.962166 78.848225 
C 109.699707 77.868714 109.058205 77.032692 108.18 76.52566 
" clip-path="url(#p6dfbd40ba2)" style="fill: none; stroke: #000000; stroke-width: 2; stroke-linejoin: miter"/>
   </g>
   <g id="patch_8">
    <path d="M 100.53 89.775849 
C 101.408205 90.282881 102.452972 90.420427 103.432483 90.157968 
C 104.411993 89.895509 105.248015 89.254007 105.755047 88.375802 
C 106.262079 87.497597 106.399625 86.45283 106.137166 85.473319 
C 105.874707 84.493808 105.233205 83.657787 104.355 83.150755 
" clip-path="url(#p6dfbd40ba2)" style="fill: none; stroke: #000000; stroke-width: 2; stroke-linejoin: miter"/>
   </g>
   <g id="patch_9">
    <path d="M 96.705 96.400943 
C 97.583205 96.907975 98.627972 97.045522 99.607483 96.783063 
C 100.586993 96.520603 101.423015 95.879101 101.930047 95.000896 
C 102.437079 94.122691 102.574625 93.077924 102.312166 92.098413 
C 102.049707 91.118903 101.408205 90.282881 100.53 89.775849 
" clip-path="url(#p6dfbd40ba2)" style="fill: none; stroke: #000000; stroke-width: 2; stroke-linejoin: miter"/>
   </g>
   <g id="patch_10">
    <path d="M 179.980151 83.655849 
C 179.101946 84.162881 178.460444 84.998903 178.197985 85.978413 
C 177.935526 86.957924 178.073072 88.002691 178.580104 88.880896 
C 179.087136 89.759101 179.923157 90.400603 180.902668 90.663063 
C 181.882179 90.925522 182.926946 90.787975 183.805151 90.280943 
" clip-path="url(#p6dfbd40ba2)" style="fill: none; stroke: #000000; stroke-width: 2; stroke-linejoin: miter"/>
   </g>
   <g id="patch_11">
    <path d="M 176.155151 77.030755 
C 175.276946 77.537787 174.635444 78.373808 174.372985 79.353319 
C 174.110526 80.33283 174.248072 81.377597 174.755104 82.255802 
C 175.262136 83.134007 176.098157 83.775509 177.077668 84.037968 
C 178.057179 84.300427 179.101946 84.162881 179.980151 83.655849 
" clip-path="url(#p6dfbd40ba2)" style="fill: none; stroke: #000000; stroke-width: 2; stroke-linejoin: miter"/>
   </g>
   <g id="patch_12">
    <path d="M 172.330151 70.40566 
C 171.451946 70.912692 170.810444 71.748714 170.547985 72.728225 
C 170.285526 73.707735 170.423072 74.752502 170.930104 75.630708 
C 171.437136 76.508913 172.273157 77.150415 173.252668 77.412874 
C 174.232179 77.675333 175.276946 77.537787 176.155151 77.030755 
" clip-path="url(#p6dfbd40ba2)" style="fill: none; stroke: #000000; stroke-width: 2; stroke-linejoin: miter"/>
   </g>
   <g id="patch_13">
    <path d="M 168.505151 63.780566 
C 167.626946 64.287598 166.985444 65.12362 166.722985 66.10313 
C 166.460526 67.082641 166.598072 68.127408 167.105104 69.005613 
C 167.612136 69.883818 168.448157 70.52532 169.427668 70.787779 
C 170.407179 71.050239 171.451946 70.912692 172.330151 70.40566 
" clip-path="url(#p6dfbd40ba2)" style="fill: none; stroke: #000000; stroke-width: 2; stroke-linejoin: miter"/>
   </g>
   <g id="patch_14">
    <path d="M 142.605 123.911509 
C 142.605 124.925573 143.008265 125.899141 143.725317 126.616193 
C 144.442368 127.333244 145.415936 127.736509 146.43 127.736509 
C 147.444064 127.736509 148.417632 127.333244 149.134683 126.616193 
C 149.851735 125.899141 150.255 124.925573 150.255 123.911509 
" clip-path="url(#p6dfbd40ba2)" style="fill: none; stroke: #000000; stroke-width: 2; stroke-linejoin: miter"/>
   </g>
   <g id="patch_15">
    <path d="M 134.955 123.911509 
C 134.955 124.925573 135.358265 125.899141 136.075317 126.616193 
C 136.792368 127.333244 137.765936 127.736509 138.78 127.736509 
C 139.794064 127.736509 140.767632 127.333244 141.484683 126.616193 
C 142.201735 125.899141 142.605 124.925573 142.605 123.911509 
" clip-path="url(#p6dfbd40ba2)" style="fill: none; stroke: #000000; stroke-width: 2; stroke-linejoin: miter"/>
   </g>
   <g id="patch_16">
    <path d="M 127.305 123.911509 
C 127.305 124.925573 127.708265 125.899141 128.425317 126.616193 
C 129.142368 127.333244 130.115936 127.736509 131.13 127.736509 
C 132.144064 127.736509 133.117632 127.333244 133.834683 126.616193 
C 134.551735 125.899141 134.955 124.925573 134.955 123.911509 
" clip-path="url(#p6dfbd40ba2)" style="fill: none; stroke: #000000; stroke-width: 2; stroke-linejoin: miter"/>
   </g>
   <g id="patch_17">
    <path d="M 119.655 123.911509 
C 119.655 124.925573 120.058265 125.899141 120.775317 126.616193 
C 121.492368 127.333244 122.465936 127.736509 123.48 127.736509 
C 124.494064 127.736509 125.467632 127.333244 126.184683 126.616193 
C 126.901735 125.899141 127.305 124.925573 127.305 123.911509 
" clip-path="url(#p6dfbd40ba2)" style="fill: none; stroke: #000000; stroke-width: 2; stroke-linejoin: miter"/>
   </g>
   <g id="line2d_1">
    <path d="M 12.555 30.15 
L 43.155 30.15 
" clip-path="url(#p6dfbd40ba2)" style="fill: none; stroke: #000000; stroke-width: 2; stroke-linecap: round"/>
   </g>
   <g id="line2d_2">
    <path d="M 134.955 30.15 
L 104.355 30.15 
" clip-path="url(#p6dfbd40ba2)" style="fill: none; stroke: #000000; stroke-width: 2; stroke-linecap: round"/>
   </g>
   <g id="line2d_3">
    <path d="M 43.155 17.91 
L 43.155 42.39 
" clip-path="url(#p6dfbd40ba2)" style="fill: none; stroke: #000000; stroke-width: 2; stroke-linecap: round"/>
   </g>
   <g id="line2d_4">
    <path d="M 104.355 17.91 
L 104.355 42.39 
" clip-path="url(#p6dfbd40ba2)" style="fill: none; stroke: #000000; stroke-width: 2; stroke-linecap: round"/>
   </g>
   <g id="line2d_5">
    <path d="M 43.155 17.91 
L 71.001 17.91 
M 71.001 10.26 
L 71.001 25.56 
M 76.509 10.26 
L 76.509 25.56 
M 76.509 17.91 
L 104.355 17.91 
" clip-path="url(#p6dfbd40ba2)" style="fill: none; stroke: #000000; stroke-width: 2; stroke-linecap: round"/>
   </g>
   <g id="line2d_6">
    <path d="M 43.155 42.39 
L 73.755 42.39 
M 66.105 34.74 
L 81.405 50.04 
M 81.405 34.74 
L 66.105 50.04 
M 73.755 42.39 
L 104.355 42.39 
" clip-path="url(#p6dfbd40ba2)" style="fill: none; stroke: #000000; stroke-width: 2; stroke-linecap: round"/>
   </g>
   <g id="line2d_7">
    <path d="M 12.555 30.15 
L 27.855 56.650377 
" clip-path="url(#p6dfbd40ba2)" style="fill: none; stroke: #000000; stroke-width: 2; stroke-linecap: round"/>
   </g>
   <g id="line2d_8">
    <path d="M 73.755 136.151509 
L 58.455 109.651132 
" clip-path="url(#p6dfbd40ba2)" style="fill: none; stroke: #000000; stroke-width: 2; stroke-linecap: round"/>
   </g>
   <g id="line2d_9">
    <path d="M 38.455151 50.530377 
L 17.254849 62.770377 
" clip-path="url(#p6dfbd40ba2)" style="fill: none; stroke: #000000; stroke-width: 2; stroke-linecap: round"/>
   </g>
   <g id="line2d_10">
    <path d="M 69.055151 103.531132 
L 47.854849 115.771132 
" clip-path="url(#p6dfbd40ba2)" style="fill: none; stroke: #000000; stroke-width: 2; stroke-linecap: round"/>
   </g>
   <g id="line2d_11">
    <path d="M 38.455151 50.530377 
L 53.755151 77.030755 
M 56.555245 66.58066 
L 50.955057 87.480849 
M 64.205245 79.830849 
L 43.305057 74.23066 
M 53.755151 77.030755 
L 69.055151 103.531132 
" clip-path="url(#p6dfbd40ba2)" style="fill: none; stroke: #000000; stroke-width: 2; stroke-linecap: round"/>
   </g>
   <g id="line2d_12">
    <path d="M 17.254849 62.770377 
L 24.904849 76.020566 
M 40.204849 102.520943 
L 47.854849 115.771132 
" clip-path="url(#p6dfbd40ba2)" style="fill: none; stroke: #000000; stroke-width: 2; stroke-linecap: round"/>
   </g>
   <g id="line2d_13">
    <path d="M 134.955 30.15 
L 112.005 69.900566 
M 96.705 96.400943 
L 73.755 136.151509 
" clip-path="url(#p6dfbd40ba2)" style="fill: none; stroke: #000000; stroke-width: 2; stroke-linecap: round"/>
   </g>
   <g id="line2d_14">
    <path d="M 196.155 136.151509 
L 180.855 109.651132 
" clip-path="url(#p6dfbd40ba2)" style="fill: none; stroke: #000000; stroke-width: 2; stroke-linecap: round"/>
   </g>
   <g id="line2d_15">
    <path d="M 134.955 30.15 
L 150.255 56.650377 
" clip-path="url(#p6dfbd40ba2)" style="fill: none; stroke: #000000; stroke-width: 2; stroke-linecap: round"/>
   </g>
   <g id="line2d_16">
    <path d="M 170.254849 115.771132 
L 191.455151 103.531132 
" clip-path="url(#p6dfbd40ba2)" style="fill: none; stroke: #000000; stroke-width: 2; stroke-linecap: round"/>
   </g>
   <g id="line2d_17">
    <path d="M 139.654849 62.770377 
L 160.855151 50.530377 
" clip-path="url(#p6dfbd40ba2)" style="fill: none; stroke: #000000; stroke-width: 2; stroke-linecap: round"/>
   </g>
   <g id="line2d_18">
    <path d="M 170.254849 115.771132 
L 154.954849 89.270755 
M 152.154755 99.720849 
L 157.754943 78.82066 
M 144.504755 86.47066 
L 165.404943 92.070849 
M 154.954849 89.270755 
L 139.654849 62.770377 
" clip-path="url(#p6dfbd40ba2)" style="fill: none; stroke: #000000; stroke-width: 2; stroke-linecap: round"/>
   </g>
   <g id="line2d_19">
    <path d="M 191.455151 103.531132 
L 183.805151 90.280943 
M 168.505151 63.780566 
L 160.855151 50.530377 
" clip-path="url(#p6dfbd40ba2)" style="fill: none; stroke: #000000; stroke-width: 2; stroke-linecap: round"/>
   </g>
   <g id="line2d_20">
    <path d="M 196.155 136.151509 
L 165.555 136.151509 
" clip-path="url(#p6dfbd40ba2)" style="fill: none; stroke: #000000; stroke-width: 2; stroke-linecap: round"/>
   </g>
   <g id="line2d_21">
    <path d="M 73.755 136.151509 
L 104.355 136.151509 
" clip-path="url(#p6dfbd40ba2)" style="fill: none; stroke: #000000; stroke-width: 2; stroke-linecap: round"/>
   </g>
   <g id="line2d_22">
    <path d="M 165.555 148.391509 
L 165.555 123.911509 
" clip-path="url(#p6dfbd40ba2)" style="fill: none; stroke: #000000; stroke-width: 2; stroke-linecap: round"/>
   </g>
   <g id="line2d_23">
    <path d="M 104.355 148.391509 
L 104.355 123.911509 
" clip-path="url(#p6dfbd40ba2)" style="fill: none; stroke: #000000; stroke-width: 2; stroke-linecap: round"/>
   </g>
   <g id="line2d_24">
    <path d="M 165.555 148.391509 
L 134.955 148.391509 
M 142.605 156.041509 
L 127.305 140.741509 
M 127.305 156.041509 
L 142.605 140.741509 
M 134.955 148.391509 
L 104.355 148.391509 
" clip-path="url(#p6dfbd40ba2)" style="fill: none; stroke: #000000; stroke-width: 2; stroke-linecap: round"/>
   </g>
   <g id="line2d_25">
    <path d="M 165.555 123.911509 
L 150.255 123.911509 
M 119.655 123.911509 
L 104.355 123.911509 
" clip-path="url(#p6dfbd40ba2)" style="fill: none; stroke: #000000; stroke-width: 2; stroke-linecap: round"/>
   </g>
   <g id="patch_18">
    <path d="M 12.555 32.445 
C 13.163641 32.445 13.747436 32.203184 14.17781 31.77281 
C 14.608184 31.342436 14.85 30.758641 14.85 30.15 
C 14.85 29.541359 14.608184 28.957564 14.17781 28.52719 
C 13.747436 28.096816 13.163641 27.855 12.555 27.855 
C 11.946359 27.855 11.362564 28.096816 10.93219 28.52719 
C 10.501816 28.957564 10.26 29.541359 10.26 30.15 
C 10.26 30.758641 10.501816 31.342436 10.93219 31.77281 
C 11.362564 32.203184 11.946359 32.445 12.555 32.445 
z
" clip-path="url(#p6dfbd40ba2)" style="stroke: #000000; stroke-width: 2; stroke-linejoin: miter"/>
   </g>
   <g id="patch_19">
    <path d="M 134.955 32.445 
C 135.563641 32.445 136.147436 32.203184 136.57781 31.77281 
C 137.008184 31.342436 137.25 30.758641 137.25 30.15 
C 137.25 29.541359 137.008184 28.957564 136.57781 28.52719 
C 136.147436 28.096816 135.563641 27.855 134.955 27.855 
C 134.346359 27.855 133.762564 28.096816 133.33219 28.52719 
C 132.901816 28.957564 132.66 29.541359 132.66 30.15 
C 132.66 30.758641 132.901816 31.342436 133.33219 31.77281 
C 133.762564 32.203184 134.346359 32.445 134.955 32.445 
z
" clip-path="url(#p6dfbd40ba2)" style="stroke: #000000; stroke-width: 2; stroke-linejoin: miter"/>
   </g>
   <g id="patch_20">
    <path d="M 73.755 138.446509 
C 74.363641 138.446509 74.947436 138.204694 75.37781 137.774319 
C 75.808184 137.343945 76.05 136.760151 76.05 136.151509 
C 76.05 135.542868 75.808184 134.959074 75.37781 134.528699 
C 74.947436 134.098325 74.363641 133.856509 73.755 133.856509 
C 73.146359 133.856509 72.562564 134.098325 72.13219 134.528699 
C 71.701816 134.959074 71.46 135.542868 71.46 136.151509 
C 71.46 136.760151 71.701816 137.343945 72.13219 137.774319 
C 72.562564 138.204694 73.146359 138.446509 73.755 138.446509 
z
" clip-path="url(#p6dfbd40ba2)" style="stroke: #000000; stroke-width: 2; stroke-linejoin: miter"/>
   </g>
   <g id="patch_21">
    <path d="M 196.155 138.446509 
C 196.763641 138.446509 197.347436 138.204694 197.77781 137.774319 
C 198.208184 137.343945 198.45 136.760151 198.45 136.151509 
C 198.45 135.542868 198.208184 134.959074 197.77781 134.528699 
C 197.347436 134.098325 196.763641 133.856509 196.155 133.856509 
C 195.546359 133.856509 194.962564 134.098325 194.53219 134.528699 
C 194.101816 134.959074 193.86 135.542868 193.86 136.151509 
C 193.86 136.760151 194.101816 137.343945 194.53219 137.774319 
C 194.962564 138.204694 195.546359 138.446509 196.155 138.446509 
z
" clip-path="url(#p6dfbd40ba2)" style="stroke: #000000; stroke-width: 2; stroke-linejoin: miter"/>
   </g>
  </g>
 </g>
 <defs>
  <clipPath id="p6dfbd40ba2">
   <rect x="7.2" y="7.2" width="194.31" height="151.901509"/>
  </clipPath>
 </defs>
</svg>
