<?xml version="1.0" encoding="utf-8" standalone="no"?>
<!DOCTYPE svg PUBLIC "-//W3C//DTD SVG 1.1//EN"
  "http://www.w3.org/Graphics/SVG/1.1/DTD/svg11.dtd">
<svg xmlns:xlink="http://www.w3.org/1999/xlink" width="208.71pt" height="154.061509pt" viewBox="0 0 208.71 154.061509" xmlns="http://www.w3.org/2000/svg" version="1.1">
 <metadata>
  <rdf:RDF xmlns:dc="http://purl.org/dc/elements/1.1/" xmlns:cc="http://creativecommons.org/ns#" xmlns:rdf="http://www.w3.org/1999/02/22-rdf-syntax-ns#">
   <cc:Work>
    <dc:type rdf:resource="http://purl.org/dc/dcmitype/StillImage"/>
    <dc:date>2023-03-23T14:46:23.605004</dc:date>
    <dc:format>image/svg+xml</dc:format>
    <dc:creator>
     <cc:Agent>
      <dc:title>Matplotlib v3.5.2, https://matplotlib.org/</dc:title>
     </cc:Agent>
    </dc:creator>
   </cc:Work>
  </rdf:RDF>
 </metadata>
 <defs>
  <style type="text/css">*{stroke-linejoin: round; stroke-linecap: butt}</style>
 </defs>
 <g id="figure_1">
  <g id="patch_1">
   <path d="M 0 154.061509 
L 208.71 154.061509 
L 208.71 0 
L 0 0 
L 0 154.061509 
z
" style="fill: none"/>
  </g>
  <g id="axes_1">
   <g id="patch_2">
    <path d="M 25.196465 72.44566 
C 26.074671 71.938628 26.716173 71.102607 26.978632 70.123096 
C 27.241091 69.143585 27.103545 68.098818 26.596513 67.220613 
C 26.089481 66.342408 25.253459 65.700906 24.273948 65.438447 
C 23.294438 65.175988 22.249671 65.313534 21.371465 65.820566 
" clip-path="url(#p1e8c3a47b6)" style="fill: none; stroke: #000000; stroke-width: 2; stroke-linejoin: miter"/>
   </g>
   <g id="patch_3">
    <path d="M 29.021465 79.070755 
C 29.899671 78.563723 30.541173 77.727701 30.803632 76.74819 
C 31.066091 75.76868 30.928545 74.723913 30.421513 73.845708 
C 29.914481 72.967502 29.078459 72.326 28.098948 72.063541 
C 27.119438 71.801082 26.074671 71.938628 25.196465 72.44566 
" clip-path="url(#p1e8c3a47b6)" style="fill: none; stroke: #000000; stroke-width: 2; stroke-linejoin: miter"/>
   </g>
   <g id="patch_4">
    <path d="M 32.846465 85.695849 
C 33.724671 85.188817 34.366173 84.352795 34.628632 83.373285 
C 34.891091 82.393774 34.753545 81.349007 34.246513 80.470802 
C 33.739481 79.592597 32.903459 78.951095 31.923948 78.688636 
C 30.944438 78.426177 29.899671 78.563723 29.021465 79.070755 
" clip-path="url(#p1e8c3a47b6)" style="fill: none; stroke: #000000; stroke-width: 2; stroke-linejoin: miter"/>
   </g>
   <g id="patch_5">
    <path d="M 36.671465 92.320943 
C 37.549671 91.813911 38.191173 90.97789 38.453632 89.998379 
C 38.716091 89.018868 38.578545 87.974101 38.071513 87.095896 
C 37.564481 86.217691 36.728459 85.576189 35.748948 85.31373 
C 34.769438 85.051271 33.724671 85.188817 32.846465 85.695849 
" clip-path="url(#p1e8c3a47b6)" style="fill: none; stroke: #000000; stroke-width: 2; stroke-linejoin: miter"/>
   </g>
   <g id="patch_6">
    <path d="M 108.18 64.28566 
C 109.058205 64.792692 110.102972 64.930239 111.082483 64.667779 
C 112.061993 64.40532 112.898015 63.763818 113.405047 62.885613 
C 113.912079 62.007408 114.049625 60.962641 113.787166 59.98313 
C 113.524707 59.00362 112.883205 58.167598 112.005 57.660566 
" clip-path="url(#p1e8c3a47b6)" style="fill: none; stroke: #000000; stroke-width: 2; stroke-linejoin: miter"/>
   </g>
   <g id="patch_7">
    <path d="M 104.355 70.910755 
C 105.233205 71.417787 106.277972 71.555333 107.257483 71.292874 
C 108.236993 71.030415 109.073015 70.388913 109.580047 69.510708 
C 110.087079 68.632502 110.224625 67.587735 109.962166 66.608225 
C 109.699707 65.628714 109.058205 64.792692 108.18 64.28566 
" clip-path="url(#p1e8c3a47b6)" style="fill: none; stroke: #000000; stroke-width: 2; stroke-linejoin: miter"/>
   </g>
   <g id="patch_8">
    <path d="M 100.53 77.535849 
C 101.408205 78.042881 102.452972 78.180427 103.432483 77.917968 
C 104.411993 77.655509 105.248015 77.014007 105.755047 76.135802 
C 106.262079 75.257597 106.399625 74.21283 106.137166 73.233319 
C 105.874707 72.253808 105.233205 71.417787 104.355 70.910755 
" clip-path="url(#p1e8c3a47b6)" style="fill: none; stroke: #000000; stroke-width: 2; stroke-linejoin: miter"/>
   </g>
   <g id="patch_9">
    <path d="M 96.705 84.160943 
C 97.583205 84.667975 98.627972 84.805522 99.607483 84.543063 
C 100.586993 84.280603 101.423015 83.639101 101.930047 82.760896 
C 102.437079 81.882691 102.574625 80.837924 102.312166 79.858413 
C 102.049707 78.878903 101.408205 78.042881 100.53 77.535849 
" clip-path="url(#p1e8c3a47b6)" style="fill: none; stroke: #000000; stroke-width: 2; stroke-linejoin: miter"/>
   </g>
   <g id="line2d_1">
    <path d="M 12.555 17.91 
L 73.755 17.91 
M 66.105 10.26 
L 81.405 25.56 
M 81.405 10.26 
L 66.105 25.56 
M 73.755 17.91 
L 134.955 17.91 
" clip-path="url(#p1e8c3a47b6)" style="fill: none; stroke: #000000; stroke-width: 2; stroke-linecap: round"/>
   </g>
   <g id="line2d_2">
    <path d="M 12.555 17.91 
L 27.855 44.410377 
" clip-path="url(#p1e8c3a47b6)" style="fill: none; stroke: #000000; stroke-width: 2; stroke-linecap: round"/>
   </g>
   <g id="line2d_3">
    <path d="M 73.755 123.911509 
L 58.455 97.411132 
" clip-path="url(#p1e8c3a47b6)" style="fill: none; stroke: #000000; stroke-width: 2; stroke-linecap: round"/>
   </g>
   <g id="line2d_4">
    <path d="M 41.988535 36.250377 
L 13.721465 52.570377 
" clip-path="url(#p1e8c3a47b6)" style="fill: none; stroke: #000000; stroke-width: 2; stroke-linecap: round"/>
   </g>
   <g id="line2d_5">
    <path d="M 72.588535 89.251132 
L 44.321465 105.571132 
" clip-path="url(#p1e8c3a47b6)" style="fill: none; stroke: #000000; stroke-width: 2; stroke-linecap: round"/>
   </g>
   <g id="line2d_6">
    <path d="M 27.855 44.410377 
L 41.778 68.525721 
M 48.403094 64.700721 
L 35.152906 72.350721 
M 51.157094 69.470789 
L 37.906906 77.120789 
M 44.532 73.295789 
L 58.455 97.411132 
" clip-path="url(#p1e8c3a47b6)" style="fill: none; stroke: #000000; stroke-width: 2; stroke-linecap: round"/>
   </g>
   <g id="line2d_7">
    <path d="M 41.988535 36.250377 
L 57.288535 62.750755 
M 60.088629 52.30066 
L 54.48844 73.200849 
M 67.738629 65.550849 
L 46.83844 59.95066 
M 57.288535 62.750755 
L 72.588535 89.251132 
" clip-path="url(#p1e8c3a47b6)" style="fill: none; stroke: #000000; stroke-width: 2; stroke-linecap: round"/>
   </g>
   <g id="line2d_8">
    <path d="M 13.721465 52.570377 
L 21.371465 65.820566 
M 36.671465 92.320943 
L 44.321465 105.571132 
" clip-path="url(#p1e8c3a47b6)" style="fill: none; stroke: #000000; stroke-width: 2; stroke-linecap: round"/>
   </g>
   <g id="line2d_9">
    <path d="M 134.955 17.91 
L 112.005 57.660566 
M 96.705 84.160943 
L 73.755 123.911509 
" clip-path="url(#p1e8c3a47b6)" style="fill: none; stroke: #000000; stroke-width: 2; stroke-linecap: round"/>
   </g>
   <g id="line2d_10">
    <path d="M 196.155 123.911509 
L 180.855 97.411132 
" clip-path="url(#p1e8c3a47b6)" style="fill: none; stroke: #000000; stroke-width: 2; stroke-linecap: round"/>
   </g>
   <g id="line2d_11">
    <path d="M 134.955 17.91 
L 150.255 44.410377 
" clip-path="url(#p1e8c3a47b6)" style="fill: none; stroke: #000000; stroke-width: 2; stroke-linecap: round"/>
   </g>
   <g id="line2d_12">
    <path d="M 170.254849 103.531132 
L 191.455151 91.291132 
" clip-path="url(#p1e8c3a47b6)" style="fill: none; stroke: #000000; stroke-width: 2; stroke-linecap: round"/>
   </g>
   <g id="line2d_13">
    <path d="M 139.654849 50.530377 
L 160.855151 38.290377 
" clip-path="url(#p1e8c3a47b6)" style="fill: none; stroke: #000000; stroke-width: 2; stroke-linecap: round"/>
   </g>
   <g id="line2d_14">
    <path d="M 170.254849 103.531132 
L 156.331849 79.415789 
M 149.706755 83.240789 
L 162.956943 75.590789 
M 146.952755 78.470721 
L 160.202943 70.820721 
M 153.577849 74.645721 
L 139.654849 50.530377 
" clip-path="url(#p1e8c3a47b6)" style="fill: none; stroke: #000000; stroke-width: 2; stroke-linecap: round"/>
   </g>
   <g id="line2d_15">
    <path d="M 191.455151 91.291132 
L 176.155151 64.790755 
M 173.355057 75.240849 
L 178.955245 54.34066 
M 165.705057 61.99066 
L 186.605245 67.590849 
M 176.155151 64.790755 
L 160.855151 38.290377 
" clip-path="url(#p1e8c3a47b6)" style="fill: none; stroke: #000000; stroke-width: 2; stroke-linecap: round"/>
   </g>
   <g id="line2d_16">
    <path d="M 196.155 123.911509 
L 165.555 123.911509 
" clip-path="url(#p1e8c3a47b6)" style="fill: none; stroke: #000000; stroke-width: 2; stroke-linecap: round"/>
   </g>
   <g id="line2d_17">
    <path d="M 73.755 123.911509 
L 104.355 123.911509 
" clip-path="url(#p1e8c3a47b6)" style="fill: none; stroke: #000000; stroke-width: 2; stroke-linecap: round"/>
   </g>
   <g id="line2d_18">
    <path d="M 165.555 136.151509 
L 165.555 111.671509 
" clip-path="url(#p1e8c3a47b6)" style="fill: none; stroke: #000000; stroke-width: 2; stroke-linecap: round"/>
   </g>
   <g id="line2d_19">
    <path d="M 104.355 136.151509 
L 104.355 111.671509 
" clip-path="url(#p1e8c3a47b6)" style="fill: none; stroke: #000000; stroke-width: 2; stroke-linecap: round"/>
   </g>
   <g id="line2d_20">
    <path d="M 165.555 136.151509 
L 137.709 136.151509 
M 137.709 143.801509 
L 137.709 128.501509 
M 132.201 143.801509 
L 132.201 128.501509 
M 132.201 136.151509 
L 104.355 136.151509 
" clip-path="url(#p1e8c3a47b6)" style="fill: none; stroke: #000000; stroke-width: 2; stroke-linecap: round"/>
   </g>
   <g id="line2d_21">
    <path d="M 165.555 111.671509 
L 134.955 111.671509 
M 142.605 119.321509 
L 127.305 104.021509 
M 127.305 119.321509 
L 142.605 104.021509 
M 134.955 111.671509 
L 104.355 111.671509 
" clip-path="url(#p1e8c3a47b6)" style="fill: none; stroke: #000000; stroke-width: 2; stroke-linecap: round"/>
   </g>
   <g id="patch_10">
    <path d="M 12.555 20.205 
C 13.163641 20.205 13.747436 19.963184 14.17781 19.53281 
C 14.608184 19.102436 14.85 18.518641 14.85 17.91 
C 14.85 17.301359 14.608184 16.717564 14.17781 16.28719 
C 13.747436 15.856816 13.163641 15.615 12.555 15.615 
C 11.946359 15.615 11.362564 15.856816 10.93219 16.28719 
C 10.501816 16.717564 10.26 17.301359 10.26 17.91 
C 10.26 18.518641 10.501816 19.102436 10.93219 19.53281 
C 11.362564 19.963184 11.946359 20.205 12.555 20.205 
z
" clip-path="url(#p1e8c3a47b6)" style="stroke: #000000; stroke-width: 2; stroke-linejoin: miter"/>
   </g>
   <g id="patch_11">
    <path d="M 134.955 20.205 
C 135.563641 20.205 136.147436 19.963184 136.57781 19.53281 
C 137.008184 19.102436 137.25 18.518641 137.25 17.91 
C 137.25 17.301359 137.008184 16.717564 136.57781 16.28719 
C 136.147436 15.856816 135.563641 15.615 134.955 15.615 
C 134.346359 15.615 133.762564 15.856816 133.33219 16.28719 
C 132.901816 16.717564 132.66 17.301359 132.66 17.91 
C 132.66 18.518641 132.901816 19.102436 133.33219 19.53281 
C 133.762564 19.963184 134.346359 20.205 134.955 20.205 
z
" clip-path="url(#p1e8c3a47b6)" style="stroke: #000000; stroke-width: 2; stroke-linejoin: miter"/>
   </g>
   <g id="patch_12">
    <path d="M 73.755 126.206509 
C 74.363641 126.206509 74.947436 125.964694 75.37781 125.534319 
C 75.808184 125.103945 76.05 124.520151 76.05 123.911509 
C 76.05 123.302868 75.808184 122.719074 75.37781 122.288699 
C 74.947436 121.858325 74.363641 121.616509 73.755 121.616509 
C 73.146359 121.616509 72.562564 121.858325 72.13219 122.288699 
C 71.701816 122.719074 71.46 123.302868 71.46 123.911509 
C 71.46 124.520151 71.701816 125.103945 72.13219 125.534319 
C 72.562564 125.964694 73.146359 126.206509 73.755 126.206509 
z
" clip-path="url(#p1e8c3a47b6)" style="stroke: #000000; stroke-width: 2; stroke-linejoin: miter"/>
   </g>
   <g id="patch_13">
    <path d="M 196.155 126.206509 
C 196.763641 126.206509 197.347436 125.964694 197.77781 125.534319 
C 198.208184 125.103945 198.45 124.520151 198.45 123.911509 
C 198.45 123.302868 198.208184 122.719074 197.77781 122.288699 
C 197.347436 121.858325 196.763641 121.616509 196.155 121.616509 
C 195.546359 121.616509 194.962564 121.858325 194.53219 122.288699 
C 194.101816 122.719074 193.86 123.302868 193.86 123.911509 
C 193.86 124.520151 194.101816 125.103945 194.53219 125.534319 
C 194.962564 125.964694 195.546359 126.206509 196.155 126.206509 
z
" clip-path="url(#p1e8c3a47b6)" style="stroke: #000000; stroke-width: 2; stroke-linejoin: miter"/>
   </g>
  </g>
 </g>
 <defs>
  <clipPath id="p1e8c3a47b6">
   <rect x="7.2" y="7.2" width="194.31" height="139.661509"/>
  </clipPath>
 </defs>
</svg>
