<?xml version="1.0" encoding="utf-8" standalone="no"?>
<!DOCTYPE svg PUBLIC "-//W3C//DTD SVG 1.1//EN"
  "http://www.w3.org/Graphics/SVG/1.1/DTD/svg11.dtd">
<svg xmlns:xlink="http://www.w3.org/1999/xlink" width="208.71pt" height="154.061509pt" viewBox="0 0 208.71 154.061509" xmlns="http://www.w3.org/2000/svg" version="1.1">
 <metadata>
  <rdf:RDF xmlns:dc="http://purl.org/dc/elements/1.1/" xmlns:cc="http://creativecommons.org/ns#" xmlns:rdf="http://www.w3.org/1999/02/22-rdf-syntax-ns#">
   <cc:Work>
    <dc:type rdf:resource="http://purl.org/dc/dcmitype/StillImage"/>
    <dc:date>2023-03-23T14:46:40.161000</dc:date>
    <dc:format>image/svg+xml</dc:format>
    <dc:creator>
     <cc:Agent>
      <dc:title>Matplotlib v3.5.2, https://matplotlib.org/</dc:title>
     </cc:Agent>
    </dc:creator>
   </cc:Work>
  </rdf:RDF>
 </metadata>
 <defs>
  <style type="text/css">*{stroke-linejoin: round; stroke-linecap: butt}</style>
 </defs>
 <g id="figure_1">
  <g id="patch_1">
   <path d="M 0 154.061509 
L 208.71 154.061509 
L 208.71 0 
L 0 0 
L 0 154.061509 
z
" style="fill: none"/>
  </g>
  <g id="axes_1">
   <g id="patch_2">
    <path d="M 25.196465 72.44566 
C 26.074671 71.938628 26.716173 71.102607 26.978632 70.123096 
C 27.241091 69.143585 27.103545 68.098818 26.596513 67.220613 
C 26.089481 66.342408 25.253459 65.700906 24.273948 65.438447 
C 23.294438 65.175988 22.249671 65.313534 21.371465 65.820566 
" clip-path="url(#p8644e2df0c)" style="fill: none; stroke: #000000; stroke-width: 2; stroke-linejoin: miter"/>
   </g>
   <g id="patch_3">
    <path d="M 29.021465 79.070755 
C 29.899671 78.563723 30.541173 77.727701 30.803632 76.74819 
C 31.066091 75.76868 30.928545 74.723913 30.421513 73.845708 
C 29.914481 72.967502 29.078459 72.326 28.098948 72.063541 
C 27.119438 71.801082 26.074671 71.938628 25.196465 72.44566 
" clip-path="url(#p8644e2df0c)" style="fill: none; stroke: #000000; stroke-width: 2; stroke-linejoin: miter"/>
   </g>
   <g id="patch_4">
    <path d="M 32.846465 85.695849 
C 33.724671 85.188817 34.366173 84.352795 34.628632 83.373285 
C 34.891091 82.393774 34.753545 81.349007 34.246513 80.470802 
C 33.739481 79.592597 32.903459 78.951095 31.923948 78.688636 
C 30.944438 78.426177 29.899671 78.563723 29.021465 79.070755 
" clip-path="url(#p8644e2df0c)" style="fill: none; stroke: #000000; stroke-width: 2; stroke-linejoin: miter"/>
   </g>
   <g id="patch_5">
    <path d="M 36.671465 92.320943 
C 37.549671 91.813911 38.191173 90.97789 38.453632 89.998379 
C 38.716091 89.018868 38.578545 87.974101 38.071513 87.095896 
C 37.564481 86.217691 36.728459 85.576189 35.748948 85.31373 
C 34.769438 85.051271 33.724671 85.188817 32.846465 85.695849 
" clip-path="url(#p8644e2df0c)" style="fill: none; stroke: #000000; stroke-width: 2; stroke-linejoin: miter"/>
   </g>
   <g id="patch_6">
    <path d="M 169.38 77.535849 
C 168.501795 78.042881 167.860293 78.878903 167.597834 79.858413 
C 167.335375 80.837924 167.472921 81.882691 167.979953 82.760896 
C 168.486985 83.639101 169.323007 84.280603 170.302517 84.543063 
C 171.282028 84.805522 172.326795 84.667975 173.205 84.160943 
" clip-path="url(#p8644e2df0c)" style="fill: none; stroke: #000000; stroke-width: 2; stroke-linejoin: miter"/>
   </g>
   <g id="patch_7">
    <path d="M 165.555 70.910755 
C 164.676795 71.417787 164.035293 72.253808 163.772834 73.233319 
C 163.510375 74.21283 163.647921 75.257597 164.154953 76.135802 
C 164.661985 77.014007 165.498007 77.655509 166.477517 77.917968 
C 167.457028 78.180427 168.501795 78.042881 169.38 77.535849 
" clip-path="url(#p8644e2df0c)" style="fill: none; stroke: #000000; stroke-width: 2; stroke-linejoin: miter"/>
   </g>
   <g id="patch_8">
    <path d="M 161.73 64.28566 
C 160.851795 64.792692 160.210293 65.628714 159.947834 66.608225 
C 159.685375 67.587735 159.822921 68.632502 160.329953 69.510708 
C 160.836985 70.388913 161.673007 71.030415 162.652517 71.292874 
C 163.632028 71.555333 164.676795 71.417787 165.555 70.910755 
" clip-path="url(#p8644e2df0c)" style="fill: none; stroke: #000000; stroke-width: 2; stroke-linejoin: miter"/>
   </g>
   <g id="patch_9">
    <path d="M 157.905 57.660566 
C 157.026795 58.167598 156.385293 59.00362 156.122834 59.98313 
C 155.860375 60.962641 155.997921 62.007408 156.504953 62.885613 
C 157.011985 63.763818 157.848007 64.40532 158.827517 64.667779 
C 159.807028 64.930239 160.851795 64.792692 161.73 64.28566 
" clip-path="url(#p8644e2df0c)" style="fill: none; stroke: #000000; stroke-width: 2; stroke-linejoin: miter"/>
   </g>
   <g id="patch_10">
    <path d="M 142.605 111.671509 
C 142.605 112.685573 143.008265 113.659141 143.725317 114.376193 
C 144.442368 115.093244 145.415936 115.496509 146.43 115.496509 
C 147.444064 115.496509 148.417632 115.093244 149.134683 114.376193 
C 149.851735 113.659141 150.255 112.685573 150.255 111.671509 
" clip-path="url(#p8644e2df0c)" style="fill: none; stroke: #000000; stroke-width: 2; stroke-linejoin: miter"/>
   </g>
   <g id="patch_11">
    <path d="M 134.955 111.671509 
C 134.955 112.685573 135.358265 113.659141 136.075317 114.376193 
C 136.792368 115.093244 137.765936 115.496509 138.78 115.496509 
C 139.794064 115.496509 140.767632 115.093244 141.484683 114.376193 
C 142.201735 113.659141 142.605 112.685573 142.605 111.671509 
" clip-path="url(#p8644e2df0c)" style="fill: none; stroke: #000000; stroke-width: 2; stroke-linejoin: miter"/>
   </g>
   <g id="patch_12">
    <path d="M 127.305 111.671509 
C 127.305 112.685573 127.708265 113.659141 128.425317 114.376193 
C 129.142368 115.093244 130.115936 115.496509 131.13 115.496509 
C 132.144064 115.496509 133.117632 115.093244 133.834683 114.376193 
C 134.551735 113.659141 134.955 112.685573 134.955 111.671509 
" clip-path="url(#p8644e2df0c)" style="fill: none; stroke: #000000; stroke-width: 2; stroke-linejoin: miter"/>
   </g>
   <g id="patch_13">
    <path d="M 119.655 111.671509 
C 119.655 112.685573 120.058265 113.659141 120.775317 114.376193 
C 121.492368 115.093244 122.465936 115.496509 123.48 115.496509 
C 124.494064 115.496509 125.467632 115.093244 126.184683 114.376193 
C 126.901735 113.659141 127.305 112.685573 127.305 111.671509 
" clip-path="url(#p8644e2df0c)" style="fill: none; stroke: #000000; stroke-width: 2; stroke-linejoin: miter"/>
   </g>
   <g id="line2d_1">
    <path d="M 12.555 17.91 
L 71.001 17.91 
M 71.001 10.26 
L 71.001 25.56 
M 76.509 10.26 
L 76.509 25.56 
M 76.509 17.91 
L 134.955 17.91 
" clip-path="url(#p8644e2df0c)" style="fill: none; stroke: #000000; stroke-width: 2; stroke-linecap: round"/>
   </g>
   <g id="line2d_2">
    <path d="M 12.555 17.91 
L 27.855 44.410377 
" clip-path="url(#p8644e2df0c)" style="fill: none; stroke: #000000; stroke-width: 2; stroke-linecap: round"/>
   </g>
   <g id="line2d_3">
    <path d="M 73.755 123.911509 
L 58.455 97.411132 
" clip-path="url(#p8644e2df0c)" style="fill: none; stroke: #000000; stroke-width: 2; stroke-linecap: round"/>
   </g>
   <g id="line2d_4">
    <path d="M 41.988535 36.250377 
L 13.721465 52.570377 
" clip-path="url(#p8644e2df0c)" style="fill: none; stroke: #000000; stroke-width: 2; stroke-linecap: round"/>
   </g>
   <g id="line2d_5">
    <path d="M 72.588535 89.251132 
L 44.321465 105.571132 
" clip-path="url(#p8644e2df0c)" style="fill: none; stroke: #000000; stroke-width: 2; stroke-linecap: round"/>
   </g>
   <g id="line2d_6">
    <path d="M 27.855 44.410377 
L 41.778 68.525721 
M 48.403094 64.700721 
L 35.152906 72.350721 
M 51.157094 69.470789 
L 37.906906 77.120789 
M 44.532 73.295789 
L 58.455 97.411132 
" clip-path="url(#p8644e2df0c)" style="fill: none; stroke: #000000; stroke-width: 2; stroke-linecap: round"/>
   </g>
   <g id="line2d_7">
    <path d="M 41.988535 36.250377 
L 57.288535 62.750755 
M 60.088629 52.30066 
L 54.48844 73.200849 
M 67.738629 65.550849 
L 46.83844 59.95066 
M 57.288535 62.750755 
L 72.588535 89.251132 
" clip-path="url(#p8644e2df0c)" style="fill: none; stroke: #000000; stroke-width: 2; stroke-linecap: round"/>
   </g>
   <g id="line2d_8">
    <path d="M 13.721465 52.570377 
L 21.371465 65.820566 
M 36.671465 92.320943 
L 44.321465 105.571132 
" clip-path="url(#p8644e2df0c)" style="fill: none; stroke: #000000; stroke-width: 2; stroke-linecap: round"/>
   </g>
   <g id="line2d_9">
    <path d="M 134.955 17.91 
L 104.355 70.910755 
M 114.805094 68.11066 
L 93.904906 73.710849 
M 107.155094 81.360849 
L 101.554906 60.46066 
M 104.355 70.910755 
L 73.755 123.911509 
" clip-path="url(#p8644e2df0c)" style="fill: none; stroke: #000000; stroke-width: 2; stroke-linecap: round"/>
   </g>
   <g id="line2d_10">
    <path d="M 196.155 123.911509 
L 173.205 84.160943 
M 157.905 57.660566 
L 134.955 17.91 
" clip-path="url(#p8644e2df0c)" style="fill: none; stroke: #000000; stroke-width: 2; stroke-linecap: round"/>
   </g>
   <g id="line2d_11">
    <path d="M 196.155 123.911509 
L 165.555 123.911509 
" clip-path="url(#p8644e2df0c)" style="fill: none; stroke: #000000; stroke-width: 2; stroke-linecap: round"/>
   </g>
   <g id="line2d_12">
    <path d="M 73.755 123.911509 
L 104.355 123.911509 
" clip-path="url(#p8644e2df0c)" style="fill: none; stroke: #000000; stroke-width: 2; stroke-linecap: round"/>
   </g>
   <g id="line2d_13">
    <path d="M 165.555 136.151509 
L 165.555 111.671509 
" clip-path="url(#p8644e2df0c)" style="fill: none; stroke: #000000; stroke-width: 2; stroke-linecap: round"/>
   </g>
   <g id="line2d_14">
    <path d="M 104.355 136.151509 
L 104.355 111.671509 
" clip-path="url(#p8644e2df0c)" style="fill: none; stroke: #000000; stroke-width: 2; stroke-linecap: round"/>
   </g>
   <g id="line2d_15">
    <path d="M 165.555 136.151509 
L 137.709 136.151509 
M 137.709 143.801509 
L 137.709 128.501509 
M 132.201 143.801509 
L 132.201 128.501509 
M 132.201 136.151509 
L 104.355 136.151509 
" clip-path="url(#p8644e2df0c)" style="fill: none; stroke: #000000; stroke-width: 2; stroke-linecap: round"/>
   </g>
   <g id="line2d_16">
    <path d="M 165.555 111.671509 
L 150.255 111.671509 
M 119.655 111.671509 
L 104.355 111.671509 
" clip-path="url(#p8644e2df0c)" style="fill: none; stroke: #000000; stroke-width: 2; stroke-linecap: round"/>
   </g>
   <g id="patch_14">
    <path d="M 12.555 20.205 
C 13.163641 20.205 13.747436 19.963184 14.17781 19.53281 
C 14.608184 19.102436 14.85 18.518641 14.85 17.91 
C 14.85 17.301359 14.608184 16.717564 14.17781 16.28719 
C 13.747436 15.856816 13.163641 15.615 12.555 15.615 
C 11.946359 15.615 11.362564 15.856816 10.93219 16.28719 
C 10.501816 16.717564 10.26 17.301359 10.26 17.91 
C 10.26 18.518641 10.501816 19.102436 10.93219 19.53281 
C 11.362564 19.963184 11.946359 20.205 12.555 20.205 
z
" clip-path="url(#p8644e2df0c)" style="stroke: #000000; stroke-width: 2; stroke-linejoin: miter"/>
   </g>
   <g id="patch_15">
    <path d="M 134.955 20.205 
C 135.563641 20.205 136.147436 19.963184 136.57781 19.53281 
C 137.008184 19.102436 137.25 18.518641 137.25 17.91 
C 137.25 17.301359 137.008184 16.717564 136.57781 16.28719 
C 136.147436 15.856816 135.563641 15.615 134.955 15.615 
C 134.346359 15.615 133.762564 15.856816 133.33219 16.28719 
C 132.901816 16.717564 132.66 17.301359 132.66 17.91 
C 132.66 18.518641 132.901816 19.102436 133.33219 19.53281 
C 133.762564 19.963184 134.346359 20.205 134.955 20.205 
z
" clip-path="url(#p8644e2df0c)" style="stroke: #000000; stroke-width: 2; stroke-linejoin: miter"/>
   </g>
   <g id="patch_16">
    <path d="M 73.755 126.206509 
C 74.363641 126.206509 74.947436 125.964694 75.37781 125.534319 
C 75.808184 125.103945 76.05 124.520151 76.05 123.911509 
C 76.05 123.302868 75.808184 122.719074 75.37781 122.288699 
C 74.947436 121.858325 74.363641 121.616509 73.755 121.616509 
C 73.146359 121.616509 72.562564 121.858325 72.13219 122.288699 
C 71.701816 122.719074 71.46 123.302868 71.46 123.911509 
C 71.46 124.520151 71.701816 125.103945 72.13219 125.534319 
C 72.562564 125.964694 73.146359 126.206509 73.755 126.206509 
z
" clip-path="url(#p8644e2df0c)" style="stroke: #000000; stroke-width: 2; stroke-linejoin: miter"/>
   </g>
   <g id="patch_17">
    <path d="M 196.155 126.206509 
C 196.763641 126.206509 197.347436 125.964694 197.77781 125.534319 
C 198.208184 125.103945 198.45 124.520151 198.45 123.911509 
C 198.45 123.302868 198.208184 122.719074 197.77781 122.288699 
C 197.347436 121.858325 196.763641 121.616509 196.155 121.616509 
C 195.546359 121.616509 194.962564 121.858325 194.53219 122.288699 
C 194.101816 122.719074 193.86 123.302868 193.86 123.911509 
C 193.86 124.520151 194.101816 125.103945 194.53219 125.534319 
C 194.962564 125.964694 195.546359 126.206509 196.155 126.206509 
z
" clip-path="url(#p8644e2df0c)" style="stroke: #000000; stroke-width: 2; stroke-linejoin: miter"/>
   </g>
  </g>
 </g>
 <defs>
  <clipPath id="p8644e2df0c">
   <rect x="7.2" y="7.2" width="194.31" height="139.661509"/>
  </clipPath>
 </defs>
</svg>
