<?xml version="1.0" encoding="utf-8" standalone="no"?>
<!DOCTYPE svg PUBLIC "-//W3C//DTD SVG 1.1//EN"
  "http://www.w3.org/Graphics/SVG/1.1/DTD/svg11.dtd">
<svg xmlns:xlink="http://www.w3.org/1999/xlink" width="208.71pt" height="154.31649pt" viewBox="0 0 208.71 154.31649" xmlns="http://www.w3.org/2000/svg" version="1.1">
 <metadata>
  <rdf:RDF xmlns:dc="http://purl.org/dc/elements/1.1/" xmlns:cc="http://creativecommons.org/ns#" xmlns:rdf="http://www.w3.org/1999/02/22-rdf-syntax-ns#">
   <cc:Work>
    <dc:type rdf:resource="http://purl.org/dc/dcmitype/StillImage"/>
    <dc:date>2023-03-23T14:48:07.619186</dc:date>
    <dc:format>image/svg+xml</dc:format>
    <dc:creator>
     <cc:Agent>
      <dc:title>Matplotlib v3.5.2, https://matplotlib.org/</dc:title>
     </cc:Agent>
    </dc:creator>
   </cc:Work>
  </rdf:RDF>
 </metadata>
 <defs>
  <style type="text/css">*{stroke-linejoin: round; stroke-linecap: butt}</style>
 </defs>
 <g id="figure_1">
  <g id="patch_1">
   <path d="M 0 154.31649 
L 208.71 154.31649 
L 208.71 0 
L 0 0 
L 0 154.31649 
z
" style="fill: none"/>
  </g>
  <g id="axes_1">
   <g id="patch_2">
    <path d="M 66.105 14.084981 
C 66.105 13.070917 65.701735 12.097349 64.984683 11.380298 
C 64.267632 10.663246 63.294064 10.259981 62.28 10.259981 
C 61.265936 10.259981 60.292368 10.663246 59.575317 11.380298 
C 58.858265 12.097349 58.455 13.070917 58.455 14.084981 
" clip-path="url(#p8cb0f0c7cc)" style="fill: none; stroke: #000000; stroke-width: 2; stroke-linejoin: miter"/>
   </g>
   <g id="patch_3">
    <path d="M 73.755 14.084981 
C 73.755 13.070917 73.351735 12.097349 72.634683 11.380298 
C 71.917632 10.663246 70.944064 10.259981 69.93 10.259981 
C 68.915936 10.259981 67.942368 10.663246 67.225317 11.380298 
C 66.508265 12.097349 66.105 13.070917 66.105 14.084981 
" clip-path="url(#p8cb0f0c7cc)" style="fill: none; stroke: #000000; stroke-width: 2; stroke-linejoin: miter"/>
   </g>
   <g id="patch_4">
    <path d="M 81.405 14.084981 
C 81.405 13.070917 81.001735 12.097349 80.284683 11.380298 
C 79.567632 10.663246 78.594064 10.259981 77.58 10.259981 
C 76.565936 10.259981 75.592368 10.663246 74.875317 11.380298 
C 74.158265 12.097349 73.755 13.070917 73.755 14.084981 
" clip-path="url(#p8cb0f0c7cc)" style="fill: none; stroke: #000000; stroke-width: 2; stroke-linejoin: miter"/>
   </g>
   <g id="patch_5">
    <path d="M 89.055 14.084981 
C 89.055 13.070917 88.651735 12.097349 87.934683 11.380298 
C 87.217632 10.663246 86.244064 10.259981 85.23 10.259981 
C 84.215936 10.259981 83.242368 10.663246 82.525317 11.380298 
C 81.808265 12.097349 81.405 13.070917 81.405 14.084981 
" clip-path="url(#p8cb0f0c7cc)" style="fill: none; stroke: #000000; stroke-width: 2; stroke-linejoin: miter"/>
   </g>
   <g id="patch_6">
    <path d="M 28.729849 66.580641 
C 29.608054 66.073609 30.249556 65.237588 30.512015 64.258077 
C 30.774474 63.278566 30.636928 62.233799 30.129896 61.355594 
C 29.622864 60.477389 28.786843 59.835887 27.807332 59.573428 
C 26.827821 59.310969 25.783054 59.448515 24.904849 59.955547 
" clip-path="url(#p8cb0f0c7cc)" style="fill: none; stroke: #000000; stroke-width: 2; stroke-linejoin: miter"/>
   </g>
   <g id="patch_7">
    <path d="M 32.554849 73.205736 
C 33.433054 72.698704 34.074556 71.862682 34.337015 70.883171 
C 34.599474 69.903661 34.461928 68.858894 33.954896 67.980689 
C 33.447864 67.102483 32.611843 66.460981 31.632332 66.198522 
C 30.652821 65.936063 29.608054 66.073609 28.729849 66.580641 
" clip-path="url(#p8cb0f0c7cc)" style="fill: none; stroke: #000000; stroke-width: 2; stroke-linejoin: miter"/>
   </g>
   <g id="patch_8">
    <path d="M 36.379849 79.83083 
C 37.258054 79.323798 37.899556 78.487776 38.162015 77.508266 
C 38.424474 76.528755 38.286928 75.483988 37.779896 74.605783 
C 37.272864 73.727578 36.436843 73.086076 35.457332 72.823617 
C 34.477821 72.561158 33.433054 72.698704 32.554849 73.205736 
" clip-path="url(#p8cb0f0c7cc)" style="fill: none; stroke: #000000; stroke-width: 2; stroke-linejoin: miter"/>
   </g>
   <g id="patch_9">
    <path d="M 40.204849 86.455924 
C 41.083054 85.948892 41.724556 85.112871 41.987015 84.13336 
C 42.249474 83.15385 42.111928 82.109082 41.604896 81.230877 
C 41.097864 80.352672 40.261843 79.71117 39.282332 79.448711 
C 38.302821 79.186252 37.258054 79.323798 36.379849 79.83083 
" clip-path="url(#p8cb0f0c7cc)" style="fill: none; stroke: #000000; stroke-width: 2; stroke-linejoin: miter"/>
   </g>
   <g id="patch_10">
    <path d="M 108.18 60.460641 
C 109.058205 60.967673 110.102972 61.10522 111.082483 60.842761 
C 112.061993 60.580301 112.898015 59.938799 113.405047 59.060594 
C 113.912079 58.182389 114.049625 57.137622 113.787166 56.158111 
C 113.524707 55.178601 112.883205 54.342579 112.005 53.835547 
" clip-path="url(#p8cb0f0c7cc)" style="fill: none; stroke: #000000; stroke-width: 2; stroke-linejoin: miter"/>
   </g>
   <g id="patch_11">
    <path d="M 104.355 67.085736 
C 105.233205 67.592768 106.277972 67.730314 107.257483 67.467855 
C 108.236993 67.205396 109.073015 66.563894 109.580047 65.685689 
C 110.087079 64.807483 110.224625 63.762716 109.962166 62.783206 
C 109.699707 61.803695 109.058205 60.967673 108.18 60.460641 
" clip-path="url(#p8cb0f0c7cc)" style="fill: none; stroke: #000000; stroke-width: 2; stroke-linejoin: miter"/>
   </g>
   <g id="patch_12">
    <path d="M 100.53 73.71083 
C 101.408205 74.217862 102.452972 74.355408 103.432483 74.092949 
C 104.411993 73.83049 105.248015 73.188988 105.755047 72.310783 
C 106.262079 71.432578 106.399625 70.387811 106.137166 69.4083 
C 105.874707 68.428789 105.233205 67.592768 104.355 67.085736 
" clip-path="url(#p8cb0f0c7cc)" style="fill: none; stroke: #000000; stroke-width: 2; stroke-linejoin: miter"/>
   </g>
   <g id="patch_13">
    <path d="M 96.705 80.335924 
C 97.583205 80.842956 98.627972 80.980503 99.607483 80.718044 
C 100.586993 80.455584 101.423015 79.814082 101.930047 78.935877 
C 102.437079 78.057672 102.574625 77.012905 102.312166 76.033394 
C 102.049707 75.053884 101.408205 74.217862 100.53 73.71083 
" clip-path="url(#p8cb0f0c7cc)" style="fill: none; stroke: #000000; stroke-width: 2; stroke-linejoin: miter"/>
   </g>
   <g id="patch_14">
    <path d="M 169.38 73.71083 
C 168.501795 74.217862 167.860293 75.053884 167.597834 76.033394 
C 167.335375 77.012905 167.472921 78.057672 167.979953 78.935877 
C 168.486985 79.814082 169.323007 80.455584 170.302517 80.718044 
C 171.282028 80.980503 172.326795 80.842956 173.205 80.335924 
" clip-path="url(#p8cb0f0c7cc)" style="fill: none; stroke: #000000; stroke-width: 2; stroke-linejoin: miter"/>
   </g>
   <g id="patch_15">
    <path d="M 165.555 67.085736 
C 164.676795 67.592768 164.035293 68.428789 163.772834 69.4083 
C 163.510375 70.387811 163.647921 71.432578 164.154953 72.310783 
C 164.661985 73.188988 165.498007 73.83049 166.477517 74.092949 
C 167.457028 74.355408 168.501795 74.217862 169.38 73.71083 
" clip-path="url(#p8cb0f0c7cc)" style="fill: none; stroke: #000000; stroke-width: 2; stroke-linejoin: miter"/>
   </g>
   <g id="patch_16">
    <path d="M 161.73 60.460641 
C 160.851795 60.967673 160.210293 61.803695 159.947834 62.783206 
C 159.685375 63.762716 159.822921 64.807483 160.329953 65.685689 
C 160.836985 66.563894 161.673007 67.205396 162.652517 67.467855 
C 163.632028 67.730314 164.676795 67.592768 165.555 67.085736 
" clip-path="url(#p8cb0f0c7cc)" style="fill: none; stroke: #000000; stroke-width: 2; stroke-linejoin: miter"/>
   </g>
   <g id="patch_17">
    <path d="M 157.905 53.835547 
C 157.026795 54.342579 156.385293 55.178601 156.122834 56.158111 
C 155.860375 57.137622 155.997921 58.182389 156.504953 59.060594 
C 157.011985 59.938799 157.848007 60.580301 158.827517 60.842761 
C 159.807028 61.10522 160.851795 60.967673 161.73 60.460641 
" clip-path="url(#p8cb0f0c7cc)" style="fill: none; stroke: #000000; stroke-width: 2; stroke-linejoin: miter"/>
   </g>
   <g id="patch_18">
    <path d="M 142.605 103.76649 
C 142.605 104.780554 143.008265 105.754122 143.725317 106.471174 
C 144.442368 107.188225 145.415936 107.59149 146.43 107.59149 
C 147.444064 107.59149 148.417632 107.188225 149.134683 106.471174 
C 149.851735 105.754122 150.255 104.780554 150.255 103.76649 
" clip-path="url(#p8cb0f0c7cc)" style="fill: none; stroke: #000000; stroke-width: 2; stroke-linejoin: miter"/>
   </g>
   <g id="patch_19">
    <path d="M 134.955 103.76649 
C 134.955 104.780554 135.358265 105.754122 136.075317 106.471174 
C 136.792368 107.188225 137.765936 107.59149 138.78 107.59149 
C 139.794064 107.59149 140.767632 107.188225 141.484683 106.471174 
C 142.201735 105.754122 142.605 104.780554 142.605 103.76649 
" clip-path="url(#p8cb0f0c7cc)" style="fill: none; stroke: #000000; stroke-width: 2; stroke-linejoin: miter"/>
   </g>
   <g id="patch_20">
    <path d="M 127.305 103.76649 
C 127.305 104.780554 127.708265 105.754122 128.425317 106.471174 
C 129.142368 107.188225 130.115936 107.59149 131.13 107.59149 
C 132.144064 107.59149 133.117632 107.188225 133.834683 106.471174 
C 134.551735 105.754122 134.955 104.780554 134.955 103.76649 
" clip-path="url(#p8cb0f0c7cc)" style="fill: none; stroke: #000000; stroke-width: 2; stroke-linejoin: miter"/>
   </g>
   <g id="patch_21">
    <path d="M 119.655 103.76649 
C 119.655 104.780554 120.058265 105.754122 120.775317 106.471174 
C 121.492368 107.188225 122.465936 107.59149 123.48 107.59149 
C 124.494064 107.59149 125.467632 107.188225 126.184683 106.471174 
C 126.901735 105.754122 127.305 104.780554 127.305 103.76649 
" clip-path="url(#p8cb0f0c7cc)" style="fill: none; stroke: #000000; stroke-width: 2; stroke-linejoin: miter"/>
   </g>
   <g id="line2d_1">
    <path d="M 12.555 14.084981 
L 58.455 14.084981 
M 89.055 14.084981 
L 134.955 14.084981 
" clip-path="url(#p8cb0f0c7cc)" style="fill: none; stroke: #000000; stroke-width: 2; stroke-linecap: round"/>
   </g>
   <g id="line2d_2">
    <path d="M 12.555 14.084981 
L 27.855 40.585358 
" clip-path="url(#p8cb0f0c7cc)" style="fill: none; stroke: #000000; stroke-width: 2; stroke-linecap: round"/>
   </g>
   <g id="line2d_3">
    <path d="M 73.755 120.08649 
L 58.455 93.586113 
" clip-path="url(#p8cb0f0c7cc)" style="fill: none; stroke: #000000; stroke-width: 2; stroke-linecap: round"/>
   </g>
   <g id="line2d_4">
    <path d="M 38.455151 34.465358 
L 17.254849 46.705358 
" clip-path="url(#p8cb0f0c7cc)" style="fill: none; stroke: #000000; stroke-width: 2; stroke-linecap: round"/>
   </g>
   <g id="line2d_5">
    <path d="M 69.055151 87.466113 
L 47.854849 99.706113 
" clip-path="url(#p8cb0f0c7cc)" style="fill: none; stroke: #000000; stroke-width: 2; stroke-linecap: round"/>
   </g>
   <g id="line2d_6">
    <path d="M 38.455151 34.465358 
L 53.755151 60.965736 
M 56.555245 50.515641 
L 50.955057 71.41583 
M 64.205245 63.76583 
L 43.305057 58.165641 
M 53.755151 60.965736 
L 69.055151 87.466113 
" clip-path="url(#p8cb0f0c7cc)" style="fill: none; stroke: #000000; stroke-width: 2; stroke-linecap: round"/>
   </g>
   <g id="line2d_7">
    <path d="M 17.254849 46.705358 
L 24.904849 59.955547 
M 40.204849 86.455924 
L 47.854849 99.706113 
" clip-path="url(#p8cb0f0c7cc)" style="fill: none; stroke: #000000; stroke-width: 2; stroke-linecap: round"/>
   </g>
   <g id="line2d_8">
    <path d="M 134.955 14.084981 
L 112.005 53.835547 
M 96.705 80.335924 
L 73.755 120.08649 
" clip-path="url(#p8cb0f0c7cc)" style="fill: none; stroke: #000000; stroke-width: 2; stroke-linecap: round"/>
   </g>
   <g id="line2d_9">
    <path d="M 196.155 120.08649 
L 173.205 80.335924 
M 157.905 53.835547 
L 134.955 14.084981 
" clip-path="url(#p8cb0f0c7cc)" style="fill: none; stroke: #000000; stroke-width: 2; stroke-linecap: round"/>
   </g>
   <g id="line2d_10">
    <path d="M 196.155 120.08649 
L 165.555 120.08649 
" clip-path="url(#p8cb0f0c7cc)" style="fill: none; stroke: #000000; stroke-width: 2; stroke-linecap: round"/>
   </g>
   <g id="line2d_11">
    <path d="M 73.755 120.08649 
L 104.355 120.08649 
" clip-path="url(#p8cb0f0c7cc)" style="fill: none; stroke: #000000; stroke-width: 2; stroke-linecap: round"/>
   </g>
   <g id="line2d_12">
    <path d="M 165.555 136.40649 
L 165.555 103.76649 
" clip-path="url(#p8cb0f0c7cc)" style="fill: none; stroke: #000000; stroke-width: 2; stroke-linecap: round"/>
   </g>
   <g id="line2d_13">
    <path d="M 104.355 136.40649 
L 104.355 103.76649 
" clip-path="url(#p8cb0f0c7cc)" style="fill: none; stroke: #000000; stroke-width: 2; stroke-linecap: round"/>
   </g>
   <g id="line2d_14">
    <path d="M 165.555 120.08649 
L 137.709 120.08649 
M 137.709 127.73649 
L 137.709 112.43649 
M 132.201 127.73649 
L 132.201 112.43649 
M 132.201 120.08649 
L 104.355 120.08649 
" clip-path="url(#p8cb0f0c7cc)" style="fill: none; stroke: #000000; stroke-width: 2; stroke-linecap: round"/>
   </g>
   <g id="line2d_15">
    <path d="M 165.555 136.40649 
L 134.955 136.40649 
M 142.605 144.05649 
L 127.305 128.75649 
M 127.305 144.05649 
L 142.605 128.75649 
M 134.955 136.40649 
L 104.355 136.40649 
" clip-path="url(#p8cb0f0c7cc)" style="fill: none; stroke: #000000; stroke-width: 2; stroke-linecap: round"/>
   </g>
   <g id="line2d_16">
    <path d="M 165.555 103.76649 
L 150.255 103.76649 
M 119.655 103.76649 
L 104.355 103.76649 
" clip-path="url(#p8cb0f0c7cc)" style="fill: none; stroke: #000000; stroke-width: 2; stroke-linecap: round"/>
   </g>
   <g id="patch_22">
    <path d="M 12.555 16.379981 
C 13.163641 16.379981 13.747436 16.138165 14.17781 15.707791 
C 14.608184 15.277417 14.85 14.693622 14.85 14.084981 
C 14.85 13.47634 14.608184 12.892545 14.17781 12.462171 
C 13.747436 12.031797 13.163641 11.789981 12.555 11.789981 
C 11.946359 11.789981 11.362564 12.031797 10.93219 12.462171 
C 10.501816 12.892545 10.26 13.47634 10.26 14.084981 
C 10.26 14.693622 10.501816 15.277417 10.93219 15.707791 
C 11.362564 16.138165 11.946359 16.379981 12.555 16.379981 
z
" clip-path="url(#p8cb0f0c7cc)" style="stroke: #000000; stroke-width: 2; stroke-linejoin: miter"/>
   </g>
   <g id="patch_23">
    <path d="M 134.955 16.379981 
C 135.563641 16.379981 136.147436 16.138165 136.57781 15.707791 
C 137.008184 15.277417 137.25 14.693622 137.25 14.084981 
C 137.25 13.47634 137.008184 12.892545 136.57781 12.462171 
C 136.147436 12.031797 135.563641 11.789981 134.955 11.789981 
C 134.346359 11.789981 133.762564 12.031797 133.33219 12.462171 
C 132.901816 12.892545 132.66 13.47634 132.66 14.084981 
C 132.66 14.693622 132.901816 15.277417 133.33219 15.707791 
C 133.762564 16.138165 134.346359 16.379981 134.955 16.379981 
z
" clip-path="url(#p8cb0f0c7cc)" style="stroke: #000000; stroke-width: 2; stroke-linejoin: miter"/>
   </g>
   <g id="patch_24">
    <path d="M 73.755 122.38149 
C 74.363641 122.38149 74.947436 122.139675 75.37781 121.709301 
C 75.808184 121.278926 76.05 120.695132 76.05 120.08649 
C 76.05 119.477849 75.808184 118.894055 75.37781 118.46368 
C 74.947436 118.033306 74.363641 117.79149 73.755 117.79149 
C 73.146359 117.79149 72.562564 118.033306 72.13219 118.46368 
C 71.701816 118.894055 71.46 119.477849 71.46 120.08649 
C 71.46 120.695132 71.701816 121.278926 72.13219 121.709301 
C 72.562564 122.139675 73.146359 122.38149 73.755 122.38149 
z
" clip-path="url(#p8cb0f0c7cc)" style="stroke: #000000; stroke-width: 2; stroke-linejoin: miter"/>
   </g>
   <g id="patch_25">
    <path d="M 196.155 122.38149 
C 196.763641 122.38149 197.347436 122.139675 197.77781 121.709301 
C 198.208184 121.278926 198.45 120.695132 198.45 120.08649 
C 198.45 119.477849 198.208184 118.894055 197.77781 118.46368 
C 197.347436 118.033306 196.763641 117.79149 196.155 117.79149 
C 195.546359 117.79149 194.962564 118.033306 194.53219 118.46368 
C 194.101816 118.894055 193.86 119.477849 193.86 120.08649 
C 193.86 120.695132 194.101816 121.278926 194.53219 121.709301 
C 194.962564 122.139675 195.546359 122.38149 196.155 122.38149 
z
" clip-path="url(#p8cb0f0c7cc)" style="stroke: #000000; stroke-width: 2; stroke-linejoin: miter"/>
   </g>
  </g>
 </g>
 <defs>
  <clipPath id="p8cb0f0c7cc">
   <rect x="7.2" y="7.2" width="194.31" height="139.91649"/>
  </clipPath>
 </defs>
</svg>
