<?xml version="1.0" encoding="utf-8" standalone="no"?>
<!DOCTYPE svg PUBLIC "-//W3C//DTD SVG 1.1//EN"
  "http://www.w3.org/Graphics/SVG/1.1/DTD/svg11.dtd">
<svg xmlns:xlink="http://www.w3.org/1999/xlink" width="208.71pt" height="170.381509pt" viewBox="0 0 208.71 170.381509" xmlns="http://www.w3.org/2000/svg" version="1.1">
 <metadata>
  <rdf:RDF xmlns:dc="http://purl.org/dc/elements/1.1/" xmlns:cc="http://creativecommons.org/ns#" xmlns:rdf="http://www.w3.org/1999/02/22-rdf-syntax-ns#">
   <cc:Work>
    <dc:type rdf:resource="http://purl.org/dc/dcmitype/StillImage"/>
    <dc:date>2023-03-23T14:52:08.366160</dc:date>
    <dc:format>image/svg+xml</dc:format>
    <dc:creator>
     <cc:Agent>
      <dc:title>Matplotlib v3.5.2, https://matplotlib.org/</dc:title>
     </cc:Agent>
    </dc:creator>
   </cc:Work>
  </rdf:RDF>
 </metadata>
 <defs>
  <style type="text/css">*{stroke-linejoin: round; stroke-linecap: butt}</style>
 </defs>
 <g id="figure_1">
  <g id="patch_1">
   <path d="M 0 170.381509 
L 208.71 170.381509 
L 208.71 0 
L 0 0 
L 0 170.381509 
z
" style="fill: none"/>
  </g>
  <g id="axes_1">
   <g id="patch_2">
    <path d="M 25.196465 84.68566 
C 26.074671 84.178628 26.716173 83.342607 26.978632 82.363096 
C 27.241091 81.383585 27.103545 80.338818 26.596513 79.460613 
C 26.089481 78.582408 25.253459 77.940906 24.273948 77.678447 
C 23.294438 77.415988 22.249671 77.553534 21.371465 78.060566 
" clip-path="url(#p4ec152cc88)" style="fill: none; stroke: #000000; stroke-width: 2; stroke-linejoin: miter"/>
   </g>
   <g id="patch_3">
    <path d="M 29.021465 91.310755 
C 29.899671 90.803723 30.541173 89.967701 30.803632 88.98819 
C 31.066091 88.00868 30.928545 86.963913 30.421513 86.085708 
C 29.914481 85.207502 29.078459 84.566 28.098948 84.303541 
C 27.119438 84.041082 26.074671 84.178628 25.196465 84.68566 
" clip-path="url(#p4ec152cc88)" style="fill: none; stroke: #000000; stroke-width: 2; stroke-linejoin: miter"/>
   </g>
   <g id="patch_4">
    <path d="M 32.846465 97.935849 
C 33.724671 97.428817 34.366173 96.592795 34.628632 95.613285 
C 34.891091 94.633774 34.753545 93.589007 34.246513 92.710802 
C 33.739481 91.832597 32.903459 91.191095 31.923948 90.928636 
C 30.944438 90.666177 29.899671 90.803723 29.021465 91.310755 
" clip-path="url(#p4ec152cc88)" style="fill: none; stroke: #000000; stroke-width: 2; stroke-linejoin: miter"/>
   </g>
   <g id="patch_5">
    <path d="M 36.671465 104.560943 
C 37.549671 104.053911 38.191173 103.21789 38.453632 102.238379 
C 38.716091 101.258868 38.578545 100.214101 38.071513 99.335896 
C 37.564481 98.457691 36.728459 97.816189 35.748948 97.55373 
C 34.769438 97.291271 33.724671 97.428817 32.846465 97.935849 
" clip-path="url(#p4ec152cc88)" style="fill: none; stroke: #000000; stroke-width: 2; stroke-linejoin: miter"/>
   </g>
   <g id="patch_6">
    <path d="M 97.579849 70.40566 
C 98.458054 70.912692 99.502821 71.050239 100.482332 70.787779 
C 101.461843 70.52532 102.297864 69.883818 102.804896 69.005613 
C 103.311928 68.127408 103.449474 67.082641 103.187015 66.10313 
C 102.924556 65.12362 102.283054 64.287598 101.404849 63.780566 
" clip-path="url(#p4ec152cc88)" style="fill: none; stroke: #000000; stroke-width: 2; stroke-linejoin: miter"/>
   </g>
   <g id="patch_7">
    <path d="M 93.754849 77.030755 
C 94.633054 77.537787 95.677821 77.675333 96.657332 77.412874 
C 97.636843 77.150415 98.472864 76.508913 98.979896 75.630708 
C 99.486928 74.752502 99.624474 73.707735 99.362015 72.728225 
C 99.099556 71.748714 98.458054 70.912692 97.579849 70.40566 
" clip-path="url(#p4ec152cc88)" style="fill: none; stroke: #000000; stroke-width: 2; stroke-linejoin: miter"/>
   </g>
   <g id="patch_8">
    <path d="M 89.929849 83.655849 
C 90.808054 84.162881 91.852821 84.300427 92.832332 84.037968 
C 93.811843 83.775509 94.647864 83.134007 95.154896 82.255802 
C 95.661928 81.377597 95.799474 80.33283 95.537015 79.353319 
C 95.274556 78.373808 94.633054 77.537787 93.754849 77.030755 
" clip-path="url(#p4ec152cc88)" style="fill: none; stroke: #000000; stroke-width: 2; stroke-linejoin: miter"/>
   </g>
   <g id="patch_9">
    <path d="M 86.104849 90.280943 
C 86.983054 90.787975 88.027821 90.925522 89.007332 90.663063 
C 89.986843 90.400603 90.822864 89.759101 91.329896 88.880896 
C 91.836928 88.002691 91.974474 86.957924 91.712015 85.978413 
C 91.449556 84.998903 90.808054 84.162881 89.929849 83.655849 
" clip-path="url(#p4ec152cc88)" style="fill: none; stroke: #000000; stroke-width: 2; stroke-linejoin: miter"/>
   </g>
   <g id="patch_10">
    <path d="M 142.605 119.831509 
C 142.605 120.845573 143.008265 121.819141 143.725317 122.536193 
C 144.442368 123.253244 145.415936 123.656509 146.43 123.656509 
C 147.444064 123.656509 148.417632 123.253244 149.134683 122.536193 
C 149.851735 121.819141 150.255 120.845573 150.255 119.831509 
" clip-path="url(#p4ec152cc88)" style="fill: none; stroke: #000000; stroke-width: 2; stroke-linejoin: miter"/>
   </g>
   <g id="patch_11">
    <path d="M 134.955 119.831509 
C 134.955 120.845573 135.358265 121.819141 136.075317 122.536193 
C 136.792368 123.253244 137.765936 123.656509 138.78 123.656509 
C 139.794064 123.656509 140.767632 123.253244 141.484683 122.536193 
C 142.201735 121.819141 142.605 120.845573 142.605 119.831509 
" clip-path="url(#p4ec152cc88)" style="fill: none; stroke: #000000; stroke-width: 2; stroke-linejoin: miter"/>
   </g>
   <g id="patch_12">
    <path d="M 127.305 119.831509 
C 127.305 120.845573 127.708265 121.819141 128.425317 122.536193 
C 129.142368 123.253244 130.115936 123.656509 131.13 123.656509 
C 132.144064 123.656509 133.117632 123.253244 133.834683 122.536193 
C 134.551735 121.819141 134.955 120.845573 134.955 119.831509 
" clip-path="url(#p4ec152cc88)" style="fill: none; stroke: #000000; stroke-width: 2; stroke-linejoin: miter"/>
   </g>
   <g id="patch_13">
    <path d="M 119.655 119.831509 
C 119.655 120.845573 120.058265 121.819141 120.775317 122.536193 
C 121.492368 123.253244 122.465936 123.656509 123.48 123.656509 
C 124.494064 123.656509 125.467632 123.253244 126.184683 122.536193 
C 126.901735 121.819141 127.305 120.845573 127.305 119.831509 
" clip-path="url(#p4ec152cc88)" style="fill: none; stroke: #000000; stroke-width: 2; stroke-linejoin: miter"/>
   </g>
   <g id="line2d_1">
    <path d="M 12.555 30.15 
L 43.155 30.15 
" clip-path="url(#p4ec152cc88)" style="fill: none; stroke: #000000; stroke-width: 2; stroke-linecap: round"/>
   </g>
   <g id="line2d_2">
    <path d="M 134.955 30.15 
L 104.355 30.15 
" clip-path="url(#p4ec152cc88)" style="fill: none; stroke: #000000; stroke-width: 2; stroke-linecap: round"/>
   </g>
   <g id="line2d_3">
    <path d="M 43.155 17.91 
L 43.155 42.39 
" clip-path="url(#p4ec152cc88)" style="fill: none; stroke: #000000; stroke-width: 2; stroke-linecap: round"/>
   </g>
   <g id="line2d_4">
    <path d="M 104.355 17.91 
L 104.355 42.39 
" clip-path="url(#p4ec152cc88)" style="fill: none; stroke: #000000; stroke-width: 2; stroke-linecap: round"/>
   </g>
   <g id="line2d_5">
    <path d="M 43.155 17.91 
L 71.001 17.91 
M 71.001 10.26 
L 71.001 25.56 
M 76.509 10.26 
L 76.509 25.56 
M 76.509 17.91 
L 104.355 17.91 
" clip-path="url(#p4ec152cc88)" style="fill: none; stroke: #000000; stroke-width: 2; stroke-linecap: round"/>
   </g>
   <g id="line2d_6">
    <path d="M 43.155 42.39 
L 73.755 42.39 
M 66.105 34.74 
L 81.405 50.04 
M 81.405 34.74 
L 66.105 50.04 
M 73.755 42.39 
L 104.355 42.39 
" clip-path="url(#p4ec152cc88)" style="fill: none; stroke: #000000; stroke-width: 2; stroke-linecap: round"/>
   </g>
   <g id="line2d_7">
    <path d="M 12.555 30.15 
L 27.855 56.650377 
" clip-path="url(#p4ec152cc88)" style="fill: none; stroke: #000000; stroke-width: 2; stroke-linecap: round"/>
   </g>
   <g id="line2d_8">
    <path d="M 73.755 136.151509 
L 58.455 109.651132 
" clip-path="url(#p4ec152cc88)" style="fill: none; stroke: #000000; stroke-width: 2; stroke-linecap: round"/>
   </g>
   <g id="line2d_9">
    <path d="M 41.988535 48.490377 
L 13.721465 64.810377 
" clip-path="url(#p4ec152cc88)" style="fill: none; stroke: #000000; stroke-width: 2; stroke-linecap: round"/>
   </g>
   <g id="line2d_10">
    <path d="M 72.588535 101.491132 
L 44.321465 117.811132 
" clip-path="url(#p4ec152cc88)" style="fill: none; stroke: #000000; stroke-width: 2; stroke-linecap: round"/>
   </g>
   <g id="line2d_11">
    <path d="M 27.855 56.650377 
L 41.778 80.765721 
M 48.403094 76.940721 
L 35.152906 84.590721 
M 51.157094 81.710789 
L 37.906906 89.360789 
M 44.532 85.535789 
L 58.455 109.651132 
" clip-path="url(#p4ec152cc88)" style="fill: none; stroke: #000000; stroke-width: 2; stroke-linecap: round"/>
   </g>
   <g id="line2d_12">
    <path d="M 41.988535 48.490377 
L 57.288535 74.990755 
M 60.088629 64.54066 
L 54.48844 85.440849 
M 67.738629 77.790849 
L 46.83844 72.19066 
M 57.288535 74.990755 
L 72.588535 101.491132 
" clip-path="url(#p4ec152cc88)" style="fill: none; stroke: #000000; stroke-width: 2; stroke-linecap: round"/>
   </g>
   <g id="line2d_13">
    <path d="M 13.721465 64.810377 
L 21.371465 78.060566 
M 36.671465 104.560943 
L 44.321465 117.811132 
" clip-path="url(#p4ec152cc88)" style="fill: none; stroke: #000000; stroke-width: 2; stroke-linecap: round"/>
   </g>
   <g id="line2d_14">
    <path d="M 134.955 30.15 
L 119.655 56.650377 
" clip-path="url(#p4ec152cc88)" style="fill: none; stroke: #000000; stroke-width: 2; stroke-linecap: round"/>
   </g>
   <g id="line2d_15">
    <path d="M 73.755 136.151509 
L 89.055 109.651132 
" clip-path="url(#p4ec152cc88)" style="fill: none; stroke: #000000; stroke-width: 2; stroke-linecap: round"/>
   </g>
   <g id="line2d_16">
    <path d="M 130.255151 62.770377 
L 109.054849 50.530377 
" clip-path="url(#p4ec152cc88)" style="fill: none; stroke: #000000; stroke-width: 2; stroke-linecap: round"/>
   </g>
   <g id="line2d_17">
    <path d="M 99.655151 115.771132 
L 78.454849 103.531132 
" clip-path="url(#p4ec152cc88)" style="fill: none; stroke: #000000; stroke-width: 2; stroke-linecap: round"/>
   </g>
   <g id="line2d_18">
    <path d="M 130.255151 62.770377 
L 114.955151 89.270755 
M 125.405245 86.47066 
L 104.505057 92.070849 
M 117.755245 99.720849 
L 112.155057 78.82066 
M 114.955151 89.270755 
L 99.655151 115.771132 
" clip-path="url(#p4ec152cc88)" style="fill: none; stroke: #000000; stroke-width: 2; stroke-linecap: round"/>
   </g>
   <g id="line2d_19">
    <path d="M 109.054849 50.530377 
L 101.404849 63.780566 
M 86.104849 90.280943 
L 78.454849 103.531132 
" clip-path="url(#p4ec152cc88)" style="fill: none; stroke: #000000; stroke-width: 2; stroke-linecap: round"/>
   </g>
   <g id="line2d_20">
    <path d="M 196.155 136.151509 
L 180.855 109.651132 
" clip-path="url(#p4ec152cc88)" style="fill: none; stroke: #000000; stroke-width: 2; stroke-linecap: round"/>
   </g>
   <g id="line2d_21">
    <path d="M 134.955 30.15 
L 150.255 56.650377 
" clip-path="url(#p4ec152cc88)" style="fill: none; stroke: #000000; stroke-width: 2; stroke-linecap: round"/>
   </g>
   <g id="line2d_22">
    <path d="M 170.254849 115.771132 
L 191.455151 103.531132 
" clip-path="url(#p4ec152cc88)" style="fill: none; stroke: #000000; stroke-width: 2; stroke-linecap: round"/>
   </g>
   <g id="line2d_23">
    <path d="M 139.654849 62.770377 
L 160.855151 50.530377 
" clip-path="url(#p4ec152cc88)" style="fill: none; stroke: #000000; stroke-width: 2; stroke-linecap: round"/>
   </g>
   <g id="line2d_24">
    <path d="M 170.254849 115.771132 
L 156.331849 91.655789 
M 149.706755 95.480789 
L 162.956943 87.830789 
M 146.952755 90.710721 
L 160.202943 83.060721 
M 153.577849 86.885721 
L 139.654849 62.770377 
" clip-path="url(#p4ec152cc88)" style="fill: none; stroke: #000000; stroke-width: 2; stroke-linecap: round"/>
   </g>
   <g id="line2d_25">
    <path d="M 191.455151 103.531132 
L 176.155151 77.030755 
M 173.355057 87.480849 
L 178.955245 66.58066 
M 165.705057 74.23066 
L 186.605245 79.830849 
M 176.155151 77.030755 
L 160.855151 50.530377 
" clip-path="url(#p4ec152cc88)" style="fill: none; stroke: #000000; stroke-width: 2; stroke-linecap: round"/>
   </g>
   <g id="line2d_26">
    <path d="M 196.155 136.151509 
L 165.555 136.151509 
" clip-path="url(#p4ec152cc88)" style="fill: none; stroke: #000000; stroke-width: 2; stroke-linecap: round"/>
   </g>
   <g id="line2d_27">
    <path d="M 73.755 136.151509 
L 104.355 136.151509 
" clip-path="url(#p4ec152cc88)" style="fill: none; stroke: #000000; stroke-width: 2; stroke-linecap: round"/>
   </g>
   <g id="line2d_28">
    <path d="M 165.555 152.471509 
L 165.555 119.831509 
" clip-path="url(#p4ec152cc88)" style="fill: none; stroke: #000000; stroke-width: 2; stroke-linecap: round"/>
   </g>
   <g id="line2d_29">
    <path d="M 104.355 152.471509 
L 104.355 119.831509 
" clip-path="url(#p4ec152cc88)" style="fill: none; stroke: #000000; stroke-width: 2; stroke-linecap: round"/>
   </g>
   <g id="line2d_30">
    <path d="M 165.555 136.151509 
L 137.709 136.151509 
M 137.709 143.801509 
L 137.709 128.501509 
M 132.201 143.801509 
L 132.201 128.501509 
M 132.201 136.151509 
L 104.355 136.151509 
" clip-path="url(#p4ec152cc88)" style="fill: none; stroke: #000000; stroke-width: 2; stroke-linecap: round"/>
   </g>
   <g id="line2d_31">
    <path d="M 165.555 152.471509 
L 134.955 152.471509 
M 142.605 160.121509 
L 127.305 144.821509 
M 127.305 160.121509 
L 142.605 144.821509 
M 134.955 152.471509 
L 104.355 152.471509 
" clip-path="url(#p4ec152cc88)" style="fill: none; stroke: #000000; stroke-width: 2; stroke-linecap: round"/>
   </g>
   <g id="line2d_32">
    <path d="M 165.555 119.831509 
L 150.255 119.831509 
M 119.655 119.831509 
L 104.355 119.831509 
" clip-path="url(#p4ec152cc88)" style="fill: none; stroke: #000000; stroke-width: 2; stroke-linecap: round"/>
   </g>
   <g id="patch_14">
    <path d="M 12.555 32.445 
C 13.163641 32.445 13.747436 32.203184 14.17781 31.77281 
C 14.608184 31.342436 14.85 30.758641 14.85 30.15 
C 14.85 29.541359 14.608184 28.957564 14.17781 28.52719 
C 13.747436 28.096816 13.163641 27.855 12.555 27.855 
C 11.946359 27.855 11.362564 28.096816 10.93219 28.52719 
C 10.501816 28.957564 10.26 29.541359 10.26 30.15 
C 10.26 30.758641 10.501816 31.342436 10.93219 31.77281 
C 11.362564 32.203184 11.946359 32.445 12.555 32.445 
z
" clip-path="url(#p4ec152cc88)" style="stroke: #000000; stroke-width: 2; stroke-linejoin: miter"/>
   </g>
   <g id="patch_15">
    <path d="M 134.955 32.445 
C 135.563641 32.445 136.147436 32.203184 136.57781 31.77281 
C 137.008184 31.342436 137.25 30.758641 137.25 30.15 
C 137.25 29.541359 137.008184 28.957564 136.57781 28.52719 
C 136.147436 28.096816 135.563641 27.855 134.955 27.855 
C 134.346359 27.855 133.762564 28.096816 133.33219 28.52719 
C 132.901816 28.957564 132.66 29.541359 132.66 30.15 
C 132.66 30.758641 132.901816 31.342436 133.33219 31.77281 
C 133.762564 32.203184 134.346359 32.445 134.955 32.445 
z
" clip-path="url(#p4ec152cc88)" style="stroke: #000000; stroke-width: 2; stroke-linejoin: miter"/>
   </g>
   <g id="patch_16">
    <path d="M 73.755 138.446509 
C 74.363641 138.446509 74.947436 138.204694 75.37781 137.774319 
C 75.808184 137.343945 76.05 136.760151 76.05 136.151509 
C 76.05 135.542868 75.808184 134.959074 75.37781 134.528699 
C 74.947436 134.098325 74.363641 133.856509 73.755 133.856509 
C 73.146359 133.856509 72.562564 134.098325 72.13219 134.528699 
C 71.701816 134.959074 71.46 135.542868 71.46 136.151509 
C 71.46 136.760151 71.701816 137.343945 72.13219 137.774319 
C 72.562564 138.204694 73.146359 138.446509 73.755 138.446509 
z
" clip-path="url(#p4ec152cc88)" style="stroke: #000000; stroke-width: 2; stroke-linejoin: miter"/>
   </g>
   <g id="patch_17">
    <path d="M 196.155 138.446509 
C 196.763641 138.446509 197.347436 138.204694 197.77781 137.774319 
C 198.208184 137.343945 198.45 136.760151 198.45 136.151509 
C 198.45 135.542868 198.208184 134.959074 197.77781 134.528699 
C 197.347436 134.098325 196.763641 133.856509 196.155 133.856509 
C 195.546359 133.856509 194.962564 134.098325 194.53219 134.528699 
C 194.101816 134.959074 193.86 135.542868 193.86 136.151509 
C 193.86 136.760151 194.101816 137.343945 194.53219 137.774319 
C 194.962564 138.204694 195.546359 138.446509 196.155 138.446509 
z
" clip-path="url(#p4ec152cc88)" style="stroke: #000000; stroke-width: 2; stroke-linejoin: miter"/>
   </g>
  </g>
 </g>
 <defs>
  <clipPath id="p4ec152cc88">
   <rect x="7.2" y="7.2" width="194.31" height="155.981509"/>
  </clipPath>
 </defs>
</svg>
