<?xml version="1.0" encoding="utf-8" standalone="no"?>
<!DOCTYPE svg PUBLIC "-//W3C//DTD SVG 1.1//EN"
  "http://www.w3.org/Graphics/SVG/1.1/DTD/svg11.dtd">
<svg xmlns:xlink="http://www.w3.org/1999/xlink" width="208.71pt" height="137.99649pt" viewBox="0 0 208.71 137.99649" xmlns="http://www.w3.org/2000/svg" version="1.1">
 <metadata>
  <rdf:RDF xmlns:dc="http://purl.org/dc/elements/1.1/" xmlns:cc="http://creativecommons.org/ns#" xmlns:rdf="http://www.w3.org/1999/02/22-rdf-syntax-ns#">
   <cc:Work>
    <dc:type rdf:resource="http://purl.org/dc/dcmitype/StillImage"/>
    <dc:date>2023-03-23T14:42:30.991104</dc:date>
    <dc:format>image/svg+xml</dc:format>
    <dc:creator>
     <cc:Agent>
      <dc:title>Matplotlib v3.5.2, https://matplotlib.org/</dc:title>
     </cc:Agent>
    </dc:creator>
   </cc:Work>
  </rdf:RDF>
 </metadata>
 <defs>
  <style type="text/css">*{stroke-linejoin: round; stroke-linecap: butt}</style>
 </defs>
 <g id="figure_1">
  <g id="patch_1">
   <path d="M 0 137.99649 
L 208.71 137.99649 
L 208.71 0 
L 0 0 
L 0 137.99649 
z
" style="fill: none"/>
  </g>
  <g id="axes_1">
   <g id="patch_2">
    <path d="M 39.33 64.28566 
C 40.208205 63.778628 40.849707 62.942607 41.112166 61.963096 
C 41.374625 60.983585 41.237079 59.938818 40.730047 59.060613 
C 40.223015 58.182408 39.386993 57.540906 38.407483 57.278447 
C 37.427972 57.015988 36.383205 57.153534 35.505 57.660566 
" clip-path="url(#p1b0a17cf90)" style="fill: none; stroke: #000000; stroke-width: 2; stroke-linejoin: miter"/>
   </g>
   <g id="patch_3">
    <path d="M 43.155 70.910755 
C 44.033205 70.403723 44.674707 69.567701 44.937166 68.58819 
C 45.199625 67.60868 45.062079 66.563913 44.555047 65.685708 
C 44.048015 64.807502 43.211993 64.166 42.232483 63.903541 
C 41.252972 63.641082 40.208205 63.778628 39.33 64.28566 
" clip-path="url(#p1b0a17cf90)" style="fill: none; stroke: #000000; stroke-width: 2; stroke-linejoin: miter"/>
   </g>
   <g id="patch_4">
    <path d="M 46.98 77.535849 
C 47.858205 77.028817 48.499707 76.192795 48.762166 75.213285 
C 49.024625 74.233774 48.887079 73.189007 48.380047 72.310802 
C 47.873015 71.432597 47.036993 70.791095 46.057483 70.528636 
C 45.077972 70.266177 44.033205 70.403723 43.155 70.910755 
" clip-path="url(#p1b0a17cf90)" style="fill: none; stroke: #000000; stroke-width: 2; stroke-linejoin: miter"/>
   </g>
   <g id="patch_5">
    <path d="M 50.805 84.160943 
C 51.683205 83.653911 52.324707 82.81789 52.587166 81.838379 
C 52.849625 80.858868 52.712079 79.814101 52.205047 78.935896 
C 51.698015 78.057691 50.861993 77.416189 49.882483 77.15373 
C 48.902972 76.891271 47.858205 77.028817 46.98 77.535849 
" clip-path="url(#p1b0a17cf90)" style="fill: none; stroke: #000000; stroke-width: 2; stroke-linejoin: miter"/>
   </g>
   <g id="patch_6">
    <path d="M 108.18 64.28566 
C 109.058205 64.792692 110.102972 64.930239 111.082483 64.667779 
C 112.061993 64.40532 112.898015 63.763818 113.405047 62.885613 
C 113.912079 62.007408 114.049625 60.962641 113.787166 59.98313 
C 113.524707 59.00362 112.883205 58.167598 112.005 57.660566 
" clip-path="url(#p1b0a17cf90)" style="fill: none; stroke: #000000; stroke-width: 2; stroke-linejoin: miter"/>
   </g>
   <g id="patch_7">
    <path d="M 104.355 70.910755 
C 105.233205 71.417787 106.277972 71.555333 107.257483 71.292874 
C 108.236993 71.030415 109.073015 70.388913 109.580047 69.510708 
C 110.087079 68.632502 110.224625 67.587735 109.962166 66.608225 
C 109.699707 65.628714 109.058205 64.792692 108.18 64.28566 
" clip-path="url(#p1b0a17cf90)" style="fill: none; stroke: #000000; stroke-width: 2; stroke-linejoin: miter"/>
   </g>
   <g id="patch_8">
    <path d="M 100.53 77.535849 
C 101.408205 78.042881 102.452972 78.180427 103.432483 77.917968 
C 104.411993 77.655509 105.248015 77.014007 105.755047 76.135802 
C 106.262079 75.257597 106.399625 74.21283 106.137166 73.233319 
C 105.874707 72.253808 105.233205 71.417787 104.355 70.910755 
" clip-path="url(#p1b0a17cf90)" style="fill: none; stroke: #000000; stroke-width: 2; stroke-linejoin: miter"/>
   </g>
   <g id="patch_9">
    <path d="M 96.705 84.160943 
C 97.583205 84.667975 98.627972 84.805522 99.607483 84.543063 
C 100.586993 84.280603 101.423015 83.639101 101.930047 82.760896 
C 102.437079 81.882691 102.574625 80.837924 102.312166 79.858413 
C 102.049707 78.878903 101.408205 78.042881 100.53 77.535849 
" clip-path="url(#p1b0a17cf90)" style="fill: none; stroke: #000000; stroke-width: 2; stroke-linejoin: miter"/>
   </g>
   <g id="patch_10">
    <path d="M 179.980151 71.415849 
C 179.101946 71.922881 178.460444 72.758903 178.197985 73.738413 
C 177.935526 74.717924 178.073072 75.762691 178.580104 76.640896 
C 179.087136 77.519101 179.923157 78.160603 180.902668 78.423063 
C 181.882179 78.685522 182.926946 78.547975 183.805151 78.040943 
" clip-path="url(#p1b0a17cf90)" style="fill: none; stroke: #000000; stroke-width: 2; stroke-linejoin: miter"/>
   </g>
   <g id="patch_11">
    <path d="M 176.155151 64.790755 
C 175.276946 65.297787 174.635444 66.133808 174.372985 67.113319 
C 174.110526 68.09283 174.248072 69.137597 174.755104 70.015802 
C 175.262136 70.894007 176.098157 71.535509 177.077668 71.797968 
C 178.057179 72.060427 179.101946 71.922881 179.980151 71.415849 
" clip-path="url(#p1b0a17cf90)" style="fill: none; stroke: #000000; stroke-width: 2; stroke-linejoin: miter"/>
   </g>
   <g id="patch_12">
    <path d="M 172.330151 58.16566 
C 171.451946 58.672692 170.810444 59.508714 170.547985 60.488225 
C 170.285526 61.467735 170.423072 62.512502 170.930104 63.390708 
C 171.437136 64.268913 172.273157 64.910415 173.252668 65.172874 
C 174.232179 65.435333 175.276946 65.297787 176.155151 64.790755 
" clip-path="url(#p1b0a17cf90)" style="fill: none; stroke: #000000; stroke-width: 2; stroke-linejoin: miter"/>
   </g>
   <g id="patch_13">
    <path d="M 168.505151 51.540566 
C 167.626946 52.047598 166.985444 52.88362 166.722985 53.86313 
C 166.460526 54.842641 166.598072 55.887408 167.105104 56.765613 
C 167.612136 57.643818 168.448157 58.28532 169.427668 58.547779 
C 170.407179 58.810239 171.451946 58.672692 172.330151 58.16566 
" clip-path="url(#p1b0a17cf90)" style="fill: none; stroke: #000000; stroke-width: 2; stroke-linejoin: miter"/>
   </g>
   <g id="patch_14">
    <path d="M 142.605 123.911509 
C 142.605 124.925573 143.008265 125.899141 143.725317 126.616193 
C 144.442368 127.333244 145.415936 127.736509 146.43 127.736509 
C 147.444064 127.736509 148.417632 127.333244 149.134683 126.616193 
C 149.851735 125.899141 150.255 124.925573 150.255 123.911509 
" clip-path="url(#p1b0a17cf90)" style="fill: none; stroke: #000000; stroke-width: 2; stroke-linejoin: miter"/>
   </g>
   <g id="patch_15">
    <path d="M 134.955 123.911509 
C 134.955 124.925573 135.358265 125.899141 136.075317 126.616193 
C 136.792368 127.333244 137.765936 127.736509 138.78 127.736509 
C 139.794064 127.736509 140.767632 127.333244 141.484683 126.616193 
C 142.201735 125.899141 142.605 124.925573 142.605 123.911509 
" clip-path="url(#p1b0a17cf90)" style="fill: none; stroke: #000000; stroke-width: 2; stroke-linejoin: miter"/>
   </g>
   <g id="patch_16">
    <path d="M 127.305 123.911509 
C 127.305 124.925573 127.708265 125.899141 128.425317 126.616193 
C 129.142368 127.333244 130.115936 127.736509 131.13 127.736509 
C 132.144064 127.736509 133.117632 127.333244 133.834683 126.616193 
C 134.551735 125.899141 134.955 124.925573 134.955 123.911509 
" clip-path="url(#p1b0a17cf90)" style="fill: none; stroke: #000000; stroke-width: 2; stroke-linejoin: miter"/>
   </g>
   <g id="patch_17">
    <path d="M 119.655 123.911509 
C 119.655 124.925573 120.058265 125.899141 120.775317 126.616193 
C 121.492368 127.333244 122.465936 127.736509 123.48 127.736509 
C 124.494064 127.736509 125.467632 127.333244 126.184683 126.616193 
C 126.901735 125.899141 127.305 124.925573 127.305 123.911509 
" clip-path="url(#p1b0a17cf90)" style="fill: none; stroke: #000000; stroke-width: 2; stroke-linejoin: miter"/>
   </g>
   <g id="line2d_1">
    <path d="M 12.555 17.91 
L 71.001 17.91 
M 71.001 10.26 
L 71.001 25.56 
M 76.509 10.26 
L 76.509 25.56 
M 76.509 17.91 
L 134.955 17.91 
" clip-path="url(#p1b0a17cf90)" style="fill: none; stroke: #000000; stroke-width: 2; stroke-linecap: round"/>
   </g>
   <g id="line2d_2">
    <path d="M 12.555 17.91 
L 35.505 57.660566 
M 50.805 84.160943 
L 73.755 123.911509 
" clip-path="url(#p1b0a17cf90)" style="fill: none; stroke: #000000; stroke-width: 2; stroke-linecap: round"/>
   </g>
   <g id="line2d_3">
    <path d="M 134.955 17.91 
L 112.005 57.660566 
M 96.705 84.160943 
L 73.755 123.911509 
" clip-path="url(#p1b0a17cf90)" style="fill: none; stroke: #000000; stroke-width: 2; stroke-linecap: round"/>
   </g>
   <g id="line2d_4">
    <path d="M 196.155 123.911509 
L 180.855 97.411132 
" clip-path="url(#p1b0a17cf90)" style="fill: none; stroke: #000000; stroke-width: 2; stroke-linecap: round"/>
   </g>
   <g id="line2d_5">
    <path d="M 134.955 17.91 
L 150.255 44.410377 
" clip-path="url(#p1b0a17cf90)" style="fill: none; stroke: #000000; stroke-width: 2; stroke-linecap: round"/>
   </g>
   <g id="line2d_6">
    <path d="M 170.254849 103.531132 
L 191.455151 91.291132 
" clip-path="url(#p1b0a17cf90)" style="fill: none; stroke: #000000; stroke-width: 2; stroke-linecap: round"/>
   </g>
   <g id="line2d_7">
    <path d="M 139.654849 50.530377 
L 160.855151 38.290377 
" clip-path="url(#p1b0a17cf90)" style="fill: none; stroke: #000000; stroke-width: 2; stroke-linecap: round"/>
   </g>
   <g id="line2d_8">
    <path d="M 170.254849 103.531132 
L 154.954849 77.030755 
M 152.154755 87.480849 
L 157.754943 66.58066 
M 144.504755 74.23066 
L 165.404943 79.830849 
M 154.954849 77.030755 
L 139.654849 50.530377 
" clip-path="url(#p1b0a17cf90)" style="fill: none; stroke: #000000; stroke-width: 2; stroke-linecap: round"/>
   </g>
   <g id="line2d_9">
    <path d="M 191.455151 91.291132 
L 183.805151 78.040943 
M 168.505151 51.540566 
L 160.855151 38.290377 
" clip-path="url(#p1b0a17cf90)" style="fill: none; stroke: #000000; stroke-width: 2; stroke-linecap: round"/>
   </g>
   <g id="line2d_10">
    <path d="M 196.155 123.911509 
L 150.255 123.911509 
M 119.655 123.911509 
L 73.755 123.911509 
" clip-path="url(#p1b0a17cf90)" style="fill: none; stroke: #000000; stroke-width: 2; stroke-linecap: round"/>
   </g>
   <g id="patch_18">
    <path d="M 12.555 20.205 
C 13.163641 20.205 13.747436 19.963184 14.17781 19.53281 
C 14.608184 19.102436 14.85 18.518641 14.85 17.91 
C 14.85 17.301359 14.608184 16.717564 14.17781 16.28719 
C 13.747436 15.856816 13.163641 15.615 12.555 15.615 
C 11.946359 15.615 11.362564 15.856816 10.93219 16.28719 
C 10.501816 16.717564 10.26 17.301359 10.26 17.91 
C 10.26 18.518641 10.501816 19.102436 10.93219 19.53281 
C 11.362564 19.963184 11.946359 20.205 12.555 20.205 
z
" clip-path="url(#p1b0a17cf90)" style="stroke: #000000; stroke-width: 2; stroke-linejoin: miter"/>
   </g>
   <g id="patch_19">
    <path d="M 134.955 20.205 
C 135.563641 20.205 136.147436 19.963184 136.57781 19.53281 
C 137.008184 19.102436 137.25 18.518641 137.25 17.91 
C 137.25 17.301359 137.008184 16.717564 136.57781 16.28719 
C 136.147436 15.856816 135.563641 15.615 134.955 15.615 
C 134.346359 15.615 133.762564 15.856816 133.33219 16.28719 
C 132.901816 16.717564 132.66 17.301359 132.66 17.91 
C 132.66 18.518641 132.901816 19.102436 133.33219 19.53281 
C 133.762564 19.963184 134.346359 20.205 134.955 20.205 
z
" clip-path="url(#p1b0a17cf90)" style="stroke: #000000; stroke-width: 2; stroke-linejoin: miter"/>
   </g>
   <g id="patch_20">
    <path d="M 73.755 126.206509 
C 74.363641 126.206509 74.947436 125.964694 75.37781 125.534319 
C 75.808184 125.103945 76.05 124.520151 76.05 123.911509 
C 76.05 123.302868 75.808184 122.719074 75.37781 122.288699 
C 74.947436 121.858325 74.363641 121.616509 73.755 121.616509 
C 73.146359 121.616509 72.562564 121.858325 72.13219 122.288699 
C 71.701816 122.719074 71.46 123.302868 71.46 123.911509 
C 71.46 124.520151 71.701816 125.103945 72.13219 125.534319 
C 72.562564 125.964694 73.146359 126.206509 73.755 126.206509 
z
" clip-path="url(#p1b0a17cf90)" style="stroke: #000000; stroke-width: 2; stroke-linejoin: miter"/>
   </g>
   <g id="patch_21">
    <path d="M 196.155 126.206509 
C 196.763641 126.206509 197.347436 125.964694 197.77781 125.534319 
C 198.208184 125.103945 198.45 124.520151 198.45 123.911509 
C 198.45 123.302868 198.208184 122.719074 197.77781 122.288699 
C 197.347436 121.858325 196.763641 121.616509 196.155 121.616509 
C 195.546359 121.616509 194.962564 121.858325 194.53219 122.288699 
C 194.101816 122.719074 193.86 123.302868 193.86 123.911509 
C 193.86 124.520151 194.101816 125.103945 194.53219 125.534319 
C 194.962564 125.964694 195.546359 126.206509 196.155 126.206509 
z
" clip-path="url(#p1b0a17cf90)" style="stroke: #000000; stroke-width: 2; stroke-linejoin: miter"/>
   </g>
  </g>
 </g>
 <defs>
  <clipPath id="p1b0a17cf90">
   <rect x="7.2" y="7.2" width="194.31" height="123.59649"/>
  </clipPath>
 </defs>
</svg>
