<?xml version="1.0" encoding="utf-8" standalone="no"?>
<!DOCTYPE svg PUBLIC "-//W3C//DTD SVG 1.1//EN"
  "http://www.w3.org/Graphics/SVG/1.1/DTD/svg11.dtd">
<svg xmlns:xlink="http://www.w3.org/1999/xlink" width="237.113019pt" height="228.753pt" viewBox="0 0 237.113019 228.753" xmlns="http://www.w3.org/2000/svg" version="1.1">
 <metadata>
  <rdf:RDF xmlns:dc="http://purl.org/dc/elements/1.1/" xmlns:cc="http://creativecommons.org/ns#" xmlns:rdf="http://www.w3.org/1999/02/22-rdf-syntax-ns#">
   <cc:Work>
    <dc:type rdf:resource="http://purl.org/dc/dcmitype/StillImage"/>
    <dc:date>2023-03-23T14:49:23.779560</dc:date>
    <dc:format>image/svg+xml</dc:format>
    <dc:creator>
     <cc:Agent>
      <dc:title>Matplotlib v3.5.2, https://matplotlib.org/</dc:title>
     </cc:Agent>
    </dc:creator>
   </cc:Work>
  </rdf:RDF>
 </metadata>
 <defs>
  <style type="text/css">*{stroke-linejoin: round; stroke-linecap: butt}</style>
 </defs>
 <g id="figure_1">
  <g id="patch_1">
   <path d="M 0 228.753 
L 237.113019 228.753 
L 237.113019 0 
L 0 0 
L 0 228.753 
z
" style="fill: none"/>
  </g>
  <g id="axes_1">
   <g id="patch_2">
    <path d="M 165.269003 155.078365 
C 165.846507 154.244809 166.069467 153.214884 165.888411 152.217114 
C 165.707356 151.219344 165.136745 150.333421 164.30319 149.755917 
C 163.469634 149.178412 162.439709 148.955452 161.441939 149.136508 
C 160.444169 149.317564 159.558246 149.888174 158.980742 150.72173 
" clip-path="url(#pc7b707da81)" style="fill: none; stroke: #000000; stroke-width: 2; stroke-linejoin: miter"/>
   </g>
   <g id="patch_3">
    <path d="M 171.557264 159.435 
C 172.134768 158.601445 172.357728 157.571519 172.176673 156.573749 
C 171.995617 155.57598 171.425007 154.690056 170.591451 154.112552 
C 169.757896 153.535048 168.72797 153.312088 167.730201 153.493143 
C 166.732431 153.674199 165.846507 154.244809 165.269003 155.078365 
" clip-path="url(#pc7b707da81)" style="fill: none; stroke: #000000; stroke-width: 2; stroke-linejoin: miter"/>
   </g>
   <g id="patch_4">
    <path d="M 177.845525 163.791635 
C 178.42303 162.95808 178.64599 161.928155 178.464934 160.930385 
C 178.283878 159.932615 177.713268 159.046691 176.879712 158.469187 
C 176.046157 157.891683 175.016232 157.668723 174.018462 157.849778 
C 173.020692 158.030834 172.134768 158.601445 171.557264 159.435 
" clip-path="url(#pc7b707da81)" style="fill: none; stroke: #000000; stroke-width: 2; stroke-linejoin: miter"/>
   </g>
   <g id="patch_5">
    <path d="M 184.133787 168.14827 
C 184.711291 167.314715 184.934251 166.28479 184.753195 165.28702 
C 184.57214 164.28925 184.001529 163.403326 183.167974 162.825822 
C 182.334418 162.248318 181.304493 162.025358 180.306723 162.206414 
C 179.308953 162.387469 178.42303 162.95808 177.845525 163.791635 
" clip-path="url(#pc7b707da81)" style="fill: none; stroke: #000000; stroke-width: 2; stroke-linejoin: miter"/>
   </g>
   <g id="patch_6">
    <path d="M 65.570461 146.023269 
C 66.147965 146.856824 67.033889 147.427435 68.031659 147.60849 
C 69.029429 147.789546 70.059354 147.566586 70.89291 146.989082 
C 71.726465 146.411577 72.297076 145.525654 72.478131 144.527884 
C 72.659187 143.530114 72.436227 142.500189 71.858723 141.666633 
" clip-path="url(#pc7b707da81)" style="fill: none; stroke: #000000; stroke-width: 2; stroke-linejoin: miter"/>
   </g>
   <g id="patch_7">
    <path d="M 59.2822 150.379904 
C 59.859704 151.213459 60.745628 151.78407 61.743398 151.965125 
C 62.741168 152.146181 63.771093 151.923221 64.604648 151.345717 
C 65.438204 150.768213 66.008814 149.882289 66.18987 148.884519 
C 66.370926 147.886749 66.147965 146.856824 65.570461 146.023269 
" clip-path="url(#pc7b707da81)" style="fill: none; stroke: #000000; stroke-width: 2; stroke-linejoin: miter"/>
   </g>
   <g id="patch_8">
    <path d="M 52.993939 154.736539 
C 53.571443 155.570094 54.457367 156.140705 55.455136 156.321761 
C 56.452906 156.502816 57.482832 156.279856 58.316387 155.702352 
C 59.149942 155.124848 59.720553 154.238924 59.901609 153.241154 
C 60.082664 152.243384 59.859704 151.213459 59.2822 150.379904 
" clip-path="url(#pc7b707da81)" style="fill: none; stroke: #000000; stroke-width: 2; stroke-linejoin: miter"/>
   </g>
   <g id="patch_9">
    <path d="M 46.705677 159.093174 
C 47.283182 159.92673 48.169105 160.49734 49.166875 160.678396 
C 50.164645 160.859451 51.19457 160.636491 52.028126 160.058987 
C 52.861681 159.481483 53.432292 158.595559 53.613347 157.59779 
C 53.794403 156.60002 53.571443 155.570094 52.993939 154.736539 
" clip-path="url(#pc7b707da81)" style="fill: none; stroke: #000000; stroke-width: 2; stroke-linejoin: miter"/>
   </g>
   <g id="patch_10">
    <path d="M 126.206509 181.467 
C 126.206509 182.481064 126.609774 183.454632 127.326826 184.171683 
C 128.043878 184.888735 129.017445 185.292 130.031509 185.292 
C 131.045573 185.292 132.019141 184.888735 132.736193 184.171683 
C 133.453244 183.454632 133.856509 182.481064 133.856509 181.467 
" clip-path="url(#pc7b707da81)" style="fill: none; stroke: #000000; stroke-width: 2; stroke-linejoin: miter"/>
   </g>
   <g id="patch_11">
    <path d="M 118.556509 181.467 
C 118.556509 182.481064 118.959774 183.454632 119.676826 184.171683 
C 120.393878 184.888735 121.367445 185.292 122.381509 185.292 
C 123.395573 185.292 124.369141 184.888735 125.086193 184.171683 
C 125.803244 183.454632 126.206509 182.481064 126.206509 181.467 
" clip-path="url(#pc7b707da81)" style="fill: none; stroke: #000000; stroke-width: 2; stroke-linejoin: miter"/>
   </g>
   <g id="patch_12">
    <path d="M 110.906509 181.467 
C 110.906509 182.481064 111.309774 183.454632 112.026826 184.171683 
C 112.743878 184.888735 113.717445 185.292 114.731509 185.292 
C 115.745573 185.292 116.719141 184.888735 117.436193 184.171683 
C 118.153244 183.454632 118.556509 182.481064 118.556509 181.467 
" clip-path="url(#pc7b707da81)" style="fill: none; stroke: #000000; stroke-width: 2; stroke-linejoin: miter"/>
   </g>
   <g id="patch_13">
    <path d="M 103.256509 181.467 
C 103.256509 182.481064 103.659774 183.454632 104.376826 184.171683 
C 105.093878 184.888735 106.067445 185.292 107.081509 185.292 
C 108.095573 185.292 109.069141 184.888735 109.786193 184.171683 
C 110.503244 183.454632 110.906509 182.481064 110.906509 181.467 
" clip-path="url(#pc7b707da81)" style="fill: none; stroke: #000000; stroke-width: 2; stroke-linejoin: miter"/>
   </g>
   <g id="patch_14">
    <path d="M 59.840619 92.221906 
C 60.718824 92.728938 61.763591 92.866484 62.743102 92.604025 
C 63.722612 92.341566 64.558634 91.700064 65.065666 90.821858 
C 65.572698 89.943653 65.710244 88.898886 65.447785 87.919376 
C 65.185326 86.939865 64.543824 86.103843 63.665619 85.596811 
" clip-path="url(#pc7b707da81)" style="fill: none; stroke: #000000; stroke-width: 2; stroke-linejoin: miter"/>
   </g>
   <g id="patch_15">
    <path d="M 56.015619 98.847 
C 56.893824 99.354032 57.938591 99.491578 58.918102 99.229119 
C 59.897612 98.96666 60.733634 98.325158 61.240666 97.446953 
C 61.747698 96.568748 61.885244 95.523981 61.622785 94.54447 
C 61.360326 93.564959 60.718824 92.728938 59.840619 92.221906 
" clip-path="url(#pc7b707da81)" style="fill: none; stroke: #000000; stroke-width: 2; stroke-linejoin: miter"/>
   </g>
   <g id="patch_16">
    <path d="M 52.190619 105.472094 
C 53.068824 105.979126 54.113591 106.116673 55.093102 105.854213 
C 56.072612 105.591754 56.908634 104.950252 57.415666 104.072047 
C 57.922698 103.193842 58.060244 102.149075 57.797785 101.169564 
C 57.535326 100.190054 56.893824 99.354032 56.015619 98.847 
" clip-path="url(#pc7b707da81)" style="fill: none; stroke: #000000; stroke-width: 2; stroke-linejoin: miter"/>
   </g>
   <g id="patch_17">
    <path d="M 48.365619 112.097189 
C 49.243824 112.604221 50.288591 112.741767 51.268102 112.479308 
C 52.247612 112.216849 53.083634 111.575347 53.590666 110.697142 
C 54.097698 109.818936 54.235244 108.774169 53.972785 107.794659 
C 53.710326 106.815148 53.068824 105.979126 52.190619 105.472094 
" clip-path="url(#pc7b707da81)" style="fill: none; stroke: #000000; stroke-width: 2; stroke-linejoin: miter"/>
   </g>
   <g id="line2d_1">
    <path d="M 118.556509 122.715 
L 158.980742 150.72173 
M 184.133787 168.14827 
L 224.558019 196.155 
" clip-path="url(#pc7b707da81)" style="fill: none; stroke: #000000; stroke-width: 2; stroke-linecap: round"/>
   </g>
   <g id="line2d_2">
    <path d="M 118.556509 122.715 
L 118.556509 95.175 
" clip-path="url(#pc7b707da81)" style="fill: none; stroke: #000000; stroke-width: 2; stroke-linecap: round"/>
   </g>
   <g id="line2d_3">
    <path d="M 118.556509 12.555 
L 118.556509 40.095 
" clip-path="url(#pc7b707da81)" style="fill: none; stroke: #000000; stroke-width: 2; stroke-linecap: round"/>
   </g>
   <g id="line2d_4">
    <path d="M 107.540509 95.175 
L 129.572509 95.175 
" clip-path="url(#pc7b707da81)" style="fill: none; stroke: #000000; stroke-width: 2; stroke-linecap: round"/>
   </g>
   <g id="line2d_5">
    <path d="M 107.540509 40.095 
L 129.572509 40.095 
" clip-path="url(#pc7b707da81)" style="fill: none; stroke: #000000; stroke-width: 2; stroke-linecap: round"/>
   </g>
   <g id="line2d_6">
    <path d="M 107.540509 95.175 
L 107.540509 70.389 
M 99.890509 70.389 
L 115.190509 70.389 
M 99.890509 64.881 
L 115.190509 64.881 
M 107.540509 64.881 
L 107.540509 40.095 
" clip-path="url(#pc7b707da81)" style="fill: none; stroke: #000000; stroke-width: 2; stroke-linecap: round"/>
   </g>
   <g id="line2d_7">
    <path d="M 129.572509 95.175 
L 129.572509 67.635 
M 121.922509 75.285 
L 137.222509 59.985 
M 121.922509 59.985 
L 137.222509 75.285 
M 129.572509 67.635 
L 129.572509 40.095 
" clip-path="url(#pc7b707da81)" style="fill: none; stroke: #000000; stroke-width: 2; stroke-linecap: round"/>
   </g>
   <g id="line2d_8">
    <path d="M 118.556509 122.715 
L 88.193495 143.751113 
" clip-path="url(#pc7b707da81)" style="fill: none; stroke: #000000; stroke-width: 2; stroke-linecap: round"/>
   </g>
   <g id="line2d_9">
    <path d="M 12.555 196.155 
L 42.918014 175.118887 
" clip-path="url(#pc7b707da81)" style="fill: none; stroke: #000000; stroke-width: 2; stroke-linecap: round"/>
   </g>
   <g id="line2d_10">
    <path d="M 94.46705 152.806209 
L 81.919941 134.696017 
" clip-path="url(#pc7b707da81)" style="fill: none; stroke: #000000; stroke-width: 2; stroke-linecap: round"/>
   </g>
   <g id="line2d_11">
    <path d="M 49.191569 184.173983 
L 36.644459 166.063791 
" clip-path="url(#pc7b707da81)" style="fill: none; stroke: #000000; stroke-width: 2; stroke-linecap: round"/>
   </g>
   <g id="line2d_12">
    <path d="M 94.46705 152.806209 
L 74.093083 166.921708 
M 78.449719 173.209969 
L 69.736448 160.633446 
M 73.922171 176.346746 
L 65.2089 163.770224 
M 69.565535 170.058485 
L 49.191569 184.173983 
" clip-path="url(#pc7b707da81)" style="fill: none; stroke: #000000; stroke-width: 2; stroke-linecap: round"/>
   </g>
   <g id="line2d_13">
    <path d="M 81.919941 134.696017 
L 71.858723 141.666633 
M 46.705677 159.093174 
L 36.644459 166.063791 
" clip-path="url(#pc7b707da81)" style="fill: none; stroke: #000000; stroke-width: 2; stroke-linecap: round"/>
   </g>
   <g id="line2d_14">
    <path d="M 224.558019 196.155 
L 185.327264 128.20534 
" clip-path="url(#pc7b707da81)" style="fill: none; stroke: #000000; stroke-width: 2; stroke-linecap: round"/>
   </g>
   <g id="line2d_15">
    <path d="M 118.556509 12.555 
L 157.787264 80.50466 
" clip-path="url(#pc7b707da81)" style="fill: none; stroke: #000000; stroke-width: 2; stroke-linecap: round"/>
   </g>
   <g id="line2d_16">
    <path d="M 175.787128 133.71334 
L 194.8674 122.69734 
" clip-path="url(#pc7b707da81)" style="fill: none; stroke: #000000; stroke-width: 2; stroke-linecap: round"/>
   </g>
   <g id="line2d_17">
    <path d="M 148.247128 86.01266 
L 167.3274 74.99666 
" clip-path="url(#pc7b707da81)" style="fill: none; stroke: #000000; stroke-width: 2; stroke-linecap: round"/>
   </g>
   <g id="line2d_18">
    <path d="M 175.787128 133.71334 
L 163.394128 112.248034 
M 156.769034 116.073034 
L 170.019223 108.423034 
M 154.015034 111.302966 
L 167.265223 103.652966 
M 160.640128 107.477966 
L 148.247128 86.01266 
" clip-path="url(#pc7b707da81)" style="fill: none; stroke: #000000; stroke-width: 2; stroke-linecap: round"/>
   </g>
   <g id="line2d_19">
    <path d="M 194.8674 122.69734 
L 181.0974 98.847 
M 178.297306 109.297094 
L 183.897494 88.396906 
M 170.647306 96.046906 
L 191.547494 101.647094 
M 181.0974 98.847 
L 167.3274 74.99666 
" clip-path="url(#pc7b707da81)" style="fill: none; stroke: #000000; stroke-width: 2; stroke-linecap: round"/>
   </g>
   <g id="line2d_20">
    <path d="M 224.558019 196.155 
L 146.096509 196.155 
" clip-path="url(#pc7b707da81)" style="fill: none; stroke: #000000; stroke-width: 2; stroke-linecap: round"/>
   </g>
   <g id="line2d_21">
    <path d="M 12.555 196.155 
L 91.016509 196.155 
" clip-path="url(#pc7b707da81)" style="fill: none; stroke: #000000; stroke-width: 2; stroke-linecap: round"/>
   </g>
   <g id="line2d_22">
    <path d="M 146.096509 210.843 
L 146.096509 181.467 
" clip-path="url(#pc7b707da81)" style="fill: none; stroke: #000000; stroke-width: 2; stroke-linecap: round"/>
   </g>
   <g id="line2d_23">
    <path d="M 91.016509 210.843 
L 91.016509 181.467 
" clip-path="url(#pc7b707da81)" style="fill: none; stroke: #000000; stroke-width: 2; stroke-linecap: round"/>
   </g>
   <g id="line2d_24">
    <path d="M 146.096509 196.155 
L 121.310509 196.155 
M 121.310509 203.805 
L 121.310509 188.505 
M 115.802509 203.805 
L 115.802509 188.505 
M 115.802509 196.155 
L 91.016509 196.155 
" clip-path="url(#pc7b707da81)" style="fill: none; stroke: #000000; stroke-width: 2; stroke-linecap: round"/>
   </g>
   <g id="line2d_25">
    <path d="M 146.096509 210.843 
L 118.556509 210.843 
M 126.206509 218.493 
L 110.906509 203.193 
M 110.906509 218.493 
L 126.206509 203.193 
M 118.556509 210.843 
L 91.016509 210.843 
" clip-path="url(#pc7b707da81)" style="fill: none; stroke: #000000; stroke-width: 2; stroke-linecap: round"/>
   </g>
   <g id="line2d_26">
    <path d="M 146.096509 181.467 
L 133.856509 181.467 
M 103.256509 181.467 
L 91.016509 181.467 
" clip-path="url(#pc7b707da81)" style="fill: none; stroke: #000000; stroke-width: 2; stroke-linecap: round"/>
   </g>
   <g id="line2d_27">
    <path d="M 118.556509 12.555 
L 79.325755 80.50466 
" clip-path="url(#pc7b707da81)" style="fill: none; stroke: #000000; stroke-width: 2; stroke-linecap: round"/>
   </g>
   <g id="line2d_28">
    <path d="M 12.555 196.155 
L 51.785755 128.20534 
" clip-path="url(#pc7b707da81)" style="fill: none; stroke: #000000; stroke-width: 2; stroke-linecap: round"/>
   </g>
   <g id="line2d_29">
    <path d="M 88.865891 86.01266 
L 69.785619 74.99666 
" clip-path="url(#pc7b707da81)" style="fill: none; stroke: #000000; stroke-width: 2; stroke-linecap: round"/>
   </g>
   <g id="line2d_30">
    <path d="M 61.325891 133.71334 
L 42.245619 122.69734 
" clip-path="url(#pc7b707da81)" style="fill: none; stroke: #000000; stroke-width: 2; stroke-linecap: round"/>
   </g>
   <g id="line2d_31">
    <path d="M 88.865891 86.01266 
L 75.095891 109.863 
M 85.545985 107.062906 
L 64.645796 112.663094 
M 77.895985 120.313094 
L 72.295796 99.412906 
M 75.095891 109.863 
L 61.325891 133.71334 
" clip-path="url(#pc7b707da81)" style="fill: none; stroke: #000000; stroke-width: 2; stroke-linecap: round"/>
   </g>
   <g id="line2d_32">
    <path d="M 69.785619 74.99666 
L 63.665619 85.596811 
M 48.365619 112.097189 
L 42.245619 122.69734 
" clip-path="url(#pc7b707da81)" style="fill: none; stroke: #000000; stroke-width: 2; stroke-linecap: round"/>
   </g>
   <g id="patch_18">
    <path d="M 118.556509 125.01 
C 119.165151 125.01 119.748945 124.768184 120.179319 124.33781 
C 120.609694 123.907436 120.851509 123.323641 120.851509 122.715 
C 120.851509 122.106359 120.609694 121.522564 120.179319 121.09219 
C 119.748945 120.661816 119.165151 120.42 118.556509 120.42 
C 117.947868 120.42 117.364074 120.661816 116.933699 121.09219 
C 116.503325 121.522564 116.261509 122.106359 116.261509 122.715 
C 116.261509 123.323641 116.503325 123.907436 116.933699 124.33781 
C 117.364074 124.768184 117.947868 125.01 118.556509 125.01 
z
" clip-path="url(#pc7b707da81)" style="stroke: #000000; stroke-width: 2; stroke-linejoin: miter"/>
   </g>
   <g id="patch_19">
    <path d="M 224.558019 198.45 
C 225.16666 198.45 225.750455 198.208184 226.180829 197.77781 
C 226.611203 197.347436 226.853019 196.763641 226.853019 196.155 
C 226.853019 195.546359 226.611203 194.962564 226.180829 194.53219 
C 225.750455 194.101816 225.16666 193.86 224.558019 193.86 
C 223.949378 193.86 223.365583 194.101816 222.935209 194.53219 
C 222.504835 194.962564 222.263019 195.546359 222.263019 196.155 
C 222.263019 196.763641 222.504835 197.347436 222.935209 197.77781 
C 223.365583 198.208184 223.949378 198.45 224.558019 198.45 
z
" clip-path="url(#pc7b707da81)" style="stroke: #000000; stroke-width: 2; stroke-linejoin: miter"/>
   </g>
   <g id="patch_20">
    <path d="M 118.556509 14.85 
C 119.165151 14.85 119.748945 14.608184 120.179319 14.17781 
C 120.609694 13.747436 120.851509 13.163641 120.851509 12.555 
C 120.851509 11.946359 120.609694 11.362564 120.179319 10.93219 
C 119.748945 10.501816 119.165151 10.26 118.556509 10.26 
C 117.947868 10.26 117.364074 10.501816 116.933699 10.93219 
C 116.503325 11.362564 116.261509 11.946359 116.261509 12.555 
C 116.261509 13.163641 116.503325 13.747436 116.933699 14.17781 
C 117.364074 14.608184 117.947868 14.85 118.556509 14.85 
z
" clip-path="url(#pc7b707da81)" style="stroke: #000000; stroke-width: 2; stroke-linejoin: miter"/>
   </g>
   <g id="patch_21">
    <path d="M 12.555 198.45 
C 13.163641 198.45 13.747436 198.208184 14.17781 197.77781 
C 14.608184 197.347436 14.85 196.763641 14.85 196.155 
C 14.85 195.546359 14.608184 194.962564 14.17781 194.53219 
C 13.747436 194.101816 13.163641 193.86 12.555 193.86 
C 11.946359 193.86 11.362564 194.101816 10.93219 194.53219 
C 10.501816 194.962564 10.26 195.546359 10.26 196.155 
C 10.26 196.763641 10.501816 197.347436 10.93219 197.77781 
C 11.362564 198.208184 11.946359 198.45 12.555 198.45 
z
" clip-path="url(#pc7b707da81)" style="stroke: #000000; stroke-width: 2; stroke-linejoin: miter"/>
   </g>
  </g>
 </g>
 <defs>
  <clipPath id="pc7b707da81">
   <rect x="7.2" y="7.2" width="222.713019" height="214.353"/>
  </clipPath>
 </defs>
</svg>
