<?xml version="1.0" encoding="utf-8" standalone="no"?>
<!DOCTYPE svg PUBLIC "-//W3C//DTD SVG 1.1//EN"
  "http://www.w3.org/Graphics/SVG/1.1/DTD/svg11.dtd">
<svg xmlns:xlink="http://www.w3.org/1999/xlink" width="237.113019pt" height="225.081pt" viewBox="0 0 237.113019 225.081" xmlns="http://www.w3.org/2000/svg" version="1.1">
 <metadata>
  <rdf:RDF xmlns:dc="http://purl.org/dc/elements/1.1/" xmlns:cc="http://creativecommons.org/ns#" xmlns:rdf="http://www.w3.org/1999/02/22-rdf-syntax-ns#">
   <cc:Work>
    <dc:type rdf:resource="http://purl.org/dc/dcmitype/StillImage"/>
    <dc:date>2023-03-23T14:49:15.952092</dc:date>
    <dc:format>image/svg+xml</dc:format>
    <dc:creator>
     <cc:Agent>
      <dc:title>Matplotlib v3.5.2, https://matplotlib.org/</dc:title>
     </cc:Agent>
    </dc:creator>
   </cc:Work>
  </rdf:RDF>
 </metadata>
 <defs>
  <style type="text/css">*{stroke-linejoin: round; stroke-linecap: butt}</style>
 </defs>
 <g id="figure_1">
  <g id="patch_1">
   <path d="M 0 225.081 
L 237.113019 225.081 
L 237.113019 0 
L 0 0 
L 0 225.081 
z
" style="fill: none"/>
  </g>
  <g id="axes_1">
   <g id="patch_2">
    <path d="M 65.570461 146.023269 
C 66.147965 146.856824 67.033889 147.427435 68.031659 147.60849 
C 69.029429 147.789546 70.059354 147.566586 70.89291 146.989082 
C 71.726465 146.411577 72.297076 145.525654 72.478131 144.527884 
C 72.659187 143.530114 72.436227 142.500189 71.858723 141.666633 
" clip-path="url(#p283ca611cf)" style="fill: none; stroke: #000000; stroke-width: 2; stroke-linejoin: miter"/>
   </g>
   <g id="patch_3">
    <path d="M 59.2822 150.379904 
C 59.859704 151.213459 60.745628 151.78407 61.743398 151.965125 
C 62.741168 152.146181 63.771093 151.923221 64.604648 151.345717 
C 65.438204 150.768213 66.008814 149.882289 66.18987 148.884519 
C 66.370926 147.886749 66.147965 146.856824 65.570461 146.023269 
" clip-path="url(#p283ca611cf)" style="fill: none; stroke: #000000; stroke-width: 2; stroke-linejoin: miter"/>
   </g>
   <g id="patch_4">
    <path d="M 52.993939 154.736539 
C 53.571443 155.570094 54.457367 156.140705 55.455136 156.321761 
C 56.452906 156.502816 57.482832 156.279856 58.316387 155.702352 
C 59.149942 155.124848 59.720553 154.238924 59.901609 153.241154 
C 60.082664 152.243384 59.859704 151.213459 59.2822 150.379904 
" clip-path="url(#p283ca611cf)" style="fill: none; stroke: #000000; stroke-width: 2; stroke-linejoin: miter"/>
   </g>
   <g id="patch_5">
    <path d="M 46.705677 159.093174 
C 47.283182 159.92673 48.169105 160.49734 49.166875 160.678396 
C 50.164645 160.859451 51.19457 160.636491 52.028126 160.058987 
C 52.861681 159.481483 53.432292 158.595559 53.613347 157.59779 
C 53.794403 156.60002 53.571443 155.570094 52.993939 154.736539 
" clip-path="url(#p283ca611cf)" style="fill: none; stroke: #000000; stroke-width: 2; stroke-linejoin: miter"/>
   </g>
   <g id="patch_6">
    <path d="M 188.102445 103.636094 
C 187.22424 104.143126 186.582738 104.979148 186.320279 105.958659 
C 186.05782 106.938169 186.195366 107.982936 186.702398 108.861142 
C 187.20943 109.739347 188.045452 110.380849 189.024962 110.643308 
C 190.004473 110.905767 191.04924 110.768221 191.927445 110.261189 
" clip-path="url(#p283ca611cf)" style="fill: none; stroke: #000000; stroke-width: 2; stroke-linejoin: miter"/>
   </g>
   <g id="patch_7">
    <path d="M 184.277445 97.011 
C 183.39924 97.518032 182.757738 98.354054 182.495279 99.333564 
C 182.23282 100.313075 182.370366 101.357842 182.877398 102.236047 
C 183.38443 103.114252 184.220452 103.755754 185.199962 104.018213 
C 186.179473 104.280673 187.22424 104.143126 188.102445 103.636094 
" clip-path="url(#p283ca611cf)" style="fill: none; stroke: #000000; stroke-width: 2; stroke-linejoin: miter"/>
   </g>
   <g id="patch_8">
    <path d="M 180.452445 90.385906 
C 179.57424 90.892938 178.932738 91.728959 178.670279 92.70847 
C 178.40782 93.687981 178.545366 94.732748 179.052398 95.610953 
C 179.55943 96.489158 180.395452 97.13066 181.374962 97.393119 
C 182.354473 97.655578 183.39924 97.518032 184.277445 97.011 
" clip-path="url(#p283ca611cf)" style="fill: none; stroke: #000000; stroke-width: 2; stroke-linejoin: miter"/>
   </g>
   <g id="patch_9">
    <path d="M 176.627445 83.760811 
C 175.74924 84.267843 175.107738 85.103865 174.845279 86.083376 
C 174.58282 87.062886 174.720366 88.107653 175.227398 88.985858 
C 175.73443 89.864064 176.570452 90.505566 177.549962 90.768025 
C 178.529473 91.030484 179.57424 90.892938 180.452445 90.385906 
" clip-path="url(#p283ca611cf)" style="fill: none; stroke: #000000; stroke-width: 2; stroke-linejoin: miter"/>
   </g>
   <g id="patch_10">
    <path d="M 126.206509 185.139 
C 126.206509 186.153064 126.609774 187.126632 127.326826 187.843683 
C 128.043878 188.560735 129.017445 188.964 130.031509 188.964 
C 131.045573 188.964 132.019141 188.560735 132.736193 187.843683 
C 133.453244 187.126632 133.856509 186.153064 133.856509 185.139 
" clip-path="url(#p283ca611cf)" style="fill: none; stroke: #000000; stroke-width: 2; stroke-linejoin: miter"/>
   </g>
   <g id="patch_11">
    <path d="M 118.556509 185.139 
C 118.556509 186.153064 118.959774 187.126632 119.676826 187.843683 
C 120.393878 188.560735 121.367445 188.964 122.381509 188.964 
C 123.395573 188.964 124.369141 188.560735 125.086193 187.843683 
C 125.803244 187.126632 126.206509 186.153064 126.206509 185.139 
" clip-path="url(#p283ca611cf)" style="fill: none; stroke: #000000; stroke-width: 2; stroke-linejoin: miter"/>
   </g>
   <g id="patch_12">
    <path d="M 110.906509 185.139 
C 110.906509 186.153064 111.309774 187.126632 112.026826 187.843683 
C 112.743878 188.560735 113.717445 188.964 114.731509 188.964 
C 115.745573 188.964 116.719141 188.560735 117.436193 187.843683 
C 118.153244 187.126632 118.556509 186.153064 118.556509 185.139 
" clip-path="url(#p283ca611cf)" style="fill: none; stroke: #000000; stroke-width: 2; stroke-linejoin: miter"/>
   </g>
   <g id="patch_13">
    <path d="M 103.256509 185.139 
C 103.256509 186.153064 103.659774 187.126632 104.376826 187.843683 
C 105.093878 188.560735 106.067445 188.964 107.081509 188.964 
C 108.095573 188.964 109.069141 188.560735 109.786193 187.843683 
C 110.503244 187.126632 110.906509 186.153064 110.906509 185.139 
" clip-path="url(#p283ca611cf)" style="fill: none; stroke: #000000; stroke-width: 2; stroke-linejoin: miter"/>
   </g>
   <g id="patch_14">
    <path d="M 69.380755 97.729906 
C 70.25896 98.236938 71.303727 98.374484 72.283238 98.112025 
C 73.262748 97.849566 74.09877 97.208064 74.605802 96.329858 
C 75.112834 95.451653 75.25038 94.406886 74.987921 93.427376 
C 74.725462 92.447865 74.08396 91.611843 73.205755 91.104811 
" clip-path="url(#p283ca611cf)" style="fill: none; stroke: #000000; stroke-width: 2; stroke-linejoin: miter"/>
   </g>
   <g id="patch_15">
    <path d="M 65.555755 104.355 
C 66.43396 104.862032 67.478727 104.999578 68.458238 104.737119 
C 69.437748 104.47466 70.27377 103.833158 70.780802 102.954953 
C 71.287834 102.076748 71.42538 101.031981 71.162921 100.05247 
C 70.900462 99.072959 70.25896 98.236938 69.380755 97.729906 
" clip-path="url(#p283ca611cf)" style="fill: none; stroke: #000000; stroke-width: 2; stroke-linejoin: miter"/>
   </g>
   <g id="patch_16">
    <path d="M 61.730755 110.980094 
C 62.60896 111.487126 63.653727 111.624673 64.633238 111.362213 
C 65.612748 111.099754 66.44877 110.458252 66.955802 109.580047 
C 67.462834 108.701842 67.60038 107.657075 67.337921 106.677564 
C 67.075462 105.698054 66.43396 104.862032 65.555755 104.355 
" clip-path="url(#p283ca611cf)" style="fill: none; stroke: #000000; stroke-width: 2; stroke-linejoin: miter"/>
   </g>
   <g id="patch_17">
    <path d="M 57.905755 117.605189 
C 58.78396 118.112221 59.828727 118.249767 60.808238 117.987308 
C 61.787748 117.724849 62.62377 117.083347 63.130802 116.205142 
C 63.637834 115.326936 63.77538 114.282169 63.512921 113.302659 
C 63.250462 112.323148 62.60896 111.487126 61.730755 110.980094 
" clip-path="url(#p283ca611cf)" style="fill: none; stroke: #000000; stroke-width: 2; stroke-linejoin: miter"/>
   </g>
   <g id="line2d_1">
    <path d="M 118.556509 122.715 
L 169.29349 157.866611 
M 173.650125 151.57835 
L 164.936855 164.154873 
M 178.177673 154.715127 
L 169.464403 167.29165 
M 173.821038 161.003389 
L 224.558019 196.155 
" clip-path="url(#p283ca611cf)" style="fill: none; stroke: #000000; stroke-width: 2; stroke-linecap: round"/>
   </g>
   <g id="line2d_2">
    <path d="M 118.556509 122.715 
L 118.556509 95.175 
" clip-path="url(#p283ca611cf)" style="fill: none; stroke: #000000; stroke-width: 2; stroke-linecap: round"/>
   </g>
   <g id="line2d_3">
    <path d="M 118.556509 12.555 
L 118.556509 40.095 
" clip-path="url(#p283ca611cf)" style="fill: none; stroke: #000000; stroke-width: 2; stroke-linecap: round"/>
   </g>
   <g id="line2d_4">
    <path d="M 107.540509 95.175 
L 129.572509 95.175 
" clip-path="url(#p283ca611cf)" style="fill: none; stroke: #000000; stroke-width: 2; stroke-linecap: round"/>
   </g>
   <g id="line2d_5">
    <path d="M 107.540509 40.095 
L 129.572509 40.095 
" clip-path="url(#p283ca611cf)" style="fill: none; stroke: #000000; stroke-width: 2; stroke-linecap: round"/>
   </g>
   <g id="line2d_6">
    <path d="M 107.540509 95.175 
L 107.540509 70.389 
M 99.890509 70.389 
L 115.190509 70.389 
M 99.890509 64.881 
L 115.190509 64.881 
M 107.540509 64.881 
L 107.540509 40.095 
" clip-path="url(#p283ca611cf)" style="fill: none; stroke: #000000; stroke-width: 2; stroke-linecap: round"/>
   </g>
   <g id="line2d_7">
    <path d="M 129.572509 95.175 
L 129.572509 67.635 
M 121.922509 75.285 
L 137.222509 59.985 
M 121.922509 59.985 
L 137.222509 75.285 
M 129.572509 67.635 
L 129.572509 40.095 
" clip-path="url(#p283ca611cf)" style="fill: none; stroke: #000000; stroke-width: 2; stroke-linecap: round"/>
   </g>
   <g id="line2d_8">
    <path d="M 118.556509 122.715 
L 88.193495 143.751113 
" clip-path="url(#p283ca611cf)" style="fill: none; stroke: #000000; stroke-width: 2; stroke-linecap: round"/>
   </g>
   <g id="line2d_9">
    <path d="M 12.555 196.155 
L 42.918014 175.118887 
" clip-path="url(#p283ca611cf)" style="fill: none; stroke: #000000; stroke-width: 2; stroke-linecap: round"/>
   </g>
   <g id="line2d_10">
    <path d="M 94.46705 152.806209 
L 81.919941 134.696017 
" clip-path="url(#p283ca611cf)" style="fill: none; stroke: #000000; stroke-width: 2; stroke-linecap: round"/>
   </g>
   <g id="line2d_11">
    <path d="M 49.191569 184.173983 
L 36.644459 166.063791 
" clip-path="url(#p283ca611cf)" style="fill: none; stroke: #000000; stroke-width: 2; stroke-linecap: round"/>
   </g>
   <g id="line2d_12">
    <path d="M 94.46705 152.806209 
L 71.829309 168.490096 
M 82.474206 170.421722 
L 61.184413 166.55847 
M 69.897683 179.134993 
L 73.760935 157.8452 
M 71.829309 168.490096 
L 49.191569 184.173983 
" clip-path="url(#p283ca611cf)" style="fill: none; stroke: #000000; stroke-width: 2; stroke-linecap: round"/>
   </g>
   <g id="line2d_13">
    <path d="M 81.919941 134.696017 
L 71.858723 141.666633 
M 46.705677 159.093174 
L 36.644459 166.063791 
" clip-path="url(#p283ca611cf)" style="fill: none; stroke: #000000; stroke-width: 2; stroke-linecap: round"/>
   </g>
   <g id="line2d_14">
    <path d="M 224.558019 196.155 
L 185.327264 128.20534 
" clip-path="url(#p283ca611cf)" style="fill: none; stroke: #000000; stroke-width: 2; stroke-linecap: round"/>
   </g>
   <g id="line2d_15">
    <path d="M 118.556509 12.555 
L 157.787264 80.50466 
" clip-path="url(#p283ca611cf)" style="fill: none; stroke: #000000; stroke-width: 2; stroke-linecap: round"/>
   </g>
   <g id="line2d_16">
    <path d="M 172.607083 135.54934 
L 198.047445 120.86134 
" clip-path="url(#p283ca611cf)" style="fill: none; stroke: #000000; stroke-width: 2; stroke-linecap: round"/>
   </g>
   <g id="line2d_17">
    <path d="M 145.067083 87.84866 
L 170.507445 73.16066 
" clip-path="url(#p283ca611cf)" style="fill: none; stroke: #000000; stroke-width: 2; stroke-linecap: round"/>
   </g>
   <g id="line2d_18">
    <path d="M 185.327264 128.20534 
L 172.934264 106.740034 
M 166.30917 110.565034 
L 179.559358 102.915034 
M 163.55517 105.794966 
L 176.805358 98.144966 
M 170.180264 101.969966 
L 157.787264 80.50466 
" clip-path="url(#p283ca611cf)" style="fill: none; stroke: #000000; stroke-width: 2; stroke-linecap: round"/>
   </g>
   <g id="line2d_19">
    <path d="M 172.607083 135.54934 
L 158.837083 111.699 
M 156.036989 122.149094 
L 161.637177 101.248906 
M 148.386989 108.898906 
L 169.287177 114.499094 
M 158.837083 111.699 
L 145.067083 87.84866 
" clip-path="url(#p283ca611cf)" style="fill: none; stroke: #000000; stroke-width: 2; stroke-linecap: round"/>
   </g>
   <g id="line2d_20">
    <path d="M 198.047445 120.86134 
L 191.927445 110.261189 
M 176.627445 83.760811 
L 170.507445 73.16066 
" clip-path="url(#p283ca611cf)" style="fill: none; stroke: #000000; stroke-width: 2; stroke-linecap: round"/>
   </g>
   <g id="line2d_21">
    <path d="M 224.558019 196.155 
L 146.096509 196.155 
" clip-path="url(#p283ca611cf)" style="fill: none; stroke: #000000; stroke-width: 2; stroke-linecap: round"/>
   </g>
   <g id="line2d_22">
    <path d="M 12.555 196.155 
L 91.016509 196.155 
" clip-path="url(#p283ca611cf)" style="fill: none; stroke: #000000; stroke-width: 2; stroke-linecap: round"/>
   </g>
   <g id="line2d_23">
    <path d="M 146.096509 207.171 
L 146.096509 185.139 
" clip-path="url(#p283ca611cf)" style="fill: none; stroke: #000000; stroke-width: 2; stroke-linecap: round"/>
   </g>
   <g id="line2d_24">
    <path d="M 91.016509 207.171 
L 91.016509 185.139 
" clip-path="url(#p283ca611cf)" style="fill: none; stroke: #000000; stroke-width: 2; stroke-linecap: round"/>
   </g>
   <g id="line2d_25">
    <path d="M 146.096509 207.171 
L 121.310509 207.171 
M 121.310509 214.821 
L 121.310509 199.521 
M 115.802509 214.821 
L 115.802509 199.521 
M 115.802509 207.171 
L 91.016509 207.171 
" clip-path="url(#p283ca611cf)" style="fill: none; stroke: #000000; stroke-width: 2; stroke-linecap: round"/>
   </g>
   <g id="line2d_26">
    <path d="M 146.096509 185.139 
L 133.856509 185.139 
M 103.256509 185.139 
L 91.016509 185.139 
" clip-path="url(#p283ca611cf)" style="fill: none; stroke: #000000; stroke-width: 2; stroke-linecap: round"/>
   </g>
   <g id="line2d_27">
    <path d="M 118.556509 12.555 
L 73.205755 91.104811 
M 57.905755 117.605189 
L 12.555 196.155 
" clip-path="url(#p283ca611cf)" style="fill: none; stroke: #000000; stroke-width: 2; stroke-linecap: round"/>
   </g>
   <g id="patch_18">
    <path d="M 118.556509 125.01 
C 119.165151 125.01 119.748945 124.768184 120.179319 124.33781 
C 120.609694 123.907436 120.851509 123.323641 120.851509 122.715 
C 120.851509 122.106359 120.609694 121.522564 120.179319 121.09219 
C 119.748945 120.661816 119.165151 120.42 118.556509 120.42 
C 117.947868 120.42 117.364074 120.661816 116.933699 121.09219 
C 116.503325 121.522564 116.261509 122.106359 116.261509 122.715 
C 116.261509 123.323641 116.503325 123.907436 116.933699 124.33781 
C 117.364074 124.768184 117.947868 125.01 118.556509 125.01 
z
" clip-path="url(#p283ca611cf)" style="stroke: #000000; stroke-width: 2; stroke-linejoin: miter"/>
   </g>
   <g id="patch_19">
    <path d="M 224.558019 198.45 
C 225.16666 198.45 225.750455 198.208184 226.180829 197.77781 
C 226.611203 197.347436 226.853019 196.763641 226.853019 196.155 
C 226.853019 195.546359 226.611203 194.962564 226.180829 194.53219 
C 225.750455 194.101816 225.16666 193.86 224.558019 193.86 
C 223.949378 193.86 223.365583 194.101816 222.935209 194.53219 
C 222.504835 194.962564 222.263019 195.546359 222.263019 196.155 
C 222.263019 196.763641 222.504835 197.347436 222.935209 197.77781 
C 223.365583 198.208184 223.949378 198.45 224.558019 198.45 
z
" clip-path="url(#p283ca611cf)" style="stroke: #000000; stroke-width: 2; stroke-linejoin: miter"/>
   </g>
   <g id="patch_20">
    <path d="M 118.556509 14.85 
C 119.165151 14.85 119.748945 14.608184 120.179319 14.17781 
C 120.609694 13.747436 120.851509 13.163641 120.851509 12.555 
C 120.851509 11.946359 120.609694 11.362564 120.179319 10.93219 
C 119.748945 10.501816 119.165151 10.26 118.556509 10.26 
C 117.947868 10.26 117.364074 10.501816 116.933699 10.93219 
C 116.503325 11.362564 116.261509 11.946359 116.261509 12.555 
C 116.261509 13.163641 116.503325 13.747436 116.933699 14.17781 
C 117.364074 14.608184 117.947868 14.85 118.556509 14.85 
z
" clip-path="url(#p283ca611cf)" style="stroke: #000000; stroke-width: 2; stroke-linejoin: miter"/>
   </g>
   <g id="patch_21">
    <path d="M 12.555 198.45 
C 13.163641 198.45 13.747436 198.208184 14.17781 197.77781 
C 14.608184 197.347436 14.85 196.763641 14.85 196.155 
C 14.85 195.546359 14.608184 194.962564 14.17781 194.53219 
C 13.747436 194.101816 13.163641 193.86 12.555 193.86 
C 11.946359 193.86 11.362564 194.101816 10.93219 194.53219 
C 10.501816 194.962564 10.26 195.546359 10.26 196.155 
C 10.26 196.763641 10.501816 197.347436 10.93219 197.77781 
C 11.362564 198.208184 11.946359 198.45 12.555 198.45 
z
" clip-path="url(#p283ca611cf)" style="stroke: #000000; stroke-width: 2; stroke-linejoin: miter"/>
   </g>
  </g>
 </g>
 <defs>
  <clipPath id="p283ca611cf">
   <rect x="7.2" y="7.2" width="222.713019" height="210.681"/>
  </clipPath>
 </defs>
</svg>
