<?xml version="1.0" encoding="utf-8" standalone="no"?>
<!DOCTYPE svg PUBLIC "-//W3C//DTD SVG 1.1//EN"
  "http://www.w3.org/Graphics/SVG/1.1/DTD/svg11.dtd">
<svg xmlns:xlink="http://www.w3.org/1999/xlink" width="237.113019pt" height="210.239981pt" viewBox="0 0 237.113019 210.239981" xmlns="http://www.w3.org/2000/svg" version="1.1">
 <metadata>
  <rdf:RDF xmlns:dc="http://purl.org/dc/elements/1.1/" xmlns:cc="http://creativecommons.org/ns#" xmlns:rdf="http://www.w3.org/1999/02/22-rdf-syntax-ns#">
   <cc:Work>
    <dc:type rdf:resource="http://purl.org/dc/dcmitype/StillImage"/>
    <dc:date>2023-03-23T14:51:01.808641</dc:date>
    <dc:format>image/svg+xml</dc:format>
    <dc:creator>
     <cc:Agent>
      <dc:title>Matplotlib v3.5.2, https://matplotlib.org/</dc:title>
     </cc:Agent>
    </dc:creator>
   </cc:Work>
  </rdf:RDF>
 </metadata>
 <defs>
  <style type="text/css">*{stroke-linejoin: round; stroke-linecap: butt}</style>
 </defs>
 <g id="figure_1">
  <g id="patch_1">
   <path d="M 0 210.239981 
L 237.113019 210.239981 
L 237.113019 0 
L 0 0 
L 0 210.239981 
z
" style="fill: none"/>
  </g>
  <g id="axes_1">
   <g id="patch_2">
    <path d="M 165.269003 155.078365 
C 165.846507 154.244809 166.069467 153.214884 165.888411 152.217114 
C 165.707356 151.219344 165.136745 150.333421 164.30319 149.755917 
C 163.469634 149.178412 162.439709 148.955452 161.441939 149.136508 
C 160.444169 149.317564 159.558246 149.888174 158.980742 150.72173 
" clip-path="url(#p08fdf0b7ad)" style="fill: none; stroke: #000000; stroke-width: 2; stroke-linejoin: miter"/>
   </g>
   <g id="patch_3">
    <path d="M 171.557264 159.435 
C 172.134768 158.601445 172.357728 157.571519 172.176673 156.573749 
C 171.995617 155.57598 171.425007 154.690056 170.591451 154.112552 
C 169.757896 153.535048 168.72797 153.312088 167.730201 153.493143 
C 166.732431 153.674199 165.846507 154.244809 165.269003 155.078365 
" clip-path="url(#p08fdf0b7ad)" style="fill: none; stroke: #000000; stroke-width: 2; stroke-linejoin: miter"/>
   </g>
   <g id="patch_4">
    <path d="M 177.845525 163.791635 
C 178.42303 162.95808 178.64599 161.928155 178.464934 160.930385 
C 178.283878 159.932615 177.713268 159.046691 176.879712 158.469187 
C 176.046157 157.891683 175.016232 157.668723 174.018462 157.849778 
C 173.020692 158.030834 172.134768 158.601445 171.557264 159.435 
" clip-path="url(#p08fdf0b7ad)" style="fill: none; stroke: #000000; stroke-width: 2; stroke-linejoin: miter"/>
   </g>
   <g id="patch_5">
    <path d="M 184.133787 168.14827 
C 184.711291 167.314715 184.934251 166.28479 184.753195 165.28702 
C 184.57214 164.28925 184.001529 163.403326 183.167974 162.825822 
C 182.334418 162.248318 181.304493 162.025358 180.306723 162.206414 
C 179.308953 162.387469 178.42303 162.95808 177.845525 163.791635 
" clip-path="url(#p08fdf0b7ad)" style="fill: none; stroke: #000000; stroke-width: 2; stroke-linejoin: miter"/>
   </g>
   <g id="patch_6">
    <path d="M 118.556509 75.285 
C 117.542445 75.285 116.568878 75.688265 115.851826 76.405317 
C 115.134774 77.122368 114.731509 78.095936 114.731509 79.11 
C 114.731509 80.124064 115.134774 81.097632 115.851826 81.814683 
C 116.568878 82.531735 117.542445 82.935 118.556509 82.935 
" clip-path="url(#p08fdf0b7ad)" style="fill: none; stroke: #000000; stroke-width: 2; stroke-linejoin: miter"/>
   </g>
   <g id="patch_7">
    <path d="M 118.556509 67.635 
C 117.542445 67.635 116.568878 68.038265 115.851826 68.755317 
C 115.134774 69.472368 114.731509 70.445936 114.731509 71.46 
C 114.731509 72.474064 115.134774 73.447632 115.851826 74.164683 
C 116.568878 74.881735 117.542445 75.285 118.556509 75.285 
" clip-path="url(#p08fdf0b7ad)" style="fill: none; stroke: #000000; stroke-width: 2; stroke-linejoin: miter"/>
   </g>
   <g id="patch_8">
    <path d="M 118.556509 59.985 
C 117.542445 59.985 116.568878 60.388265 115.851826 61.105317 
C 115.134774 61.822368 114.731509 62.795936 114.731509 63.81 
C 114.731509 64.824064 115.134774 65.797632 115.851826 66.514683 
C 116.568878 67.231735 117.542445 67.635 118.556509 67.635 
" clip-path="url(#p08fdf0b7ad)" style="fill: none; stroke: #000000; stroke-width: 2; stroke-linejoin: miter"/>
   </g>
   <g id="patch_9">
    <path d="M 118.556509 52.335 
C 117.542445 52.335 116.568878 52.738265 115.851826 53.455317 
C 115.134774 54.172368 114.731509 55.145936 114.731509 56.16 
C 114.731509 57.174064 115.134774 58.147632 115.851826 58.864683 
C 116.568878 59.581735 117.542445 59.985 118.556509 59.985 
" clip-path="url(#p08fdf0b7ad)" style="fill: none; stroke: #000000; stroke-width: 2; stroke-linejoin: miter"/>
   </g>
   <g id="patch_10">
    <path d="M 63.479276 143.004903 
C 64.056781 143.838459 64.942704 144.409069 65.940474 144.590125 
C 66.938244 144.77118 67.968169 144.54822 68.801725 143.970716 
C 69.63528 143.393212 70.205891 142.507288 70.386946 141.509519 
C 70.568002 140.511749 70.345042 139.481823 69.767538 138.648268 
" clip-path="url(#p08fdf0b7ad)" style="fill: none; stroke: #000000; stroke-width: 2; stroke-linejoin: miter"/>
   </g>
   <g id="patch_11">
    <path d="M 57.191015 147.361538 
C 57.768519 148.195094 58.654443 148.765704 59.652213 148.94676 
C 60.649983 149.127816 61.679908 148.904856 62.513463 148.327351 
C 63.347019 147.749847 63.917629 146.863924 64.098685 145.866154 
C 64.279741 144.868384 64.056781 143.838459 63.479276 143.004903 
" clip-path="url(#p08fdf0b7ad)" style="fill: none; stroke: #000000; stroke-width: 2; stroke-linejoin: miter"/>
   </g>
   <g id="patch_12">
    <path d="M 50.902754 151.718174 
C 51.480258 152.551729 52.366182 153.12234 53.363952 153.303395 
C 54.361721 153.484451 55.391647 153.261491 56.225202 152.683987 
C 57.058758 152.106482 57.629368 151.220559 57.810424 150.222789 
C 57.991479 149.225019 57.768519 148.195094 57.191015 147.361538 
" clip-path="url(#p08fdf0b7ad)" style="fill: none; stroke: #000000; stroke-width: 2; stroke-linejoin: miter"/>
   </g>
   <g id="patch_13">
    <path d="M 44.614493 156.074809 
C 45.191997 156.908364 46.07792 157.478975 47.07569 157.66003 
C 48.07346 157.841086 49.103385 157.618126 49.936941 157.040622 
C 50.770496 156.463118 51.341107 155.577194 51.522162 154.579424 
C 51.703218 153.581654 51.480258 152.551729 50.902754 151.718174 
" clip-path="url(#p08fdf0b7ad)" style="fill: none; stroke: #000000; stroke-width: 2; stroke-linejoin: miter"/>
   </g>
   <g id="patch_14">
    <path d="M 188.102445 103.636094 
C 187.22424 104.143126 186.582738 104.979148 186.320279 105.958659 
C 186.05782 106.938169 186.195366 107.982936 186.702398 108.861142 
C 187.20943 109.739347 188.045452 110.380849 189.024962 110.643308 
C 190.004473 110.905767 191.04924 110.768221 191.927445 110.261189 
" clip-path="url(#p08fdf0b7ad)" style="fill: none; stroke: #000000; stroke-width: 2; stroke-linejoin: miter"/>
   </g>
   <g id="patch_15">
    <path d="M 184.277445 97.011 
C 183.39924 97.518032 182.757738 98.354054 182.495279 99.333564 
C 182.23282 100.313075 182.370366 101.357842 182.877398 102.236047 
C 183.38443 103.114252 184.220452 103.755754 185.199962 104.018213 
C 186.179473 104.280673 187.22424 104.143126 188.102445 103.636094 
" clip-path="url(#p08fdf0b7ad)" style="fill: none; stroke: #000000; stroke-width: 2; stroke-linejoin: miter"/>
   </g>
   <g id="patch_16">
    <path d="M 180.452445 90.385906 
C 179.57424 90.892938 178.932738 91.728959 178.670279 92.70847 
C 178.40782 93.687981 178.545366 94.732748 179.052398 95.610953 
C 179.55943 96.489158 180.395452 97.13066 181.374962 97.393119 
C 182.354473 97.655578 183.39924 97.518032 184.277445 97.011 
" clip-path="url(#p08fdf0b7ad)" style="fill: none; stroke: #000000; stroke-width: 2; stroke-linejoin: miter"/>
   </g>
   <g id="patch_17">
    <path d="M 176.627445 83.760811 
C 175.74924 84.267843 175.107738 85.103865 174.845279 86.083376 
C 174.58282 87.062886 174.720366 88.107653 175.227398 88.985858 
C 175.73443 89.864064 176.570452 90.505566 177.549962 90.768025 
C 178.529473 91.030484 179.57424 90.892938 180.452445 90.385906 
" clip-path="url(#p08fdf0b7ad)" style="fill: none; stroke: #000000; stroke-width: 2; stroke-linejoin: miter"/>
   </g>
   <g id="patch_18">
    <path d="M 126.206509 196.155 
C 126.206509 197.169064 126.609774 198.142632 127.326826 198.859683 
C 128.043878 199.576735 129.017445 199.98 130.031509 199.98 
C 131.045573 199.98 132.019141 199.576735 132.736193 198.859683 
C 133.453244 198.142632 133.856509 197.169064 133.856509 196.155 
" clip-path="url(#p08fdf0b7ad)" style="fill: none; stroke: #000000; stroke-width: 2; stroke-linejoin: miter"/>
   </g>
   <g id="patch_19">
    <path d="M 118.556509 196.155 
C 118.556509 197.169064 118.959774 198.142632 119.676826 198.859683 
C 120.393878 199.576735 121.367445 199.98 122.381509 199.98 
C 123.395573 199.98 124.369141 199.576735 125.086193 198.859683 
C 125.803244 198.142632 126.206509 197.169064 126.206509 196.155 
" clip-path="url(#p08fdf0b7ad)" style="fill: none; stroke: #000000; stroke-width: 2; stroke-linejoin: miter"/>
   </g>
   <g id="patch_20">
    <path d="M 110.906509 196.155 
C 110.906509 197.169064 111.309774 198.142632 112.026826 198.859683 
C 112.743878 199.576735 113.717445 199.98 114.731509 199.98 
C 115.745573 199.98 116.719141 199.576735 117.436193 198.859683 
C 118.153244 198.142632 118.556509 197.169064 118.556509 196.155 
" clip-path="url(#p08fdf0b7ad)" style="fill: none; stroke: #000000; stroke-width: 2; stroke-linejoin: miter"/>
   </g>
   <g id="patch_21">
    <path d="M 103.256509 196.155 
C 103.256509 197.169064 103.659774 198.142632 104.376826 198.859683 
C 105.093878 199.576735 106.067445 199.98 107.081509 199.98 
C 108.095573 199.98 109.069141 199.576735 109.786193 198.859683 
C 110.503244 198.142632 110.906509 197.169064 110.906509 196.155 
" clip-path="url(#p08fdf0b7ad)" style="fill: none; stroke: #000000; stroke-width: 2; stroke-linejoin: miter"/>
   </g>
   <g id="line2d_1">
    <path d="M 118.556509 122.715 
L 158.980742 150.72173 
M 184.133787 168.14827 
L 224.558019 196.155 
" clip-path="url(#p08fdf0b7ad)" style="fill: none; stroke: #000000; stroke-width: 2; stroke-linecap: round"/>
   </g>
   <g id="line2d_2">
    <path d="M 118.556509 122.715 
L 118.556509 82.935 
M 118.556509 52.335 
L 118.556509 12.555 
" clip-path="url(#p08fdf0b7ad)" style="fill: none; stroke: #000000; stroke-width: 2; stroke-linecap: round"/>
   </g>
   <g id="line2d_3">
    <path d="M 118.556509 122.715 
L 88.193495 143.751113 
" clip-path="url(#p08fdf0b7ad)" style="fill: none; stroke: #000000; stroke-width: 2; stroke-linecap: round"/>
   </g>
   <g id="line2d_4">
    <path d="M 12.555 196.155 
L 42.918014 175.118887 
" clip-path="url(#p08fdf0b7ad)" style="fill: none; stroke: #000000; stroke-width: 2; stroke-linecap: round"/>
   </g>
   <g id="line2d_5">
    <path d="M 96.558235 155.824575 
L 79.828756 131.677652 
" clip-path="url(#p08fdf0b7ad)" style="fill: none; stroke: #000000; stroke-width: 2; stroke-linecap: round"/>
   </g>
   <g id="line2d_6">
    <path d="M 51.282754 187.192348 
L 34.553275 163.045425 
" clip-path="url(#p08fdf0b7ad)" style="fill: none; stroke: #000000; stroke-width: 2; stroke-linecap: round"/>
   </g>
   <g id="line2d_7">
    <path d="M 88.193495 143.751113 
L 67.819529 157.866611 
M 72.176164 164.154873 
L 63.462894 151.57835 
M 67.648616 167.29165 
L 58.935345 154.715127 
M 63.291981 161.003389 
L 42.918014 175.118887 
" clip-path="url(#p08fdf0b7ad)" style="fill: none; stroke: #000000; stroke-width: 2; stroke-linecap: round"/>
   </g>
   <g id="line2d_8">
    <path d="M 96.558235 155.824575 
L 73.920494 171.508462 
M 84.565391 173.440088 
L 63.275598 169.576836 
M 71.988868 182.153358 
L 75.85212 160.863565 
M 73.920494 171.508462 
L 51.282754 187.192348 
" clip-path="url(#p08fdf0b7ad)" style="fill: none; stroke: #000000; stroke-width: 2; stroke-linecap: round"/>
   </g>
   <g id="line2d_9">
    <path d="M 79.828756 131.677652 
L 69.767538 138.648268 
M 44.614493 156.074809 
L 34.553275 163.045425 
" clip-path="url(#p08fdf0b7ad)" style="fill: none; stroke: #000000; stroke-width: 2; stroke-linecap: round"/>
   </g>
   <g id="line2d_10">
    <path d="M 224.558019 196.155 
L 185.327264 128.20534 
" clip-path="url(#p08fdf0b7ad)" style="fill: none; stroke: #000000; stroke-width: 2; stroke-linecap: round"/>
   </g>
   <g id="line2d_11">
    <path d="M 118.556509 12.555 
L 157.787264 80.50466 
" clip-path="url(#p08fdf0b7ad)" style="fill: none; stroke: #000000; stroke-width: 2; stroke-linecap: round"/>
   </g>
   <g id="line2d_12">
    <path d="M 172.607083 135.54934 
L 198.047445 120.86134 
" clip-path="url(#p08fdf0b7ad)" style="fill: none; stroke: #000000; stroke-width: 2; stroke-linecap: round"/>
   </g>
   <g id="line2d_13">
    <path d="M 145.067083 87.84866 
L 170.507445 73.16066 
" clip-path="url(#p08fdf0b7ad)" style="fill: none; stroke: #000000; stroke-width: 2; stroke-linecap: round"/>
   </g>
   <g id="line2d_14">
    <path d="M 185.327264 128.20534 
L 172.934264 106.740034 
M 166.30917 110.565034 
L 179.559358 102.915034 
M 163.55517 105.794966 
L 176.805358 98.144966 
M 170.180264 101.969966 
L 157.787264 80.50466 
" clip-path="url(#p08fdf0b7ad)" style="fill: none; stroke: #000000; stroke-width: 2; stroke-linecap: round"/>
   </g>
   <g id="line2d_15">
    <path d="M 172.607083 135.54934 
L 158.837083 111.699 
M 156.036989 122.149094 
L 161.637177 101.248906 
M 148.386989 108.898906 
L 169.287177 114.499094 
M 158.837083 111.699 
L 145.067083 87.84866 
" clip-path="url(#p08fdf0b7ad)" style="fill: none; stroke: #000000; stroke-width: 2; stroke-linecap: round"/>
   </g>
   <g id="line2d_16">
    <path d="M 198.047445 120.86134 
L 191.927445 110.261189 
M 176.627445 83.760811 
L 170.507445 73.16066 
" clip-path="url(#p08fdf0b7ad)" style="fill: none; stroke: #000000; stroke-width: 2; stroke-linecap: round"/>
   </g>
   <g id="line2d_17">
    <path d="M 224.558019 196.155 
L 133.856509 196.155 
M 103.256509 196.155 
L 12.555 196.155 
" clip-path="url(#p08fdf0b7ad)" style="fill: none; stroke: #000000; stroke-width: 2; stroke-linecap: round"/>
   </g>
   <g id="line2d_18">
    <path d="M 118.556509 12.555 
L 79.325755 80.50466 
" clip-path="url(#p08fdf0b7ad)" style="fill: none; stroke: #000000; stroke-width: 2; stroke-linecap: round"/>
   </g>
   <g id="line2d_19">
    <path d="M 12.555 196.155 
L 51.785755 128.20534 
" clip-path="url(#p08fdf0b7ad)" style="fill: none; stroke: #000000; stroke-width: 2; stroke-linecap: round"/>
   </g>
   <g id="line2d_20">
    <path d="M 88.865891 86.01266 
L 69.785619 74.99666 
" clip-path="url(#p08fdf0b7ad)" style="fill: none; stroke: #000000; stroke-width: 2; stroke-linecap: round"/>
   </g>
   <g id="line2d_21">
    <path d="M 61.325891 133.71334 
L 42.245619 122.69734 
" clip-path="url(#p08fdf0b7ad)" style="fill: none; stroke: #000000; stroke-width: 2; stroke-linecap: round"/>
   </g>
   <g id="line2d_22">
    <path d="M 88.865891 86.01266 
L 76.472891 107.477966 
M 83.097985 111.302966 
L 69.847796 103.652966 
M 80.343985 116.073034 
L 67.093796 108.423034 
M 73.718891 112.248034 
L 61.325891 133.71334 
" clip-path="url(#p08fdf0b7ad)" style="fill: none; stroke: #000000; stroke-width: 2; stroke-linecap: round"/>
   </g>
   <g id="line2d_23">
    <path d="M 69.785619 74.99666 
L 56.015619 98.847 
M 66.465713 96.046906 
L 45.565525 101.647094 
M 58.815713 109.297094 
L 53.215525 88.396906 
M 56.015619 98.847 
L 42.245619 122.69734 
" clip-path="url(#p08fdf0b7ad)" style="fill: none; stroke: #000000; stroke-width: 2; stroke-linecap: round"/>
   </g>
   <g id="patch_22">
    <path d="M 118.556509 125.01 
C 119.165151 125.01 119.748945 124.768184 120.179319 124.33781 
C 120.609694 123.907436 120.851509 123.323641 120.851509 122.715 
C 120.851509 122.106359 120.609694 121.522564 120.179319 121.09219 
C 119.748945 120.661816 119.165151 120.42 118.556509 120.42 
C 117.947868 120.42 117.364074 120.661816 116.933699 121.09219 
C 116.503325 121.522564 116.261509 122.106359 116.261509 122.715 
C 116.261509 123.323641 116.503325 123.907436 116.933699 124.33781 
C 117.364074 124.768184 117.947868 125.01 118.556509 125.01 
z
" clip-path="url(#p08fdf0b7ad)" style="stroke: #000000; stroke-width: 2; stroke-linejoin: miter"/>
   </g>
   <g id="patch_23">
    <path d="M 224.558019 198.45 
C 225.16666 198.45 225.750455 198.208184 226.180829 197.77781 
C 226.611203 197.347436 226.853019 196.763641 226.853019 196.155 
C 226.853019 195.546359 226.611203 194.962564 226.180829 194.53219 
C 225.750455 194.101816 225.16666 193.86 224.558019 193.86 
C 223.949378 193.86 223.365583 194.101816 222.935209 194.53219 
C 222.504835 194.962564 222.263019 195.546359 222.263019 196.155 
C 222.263019 196.763641 222.504835 197.347436 222.935209 197.77781 
C 223.365583 198.208184 223.949378 198.45 224.558019 198.45 
z
" clip-path="url(#p08fdf0b7ad)" style="stroke: #000000; stroke-width: 2; stroke-linejoin: miter"/>
   </g>
   <g id="patch_24">
    <path d="M 118.556509 14.85 
C 119.165151 14.85 119.748945 14.608184 120.179319 14.17781 
C 120.609694 13.747436 120.851509 13.163641 120.851509 12.555 
C 120.851509 11.946359 120.609694 11.362564 120.179319 10.93219 
C 119.748945 10.501816 119.165151 10.26 118.556509 10.26 
C 117.947868 10.26 117.364074 10.501816 116.933699 10.93219 
C 116.503325 11.362564 116.261509 11.946359 116.261509 12.555 
C 116.261509 13.163641 116.503325 13.747436 116.933699 14.17781 
C 117.364074 14.608184 117.947868 14.85 118.556509 14.85 
z
" clip-path="url(#p08fdf0b7ad)" style="stroke: #000000; stroke-width: 2; stroke-linejoin: miter"/>
   </g>
   <g id="patch_25">
    <path d="M 12.555 198.45 
C 13.163641 198.45 13.747436 198.208184 14.17781 197.77781 
C 14.608184 197.347436 14.85 196.763641 14.85 196.155 
C 14.85 195.546359 14.608184 194.962564 14.17781 194.53219 
C 13.747436 194.101816 13.163641 193.86 12.555 193.86 
C 11.946359 193.86 11.362564 194.101816 10.93219 194.53219 
C 10.501816 194.962564 10.26 195.546359 10.26 196.155 
C 10.26 196.763641 10.501816 197.347436 10.93219 197.77781 
C 11.362564 198.208184 11.946359 198.45 12.555 198.45 
z
" clip-path="url(#p08fdf0b7ad)" style="stroke: #000000; stroke-width: 2; stroke-linejoin: miter"/>
   </g>
  </g>
 </g>
 <defs>
  <clipPath id="p08fdf0b7ad">
   <rect x="7.2" y="7.2" width="222.713019" height="195.839981"/>
  </clipPath>
 </defs>
</svg>
