<?xml version="1.0" encoding="utf-8" standalone="no"?>
<!DOCTYPE svg PUBLIC "-//W3C//DTD SVG 1.1//EN"
  "http://www.w3.org/Graphics/SVG/1.1/DTD/svg11.dtd">
<svg xmlns:xlink="http://www.w3.org/1999/xlink" width="237.113019pt" height="228.753pt" viewBox="0 0 237.113019 228.753" xmlns="http://www.w3.org/2000/svg" version="1.1">
 <metadata>
  <rdf:RDF xmlns:dc="http://purl.org/dc/elements/1.1/" xmlns:cc="http://creativecommons.org/ns#" xmlns:rdf="http://www.w3.org/1999/02/22-rdf-syntax-ns#">
   <cc:Work>
    <dc:type rdf:resource="http://purl.org/dc/dcmitype/StillImage"/>
    <dc:date>2023-03-23T14:50:46.245783</dc:date>
    <dc:format>image/svg+xml</dc:format>
    <dc:creator>
     <cc:Agent>
      <dc:title>Matplotlib v3.5.2, https://matplotlib.org/</dc:title>
     </cc:Agent>
    </dc:creator>
   </cc:Work>
  </rdf:RDF>
 </metadata>
 <defs>
  <style type="text/css">*{stroke-linejoin: round; stroke-linecap: butt}</style>
 </defs>
 <g id="figure_1">
  <g id="patch_1">
   <path d="M 0 228.753 
L 237.113019 228.753 
L 237.113019 0 
L 0 0 
L 0 228.753 
z
" style="fill: none"/>
  </g>
  <g id="axes_1">
   <g id="patch_2">
    <path d="M 71.844016 155.078365 
C 72.42152 155.91192 73.307444 156.482531 74.305214 156.663586 
C 75.302984 156.844642 76.332909 156.621682 77.166464 156.044178 
C 78.00002 155.466674 78.57063 154.58075 78.751686 153.58298 
C 78.932741 152.58521 78.709781 151.555285 78.132277 150.72173 
" clip-path="url(#pac5dcc57e2)" style="fill: none; stroke: #000000; stroke-width: 2; stroke-linejoin: miter"/>
   </g>
   <g id="patch_3">
    <path d="M 65.555755 159.435 
C 66.133259 160.268555 67.019183 160.839166 68.016952 161.020222 
C 69.014722 161.201277 70.044647 160.978317 70.878203 160.400813 
C 71.711758 159.823309 72.282369 158.937385 72.463425 157.939615 
C 72.64448 156.941845 72.42152 155.91192 71.844016 155.078365 
" clip-path="url(#pac5dcc57e2)" style="fill: none; stroke: #000000; stroke-width: 2; stroke-linejoin: miter"/>
   </g>
   <g id="patch_4">
    <path d="M 59.267493 163.791635 
C 59.844998 164.625191 60.730921 165.195801 61.728691 165.376857 
C 62.726461 165.557912 63.756386 165.334952 64.589942 164.757448 
C 65.423497 164.179944 65.994108 163.29402 66.175163 162.296251 
C 66.356219 161.298481 66.133259 160.268555 65.555755 159.435 
" clip-path="url(#pac5dcc57e2)" style="fill: none; stroke: #000000; stroke-width: 2; stroke-linejoin: miter"/>
   </g>
   <g id="patch_5">
    <path d="M 52.979232 168.14827 
C 53.556736 168.981826 54.44266 169.552436 55.44043 169.733492 
C 56.4382 169.914548 57.468125 169.691588 58.30168 169.114083 
C 59.135236 168.536579 59.705846 167.650656 59.886902 166.652886 
C 60.067958 165.655116 59.844998 164.625191 59.267493 163.791635 
" clip-path="url(#pac5dcc57e2)" style="fill: none; stroke: #000000; stroke-width: 2; stroke-linejoin: miter"/>
   </g>
   <g id="patch_6">
    <path d="M 188.102445 103.636094 
C 187.22424 104.143126 186.582738 104.979148 186.320279 105.958659 
C 186.05782 106.938169 186.195366 107.982936 186.702398 108.861142 
C 187.20943 109.739347 188.045452 110.380849 189.024962 110.643308 
C 190.004473 110.905767 191.04924 110.768221 191.927445 110.261189 
" clip-path="url(#pac5dcc57e2)" style="fill: none; stroke: #000000; stroke-width: 2; stroke-linejoin: miter"/>
   </g>
   <g id="patch_7">
    <path d="M 184.277445 97.011 
C 183.39924 97.518032 182.757738 98.354054 182.495279 99.333564 
C 182.23282 100.313075 182.370366 101.357842 182.877398 102.236047 
C 183.38443 103.114252 184.220452 103.755754 185.199962 104.018213 
C 186.179473 104.280673 187.22424 104.143126 188.102445 103.636094 
" clip-path="url(#pac5dcc57e2)" style="fill: none; stroke: #000000; stroke-width: 2; stroke-linejoin: miter"/>
   </g>
   <g id="patch_8">
    <path d="M 180.452445 90.385906 
C 179.57424 90.892938 178.932738 91.728959 178.670279 92.70847 
C 178.40782 93.687981 178.545366 94.732748 179.052398 95.610953 
C 179.55943 96.489158 180.395452 97.13066 181.374962 97.393119 
C 182.354473 97.655578 183.39924 97.518032 184.277445 97.011 
" clip-path="url(#pac5dcc57e2)" style="fill: none; stroke: #000000; stroke-width: 2; stroke-linejoin: miter"/>
   </g>
   <g id="patch_9">
    <path d="M 176.627445 83.760811 
C 175.74924 84.267843 175.107738 85.103865 174.845279 86.083376 
C 174.58282 87.062886 174.720366 88.107653 175.227398 88.985858 
C 175.73443 89.864064 176.570452 90.505566 177.549962 90.768025 
C 178.529473 91.030484 179.57424 90.892938 180.452445 90.385906 
" clip-path="url(#pac5dcc57e2)" style="fill: none; stroke: #000000; stroke-width: 2; stroke-linejoin: miter"/>
   </g>
   <g id="patch_10">
    <path d="M 126.206509 181.467 
C 126.206509 182.481064 126.609774 183.454632 127.326826 184.171683 
C 128.043878 184.888735 129.017445 185.292 130.031509 185.292 
C 131.045573 185.292 132.019141 184.888735 132.736193 184.171683 
C 133.453244 183.454632 133.856509 182.481064 133.856509 181.467 
" clip-path="url(#pac5dcc57e2)" style="fill: none; stroke: #000000; stroke-width: 2; stroke-linejoin: miter"/>
   </g>
   <g id="patch_11">
    <path d="M 118.556509 181.467 
C 118.556509 182.481064 118.959774 183.454632 119.676826 184.171683 
C 120.393878 184.888735 121.367445 185.292 122.381509 185.292 
C 123.395573 185.292 124.369141 184.888735 125.086193 184.171683 
C 125.803244 183.454632 126.206509 182.481064 126.206509 181.467 
" clip-path="url(#pac5dcc57e2)" style="fill: none; stroke: #000000; stroke-width: 2; stroke-linejoin: miter"/>
   </g>
   <g id="patch_12">
    <path d="M 110.906509 181.467 
C 110.906509 182.481064 111.309774 183.454632 112.026826 184.171683 
C 112.743878 184.888735 113.717445 185.292 114.731509 185.292 
C 115.745573 185.292 116.719141 184.888735 117.436193 184.171683 
C 118.153244 183.454632 118.556509 182.481064 118.556509 181.467 
" clip-path="url(#pac5dcc57e2)" style="fill: none; stroke: #000000; stroke-width: 2; stroke-linejoin: miter"/>
   </g>
   <g id="patch_13">
    <path d="M 103.256509 181.467 
C 103.256509 182.481064 103.659774 183.454632 104.376826 184.171683 
C 105.093878 184.888735 106.067445 185.292 107.081509 185.292 
C 108.095573 185.292 109.069141 184.888735 109.786193 184.171683 
C 110.503244 183.454632 110.906509 182.481064 110.906509 181.467 
" clip-path="url(#pac5dcc57e2)" style="fill: none; stroke: #000000; stroke-width: 2; stroke-linejoin: miter"/>
   </g>
   <g id="line2d_1">
    <path d="M 118.556509 122.715 
L 169.29349 157.866611 
M 173.650125 151.57835 
L 164.936855 164.154873 
M 178.177673 154.715127 
L 169.464403 167.29165 
M 173.821038 161.003389 
L 224.558019 196.155 
" clip-path="url(#pac5dcc57e2)" style="fill: none; stroke: #000000; stroke-width: 2; stroke-linecap: round"/>
   </g>
   <g id="line2d_2">
    <path d="M 118.556509 122.715 
L 118.556509 67.635 
M 110.906509 75.285 
L 126.206509 59.985 
M 110.906509 59.985 
L 126.206509 75.285 
M 118.556509 67.635 
L 118.556509 12.555 
" clip-path="url(#pac5dcc57e2)" style="fill: none; stroke: #000000; stroke-width: 2; stroke-linecap: round"/>
   </g>
   <g id="line2d_3">
    <path d="M 118.556509 122.715 
L 78.132277 150.72173 
M 52.979232 168.14827 
L 12.555 196.155 
" clip-path="url(#pac5dcc57e2)" style="fill: none; stroke: #000000; stroke-width: 2; stroke-linecap: round"/>
   </g>
   <g id="line2d_4">
    <path d="M 224.558019 196.155 
L 185.327264 128.20534 
" clip-path="url(#pac5dcc57e2)" style="fill: none; stroke: #000000; stroke-width: 2; stroke-linecap: round"/>
   </g>
   <g id="line2d_5">
    <path d="M 118.556509 12.555 
L 157.787264 80.50466 
" clip-path="url(#pac5dcc57e2)" style="fill: none; stroke: #000000; stroke-width: 2; stroke-linecap: round"/>
   </g>
   <g id="line2d_6">
    <path d="M 172.607083 135.54934 
L 198.047445 120.86134 
" clip-path="url(#pac5dcc57e2)" style="fill: none; stroke: #000000; stroke-width: 2; stroke-linecap: round"/>
   </g>
   <g id="line2d_7">
    <path d="M 145.067083 87.84866 
L 170.507445 73.16066 
" clip-path="url(#pac5dcc57e2)" style="fill: none; stroke: #000000; stroke-width: 2; stroke-linecap: round"/>
   </g>
   <g id="line2d_8">
    <path d="M 185.327264 128.20534 
L 172.934264 106.740034 
M 166.30917 110.565034 
L 179.559358 102.915034 
M 163.55517 105.794966 
L 176.805358 98.144966 
M 170.180264 101.969966 
L 157.787264 80.50466 
" clip-path="url(#pac5dcc57e2)" style="fill: none; stroke: #000000; stroke-width: 2; stroke-linecap: round"/>
   </g>
   <g id="line2d_9">
    <path d="M 172.607083 135.54934 
L 158.837083 111.699 
M 156.036989 122.149094 
L 161.637177 101.248906 
M 148.386989 108.898906 
L 169.287177 114.499094 
M 158.837083 111.699 
L 145.067083 87.84866 
" clip-path="url(#pac5dcc57e2)" style="fill: none; stroke: #000000; stroke-width: 2; stroke-linecap: round"/>
   </g>
   <g id="line2d_10">
    <path d="M 198.047445 120.86134 
L 191.927445 110.261189 
M 176.627445 83.760811 
L 170.507445 73.16066 
" clip-path="url(#pac5dcc57e2)" style="fill: none; stroke: #000000; stroke-width: 2; stroke-linecap: round"/>
   </g>
   <g id="line2d_11">
    <path d="M 224.558019 196.155 
L 146.096509 196.155 
" clip-path="url(#pac5dcc57e2)" style="fill: none; stroke: #000000; stroke-width: 2; stroke-linecap: round"/>
   </g>
   <g id="line2d_12">
    <path d="M 12.555 196.155 
L 91.016509 196.155 
" clip-path="url(#pac5dcc57e2)" style="fill: none; stroke: #000000; stroke-width: 2; stroke-linecap: round"/>
   </g>
   <g id="line2d_13">
    <path d="M 146.096509 210.843 
L 146.096509 181.467 
" clip-path="url(#pac5dcc57e2)" style="fill: none; stroke: #000000; stroke-width: 2; stroke-linecap: round"/>
   </g>
   <g id="line2d_14">
    <path d="M 91.016509 210.843 
L 91.016509 181.467 
" clip-path="url(#pac5dcc57e2)" style="fill: none; stroke: #000000; stroke-width: 2; stroke-linecap: round"/>
   </g>
   <g id="line2d_15">
    <path d="M 146.096509 196.155 
L 121.310509 196.155 
M 121.310509 203.805 
L 121.310509 188.505 
M 115.802509 203.805 
L 115.802509 188.505 
M 115.802509 196.155 
L 91.016509 196.155 
" clip-path="url(#pac5dcc57e2)" style="fill: none; stroke: #000000; stroke-width: 2; stroke-linecap: round"/>
   </g>
   <g id="line2d_16">
    <path d="M 146.096509 210.843 
L 118.556509 210.843 
M 126.206509 218.493 
L 110.906509 203.193 
M 110.906509 218.493 
L 126.206509 203.193 
M 118.556509 210.843 
L 91.016509 210.843 
" clip-path="url(#pac5dcc57e2)" style="fill: none; stroke: #000000; stroke-width: 2; stroke-linecap: round"/>
   </g>
   <g id="line2d_17">
    <path d="M 146.096509 181.467 
L 133.856509 181.467 
M 103.256509 181.467 
L 91.016509 181.467 
" clip-path="url(#pac5dcc57e2)" style="fill: none; stroke: #000000; stroke-width: 2; stroke-linecap: round"/>
   </g>
   <g id="line2d_18">
    <path d="M 118.556509 12.555 
L 65.555755 104.355 
M 76.005849 101.554906 
L 55.10566 107.155094 
M 68.355849 114.805094 
L 62.75566 93.904906 
M 65.555755 104.355 
L 12.555 196.155 
" clip-path="url(#pac5dcc57e2)" style="fill: none; stroke: #000000; stroke-width: 2; stroke-linecap: round"/>
   </g>
   <g id="patch_14">
    <path d="M 118.556509 125.01 
C 119.165151 125.01 119.748945 124.768184 120.179319 124.33781 
C 120.609694 123.907436 120.851509 123.323641 120.851509 122.715 
C 120.851509 122.106359 120.609694 121.522564 120.179319 121.09219 
C 119.748945 120.661816 119.165151 120.42 118.556509 120.42 
C 117.947868 120.42 117.364074 120.661816 116.933699 121.09219 
C 116.503325 121.522564 116.261509 122.106359 116.261509 122.715 
C 116.261509 123.323641 116.503325 123.907436 116.933699 124.33781 
C 117.364074 124.768184 117.947868 125.01 118.556509 125.01 
z
" clip-path="url(#pac5dcc57e2)" style="stroke: #000000; stroke-width: 2; stroke-linejoin: miter"/>
   </g>
   <g id="patch_15">
    <path d="M 224.558019 198.45 
C 225.16666 198.45 225.750455 198.208184 226.180829 197.77781 
C 226.611203 197.347436 226.853019 196.763641 226.853019 196.155 
C 226.853019 195.546359 226.611203 194.962564 226.180829 194.53219 
C 225.750455 194.101816 225.16666 193.86 224.558019 193.86 
C 223.949378 193.86 223.365583 194.101816 222.935209 194.53219 
C 222.504835 194.962564 222.263019 195.546359 222.263019 196.155 
C 222.263019 196.763641 222.504835 197.347436 222.935209 197.77781 
C 223.365583 198.208184 223.949378 198.45 224.558019 198.45 
z
" clip-path="url(#pac5dcc57e2)" style="stroke: #000000; stroke-width: 2; stroke-linejoin: miter"/>
   </g>
   <g id="patch_16">
    <path d="M 118.556509 14.85 
C 119.165151 14.85 119.748945 14.608184 120.179319 14.17781 
C 120.609694 13.747436 120.851509 13.163641 120.851509 12.555 
C 120.851509 11.946359 120.609694 11.362564 120.179319 10.93219 
C 119.748945 10.501816 119.165151 10.26 118.556509 10.26 
C 117.947868 10.26 117.364074 10.501816 116.933699 10.93219 
C 116.503325 11.362564 116.261509 11.946359 116.261509 12.555 
C 116.261509 13.163641 116.503325 13.747436 116.933699 14.17781 
C 117.364074 14.608184 117.947868 14.85 118.556509 14.85 
z
" clip-path="url(#pac5dcc57e2)" style="stroke: #000000; stroke-width: 2; stroke-linejoin: miter"/>
   </g>
   <g id="patch_17">
    <path d="M 12.555 198.45 
C 13.163641 198.45 13.747436 198.208184 14.17781 197.77781 
C 14.608184 197.347436 14.85 196.763641 14.85 196.155 
C 14.85 195.546359 14.608184 194.962564 14.17781 194.53219 
C 13.747436 194.101816 13.163641 193.86 12.555 193.86 
C 11.946359 193.86 11.362564 194.101816 10.93219 194.53219 
C 10.501816 194.962564 10.26 195.546359 10.26 196.155 
C 10.26 196.763641 10.501816 197.347436 10.93219 197.77781 
C 11.362564 198.208184 11.946359 198.45 12.555 198.45 
z
" clip-path="url(#pac5dcc57e2)" style="stroke: #000000; stroke-width: 2; stroke-linejoin: miter"/>
   </g>
  </g>
 </g>
 <defs>
  <clipPath id="pac5dcc57e2">
   <rect x="7.2" y="7.2" width="222.713019" height="214.353"/>
  </clipPath>
 </defs>
</svg>
