<?xml version="1.0" encoding="utf-8" standalone="no"?>
<!DOCTYPE svg PUBLIC "-//W3C//DTD SVG 1.1//EN"
  "http://www.w3.org/Graphics/SVG/1.1/DTD/svg11.dtd">
<svg xmlns:xlink="http://www.w3.org/1999/xlink" width="237.113019pt" height="225.081pt" viewBox="0 0 237.113019 225.081" xmlns="http://www.w3.org/2000/svg" version="1.1">
 <metadata>
  <rdf:RDF xmlns:dc="http://purl.org/dc/elements/1.1/" xmlns:cc="http://creativecommons.org/ns#" xmlns:rdf="http://www.w3.org/1999/02/22-rdf-syntax-ns#">
   <cc:Work>
    <dc:type rdf:resource="http://purl.org/dc/dcmitype/StillImage"/>
    <dc:date>2023-03-23T14:51:03.092521</dc:date>
    <dc:format>image/svg+xml</dc:format>
    <dc:creator>
     <cc:Agent>
      <dc:title>Matplotlib v3.5.2, https://matplotlib.org/</dc:title>
     </cc:Agent>
    </dc:creator>
   </cc:Work>
  </rdf:RDF>
 </metadata>
 <defs>
  <style type="text/css">*{stroke-linejoin: round; stroke-linecap: butt}</style>
 </defs>
 <g id="figure_1">
  <g id="patch_1">
   <path d="M 0 225.081 
L 237.113019 225.081 
L 237.113019 0 
L 0 0 
L 0 225.081 
z
" style="fill: none"/>
  </g>
  <g id="axes_1">
   <g id="patch_2">
    <path d="M 63.479276 143.004903 
C 64.056781 143.838459 64.942704 144.409069 65.940474 144.590125 
C 66.938244 144.77118 67.968169 144.54822 68.801725 143.970716 
C 69.63528 143.393212 70.205891 142.507288 70.386946 141.509519 
C 70.568002 140.511749 70.345042 139.481823 69.767538 138.648268 
" clip-path="url(#pae9ccbaccb)" style="fill: none; stroke: #000000; stroke-width: 2; stroke-linejoin: miter"/>
   </g>
   <g id="patch_3">
    <path d="M 57.191015 147.361538 
C 57.768519 148.195094 58.654443 148.765704 59.652213 148.94676 
C 60.649983 149.127816 61.679908 148.904856 62.513463 148.327351 
C 63.347019 147.749847 63.917629 146.863924 64.098685 145.866154 
C 64.279741 144.868384 64.056781 143.838459 63.479276 143.004903 
" clip-path="url(#pae9ccbaccb)" style="fill: none; stroke: #000000; stroke-width: 2; stroke-linejoin: miter"/>
   </g>
   <g id="patch_4">
    <path d="M 50.902754 151.718174 
C 51.480258 152.551729 52.366182 153.12234 53.363952 153.303395 
C 54.361721 153.484451 55.391647 153.261491 56.225202 152.683987 
C 57.058758 152.106482 57.629368 151.220559 57.810424 150.222789 
C 57.991479 149.225019 57.768519 148.195094 57.191015 147.361538 
" clip-path="url(#pae9ccbaccb)" style="fill: none; stroke: #000000; stroke-width: 2; stroke-linejoin: miter"/>
   </g>
   <g id="patch_5">
    <path d="M 44.614493 156.074809 
C 45.191997 156.908364 46.07792 157.478975 47.07569 157.66003 
C 48.07346 157.841086 49.103385 157.618126 49.936941 157.040622 
C 50.770496 156.463118 51.341107 155.577194 51.522162 154.579424 
C 51.703218 153.581654 51.480258 152.551729 50.902754 151.718174 
" clip-path="url(#pae9ccbaccb)" style="fill: none; stroke: #000000; stroke-width: 2; stroke-linejoin: miter"/>
   </g>
   <g id="patch_6">
    <path d="M 188.102445 103.636094 
C 187.22424 104.143126 186.582738 104.979148 186.320279 105.958659 
C 186.05782 106.938169 186.195366 107.982936 186.702398 108.861142 
C 187.20943 109.739347 188.045452 110.380849 189.024962 110.643308 
C 190.004473 110.905767 191.04924 110.768221 191.927445 110.261189 
" clip-path="url(#pae9ccbaccb)" style="fill: none; stroke: #000000; stroke-width: 2; stroke-linejoin: miter"/>
   </g>
   <g id="patch_7">
    <path d="M 184.277445 97.011 
C 183.39924 97.518032 182.757738 98.354054 182.495279 99.333564 
C 182.23282 100.313075 182.370366 101.357842 182.877398 102.236047 
C 183.38443 103.114252 184.220452 103.755754 185.199962 104.018213 
C 186.179473 104.280673 187.22424 104.143126 188.102445 103.636094 
" clip-path="url(#pae9ccbaccb)" style="fill: none; stroke: #000000; stroke-width: 2; stroke-linejoin: miter"/>
   </g>
   <g id="patch_8">
    <path d="M 180.452445 90.385906 
C 179.57424 90.892938 178.932738 91.728959 178.670279 92.70847 
C 178.40782 93.687981 178.545366 94.732748 179.052398 95.610953 
C 179.55943 96.489158 180.395452 97.13066 181.374962 97.393119 
C 182.354473 97.655578 183.39924 97.518032 184.277445 97.011 
" clip-path="url(#pae9ccbaccb)" style="fill: none; stroke: #000000; stroke-width: 2; stroke-linejoin: miter"/>
   </g>
   <g id="patch_9">
    <path d="M 176.627445 83.760811 
C 175.74924 84.267843 175.107738 85.103865 174.845279 86.083376 
C 174.58282 87.062886 174.720366 88.107653 175.227398 88.985858 
C 175.73443 89.864064 176.570452 90.505566 177.549962 90.768025 
C 178.529473 91.030484 179.57424 90.892938 180.452445 90.385906 
" clip-path="url(#pae9ccbaccb)" style="fill: none; stroke: #000000; stroke-width: 2; stroke-linejoin: miter"/>
   </g>
   <g id="line2d_1">
    <path d="M 118.556509 122.715 
L 169.29349 157.866611 
M 173.650125 151.57835 
L 164.936855 164.154873 
M 178.177673 154.715127 
L 169.464403 167.29165 
M 173.821038 161.003389 
L 224.558019 196.155 
" clip-path="url(#pae9ccbaccb)" style="fill: none; stroke: #000000; stroke-width: 2; stroke-linecap: round"/>
   </g>
   <g id="line2d_2">
    <path d="M 118.556509 122.715 
L 118.556509 95.175 
" clip-path="url(#pae9ccbaccb)" style="fill: none; stroke: #000000; stroke-width: 2; stroke-linecap: round"/>
   </g>
   <g id="line2d_3">
    <path d="M 118.556509 12.555 
L 118.556509 40.095 
" clip-path="url(#pae9ccbaccb)" style="fill: none; stroke: #000000; stroke-width: 2; stroke-linecap: round"/>
   </g>
   <g id="line2d_4">
    <path d="M 107.540509 95.175 
L 129.572509 95.175 
" clip-path="url(#pae9ccbaccb)" style="fill: none; stroke: #000000; stroke-width: 2; stroke-linecap: round"/>
   </g>
   <g id="line2d_5">
    <path d="M 107.540509 40.095 
L 129.572509 40.095 
" clip-path="url(#pae9ccbaccb)" style="fill: none; stroke: #000000; stroke-width: 2; stroke-linecap: round"/>
   </g>
   <g id="line2d_6">
    <path d="M 107.540509 95.175 
L 107.540509 70.389 
M 99.890509 70.389 
L 115.190509 70.389 
M 99.890509 64.881 
L 115.190509 64.881 
M 107.540509 64.881 
L 107.540509 40.095 
" clip-path="url(#pae9ccbaccb)" style="fill: none; stroke: #000000; stroke-width: 2; stroke-linecap: round"/>
   </g>
   <g id="line2d_7">
    <path d="M 129.572509 95.175 
L 129.572509 67.635 
M 121.922509 75.285 
L 137.222509 59.985 
M 121.922509 59.985 
L 137.222509 75.285 
M 129.572509 67.635 
L 129.572509 40.095 
" clip-path="url(#pae9ccbaccb)" style="fill: none; stroke: #000000; stroke-width: 2; stroke-linecap: round"/>
   </g>
   <g id="line2d_8">
    <path d="M 118.556509 122.715 
L 88.193495 143.751113 
" clip-path="url(#pae9ccbaccb)" style="fill: none; stroke: #000000; stroke-width: 2; stroke-linecap: round"/>
   </g>
   <g id="line2d_9">
    <path d="M 12.555 196.155 
L 42.918014 175.118887 
" clip-path="url(#pae9ccbaccb)" style="fill: none; stroke: #000000; stroke-width: 2; stroke-linecap: round"/>
   </g>
   <g id="line2d_10">
    <path d="M 96.558235 155.824575 
L 79.828756 131.677652 
" clip-path="url(#pae9ccbaccb)" style="fill: none; stroke: #000000; stroke-width: 2; stroke-linecap: round"/>
   </g>
   <g id="line2d_11">
    <path d="M 51.282754 187.192348 
L 34.553275 163.045425 
" clip-path="url(#pae9ccbaccb)" style="fill: none; stroke: #000000; stroke-width: 2; stroke-linecap: round"/>
   </g>
   <g id="line2d_12">
    <path d="M 88.193495 143.751113 
L 67.819529 157.866611 
M 72.176164 164.154873 
L 63.462894 151.57835 
M 67.648616 167.29165 
L 58.935345 154.715127 
M 63.291981 161.003389 
L 42.918014 175.118887 
" clip-path="url(#pae9ccbaccb)" style="fill: none; stroke: #000000; stroke-width: 2; stroke-linecap: round"/>
   </g>
   <g id="line2d_13">
    <path d="M 96.558235 155.824575 
L 73.920494 171.508462 
M 84.565391 173.440088 
L 63.275598 169.576836 
M 71.988868 182.153358 
L 75.85212 160.863565 
M 73.920494 171.508462 
L 51.282754 187.192348 
" clip-path="url(#pae9ccbaccb)" style="fill: none; stroke: #000000; stroke-width: 2; stroke-linecap: round"/>
   </g>
   <g id="line2d_14">
    <path d="M 79.828756 131.677652 
L 69.767538 138.648268 
M 44.614493 156.074809 
L 34.553275 163.045425 
" clip-path="url(#pae9ccbaccb)" style="fill: none; stroke: #000000; stroke-width: 2; stroke-linecap: round"/>
   </g>
   <g id="line2d_15">
    <path d="M 224.558019 196.155 
L 185.327264 128.20534 
" clip-path="url(#pae9ccbaccb)" style="fill: none; stroke: #000000; stroke-width: 2; stroke-linecap: round"/>
   </g>
   <g id="line2d_16">
    <path d="M 118.556509 12.555 
L 157.787264 80.50466 
" clip-path="url(#pae9ccbaccb)" style="fill: none; stroke: #000000; stroke-width: 2; stroke-linecap: round"/>
   </g>
   <g id="line2d_17">
    <path d="M 172.607083 135.54934 
L 198.047445 120.86134 
" clip-path="url(#pae9ccbaccb)" style="fill: none; stroke: #000000; stroke-width: 2; stroke-linecap: round"/>
   </g>
   <g id="line2d_18">
    <path d="M 145.067083 87.84866 
L 170.507445 73.16066 
" clip-path="url(#pae9ccbaccb)" style="fill: none; stroke: #000000; stroke-width: 2; stroke-linecap: round"/>
   </g>
   <g id="line2d_19">
    <path d="M 185.327264 128.20534 
L 172.934264 106.740034 
M 166.30917 110.565034 
L 179.559358 102.915034 
M 163.55517 105.794966 
L 176.805358 98.144966 
M 170.180264 101.969966 
L 157.787264 80.50466 
" clip-path="url(#pae9ccbaccb)" style="fill: none; stroke: #000000; stroke-width: 2; stroke-linecap: round"/>
   </g>
   <g id="line2d_20">
    <path d="M 172.607083 135.54934 
L 158.837083 111.699 
M 156.036989 122.149094 
L 161.637177 101.248906 
M 148.386989 108.898906 
L 169.287177 114.499094 
M 158.837083 111.699 
L 145.067083 87.84866 
" clip-path="url(#pae9ccbaccb)" style="fill: none; stroke: #000000; stroke-width: 2; stroke-linecap: round"/>
   </g>
   <g id="line2d_21">
    <path d="M 198.047445 120.86134 
L 191.927445 110.261189 
M 176.627445 83.760811 
L 170.507445 73.16066 
" clip-path="url(#pae9ccbaccb)" style="fill: none; stroke: #000000; stroke-width: 2; stroke-linecap: round"/>
   </g>
   <g id="line2d_22">
    <path d="M 224.558019 196.155 
L 146.096509 196.155 
" clip-path="url(#pae9ccbaccb)" style="fill: none; stroke: #000000; stroke-width: 2; stroke-linecap: round"/>
   </g>
   <g id="line2d_23">
    <path d="M 12.555 196.155 
L 91.016509 196.155 
" clip-path="url(#pae9ccbaccb)" style="fill: none; stroke: #000000; stroke-width: 2; stroke-linecap: round"/>
   </g>
   <g id="line2d_24">
    <path d="M 146.096509 207.171 
L 146.096509 185.139 
" clip-path="url(#pae9ccbaccb)" style="fill: none; stroke: #000000; stroke-width: 2; stroke-linecap: round"/>
   </g>
   <g id="line2d_25">
    <path d="M 91.016509 207.171 
L 91.016509 185.139 
" clip-path="url(#pae9ccbaccb)" style="fill: none; stroke: #000000; stroke-width: 2; stroke-linecap: round"/>
   </g>
   <g id="line2d_26">
    <path d="M 146.096509 207.171 
L 121.310509 207.171 
M 121.310509 214.821 
L 121.310509 199.521 
M 115.802509 214.821 
L 115.802509 199.521 
M 115.802509 207.171 
L 91.016509 207.171 
" clip-path="url(#pae9ccbaccb)" style="fill: none; stroke: #000000; stroke-width: 2; stroke-linecap: round"/>
   </g>
   <g id="line2d_27">
    <path d="M 146.096509 185.139 
L 118.556509 185.139 
M 126.206509 192.789 
L 110.906509 177.489 
M 110.906509 192.789 
L 126.206509 177.489 
M 118.556509 185.139 
L 91.016509 185.139 
" clip-path="url(#pae9ccbaccb)" style="fill: none; stroke: #000000; stroke-width: 2; stroke-linecap: round"/>
   </g>
   <g id="line2d_28">
    <path d="M 118.556509 12.555 
L 66.932755 101.969966 
M 73.557849 105.794966 
L 60.30766 98.144966 
M 70.803849 110.565034 
L 57.55366 102.915034 
M 64.178755 106.740034 
L 12.555 196.155 
" clip-path="url(#pae9ccbaccb)" style="fill: none; stroke: #000000; stroke-width: 2; stroke-linecap: round"/>
   </g>
   <g id="patch_10">
    <path d="M 118.556509 125.01 
C 119.165151 125.01 119.748945 124.768184 120.179319 124.33781 
C 120.609694 123.907436 120.851509 123.323641 120.851509 122.715 
C 120.851509 122.106359 120.609694 121.522564 120.179319 121.09219 
C 119.748945 120.661816 119.165151 120.42 118.556509 120.42 
C 117.947868 120.42 117.364074 120.661816 116.933699 121.09219 
C 116.503325 121.522564 116.261509 122.106359 116.261509 122.715 
C 116.261509 123.323641 116.503325 123.907436 116.933699 124.33781 
C 117.364074 124.768184 117.947868 125.01 118.556509 125.01 
z
" clip-path="url(#pae9ccbaccb)" style="stroke: #000000; stroke-width: 2; stroke-linejoin: miter"/>
   </g>
   <g id="patch_11">
    <path d="M 224.558019 198.45 
C 225.16666 198.45 225.750455 198.208184 226.180829 197.77781 
C 226.611203 197.347436 226.853019 196.763641 226.853019 196.155 
C 226.853019 195.546359 226.611203 194.962564 226.180829 194.53219 
C 225.750455 194.101816 225.16666 193.86 224.558019 193.86 
C 223.949378 193.86 223.365583 194.101816 222.935209 194.53219 
C 222.504835 194.962564 222.263019 195.546359 222.263019 196.155 
C 222.263019 196.763641 222.504835 197.347436 222.935209 197.77781 
C 223.365583 198.208184 223.949378 198.45 224.558019 198.45 
z
" clip-path="url(#pae9ccbaccb)" style="stroke: #000000; stroke-width: 2; stroke-linejoin: miter"/>
   </g>
   <g id="patch_12">
    <path d="M 118.556509 14.85 
C 119.165151 14.85 119.748945 14.608184 120.179319 14.17781 
C 120.609694 13.747436 120.851509 13.163641 120.851509 12.555 
C 120.851509 11.946359 120.609694 11.362564 120.179319 10.93219 
C 119.748945 10.501816 119.165151 10.26 118.556509 10.26 
C 117.947868 10.26 117.364074 10.501816 116.933699 10.93219 
C 116.503325 11.362564 116.261509 11.946359 116.261509 12.555 
C 116.261509 13.163641 116.503325 13.747436 116.933699 14.17781 
C 117.364074 14.608184 117.947868 14.85 118.556509 14.85 
z
" clip-path="url(#pae9ccbaccb)" style="stroke: #000000; stroke-width: 2; stroke-linejoin: miter"/>
   </g>
   <g id="patch_13">
    <path d="M 12.555 198.45 
C 13.163641 198.45 13.747436 198.208184 14.17781 197.77781 
C 14.608184 197.347436 14.85 196.763641 14.85 196.155 
C 14.85 195.546359 14.608184 194.962564 14.17781 194.53219 
C 13.747436 194.101816 13.163641 193.86 12.555 193.86 
C 11.946359 193.86 11.362564 194.101816 10.93219 194.53219 
C 10.501816 194.962564 10.26 195.546359 10.26 196.155 
C 10.26 196.763641 10.501816 197.347436 10.93219 197.77781 
C 11.362564 198.208184 11.946359 198.45 12.555 198.45 
z
" clip-path="url(#pae9ccbaccb)" style="stroke: #000000; stroke-width: 2; stroke-linejoin: miter"/>
   </g>
  </g>
 </g>
 <defs>
  <clipPath id="pae9ccbaccb">
   <rect x="7.2" y="7.2" width="222.713019" height="210.681"/>
  </clipPath>
 </defs>
</svg>
