<?xml version="1.0" encoding="utf-8" standalone="no"?>
<!DOCTYPE svg PUBLIC "-//W3C//DTD SVG 1.1//EN"
  "http://www.w3.org/Graphics/SVG/1.1/DTD/svg11.dtd">
<svg xmlns:xlink="http://www.w3.org/1999/xlink" width="237.113019pt" height="225.081pt" viewBox="0 0 237.113019 225.081" xmlns="http://www.w3.org/2000/svg" version="1.1">
 <metadata>
  <rdf:RDF xmlns:dc="http://purl.org/dc/elements/1.1/" xmlns:cc="http://creativecommons.org/ns#" xmlns:rdf="http://www.w3.org/1999/02/22-rdf-syntax-ns#">
   <cc:Work>
    <dc:type rdf:resource="http://purl.org/dc/dcmitype/StillImage"/>
    <dc:date>2023-03-23T14:49:38.886054</dc:date>
    <dc:format>image/svg+xml</dc:format>
    <dc:creator>
     <cc:Agent>
      <dc:title>Matplotlib v3.5.2, https://matplotlib.org/</dc:title>
     </cc:Agent>
    </dc:creator>
   </cc:Work>
  </rdf:RDF>
 </metadata>
 <defs>
  <style type="text/css">*{stroke-linejoin: round; stroke-linecap: butt}</style>
 </defs>
 <g id="figure_1">
  <g id="patch_1">
   <path d="M 0 225.081 
L 237.113019 225.081 
L 237.113019 0 
L 0 0 
L 0 225.081 
z
" style="fill: none"/>
  </g>
  <g id="axes_1">
   <g id="patch_2">
    <path d="M 63.479276 143.004903 
C 64.056781 143.838459 64.942704 144.409069 65.940474 144.590125 
C 66.938244 144.77118 67.968169 144.54822 68.801725 143.970716 
C 69.63528 143.393212 70.205891 142.507288 70.386946 141.509519 
C 70.568002 140.511749 70.345042 139.481823 69.767538 138.648268 
" clip-path="url(#p479c4ae825)" style="fill: none; stroke: #000000; stroke-width: 2; stroke-linejoin: miter"/>
   </g>
   <g id="patch_3">
    <path d="M 57.191015 147.361538 
C 57.768519 148.195094 58.654443 148.765704 59.652213 148.94676 
C 60.649983 149.127816 61.679908 148.904856 62.513463 148.327351 
C 63.347019 147.749847 63.917629 146.863924 64.098685 145.866154 
C 64.279741 144.868384 64.056781 143.838459 63.479276 143.004903 
" clip-path="url(#p479c4ae825)" style="fill: none; stroke: #000000; stroke-width: 2; stroke-linejoin: miter"/>
   </g>
   <g id="patch_4">
    <path d="M 50.902754 151.718174 
C 51.480258 152.551729 52.366182 153.12234 53.363952 153.303395 
C 54.361721 153.484451 55.391647 153.261491 56.225202 152.683987 
C 57.058758 152.106482 57.629368 151.220559 57.810424 150.222789 
C 57.991479 149.225019 57.768519 148.195094 57.191015 147.361538 
" clip-path="url(#p479c4ae825)" style="fill: none; stroke: #000000; stroke-width: 2; stroke-linejoin: miter"/>
   </g>
   <g id="patch_5">
    <path d="M 44.614493 156.074809 
C 45.191997 156.908364 46.07792 157.478975 47.07569 157.66003 
C 48.07346 157.841086 49.103385 157.618126 49.936941 157.040622 
C 50.770496 156.463118 51.341107 155.577194 51.522162 154.579424 
C 51.703218 153.581654 51.480258 152.551729 50.902754 151.718174 
" clip-path="url(#p479c4ae825)" style="fill: none; stroke: #000000; stroke-width: 2; stroke-linejoin: miter"/>
   </g>
   <g id="patch_6">
    <path d="M 184.9224 105.472094 
C 184.044195 105.979126 183.402693 106.815148 183.140234 107.794659 
C 182.877775 108.774169 183.015321 109.818936 183.522353 110.697142 
C 184.029385 111.575347 184.865407 112.216849 185.844917 112.479308 
C 186.824428 112.741767 187.869195 112.604221 188.7474 112.097189 
" clip-path="url(#p479c4ae825)" style="fill: none; stroke: #000000; stroke-width: 2; stroke-linejoin: miter"/>
   </g>
   <g id="patch_7">
    <path d="M 181.0974 98.847 
C 180.219195 99.354032 179.577693 100.190054 179.315234 101.169564 
C 179.052775 102.149075 179.190321 103.193842 179.697353 104.072047 
C 180.204385 104.950252 181.040407 105.591754 182.019917 105.854213 
C 182.999428 106.116673 184.044195 105.979126 184.9224 105.472094 
" clip-path="url(#p479c4ae825)" style="fill: none; stroke: #000000; stroke-width: 2; stroke-linejoin: miter"/>
   </g>
   <g id="patch_8">
    <path d="M 177.2724 92.221906 
C 176.394195 92.728938 175.752693 93.564959 175.490234 94.54447 
C 175.227775 95.523981 175.365321 96.568748 175.872353 97.446953 
C 176.379385 98.325158 177.215407 98.96666 178.194917 99.229119 
C 179.174428 99.491578 180.219195 99.354032 181.0974 98.847 
" clip-path="url(#p479c4ae825)" style="fill: none; stroke: #000000; stroke-width: 2; stroke-linejoin: miter"/>
   </g>
   <g id="patch_9">
    <path d="M 173.4474 85.596811 
C 172.569195 86.103843 171.927693 86.939865 171.665234 87.919376 
C 171.402775 88.898886 171.540321 89.943653 172.047353 90.821858 
C 172.554385 91.700064 173.390407 92.341566 174.369917 92.604025 
C 175.349428 92.866484 176.394195 92.728938 177.2724 92.221906 
" clip-path="url(#p479c4ae825)" style="fill: none; stroke: #000000; stroke-width: 2; stroke-linejoin: miter"/>
   </g>
   <g id="patch_10">
    <path d="M 126.206509 185.139 
C 126.206509 186.153064 126.609774 187.126632 127.326826 187.843683 
C 128.043878 188.560735 129.017445 188.964 130.031509 188.964 
C 131.045573 188.964 132.019141 188.560735 132.736193 187.843683 
C 133.453244 187.126632 133.856509 186.153064 133.856509 185.139 
" clip-path="url(#p479c4ae825)" style="fill: none; stroke: #000000; stroke-width: 2; stroke-linejoin: miter"/>
   </g>
   <g id="patch_11">
    <path d="M 118.556509 185.139 
C 118.556509 186.153064 118.959774 187.126632 119.676826 187.843683 
C 120.393878 188.560735 121.367445 188.964 122.381509 188.964 
C 123.395573 188.964 124.369141 188.560735 125.086193 187.843683 
C 125.803244 187.126632 126.206509 186.153064 126.206509 185.139 
" clip-path="url(#p479c4ae825)" style="fill: none; stroke: #000000; stroke-width: 2; stroke-linejoin: miter"/>
   </g>
   <g id="patch_12">
    <path d="M 110.906509 185.139 
C 110.906509 186.153064 111.309774 187.126632 112.026826 187.843683 
C 112.743878 188.560735 113.717445 188.964 114.731509 188.964 
C 115.745573 188.964 116.719141 188.560735 117.436193 187.843683 
C 118.153244 187.126632 118.556509 186.153064 118.556509 185.139 
" clip-path="url(#p479c4ae825)" style="fill: none; stroke: #000000; stroke-width: 2; stroke-linejoin: miter"/>
   </g>
   <g id="patch_13">
    <path d="M 103.256509 185.139 
C 103.256509 186.153064 103.659774 187.126632 104.376826 187.843683 
C 105.093878 188.560735 106.067445 188.964 107.081509 188.964 
C 108.095573 188.964 109.069141 188.560735 109.786193 187.843683 
C 110.503244 187.126632 110.906509 186.153064 110.906509 185.139 
" clip-path="url(#p479c4ae825)" style="fill: none; stroke: #000000; stroke-width: 2; stroke-linejoin: miter"/>
   </g>
   <g id="patch_14">
    <path d="M 59.840619 92.221906 
C 60.718824 92.728938 61.763591 92.866484 62.743102 92.604025 
C 63.722612 92.341566 64.558634 91.700064 65.065666 90.821858 
C 65.572698 89.943653 65.710244 88.898886 65.447785 87.919376 
C 65.185326 86.939865 64.543824 86.103843 63.665619 85.596811 
" clip-path="url(#p479c4ae825)" style="fill: none; stroke: #000000; stroke-width: 2; stroke-linejoin: miter"/>
   </g>
   <g id="patch_15">
    <path d="M 56.015619 98.847 
C 56.893824 99.354032 57.938591 99.491578 58.918102 99.229119 
C 59.897612 98.96666 60.733634 98.325158 61.240666 97.446953 
C 61.747698 96.568748 61.885244 95.523981 61.622785 94.54447 
C 61.360326 93.564959 60.718824 92.728938 59.840619 92.221906 
" clip-path="url(#p479c4ae825)" style="fill: none; stroke: #000000; stroke-width: 2; stroke-linejoin: miter"/>
   </g>
   <g id="patch_16">
    <path d="M 52.190619 105.472094 
C 53.068824 105.979126 54.113591 106.116673 55.093102 105.854213 
C 56.072612 105.591754 56.908634 104.950252 57.415666 104.072047 
C 57.922698 103.193842 58.060244 102.149075 57.797785 101.169564 
C 57.535326 100.190054 56.893824 99.354032 56.015619 98.847 
" clip-path="url(#p479c4ae825)" style="fill: none; stroke: #000000; stroke-width: 2; stroke-linejoin: miter"/>
   </g>
   <g id="patch_17">
    <path d="M 48.365619 112.097189 
C 49.243824 112.604221 50.288591 112.741767 51.268102 112.479308 
C 52.247612 112.216849 53.083634 111.575347 53.590666 110.697142 
C 54.097698 109.818936 54.235244 108.774169 53.972785 107.794659 
C 53.710326 106.815148 53.068824 105.979126 52.190619 105.472094 
" clip-path="url(#p479c4ae825)" style="fill: none; stroke: #000000; stroke-width: 2; stroke-linejoin: miter"/>
   </g>
   <g id="line2d_1">
    <path d="M 118.556509 122.715 
L 171.557264 159.435 
M 169.625638 148.790104 
L 173.48889 170.079896 
M 182.202161 157.503374 
L 160.912368 161.366626 
M 171.557264 159.435 
L 224.558019 196.155 
" clip-path="url(#p479c4ae825)" style="fill: none; stroke: #000000; stroke-width: 2; stroke-linecap: round"/>
   </g>
   <g id="line2d_2">
    <path d="M 118.556509 122.715 
L 118.556509 95.175 
" clip-path="url(#p479c4ae825)" style="fill: none; stroke: #000000; stroke-width: 2; stroke-linecap: round"/>
   </g>
   <g id="line2d_3">
    <path d="M 118.556509 12.555 
L 118.556509 40.095 
" clip-path="url(#p479c4ae825)" style="fill: none; stroke: #000000; stroke-width: 2; stroke-linecap: round"/>
   </g>
   <g id="line2d_4">
    <path d="M 107.540509 95.175 
L 129.572509 95.175 
" clip-path="url(#p479c4ae825)" style="fill: none; stroke: #000000; stroke-width: 2; stroke-linecap: round"/>
   </g>
   <g id="line2d_5">
    <path d="M 107.540509 40.095 
L 129.572509 40.095 
" clip-path="url(#p479c4ae825)" style="fill: none; stroke: #000000; stroke-width: 2; stroke-linecap: round"/>
   </g>
   <g id="line2d_6">
    <path d="M 107.540509 95.175 
L 107.540509 70.389 
M 99.890509 70.389 
L 115.190509 70.389 
M 99.890509 64.881 
L 115.190509 64.881 
M 107.540509 64.881 
L 107.540509 40.095 
" clip-path="url(#p479c4ae825)" style="fill: none; stroke: #000000; stroke-width: 2; stroke-linecap: round"/>
   </g>
   <g id="line2d_7">
    <path d="M 129.572509 95.175 
L 129.572509 67.635 
M 121.922509 75.285 
L 137.222509 59.985 
M 121.922509 59.985 
L 137.222509 75.285 
M 129.572509 67.635 
L 129.572509 40.095 
" clip-path="url(#p479c4ae825)" style="fill: none; stroke: #000000; stroke-width: 2; stroke-linecap: round"/>
   </g>
   <g id="line2d_8">
    <path d="M 118.556509 122.715 
L 88.193495 143.751113 
" clip-path="url(#p479c4ae825)" style="fill: none; stroke: #000000; stroke-width: 2; stroke-linecap: round"/>
   </g>
   <g id="line2d_9">
    <path d="M 12.555 196.155 
L 42.918014 175.118887 
" clip-path="url(#p479c4ae825)" style="fill: none; stroke: #000000; stroke-width: 2; stroke-linecap: round"/>
   </g>
   <g id="line2d_10">
    <path d="M 96.558235 155.824575 
L 79.828756 131.677652 
" clip-path="url(#p479c4ae825)" style="fill: none; stroke: #000000; stroke-width: 2; stroke-linecap: round"/>
   </g>
   <g id="line2d_11">
    <path d="M 51.282754 187.192348 
L 34.553275 163.045425 
" clip-path="url(#p479c4ae825)" style="fill: none; stroke: #000000; stroke-width: 2; stroke-linecap: round"/>
   </g>
   <g id="line2d_12">
    <path d="M 88.193495 143.751113 
L 67.819529 157.866611 
M 72.176164 164.154873 
L 63.462894 151.57835 
M 67.648616 167.29165 
L 58.935345 154.715127 
M 63.291981 161.003389 
L 42.918014 175.118887 
" clip-path="url(#p479c4ae825)" style="fill: none; stroke: #000000; stroke-width: 2; stroke-linecap: round"/>
   </g>
   <g id="line2d_13">
    <path d="M 96.558235 155.824575 
L 73.920494 171.508462 
M 84.565391 173.440088 
L 63.275598 169.576836 
M 71.988868 182.153358 
L 75.85212 160.863565 
M 73.920494 171.508462 
L 51.282754 187.192348 
" clip-path="url(#p479c4ae825)" style="fill: none; stroke: #000000; stroke-width: 2; stroke-linecap: round"/>
   </g>
   <g id="line2d_14">
    <path d="M 79.828756 131.677652 
L 69.767538 138.648268 
M 44.614493 156.074809 
L 34.553275 163.045425 
" clip-path="url(#p479c4ae825)" style="fill: none; stroke: #000000; stroke-width: 2; stroke-linecap: round"/>
   </g>
   <g id="line2d_15">
    <path d="M 224.558019 196.155 
L 185.327264 128.20534 
" clip-path="url(#p479c4ae825)" style="fill: none; stroke: #000000; stroke-width: 2; stroke-linecap: round"/>
   </g>
   <g id="line2d_16">
    <path d="M 118.556509 12.555 
L 157.787264 80.50466 
" clip-path="url(#p479c4ae825)" style="fill: none; stroke: #000000; stroke-width: 2; stroke-linecap: round"/>
   </g>
   <g id="line2d_17">
    <path d="M 175.787128 133.71334 
L 194.8674 122.69734 
" clip-path="url(#p479c4ae825)" style="fill: none; stroke: #000000; stroke-width: 2; stroke-linecap: round"/>
   </g>
   <g id="line2d_18">
    <path d="M 148.247128 86.01266 
L 167.3274 74.99666 
" clip-path="url(#p479c4ae825)" style="fill: none; stroke: #000000; stroke-width: 2; stroke-linecap: round"/>
   </g>
   <g id="line2d_19">
    <path d="M 175.787128 133.71334 
L 162.017128 109.863 
M 159.217034 120.313094 
L 164.817223 99.412906 
M 151.567034 107.062906 
L 172.467223 112.663094 
M 162.017128 109.863 
L 148.247128 86.01266 
" clip-path="url(#p479c4ae825)" style="fill: none; stroke: #000000; stroke-width: 2; stroke-linecap: round"/>
   </g>
   <g id="line2d_20">
    <path d="M 194.8674 122.69734 
L 188.7474 112.097189 
M 173.4474 85.596811 
L 167.3274 74.99666 
" clip-path="url(#p479c4ae825)" style="fill: none; stroke: #000000; stroke-width: 2; stroke-linecap: round"/>
   </g>
   <g id="line2d_21">
    <path d="M 224.558019 196.155 
L 146.096509 196.155 
" clip-path="url(#p479c4ae825)" style="fill: none; stroke: #000000; stroke-width: 2; stroke-linecap: round"/>
   </g>
   <g id="line2d_22">
    <path d="M 12.555 196.155 
L 91.016509 196.155 
" clip-path="url(#p479c4ae825)" style="fill: none; stroke: #000000; stroke-width: 2; stroke-linecap: round"/>
   </g>
   <g id="line2d_23">
    <path d="M 146.096509 207.171 
L 146.096509 185.139 
" clip-path="url(#p479c4ae825)" style="fill: none; stroke: #000000; stroke-width: 2; stroke-linecap: round"/>
   </g>
   <g id="line2d_24">
    <path d="M 91.016509 207.171 
L 91.016509 185.139 
" clip-path="url(#p479c4ae825)" style="fill: none; stroke: #000000; stroke-width: 2; stroke-linecap: round"/>
   </g>
   <g id="line2d_25">
    <path d="M 146.096509 207.171 
L 121.310509 207.171 
M 121.310509 214.821 
L 121.310509 199.521 
M 115.802509 214.821 
L 115.802509 199.521 
M 115.802509 207.171 
L 91.016509 207.171 
" clip-path="url(#p479c4ae825)" style="fill: none; stroke: #000000; stroke-width: 2; stroke-linecap: round"/>
   </g>
   <g id="line2d_26">
    <path d="M 146.096509 185.139 
L 133.856509 185.139 
M 103.256509 185.139 
L 91.016509 185.139 
" clip-path="url(#p479c4ae825)" style="fill: none; stroke: #000000; stroke-width: 2; stroke-linecap: round"/>
   </g>
   <g id="line2d_27">
    <path d="M 118.556509 12.555 
L 79.325755 80.50466 
" clip-path="url(#p479c4ae825)" style="fill: none; stroke: #000000; stroke-width: 2; stroke-linecap: round"/>
   </g>
   <g id="line2d_28">
    <path d="M 12.555 196.155 
L 51.785755 128.20534 
" clip-path="url(#p479c4ae825)" style="fill: none; stroke: #000000; stroke-width: 2; stroke-linecap: round"/>
   </g>
   <g id="line2d_29">
    <path d="M 88.865891 86.01266 
L 69.785619 74.99666 
" clip-path="url(#p479c4ae825)" style="fill: none; stroke: #000000; stroke-width: 2; stroke-linecap: round"/>
   </g>
   <g id="line2d_30">
    <path d="M 61.325891 133.71334 
L 42.245619 122.69734 
" clip-path="url(#p479c4ae825)" style="fill: none; stroke: #000000; stroke-width: 2; stroke-linecap: round"/>
   </g>
   <g id="line2d_31">
    <path d="M 88.865891 86.01266 
L 76.472891 107.477966 
M 83.097985 111.302966 
L 69.847796 103.652966 
M 80.343985 116.073034 
L 67.093796 108.423034 
M 73.718891 112.248034 
L 61.325891 133.71334 
" clip-path="url(#p479c4ae825)" style="fill: none; stroke: #000000; stroke-width: 2; stroke-linecap: round"/>
   </g>
   <g id="line2d_32">
    <path d="M 69.785619 74.99666 
L 63.665619 85.596811 
M 48.365619 112.097189 
L 42.245619 122.69734 
" clip-path="url(#p479c4ae825)" style="fill: none; stroke: #000000; stroke-width: 2; stroke-linecap: round"/>
   </g>
   <g id="patch_18">
    <path d="M 118.556509 125.01 
C 119.165151 125.01 119.748945 124.768184 120.179319 124.33781 
C 120.609694 123.907436 120.851509 123.323641 120.851509 122.715 
C 120.851509 122.106359 120.609694 121.522564 120.179319 121.09219 
C 119.748945 120.661816 119.165151 120.42 118.556509 120.42 
C 117.947868 120.42 117.364074 120.661816 116.933699 121.09219 
C 116.503325 121.522564 116.261509 122.106359 116.261509 122.715 
C 116.261509 123.323641 116.503325 123.907436 116.933699 124.33781 
C 117.364074 124.768184 117.947868 125.01 118.556509 125.01 
z
" clip-path="url(#p479c4ae825)" style="stroke: #000000; stroke-width: 2; stroke-linejoin: miter"/>
   </g>
   <g id="patch_19">
    <path d="M 224.558019 198.45 
C 225.16666 198.45 225.750455 198.208184 226.180829 197.77781 
C 226.611203 197.347436 226.853019 196.763641 226.853019 196.155 
C 226.853019 195.546359 226.611203 194.962564 226.180829 194.53219 
C 225.750455 194.101816 225.16666 193.86 224.558019 193.86 
C 223.949378 193.86 223.365583 194.101816 222.935209 194.53219 
C 222.504835 194.962564 222.263019 195.546359 222.263019 196.155 
C 222.263019 196.763641 222.504835 197.347436 222.935209 197.77781 
C 223.365583 198.208184 223.949378 198.45 224.558019 198.45 
z
" clip-path="url(#p479c4ae825)" style="stroke: #000000; stroke-width: 2; stroke-linejoin: miter"/>
   </g>
   <g id="patch_20">
    <path d="M 118.556509 14.85 
C 119.165151 14.85 119.748945 14.608184 120.179319 14.17781 
C 120.609694 13.747436 120.851509 13.163641 120.851509 12.555 
C 120.851509 11.946359 120.609694 11.362564 120.179319 10.93219 
C 119.748945 10.501816 119.165151 10.26 118.556509 10.26 
C 117.947868 10.26 117.364074 10.501816 116.933699 10.93219 
C 116.503325 11.362564 116.261509 11.946359 116.261509 12.555 
C 116.261509 13.163641 116.503325 13.747436 116.933699 14.17781 
C 117.364074 14.608184 117.947868 14.85 118.556509 14.85 
z
" clip-path="url(#p479c4ae825)" style="stroke: #000000; stroke-width: 2; stroke-linejoin: miter"/>
   </g>
   <g id="patch_21">
    <path d="M 12.555 198.45 
C 13.163641 198.45 13.747436 198.208184 14.17781 197.77781 
C 14.608184 197.347436 14.85 196.763641 14.85 196.155 
C 14.85 195.546359 14.608184 194.962564 14.17781 194.53219 
C 13.747436 194.101816 13.163641 193.86 12.555 193.86 
C 11.946359 193.86 11.362564 194.101816 10.93219 194.53219 
C 10.501816 194.962564 10.26 195.546359 10.26 196.155 
C 10.26 196.763641 10.501816 197.347436 10.93219 197.77781 
C 11.362564 198.208184 11.946359 198.45 12.555 198.45 
z
" clip-path="url(#p479c4ae825)" style="stroke: #000000; stroke-width: 2; stroke-linejoin: miter"/>
   </g>
  </g>
 </g>
 <defs>
  <clipPath id="p479c4ae825">
   <rect x="7.2" y="7.2" width="222.713019" height="210.681"/>
  </clipPath>
 </defs>
</svg>
