<?xml version="1.0" encoding="utf-8" standalone="no"?>
<!DOCTYPE svg PUBLIC "-//W3C//DTD SVG 1.1//EN"
  "http://www.w3.org/Graphics/SVG/1.1/DTD/svg11.dtd">
<svg xmlns:xlink="http://www.w3.org/1999/xlink" width="237.113019pt" height="214.065pt" viewBox="0 0 237.113019 214.065" xmlns="http://www.w3.org/2000/svg" version="1.1">
 <metadata>
  <rdf:RDF xmlns:dc="http://purl.org/dc/elements/1.1/" xmlns:cc="http://creativecommons.org/ns#" xmlns:rdf="http://www.w3.org/1999/02/22-rdf-syntax-ns#">
   <cc:Work>
    <dc:type rdf:resource="http://purl.org/dc/dcmitype/StillImage"/>
    <dc:date>2023-03-23T14:45:55.521561</dc:date>
    <dc:format>image/svg+xml</dc:format>
    <dc:creator>
     <cc:Agent>
      <dc:title>Matplotlib v3.5.2, https://matplotlib.org/</dc:title>
     </cc:Agent>
    </dc:creator>
   </cc:Work>
  </rdf:RDF>
 </metadata>
 <defs>
  <style type="text/css">*{stroke-linejoin: round; stroke-linecap: butt}</style>
 </defs>
 <g id="figure_1">
  <g id="patch_1">
   <path d="M 0 214.065 
L 237.113019 214.065 
L 237.113019 0 
L 0 0 
L 0 214.065 
z
" style="fill: none"/>
  </g>
  <g id="axes_1">
   <g id="patch_2">
    <path d="M 63.479276 143.004903 
C 64.056781 143.838459 64.942704 144.409069 65.940474 144.590125 
C 66.938244 144.77118 67.968169 144.54822 68.801725 143.970716 
C 69.63528 143.393212 70.205891 142.507288 70.386946 141.509519 
C 70.568002 140.511749 70.345042 139.481823 69.767538 138.648268 
" clip-path="url(#p0ffb46dd56)" style="fill: none; stroke: #000000; stroke-width: 2; stroke-linejoin: miter"/>
   </g>
   <g id="patch_3">
    <path d="M 57.191015 147.361538 
C 57.768519 148.195094 58.654443 148.765704 59.652213 148.94676 
C 60.649983 149.127816 61.679908 148.904856 62.513463 148.327351 
C 63.347019 147.749847 63.917629 146.863924 64.098685 145.866154 
C 64.279741 144.868384 64.056781 143.838459 63.479276 143.004903 
" clip-path="url(#p0ffb46dd56)" style="fill: none; stroke: #000000; stroke-width: 2; stroke-linejoin: miter"/>
   </g>
   <g id="patch_4">
    <path d="M 50.902754 151.718174 
C 51.480258 152.551729 52.366182 153.12234 53.363952 153.303395 
C 54.361721 153.484451 55.391647 153.261491 56.225202 152.683987 
C 57.058758 152.106482 57.629368 151.220559 57.810424 150.222789 
C 57.991479 149.225019 57.768519 148.195094 57.191015 147.361538 
" clip-path="url(#p0ffb46dd56)" style="fill: none; stroke: #000000; stroke-width: 2; stroke-linejoin: miter"/>
   </g>
   <g id="patch_5">
    <path d="M 44.614493 156.074809 
C 45.191997 156.908364 46.07792 157.478975 47.07569 157.66003 
C 48.07346 157.841086 49.103385 157.618126 49.936941 157.040622 
C 50.770496 156.463118 51.341107 155.577194 51.522162 154.579424 
C 51.703218 153.581654 51.480258 152.551729 50.902754 151.718174 
" clip-path="url(#p0ffb46dd56)" style="fill: none; stroke: #000000; stroke-width: 2; stroke-linejoin: miter"/>
   </g>
   <g id="patch_6">
    <path d="M 175.382264 110.980094 
C 174.504059 111.487126 173.862557 112.323148 173.600098 113.302659 
C 173.337639 114.282169 173.475185 115.326936 173.982217 116.205142 
C 174.489249 117.083347 175.325271 117.724849 176.304781 117.987308 
C 177.284292 118.249767 178.329059 118.112221 179.207264 117.605189 
" clip-path="url(#p0ffb46dd56)" style="fill: none; stroke: #000000; stroke-width: 2; stroke-linejoin: miter"/>
   </g>
   <g id="patch_7">
    <path d="M 171.557264 104.355 
C 170.679059 104.862032 170.037557 105.698054 169.775098 106.677564 
C 169.512639 107.657075 169.650185 108.701842 170.157217 109.580047 
C 170.664249 110.458252 171.500271 111.099754 172.479781 111.362213 
C 173.459292 111.624673 174.504059 111.487126 175.382264 110.980094 
" clip-path="url(#p0ffb46dd56)" style="fill: none; stroke: #000000; stroke-width: 2; stroke-linejoin: miter"/>
   </g>
   <g id="patch_8">
    <path d="M 167.732264 97.729906 
C 166.854059 98.236938 166.212557 99.072959 165.950098 100.05247 
C 165.687639 101.031981 165.825185 102.076748 166.332217 102.954953 
C 166.839249 103.833158 167.675271 104.47466 168.654781 104.737119 
C 169.634292 104.999578 170.679059 104.862032 171.557264 104.355 
" clip-path="url(#p0ffb46dd56)" style="fill: none; stroke: #000000; stroke-width: 2; stroke-linejoin: miter"/>
   </g>
   <g id="patch_9">
    <path d="M 163.907264 91.104811 
C 163.029059 91.611843 162.387557 92.447865 162.125098 93.427376 
C 161.862639 94.406886 162.000185 95.451653 162.507217 96.329858 
C 163.014249 97.208064 163.850271 97.849566 164.829781 98.112025 
C 165.809292 98.374484 166.854059 98.236938 167.732264 97.729906 
" clip-path="url(#p0ffb46dd56)" style="fill: none; stroke: #000000; stroke-width: 2; stroke-linejoin: miter"/>
   </g>
   <g id="line2d_1">
    <path d="M 118.556509 122.715 
L 169.29349 157.866611 
M 173.650125 151.57835 
L 164.936855 164.154873 
M 178.177673 154.715127 
L 169.464403 167.29165 
M 173.821038 161.003389 
L 224.558019 196.155 
" clip-path="url(#p0ffb46dd56)" style="fill: none; stroke: #000000; stroke-width: 2; stroke-linecap: round"/>
   </g>
   <g id="line2d_2">
    <path d="M 118.556509 122.715 
L 118.556509 70.389 
M 110.906509 70.389 
L 126.206509 70.389 
M 110.906509 64.881 
L 126.206509 64.881 
M 118.556509 64.881 
L 118.556509 12.555 
" clip-path="url(#p0ffb46dd56)" style="fill: none; stroke: #000000; stroke-width: 2; stroke-linecap: round"/>
   </g>
   <g id="line2d_3">
    <path d="M 118.556509 122.715 
L 88.193495 143.751113 
" clip-path="url(#p0ffb46dd56)" style="fill: none; stroke: #000000; stroke-width: 2; stroke-linecap: round"/>
   </g>
   <g id="line2d_4">
    <path d="M 12.555 196.155 
L 42.918014 175.118887 
" clip-path="url(#p0ffb46dd56)" style="fill: none; stroke: #000000; stroke-width: 2; stroke-linecap: round"/>
   </g>
   <g id="line2d_5">
    <path d="M 96.558235 155.824575 
L 79.828756 131.677652 
" clip-path="url(#p0ffb46dd56)" style="fill: none; stroke: #000000; stroke-width: 2; stroke-linecap: round"/>
   </g>
   <g id="line2d_6">
    <path d="M 51.282754 187.192348 
L 34.553275 163.045425 
" clip-path="url(#p0ffb46dd56)" style="fill: none; stroke: #000000; stroke-width: 2; stroke-linecap: round"/>
   </g>
   <g id="line2d_7">
    <path d="M 88.193495 143.751113 
L 67.819529 157.866611 
M 72.176164 164.154873 
L 63.462894 151.57835 
M 67.648616 167.29165 
L 58.935345 154.715127 
M 63.291981 161.003389 
L 42.918014 175.118887 
" clip-path="url(#p0ffb46dd56)" style="fill: none; stroke: #000000; stroke-width: 2; stroke-linecap: round"/>
   </g>
   <g id="line2d_8">
    <path d="M 96.558235 155.824575 
L 73.920494 171.508462 
M 84.565391 173.440088 
L 63.275598 169.576836 
M 71.988868 182.153358 
L 75.85212 160.863565 
M 73.920494 171.508462 
L 51.282754 187.192348 
" clip-path="url(#p0ffb46dd56)" style="fill: none; stroke: #000000; stroke-width: 2; stroke-linecap: round"/>
   </g>
   <g id="line2d_9">
    <path d="M 79.828756 131.677652 
L 69.767538 138.648268 
M 44.614493 156.074809 
L 34.553275 163.045425 
" clip-path="url(#p0ffb46dd56)" style="fill: none; stroke: #000000; stroke-width: 2; stroke-linecap: round"/>
   </g>
   <g id="line2d_10">
    <path d="M 224.558019 196.155 
L 179.207264 117.605189 
M 163.907264 91.104811 
L 118.556509 12.555 
" clip-path="url(#p0ffb46dd56)" style="fill: none; stroke: #000000; stroke-width: 2; stroke-linecap: round"/>
   </g>
   <g id="line2d_11">
    <path d="M 224.558019 196.155 
L 118.556509 196.155 
M 126.206509 203.805 
L 110.906509 188.505 
M 110.906509 203.805 
L 126.206509 188.505 
M 118.556509 196.155 
L 12.555 196.155 
" clip-path="url(#p0ffb46dd56)" style="fill: none; stroke: #000000; stroke-width: 2; stroke-linecap: round"/>
   </g>
   <g id="line2d_12">
    <path d="M 118.556509 12.555 
L 65.555755 104.355 
M 76.005849 101.554906 
L 55.10566 107.155094 
M 68.355849 114.805094 
L 62.75566 93.904906 
M 65.555755 104.355 
L 12.555 196.155 
" clip-path="url(#p0ffb46dd56)" style="fill: none; stroke: #000000; stroke-width: 2; stroke-linecap: round"/>
   </g>
   <g id="patch_10">
    <path d="M 118.556509 125.01 
C 119.165151 125.01 119.748945 124.768184 120.179319 124.33781 
C 120.609694 123.907436 120.851509 123.323641 120.851509 122.715 
C 120.851509 122.106359 120.609694 121.522564 120.179319 121.09219 
C 119.748945 120.661816 119.165151 120.42 118.556509 120.42 
C 117.947868 120.42 117.364074 120.661816 116.933699 121.09219 
C 116.503325 121.522564 116.261509 122.106359 116.261509 122.715 
C 116.261509 123.323641 116.503325 123.907436 116.933699 124.33781 
C 117.364074 124.768184 117.947868 125.01 118.556509 125.01 
z
" clip-path="url(#p0ffb46dd56)" style="stroke: #000000; stroke-width: 2; stroke-linejoin: miter"/>
   </g>
   <g id="patch_11">
    <path d="M 224.558019 198.45 
C 225.16666 198.45 225.750455 198.208184 226.180829 197.77781 
C 226.611203 197.347436 226.853019 196.763641 226.853019 196.155 
C 226.853019 195.546359 226.611203 194.962564 226.180829 194.53219 
C 225.750455 194.101816 225.16666 193.86 224.558019 193.86 
C 223.949378 193.86 223.365583 194.101816 222.935209 194.53219 
C 222.504835 194.962564 222.263019 195.546359 222.263019 196.155 
C 222.263019 196.763641 222.504835 197.347436 222.935209 197.77781 
C 223.365583 198.208184 223.949378 198.45 224.558019 198.45 
z
" clip-path="url(#p0ffb46dd56)" style="stroke: #000000; stroke-width: 2; stroke-linejoin: miter"/>
   </g>
   <g id="patch_12">
    <path d="M 118.556509 14.85 
C 119.165151 14.85 119.748945 14.608184 120.179319 14.17781 
C 120.609694 13.747436 120.851509 13.163641 120.851509 12.555 
C 120.851509 11.946359 120.609694 11.362564 120.179319 10.93219 
C 119.748945 10.501816 119.165151 10.26 118.556509 10.26 
C 117.947868 10.26 117.364074 10.501816 116.933699 10.93219 
C 116.503325 11.362564 116.261509 11.946359 116.261509 12.555 
C 116.261509 13.163641 116.503325 13.747436 116.933699 14.17781 
C 117.364074 14.608184 117.947868 14.85 118.556509 14.85 
z
" clip-path="url(#p0ffb46dd56)" style="stroke: #000000; stroke-width: 2; stroke-linejoin: miter"/>
   </g>
   <g id="patch_13">
    <path d="M 12.555 198.45 
C 13.163641 198.45 13.747436 198.208184 14.17781 197.77781 
C 14.608184 197.347436 14.85 196.763641 14.85 196.155 
C 14.85 195.546359 14.608184 194.962564 14.17781 194.53219 
C 13.747436 194.101816 13.163641 193.86 12.555 193.86 
C 11.946359 193.86 11.362564 194.101816 10.93219 194.53219 
C 10.501816 194.962564 10.26 195.546359 10.26 196.155 
C 10.26 196.763641 10.501816 197.347436 10.93219 197.77781 
C 11.362564 198.208184 11.946359 198.45 12.555 198.45 
z
" clip-path="url(#p0ffb46dd56)" style="stroke: #000000; stroke-width: 2; stroke-linejoin: miter"/>
   </g>
  </g>
 </g>
 <defs>
  <clipPath id="p0ffb46dd56">
   <rect x="7.2" y="7.2" width="222.713019" height="199.665"/>
  </clipPath>
 </defs>
</svg>
