<?xml version="1.0" encoding="utf-8" standalone="no"?>
<!DOCTYPE svg PUBLIC "-//W3C//DTD SVG 1.1//EN"
  "http://www.w3.org/Graphics/SVG/1.1/DTD/svg11.dtd">
<svg xmlns:xlink="http://www.w3.org/1999/xlink" width="237.113019pt" height="210.239981pt" viewBox="0 0 237.113019 210.239981" xmlns="http://www.w3.org/2000/svg" version="1.1">
 <metadata>
  <rdf:RDF xmlns:dc="http://purl.org/dc/elements/1.1/" xmlns:cc="http://creativecommons.org/ns#" xmlns:rdf="http://www.w3.org/1999/02/22-rdf-syntax-ns#">
   <cc:Work>
    <dc:type rdf:resource="http://purl.org/dc/dcmitype/StillImage"/>
    <dc:date>2023-03-23T14:41:32.355664</dc:date>
    <dc:format>image/svg+xml</dc:format>
    <dc:creator>
     <cc:Agent>
      <dc:title>Matplotlib v3.5.2, https://matplotlib.org/</dc:title>
     </cc:Agent>
    </dc:creator>
   </cc:Work>
  </rdf:RDF>
 </metadata>
 <defs>
  <style type="text/css">*{stroke-linejoin: round; stroke-linecap: butt}</style>
 </defs>
 <g id="figure_1">
  <g id="patch_1">
   <path d="M 0 210.239981 
L 237.113019 210.239981 
L 237.113019 0 
L 0 0 
L 0 210.239981 
z
" style="fill: none"/>
  </g>
  <g id="axes_1">
   <g id="patch_2">
    <path d="M 118.556509 75.285 
C 117.542445 75.285 116.568878 75.688265 115.851826 76.405317 
C 115.134774 77.122368 114.731509 78.095936 114.731509 79.11 
C 114.731509 80.124064 115.134774 81.097632 115.851826 81.814683 
C 116.568878 82.531735 117.542445 82.935 118.556509 82.935 
" clip-path="url(#p92a7e1d5ab)" style="fill: none; stroke: #000000; stroke-width: 2; stroke-linejoin: miter"/>
   </g>
   <g id="patch_3">
    <path d="M 118.556509 67.635 
C 117.542445 67.635 116.568878 68.038265 115.851826 68.755317 
C 115.134774 69.472368 114.731509 70.445936 114.731509 71.46 
C 114.731509 72.474064 115.134774 73.447632 115.851826 74.164683 
C 116.568878 74.881735 117.542445 75.285 118.556509 75.285 
" clip-path="url(#p92a7e1d5ab)" style="fill: none; stroke: #000000; stroke-width: 2; stroke-linejoin: miter"/>
   </g>
   <g id="patch_4">
    <path d="M 118.556509 59.985 
C 117.542445 59.985 116.568878 60.388265 115.851826 61.105317 
C 115.134774 61.822368 114.731509 62.795936 114.731509 63.81 
C 114.731509 64.824064 115.134774 65.797632 115.851826 66.514683 
C 116.568878 67.231735 117.542445 67.635 118.556509 67.635 
" clip-path="url(#p92a7e1d5ab)" style="fill: none; stroke: #000000; stroke-width: 2; stroke-linejoin: miter"/>
   </g>
   <g id="patch_5">
    <path d="M 118.556509 52.335 
C 117.542445 52.335 116.568878 52.738265 115.851826 53.455317 
C 115.134774 54.172368 114.731509 55.145936 114.731509 56.16 
C 114.731509 57.174064 115.134774 58.147632 115.851826 58.864683 
C 116.568878 59.581735 117.542445 59.985 118.556509 59.985 
" clip-path="url(#p92a7e1d5ab)" style="fill: none; stroke: #000000; stroke-width: 2; stroke-linejoin: miter"/>
   </g>
   <g id="patch_6">
    <path d="M 184.9224 105.472094 
C 184.044195 105.979126 183.402693 106.815148 183.140234 107.794659 
C 182.877775 108.774169 183.015321 109.818936 183.522353 110.697142 
C 184.029385 111.575347 184.865407 112.216849 185.844917 112.479308 
C 186.824428 112.741767 187.869195 112.604221 188.7474 112.097189 
" clip-path="url(#p92a7e1d5ab)" style="fill: none; stroke: #000000; stroke-width: 2; stroke-linejoin: miter"/>
   </g>
   <g id="patch_7">
    <path d="M 181.0974 98.847 
C 180.219195 99.354032 179.577693 100.190054 179.315234 101.169564 
C 179.052775 102.149075 179.190321 103.193842 179.697353 104.072047 
C 180.204385 104.950252 181.040407 105.591754 182.019917 105.854213 
C 182.999428 106.116673 184.044195 105.979126 184.9224 105.472094 
" clip-path="url(#p92a7e1d5ab)" style="fill: none; stroke: #000000; stroke-width: 2; stroke-linejoin: miter"/>
   </g>
   <g id="patch_8">
    <path d="M 177.2724 92.221906 
C 176.394195 92.728938 175.752693 93.564959 175.490234 94.54447 
C 175.227775 95.523981 175.365321 96.568748 175.872353 97.446953 
C 176.379385 98.325158 177.215407 98.96666 178.194917 99.229119 
C 179.174428 99.491578 180.219195 99.354032 181.0974 98.847 
" clip-path="url(#p92a7e1d5ab)" style="fill: none; stroke: #000000; stroke-width: 2; stroke-linejoin: miter"/>
   </g>
   <g id="patch_9">
    <path d="M 173.4474 85.596811 
C 172.569195 86.103843 171.927693 86.939865 171.665234 87.919376 
C 171.402775 88.898886 171.540321 89.943653 172.047353 90.821858 
C 172.554385 91.700064 173.390407 92.341566 174.369917 92.604025 
C 175.349428 92.866484 176.394195 92.728938 177.2724 92.221906 
" clip-path="url(#p92a7e1d5ab)" style="fill: none; stroke: #000000; stroke-width: 2; stroke-linejoin: miter"/>
   </g>
   <g id="patch_10">
    <path d="M 126.206509 196.155 
C 126.206509 197.169064 126.609774 198.142632 127.326826 198.859683 
C 128.043878 199.576735 129.017445 199.98 130.031509 199.98 
C 131.045573 199.98 132.019141 199.576735 132.736193 198.859683 
C 133.453244 198.142632 133.856509 197.169064 133.856509 196.155 
" clip-path="url(#p92a7e1d5ab)" style="fill: none; stroke: #000000; stroke-width: 2; stroke-linejoin: miter"/>
   </g>
   <g id="patch_11">
    <path d="M 118.556509 196.155 
C 118.556509 197.169064 118.959774 198.142632 119.676826 198.859683 
C 120.393878 199.576735 121.367445 199.98 122.381509 199.98 
C 123.395573 199.98 124.369141 199.576735 125.086193 198.859683 
C 125.803244 198.142632 126.206509 197.169064 126.206509 196.155 
" clip-path="url(#p92a7e1d5ab)" style="fill: none; stroke: #000000; stroke-width: 2; stroke-linejoin: miter"/>
   </g>
   <g id="patch_12">
    <path d="M 110.906509 196.155 
C 110.906509 197.169064 111.309774 198.142632 112.026826 198.859683 
C 112.743878 199.576735 113.717445 199.98 114.731509 199.98 
C 115.745573 199.98 116.719141 199.576735 117.436193 198.859683 
C 118.153244 198.142632 118.556509 197.169064 118.556509 196.155 
" clip-path="url(#p92a7e1d5ab)" style="fill: none; stroke: #000000; stroke-width: 2; stroke-linejoin: miter"/>
   </g>
   <g id="patch_13">
    <path d="M 103.256509 196.155 
C 103.256509 197.169064 103.659774 198.142632 104.376826 198.859683 
C 105.093878 199.576735 106.067445 199.98 107.081509 199.98 
C 108.095573 199.98 109.069141 199.576735 109.786193 198.859683 
C 110.503244 198.142632 110.906509 197.169064 110.906509 196.155 
" clip-path="url(#p92a7e1d5ab)" style="fill: none; stroke: #000000; stroke-width: 2; stroke-linejoin: miter"/>
   </g>
   <g id="patch_14">
    <path d="M 69.380755 97.729906 
C 70.25896 98.236938 71.303727 98.374484 72.283238 98.112025 
C 73.262748 97.849566 74.09877 97.208064 74.605802 96.329858 
C 75.112834 95.451653 75.25038 94.406886 74.987921 93.427376 
C 74.725462 92.447865 74.08396 91.611843 73.205755 91.104811 
" clip-path="url(#p92a7e1d5ab)" style="fill: none; stroke: #000000; stroke-width: 2; stroke-linejoin: miter"/>
   </g>
   <g id="patch_15">
    <path d="M 65.555755 104.355 
C 66.43396 104.862032 67.478727 104.999578 68.458238 104.737119 
C 69.437748 104.47466 70.27377 103.833158 70.780802 102.954953 
C 71.287834 102.076748 71.42538 101.031981 71.162921 100.05247 
C 70.900462 99.072959 70.25896 98.236938 69.380755 97.729906 
" clip-path="url(#p92a7e1d5ab)" style="fill: none; stroke: #000000; stroke-width: 2; stroke-linejoin: miter"/>
   </g>
   <g id="patch_16">
    <path d="M 61.730755 110.980094 
C 62.60896 111.487126 63.653727 111.624673 64.633238 111.362213 
C 65.612748 111.099754 66.44877 110.458252 66.955802 109.580047 
C 67.462834 108.701842 67.60038 107.657075 67.337921 106.677564 
C 67.075462 105.698054 66.43396 104.862032 65.555755 104.355 
" clip-path="url(#p92a7e1d5ab)" style="fill: none; stroke: #000000; stroke-width: 2; stroke-linejoin: miter"/>
   </g>
   <g id="patch_17">
    <path d="M 57.905755 117.605189 
C 58.78396 118.112221 59.828727 118.249767 60.808238 117.987308 
C 61.787748 117.724849 62.62377 117.083347 63.130802 116.205142 
C 63.637834 115.326936 63.77538 114.282169 63.512921 113.302659 
C 63.250462 112.323148 62.60896 111.487126 61.730755 110.980094 
" clip-path="url(#p92a7e1d5ab)" style="fill: none; stroke: #000000; stroke-width: 2; stroke-linejoin: miter"/>
   </g>
   <g id="line2d_1">
    <path d="M 118.556509 122.715 
L 169.29349 157.866611 
M 173.650125 151.57835 
L 164.936855 164.154873 
M 178.177673 154.715127 
L 169.464403 167.29165 
M 173.821038 161.003389 
L 224.558019 196.155 
" clip-path="url(#p92a7e1d5ab)" style="fill: none; stroke: #000000; stroke-width: 2; stroke-linecap: round"/>
   </g>
   <g id="line2d_2">
    <path d="M 118.556509 122.715 
L 118.556509 82.935 
M 118.556509 52.335 
L 118.556509 12.555 
" clip-path="url(#p92a7e1d5ab)" style="fill: none; stroke: #000000; stroke-width: 2; stroke-linecap: round"/>
   </g>
   <g id="line2d_3">
    <path d="M 118.556509 122.715 
L 88.193495 143.751113 
" clip-path="url(#p92a7e1d5ab)" style="fill: none; stroke: #000000; stroke-width: 2; stroke-linecap: round"/>
   </g>
   <g id="line2d_4">
    <path d="M 12.555 196.155 
L 42.918014 175.118887 
" clip-path="url(#p92a7e1d5ab)" style="fill: none; stroke: #000000; stroke-width: 2; stroke-linecap: round"/>
   </g>
   <g id="line2d_5">
    <path d="M 94.46705 152.806209 
L 81.919941 134.696017 
" clip-path="url(#p92a7e1d5ab)" style="fill: none; stroke: #000000; stroke-width: 2; stroke-linecap: round"/>
   </g>
   <g id="line2d_6">
    <path d="M 49.191569 184.173983 
L 36.644459 166.063791 
" clip-path="url(#p92a7e1d5ab)" style="fill: none; stroke: #000000; stroke-width: 2; stroke-linecap: round"/>
   </g>
   <g id="line2d_7">
    <path d="M 94.46705 152.806209 
L 74.093083 166.921708 
M 78.449719 173.209969 
L 69.736448 160.633446 
M 73.922171 176.346746 
L 65.2089 163.770224 
M 69.565535 170.058485 
L 49.191569 184.173983 
" clip-path="url(#p92a7e1d5ab)" style="fill: none; stroke: #000000; stroke-width: 2; stroke-linecap: round"/>
   </g>
   <g id="line2d_8">
    <path d="M 81.919941 134.696017 
L 59.2822 150.379904 
M 69.927096 152.31153 
L 48.637304 148.448278 
M 57.350574 161.0248 
L 61.213826 139.735007 
M 59.2822 150.379904 
L 36.644459 166.063791 
" clip-path="url(#p92a7e1d5ab)" style="fill: none; stroke: #000000; stroke-width: 2; stroke-linecap: round"/>
   </g>
   <g id="line2d_9">
    <path d="M 224.558019 196.155 
L 185.327264 128.20534 
" clip-path="url(#p92a7e1d5ab)" style="fill: none; stroke: #000000; stroke-width: 2; stroke-linecap: round"/>
   </g>
   <g id="line2d_10">
    <path d="M 118.556509 12.555 
L 157.787264 80.50466 
" clip-path="url(#p92a7e1d5ab)" style="fill: none; stroke: #000000; stroke-width: 2; stroke-linecap: round"/>
   </g>
   <g id="line2d_11">
    <path d="M 175.787128 133.71334 
L 194.8674 122.69734 
" clip-path="url(#p92a7e1d5ab)" style="fill: none; stroke: #000000; stroke-width: 2; stroke-linecap: round"/>
   </g>
   <g id="line2d_12">
    <path d="M 148.247128 86.01266 
L 167.3274 74.99666 
" clip-path="url(#p92a7e1d5ab)" style="fill: none; stroke: #000000; stroke-width: 2; stroke-linecap: round"/>
   </g>
   <g id="line2d_13">
    <path d="M 175.787128 133.71334 
L 163.394128 112.248034 
M 156.769034 116.073034 
L 170.019223 108.423034 
M 154.015034 111.302966 
L 167.265223 103.652966 
M 160.640128 107.477966 
L 148.247128 86.01266 
" clip-path="url(#p92a7e1d5ab)" style="fill: none; stroke: #000000; stroke-width: 2; stroke-linecap: round"/>
   </g>
   <g id="line2d_14">
    <path d="M 194.8674 122.69734 
L 188.7474 112.097189 
M 173.4474 85.596811 
L 167.3274 74.99666 
" clip-path="url(#p92a7e1d5ab)" style="fill: none; stroke: #000000; stroke-width: 2; stroke-linecap: round"/>
   </g>
   <g id="line2d_15">
    <path d="M 224.558019 196.155 
L 133.856509 196.155 
M 103.256509 196.155 
L 12.555 196.155 
" clip-path="url(#p92a7e1d5ab)" style="fill: none; stroke: #000000; stroke-width: 2; stroke-linecap: round"/>
   </g>
   <g id="line2d_16">
    <path d="M 118.556509 12.555 
L 73.205755 91.104811 
M 57.905755 117.605189 
L 12.555 196.155 
" clip-path="url(#p92a7e1d5ab)" style="fill: none; stroke: #000000; stroke-width: 2; stroke-linecap: round"/>
   </g>
   <g id="patch_18">
    <path d="M 118.556509 125.01 
C 119.165151 125.01 119.748945 124.768184 120.179319 124.33781 
C 120.609694 123.907436 120.851509 123.323641 120.851509 122.715 
C 120.851509 122.106359 120.609694 121.522564 120.179319 121.09219 
C 119.748945 120.661816 119.165151 120.42 118.556509 120.42 
C 117.947868 120.42 117.364074 120.661816 116.933699 121.09219 
C 116.503325 121.522564 116.261509 122.106359 116.261509 122.715 
C 116.261509 123.323641 116.503325 123.907436 116.933699 124.33781 
C 117.364074 124.768184 117.947868 125.01 118.556509 125.01 
z
" clip-path="url(#p92a7e1d5ab)" style="stroke: #000000; stroke-width: 2; stroke-linejoin: miter"/>
   </g>
   <g id="patch_19">
    <path d="M 224.558019 198.45 
C 225.16666 198.45 225.750455 198.208184 226.180829 197.77781 
C 226.611203 197.347436 226.853019 196.763641 226.853019 196.155 
C 226.853019 195.546359 226.611203 194.962564 226.180829 194.53219 
C 225.750455 194.101816 225.16666 193.86 224.558019 193.86 
C 223.949378 193.86 223.365583 194.101816 222.935209 194.53219 
C 222.504835 194.962564 222.263019 195.546359 222.263019 196.155 
C 222.263019 196.763641 222.504835 197.347436 222.935209 197.77781 
C 223.365583 198.208184 223.949378 198.45 224.558019 198.45 
z
" clip-path="url(#p92a7e1d5ab)" style="stroke: #000000; stroke-width: 2; stroke-linejoin: miter"/>
   </g>
   <g id="patch_20">
    <path d="M 118.556509 14.85 
C 119.165151 14.85 119.748945 14.608184 120.179319 14.17781 
C 120.609694 13.747436 120.851509 13.163641 120.851509 12.555 
C 120.851509 11.946359 120.609694 11.362564 120.179319 10.93219 
C 119.748945 10.501816 119.165151 10.26 118.556509 10.26 
C 117.947868 10.26 117.364074 10.501816 116.933699 10.93219 
C 116.503325 11.362564 116.261509 11.946359 116.261509 12.555 
C 116.261509 13.163641 116.503325 13.747436 116.933699 14.17781 
C 117.364074 14.608184 117.947868 14.85 118.556509 14.85 
z
" clip-path="url(#p92a7e1d5ab)" style="stroke: #000000; stroke-width: 2; stroke-linejoin: miter"/>
   </g>
   <g id="patch_21">
    <path d="M 12.555 198.45 
C 13.163641 198.45 13.747436 198.208184 14.17781 197.77781 
C 14.608184 197.347436 14.85 196.763641 14.85 196.155 
C 14.85 195.546359 14.608184 194.962564 14.17781 194.53219 
C 13.747436 194.101816 13.163641 193.86 12.555 193.86 
C 11.946359 193.86 11.362564 194.101816 10.93219 194.53219 
C 10.501816 194.962564 10.26 195.546359 10.26 196.155 
C 10.26 196.763641 10.501816 197.347436 10.93219 197.77781 
C 11.362564 198.208184 11.946359 198.45 12.555 198.45 
z
" clip-path="url(#p92a7e1d5ab)" style="stroke: #000000; stroke-width: 2; stroke-linejoin: miter"/>
   </g>
  </g>
 </g>
 <defs>
  <clipPath id="p92a7e1d5ab">
   <rect x="7.2" y="7.2" width="222.713019" height="195.839981"/>
  </clipPath>
 </defs>
</svg>
