<?xml version="1.0" encoding="utf-8" standalone="no"?>
<!DOCTYPE svg PUBLIC "-//W3C//DTD SVG 1.1//EN"
  "http://www.w3.org/Graphics/SVG/1.1/DTD/svg11.dtd">
<svg xmlns:xlink="http://www.w3.org/1999/xlink" width="237.113019pt" height="225.081pt" viewBox="0 0 237.113019 225.081" xmlns="http://www.w3.org/2000/svg" version="1.1">
 <metadata>
  <rdf:RDF xmlns:dc="http://purl.org/dc/elements/1.1/" xmlns:cc="http://creativecommons.org/ns#" xmlns:rdf="http://www.w3.org/1999/02/22-rdf-syntax-ns#">
   <cc:Work>
    <dc:type rdf:resource="http://purl.org/dc/dcmitype/StillImage"/>
    <dc:date>2023-03-23T14:48:02.188351</dc:date>
    <dc:format>image/svg+xml</dc:format>
    <dc:creator>
     <cc:Agent>
      <dc:title>Matplotlib v3.5.2, https://matplotlib.org/</dc:title>
     </cc:Agent>
    </dc:creator>
   </cc:Work>
  </rdf:RDF>
 </metadata>
 <defs>
  <style type="text/css">*{stroke-linejoin: round; stroke-linecap: butt}</style>
 </defs>
 <g id="figure_1">
  <g id="patch_1">
   <path d="M 0 225.081 
L 237.113019 225.081 
L 237.113019 0 
L 0 0 
L 0 225.081 
z
" style="fill: none"/>
  </g>
  <g id="axes_1">
   <g id="patch_2">
    <path d="M 175.382264 110.980094 
C 174.504059 111.487126 173.862557 112.323148 173.600098 113.302659 
C 173.337639 114.282169 173.475185 115.326936 173.982217 116.205142 
C 174.489249 117.083347 175.325271 117.724849 176.304781 117.987308 
C 177.284292 118.249767 178.329059 118.112221 179.207264 117.605189 
" clip-path="url(#pf7fd2255bd)" style="fill: none; stroke: #000000; stroke-width: 2; stroke-linejoin: miter"/>
   </g>
   <g id="patch_3">
    <path d="M 171.557264 104.355 
C 170.679059 104.862032 170.037557 105.698054 169.775098 106.677564 
C 169.512639 107.657075 169.650185 108.701842 170.157217 109.580047 
C 170.664249 110.458252 171.500271 111.099754 172.479781 111.362213 
C 173.459292 111.624673 174.504059 111.487126 175.382264 110.980094 
" clip-path="url(#pf7fd2255bd)" style="fill: none; stroke: #000000; stroke-width: 2; stroke-linejoin: miter"/>
   </g>
   <g id="patch_4">
    <path d="M 167.732264 97.729906 
C 166.854059 98.236938 166.212557 99.072959 165.950098 100.05247 
C 165.687639 101.031981 165.825185 102.076748 166.332217 102.954953 
C 166.839249 103.833158 167.675271 104.47466 168.654781 104.737119 
C 169.634292 104.999578 170.679059 104.862032 171.557264 104.355 
" clip-path="url(#pf7fd2255bd)" style="fill: none; stroke: #000000; stroke-width: 2; stroke-linejoin: miter"/>
   </g>
   <g id="patch_5">
    <path d="M 163.907264 91.104811 
C 163.029059 91.611843 162.387557 92.447865 162.125098 93.427376 
C 161.862639 94.406886 162.000185 95.451653 162.507217 96.329858 
C 163.014249 97.208064 163.850271 97.849566 164.829781 98.112025 
C 165.809292 98.374484 166.854059 98.236938 167.732264 97.729906 
" clip-path="url(#pf7fd2255bd)" style="fill: none; stroke: #000000; stroke-width: 2; stroke-linejoin: miter"/>
   </g>
   <g id="patch_6">
    <path d="M 126.206509 185.139 
C 126.206509 186.153064 126.609774 187.126632 127.326826 187.843683 
C 128.043878 188.560735 129.017445 188.964 130.031509 188.964 
C 131.045573 188.964 132.019141 188.560735 132.736193 187.843683 
C 133.453244 187.126632 133.856509 186.153064 133.856509 185.139 
" clip-path="url(#pf7fd2255bd)" style="fill: none; stroke: #000000; stroke-width: 2; stroke-linejoin: miter"/>
   </g>
   <g id="patch_7">
    <path d="M 118.556509 185.139 
C 118.556509 186.153064 118.959774 187.126632 119.676826 187.843683 
C 120.393878 188.560735 121.367445 188.964 122.381509 188.964 
C 123.395573 188.964 124.369141 188.560735 125.086193 187.843683 
C 125.803244 187.126632 126.206509 186.153064 126.206509 185.139 
" clip-path="url(#pf7fd2255bd)" style="fill: none; stroke: #000000; stroke-width: 2; stroke-linejoin: miter"/>
   </g>
   <g id="patch_8">
    <path d="M 110.906509 185.139 
C 110.906509 186.153064 111.309774 187.126632 112.026826 187.843683 
C 112.743878 188.560735 113.717445 188.964 114.731509 188.964 
C 115.745573 188.964 116.719141 188.560735 117.436193 187.843683 
C 118.153244 187.126632 118.556509 186.153064 118.556509 185.139 
" clip-path="url(#pf7fd2255bd)" style="fill: none; stroke: #000000; stroke-width: 2; stroke-linejoin: miter"/>
   </g>
   <g id="patch_9">
    <path d="M 103.256509 185.139 
C 103.256509 186.153064 103.659774 187.126632 104.376826 187.843683 
C 105.093878 188.560735 106.067445 188.964 107.081509 188.964 
C 108.095573 188.964 109.069141 188.560735 109.786193 187.843683 
C 110.503244 187.126632 110.906509 186.153064 110.906509 185.139 
" clip-path="url(#pf7fd2255bd)" style="fill: none; stroke: #000000; stroke-width: 2; stroke-linejoin: miter"/>
   </g>
   <g id="patch_10">
    <path d="M 56.660574 90.385906 
C 57.538779 90.892938 58.583546 91.030484 59.563056 90.768025 
C 60.542567 90.505566 61.378589 89.864064 61.885621 88.985858 
C 62.392653 88.107653 62.530199 87.062886 62.26774 86.083376 
C 62.005281 85.103865 61.363779 84.267843 60.485574 83.760811 
" clip-path="url(#pf7fd2255bd)" style="fill: none; stroke: #000000; stroke-width: 2; stroke-linejoin: miter"/>
   </g>
   <g id="patch_11">
    <path d="M 52.835574 97.011 
C 53.713779 97.518032 54.758546 97.655578 55.738056 97.393119 
C 56.717567 97.13066 57.553589 96.489158 58.060621 95.610953 
C 58.567653 94.732748 58.705199 93.687981 58.44274 92.70847 
C 58.180281 91.728959 57.538779 90.892938 56.660574 90.385906 
" clip-path="url(#pf7fd2255bd)" style="fill: none; stroke: #000000; stroke-width: 2; stroke-linejoin: miter"/>
   </g>
   <g id="patch_12">
    <path d="M 49.010574 103.636094 
C 49.888779 104.143126 50.933546 104.280673 51.913056 104.018213 
C 52.892567 103.755754 53.728589 103.114252 54.235621 102.236047 
C 54.742653 101.357842 54.880199 100.313075 54.61774 99.333564 
C 54.355281 98.354054 53.713779 97.518032 52.835574 97.011 
" clip-path="url(#pf7fd2255bd)" style="fill: none; stroke: #000000; stroke-width: 2; stroke-linejoin: miter"/>
   </g>
   <g id="patch_13">
    <path d="M 45.185574 110.261189 
C 46.063779 110.768221 47.108546 110.905767 48.088056 110.643308 
C 49.067567 110.380849 49.903589 109.739347 50.410621 108.861142 
C 50.917653 107.982936 51.055199 106.938169 50.79274 105.958659 
C 50.530281 104.979148 49.888779 104.143126 49.010574 103.636094 
" clip-path="url(#pf7fd2255bd)" style="fill: none; stroke: #000000; stroke-width: 2; stroke-linejoin: miter"/>
   </g>
   <g id="line2d_1">
    <path d="M 118.556509 122.715 
L 169.29349 157.866611 
M 173.650125 151.57835 
L 164.936855 164.154873 
M 178.177673 154.715127 
L 169.464403 167.29165 
M 173.821038 161.003389 
L 224.558019 196.155 
" clip-path="url(#pf7fd2255bd)" style="fill: none; stroke: #000000; stroke-width: 2; stroke-linecap: round"/>
   </g>
   <g id="line2d_2">
    <path d="M 118.556509 122.715 
L 118.556509 67.635 
M 110.906509 75.285 
L 126.206509 59.985 
M 110.906509 59.985 
L 126.206509 75.285 
M 118.556509 67.635 
L 118.556509 12.555 
" clip-path="url(#pf7fd2255bd)" style="fill: none; stroke: #000000; stroke-width: 2; stroke-linecap: round"/>
   </g>
   <g id="line2d_3">
    <path d="M 118.556509 122.715 
L 65.555755 159.435 
M 76.200651 161.366626 
L 54.910858 157.503374 
M 63.624129 170.079896 
L 67.487381 148.790104 
M 65.555755 159.435 
L 12.555 196.155 
" clip-path="url(#pf7fd2255bd)" style="fill: none; stroke: #000000; stroke-width: 2; stroke-linecap: round"/>
   </g>
   <g id="line2d_4">
    <path d="M 224.558019 196.155 
L 179.207264 117.605189 
M 163.907264 91.104811 
L 118.556509 12.555 
" clip-path="url(#pf7fd2255bd)" style="fill: none; stroke: #000000; stroke-width: 2; stroke-linecap: round"/>
   </g>
   <g id="line2d_5">
    <path d="M 224.558019 196.155 
L 146.096509 196.155 
" clip-path="url(#pf7fd2255bd)" style="fill: none; stroke: #000000; stroke-width: 2; stroke-linecap: round"/>
   </g>
   <g id="line2d_6">
    <path d="M 12.555 196.155 
L 91.016509 196.155 
" clip-path="url(#pf7fd2255bd)" style="fill: none; stroke: #000000; stroke-width: 2; stroke-linecap: round"/>
   </g>
   <g id="line2d_7">
    <path d="M 146.096509 207.171 
L 146.096509 185.139 
" clip-path="url(#pf7fd2255bd)" style="fill: none; stroke: #000000; stroke-width: 2; stroke-linecap: round"/>
   </g>
   <g id="line2d_8">
    <path d="M 91.016509 207.171 
L 91.016509 185.139 
" clip-path="url(#pf7fd2255bd)" style="fill: none; stroke: #000000; stroke-width: 2; stroke-linecap: round"/>
   </g>
   <g id="line2d_9">
    <path d="M 146.096509 207.171 
L 118.556509 207.171 
M 126.206509 214.821 
L 110.906509 199.521 
M 110.906509 214.821 
L 126.206509 199.521 
M 118.556509 207.171 
L 91.016509 207.171 
" clip-path="url(#pf7fd2255bd)" style="fill: none; stroke: #000000; stroke-width: 2; stroke-linecap: round"/>
   </g>
   <g id="line2d_10">
    <path d="M 146.096509 185.139 
L 133.856509 185.139 
M 103.256509 185.139 
L 91.016509 185.139 
" clip-path="url(#pf7fd2255bd)" style="fill: none; stroke: #000000; stroke-width: 2; stroke-linecap: round"/>
   </g>
   <g id="line2d_11">
    <path d="M 118.556509 12.555 
L 79.325755 80.50466 
" clip-path="url(#pf7fd2255bd)" style="fill: none; stroke: #000000; stroke-width: 2; stroke-linecap: round"/>
   </g>
   <g id="line2d_12">
    <path d="M 12.555 196.155 
L 51.785755 128.20534 
" clip-path="url(#pf7fd2255bd)" style="fill: none; stroke: #000000; stroke-width: 2; stroke-linecap: round"/>
   </g>
   <g id="line2d_13">
    <path d="M 92.045936 87.84866 
L 66.605574 73.16066 
" clip-path="url(#pf7fd2255bd)" style="fill: none; stroke: #000000; stroke-width: 2; stroke-linecap: round"/>
   </g>
   <g id="line2d_14">
    <path d="M 64.505936 135.54934 
L 39.065574 120.86134 
" clip-path="url(#pf7fd2255bd)" style="fill: none; stroke: #000000; stroke-width: 2; stroke-linecap: round"/>
   </g>
   <g id="line2d_15">
    <path d="M 79.325755 80.50466 
L 66.932755 101.969966 
M 73.557849 105.794966 
L 60.30766 98.144966 
M 70.803849 110.565034 
L 57.55366 102.915034 
M 64.178755 106.740034 
L 51.785755 128.20534 
" clip-path="url(#pf7fd2255bd)" style="fill: none; stroke: #000000; stroke-width: 2; stroke-linecap: round"/>
   </g>
   <g id="line2d_16">
    <path d="M 92.045936 87.84866 
L 78.275936 111.699 
M 88.72603 108.898906 
L 67.825842 114.499094 
M 81.07603 122.149094 
L 75.475842 101.248906 
M 78.275936 111.699 
L 64.505936 135.54934 
" clip-path="url(#pf7fd2255bd)" style="fill: none; stroke: #000000; stroke-width: 2; stroke-linecap: round"/>
   </g>
   <g id="line2d_17">
    <path d="M 66.605574 73.16066 
L 60.485574 83.760811 
M 45.185574 110.261189 
L 39.065574 120.86134 
" clip-path="url(#pf7fd2255bd)" style="fill: none; stroke: #000000; stroke-width: 2; stroke-linecap: round"/>
   </g>
   <g id="patch_14">
    <path d="M 118.556509 125.01 
C 119.165151 125.01 119.748945 124.768184 120.179319 124.33781 
C 120.609694 123.907436 120.851509 123.323641 120.851509 122.715 
C 120.851509 122.106359 120.609694 121.522564 120.179319 121.09219 
C 119.748945 120.661816 119.165151 120.42 118.556509 120.42 
C 117.947868 120.42 117.364074 120.661816 116.933699 121.09219 
C 116.503325 121.522564 116.261509 122.106359 116.261509 122.715 
C 116.261509 123.323641 116.503325 123.907436 116.933699 124.33781 
C 117.364074 124.768184 117.947868 125.01 118.556509 125.01 
z
" clip-path="url(#pf7fd2255bd)" style="stroke: #000000; stroke-width: 2; stroke-linejoin: miter"/>
   </g>
   <g id="patch_15">
    <path d="M 224.558019 198.45 
C 225.16666 198.45 225.750455 198.208184 226.180829 197.77781 
C 226.611203 197.347436 226.853019 196.763641 226.853019 196.155 
C 226.853019 195.546359 226.611203 194.962564 226.180829 194.53219 
C 225.750455 194.101816 225.16666 193.86 224.558019 193.86 
C 223.949378 193.86 223.365583 194.101816 222.935209 194.53219 
C 222.504835 194.962564 222.263019 195.546359 222.263019 196.155 
C 222.263019 196.763641 222.504835 197.347436 222.935209 197.77781 
C 223.365583 198.208184 223.949378 198.45 224.558019 198.45 
z
" clip-path="url(#pf7fd2255bd)" style="stroke: #000000; stroke-width: 2; stroke-linejoin: miter"/>
   </g>
   <g id="patch_16">
    <path d="M 118.556509 14.85 
C 119.165151 14.85 119.748945 14.608184 120.179319 14.17781 
C 120.609694 13.747436 120.851509 13.163641 120.851509 12.555 
C 120.851509 11.946359 120.609694 11.362564 120.179319 10.93219 
C 119.748945 10.501816 119.165151 10.26 118.556509 10.26 
C 117.947868 10.26 117.364074 10.501816 116.933699 10.93219 
C 116.503325 11.362564 116.261509 11.946359 116.261509 12.555 
C 116.261509 13.163641 116.503325 13.747436 116.933699 14.17781 
C 117.364074 14.608184 117.947868 14.85 118.556509 14.85 
z
" clip-path="url(#pf7fd2255bd)" style="stroke: #000000; stroke-width: 2; stroke-linejoin: miter"/>
   </g>
   <g id="patch_17">
    <path d="M 12.555 198.45 
C 13.163641 198.45 13.747436 198.208184 14.17781 197.77781 
C 14.608184 197.347436 14.85 196.763641 14.85 196.155 
C 14.85 195.546359 14.608184 194.962564 14.17781 194.53219 
C 13.747436 194.101816 13.163641 193.86 12.555 193.86 
C 11.946359 193.86 11.362564 194.101816 10.93219 194.53219 
C 10.501816 194.962564 10.26 195.546359 10.26 196.155 
C 10.26 196.763641 10.501816 197.347436 10.93219 197.77781 
C 11.362564 198.208184 11.946359 198.45 12.555 198.45 
z
" clip-path="url(#pf7fd2255bd)" style="stroke: #000000; stroke-width: 2; stroke-linejoin: miter"/>
   </g>
  </g>
 </g>
 <defs>
  <clipPath id="pf7fd2255bd">
   <rect x="7.2" y="7.2" width="222.713019" height="210.681"/>
  </clipPath>
 </defs>
</svg>
